%TF.GenerationSoftware,KiCad,Pcbnew,9.0.5*%
%TF.CreationDate,2026-01-31T01:06:20+01:00*%
%TF.ProjectId,DIY amplifier,44495920-616d-4706-9c69-666965722e6b,rev?*%
%TF.SameCoordinates,Original*%
%TF.FileFunction,Soldermask,Top*%
%TF.FilePolarity,Negative*%
%FSLAX46Y46*%
G04 Gerber Fmt 4.6, Leading zero omitted, Abs format (unit mm)*
G04 Created by KiCad (PCBNEW 9.0.5) date 2026-01-31 01:06:21*
%MOMM*%
%LPD*%
G01*
G04 APERTURE LIST*
G04 Aperture macros list*
%AMRoundRect*
0 Rectangle with rounded corners*
0 $1 Rounding radius*
0 $2 $3 $4 $5 $6 $7 $8 $9 X,Y pos of 4 corners*
0 Add a 4 corners polygon primitive as box body*
4,1,4,$2,$3,$4,$5,$6,$7,$8,$9,$2,$3,0*
0 Add four circle primitives for the rounded corners*
1,1,$1+$1,$2,$3*
1,1,$1+$1,$4,$5*
1,1,$1+$1,$6,$7*
1,1,$1+$1,$8,$9*
0 Add four rect primitives between the rounded corners*
20,1,$1+$1,$2,$3,$4,$5,0*
20,1,$1+$1,$4,$5,$6,$7,0*
20,1,$1+$1,$6,$7,$8,$9,0*
20,1,$1+$1,$8,$9,$2,$3,0*%
G04 Aperture macros list end*
%ADD10C,3.500000*%
%ADD11R,1.905000X2.000000*%
%ADD12O,1.905000X2.000000*%
%ADD13C,1.600000*%
%ADD14RoundRect,0.250000X-0.312500X-0.625000X0.312500X-0.625000X0.312500X0.625000X-0.312500X0.625000X0*%
%ADD15RoundRect,0.150000X-0.512500X-0.150000X0.512500X-0.150000X0.512500X0.150000X-0.512500X0.150000X0*%
%ADD16RoundRect,0.140000X-0.140000X-0.170000X0.140000X-0.170000X0.140000X0.170000X-0.140000X0.170000X0*%
%ADD17RoundRect,0.200000X-0.200000X-0.275000X0.200000X-0.275000X0.200000X0.275000X-0.200000X0.275000X0*%
%ADD18RoundRect,0.250001X-0.949999X0.949999X-0.949999X-0.949999X0.949999X-0.949999X0.949999X0.949999X0*%
%ADD19C,2.400000*%
%ADD20RoundRect,0.250000X-1.425000X0.362500X-1.425000X-0.362500X1.425000X-0.362500X1.425000X0.362500X0*%
%ADD21C,3.800000*%
%ADD22RoundRect,0.140000X0.140000X0.170000X-0.140000X0.170000X-0.140000X-0.170000X0.140000X-0.170000X0*%
%ADD23C,3.000000*%
%ADD24RoundRect,0.200000X-0.275000X0.200000X-0.275000X-0.200000X0.275000X-0.200000X0.275000X0.200000X0*%
%ADD25R,2.400000X2.400000*%
%ADD26RoundRect,0.200000X0.200000X0.275000X-0.200000X0.275000X-0.200000X-0.275000X0.200000X-0.275000X0*%
%ADD27C,2.340000*%
%ADD28R,1.600000X1.600000*%
%ADD29RoundRect,0.200000X0.275000X-0.200000X0.275000X0.200000X-0.275000X0.200000X-0.275000X-0.200000X0*%
%ADD30RoundRect,0.675000X-0.675000X-0.675000X0.675000X-0.675000X0.675000X0.675000X-0.675000X0.675000X0*%
%ADD31C,2.700000*%
%ADD32RoundRect,0.140000X-0.170000X0.140000X-0.170000X-0.140000X0.170000X-0.140000X0.170000X0.140000X0*%
%ADD33RoundRect,0.250000X-1.000000X-0.650000X1.000000X-0.650000X1.000000X0.650000X-1.000000X0.650000X0*%
%ADD34R,1.200000X1.200000*%
%ADD35C,1.200000*%
%ADD36RoundRect,0.250000X-0.550000X-0.550000X0.550000X-0.550000X0.550000X0.550000X-0.550000X0.550000X0*%
%ADD37C,2.000000*%
%ADD38RoundRect,0.250000X1.000000X0.650000X-1.000000X0.650000X-1.000000X-0.650000X1.000000X-0.650000X0*%
%ADD39C,1.700000*%
%ADD40R,2.200000X2.800000*%
%ADD41R,2.800000X2.800000*%
%ADD42RoundRect,0.250001X0.949999X-0.949999X0.949999X0.949999X-0.949999X0.949999X-0.949999X-0.949999X0*%
%ADD43RoundRect,0.150000X-0.150000X-0.200000X0.150000X-0.200000X0.150000X0.200000X-0.150000X0.200000X0*%
%ADD44RoundRect,0.150000X0.150000X0.200000X-0.150000X0.200000X-0.150000X-0.200000X0.150000X-0.200000X0*%
G04 APERTURE END LIST*
D10*
%TO.C,Q4*%
X78997015Y-79940332D03*
D11*
X76457015Y-63280332D03*
D12*
X78997015Y-63280332D03*
X81537015Y-63280332D03*
%TD*%
D13*
%TO.C,C23*%
X95832000Y-38944000D03*
X95832000Y-41444000D03*
%TD*%
%TO.C,C22*%
X96227000Y-76084000D03*
X96227000Y-73584000D03*
%TD*%
D14*
%TO.C,R8*%
X58819747Y-45500332D03*
X61744747Y-45500332D03*
%TD*%
D15*
%TO.C,U8*%
X25581975Y-57655097D03*
X25581975Y-58605097D03*
X25581975Y-59555097D03*
X27856975Y-59555097D03*
X27856975Y-57655097D03*
%TD*%
D16*
%TO.C,C35*%
X21088973Y-71901235D03*
X22048973Y-71901235D03*
%TD*%
D17*
%TO.C,R5*%
X45161813Y-60740332D03*
X46811813Y-60740332D03*
%TD*%
D14*
%TO.C,R18*%
X58517864Y-58200332D03*
X61442864Y-58200332D03*
%TD*%
D18*
%TO.C,J3*%
X18093364Y-18870332D03*
D19*
X18093364Y-22370332D03*
%TD*%
D20*
%TO.C,R21*%
X87297134Y-54670879D03*
X87297134Y-60595879D03*
%TD*%
D21*
%TO.C,REF\u002A\u002A*%
X17573000Y-29355000D03*
%TD*%
D22*
%TO.C,C4*%
X25934197Y-65050650D03*
X24974197Y-65050650D03*
%TD*%
D17*
%TO.C,R20*%
X62270000Y-61220000D03*
X63920000Y-61220000D03*
%TD*%
D23*
%TO.C,L1*%
X88411000Y-72041000D03*
X92981000Y-72041000D03*
%TD*%
D24*
%TO.C,R22*%
X45597364Y-45834332D03*
X45597364Y-47484332D03*
%TD*%
D25*
%TO.C,C13*%
X39140000Y-28849000D03*
D19*
X44140000Y-28849000D03*
%TD*%
D26*
%TO.C,R27*%
X25894364Y-71901332D03*
X24244364Y-71901332D03*
%TD*%
D27*
%TO.C,RV1*%
X19082364Y-68196332D03*
X16582364Y-65696332D03*
X19082364Y-63196332D03*
%TD*%
D28*
%TO.C,C16*%
X27402000Y-28563000D03*
D13*
X30902000Y-28563000D03*
%TD*%
D29*
%TO.C,R16*%
X86163000Y-32483000D03*
X86163000Y-30833000D03*
%TD*%
D10*
%TO.C,Q1*%
X68365364Y-48766332D03*
D11*
X65825364Y-32106332D03*
D12*
X68365364Y-32106332D03*
X70905364Y-32106332D03*
%TD*%
D26*
%TO.C,R6*%
X46811813Y-58200083D03*
X45161813Y-58200083D03*
%TD*%
D22*
%TO.C,C8*%
X27789864Y-56165388D03*
X26829864Y-56165388D03*
%TD*%
D17*
%TO.C,R9*%
X59969826Y-36987826D03*
X61619826Y-36987826D03*
%TD*%
D10*
%TO.C,Q2*%
X78997015Y-48766332D03*
D11*
X76457015Y-32106332D03*
D12*
X78997015Y-32106332D03*
X81537015Y-32106332D03*
%TD*%
D26*
%TO.C,R3*%
X30059364Y-69018332D03*
X28409364Y-69018332D03*
%TD*%
D11*
%TO.C,U6*%
X77487364Y-18676332D03*
D12*
X80027364Y-18676332D03*
X82567364Y-18676332D03*
%TD*%
D30*
%TO.C,F1*%
X25377364Y-18870332D03*
X32137364Y-18870332D03*
D31*
X39417364Y-18870332D03*
X46177364Y-18870332D03*
%TD*%
D26*
%TO.C,R17*%
X79468364Y-60708332D03*
X77818364Y-60708332D03*
%TD*%
D14*
%TO.C,R7*%
X58693864Y-40420332D03*
X61618864Y-40420332D03*
%TD*%
D26*
%TO.C,R1*%
X23704364Y-59175388D03*
X22054364Y-59175388D03*
%TD*%
D10*
%TO.C,Q3*%
X68365364Y-79940332D03*
D11*
X65825364Y-63280332D03*
D12*
X68365364Y-63280332D03*
X70905364Y-63280332D03*
%TD*%
D32*
%TO.C,C5*%
X30524364Y-66779332D03*
X30524364Y-67739332D03*
%TD*%
D16*
%TO.C,C7*%
X51036213Y-35627429D03*
X51996213Y-35627429D03*
%TD*%
D33*
%TO.C,D2*%
X52827364Y-68044332D03*
X56827364Y-68044332D03*
%TD*%
D34*
%TO.C,C17*%
X88478000Y-18758000D03*
D35*
X90478000Y-18758000D03*
%TD*%
D11*
%TO.C,U5*%
X66653364Y-18676332D03*
D12*
X69193364Y-18676332D03*
X71733364Y-18676332D03*
%TD*%
D17*
%TO.C,R23*%
X27619364Y-67484332D03*
X29269364Y-67484332D03*
%TD*%
D15*
%TO.C,U2*%
X23657364Y-66404332D03*
X23657364Y-67354332D03*
X23657364Y-68304332D03*
X25932364Y-68304332D03*
X25932364Y-67354332D03*
X25932364Y-66404332D03*
%TD*%
D25*
%TO.C,C19*%
X93826000Y-24534000D03*
D19*
X93826000Y-29534000D03*
%TD*%
D15*
%TO.C,U4*%
X32424301Y-58601602D03*
X32424301Y-59551602D03*
X32424301Y-60501602D03*
X34699301Y-60501602D03*
X34699301Y-58601602D03*
%TD*%
%TO.C,U1*%
X32424301Y-54051602D03*
X32424301Y-55001602D03*
X32424301Y-55951602D03*
X34699301Y-55951602D03*
X34699301Y-54051602D03*
%TD*%
D14*
%TO.C,R19*%
X58597118Y-63280332D03*
X61522118Y-63280332D03*
%TD*%
D36*
%TO.C,U3*%
X48828364Y-40420332D03*
D13*
X48828364Y-42960332D03*
X48828364Y-45500332D03*
X48828364Y-48040332D03*
X48828364Y-50580332D03*
X48828364Y-53120332D03*
X48828364Y-55660332D03*
X48828364Y-58200332D03*
X48828364Y-60740332D03*
X48828364Y-63280332D03*
X56448364Y-63280332D03*
X56448364Y-60740332D03*
X56448364Y-58200332D03*
X56448364Y-55660332D03*
X56448364Y-53120332D03*
X56448364Y-50580332D03*
X56448364Y-48040332D03*
X56448364Y-45500332D03*
X56448364Y-42960332D03*
X56448364Y-40420332D03*
%TD*%
D37*
%TO.C,SW1*%
X30593000Y-41394000D03*
X30593000Y-34894000D03*
X35093000Y-41394000D03*
X35093000Y-34894000D03*
%TD*%
D17*
%TO.C,R2*%
X22054364Y-57655388D03*
X23704364Y-57655388D03*
%TD*%
D34*
%TO.C,C12*%
X74385000Y-22733000D03*
D35*
X76385000Y-22733000D03*
%TD*%
D28*
%TO.C,C14*%
X55473000Y-31290000D03*
D13*
X58973000Y-31290000D03*
%TD*%
D25*
%TO.C,C26*%
X18760041Y-39062000D03*
D19*
X23760041Y-39062000D03*
%TD*%
D38*
%TO.C,D1*%
X48825864Y-36895332D03*
X44825864Y-36895332D03*
%TD*%
D23*
%TO.C,L2*%
X88126000Y-43199000D03*
X92696000Y-43199000D03*
%TD*%
D21*
%TO.C,REF\u002A\u002A*%
X99774000Y-17823000D03*
%TD*%
D25*
%TO.C,C15*%
X55712000Y-17875000D03*
D19*
X55712000Y-22875000D03*
%TD*%
D16*
%TO.C,C3*%
X22745993Y-61960388D03*
X23705993Y-61960388D03*
%TD*%
D39*
%TO.C,J1*%
X20186364Y-78445233D03*
X27186364Y-78445233D03*
D40*
X21086364Y-74745233D03*
X19086364Y-82145233D03*
D41*
X28486364Y-82145233D03*
%TD*%
D17*
%TO.C,R28*%
X24244364Y-70341332D03*
X25894364Y-70341332D03*
%TD*%
D42*
%TO.C,J2*%
X97940500Y-57522000D03*
D19*
X97940500Y-54022000D03*
%TD*%
D43*
%TO.C,D5*%
X23703272Y-60685297D03*
X22303272Y-60685297D03*
%TD*%
D21*
%TO.C,REF\u002A\u002A*%
X100156000Y-80815000D03*
%TD*%
D44*
%TO.C,D4*%
X22302903Y-56157814D03*
X23702903Y-56157814D03*
%TD*%
D16*
%TO.C,C9*%
X53191364Y-65516332D03*
X54151364Y-65516332D03*
%TD*%
D22*
%TO.C,C32*%
X34698676Y-57271602D03*
X33738676Y-57271602D03*
%TD*%
%TO.C,C31*%
X34699930Y-52621602D03*
X33739930Y-52621602D03*
%TD*%
%TO.C,C6*%
X53347364Y-37145332D03*
X52387364Y-37145332D03*
%TD*%
D13*
%TO.C,C21*%
X79271250Y-25522000D03*
X79271250Y-23022000D03*
%TD*%
%TO.C,C11*%
X81734250Y-22992000D03*
X84234250Y-22992000D03*
%TD*%
%TO.C,C20*%
X66728250Y-25216000D03*
X66728250Y-22716000D03*
%TD*%
%TO.C,C18*%
X69227250Y-22720000D03*
X71727250Y-22720000D03*
%TD*%
M02*
