%TF.GenerationSoftware,KiCad,Pcbnew,9.0.5*%
%TF.CreationDate,2026-01-26T23:14:56+01:00*%
%TF.ProjectId,DIY amplifier,44495920-616d-4706-9c69-666965722e6b,rev?*%
%TF.SameCoordinates,Original*%
%TF.FileFunction,Soldermask,Bot*%
%TF.FilePolarity,Negative*%
%FSLAX46Y46*%
G04 Gerber Fmt 4.6, Leading zero omitted, Abs format (unit mm)*
G04 Created by KiCad (PCBNEW 9.0.5) date 2026-01-26 23:14:56*
%MOMM*%
%LPD*%
G01*
G04 APERTURE LIST*
G04 Aperture macros list*
%AMRoundRect*
0 Rectangle with rounded corners*
0 $1 Rounding radius*
0 $2 $3 $4 $5 $6 $7 $8 $9 X,Y pos of 4 corners*
0 Add a 4 corners polygon primitive as box body*
4,1,4,$2,$3,$4,$5,$6,$7,$8,$9,$2,$3,0*
0 Add four circle primitives for the rounded corners*
1,1,$1+$1,$2,$3*
1,1,$1+$1,$4,$5*
1,1,$1+$1,$6,$7*
1,1,$1+$1,$8,$9*
0 Add four rect primitives between the rounded corners*
20,1,$1+$1,$2,$3,$4,$5,0*
20,1,$1+$1,$4,$5,$6,$7,0*
20,1,$1+$1,$6,$7,$8,$9,0*
20,1,$1+$1,$8,$9,$2,$3,0*%
G04 Aperture macros list end*
%ADD10C,3.500000*%
%ADD11R,1.905000X2.000000*%
%ADD12O,1.905000X2.000000*%
%ADD13C,1.600000*%
%ADD14RoundRect,0.250001X-0.949999X0.949999X-0.949999X-0.949999X0.949999X-0.949999X0.949999X0.949999X0*%
%ADD15C,2.400000*%
%ADD16C,3.000000*%
%ADD17R,1.600000X1.600000*%
%ADD18C,2.340000*%
%ADD19C,3.100000*%
%ADD20RoundRect,0.675000X-0.675000X-0.675000X0.675000X-0.675000X0.675000X0.675000X-0.675000X0.675000X0*%
%ADD21C,2.700000*%
%ADD22R,1.200000X1.200000*%
%ADD23C,1.200000*%
%ADD24RoundRect,0.250000X-0.550000X-0.550000X0.550000X-0.550000X0.550000X0.550000X-0.550000X0.550000X0*%
%ADD25C,2.000000*%
%ADD26C,1.700000*%
%ADD27RoundRect,0.250001X0.949999X-0.949999X0.949999X0.949999X-0.949999X0.949999X-0.949999X-0.949999X0*%
%ADD28RoundRect,0.140000X-0.170000X0.140000X-0.170000X-0.140000X0.170000X-0.140000X0.170000X0.140000X0*%
%ADD29RoundRect,0.200000X-0.200000X-0.275000X0.200000X-0.275000X0.200000X0.275000X-0.200000X0.275000X0*%
%ADD30RoundRect,0.150000X-0.150000X0.512500X-0.150000X-0.512500X0.150000X-0.512500X0.150000X0.512500X0*%
%ADD31RoundRect,0.150000X-0.512500X-0.150000X0.512500X-0.150000X0.512500X0.150000X-0.512500X0.150000X0*%
%ADD32RoundRect,0.200000X0.275000X-0.200000X0.275000X0.200000X-0.275000X0.200000X-0.275000X-0.200000X0*%
%ADD33RoundRect,0.140000X0.170000X-0.140000X0.170000X0.140000X-0.170000X0.140000X-0.170000X-0.140000X0*%
%ADD34RoundRect,0.150000X0.150000X-0.587500X0.150000X0.587500X-0.150000X0.587500X-0.150000X-0.587500X0*%
%ADD35RoundRect,0.150000X0.587500X0.150000X-0.587500X0.150000X-0.587500X-0.150000X0.587500X-0.150000X0*%
%ADD36RoundRect,0.140000X0.140000X0.170000X-0.140000X0.170000X-0.140000X-0.170000X0.140000X-0.170000X0*%
%ADD37RoundRect,0.200000X0.200000X0.275000X-0.200000X0.275000X-0.200000X-0.275000X0.200000X-0.275000X0*%
%ADD38RoundRect,0.150000X-0.150000X0.587500X-0.150000X-0.587500X0.150000X-0.587500X0.150000X0.587500X0*%
%ADD39RoundRect,0.200000X-0.275000X0.200000X-0.275000X-0.200000X0.275000X-0.200000X0.275000X0.200000X0*%
%ADD40RoundRect,0.150000X-0.587500X-0.150000X0.587500X-0.150000X0.587500X0.150000X-0.587500X0.150000X0*%
%ADD41RoundRect,0.150000X0.512500X0.150000X-0.512500X0.150000X-0.512500X-0.150000X0.512500X-0.150000X0*%
G04 APERTURE END LIST*
D10*
%TO.C,Q4*%
X78997015Y-79940332D03*
D11*
X76457015Y-63280332D03*
D12*
X78997015Y-63280332D03*
X81537015Y-63280332D03*
%TD*%
D13*
%TO.C,C23*%
X95832000Y-38944000D03*
X95832000Y-41444000D03*
%TD*%
%TO.C,C22*%
X96227000Y-76084000D03*
X96227000Y-73584000D03*
%TD*%
D14*
%TO.C,J3*%
X18093364Y-18870332D03*
D15*
X18093364Y-22370332D03*
%TD*%
D16*
%TO.C,L1*%
X88411000Y-72041000D03*
X92981000Y-72041000D03*
%TD*%
D13*
%TO.C,C21*%
X70038000Y-25522000D03*
X70038000Y-23022000D03*
%TD*%
D17*
%TO.C,C13*%
X36576364Y-25885681D03*
D13*
X36576364Y-28385681D03*
%TD*%
%TO.C,C11*%
X67575000Y-22992000D03*
X65075000Y-22992000D03*
%TD*%
D18*
%TO.C,RV1*%
X19082364Y-68196332D03*
X16582364Y-65696332D03*
X19082364Y-63196332D03*
%TD*%
D17*
%TO.C,C16*%
X59326364Y-17059953D03*
D13*
X59326364Y-19559953D03*
%TD*%
D19*
%TO.C,REF\u002A\u002A*%
X99000000Y-80000000D03*
%TD*%
D10*
%TO.C,Q1*%
X68365364Y-48766332D03*
D11*
X65825364Y-32106332D03*
D12*
X68365364Y-32106332D03*
X70905364Y-32106332D03*
%TD*%
D10*
%TO.C,Q2*%
X78997015Y-48766332D03*
D11*
X76457015Y-32106332D03*
D12*
X78997015Y-32106332D03*
X81537015Y-32106332D03*
%TD*%
D11*
%TO.C,U6*%
X77487364Y-18676332D03*
D12*
X80027364Y-18676332D03*
X82567364Y-18676332D03*
%TD*%
D20*
%TO.C,F1*%
X25377364Y-18870332D03*
X32137364Y-18870332D03*
D21*
X39417364Y-18870332D03*
X46177364Y-18870332D03*
%TD*%
D10*
%TO.C,Q3*%
X68365364Y-79940332D03*
D11*
X65825364Y-63280332D03*
D12*
X68365364Y-63280332D03*
X70905364Y-63280332D03*
%TD*%
D22*
%TO.C,C17*%
X53253364Y-23118733D03*
D23*
X53253364Y-25118733D03*
%TD*%
D11*
%TO.C,U5*%
X66653364Y-18676332D03*
D12*
X69193364Y-18676332D03*
X71733364Y-18676332D03*
%TD*%
D17*
%TO.C,C19*%
X89684364Y-19867681D03*
D13*
X89684364Y-22367681D03*
%TD*%
D19*
%TO.C,REF\u002A\u002A*%
X17431000Y-38135000D03*
%TD*%
D24*
%TO.C,U3*%
X48828364Y-40420332D03*
D13*
X48828364Y-42960332D03*
X48828364Y-45500332D03*
X48828364Y-48040332D03*
X48828364Y-50580332D03*
X48828364Y-53120332D03*
X48828364Y-55660332D03*
X48828364Y-58200332D03*
X48828364Y-60740332D03*
X48828364Y-63280332D03*
X56448364Y-63280332D03*
X56448364Y-60740332D03*
X56448364Y-58200332D03*
X56448364Y-55660332D03*
X56448364Y-53120332D03*
X56448364Y-50580332D03*
X56448364Y-48040332D03*
X56448364Y-45500332D03*
X56448364Y-42960332D03*
X56448364Y-40420332D03*
%TD*%
D25*
%TO.C,SW1*%
X30593000Y-41394000D03*
X30593000Y-34894000D03*
X35093000Y-41394000D03*
X35093000Y-34894000D03*
%TD*%
D22*
%TO.C,C12*%
X58059364Y-23118733D03*
D23*
X58059364Y-25118733D03*
%TD*%
D13*
%TO.C,C20*%
X82581000Y-25216000D03*
X82581000Y-22716000D03*
%TD*%
D17*
%TO.C,C14*%
X52061364Y-17059953D03*
D13*
X52061364Y-19559953D03*
%TD*%
D17*
%TO.C,C26*%
X20723364Y-29716332D03*
D13*
X20723364Y-32216332D03*
%TD*%
D16*
%TO.C,L2*%
X88126000Y-43199000D03*
X92696000Y-43199000D03*
%TD*%
D13*
%TO.C,C18*%
X80082000Y-22720000D03*
X77582000Y-22720000D03*
%TD*%
D17*
%TO.C,C15*%
X45458364Y-25885681D03*
D13*
X45458364Y-28385681D03*
%TD*%
D26*
%TO.C,J1*%
X20186364Y-78445233D03*
X27186364Y-78445233D03*
%TD*%
D27*
%TO.C,J2*%
X97940500Y-57522000D03*
D15*
X97940500Y-54022000D03*
%TD*%
D19*
%TO.C,REF\u002A\u002A*%
X99000000Y-17000000D03*
%TD*%
D28*
%TO.C,C1*%
X25781583Y-52526332D03*
X25781583Y-53486332D03*
%TD*%
D29*
%TO.C,R12*%
X19905583Y-43187332D03*
X21555583Y-43187332D03*
%TD*%
D30*
%TO.C,U10*%
X46316364Y-66133201D03*
X47266364Y-66133201D03*
X48216364Y-66133201D03*
X48216364Y-68408201D03*
X47266364Y-68408201D03*
X46316364Y-68408201D03*
%TD*%
D29*
%TO.C,R25*%
X38863705Y-46941148D03*
X40513705Y-46941148D03*
%TD*%
D31*
%TO.C,U7*%
X18893083Y-47845832D03*
X18893083Y-46895832D03*
X18893083Y-45945832D03*
X21168083Y-45945832D03*
X21168083Y-46895832D03*
X21168083Y-47845832D03*
%TD*%
D32*
%TO.C,R30*%
X44205513Y-50294813D03*
X44205513Y-48644813D03*
%TD*%
D33*
%TO.C,C33*%
X44990184Y-68408201D03*
X44990184Y-67448201D03*
%TD*%
D34*
%TO.C,Q8*%
X37339466Y-46766648D03*
X35439466Y-46766648D03*
X36389466Y-44891648D03*
%TD*%
D31*
%TO.C,U11*%
X42243353Y-44004500D03*
X42243353Y-43054500D03*
X42243353Y-42104500D03*
X44518353Y-42104500D03*
X44518353Y-44004500D03*
%TD*%
D35*
%TO.C,Q6*%
X20297415Y-50903332D03*
X20297415Y-52803332D03*
X18422415Y-51853332D03*
%TD*%
D36*
%TO.C,C24*%
X44508263Y-45366518D03*
X43548263Y-45366518D03*
%TD*%
D37*
%TO.C,R14*%
X16917583Y-46595763D03*
X15267583Y-46595763D03*
%TD*%
%TO.C,R26*%
X34861466Y-50795148D03*
X33211466Y-50795148D03*
%TD*%
D29*
%TO.C,R11*%
X22354583Y-54513332D03*
X24004583Y-54513332D03*
%TD*%
D32*
%TO.C,R4*%
X16616583Y-52641332D03*
X16616583Y-50991332D03*
%TD*%
D29*
%TO.C,R15*%
X15267583Y-48135332D03*
X16917583Y-48135332D03*
%TD*%
D38*
%TO.C,Q9*%
X36389000Y-48920148D03*
X38289000Y-48920148D03*
X37339000Y-50795148D03*
%TD*%
D39*
%TO.C,R13*%
X27279583Y-43028332D03*
X27279583Y-44678332D03*
%TD*%
%TO.C,R10*%
X23593292Y-47431045D03*
X23593292Y-49081045D03*
%TD*%
D33*
%TO.C,C10*%
X30553727Y-49043343D03*
X30553727Y-48083343D03*
%TD*%
D40*
%TO.C,Q7*%
X22357313Y-52803332D03*
X22357313Y-50903332D03*
X24232313Y-51853332D03*
%TD*%
%TO.C,Q5*%
X25404583Y-49079332D03*
X25404583Y-47179332D03*
X27279583Y-48129332D03*
%TD*%
D29*
%TO.C,R24*%
X38863705Y-44891648D03*
X40513705Y-44891648D03*
%TD*%
D30*
%TO.C,U9*%
X31919353Y-46769000D03*
X32869353Y-46769000D03*
X33819353Y-46769000D03*
X33819353Y-49044000D03*
X31919353Y-49044000D03*
%TD*%
D41*
%TO.C,Q10*%
X42446853Y-48807000D03*
X42446853Y-50707000D03*
X40171853Y-49757000D03*
%TD*%
D36*
%TO.C,C2*%
X21161382Y-44648687D03*
X20201382Y-44648687D03*
%TD*%
M02*
