%TF.GenerationSoftware,KiCad,Pcbnew,9.0.5*%
%TF.CreationDate,2026-01-31T01:06:20+01:00*%
%TF.ProjectId,DIY amplifier,44495920-616d-4706-9c69-666965722e6b,rev?*%
%TF.SameCoordinates,Original*%
%TF.FileFunction,Legend,Top*%
%TF.FilePolarity,Positive*%
%FSLAX46Y46*%
G04 Gerber Fmt 4.6, Leading zero omitted, Abs format (unit mm)*
G04 Created by KiCad (PCBNEW 9.0.5) date 2026-01-31 01:06:20*
%MOMM*%
%LPD*%
G01*
G04 APERTURE LIST*
%ADD10C,0.300000*%
%ADD11C,0.150000*%
%ADD12C,0.120000*%
G04 APERTURE END LIST*
D10*
X37002510Y-76682912D02*
X37002510Y-75182912D01*
X37716796Y-75682912D02*
X37716796Y-76682912D01*
X37716796Y-75825769D02*
X37788225Y-75754341D01*
X37788225Y-75754341D02*
X37931082Y-75682912D01*
X37931082Y-75682912D02*
X38145368Y-75682912D01*
X38145368Y-75682912D02*
X38288225Y-75754341D01*
X38288225Y-75754341D02*
X38359654Y-75897198D01*
X38359654Y-75897198D02*
X38359654Y-76682912D01*
X39073939Y-75682912D02*
X39073939Y-77182912D01*
X39073939Y-75754341D02*
X39216797Y-75682912D01*
X39216797Y-75682912D02*
X39502511Y-75682912D01*
X39502511Y-75682912D02*
X39645368Y-75754341D01*
X39645368Y-75754341D02*
X39716797Y-75825769D01*
X39716797Y-75825769D02*
X39788225Y-75968626D01*
X39788225Y-75968626D02*
X39788225Y-76397198D01*
X39788225Y-76397198D02*
X39716797Y-76540055D01*
X39716797Y-76540055D02*
X39645368Y-76611484D01*
X39645368Y-76611484D02*
X39502511Y-76682912D01*
X39502511Y-76682912D02*
X39216797Y-76682912D01*
X39216797Y-76682912D02*
X39073939Y-76611484D01*
X41073940Y-75682912D02*
X41073940Y-76682912D01*
X40431082Y-75682912D02*
X40431082Y-76468626D01*
X40431082Y-76468626D02*
X40502511Y-76611484D01*
X40502511Y-76611484D02*
X40645368Y-76682912D01*
X40645368Y-76682912D02*
X40859654Y-76682912D01*
X40859654Y-76682912D02*
X41002511Y-76611484D01*
X41002511Y-76611484D02*
X41073940Y-76540055D01*
X41573940Y-75682912D02*
X42145368Y-75682912D01*
X41788225Y-75182912D02*
X41788225Y-76468626D01*
X41788225Y-76468626D02*
X41859654Y-76611484D01*
X41859654Y-76611484D02*
X42002511Y-76682912D01*
X42002511Y-76682912D02*
X42145368Y-76682912D01*
X43788225Y-76540055D02*
X43859654Y-76611484D01*
X43859654Y-76611484D02*
X43788225Y-76682912D01*
X43788225Y-76682912D02*
X43716797Y-76611484D01*
X43716797Y-76611484D02*
X43788225Y-76540055D01*
X43788225Y-76540055D02*
X43788225Y-76682912D01*
X43788225Y-75754341D02*
X43859654Y-75825769D01*
X43859654Y-75825769D02*
X43788225Y-75897198D01*
X43788225Y-75897198D02*
X43716797Y-75825769D01*
X43716797Y-75825769D02*
X43788225Y-75754341D01*
X43788225Y-75754341D02*
X43788225Y-75897198D01*
X46431083Y-76682912D02*
X45573940Y-76682912D01*
X46002511Y-76682912D02*
X46002511Y-75182912D01*
X46002511Y-75182912D02*
X45859654Y-75397198D01*
X45859654Y-75397198D02*
X45716797Y-75540055D01*
X45716797Y-75540055D02*
X45573940Y-75611484D01*
X47788225Y-75182912D02*
X47073939Y-75182912D01*
X47073939Y-75182912D02*
X47002511Y-75897198D01*
X47002511Y-75897198D02*
X47073939Y-75825769D01*
X47073939Y-75825769D02*
X47216797Y-75754341D01*
X47216797Y-75754341D02*
X47573939Y-75754341D01*
X47573939Y-75754341D02*
X47716797Y-75825769D01*
X47716797Y-75825769D02*
X47788225Y-75897198D01*
X47788225Y-75897198D02*
X47859654Y-76040055D01*
X47859654Y-76040055D02*
X47859654Y-76397198D01*
X47859654Y-76397198D02*
X47788225Y-76540055D01*
X47788225Y-76540055D02*
X47716797Y-76611484D01*
X47716797Y-76611484D02*
X47573939Y-76682912D01*
X47573939Y-76682912D02*
X47216797Y-76682912D01*
X47216797Y-76682912D02*
X47073939Y-76611484D01*
X47073939Y-76611484D02*
X47002511Y-76540055D01*
X48502510Y-76111484D02*
X49645368Y-76111484D01*
X50216796Y-75182912D02*
X51145368Y-75182912D01*
X51145368Y-75182912D02*
X50645368Y-75754341D01*
X50645368Y-75754341D02*
X50859653Y-75754341D01*
X50859653Y-75754341D02*
X51002511Y-75825769D01*
X51002511Y-75825769D02*
X51073939Y-75897198D01*
X51073939Y-75897198D02*
X51145368Y-76040055D01*
X51145368Y-76040055D02*
X51145368Y-76397198D01*
X51145368Y-76397198D02*
X51073939Y-76540055D01*
X51073939Y-76540055D02*
X51002511Y-76611484D01*
X51002511Y-76611484D02*
X50859653Y-76682912D01*
X50859653Y-76682912D02*
X50431082Y-76682912D01*
X50431082Y-76682912D02*
X50288225Y-76611484D01*
X50288225Y-76611484D02*
X50216796Y-76540055D01*
X52502510Y-75182912D02*
X51788224Y-75182912D01*
X51788224Y-75182912D02*
X51716796Y-75897198D01*
X51716796Y-75897198D02*
X51788224Y-75825769D01*
X51788224Y-75825769D02*
X51931082Y-75754341D01*
X51931082Y-75754341D02*
X52288224Y-75754341D01*
X52288224Y-75754341D02*
X52431082Y-75825769D01*
X52431082Y-75825769D02*
X52502510Y-75897198D01*
X52502510Y-75897198D02*
X52573939Y-76040055D01*
X52573939Y-76040055D02*
X52573939Y-76397198D01*
X52573939Y-76397198D02*
X52502510Y-76540055D01*
X52502510Y-76540055D02*
X52431082Y-76611484D01*
X52431082Y-76611484D02*
X52288224Y-76682912D01*
X52288224Y-76682912D02*
X51931082Y-76682912D01*
X51931082Y-76682912D02*
X51788224Y-76611484D01*
X51788224Y-76611484D02*
X51716796Y-76540055D01*
X53002510Y-75182912D02*
X53502510Y-76682912D01*
X53502510Y-76682912D02*
X54002510Y-75182912D01*
X37288225Y-77597828D02*
X37573939Y-77597828D01*
X37573939Y-77597828D02*
X37716796Y-77669257D01*
X37716796Y-77669257D02*
X37859653Y-77812114D01*
X37859653Y-77812114D02*
X37931082Y-78097828D01*
X37931082Y-78097828D02*
X37931082Y-78597828D01*
X37931082Y-78597828D02*
X37859653Y-78883542D01*
X37859653Y-78883542D02*
X37716796Y-79026400D01*
X37716796Y-79026400D02*
X37573939Y-79097828D01*
X37573939Y-79097828D02*
X37288225Y-79097828D01*
X37288225Y-79097828D02*
X37145368Y-79026400D01*
X37145368Y-79026400D02*
X37002510Y-78883542D01*
X37002510Y-78883542D02*
X36931082Y-78597828D01*
X36931082Y-78597828D02*
X36931082Y-78097828D01*
X36931082Y-78097828D02*
X37002510Y-77812114D01*
X37002510Y-77812114D02*
X37145368Y-77669257D01*
X37145368Y-77669257D02*
X37288225Y-77597828D01*
X39216797Y-78097828D02*
X39216797Y-79097828D01*
X38573939Y-78097828D02*
X38573939Y-78883542D01*
X38573939Y-78883542D02*
X38645368Y-79026400D01*
X38645368Y-79026400D02*
X38788225Y-79097828D01*
X38788225Y-79097828D02*
X39002511Y-79097828D01*
X39002511Y-79097828D02*
X39145368Y-79026400D01*
X39145368Y-79026400D02*
X39216797Y-78954971D01*
X39716797Y-78097828D02*
X40288225Y-78097828D01*
X39931082Y-77597828D02*
X39931082Y-78883542D01*
X39931082Y-78883542D02*
X40002511Y-79026400D01*
X40002511Y-79026400D02*
X40145368Y-79097828D01*
X40145368Y-79097828D02*
X40288225Y-79097828D01*
X40788225Y-78097828D02*
X40788225Y-79597828D01*
X40788225Y-78169257D02*
X40931083Y-78097828D01*
X40931083Y-78097828D02*
X41216797Y-78097828D01*
X41216797Y-78097828D02*
X41359654Y-78169257D01*
X41359654Y-78169257D02*
X41431083Y-78240685D01*
X41431083Y-78240685D02*
X41502511Y-78383542D01*
X41502511Y-78383542D02*
X41502511Y-78812114D01*
X41502511Y-78812114D02*
X41431083Y-78954971D01*
X41431083Y-78954971D02*
X41359654Y-79026400D01*
X41359654Y-79026400D02*
X41216797Y-79097828D01*
X41216797Y-79097828D02*
X40931083Y-79097828D01*
X40931083Y-79097828D02*
X40788225Y-79026400D01*
X42788226Y-78097828D02*
X42788226Y-79097828D01*
X42145368Y-78097828D02*
X42145368Y-78883542D01*
X42145368Y-78883542D02*
X42216797Y-79026400D01*
X42216797Y-79026400D02*
X42359654Y-79097828D01*
X42359654Y-79097828D02*
X42573940Y-79097828D01*
X42573940Y-79097828D02*
X42716797Y-79026400D01*
X42716797Y-79026400D02*
X42788226Y-78954971D01*
X43288226Y-78097828D02*
X43859654Y-78097828D01*
X43502511Y-77597828D02*
X43502511Y-78883542D01*
X43502511Y-78883542D02*
X43573940Y-79026400D01*
X43573940Y-79026400D02*
X43716797Y-79097828D01*
X43716797Y-79097828D02*
X43859654Y-79097828D01*
X45502511Y-78954971D02*
X45573940Y-79026400D01*
X45573940Y-79026400D02*
X45502511Y-79097828D01*
X45502511Y-79097828D02*
X45431083Y-79026400D01*
X45431083Y-79026400D02*
X45502511Y-78954971D01*
X45502511Y-78954971D02*
X45502511Y-79097828D01*
X45502511Y-78169257D02*
X45573940Y-78240685D01*
X45573940Y-78240685D02*
X45502511Y-78312114D01*
X45502511Y-78312114D02*
X45431083Y-78240685D01*
X45431083Y-78240685D02*
X45502511Y-78169257D01*
X45502511Y-78169257D02*
X45502511Y-78312114D01*
X48002512Y-78097828D02*
X48002512Y-79097828D01*
X47645369Y-77526400D02*
X47288226Y-78597828D01*
X47288226Y-78597828D02*
X48216797Y-78597828D01*
X48716797Y-79097828D02*
X49073940Y-79097828D01*
X49073940Y-79097828D02*
X49073940Y-78812114D01*
X49073940Y-78812114D02*
X48931083Y-78740685D01*
X48931083Y-78740685D02*
X48788225Y-78597828D01*
X48788225Y-78597828D02*
X48716797Y-78383542D01*
X48716797Y-78383542D02*
X48716797Y-78026400D01*
X48716797Y-78026400D02*
X48788225Y-77812114D01*
X48788225Y-77812114D02*
X48931083Y-77669257D01*
X48931083Y-77669257D02*
X49145368Y-77597828D01*
X49145368Y-77597828D02*
X49431083Y-77597828D01*
X49431083Y-77597828D02*
X49645368Y-77669257D01*
X49645368Y-77669257D02*
X49788225Y-77812114D01*
X49788225Y-77812114D02*
X49859654Y-78026400D01*
X49859654Y-78026400D02*
X49859654Y-78383542D01*
X49859654Y-78383542D02*
X49788225Y-78597828D01*
X49788225Y-78597828D02*
X49645368Y-78740685D01*
X49645368Y-78740685D02*
X49502511Y-78812114D01*
X49502511Y-78812114D02*
X49502511Y-79097828D01*
X49502511Y-79097828D02*
X49859654Y-79097828D01*
X50573940Y-79026400D02*
X50573940Y-79097828D01*
X50573940Y-79097828D02*
X50502511Y-79240685D01*
X50502511Y-79240685D02*
X50431083Y-79312114D01*
X53002512Y-77597828D02*
X52716797Y-77597828D01*
X52716797Y-77597828D02*
X52573940Y-77669257D01*
X52573940Y-77669257D02*
X52502512Y-77740685D01*
X52502512Y-77740685D02*
X52359654Y-77954971D01*
X52359654Y-77954971D02*
X52288226Y-78240685D01*
X52288226Y-78240685D02*
X52288226Y-78812114D01*
X52288226Y-78812114D02*
X52359654Y-78954971D01*
X52359654Y-78954971D02*
X52431083Y-79026400D01*
X52431083Y-79026400D02*
X52573940Y-79097828D01*
X52573940Y-79097828D02*
X52859654Y-79097828D01*
X52859654Y-79097828D02*
X53002512Y-79026400D01*
X53002512Y-79026400D02*
X53073940Y-78954971D01*
X53073940Y-78954971D02*
X53145369Y-78812114D01*
X53145369Y-78812114D02*
X53145369Y-78454971D01*
X53145369Y-78454971D02*
X53073940Y-78312114D01*
X53073940Y-78312114D02*
X53002512Y-78240685D01*
X53002512Y-78240685D02*
X52859654Y-78169257D01*
X52859654Y-78169257D02*
X52573940Y-78169257D01*
X52573940Y-78169257D02*
X52431083Y-78240685D01*
X52431083Y-78240685D02*
X52359654Y-78312114D01*
X52359654Y-78312114D02*
X52288226Y-78454971D01*
X53716797Y-78669257D02*
X54431083Y-78669257D01*
X53573940Y-79097828D02*
X54073940Y-77597828D01*
X54073940Y-77597828D02*
X54573940Y-79097828D01*
D11*
X85265761Y-77050057D02*
X85170523Y-77002438D01*
X85170523Y-77002438D02*
X85075285Y-76907200D01*
X85075285Y-76907200D02*
X84932428Y-76764342D01*
X84932428Y-76764342D02*
X84837190Y-76716723D01*
X84837190Y-76716723D02*
X84741952Y-76716723D01*
X84789571Y-76954819D02*
X84694333Y-76907200D01*
X84694333Y-76907200D02*
X84599095Y-76811961D01*
X84599095Y-76811961D02*
X84551476Y-76621485D01*
X84551476Y-76621485D02*
X84551476Y-76288152D01*
X84551476Y-76288152D02*
X84599095Y-76097676D01*
X84599095Y-76097676D02*
X84694333Y-76002438D01*
X84694333Y-76002438D02*
X84789571Y-75954819D01*
X84789571Y-75954819D02*
X84980047Y-75954819D01*
X84980047Y-75954819D02*
X85075285Y-76002438D01*
X85075285Y-76002438D02*
X85170523Y-76097676D01*
X85170523Y-76097676D02*
X85218142Y-76288152D01*
X85218142Y-76288152D02*
X85218142Y-76621485D01*
X85218142Y-76621485D02*
X85170523Y-76811961D01*
X85170523Y-76811961D02*
X85075285Y-76907200D01*
X85075285Y-76907200D02*
X84980047Y-76954819D01*
X84980047Y-76954819D02*
X84789571Y-76954819D01*
X86075285Y-76288152D02*
X86075285Y-76954819D01*
X85837190Y-75907200D02*
X85599095Y-76621485D01*
X85599095Y-76621485D02*
X86218142Y-76621485D01*
X98241580Y-40836857D02*
X98289200Y-40884476D01*
X98289200Y-40884476D02*
X98336819Y-41027333D01*
X98336819Y-41027333D02*
X98336819Y-41122571D01*
X98336819Y-41122571D02*
X98289200Y-41265428D01*
X98289200Y-41265428D02*
X98193961Y-41360666D01*
X98193961Y-41360666D02*
X98098723Y-41408285D01*
X98098723Y-41408285D02*
X97908247Y-41455904D01*
X97908247Y-41455904D02*
X97765390Y-41455904D01*
X97765390Y-41455904D02*
X97574914Y-41408285D01*
X97574914Y-41408285D02*
X97479676Y-41360666D01*
X97479676Y-41360666D02*
X97384438Y-41265428D01*
X97384438Y-41265428D02*
X97336819Y-41122571D01*
X97336819Y-41122571D02*
X97336819Y-41027333D01*
X97336819Y-41027333D02*
X97384438Y-40884476D01*
X97384438Y-40884476D02*
X97432057Y-40836857D01*
X97432057Y-40455904D02*
X97384438Y-40408285D01*
X97384438Y-40408285D02*
X97336819Y-40313047D01*
X97336819Y-40313047D02*
X97336819Y-40074952D01*
X97336819Y-40074952D02*
X97384438Y-39979714D01*
X97384438Y-39979714D02*
X97432057Y-39932095D01*
X97432057Y-39932095D02*
X97527295Y-39884476D01*
X97527295Y-39884476D02*
X97622533Y-39884476D01*
X97622533Y-39884476D02*
X97765390Y-39932095D01*
X97765390Y-39932095D02*
X98336819Y-40503523D01*
X98336819Y-40503523D02*
X98336819Y-39884476D01*
X97336819Y-39551142D02*
X97336819Y-38932095D01*
X97336819Y-38932095D02*
X97717771Y-39265428D01*
X97717771Y-39265428D02*
X97717771Y-39122571D01*
X97717771Y-39122571D02*
X97765390Y-39027333D01*
X97765390Y-39027333D02*
X97813009Y-38979714D01*
X97813009Y-38979714D02*
X97908247Y-38932095D01*
X97908247Y-38932095D02*
X98146342Y-38932095D01*
X98146342Y-38932095D02*
X98241580Y-38979714D01*
X98241580Y-38979714D02*
X98289200Y-39027333D01*
X98289200Y-39027333D02*
X98336819Y-39122571D01*
X98336819Y-39122571D02*
X98336819Y-39408285D01*
X98336819Y-39408285D02*
X98289200Y-39503523D01*
X98289200Y-39503523D02*
X98241580Y-39551142D01*
X98473580Y-75476857D02*
X98521200Y-75524476D01*
X98521200Y-75524476D02*
X98568819Y-75667333D01*
X98568819Y-75667333D02*
X98568819Y-75762571D01*
X98568819Y-75762571D02*
X98521200Y-75905428D01*
X98521200Y-75905428D02*
X98425961Y-76000666D01*
X98425961Y-76000666D02*
X98330723Y-76048285D01*
X98330723Y-76048285D02*
X98140247Y-76095904D01*
X98140247Y-76095904D02*
X97997390Y-76095904D01*
X97997390Y-76095904D02*
X97806914Y-76048285D01*
X97806914Y-76048285D02*
X97711676Y-76000666D01*
X97711676Y-76000666D02*
X97616438Y-75905428D01*
X97616438Y-75905428D02*
X97568819Y-75762571D01*
X97568819Y-75762571D02*
X97568819Y-75667333D01*
X97568819Y-75667333D02*
X97616438Y-75524476D01*
X97616438Y-75524476D02*
X97664057Y-75476857D01*
X97664057Y-75095904D02*
X97616438Y-75048285D01*
X97616438Y-75048285D02*
X97568819Y-74953047D01*
X97568819Y-74953047D02*
X97568819Y-74714952D01*
X97568819Y-74714952D02*
X97616438Y-74619714D01*
X97616438Y-74619714D02*
X97664057Y-74572095D01*
X97664057Y-74572095D02*
X97759295Y-74524476D01*
X97759295Y-74524476D02*
X97854533Y-74524476D01*
X97854533Y-74524476D02*
X97997390Y-74572095D01*
X97997390Y-74572095D02*
X98568819Y-75143523D01*
X98568819Y-75143523D02*
X98568819Y-74524476D01*
X97664057Y-74143523D02*
X97616438Y-74095904D01*
X97616438Y-74095904D02*
X97568819Y-74000666D01*
X97568819Y-74000666D02*
X97568819Y-73762571D01*
X97568819Y-73762571D02*
X97616438Y-73667333D01*
X97616438Y-73667333D02*
X97664057Y-73619714D01*
X97664057Y-73619714D02*
X97759295Y-73572095D01*
X97759295Y-73572095D02*
X97854533Y-73572095D01*
X97854533Y-73572095D02*
X97997390Y-73619714D01*
X97997390Y-73619714D02*
X98568819Y-74191142D01*
X98568819Y-74191142D02*
X98568819Y-73572095D01*
X60115580Y-44125151D02*
X59782247Y-43648960D01*
X59544152Y-44125151D02*
X59544152Y-43125151D01*
X59544152Y-43125151D02*
X59925104Y-43125151D01*
X59925104Y-43125151D02*
X60020342Y-43172770D01*
X60020342Y-43172770D02*
X60067961Y-43220389D01*
X60067961Y-43220389D02*
X60115580Y-43315627D01*
X60115580Y-43315627D02*
X60115580Y-43458484D01*
X60115580Y-43458484D02*
X60067961Y-43553722D01*
X60067961Y-43553722D02*
X60020342Y-43601341D01*
X60020342Y-43601341D02*
X59925104Y-43648960D01*
X59925104Y-43648960D02*
X59544152Y-43648960D01*
X60687009Y-43553722D02*
X60591771Y-43506103D01*
X60591771Y-43506103D02*
X60544152Y-43458484D01*
X60544152Y-43458484D02*
X60496533Y-43363246D01*
X60496533Y-43363246D02*
X60496533Y-43315627D01*
X60496533Y-43315627D02*
X60544152Y-43220389D01*
X60544152Y-43220389D02*
X60591771Y-43172770D01*
X60591771Y-43172770D02*
X60687009Y-43125151D01*
X60687009Y-43125151D02*
X60877485Y-43125151D01*
X60877485Y-43125151D02*
X60972723Y-43172770D01*
X60972723Y-43172770D02*
X61020342Y-43220389D01*
X61020342Y-43220389D02*
X61067961Y-43315627D01*
X61067961Y-43315627D02*
X61067961Y-43363246D01*
X61067961Y-43363246D02*
X61020342Y-43458484D01*
X61020342Y-43458484D02*
X60972723Y-43506103D01*
X60972723Y-43506103D02*
X60877485Y-43553722D01*
X60877485Y-43553722D02*
X60687009Y-43553722D01*
X60687009Y-43553722D02*
X60591771Y-43601341D01*
X60591771Y-43601341D02*
X60544152Y-43648960D01*
X60544152Y-43648960D02*
X60496533Y-43744198D01*
X60496533Y-43744198D02*
X60496533Y-43934674D01*
X60496533Y-43934674D02*
X60544152Y-44029912D01*
X60544152Y-44029912D02*
X60591771Y-44077532D01*
X60591771Y-44077532D02*
X60687009Y-44125151D01*
X60687009Y-44125151D02*
X60877485Y-44125151D01*
X60877485Y-44125151D02*
X60972723Y-44077532D01*
X60972723Y-44077532D02*
X61020342Y-44029912D01*
X61020342Y-44029912D02*
X61067961Y-43934674D01*
X61067961Y-43934674D02*
X61067961Y-43744198D01*
X61067961Y-43744198D02*
X61020342Y-43648960D01*
X61020342Y-43648960D02*
X60972723Y-43601341D01*
X60972723Y-43601341D02*
X60877485Y-43553722D01*
X25957570Y-60526207D02*
X25957570Y-61335730D01*
X25957570Y-61335730D02*
X26005189Y-61430968D01*
X26005189Y-61430968D02*
X26052808Y-61478588D01*
X26052808Y-61478588D02*
X26148046Y-61526207D01*
X26148046Y-61526207D02*
X26338522Y-61526207D01*
X26338522Y-61526207D02*
X26433760Y-61478588D01*
X26433760Y-61478588D02*
X26481379Y-61430968D01*
X26481379Y-61430968D02*
X26528998Y-61335730D01*
X26528998Y-61335730D02*
X26528998Y-60526207D01*
X27148046Y-60954778D02*
X27052808Y-60907159D01*
X27052808Y-60907159D02*
X27005189Y-60859540D01*
X27005189Y-60859540D02*
X26957570Y-60764302D01*
X26957570Y-60764302D02*
X26957570Y-60716683D01*
X26957570Y-60716683D02*
X27005189Y-60621445D01*
X27005189Y-60621445D02*
X27052808Y-60573826D01*
X27052808Y-60573826D02*
X27148046Y-60526207D01*
X27148046Y-60526207D02*
X27338522Y-60526207D01*
X27338522Y-60526207D02*
X27433760Y-60573826D01*
X27433760Y-60573826D02*
X27481379Y-60621445D01*
X27481379Y-60621445D02*
X27528998Y-60716683D01*
X27528998Y-60716683D02*
X27528998Y-60764302D01*
X27528998Y-60764302D02*
X27481379Y-60859540D01*
X27481379Y-60859540D02*
X27433760Y-60907159D01*
X27433760Y-60907159D02*
X27338522Y-60954778D01*
X27338522Y-60954778D02*
X27148046Y-60954778D01*
X27148046Y-60954778D02*
X27052808Y-61002397D01*
X27052808Y-61002397D02*
X27005189Y-61050016D01*
X27005189Y-61050016D02*
X26957570Y-61145254D01*
X26957570Y-61145254D02*
X26957570Y-61335730D01*
X26957570Y-61335730D02*
X27005189Y-61430968D01*
X27005189Y-61430968D02*
X27052808Y-61478588D01*
X27052808Y-61478588D02*
X27148046Y-61526207D01*
X27148046Y-61526207D02*
X27338522Y-61526207D01*
X27338522Y-61526207D02*
X27433760Y-61478588D01*
X27433760Y-61478588D02*
X27481379Y-61430968D01*
X27481379Y-61430968D02*
X27528998Y-61335730D01*
X27528998Y-61335730D02*
X27528998Y-61145254D01*
X27528998Y-61145254D02*
X27481379Y-61050016D01*
X27481379Y-61050016D02*
X27433760Y-61002397D01*
X27433760Y-61002397D02*
X27338522Y-60954778D01*
X21403506Y-71098398D02*
X21355887Y-71146018D01*
X21355887Y-71146018D02*
X21213030Y-71193637D01*
X21213030Y-71193637D02*
X21117792Y-71193637D01*
X21117792Y-71193637D02*
X20974935Y-71146018D01*
X20974935Y-71146018D02*
X20879697Y-71050779D01*
X20879697Y-71050779D02*
X20832078Y-70955541D01*
X20832078Y-70955541D02*
X20784459Y-70765065D01*
X20784459Y-70765065D02*
X20784459Y-70622208D01*
X20784459Y-70622208D02*
X20832078Y-70431732D01*
X20832078Y-70431732D02*
X20879697Y-70336494D01*
X20879697Y-70336494D02*
X20974935Y-70241256D01*
X20974935Y-70241256D02*
X21117792Y-70193637D01*
X21117792Y-70193637D02*
X21213030Y-70193637D01*
X21213030Y-70193637D02*
X21355887Y-70241256D01*
X21355887Y-70241256D02*
X21403506Y-70288875D01*
X21736840Y-70193637D02*
X22355887Y-70193637D01*
X22355887Y-70193637D02*
X22022554Y-70574589D01*
X22022554Y-70574589D02*
X22165411Y-70574589D01*
X22165411Y-70574589D02*
X22260649Y-70622208D01*
X22260649Y-70622208D02*
X22308268Y-70669827D01*
X22308268Y-70669827D02*
X22355887Y-70765065D01*
X22355887Y-70765065D02*
X22355887Y-71003160D01*
X22355887Y-71003160D02*
X22308268Y-71098398D01*
X22308268Y-71098398D02*
X22260649Y-71146018D01*
X22260649Y-71146018D02*
X22165411Y-71193637D01*
X22165411Y-71193637D02*
X21879697Y-71193637D01*
X21879697Y-71193637D02*
X21784459Y-71146018D01*
X21784459Y-71146018D02*
X21736840Y-71098398D01*
X23260649Y-70193637D02*
X22784459Y-70193637D01*
X22784459Y-70193637D02*
X22736840Y-70669827D01*
X22736840Y-70669827D02*
X22784459Y-70622208D01*
X22784459Y-70622208D02*
X22879697Y-70574589D01*
X22879697Y-70574589D02*
X23117792Y-70574589D01*
X23117792Y-70574589D02*
X23213030Y-70622208D01*
X23213030Y-70622208D02*
X23260649Y-70669827D01*
X23260649Y-70669827D02*
X23308268Y-70765065D01*
X23308268Y-70765065D02*
X23308268Y-71003160D01*
X23308268Y-71003160D02*
X23260649Y-71098398D01*
X23260649Y-71098398D02*
X23213030Y-71146018D01*
X23213030Y-71146018D02*
X23117792Y-71193637D01*
X23117792Y-71193637D02*
X22879697Y-71193637D01*
X22879697Y-71193637D02*
X22784459Y-71146018D01*
X22784459Y-71146018D02*
X22736840Y-71098398D01*
X45820146Y-62730151D02*
X45486813Y-62253960D01*
X45248718Y-62730151D02*
X45248718Y-61730151D01*
X45248718Y-61730151D02*
X45629670Y-61730151D01*
X45629670Y-61730151D02*
X45724908Y-61777770D01*
X45724908Y-61777770D02*
X45772527Y-61825389D01*
X45772527Y-61825389D02*
X45820146Y-61920627D01*
X45820146Y-61920627D02*
X45820146Y-62063484D01*
X45820146Y-62063484D02*
X45772527Y-62158722D01*
X45772527Y-62158722D02*
X45724908Y-62206341D01*
X45724908Y-62206341D02*
X45629670Y-62253960D01*
X45629670Y-62253960D02*
X45248718Y-62253960D01*
X46724908Y-61730151D02*
X46248718Y-61730151D01*
X46248718Y-61730151D02*
X46201099Y-62206341D01*
X46201099Y-62206341D02*
X46248718Y-62158722D01*
X46248718Y-62158722D02*
X46343956Y-62111103D01*
X46343956Y-62111103D02*
X46582051Y-62111103D01*
X46582051Y-62111103D02*
X46677289Y-62158722D01*
X46677289Y-62158722D02*
X46724908Y-62206341D01*
X46724908Y-62206341D02*
X46772527Y-62301579D01*
X46772527Y-62301579D02*
X46772527Y-62539674D01*
X46772527Y-62539674D02*
X46724908Y-62634912D01*
X46724908Y-62634912D02*
X46677289Y-62682532D01*
X46677289Y-62682532D02*
X46582051Y-62730151D01*
X46582051Y-62730151D02*
X46343956Y-62730151D01*
X46343956Y-62730151D02*
X46248718Y-62682532D01*
X46248718Y-62682532D02*
X46201099Y-62634912D01*
X59337506Y-56825151D02*
X59004173Y-56348960D01*
X58766078Y-56825151D02*
X58766078Y-55825151D01*
X58766078Y-55825151D02*
X59147030Y-55825151D01*
X59147030Y-55825151D02*
X59242268Y-55872770D01*
X59242268Y-55872770D02*
X59289887Y-55920389D01*
X59289887Y-55920389D02*
X59337506Y-56015627D01*
X59337506Y-56015627D02*
X59337506Y-56158484D01*
X59337506Y-56158484D02*
X59289887Y-56253722D01*
X59289887Y-56253722D02*
X59242268Y-56301341D01*
X59242268Y-56301341D02*
X59147030Y-56348960D01*
X59147030Y-56348960D02*
X58766078Y-56348960D01*
X60289887Y-56825151D02*
X59718459Y-56825151D01*
X60004173Y-56825151D02*
X60004173Y-55825151D01*
X60004173Y-55825151D02*
X59908935Y-55968008D01*
X59908935Y-55968008D02*
X59813697Y-56063246D01*
X59813697Y-56063246D02*
X59718459Y-56110865D01*
X60861316Y-56253722D02*
X60766078Y-56206103D01*
X60766078Y-56206103D02*
X60718459Y-56158484D01*
X60718459Y-56158484D02*
X60670840Y-56063246D01*
X60670840Y-56063246D02*
X60670840Y-56015627D01*
X60670840Y-56015627D02*
X60718459Y-55920389D01*
X60718459Y-55920389D02*
X60766078Y-55872770D01*
X60766078Y-55872770D02*
X60861316Y-55825151D01*
X60861316Y-55825151D02*
X61051792Y-55825151D01*
X61051792Y-55825151D02*
X61147030Y-55872770D01*
X61147030Y-55872770D02*
X61194649Y-55920389D01*
X61194649Y-55920389D02*
X61242268Y-56015627D01*
X61242268Y-56015627D02*
X61242268Y-56063246D01*
X61242268Y-56063246D02*
X61194649Y-56158484D01*
X61194649Y-56158484D02*
X61147030Y-56206103D01*
X61147030Y-56206103D02*
X61051792Y-56253722D01*
X61051792Y-56253722D02*
X60861316Y-56253722D01*
X60861316Y-56253722D02*
X60766078Y-56301341D01*
X60766078Y-56301341D02*
X60718459Y-56348960D01*
X60718459Y-56348960D02*
X60670840Y-56444198D01*
X60670840Y-56444198D02*
X60670840Y-56634674D01*
X60670840Y-56634674D02*
X60718459Y-56729912D01*
X60718459Y-56729912D02*
X60766078Y-56777532D01*
X60766078Y-56777532D02*
X60861316Y-56825151D01*
X60861316Y-56825151D02*
X61051792Y-56825151D01*
X61051792Y-56825151D02*
X61147030Y-56777532D01*
X61147030Y-56777532D02*
X61194649Y-56729912D01*
X61194649Y-56729912D02*
X61242268Y-56634674D01*
X61242268Y-56634674D02*
X61242268Y-56444198D01*
X61242268Y-56444198D02*
X61194649Y-56348960D01*
X61194649Y-56348960D02*
X61147030Y-56301341D01*
X61147030Y-56301341D02*
X61051792Y-56253722D01*
X22068183Y-20953665D02*
X22782468Y-20953665D01*
X22782468Y-20953665D02*
X22925325Y-21001284D01*
X22925325Y-21001284D02*
X23020564Y-21096522D01*
X23020564Y-21096522D02*
X23068183Y-21239379D01*
X23068183Y-21239379D02*
X23068183Y-21334617D01*
X22068183Y-20572712D02*
X22068183Y-19953665D01*
X22068183Y-19953665D02*
X22449135Y-20286998D01*
X22449135Y-20286998D02*
X22449135Y-20144141D01*
X22449135Y-20144141D02*
X22496754Y-20048903D01*
X22496754Y-20048903D02*
X22544373Y-20001284D01*
X22544373Y-20001284D02*
X22639611Y-19953665D01*
X22639611Y-19953665D02*
X22877706Y-19953665D01*
X22877706Y-19953665D02*
X22972944Y-20001284D01*
X22972944Y-20001284D02*
X23020564Y-20048903D01*
X23020564Y-20048903D02*
X23068183Y-20144141D01*
X23068183Y-20144141D02*
X23068183Y-20429855D01*
X23068183Y-20429855D02*
X23020564Y-20525093D01*
X23020564Y-20525093D02*
X22972944Y-20572712D01*
X90381953Y-58276236D02*
X89905762Y-58609569D01*
X90381953Y-58847664D02*
X89381953Y-58847664D01*
X89381953Y-58847664D02*
X89381953Y-58466712D01*
X89381953Y-58466712D02*
X89429572Y-58371474D01*
X89429572Y-58371474D02*
X89477191Y-58323855D01*
X89477191Y-58323855D02*
X89572429Y-58276236D01*
X89572429Y-58276236D02*
X89715286Y-58276236D01*
X89715286Y-58276236D02*
X89810524Y-58323855D01*
X89810524Y-58323855D02*
X89858143Y-58371474D01*
X89858143Y-58371474D02*
X89905762Y-58466712D01*
X89905762Y-58466712D02*
X89905762Y-58847664D01*
X89477191Y-57895283D02*
X89429572Y-57847664D01*
X89429572Y-57847664D02*
X89381953Y-57752426D01*
X89381953Y-57752426D02*
X89381953Y-57514331D01*
X89381953Y-57514331D02*
X89429572Y-57419093D01*
X89429572Y-57419093D02*
X89477191Y-57371474D01*
X89477191Y-57371474D02*
X89572429Y-57323855D01*
X89572429Y-57323855D02*
X89667667Y-57323855D01*
X89667667Y-57323855D02*
X89810524Y-57371474D01*
X89810524Y-57371474D02*
X90381953Y-57942902D01*
X90381953Y-57942902D02*
X90381953Y-57323855D01*
X90381953Y-56371474D02*
X90381953Y-56942902D01*
X90381953Y-56657188D02*
X89381953Y-56657188D01*
X89381953Y-56657188D02*
X89524810Y-56752426D01*
X89524810Y-56752426D02*
X89620048Y-56847664D01*
X89620048Y-56847664D02*
X89667667Y-56942902D01*
X16239666Y-26909819D02*
X15906333Y-26433628D01*
X15668238Y-26909819D02*
X15668238Y-25909819D01*
X15668238Y-25909819D02*
X16049190Y-25909819D01*
X16049190Y-25909819D02*
X16144428Y-25957438D01*
X16144428Y-25957438D02*
X16192047Y-26005057D01*
X16192047Y-26005057D02*
X16239666Y-26100295D01*
X16239666Y-26100295D02*
X16239666Y-26243152D01*
X16239666Y-26243152D02*
X16192047Y-26338390D01*
X16192047Y-26338390D02*
X16144428Y-26386009D01*
X16144428Y-26386009D02*
X16049190Y-26433628D01*
X16049190Y-26433628D02*
X15668238Y-26433628D01*
X16668238Y-26386009D02*
X17001571Y-26386009D01*
X17144428Y-26909819D02*
X16668238Y-26909819D01*
X16668238Y-26909819D02*
X16668238Y-25909819D01*
X16668238Y-25909819D02*
X17144428Y-25909819D01*
X17906333Y-26386009D02*
X17573000Y-26386009D01*
X17573000Y-26909819D02*
X17573000Y-25909819D01*
X17573000Y-25909819D02*
X18049190Y-25909819D01*
X18573000Y-25909819D02*
X18573000Y-26147914D01*
X18334905Y-26052676D02*
X18573000Y-26147914D01*
X18573000Y-26147914D02*
X18811095Y-26052676D01*
X18430143Y-26338390D02*
X18573000Y-26147914D01*
X18573000Y-26147914D02*
X18715857Y-26338390D01*
X19334905Y-25909819D02*
X19334905Y-26147914D01*
X19096810Y-26052676D02*
X19334905Y-26147914D01*
X19334905Y-26147914D02*
X19573000Y-26052676D01*
X19192048Y-26338390D02*
X19334905Y-26147914D01*
X19334905Y-26147914D02*
X19477762Y-26338390D01*
X25287530Y-64319230D02*
X25239911Y-64366850D01*
X25239911Y-64366850D02*
X25097054Y-64414469D01*
X25097054Y-64414469D02*
X25001816Y-64414469D01*
X25001816Y-64414469D02*
X24858959Y-64366850D01*
X24858959Y-64366850D02*
X24763721Y-64271611D01*
X24763721Y-64271611D02*
X24716102Y-64176373D01*
X24716102Y-64176373D02*
X24668483Y-63985897D01*
X24668483Y-63985897D02*
X24668483Y-63843040D01*
X24668483Y-63843040D02*
X24716102Y-63652564D01*
X24716102Y-63652564D02*
X24763721Y-63557326D01*
X24763721Y-63557326D02*
X24858959Y-63462088D01*
X24858959Y-63462088D02*
X25001816Y-63414469D01*
X25001816Y-63414469D02*
X25097054Y-63414469D01*
X25097054Y-63414469D02*
X25239911Y-63462088D01*
X25239911Y-63462088D02*
X25287530Y-63509707D01*
X26144673Y-63747802D02*
X26144673Y-64414469D01*
X25906578Y-63366850D02*
X25668483Y-64081135D01*
X25668483Y-64081135D02*
X26287530Y-64081135D01*
X65399142Y-61674819D02*
X65065809Y-61198628D01*
X64827714Y-61674819D02*
X64827714Y-60674819D01*
X64827714Y-60674819D02*
X65208666Y-60674819D01*
X65208666Y-60674819D02*
X65303904Y-60722438D01*
X65303904Y-60722438D02*
X65351523Y-60770057D01*
X65351523Y-60770057D02*
X65399142Y-60865295D01*
X65399142Y-60865295D02*
X65399142Y-61008152D01*
X65399142Y-61008152D02*
X65351523Y-61103390D01*
X65351523Y-61103390D02*
X65303904Y-61151009D01*
X65303904Y-61151009D02*
X65208666Y-61198628D01*
X65208666Y-61198628D02*
X64827714Y-61198628D01*
X65780095Y-60770057D02*
X65827714Y-60722438D01*
X65827714Y-60722438D02*
X65922952Y-60674819D01*
X65922952Y-60674819D02*
X66161047Y-60674819D01*
X66161047Y-60674819D02*
X66256285Y-60722438D01*
X66256285Y-60722438D02*
X66303904Y-60770057D01*
X66303904Y-60770057D02*
X66351523Y-60865295D01*
X66351523Y-60865295D02*
X66351523Y-60960533D01*
X66351523Y-60960533D02*
X66303904Y-61103390D01*
X66303904Y-61103390D02*
X65732476Y-61674819D01*
X65732476Y-61674819D02*
X66351523Y-61674819D01*
X66970571Y-60674819D02*
X67065809Y-60674819D01*
X67065809Y-60674819D02*
X67161047Y-60722438D01*
X67161047Y-60722438D02*
X67208666Y-60770057D01*
X67208666Y-60770057D02*
X67256285Y-60865295D01*
X67256285Y-60865295D02*
X67303904Y-61055771D01*
X67303904Y-61055771D02*
X67303904Y-61293866D01*
X67303904Y-61293866D02*
X67256285Y-61484342D01*
X67256285Y-61484342D02*
X67208666Y-61579580D01*
X67208666Y-61579580D02*
X67161047Y-61627200D01*
X67161047Y-61627200D02*
X67065809Y-61674819D01*
X67065809Y-61674819D02*
X66970571Y-61674819D01*
X66970571Y-61674819D02*
X66875333Y-61627200D01*
X66875333Y-61627200D02*
X66827714Y-61579580D01*
X66827714Y-61579580D02*
X66780095Y-61484342D01*
X66780095Y-61484342D02*
X66732476Y-61293866D01*
X66732476Y-61293866D02*
X66732476Y-61055771D01*
X66732476Y-61055771D02*
X66780095Y-60865295D01*
X66780095Y-60865295D02*
X66827714Y-60770057D01*
X66827714Y-60770057D02*
X66875333Y-60722438D01*
X66875333Y-60722438D02*
X66970571Y-60674819D01*
X88244333Y-80526819D02*
X87768143Y-80526819D01*
X87768143Y-80526819D02*
X87768143Y-79526819D01*
X89101476Y-80526819D02*
X88530048Y-80526819D01*
X88815762Y-80526819D02*
X88815762Y-79526819D01*
X88815762Y-79526819D02*
X88720524Y-79669676D01*
X88720524Y-79669676D02*
X88625286Y-79764914D01*
X88625286Y-79764914D02*
X88530048Y-79812533D01*
X44618183Y-47302189D02*
X44141992Y-47635522D01*
X44618183Y-47873617D02*
X43618183Y-47873617D01*
X43618183Y-47873617D02*
X43618183Y-47492665D01*
X43618183Y-47492665D02*
X43665802Y-47397427D01*
X43665802Y-47397427D02*
X43713421Y-47349808D01*
X43713421Y-47349808D02*
X43808659Y-47302189D01*
X43808659Y-47302189D02*
X43951516Y-47302189D01*
X43951516Y-47302189D02*
X44046754Y-47349808D01*
X44046754Y-47349808D02*
X44094373Y-47397427D01*
X44094373Y-47397427D02*
X44141992Y-47492665D01*
X44141992Y-47492665D02*
X44141992Y-47873617D01*
X43713421Y-46921236D02*
X43665802Y-46873617D01*
X43665802Y-46873617D02*
X43618183Y-46778379D01*
X43618183Y-46778379D02*
X43618183Y-46540284D01*
X43618183Y-46540284D02*
X43665802Y-46445046D01*
X43665802Y-46445046D02*
X43713421Y-46397427D01*
X43713421Y-46397427D02*
X43808659Y-46349808D01*
X43808659Y-46349808D02*
X43903897Y-46349808D01*
X43903897Y-46349808D02*
X44046754Y-46397427D01*
X44046754Y-46397427D02*
X44618183Y-46968855D01*
X44618183Y-46968855D02*
X44618183Y-46349808D01*
X43713421Y-45968855D02*
X43665802Y-45921236D01*
X43665802Y-45921236D02*
X43618183Y-45825998D01*
X43618183Y-45825998D02*
X43618183Y-45587903D01*
X43618183Y-45587903D02*
X43665802Y-45492665D01*
X43665802Y-45492665D02*
X43713421Y-45445046D01*
X43713421Y-45445046D02*
X43808659Y-45397427D01*
X43808659Y-45397427D02*
X43903897Y-45397427D01*
X43903897Y-45397427D02*
X44046754Y-45445046D01*
X44046754Y-45445046D02*
X44618183Y-46016474D01*
X44618183Y-46016474D02*
X44618183Y-45397427D01*
X49691142Y-26798580D02*
X49643523Y-26846200D01*
X49643523Y-26846200D02*
X49500666Y-26893819D01*
X49500666Y-26893819D02*
X49405428Y-26893819D01*
X49405428Y-26893819D02*
X49262571Y-26846200D01*
X49262571Y-26846200D02*
X49167333Y-26750961D01*
X49167333Y-26750961D02*
X49119714Y-26655723D01*
X49119714Y-26655723D02*
X49072095Y-26465247D01*
X49072095Y-26465247D02*
X49072095Y-26322390D01*
X49072095Y-26322390D02*
X49119714Y-26131914D01*
X49119714Y-26131914D02*
X49167333Y-26036676D01*
X49167333Y-26036676D02*
X49262571Y-25941438D01*
X49262571Y-25941438D02*
X49405428Y-25893819D01*
X49405428Y-25893819D02*
X49500666Y-25893819D01*
X49500666Y-25893819D02*
X49643523Y-25941438D01*
X49643523Y-25941438D02*
X49691142Y-25989057D01*
X50643523Y-26893819D02*
X50072095Y-26893819D01*
X50357809Y-26893819D02*
X50357809Y-25893819D01*
X50357809Y-25893819D02*
X50262571Y-26036676D01*
X50262571Y-26036676D02*
X50167333Y-26131914D01*
X50167333Y-26131914D02*
X50072095Y-26179533D01*
X50976857Y-25893819D02*
X51595904Y-25893819D01*
X51595904Y-25893819D02*
X51262571Y-26274771D01*
X51262571Y-26274771D02*
X51405428Y-26274771D01*
X51405428Y-26274771D02*
X51500666Y-26322390D01*
X51500666Y-26322390D02*
X51548285Y-26370009D01*
X51548285Y-26370009D02*
X51595904Y-26465247D01*
X51595904Y-26465247D02*
X51595904Y-26703342D01*
X51595904Y-26703342D02*
X51548285Y-26798580D01*
X51548285Y-26798580D02*
X51500666Y-26846200D01*
X51500666Y-26846200D02*
X51405428Y-26893819D01*
X51405428Y-26893819D02*
X51119714Y-26893819D01*
X51119714Y-26893819D02*
X51024476Y-26846200D01*
X51024476Y-26846200D02*
X50976857Y-26798580D01*
X27280506Y-72356151D02*
X26947173Y-71879960D01*
X26709078Y-72356151D02*
X26709078Y-71356151D01*
X26709078Y-71356151D02*
X27090030Y-71356151D01*
X27090030Y-71356151D02*
X27185268Y-71403770D01*
X27185268Y-71403770D02*
X27232887Y-71451389D01*
X27232887Y-71451389D02*
X27280506Y-71546627D01*
X27280506Y-71546627D02*
X27280506Y-71689484D01*
X27280506Y-71689484D02*
X27232887Y-71784722D01*
X27232887Y-71784722D02*
X27185268Y-71832341D01*
X27185268Y-71832341D02*
X27090030Y-71879960D01*
X27090030Y-71879960D02*
X26709078Y-71879960D01*
X27661459Y-71451389D02*
X27709078Y-71403770D01*
X27709078Y-71403770D02*
X27804316Y-71356151D01*
X27804316Y-71356151D02*
X28042411Y-71356151D01*
X28042411Y-71356151D02*
X28137649Y-71403770D01*
X28137649Y-71403770D02*
X28185268Y-71451389D01*
X28185268Y-71451389D02*
X28232887Y-71546627D01*
X28232887Y-71546627D02*
X28232887Y-71641865D01*
X28232887Y-71641865D02*
X28185268Y-71784722D01*
X28185268Y-71784722D02*
X27613840Y-72356151D01*
X27613840Y-72356151D02*
X28232887Y-72356151D01*
X28566221Y-71356151D02*
X29232887Y-71356151D01*
X29232887Y-71356151D02*
X28804316Y-72356151D01*
X17449125Y-72052151D02*
X17115792Y-71575960D01*
X16877697Y-72052151D02*
X16877697Y-71052151D01*
X16877697Y-71052151D02*
X17258649Y-71052151D01*
X17258649Y-71052151D02*
X17353887Y-71099770D01*
X17353887Y-71099770D02*
X17401506Y-71147389D01*
X17401506Y-71147389D02*
X17449125Y-71242627D01*
X17449125Y-71242627D02*
X17449125Y-71385484D01*
X17449125Y-71385484D02*
X17401506Y-71480722D01*
X17401506Y-71480722D02*
X17353887Y-71528341D01*
X17353887Y-71528341D02*
X17258649Y-71575960D01*
X17258649Y-71575960D02*
X16877697Y-71575960D01*
X17734840Y-71052151D02*
X18068173Y-72052151D01*
X18068173Y-72052151D02*
X18401506Y-71052151D01*
X19258649Y-72052151D02*
X18687221Y-72052151D01*
X18972935Y-72052151D02*
X18972935Y-71052151D01*
X18972935Y-71052151D02*
X18877697Y-71195008D01*
X18877697Y-71195008D02*
X18782459Y-71290246D01*
X18782459Y-71290246D02*
X18687221Y-71337865D01*
X28509142Y-23672580D02*
X28461523Y-23720200D01*
X28461523Y-23720200D02*
X28318666Y-23767819D01*
X28318666Y-23767819D02*
X28223428Y-23767819D01*
X28223428Y-23767819D02*
X28080571Y-23720200D01*
X28080571Y-23720200D02*
X27985333Y-23624961D01*
X27985333Y-23624961D02*
X27937714Y-23529723D01*
X27937714Y-23529723D02*
X27890095Y-23339247D01*
X27890095Y-23339247D02*
X27890095Y-23196390D01*
X27890095Y-23196390D02*
X27937714Y-23005914D01*
X27937714Y-23005914D02*
X27985333Y-22910676D01*
X27985333Y-22910676D02*
X28080571Y-22815438D01*
X28080571Y-22815438D02*
X28223428Y-22767819D01*
X28223428Y-22767819D02*
X28318666Y-22767819D01*
X28318666Y-22767819D02*
X28461523Y-22815438D01*
X28461523Y-22815438D02*
X28509142Y-22863057D01*
X29461523Y-23767819D02*
X28890095Y-23767819D01*
X29175809Y-23767819D02*
X29175809Y-22767819D01*
X29175809Y-22767819D02*
X29080571Y-22910676D01*
X29080571Y-22910676D02*
X28985333Y-23005914D01*
X28985333Y-23005914D02*
X28890095Y-23053533D01*
X30318666Y-22767819D02*
X30128190Y-22767819D01*
X30128190Y-22767819D02*
X30032952Y-22815438D01*
X30032952Y-22815438D02*
X29985333Y-22863057D01*
X29985333Y-22863057D02*
X29890095Y-23005914D01*
X29890095Y-23005914D02*
X29842476Y-23196390D01*
X29842476Y-23196390D02*
X29842476Y-23577342D01*
X29842476Y-23577342D02*
X29890095Y-23672580D01*
X29890095Y-23672580D02*
X29937714Y-23720200D01*
X29937714Y-23720200D02*
X30032952Y-23767819D01*
X30032952Y-23767819D02*
X30223428Y-23767819D01*
X30223428Y-23767819D02*
X30318666Y-23720200D01*
X30318666Y-23720200D02*
X30366285Y-23672580D01*
X30366285Y-23672580D02*
X30413904Y-23577342D01*
X30413904Y-23577342D02*
X30413904Y-23339247D01*
X30413904Y-23339247D02*
X30366285Y-23244009D01*
X30366285Y-23244009D02*
X30318666Y-23196390D01*
X30318666Y-23196390D02*
X30223428Y-23148771D01*
X30223428Y-23148771D02*
X30032952Y-23148771D01*
X30032952Y-23148771D02*
X29937714Y-23196390D01*
X29937714Y-23196390D02*
X29890095Y-23244009D01*
X29890095Y-23244009D02*
X29842476Y-23339247D01*
X85187819Y-32300857D02*
X84711628Y-32634190D01*
X85187819Y-32872285D02*
X84187819Y-32872285D01*
X84187819Y-32872285D02*
X84187819Y-32491333D01*
X84187819Y-32491333D02*
X84235438Y-32396095D01*
X84235438Y-32396095D02*
X84283057Y-32348476D01*
X84283057Y-32348476D02*
X84378295Y-32300857D01*
X84378295Y-32300857D02*
X84521152Y-32300857D01*
X84521152Y-32300857D02*
X84616390Y-32348476D01*
X84616390Y-32348476D02*
X84664009Y-32396095D01*
X84664009Y-32396095D02*
X84711628Y-32491333D01*
X84711628Y-32491333D02*
X84711628Y-32872285D01*
X85187819Y-31348476D02*
X85187819Y-31919904D01*
X85187819Y-31634190D02*
X84187819Y-31634190D01*
X84187819Y-31634190D02*
X84330676Y-31729428D01*
X84330676Y-31729428D02*
X84425914Y-31824666D01*
X84425914Y-31824666D02*
X84473533Y-31919904D01*
X84187819Y-30491333D02*
X84187819Y-30681809D01*
X84187819Y-30681809D02*
X84235438Y-30777047D01*
X84235438Y-30777047D02*
X84283057Y-30824666D01*
X84283057Y-30824666D02*
X84425914Y-30919904D01*
X84425914Y-30919904D02*
X84616390Y-30967523D01*
X84616390Y-30967523D02*
X84997342Y-30967523D01*
X84997342Y-30967523D02*
X85092580Y-30919904D01*
X85092580Y-30919904D02*
X85140200Y-30872285D01*
X85140200Y-30872285D02*
X85187819Y-30777047D01*
X85187819Y-30777047D02*
X85187819Y-30586571D01*
X85187819Y-30586571D02*
X85140200Y-30491333D01*
X85140200Y-30491333D02*
X85092580Y-30443714D01*
X85092580Y-30443714D02*
X84997342Y-30396095D01*
X84997342Y-30396095D02*
X84759247Y-30396095D01*
X84759247Y-30396095D02*
X84664009Y-30443714D01*
X84664009Y-30443714D02*
X84616390Y-30491333D01*
X84616390Y-30491333D02*
X84568771Y-30586571D01*
X84568771Y-30586571D02*
X84568771Y-30777047D01*
X84568771Y-30777047D02*
X84616390Y-30872285D01*
X84616390Y-30872285D02*
X84664009Y-30919904D01*
X84664009Y-30919904D02*
X84759247Y-30967523D01*
X68270125Y-53236389D02*
X68174887Y-53188770D01*
X68174887Y-53188770D02*
X68079649Y-53093532D01*
X68079649Y-53093532D02*
X67936792Y-52950674D01*
X67936792Y-52950674D02*
X67841554Y-52903055D01*
X67841554Y-52903055D02*
X67746316Y-52903055D01*
X67793935Y-53141151D02*
X67698697Y-53093532D01*
X67698697Y-53093532D02*
X67603459Y-52998293D01*
X67603459Y-52998293D02*
X67555840Y-52807817D01*
X67555840Y-52807817D02*
X67555840Y-52474484D01*
X67555840Y-52474484D02*
X67603459Y-52284008D01*
X67603459Y-52284008D02*
X67698697Y-52188770D01*
X67698697Y-52188770D02*
X67793935Y-52141151D01*
X67793935Y-52141151D02*
X67984411Y-52141151D01*
X67984411Y-52141151D02*
X68079649Y-52188770D01*
X68079649Y-52188770D02*
X68174887Y-52284008D01*
X68174887Y-52284008D02*
X68222506Y-52474484D01*
X68222506Y-52474484D02*
X68222506Y-52807817D01*
X68222506Y-52807817D02*
X68174887Y-52998293D01*
X68174887Y-52998293D02*
X68079649Y-53093532D01*
X68079649Y-53093532D02*
X67984411Y-53141151D01*
X67984411Y-53141151D02*
X67793935Y-53141151D01*
X69174887Y-53141151D02*
X68603459Y-53141151D01*
X68889173Y-53141151D02*
X68889173Y-52141151D01*
X68889173Y-52141151D02*
X68793935Y-52284008D01*
X68793935Y-52284008D02*
X68698697Y-52379246D01*
X68698697Y-52379246D02*
X68603459Y-52426865D01*
X45820146Y-57244151D02*
X45486813Y-56767960D01*
X45248718Y-57244151D02*
X45248718Y-56244151D01*
X45248718Y-56244151D02*
X45629670Y-56244151D01*
X45629670Y-56244151D02*
X45724908Y-56291770D01*
X45724908Y-56291770D02*
X45772527Y-56339389D01*
X45772527Y-56339389D02*
X45820146Y-56434627D01*
X45820146Y-56434627D02*
X45820146Y-56577484D01*
X45820146Y-56577484D02*
X45772527Y-56672722D01*
X45772527Y-56672722D02*
X45724908Y-56720341D01*
X45724908Y-56720341D02*
X45629670Y-56767960D01*
X45629670Y-56767960D02*
X45248718Y-56767960D01*
X46677289Y-56244151D02*
X46486813Y-56244151D01*
X46486813Y-56244151D02*
X46391575Y-56291770D01*
X46391575Y-56291770D02*
X46343956Y-56339389D01*
X46343956Y-56339389D02*
X46248718Y-56482246D01*
X46248718Y-56482246D02*
X46201099Y-56672722D01*
X46201099Y-56672722D02*
X46201099Y-57053674D01*
X46201099Y-57053674D02*
X46248718Y-57148912D01*
X46248718Y-57148912D02*
X46296337Y-57196532D01*
X46296337Y-57196532D02*
X46391575Y-57244151D01*
X46391575Y-57244151D02*
X46582051Y-57244151D01*
X46582051Y-57244151D02*
X46677289Y-57196532D01*
X46677289Y-57196532D02*
X46724908Y-57148912D01*
X46724908Y-57148912D02*
X46772527Y-57053674D01*
X46772527Y-57053674D02*
X46772527Y-56815579D01*
X46772527Y-56815579D02*
X46724908Y-56720341D01*
X46724908Y-56720341D02*
X46677289Y-56672722D01*
X46677289Y-56672722D02*
X46582051Y-56625103D01*
X46582051Y-56625103D02*
X46391575Y-56625103D01*
X46391575Y-56625103D02*
X46296337Y-56672722D01*
X46296337Y-56672722D02*
X46248718Y-56720341D01*
X46248718Y-56720341D02*
X46201099Y-56815579D01*
X27143197Y-55382968D02*
X27095578Y-55430588D01*
X27095578Y-55430588D02*
X26952721Y-55478207D01*
X26952721Y-55478207D02*
X26857483Y-55478207D01*
X26857483Y-55478207D02*
X26714626Y-55430588D01*
X26714626Y-55430588D02*
X26619388Y-55335349D01*
X26619388Y-55335349D02*
X26571769Y-55240111D01*
X26571769Y-55240111D02*
X26524150Y-55049635D01*
X26524150Y-55049635D02*
X26524150Y-54906778D01*
X26524150Y-54906778D02*
X26571769Y-54716302D01*
X26571769Y-54716302D02*
X26619388Y-54621064D01*
X26619388Y-54621064D02*
X26714626Y-54525826D01*
X26714626Y-54525826D02*
X26857483Y-54478207D01*
X26857483Y-54478207D02*
X26952721Y-54478207D01*
X26952721Y-54478207D02*
X27095578Y-54525826D01*
X27095578Y-54525826D02*
X27143197Y-54573445D01*
X27714626Y-54906778D02*
X27619388Y-54859159D01*
X27619388Y-54859159D02*
X27571769Y-54811540D01*
X27571769Y-54811540D02*
X27524150Y-54716302D01*
X27524150Y-54716302D02*
X27524150Y-54668683D01*
X27524150Y-54668683D02*
X27571769Y-54573445D01*
X27571769Y-54573445D02*
X27619388Y-54525826D01*
X27619388Y-54525826D02*
X27714626Y-54478207D01*
X27714626Y-54478207D02*
X27905102Y-54478207D01*
X27905102Y-54478207D02*
X28000340Y-54525826D01*
X28000340Y-54525826D02*
X28047959Y-54573445D01*
X28047959Y-54573445D02*
X28095578Y-54668683D01*
X28095578Y-54668683D02*
X28095578Y-54716302D01*
X28095578Y-54716302D02*
X28047959Y-54811540D01*
X28047959Y-54811540D02*
X28000340Y-54859159D01*
X28000340Y-54859159D02*
X27905102Y-54906778D01*
X27905102Y-54906778D02*
X27714626Y-54906778D01*
X27714626Y-54906778D02*
X27619388Y-54954397D01*
X27619388Y-54954397D02*
X27571769Y-55002016D01*
X27571769Y-55002016D02*
X27524150Y-55097254D01*
X27524150Y-55097254D02*
X27524150Y-55287730D01*
X27524150Y-55287730D02*
X27571769Y-55382968D01*
X27571769Y-55382968D02*
X27619388Y-55430588D01*
X27619388Y-55430588D02*
X27714626Y-55478207D01*
X27714626Y-55478207D02*
X27905102Y-55478207D01*
X27905102Y-55478207D02*
X28000340Y-55430588D01*
X28000340Y-55430588D02*
X28047959Y-55382968D01*
X28047959Y-55382968D02*
X28095578Y-55287730D01*
X28095578Y-55287730D02*
X28095578Y-55097254D01*
X28095578Y-55097254D02*
X28047959Y-55002016D01*
X28047959Y-55002016D02*
X28000340Y-54954397D01*
X28000340Y-54954397D02*
X27905102Y-54906778D01*
X60628159Y-36012645D02*
X60294826Y-35536454D01*
X60056731Y-36012645D02*
X60056731Y-35012645D01*
X60056731Y-35012645D02*
X60437683Y-35012645D01*
X60437683Y-35012645D02*
X60532921Y-35060264D01*
X60532921Y-35060264D02*
X60580540Y-35107883D01*
X60580540Y-35107883D02*
X60628159Y-35203121D01*
X60628159Y-35203121D02*
X60628159Y-35345978D01*
X60628159Y-35345978D02*
X60580540Y-35441216D01*
X60580540Y-35441216D02*
X60532921Y-35488835D01*
X60532921Y-35488835D02*
X60437683Y-35536454D01*
X60437683Y-35536454D02*
X60056731Y-35536454D01*
X61104350Y-36012645D02*
X61294826Y-36012645D01*
X61294826Y-36012645D02*
X61390064Y-35965026D01*
X61390064Y-35965026D02*
X61437683Y-35917406D01*
X61437683Y-35917406D02*
X61532921Y-35774549D01*
X61532921Y-35774549D02*
X61580540Y-35584073D01*
X61580540Y-35584073D02*
X61580540Y-35203121D01*
X61580540Y-35203121D02*
X61532921Y-35107883D01*
X61532921Y-35107883D02*
X61485302Y-35060264D01*
X61485302Y-35060264D02*
X61390064Y-35012645D01*
X61390064Y-35012645D02*
X61199588Y-35012645D01*
X61199588Y-35012645D02*
X61104350Y-35060264D01*
X61104350Y-35060264D02*
X61056731Y-35107883D01*
X61056731Y-35107883D02*
X61009112Y-35203121D01*
X61009112Y-35203121D02*
X61009112Y-35441216D01*
X61009112Y-35441216D02*
X61056731Y-35536454D01*
X61056731Y-35536454D02*
X61104350Y-35584073D01*
X61104350Y-35584073D02*
X61199588Y-35631692D01*
X61199588Y-35631692D02*
X61390064Y-35631692D01*
X61390064Y-35631692D02*
X61485302Y-35584073D01*
X61485302Y-35584073D02*
X61532921Y-35536454D01*
X61532921Y-35536454D02*
X61580540Y-35441216D01*
X78901776Y-53236389D02*
X78806538Y-53188770D01*
X78806538Y-53188770D02*
X78711300Y-53093532D01*
X78711300Y-53093532D02*
X78568443Y-52950674D01*
X78568443Y-52950674D02*
X78473205Y-52903055D01*
X78473205Y-52903055D02*
X78377967Y-52903055D01*
X78425586Y-53141151D02*
X78330348Y-53093532D01*
X78330348Y-53093532D02*
X78235110Y-52998293D01*
X78235110Y-52998293D02*
X78187491Y-52807817D01*
X78187491Y-52807817D02*
X78187491Y-52474484D01*
X78187491Y-52474484D02*
X78235110Y-52284008D01*
X78235110Y-52284008D02*
X78330348Y-52188770D01*
X78330348Y-52188770D02*
X78425586Y-52141151D01*
X78425586Y-52141151D02*
X78616062Y-52141151D01*
X78616062Y-52141151D02*
X78711300Y-52188770D01*
X78711300Y-52188770D02*
X78806538Y-52284008D01*
X78806538Y-52284008D02*
X78854157Y-52474484D01*
X78854157Y-52474484D02*
X78854157Y-52807817D01*
X78854157Y-52807817D02*
X78806538Y-52998293D01*
X78806538Y-52998293D02*
X78711300Y-53093532D01*
X78711300Y-53093532D02*
X78616062Y-53141151D01*
X78616062Y-53141151D02*
X78425586Y-53141151D01*
X79235110Y-52236389D02*
X79282729Y-52188770D01*
X79282729Y-52188770D02*
X79377967Y-52141151D01*
X79377967Y-52141151D02*
X79616062Y-52141151D01*
X79616062Y-52141151D02*
X79711300Y-52188770D01*
X79711300Y-52188770D02*
X79758919Y-52236389D01*
X79758919Y-52236389D02*
X79806538Y-52331627D01*
X79806538Y-52331627D02*
X79806538Y-52426865D01*
X79806538Y-52426865D02*
X79758919Y-52569722D01*
X79758919Y-52569722D02*
X79187491Y-53141151D01*
X79187491Y-53141151D02*
X79806538Y-53141151D01*
X31472697Y-69473151D02*
X31139364Y-68996960D01*
X30901269Y-69473151D02*
X30901269Y-68473151D01*
X30901269Y-68473151D02*
X31282221Y-68473151D01*
X31282221Y-68473151D02*
X31377459Y-68520770D01*
X31377459Y-68520770D02*
X31425078Y-68568389D01*
X31425078Y-68568389D02*
X31472697Y-68663627D01*
X31472697Y-68663627D02*
X31472697Y-68806484D01*
X31472697Y-68806484D02*
X31425078Y-68901722D01*
X31425078Y-68901722D02*
X31377459Y-68949341D01*
X31377459Y-68949341D02*
X31282221Y-68996960D01*
X31282221Y-68996960D02*
X30901269Y-68996960D01*
X31806031Y-68473151D02*
X32425078Y-68473151D01*
X32425078Y-68473151D02*
X32091745Y-68854103D01*
X32091745Y-68854103D02*
X32234602Y-68854103D01*
X32234602Y-68854103D02*
X32329840Y-68901722D01*
X32329840Y-68901722D02*
X32377459Y-68949341D01*
X32377459Y-68949341D02*
X32425078Y-69044579D01*
X32425078Y-69044579D02*
X32425078Y-69282674D01*
X32425078Y-69282674D02*
X32377459Y-69377912D01*
X32377459Y-69377912D02*
X32329840Y-69425532D01*
X32329840Y-69425532D02*
X32234602Y-69473151D01*
X32234602Y-69473151D02*
X31948888Y-69473151D01*
X31948888Y-69473151D02*
X31853650Y-69425532D01*
X31853650Y-69425532D02*
X31806031Y-69377912D01*
X79265459Y-13861151D02*
X79265459Y-14670674D01*
X79265459Y-14670674D02*
X79313078Y-14765912D01*
X79313078Y-14765912D02*
X79360697Y-14813532D01*
X79360697Y-14813532D02*
X79455935Y-14861151D01*
X79455935Y-14861151D02*
X79646411Y-14861151D01*
X79646411Y-14861151D02*
X79741649Y-14813532D01*
X79741649Y-14813532D02*
X79789268Y-14765912D01*
X79789268Y-14765912D02*
X79836887Y-14670674D01*
X79836887Y-14670674D02*
X79836887Y-13861151D01*
X80741649Y-13861151D02*
X80551173Y-13861151D01*
X80551173Y-13861151D02*
X80455935Y-13908770D01*
X80455935Y-13908770D02*
X80408316Y-13956389D01*
X80408316Y-13956389D02*
X80313078Y-14099246D01*
X80313078Y-14099246D02*
X80265459Y-14289722D01*
X80265459Y-14289722D02*
X80265459Y-14670674D01*
X80265459Y-14670674D02*
X80313078Y-14765912D01*
X80313078Y-14765912D02*
X80360697Y-14813532D01*
X80360697Y-14813532D02*
X80455935Y-14861151D01*
X80455935Y-14861151D02*
X80646411Y-14861151D01*
X80646411Y-14861151D02*
X80741649Y-14813532D01*
X80741649Y-14813532D02*
X80789268Y-14765912D01*
X80789268Y-14765912D02*
X80836887Y-14670674D01*
X80836887Y-14670674D02*
X80836887Y-14432579D01*
X80836887Y-14432579D02*
X80789268Y-14337341D01*
X80789268Y-14337341D02*
X80741649Y-14289722D01*
X80741649Y-14289722D02*
X80646411Y-14242103D01*
X80646411Y-14242103D02*
X80455935Y-14242103D01*
X80455935Y-14242103D02*
X80360697Y-14289722D01*
X80360697Y-14289722D02*
X80313078Y-14337341D01*
X80313078Y-14337341D02*
X80265459Y-14432579D01*
X35444030Y-14301341D02*
X35110697Y-14301341D01*
X35110697Y-14825151D02*
X35110697Y-13825151D01*
X35110697Y-13825151D02*
X35586887Y-13825151D01*
X36491649Y-14825151D02*
X35920221Y-14825151D01*
X36205935Y-14825151D02*
X36205935Y-13825151D01*
X36205935Y-13825151D02*
X36110697Y-13968008D01*
X36110697Y-13968008D02*
X36015459Y-14063246D01*
X36015459Y-14063246D02*
X35920221Y-14110865D01*
X78000506Y-59754151D02*
X77667173Y-59277960D01*
X77429078Y-59754151D02*
X77429078Y-58754151D01*
X77429078Y-58754151D02*
X77810030Y-58754151D01*
X77810030Y-58754151D02*
X77905268Y-58801770D01*
X77905268Y-58801770D02*
X77952887Y-58849389D01*
X77952887Y-58849389D02*
X78000506Y-58944627D01*
X78000506Y-58944627D02*
X78000506Y-59087484D01*
X78000506Y-59087484D02*
X77952887Y-59182722D01*
X77952887Y-59182722D02*
X77905268Y-59230341D01*
X77905268Y-59230341D02*
X77810030Y-59277960D01*
X77810030Y-59277960D02*
X77429078Y-59277960D01*
X78952887Y-59754151D02*
X78381459Y-59754151D01*
X78667173Y-59754151D02*
X78667173Y-58754151D01*
X78667173Y-58754151D02*
X78571935Y-58897008D01*
X78571935Y-58897008D02*
X78476697Y-58992246D01*
X78476697Y-58992246D02*
X78381459Y-59039865D01*
X79286221Y-58754151D02*
X79952887Y-58754151D01*
X79952887Y-58754151D02*
X79524316Y-59754151D01*
X59989697Y-39045151D02*
X59656364Y-38568960D01*
X59418269Y-39045151D02*
X59418269Y-38045151D01*
X59418269Y-38045151D02*
X59799221Y-38045151D01*
X59799221Y-38045151D02*
X59894459Y-38092770D01*
X59894459Y-38092770D02*
X59942078Y-38140389D01*
X59942078Y-38140389D02*
X59989697Y-38235627D01*
X59989697Y-38235627D02*
X59989697Y-38378484D01*
X59989697Y-38378484D02*
X59942078Y-38473722D01*
X59942078Y-38473722D02*
X59894459Y-38521341D01*
X59894459Y-38521341D02*
X59799221Y-38568960D01*
X59799221Y-38568960D02*
X59418269Y-38568960D01*
X60323031Y-38045151D02*
X60989697Y-38045151D01*
X60989697Y-38045151D02*
X60561126Y-39045151D01*
X20273197Y-59630207D02*
X19939864Y-59154016D01*
X19701769Y-59630207D02*
X19701769Y-58630207D01*
X19701769Y-58630207D02*
X20082721Y-58630207D01*
X20082721Y-58630207D02*
X20177959Y-58677826D01*
X20177959Y-58677826D02*
X20225578Y-58725445D01*
X20225578Y-58725445D02*
X20273197Y-58820683D01*
X20273197Y-58820683D02*
X20273197Y-58963540D01*
X20273197Y-58963540D02*
X20225578Y-59058778D01*
X20225578Y-59058778D02*
X20177959Y-59106397D01*
X20177959Y-59106397D02*
X20082721Y-59154016D01*
X20082721Y-59154016D02*
X19701769Y-59154016D01*
X21225578Y-59630207D02*
X20654150Y-59630207D01*
X20939864Y-59630207D02*
X20939864Y-58630207D01*
X20939864Y-58630207D02*
X20844626Y-58773064D01*
X20844626Y-58773064D02*
X20749388Y-58868302D01*
X20749388Y-58868302D02*
X20654150Y-58915921D01*
X61992761Y-76987057D02*
X61897523Y-76939438D01*
X61897523Y-76939438D02*
X61802285Y-76844200D01*
X61802285Y-76844200D02*
X61659428Y-76701342D01*
X61659428Y-76701342D02*
X61564190Y-76653723D01*
X61564190Y-76653723D02*
X61468952Y-76653723D01*
X61516571Y-76891819D02*
X61421333Y-76844200D01*
X61421333Y-76844200D02*
X61326095Y-76748961D01*
X61326095Y-76748961D02*
X61278476Y-76558485D01*
X61278476Y-76558485D02*
X61278476Y-76225152D01*
X61278476Y-76225152D02*
X61326095Y-76034676D01*
X61326095Y-76034676D02*
X61421333Y-75939438D01*
X61421333Y-75939438D02*
X61516571Y-75891819D01*
X61516571Y-75891819D02*
X61707047Y-75891819D01*
X61707047Y-75891819D02*
X61802285Y-75939438D01*
X61802285Y-75939438D02*
X61897523Y-76034676D01*
X61897523Y-76034676D02*
X61945142Y-76225152D01*
X61945142Y-76225152D02*
X61945142Y-76558485D01*
X61945142Y-76558485D02*
X61897523Y-76748961D01*
X61897523Y-76748961D02*
X61802285Y-76844200D01*
X61802285Y-76844200D02*
X61707047Y-76891819D01*
X61707047Y-76891819D02*
X61516571Y-76891819D01*
X62278476Y-75891819D02*
X62897523Y-75891819D01*
X62897523Y-75891819D02*
X62564190Y-76272771D01*
X62564190Y-76272771D02*
X62707047Y-76272771D01*
X62707047Y-76272771D02*
X62802285Y-76320390D01*
X62802285Y-76320390D02*
X62849904Y-76368009D01*
X62849904Y-76368009D02*
X62897523Y-76463247D01*
X62897523Y-76463247D02*
X62897523Y-76701342D01*
X62897523Y-76701342D02*
X62849904Y-76796580D01*
X62849904Y-76796580D02*
X62802285Y-76844200D01*
X62802285Y-76844200D02*
X62707047Y-76891819D01*
X62707047Y-76891819D02*
X62421333Y-76891819D01*
X62421333Y-76891819D02*
X62326095Y-76844200D01*
X62326095Y-76844200D02*
X62278476Y-76796580D01*
X32043944Y-67425998D02*
X32091564Y-67473617D01*
X32091564Y-67473617D02*
X32139183Y-67616474D01*
X32139183Y-67616474D02*
X32139183Y-67711712D01*
X32139183Y-67711712D02*
X32091564Y-67854569D01*
X32091564Y-67854569D02*
X31996325Y-67949807D01*
X31996325Y-67949807D02*
X31901087Y-67997426D01*
X31901087Y-67997426D02*
X31710611Y-68045045D01*
X31710611Y-68045045D02*
X31567754Y-68045045D01*
X31567754Y-68045045D02*
X31377278Y-67997426D01*
X31377278Y-67997426D02*
X31282040Y-67949807D01*
X31282040Y-67949807D02*
X31186802Y-67854569D01*
X31186802Y-67854569D02*
X31139183Y-67711712D01*
X31139183Y-67711712D02*
X31139183Y-67616474D01*
X31139183Y-67616474D02*
X31186802Y-67473617D01*
X31186802Y-67473617D02*
X31234421Y-67425998D01*
X31139183Y-66521236D02*
X31139183Y-66997426D01*
X31139183Y-66997426D02*
X31615373Y-67045045D01*
X31615373Y-67045045D02*
X31567754Y-66997426D01*
X31567754Y-66997426D02*
X31520135Y-66902188D01*
X31520135Y-66902188D02*
X31520135Y-66664093D01*
X31520135Y-66664093D02*
X31567754Y-66568855D01*
X31567754Y-66568855D02*
X31615373Y-66521236D01*
X31615373Y-66521236D02*
X31710611Y-66473617D01*
X31710611Y-66473617D02*
X31948706Y-66473617D01*
X31948706Y-66473617D02*
X32043944Y-66521236D01*
X32043944Y-66521236D02*
X32091564Y-66568855D01*
X32091564Y-66568855D02*
X32139183Y-66664093D01*
X32139183Y-66664093D02*
X32139183Y-66902188D01*
X32139183Y-66902188D02*
X32091564Y-66997426D01*
X32091564Y-66997426D02*
X32043944Y-67045045D01*
X51349546Y-34827009D02*
X51301927Y-34874629D01*
X51301927Y-34874629D02*
X51159070Y-34922248D01*
X51159070Y-34922248D02*
X51063832Y-34922248D01*
X51063832Y-34922248D02*
X50920975Y-34874629D01*
X50920975Y-34874629D02*
X50825737Y-34779390D01*
X50825737Y-34779390D02*
X50778118Y-34684152D01*
X50778118Y-34684152D02*
X50730499Y-34493676D01*
X50730499Y-34493676D02*
X50730499Y-34350819D01*
X50730499Y-34350819D02*
X50778118Y-34160343D01*
X50778118Y-34160343D02*
X50825737Y-34065105D01*
X50825737Y-34065105D02*
X50920975Y-33969867D01*
X50920975Y-33969867D02*
X51063832Y-33922248D01*
X51063832Y-33922248D02*
X51159070Y-33922248D01*
X51159070Y-33922248D02*
X51301927Y-33969867D01*
X51301927Y-33969867D02*
X51349546Y-34017486D01*
X51682880Y-33922248D02*
X52349546Y-33922248D01*
X52349546Y-33922248D02*
X51920975Y-34922248D01*
X54066769Y-71020151D02*
X54066769Y-70020151D01*
X54066769Y-70020151D02*
X54304864Y-70020151D01*
X54304864Y-70020151D02*
X54447721Y-70067770D01*
X54447721Y-70067770D02*
X54542959Y-70163008D01*
X54542959Y-70163008D02*
X54590578Y-70258246D01*
X54590578Y-70258246D02*
X54638197Y-70448722D01*
X54638197Y-70448722D02*
X54638197Y-70591579D01*
X54638197Y-70591579D02*
X54590578Y-70782055D01*
X54590578Y-70782055D02*
X54542959Y-70877293D01*
X54542959Y-70877293D02*
X54447721Y-70972532D01*
X54447721Y-70972532D02*
X54304864Y-71020151D01*
X54304864Y-71020151D02*
X54066769Y-71020151D01*
X55019150Y-70115389D02*
X55066769Y-70067770D01*
X55066769Y-70067770D02*
X55162007Y-70020151D01*
X55162007Y-70020151D02*
X55400102Y-70020151D01*
X55400102Y-70020151D02*
X55495340Y-70067770D01*
X55495340Y-70067770D02*
X55542959Y-70115389D01*
X55542959Y-70115389D02*
X55590578Y-70210627D01*
X55590578Y-70210627D02*
X55590578Y-70305865D01*
X55590578Y-70305865D02*
X55542959Y-70448722D01*
X55542959Y-70448722D02*
X54971531Y-71020151D01*
X54971531Y-71020151D02*
X55590578Y-71020151D01*
X92848580Y-19400857D02*
X92896200Y-19448476D01*
X92896200Y-19448476D02*
X92943819Y-19591333D01*
X92943819Y-19591333D02*
X92943819Y-19686571D01*
X92943819Y-19686571D02*
X92896200Y-19829428D01*
X92896200Y-19829428D02*
X92800961Y-19924666D01*
X92800961Y-19924666D02*
X92705723Y-19972285D01*
X92705723Y-19972285D02*
X92515247Y-20019904D01*
X92515247Y-20019904D02*
X92372390Y-20019904D01*
X92372390Y-20019904D02*
X92181914Y-19972285D01*
X92181914Y-19972285D02*
X92086676Y-19924666D01*
X92086676Y-19924666D02*
X91991438Y-19829428D01*
X91991438Y-19829428D02*
X91943819Y-19686571D01*
X91943819Y-19686571D02*
X91943819Y-19591333D01*
X91943819Y-19591333D02*
X91991438Y-19448476D01*
X91991438Y-19448476D02*
X92039057Y-19400857D01*
X92943819Y-18448476D02*
X92943819Y-19019904D01*
X92943819Y-18734190D02*
X91943819Y-18734190D01*
X91943819Y-18734190D02*
X92086676Y-18829428D01*
X92086676Y-18829428D02*
X92181914Y-18924666D01*
X92181914Y-18924666D02*
X92229533Y-19019904D01*
X91943819Y-18115142D02*
X91943819Y-17448476D01*
X91943819Y-17448476D02*
X92943819Y-17877047D01*
X68431459Y-13861151D02*
X68431459Y-14670674D01*
X68431459Y-14670674D02*
X68479078Y-14765912D01*
X68479078Y-14765912D02*
X68526697Y-14813532D01*
X68526697Y-14813532D02*
X68621935Y-14861151D01*
X68621935Y-14861151D02*
X68812411Y-14861151D01*
X68812411Y-14861151D02*
X68907649Y-14813532D01*
X68907649Y-14813532D02*
X68955268Y-14765912D01*
X68955268Y-14765912D02*
X69002887Y-14670674D01*
X69002887Y-14670674D02*
X69002887Y-13861151D01*
X69955268Y-13861151D02*
X69479078Y-13861151D01*
X69479078Y-13861151D02*
X69431459Y-14337341D01*
X69431459Y-14337341D02*
X69479078Y-14289722D01*
X69479078Y-14289722D02*
X69574316Y-14242103D01*
X69574316Y-14242103D02*
X69812411Y-14242103D01*
X69812411Y-14242103D02*
X69907649Y-14289722D01*
X69907649Y-14289722D02*
X69955268Y-14337341D01*
X69955268Y-14337341D02*
X70002887Y-14432579D01*
X70002887Y-14432579D02*
X70002887Y-14670674D01*
X70002887Y-14670674D02*
X69955268Y-14765912D01*
X69955268Y-14765912D02*
X69907649Y-14813532D01*
X69907649Y-14813532D02*
X69812411Y-14861151D01*
X69812411Y-14861151D02*
X69574316Y-14861151D01*
X69574316Y-14861151D02*
X69479078Y-14813532D01*
X69479078Y-14813532D02*
X69431459Y-14765912D01*
X27801506Y-66509151D02*
X27468173Y-66032960D01*
X27230078Y-66509151D02*
X27230078Y-65509151D01*
X27230078Y-65509151D02*
X27611030Y-65509151D01*
X27611030Y-65509151D02*
X27706268Y-65556770D01*
X27706268Y-65556770D02*
X27753887Y-65604389D01*
X27753887Y-65604389D02*
X27801506Y-65699627D01*
X27801506Y-65699627D02*
X27801506Y-65842484D01*
X27801506Y-65842484D02*
X27753887Y-65937722D01*
X27753887Y-65937722D02*
X27706268Y-65985341D01*
X27706268Y-65985341D02*
X27611030Y-66032960D01*
X27611030Y-66032960D02*
X27230078Y-66032960D01*
X28182459Y-65604389D02*
X28230078Y-65556770D01*
X28230078Y-65556770D02*
X28325316Y-65509151D01*
X28325316Y-65509151D02*
X28563411Y-65509151D01*
X28563411Y-65509151D02*
X28658649Y-65556770D01*
X28658649Y-65556770D02*
X28706268Y-65604389D01*
X28706268Y-65604389D02*
X28753887Y-65699627D01*
X28753887Y-65699627D02*
X28753887Y-65794865D01*
X28753887Y-65794865D02*
X28706268Y-65937722D01*
X28706268Y-65937722D02*
X28134840Y-66509151D01*
X28134840Y-66509151D02*
X28753887Y-66509151D01*
X29087221Y-65509151D02*
X29706268Y-65509151D01*
X29706268Y-65509151D02*
X29372935Y-65890103D01*
X29372935Y-65890103D02*
X29515792Y-65890103D01*
X29515792Y-65890103D02*
X29611030Y-65937722D01*
X29611030Y-65937722D02*
X29658649Y-65985341D01*
X29658649Y-65985341D02*
X29706268Y-66080579D01*
X29706268Y-66080579D02*
X29706268Y-66318674D01*
X29706268Y-66318674D02*
X29658649Y-66413912D01*
X29658649Y-66413912D02*
X29611030Y-66461532D01*
X29611030Y-66461532D02*
X29515792Y-66509151D01*
X29515792Y-66509151D02*
X29230078Y-66509151D01*
X29230078Y-66509151D02*
X29134840Y-66461532D01*
X29134840Y-66461532D02*
X29087221Y-66413912D01*
X22500459Y-64341151D02*
X22500459Y-65150674D01*
X22500459Y-65150674D02*
X22548078Y-65245912D01*
X22548078Y-65245912D02*
X22595697Y-65293532D01*
X22595697Y-65293532D02*
X22690935Y-65341151D01*
X22690935Y-65341151D02*
X22881411Y-65341151D01*
X22881411Y-65341151D02*
X22976649Y-65293532D01*
X22976649Y-65293532D02*
X23024268Y-65245912D01*
X23024268Y-65245912D02*
X23071887Y-65150674D01*
X23071887Y-65150674D02*
X23071887Y-64341151D01*
X23500459Y-64436389D02*
X23548078Y-64388770D01*
X23548078Y-64388770D02*
X23643316Y-64341151D01*
X23643316Y-64341151D02*
X23881411Y-64341151D01*
X23881411Y-64341151D02*
X23976649Y-64388770D01*
X23976649Y-64388770D02*
X24024268Y-64436389D01*
X24024268Y-64436389D02*
X24071887Y-64531627D01*
X24071887Y-64531627D02*
X24071887Y-64626865D01*
X24071887Y-64626865D02*
X24024268Y-64769722D01*
X24024268Y-64769722D02*
X23452840Y-65341151D01*
X23452840Y-65341151D02*
X24071887Y-65341151D01*
X101685580Y-27676857D02*
X101733200Y-27724476D01*
X101733200Y-27724476D02*
X101780819Y-27867333D01*
X101780819Y-27867333D02*
X101780819Y-27962571D01*
X101780819Y-27962571D02*
X101733200Y-28105428D01*
X101733200Y-28105428D02*
X101637961Y-28200666D01*
X101637961Y-28200666D02*
X101542723Y-28248285D01*
X101542723Y-28248285D02*
X101352247Y-28295904D01*
X101352247Y-28295904D02*
X101209390Y-28295904D01*
X101209390Y-28295904D02*
X101018914Y-28248285D01*
X101018914Y-28248285D02*
X100923676Y-28200666D01*
X100923676Y-28200666D02*
X100828438Y-28105428D01*
X100828438Y-28105428D02*
X100780819Y-27962571D01*
X100780819Y-27962571D02*
X100780819Y-27867333D01*
X100780819Y-27867333D02*
X100828438Y-27724476D01*
X100828438Y-27724476D02*
X100876057Y-27676857D01*
X101780819Y-26724476D02*
X101780819Y-27295904D01*
X101780819Y-27010190D02*
X100780819Y-27010190D01*
X100780819Y-27010190D02*
X100923676Y-27105428D01*
X100923676Y-27105428D02*
X101018914Y-27200666D01*
X101018914Y-27200666D02*
X101066533Y-27295904D01*
X101780819Y-26248285D02*
X101780819Y-26057809D01*
X101780819Y-26057809D02*
X101733200Y-25962571D01*
X101733200Y-25962571D02*
X101685580Y-25914952D01*
X101685580Y-25914952D02*
X101542723Y-25819714D01*
X101542723Y-25819714D02*
X101352247Y-25772095D01*
X101352247Y-25772095D02*
X100971295Y-25772095D01*
X100971295Y-25772095D02*
X100876057Y-25819714D01*
X100876057Y-25819714D02*
X100828438Y-25867333D01*
X100828438Y-25867333D02*
X100780819Y-25962571D01*
X100780819Y-25962571D02*
X100780819Y-26153047D01*
X100780819Y-26153047D02*
X100828438Y-26248285D01*
X100828438Y-26248285D02*
X100876057Y-26295904D01*
X100876057Y-26295904D02*
X100971295Y-26343523D01*
X100971295Y-26343523D02*
X101209390Y-26343523D01*
X101209390Y-26343523D02*
X101304628Y-26295904D01*
X101304628Y-26295904D02*
X101352247Y-26248285D01*
X101352247Y-26248285D02*
X101399866Y-26153047D01*
X101399866Y-26153047D02*
X101399866Y-25962571D01*
X101399866Y-25962571D02*
X101352247Y-25867333D01*
X101352247Y-25867333D02*
X101304628Y-25819714D01*
X101304628Y-25819714D02*
X101209390Y-25772095D01*
X32799896Y-61488421D02*
X32799896Y-62297944D01*
X32799896Y-62297944D02*
X32847515Y-62393182D01*
X32847515Y-62393182D02*
X32895134Y-62440802D01*
X32895134Y-62440802D02*
X32990372Y-62488421D01*
X32990372Y-62488421D02*
X33180848Y-62488421D01*
X33180848Y-62488421D02*
X33276086Y-62440802D01*
X33276086Y-62440802D02*
X33323705Y-62393182D01*
X33323705Y-62393182D02*
X33371324Y-62297944D01*
X33371324Y-62297944D02*
X33371324Y-61488421D01*
X34276086Y-61821754D02*
X34276086Y-62488421D01*
X34037991Y-61440802D02*
X33799896Y-62155087D01*
X33799896Y-62155087D02*
X34418943Y-62155087D01*
X31423771Y-51928421D02*
X31423771Y-52737944D01*
X31423771Y-52737944D02*
X31471390Y-52833182D01*
X31471390Y-52833182D02*
X31519009Y-52880802D01*
X31519009Y-52880802D02*
X31614247Y-52928421D01*
X31614247Y-52928421D02*
X31804723Y-52928421D01*
X31804723Y-52928421D02*
X31899961Y-52880802D01*
X31899961Y-52880802D02*
X31947580Y-52833182D01*
X31947580Y-52833182D02*
X31995199Y-52737944D01*
X31995199Y-52737944D02*
X31995199Y-51928421D01*
X32995199Y-52928421D02*
X32423771Y-52928421D01*
X32709485Y-52928421D02*
X32709485Y-51928421D01*
X32709485Y-51928421D02*
X32614247Y-52071278D01*
X32614247Y-52071278D02*
X32519009Y-52166516D01*
X32519009Y-52166516D02*
X32423771Y-52214135D01*
X59416760Y-61905151D02*
X59083427Y-61428960D01*
X58845332Y-61905151D02*
X58845332Y-60905151D01*
X58845332Y-60905151D02*
X59226284Y-60905151D01*
X59226284Y-60905151D02*
X59321522Y-60952770D01*
X59321522Y-60952770D02*
X59369141Y-61000389D01*
X59369141Y-61000389D02*
X59416760Y-61095627D01*
X59416760Y-61095627D02*
X59416760Y-61238484D01*
X59416760Y-61238484D02*
X59369141Y-61333722D01*
X59369141Y-61333722D02*
X59321522Y-61381341D01*
X59321522Y-61381341D02*
X59226284Y-61428960D01*
X59226284Y-61428960D02*
X58845332Y-61428960D01*
X60369141Y-61905151D02*
X59797713Y-61905151D01*
X60083427Y-61905151D02*
X60083427Y-60905151D01*
X60083427Y-60905151D02*
X59988189Y-61048008D01*
X59988189Y-61048008D02*
X59892951Y-61143246D01*
X59892951Y-61143246D02*
X59797713Y-61190865D01*
X60845332Y-61905151D02*
X61035808Y-61905151D01*
X61035808Y-61905151D02*
X61131046Y-61857532D01*
X61131046Y-61857532D02*
X61178665Y-61809912D01*
X61178665Y-61809912D02*
X61273903Y-61667055D01*
X61273903Y-61667055D02*
X61321522Y-61476579D01*
X61321522Y-61476579D02*
X61321522Y-61095627D01*
X61321522Y-61095627D02*
X61273903Y-61000389D01*
X61273903Y-61000389D02*
X61226284Y-60952770D01*
X61226284Y-60952770D02*
X61131046Y-60905151D01*
X61131046Y-60905151D02*
X60940570Y-60905151D01*
X60940570Y-60905151D02*
X60845332Y-60952770D01*
X60845332Y-60952770D02*
X60797713Y-61000389D01*
X60797713Y-61000389D02*
X60750094Y-61095627D01*
X60750094Y-61095627D02*
X60750094Y-61333722D01*
X60750094Y-61333722D02*
X60797713Y-61428960D01*
X60797713Y-61428960D02*
X60845332Y-61476579D01*
X60845332Y-61476579D02*
X60940570Y-61524198D01*
X60940570Y-61524198D02*
X61131046Y-61524198D01*
X61131046Y-61524198D02*
X61226284Y-61476579D01*
X61226284Y-61476579D02*
X61273903Y-61428960D01*
X61273903Y-61428960D02*
X61321522Y-61333722D01*
X55247459Y-37836151D02*
X55247459Y-38645674D01*
X55247459Y-38645674D02*
X55295078Y-38740912D01*
X55295078Y-38740912D02*
X55342697Y-38788532D01*
X55342697Y-38788532D02*
X55437935Y-38836151D01*
X55437935Y-38836151D02*
X55628411Y-38836151D01*
X55628411Y-38836151D02*
X55723649Y-38788532D01*
X55723649Y-38788532D02*
X55771268Y-38740912D01*
X55771268Y-38740912D02*
X55818887Y-38645674D01*
X55818887Y-38645674D02*
X55818887Y-37836151D01*
X56199840Y-37836151D02*
X56818887Y-37836151D01*
X56818887Y-37836151D02*
X56485554Y-38217103D01*
X56485554Y-38217103D02*
X56628411Y-38217103D01*
X56628411Y-38217103D02*
X56723649Y-38264722D01*
X56723649Y-38264722D02*
X56771268Y-38312341D01*
X56771268Y-38312341D02*
X56818887Y-38407579D01*
X56818887Y-38407579D02*
X56818887Y-38645674D01*
X56818887Y-38645674D02*
X56771268Y-38740912D01*
X56771268Y-38740912D02*
X56723649Y-38788532D01*
X56723649Y-38788532D02*
X56628411Y-38836151D01*
X56628411Y-38836151D02*
X56342697Y-38836151D01*
X56342697Y-38836151D02*
X56247459Y-38788532D01*
X56247459Y-38788532D02*
X56199840Y-38740912D01*
X29000200Y-39477332D02*
X29047819Y-39334475D01*
X29047819Y-39334475D02*
X29047819Y-39096380D01*
X29047819Y-39096380D02*
X29000200Y-39001142D01*
X29000200Y-39001142D02*
X28952580Y-38953523D01*
X28952580Y-38953523D02*
X28857342Y-38905904D01*
X28857342Y-38905904D02*
X28762104Y-38905904D01*
X28762104Y-38905904D02*
X28666866Y-38953523D01*
X28666866Y-38953523D02*
X28619247Y-39001142D01*
X28619247Y-39001142D02*
X28571628Y-39096380D01*
X28571628Y-39096380D02*
X28524009Y-39286856D01*
X28524009Y-39286856D02*
X28476390Y-39382094D01*
X28476390Y-39382094D02*
X28428771Y-39429713D01*
X28428771Y-39429713D02*
X28333533Y-39477332D01*
X28333533Y-39477332D02*
X28238295Y-39477332D01*
X28238295Y-39477332D02*
X28143057Y-39429713D01*
X28143057Y-39429713D02*
X28095438Y-39382094D01*
X28095438Y-39382094D02*
X28047819Y-39286856D01*
X28047819Y-39286856D02*
X28047819Y-39048761D01*
X28047819Y-39048761D02*
X28095438Y-38905904D01*
X28047819Y-38572570D02*
X29047819Y-38334475D01*
X29047819Y-38334475D02*
X28333533Y-38143999D01*
X28333533Y-38143999D02*
X29047819Y-37953523D01*
X29047819Y-37953523D02*
X28047819Y-37715428D01*
X29047819Y-36810666D02*
X29047819Y-37382094D01*
X29047819Y-37096380D02*
X28047819Y-37096380D01*
X28047819Y-37096380D02*
X28190676Y-37191618D01*
X28190676Y-37191618D02*
X28285914Y-37286856D01*
X28285914Y-37286856D02*
X28333533Y-37382094D01*
X20312197Y-58110207D02*
X19978864Y-57634016D01*
X19740769Y-58110207D02*
X19740769Y-57110207D01*
X19740769Y-57110207D02*
X20121721Y-57110207D01*
X20121721Y-57110207D02*
X20216959Y-57157826D01*
X20216959Y-57157826D02*
X20264578Y-57205445D01*
X20264578Y-57205445D02*
X20312197Y-57300683D01*
X20312197Y-57300683D02*
X20312197Y-57443540D01*
X20312197Y-57443540D02*
X20264578Y-57538778D01*
X20264578Y-57538778D02*
X20216959Y-57586397D01*
X20216959Y-57586397D02*
X20121721Y-57634016D01*
X20121721Y-57634016D02*
X19740769Y-57634016D01*
X20693150Y-57205445D02*
X20740769Y-57157826D01*
X20740769Y-57157826D02*
X20836007Y-57110207D01*
X20836007Y-57110207D02*
X21074102Y-57110207D01*
X21074102Y-57110207D02*
X21169340Y-57157826D01*
X21169340Y-57157826D02*
X21216959Y-57205445D01*
X21216959Y-57205445D02*
X21264578Y-57300683D01*
X21264578Y-57300683D02*
X21264578Y-57395921D01*
X21264578Y-57395921D02*
X21216959Y-57538778D01*
X21216959Y-57538778D02*
X20645531Y-58110207D01*
X20645531Y-58110207D02*
X21264578Y-58110207D01*
X73704142Y-26501580D02*
X73656523Y-26549200D01*
X73656523Y-26549200D02*
X73513666Y-26596819D01*
X73513666Y-26596819D02*
X73418428Y-26596819D01*
X73418428Y-26596819D02*
X73275571Y-26549200D01*
X73275571Y-26549200D02*
X73180333Y-26453961D01*
X73180333Y-26453961D02*
X73132714Y-26358723D01*
X73132714Y-26358723D02*
X73085095Y-26168247D01*
X73085095Y-26168247D02*
X73085095Y-26025390D01*
X73085095Y-26025390D02*
X73132714Y-25834914D01*
X73132714Y-25834914D02*
X73180333Y-25739676D01*
X73180333Y-25739676D02*
X73275571Y-25644438D01*
X73275571Y-25644438D02*
X73418428Y-25596819D01*
X73418428Y-25596819D02*
X73513666Y-25596819D01*
X73513666Y-25596819D02*
X73656523Y-25644438D01*
X73656523Y-25644438D02*
X73704142Y-25692057D01*
X74656523Y-26596819D02*
X74085095Y-26596819D01*
X74370809Y-26596819D02*
X74370809Y-25596819D01*
X74370809Y-25596819D02*
X74275571Y-25739676D01*
X74275571Y-25739676D02*
X74180333Y-25834914D01*
X74180333Y-25834914D02*
X74085095Y-25882533D01*
X75037476Y-25692057D02*
X75085095Y-25644438D01*
X75085095Y-25644438D02*
X75180333Y-25596819D01*
X75180333Y-25596819D02*
X75418428Y-25596819D01*
X75418428Y-25596819D02*
X75513666Y-25644438D01*
X75513666Y-25644438D02*
X75561285Y-25692057D01*
X75561285Y-25692057D02*
X75608904Y-25787295D01*
X75608904Y-25787295D02*
X75608904Y-25882533D01*
X75608904Y-25882533D02*
X75561285Y-26025390D01*
X75561285Y-26025390D02*
X74989857Y-26596819D01*
X74989857Y-26596819D02*
X75608904Y-26596819D01*
X61595142Y-28340580D02*
X61547523Y-28388200D01*
X61547523Y-28388200D02*
X61404666Y-28435819D01*
X61404666Y-28435819D02*
X61309428Y-28435819D01*
X61309428Y-28435819D02*
X61166571Y-28388200D01*
X61166571Y-28388200D02*
X61071333Y-28292961D01*
X61071333Y-28292961D02*
X61023714Y-28197723D01*
X61023714Y-28197723D02*
X60976095Y-28007247D01*
X60976095Y-28007247D02*
X60976095Y-27864390D01*
X60976095Y-27864390D02*
X61023714Y-27673914D01*
X61023714Y-27673914D02*
X61071333Y-27578676D01*
X61071333Y-27578676D02*
X61166571Y-27483438D01*
X61166571Y-27483438D02*
X61309428Y-27435819D01*
X61309428Y-27435819D02*
X61404666Y-27435819D01*
X61404666Y-27435819D02*
X61547523Y-27483438D01*
X61547523Y-27483438D02*
X61595142Y-27531057D01*
X62547523Y-28435819D02*
X61976095Y-28435819D01*
X62261809Y-28435819D02*
X62261809Y-27435819D01*
X62261809Y-27435819D02*
X62166571Y-27578676D01*
X62166571Y-27578676D02*
X62071333Y-27673914D01*
X62071333Y-27673914D02*
X61976095Y-27721533D01*
X63404666Y-27769152D02*
X63404666Y-28435819D01*
X63166571Y-27388200D02*
X62928476Y-28102485D01*
X62928476Y-28102485D02*
X63547523Y-28102485D01*
X20617183Y-31921580D02*
X20569564Y-31969200D01*
X20569564Y-31969200D02*
X20426707Y-32016819D01*
X20426707Y-32016819D02*
X20331469Y-32016819D01*
X20331469Y-32016819D02*
X20188612Y-31969200D01*
X20188612Y-31969200D02*
X20093374Y-31873961D01*
X20093374Y-31873961D02*
X20045755Y-31778723D01*
X20045755Y-31778723D02*
X19998136Y-31588247D01*
X19998136Y-31588247D02*
X19998136Y-31445390D01*
X19998136Y-31445390D02*
X20045755Y-31254914D01*
X20045755Y-31254914D02*
X20093374Y-31159676D01*
X20093374Y-31159676D02*
X20188612Y-31064438D01*
X20188612Y-31064438D02*
X20331469Y-31016819D01*
X20331469Y-31016819D02*
X20426707Y-31016819D01*
X20426707Y-31016819D02*
X20569564Y-31064438D01*
X20569564Y-31064438D02*
X20617183Y-31112057D01*
X20998136Y-31112057D02*
X21045755Y-31064438D01*
X21045755Y-31064438D02*
X21140993Y-31016819D01*
X21140993Y-31016819D02*
X21379088Y-31016819D01*
X21379088Y-31016819D02*
X21474326Y-31064438D01*
X21474326Y-31064438D02*
X21521945Y-31112057D01*
X21521945Y-31112057D02*
X21569564Y-31207295D01*
X21569564Y-31207295D02*
X21569564Y-31302533D01*
X21569564Y-31302533D02*
X21521945Y-31445390D01*
X21521945Y-31445390D02*
X20950517Y-32016819D01*
X20950517Y-32016819D02*
X21569564Y-32016819D01*
X22426707Y-31016819D02*
X22236231Y-31016819D01*
X22236231Y-31016819D02*
X22140993Y-31064438D01*
X22140993Y-31064438D02*
X22093374Y-31112057D01*
X22093374Y-31112057D02*
X21998136Y-31254914D01*
X21998136Y-31254914D02*
X21950517Y-31445390D01*
X21950517Y-31445390D02*
X21950517Y-31826342D01*
X21950517Y-31826342D02*
X21998136Y-31921580D01*
X21998136Y-31921580D02*
X22045755Y-31969200D01*
X22045755Y-31969200D02*
X22140993Y-32016819D01*
X22140993Y-32016819D02*
X22331469Y-32016819D01*
X22331469Y-32016819D02*
X22426707Y-31969200D01*
X22426707Y-31969200D02*
X22474326Y-31921580D01*
X22474326Y-31921580D02*
X22521945Y-31826342D01*
X22521945Y-31826342D02*
X22521945Y-31588247D01*
X22521945Y-31588247D02*
X22474326Y-31493009D01*
X22474326Y-31493009D02*
X22426707Y-31445390D01*
X22426707Y-31445390D02*
X22331469Y-31397771D01*
X22331469Y-31397771D02*
X22140993Y-31397771D01*
X22140993Y-31397771D02*
X22045755Y-31445390D01*
X22045755Y-31445390D02*
X21998136Y-31493009D01*
X21998136Y-31493009D02*
X21950517Y-31588247D01*
X46110269Y-34855151D02*
X46110269Y-33855151D01*
X46110269Y-33855151D02*
X46348364Y-33855151D01*
X46348364Y-33855151D02*
X46491221Y-33902770D01*
X46491221Y-33902770D02*
X46586459Y-33998008D01*
X46586459Y-33998008D02*
X46634078Y-34093246D01*
X46634078Y-34093246D02*
X46681697Y-34283722D01*
X46681697Y-34283722D02*
X46681697Y-34426579D01*
X46681697Y-34426579D02*
X46634078Y-34617055D01*
X46634078Y-34617055D02*
X46586459Y-34712293D01*
X46586459Y-34712293D02*
X46491221Y-34807532D01*
X46491221Y-34807532D02*
X46348364Y-34855151D01*
X46348364Y-34855151D02*
X46110269Y-34855151D01*
X47634078Y-34855151D02*
X47062650Y-34855151D01*
X47348364Y-34855151D02*
X47348364Y-33855151D01*
X47348364Y-33855151D02*
X47253126Y-33998008D01*
X47253126Y-33998008D02*
X47157888Y-34093246D01*
X47157888Y-34093246D02*
X47062650Y-34140865D01*
X87959333Y-51914819D02*
X87483143Y-51914819D01*
X87483143Y-51914819D02*
X87483143Y-50914819D01*
X88245048Y-51010057D02*
X88292667Y-50962438D01*
X88292667Y-50962438D02*
X88387905Y-50914819D01*
X88387905Y-50914819D02*
X88626000Y-50914819D01*
X88626000Y-50914819D02*
X88721238Y-50962438D01*
X88721238Y-50962438D02*
X88768857Y-51010057D01*
X88768857Y-51010057D02*
X88816476Y-51105295D01*
X88816476Y-51105295D02*
X88816476Y-51200533D01*
X88816476Y-51200533D02*
X88768857Y-51343390D01*
X88768857Y-51343390D02*
X88197429Y-51914819D01*
X88197429Y-51914819D02*
X88816476Y-51914819D01*
X98440666Y-15377819D02*
X98107333Y-14901628D01*
X97869238Y-15377819D02*
X97869238Y-14377819D01*
X97869238Y-14377819D02*
X98250190Y-14377819D01*
X98250190Y-14377819D02*
X98345428Y-14425438D01*
X98345428Y-14425438D02*
X98393047Y-14473057D01*
X98393047Y-14473057D02*
X98440666Y-14568295D01*
X98440666Y-14568295D02*
X98440666Y-14711152D01*
X98440666Y-14711152D02*
X98393047Y-14806390D01*
X98393047Y-14806390D02*
X98345428Y-14854009D01*
X98345428Y-14854009D02*
X98250190Y-14901628D01*
X98250190Y-14901628D02*
X97869238Y-14901628D01*
X98869238Y-14854009D02*
X99202571Y-14854009D01*
X99345428Y-15377819D02*
X98869238Y-15377819D01*
X98869238Y-15377819D02*
X98869238Y-14377819D01*
X98869238Y-14377819D02*
X99345428Y-14377819D01*
X100107333Y-14854009D02*
X99774000Y-14854009D01*
X99774000Y-15377819D02*
X99774000Y-14377819D01*
X99774000Y-14377819D02*
X100250190Y-14377819D01*
X100774000Y-14377819D02*
X100774000Y-14615914D01*
X100535905Y-14520676D02*
X100774000Y-14615914D01*
X100774000Y-14615914D02*
X101012095Y-14520676D01*
X100631143Y-14806390D02*
X100774000Y-14615914D01*
X100774000Y-14615914D02*
X100916857Y-14806390D01*
X101535905Y-14377819D02*
X101535905Y-14615914D01*
X101297810Y-14520676D02*
X101535905Y-14615914D01*
X101535905Y-14615914D02*
X101774000Y-14520676D01*
X101393048Y-14806390D02*
X101535905Y-14615914D01*
X101535905Y-14615914D02*
X101678762Y-14806390D01*
X63571580Y-21017857D02*
X63619200Y-21065476D01*
X63619200Y-21065476D02*
X63666819Y-21208333D01*
X63666819Y-21208333D02*
X63666819Y-21303571D01*
X63666819Y-21303571D02*
X63619200Y-21446428D01*
X63619200Y-21446428D02*
X63523961Y-21541666D01*
X63523961Y-21541666D02*
X63428723Y-21589285D01*
X63428723Y-21589285D02*
X63238247Y-21636904D01*
X63238247Y-21636904D02*
X63095390Y-21636904D01*
X63095390Y-21636904D02*
X62904914Y-21589285D01*
X62904914Y-21589285D02*
X62809676Y-21541666D01*
X62809676Y-21541666D02*
X62714438Y-21446428D01*
X62714438Y-21446428D02*
X62666819Y-21303571D01*
X62666819Y-21303571D02*
X62666819Y-21208333D01*
X62666819Y-21208333D02*
X62714438Y-21065476D01*
X62714438Y-21065476D02*
X62762057Y-21017857D01*
X63666819Y-20065476D02*
X63666819Y-20636904D01*
X63666819Y-20351190D02*
X62666819Y-20351190D01*
X62666819Y-20351190D02*
X62809676Y-20446428D01*
X62809676Y-20446428D02*
X62904914Y-20541666D01*
X62904914Y-20541666D02*
X62952533Y-20636904D01*
X62666819Y-19160714D02*
X62666819Y-19636904D01*
X62666819Y-19636904D02*
X63143009Y-19684523D01*
X63143009Y-19684523D02*
X63095390Y-19636904D01*
X63095390Y-19636904D02*
X63047771Y-19541666D01*
X63047771Y-19541666D02*
X63047771Y-19303571D01*
X63047771Y-19303571D02*
X63095390Y-19208333D01*
X63095390Y-19208333D02*
X63143009Y-19160714D01*
X63143009Y-19160714D02*
X63238247Y-19113095D01*
X63238247Y-19113095D02*
X63476342Y-19113095D01*
X63476342Y-19113095D02*
X63571580Y-19160714D01*
X63571580Y-19160714D02*
X63619200Y-19208333D01*
X63619200Y-19208333D02*
X63666819Y-19303571D01*
X63666819Y-19303571D02*
X63666819Y-19541666D01*
X63666819Y-19541666D02*
X63619200Y-19636904D01*
X63619200Y-19636904D02*
X63571580Y-19684523D01*
X23059326Y-63520630D02*
X23011707Y-63568250D01*
X23011707Y-63568250D02*
X22868850Y-63615869D01*
X22868850Y-63615869D02*
X22773612Y-63615869D01*
X22773612Y-63615869D02*
X22630755Y-63568250D01*
X22630755Y-63568250D02*
X22535517Y-63473011D01*
X22535517Y-63473011D02*
X22487898Y-63377773D01*
X22487898Y-63377773D02*
X22440279Y-63187297D01*
X22440279Y-63187297D02*
X22440279Y-63044440D01*
X22440279Y-63044440D02*
X22487898Y-62853964D01*
X22487898Y-62853964D02*
X22535517Y-62758726D01*
X22535517Y-62758726D02*
X22630755Y-62663488D01*
X22630755Y-62663488D02*
X22773612Y-62615869D01*
X22773612Y-62615869D02*
X22868850Y-62615869D01*
X22868850Y-62615869D02*
X23011707Y-62663488D01*
X23011707Y-62663488D02*
X23059326Y-62711107D01*
X23392660Y-62615869D02*
X24011707Y-62615869D01*
X24011707Y-62615869D02*
X23678374Y-62996821D01*
X23678374Y-62996821D02*
X23821231Y-62996821D01*
X23821231Y-62996821D02*
X23916469Y-63044440D01*
X23916469Y-63044440D02*
X23964088Y-63092059D01*
X23964088Y-63092059D02*
X24011707Y-63187297D01*
X24011707Y-63187297D02*
X24011707Y-63425392D01*
X24011707Y-63425392D02*
X23964088Y-63520630D01*
X23964088Y-63520630D02*
X23916469Y-63568250D01*
X23916469Y-63568250D02*
X23821231Y-63615869D01*
X23821231Y-63615869D02*
X23535517Y-63615869D01*
X23535517Y-63615869D02*
X23440279Y-63568250D01*
X23440279Y-63568250D02*
X23392660Y-63520630D01*
X15433666Y-73686819D02*
X15433666Y-74401104D01*
X15433666Y-74401104D02*
X15386047Y-74543961D01*
X15386047Y-74543961D02*
X15290809Y-74639200D01*
X15290809Y-74639200D02*
X15147952Y-74686819D01*
X15147952Y-74686819D02*
X15052714Y-74686819D01*
X16433666Y-74686819D02*
X15862238Y-74686819D01*
X16147952Y-74686819D02*
X16147952Y-73686819D01*
X16147952Y-73686819D02*
X16052714Y-73829676D01*
X16052714Y-73829676D02*
X15957476Y-73924914D01*
X15957476Y-73924914D02*
X15862238Y-73972533D01*
X27247506Y-70877151D02*
X26914173Y-70400960D01*
X26676078Y-70877151D02*
X26676078Y-69877151D01*
X26676078Y-69877151D02*
X27057030Y-69877151D01*
X27057030Y-69877151D02*
X27152268Y-69924770D01*
X27152268Y-69924770D02*
X27199887Y-69972389D01*
X27199887Y-69972389D02*
X27247506Y-70067627D01*
X27247506Y-70067627D02*
X27247506Y-70210484D01*
X27247506Y-70210484D02*
X27199887Y-70305722D01*
X27199887Y-70305722D02*
X27152268Y-70353341D01*
X27152268Y-70353341D02*
X27057030Y-70400960D01*
X27057030Y-70400960D02*
X26676078Y-70400960D01*
X27628459Y-69972389D02*
X27676078Y-69924770D01*
X27676078Y-69924770D02*
X27771316Y-69877151D01*
X27771316Y-69877151D02*
X28009411Y-69877151D01*
X28009411Y-69877151D02*
X28104649Y-69924770D01*
X28104649Y-69924770D02*
X28152268Y-69972389D01*
X28152268Y-69972389D02*
X28199887Y-70067627D01*
X28199887Y-70067627D02*
X28199887Y-70162865D01*
X28199887Y-70162865D02*
X28152268Y-70305722D01*
X28152268Y-70305722D02*
X27580840Y-70877151D01*
X27580840Y-70877151D02*
X28199887Y-70877151D01*
X28771316Y-70305722D02*
X28676078Y-70258103D01*
X28676078Y-70258103D02*
X28628459Y-70210484D01*
X28628459Y-70210484D02*
X28580840Y-70115246D01*
X28580840Y-70115246D02*
X28580840Y-70067627D01*
X28580840Y-70067627D02*
X28628459Y-69972389D01*
X28628459Y-69972389D02*
X28676078Y-69924770D01*
X28676078Y-69924770D02*
X28771316Y-69877151D01*
X28771316Y-69877151D02*
X28961792Y-69877151D01*
X28961792Y-69877151D02*
X29057030Y-69924770D01*
X29057030Y-69924770D02*
X29104649Y-69972389D01*
X29104649Y-69972389D02*
X29152268Y-70067627D01*
X29152268Y-70067627D02*
X29152268Y-70115246D01*
X29152268Y-70115246D02*
X29104649Y-70210484D01*
X29104649Y-70210484D02*
X29057030Y-70258103D01*
X29057030Y-70258103D02*
X28961792Y-70305722D01*
X28961792Y-70305722D02*
X28771316Y-70305722D01*
X28771316Y-70305722D02*
X28676078Y-70353341D01*
X28676078Y-70353341D02*
X28628459Y-70400960D01*
X28628459Y-70400960D02*
X28580840Y-70496198D01*
X28580840Y-70496198D02*
X28580840Y-70686674D01*
X28580840Y-70686674D02*
X28628459Y-70781912D01*
X28628459Y-70781912D02*
X28676078Y-70829532D01*
X28676078Y-70829532D02*
X28771316Y-70877151D01*
X28771316Y-70877151D02*
X28961792Y-70877151D01*
X28961792Y-70877151D02*
X29057030Y-70829532D01*
X29057030Y-70829532D02*
X29104649Y-70781912D01*
X29104649Y-70781912D02*
X29152268Y-70686674D01*
X29152268Y-70686674D02*
X29152268Y-70496198D01*
X29152268Y-70496198D02*
X29104649Y-70400960D01*
X29104649Y-70400960D02*
X29057030Y-70353341D01*
X29057030Y-70353341D02*
X28961792Y-70305722D01*
X92875319Y-56105333D02*
X93589604Y-56105333D01*
X93589604Y-56105333D02*
X93732461Y-56152952D01*
X93732461Y-56152952D02*
X93827700Y-56248190D01*
X93827700Y-56248190D02*
X93875319Y-56391047D01*
X93875319Y-56391047D02*
X93875319Y-56486285D01*
X92970557Y-55676761D02*
X92922938Y-55629142D01*
X92922938Y-55629142D02*
X92875319Y-55533904D01*
X92875319Y-55533904D02*
X92875319Y-55295809D01*
X92875319Y-55295809D02*
X92922938Y-55200571D01*
X92922938Y-55200571D02*
X92970557Y-55152952D01*
X92970557Y-55152952D02*
X93065795Y-55105333D01*
X93065795Y-55105333D02*
X93161033Y-55105333D01*
X93161033Y-55105333D02*
X93303890Y-55152952D01*
X93303890Y-55152952D02*
X93875319Y-55724380D01*
X93875319Y-55724380D02*
X93875319Y-55105333D01*
X19879769Y-61140116D02*
X19879769Y-60140116D01*
X19879769Y-60140116D02*
X20117864Y-60140116D01*
X20117864Y-60140116D02*
X20260721Y-60187735D01*
X20260721Y-60187735D02*
X20355959Y-60282973D01*
X20355959Y-60282973D02*
X20403578Y-60378211D01*
X20403578Y-60378211D02*
X20451197Y-60568687D01*
X20451197Y-60568687D02*
X20451197Y-60711544D01*
X20451197Y-60711544D02*
X20403578Y-60902020D01*
X20403578Y-60902020D02*
X20355959Y-60997258D01*
X20355959Y-60997258D02*
X20260721Y-61092497D01*
X20260721Y-61092497D02*
X20117864Y-61140116D01*
X20117864Y-61140116D02*
X19879769Y-61140116D01*
X21355959Y-60140116D02*
X20879769Y-60140116D01*
X20879769Y-60140116D02*
X20832150Y-60616306D01*
X20832150Y-60616306D02*
X20879769Y-60568687D01*
X20879769Y-60568687D02*
X20975007Y-60521068D01*
X20975007Y-60521068D02*
X21213102Y-60521068D01*
X21213102Y-60521068D02*
X21308340Y-60568687D01*
X21308340Y-60568687D02*
X21355959Y-60616306D01*
X21355959Y-60616306D02*
X21403578Y-60711544D01*
X21403578Y-60711544D02*
X21403578Y-60949639D01*
X21403578Y-60949639D02*
X21355959Y-61044877D01*
X21355959Y-61044877D02*
X21308340Y-61092497D01*
X21308340Y-61092497D02*
X21213102Y-61140116D01*
X21213102Y-61140116D02*
X20975007Y-61140116D01*
X20975007Y-61140116D02*
X20879769Y-61092497D01*
X20879769Y-61092497D02*
X20832150Y-61044877D01*
X98822666Y-78369819D02*
X98489333Y-77893628D01*
X98251238Y-78369819D02*
X98251238Y-77369819D01*
X98251238Y-77369819D02*
X98632190Y-77369819D01*
X98632190Y-77369819D02*
X98727428Y-77417438D01*
X98727428Y-77417438D02*
X98775047Y-77465057D01*
X98775047Y-77465057D02*
X98822666Y-77560295D01*
X98822666Y-77560295D02*
X98822666Y-77703152D01*
X98822666Y-77703152D02*
X98775047Y-77798390D01*
X98775047Y-77798390D02*
X98727428Y-77846009D01*
X98727428Y-77846009D02*
X98632190Y-77893628D01*
X98632190Y-77893628D02*
X98251238Y-77893628D01*
X99251238Y-77846009D02*
X99584571Y-77846009D01*
X99727428Y-78369819D02*
X99251238Y-78369819D01*
X99251238Y-78369819D02*
X99251238Y-77369819D01*
X99251238Y-77369819D02*
X99727428Y-77369819D01*
X100489333Y-77846009D02*
X100156000Y-77846009D01*
X100156000Y-78369819D02*
X100156000Y-77369819D01*
X100156000Y-77369819D02*
X100632190Y-77369819D01*
X101156000Y-77369819D02*
X101156000Y-77607914D01*
X100917905Y-77512676D02*
X101156000Y-77607914D01*
X101156000Y-77607914D02*
X101394095Y-77512676D01*
X101013143Y-77798390D02*
X101156000Y-77607914D01*
X101156000Y-77607914D02*
X101298857Y-77798390D01*
X101917905Y-77369819D02*
X101917905Y-77607914D01*
X101679810Y-77512676D02*
X101917905Y-77607914D01*
X101917905Y-77607914D02*
X102156000Y-77512676D01*
X101775048Y-77798390D02*
X101917905Y-77607914D01*
X101917905Y-77607914D02*
X102060762Y-77798390D01*
X19790769Y-56612633D02*
X19790769Y-55612633D01*
X19790769Y-55612633D02*
X20028864Y-55612633D01*
X20028864Y-55612633D02*
X20171721Y-55660252D01*
X20171721Y-55660252D02*
X20266959Y-55755490D01*
X20266959Y-55755490D02*
X20314578Y-55850728D01*
X20314578Y-55850728D02*
X20362197Y-56041204D01*
X20362197Y-56041204D02*
X20362197Y-56184061D01*
X20362197Y-56184061D02*
X20314578Y-56374537D01*
X20314578Y-56374537D02*
X20266959Y-56469775D01*
X20266959Y-56469775D02*
X20171721Y-56565014D01*
X20171721Y-56565014D02*
X20028864Y-56612633D01*
X20028864Y-56612633D02*
X19790769Y-56612633D01*
X21219340Y-55945966D02*
X21219340Y-56612633D01*
X20981245Y-55565014D02*
X20743150Y-56279299D01*
X20743150Y-56279299D02*
X21362197Y-56279299D01*
X51457697Y-65875912D02*
X51410078Y-65923532D01*
X51410078Y-65923532D02*
X51267221Y-65971151D01*
X51267221Y-65971151D02*
X51171983Y-65971151D01*
X51171983Y-65971151D02*
X51029126Y-65923532D01*
X51029126Y-65923532D02*
X50933888Y-65828293D01*
X50933888Y-65828293D02*
X50886269Y-65733055D01*
X50886269Y-65733055D02*
X50838650Y-65542579D01*
X50838650Y-65542579D02*
X50838650Y-65399722D01*
X50838650Y-65399722D02*
X50886269Y-65209246D01*
X50886269Y-65209246D02*
X50933888Y-65114008D01*
X50933888Y-65114008D02*
X51029126Y-65018770D01*
X51029126Y-65018770D02*
X51171983Y-64971151D01*
X51171983Y-64971151D02*
X51267221Y-64971151D01*
X51267221Y-64971151D02*
X51410078Y-65018770D01*
X51410078Y-65018770D02*
X51457697Y-65066389D01*
X51933888Y-65971151D02*
X52124364Y-65971151D01*
X52124364Y-65971151D02*
X52219602Y-65923532D01*
X52219602Y-65923532D02*
X52267221Y-65875912D01*
X52267221Y-65875912D02*
X52362459Y-65733055D01*
X52362459Y-65733055D02*
X52410078Y-65542579D01*
X52410078Y-65542579D02*
X52410078Y-65161627D01*
X52410078Y-65161627D02*
X52362459Y-65066389D01*
X52362459Y-65066389D02*
X52314840Y-65018770D01*
X52314840Y-65018770D02*
X52219602Y-64971151D01*
X52219602Y-64971151D02*
X52029126Y-64971151D01*
X52029126Y-64971151D02*
X51933888Y-65018770D01*
X51933888Y-65018770D02*
X51886269Y-65066389D01*
X51886269Y-65066389D02*
X51838650Y-65161627D01*
X51838650Y-65161627D02*
X51838650Y-65399722D01*
X51838650Y-65399722D02*
X51886269Y-65494960D01*
X51886269Y-65494960D02*
X51933888Y-65542579D01*
X51933888Y-65542579D02*
X52029126Y-65590198D01*
X52029126Y-65590198D02*
X52219602Y-65590198D01*
X52219602Y-65590198D02*
X52314840Y-65542579D01*
X52314840Y-65542579D02*
X52362459Y-65494960D01*
X52362459Y-65494960D02*
X52410078Y-65399722D01*
X36345818Y-57631182D02*
X36298199Y-57678802D01*
X36298199Y-57678802D02*
X36155342Y-57726421D01*
X36155342Y-57726421D02*
X36060104Y-57726421D01*
X36060104Y-57726421D02*
X35917247Y-57678802D01*
X35917247Y-57678802D02*
X35822009Y-57583563D01*
X35822009Y-57583563D02*
X35774390Y-57488325D01*
X35774390Y-57488325D02*
X35726771Y-57297849D01*
X35726771Y-57297849D02*
X35726771Y-57154992D01*
X35726771Y-57154992D02*
X35774390Y-56964516D01*
X35774390Y-56964516D02*
X35822009Y-56869278D01*
X35822009Y-56869278D02*
X35917247Y-56774040D01*
X35917247Y-56774040D02*
X36060104Y-56726421D01*
X36060104Y-56726421D02*
X36155342Y-56726421D01*
X36155342Y-56726421D02*
X36298199Y-56774040D01*
X36298199Y-56774040D02*
X36345818Y-56821659D01*
X36679152Y-56726421D02*
X37298199Y-56726421D01*
X37298199Y-56726421D02*
X36964866Y-57107373D01*
X36964866Y-57107373D02*
X37107723Y-57107373D01*
X37107723Y-57107373D02*
X37202961Y-57154992D01*
X37202961Y-57154992D02*
X37250580Y-57202611D01*
X37250580Y-57202611D02*
X37298199Y-57297849D01*
X37298199Y-57297849D02*
X37298199Y-57535944D01*
X37298199Y-57535944D02*
X37250580Y-57631182D01*
X37250580Y-57631182D02*
X37202961Y-57678802D01*
X37202961Y-57678802D02*
X37107723Y-57726421D01*
X37107723Y-57726421D02*
X36822009Y-57726421D01*
X36822009Y-57726421D02*
X36726771Y-57678802D01*
X36726771Y-57678802D02*
X36679152Y-57631182D01*
X37679152Y-56821659D02*
X37726771Y-56774040D01*
X37726771Y-56774040D02*
X37822009Y-56726421D01*
X37822009Y-56726421D02*
X38060104Y-56726421D01*
X38060104Y-56726421D02*
X38155342Y-56774040D01*
X38155342Y-56774040D02*
X38202961Y-56821659D01*
X38202961Y-56821659D02*
X38250580Y-56916897D01*
X38250580Y-56916897D02*
X38250580Y-57012135D01*
X38250580Y-57012135D02*
X38202961Y-57154992D01*
X38202961Y-57154992D02*
X37631533Y-57726421D01*
X37631533Y-57726421D02*
X38250580Y-57726421D01*
X35933818Y-52981182D02*
X35886199Y-53028802D01*
X35886199Y-53028802D02*
X35743342Y-53076421D01*
X35743342Y-53076421D02*
X35648104Y-53076421D01*
X35648104Y-53076421D02*
X35505247Y-53028802D01*
X35505247Y-53028802D02*
X35410009Y-52933563D01*
X35410009Y-52933563D02*
X35362390Y-52838325D01*
X35362390Y-52838325D02*
X35314771Y-52647849D01*
X35314771Y-52647849D02*
X35314771Y-52504992D01*
X35314771Y-52504992D02*
X35362390Y-52314516D01*
X35362390Y-52314516D02*
X35410009Y-52219278D01*
X35410009Y-52219278D02*
X35505247Y-52124040D01*
X35505247Y-52124040D02*
X35648104Y-52076421D01*
X35648104Y-52076421D02*
X35743342Y-52076421D01*
X35743342Y-52076421D02*
X35886199Y-52124040D01*
X35886199Y-52124040D02*
X35933818Y-52171659D01*
X36267152Y-52076421D02*
X36886199Y-52076421D01*
X36886199Y-52076421D02*
X36552866Y-52457373D01*
X36552866Y-52457373D02*
X36695723Y-52457373D01*
X36695723Y-52457373D02*
X36790961Y-52504992D01*
X36790961Y-52504992D02*
X36838580Y-52552611D01*
X36838580Y-52552611D02*
X36886199Y-52647849D01*
X36886199Y-52647849D02*
X36886199Y-52885944D01*
X36886199Y-52885944D02*
X36838580Y-52981182D01*
X36838580Y-52981182D02*
X36790961Y-53028802D01*
X36790961Y-53028802D02*
X36695723Y-53076421D01*
X36695723Y-53076421D02*
X36410009Y-53076421D01*
X36410009Y-53076421D02*
X36314771Y-53028802D01*
X36314771Y-53028802D02*
X36267152Y-52981182D01*
X37838580Y-53076421D02*
X37267152Y-53076421D01*
X37552866Y-53076421D02*
X37552866Y-52076421D01*
X37552866Y-52076421D02*
X37457628Y-52219278D01*
X37457628Y-52219278D02*
X37362390Y-52314516D01*
X37362390Y-52314516D02*
X37267152Y-52362135D01*
X54749697Y-37504912D02*
X54702078Y-37552532D01*
X54702078Y-37552532D02*
X54559221Y-37600151D01*
X54559221Y-37600151D02*
X54463983Y-37600151D01*
X54463983Y-37600151D02*
X54321126Y-37552532D01*
X54321126Y-37552532D02*
X54225888Y-37457293D01*
X54225888Y-37457293D02*
X54178269Y-37362055D01*
X54178269Y-37362055D02*
X54130650Y-37171579D01*
X54130650Y-37171579D02*
X54130650Y-37028722D01*
X54130650Y-37028722D02*
X54178269Y-36838246D01*
X54178269Y-36838246D02*
X54225888Y-36743008D01*
X54225888Y-36743008D02*
X54321126Y-36647770D01*
X54321126Y-36647770D02*
X54463983Y-36600151D01*
X54463983Y-36600151D02*
X54559221Y-36600151D01*
X54559221Y-36600151D02*
X54702078Y-36647770D01*
X54702078Y-36647770D02*
X54749697Y-36695389D01*
X55606840Y-36600151D02*
X55416364Y-36600151D01*
X55416364Y-36600151D02*
X55321126Y-36647770D01*
X55321126Y-36647770D02*
X55273507Y-36695389D01*
X55273507Y-36695389D02*
X55178269Y-36838246D01*
X55178269Y-36838246D02*
X55130650Y-37028722D01*
X55130650Y-37028722D02*
X55130650Y-37409674D01*
X55130650Y-37409674D02*
X55178269Y-37504912D01*
X55178269Y-37504912D02*
X55225888Y-37552532D01*
X55225888Y-37552532D02*
X55321126Y-37600151D01*
X55321126Y-37600151D02*
X55511602Y-37600151D01*
X55511602Y-37600151D02*
X55606840Y-37552532D01*
X55606840Y-37552532D02*
X55654459Y-37504912D01*
X55654459Y-37504912D02*
X55702078Y-37409674D01*
X55702078Y-37409674D02*
X55702078Y-37171579D01*
X55702078Y-37171579D02*
X55654459Y-37076341D01*
X55654459Y-37076341D02*
X55606840Y-37028722D01*
X55606840Y-37028722D02*
X55511602Y-36981103D01*
X55511602Y-36981103D02*
X55321126Y-36981103D01*
X55321126Y-36981103D02*
X55225888Y-37028722D01*
X55225888Y-37028722D02*
X55178269Y-37076341D01*
X55178269Y-37076341D02*
X55130650Y-37171579D01*
D12*
%TO.C,Q4*%
X73877015Y-66970332D02*
X73877015Y-76460332D01*
X73877015Y-66970332D02*
X84117015Y-66970332D01*
X73877015Y-76460332D02*
X84117015Y-76460332D01*
X73877015Y-76700332D02*
X73877015Y-77900332D01*
X73877015Y-79100332D02*
X73877015Y-80300332D01*
X73877015Y-81500332D02*
X73877015Y-82700332D01*
X73877015Y-82860332D02*
X75077015Y-82860332D01*
X76276015Y-82860332D02*
X77477015Y-82860332D01*
X76457015Y-64430332D02*
X76457015Y-66970332D01*
X78677015Y-82860332D02*
X79877015Y-82860332D01*
X78997015Y-64430332D02*
X78997015Y-66970332D01*
X81077015Y-82860332D02*
X82277015Y-82860332D01*
X81537015Y-64430332D02*
X81537015Y-66970332D01*
X83477015Y-82860332D02*
X84117015Y-82860332D01*
X84117015Y-66970332D02*
X84117015Y-76460332D01*
X84117015Y-76700332D02*
X84117015Y-77900332D01*
X84117015Y-79100332D02*
X84117015Y-80300332D01*
X84117015Y-81500332D02*
X84117015Y-82700332D01*
%TO.C,C23*%
X94912000Y-39429000D02*
X94912000Y-40959000D01*
X96752000Y-39429000D02*
X96752000Y-40959000D01*
%TO.C,C22*%
X95307000Y-75599000D02*
X95307000Y-74069000D01*
X97147000Y-75599000D02*
X97147000Y-74069000D01*
%TO.C,R8*%
X59555183Y-44590332D02*
X61009311Y-44590332D01*
X59555183Y-46410332D02*
X61009311Y-46410332D01*
%TO.C,U8*%
X26719475Y-57045097D02*
X25919475Y-57045097D01*
X26719475Y-57045097D02*
X27519475Y-57045097D01*
X26719475Y-60165097D02*
X25919475Y-60165097D01*
X26719475Y-60165097D02*
X27519475Y-60165097D01*
X25419475Y-57095097D02*
X25179475Y-56765097D01*
X25659475Y-56765097D01*
X25419475Y-57095097D01*
G36*
X25419475Y-57095097D02*
G01*
X25179475Y-56765097D01*
X25659475Y-56765097D01*
X25419475Y-57095097D01*
G37*
%TO.C,C35*%
X21461137Y-71541235D02*
X21676809Y-71541235D01*
X21461137Y-72261235D02*
X21676809Y-72261235D01*
%TO.C,R5*%
X45749555Y-60217832D02*
X46224071Y-60217832D01*
X45749555Y-61262832D02*
X46224071Y-61262832D01*
%TO.C,R18*%
X59253300Y-57290332D02*
X60707428Y-57290332D01*
X59253300Y-59110332D02*
X60707428Y-59110332D01*
%TO.C,J3*%
X14373364Y-16650332D02*
X14373364Y-18570332D01*
X14373364Y-19170332D02*
X14373364Y-24590332D01*
X15993364Y-16650332D02*
X15993364Y-24590332D01*
X21613364Y-16650332D02*
X14373364Y-16650332D01*
X21613364Y-16650332D02*
X21613364Y-24590332D01*
X21613364Y-24590332D02*
X14373364Y-24590332D01*
X14373364Y-18870332D02*
X13763364Y-19310332D01*
X13763364Y-18430332D01*
X14373364Y-18870332D01*
G36*
X14373364Y-18870332D02*
G01*
X13763364Y-19310332D01*
X13763364Y-18430332D01*
X14373364Y-18870332D01*
G37*
%TO.C,R21*%
X85587134Y-55456315D02*
X85587134Y-59810443D01*
X89007134Y-55456315D02*
X89007134Y-59810443D01*
%TO.C,C4*%
X25562033Y-64690650D02*
X25346361Y-64690650D01*
X25562033Y-65410650D02*
X25346361Y-65410650D01*
%TO.C,R20*%
X62857742Y-60697500D02*
X63332258Y-60697500D01*
X62857742Y-61742500D02*
X63332258Y-61742500D01*
%TO.C,L1*%
X87401000Y-64936000D02*
X93991000Y-64936000D01*
X87401000Y-70624000D02*
X87401000Y-64936000D01*
X87401000Y-79146000D02*
X87401000Y-73458000D01*
X87401000Y-79146000D02*
X93991000Y-79146000D01*
X93991000Y-70624000D02*
X93991000Y-64936000D01*
X93991000Y-79146000D02*
X93991000Y-73458000D01*
%TO.C,R22*%
X45074864Y-46422074D02*
X45074864Y-46896590D01*
X46119864Y-46422074D02*
X46119864Y-46896590D01*
%TO.C,C13*%
X34822918Y-25274000D02*
X36072918Y-25274000D01*
X35447918Y-24649000D02*
X35447918Y-25899000D01*
X41640000Y-22519000D02*
X41640000Y-35179000D01*
X41680000Y-22519000D02*
X41680000Y-35179000D01*
X41720000Y-22520000D02*
X41720000Y-35178000D01*
X41760000Y-22520000D02*
X41760000Y-35178000D01*
X41800000Y-22521000D02*
X41800000Y-35177000D01*
X41840000Y-22522000D02*
X41840000Y-35176000D01*
X41880000Y-22524000D02*
X41880000Y-35174000D01*
X41920000Y-22525000D02*
X41920000Y-35173000D01*
X41960000Y-22527000D02*
X41960000Y-35171000D01*
X42000000Y-22529000D02*
X42000000Y-35169000D01*
X42040000Y-22532000D02*
X42040000Y-35166000D01*
X42080000Y-22534000D02*
X42080000Y-35164000D01*
X42120000Y-22537000D02*
X42120000Y-35161000D01*
X42160000Y-22540000D02*
X42160000Y-35158000D01*
X42200000Y-22544000D02*
X42200000Y-35154000D01*
X42240000Y-22547000D02*
X42240000Y-35151000D01*
X42280000Y-22551000D02*
X42280000Y-35147000D01*
X42320000Y-22555000D02*
X42320000Y-35143000D01*
X42360000Y-22560000D02*
X42360000Y-35138000D01*
X42400000Y-22565000D02*
X42400000Y-35133000D01*
X42440000Y-22569000D02*
X42440000Y-35129000D01*
X42480000Y-22575000D02*
X42480000Y-35123000D01*
X42520000Y-22580000D02*
X42520000Y-35118000D01*
X42560000Y-22586000D02*
X42560000Y-35112000D01*
X42600000Y-22592000D02*
X42600000Y-35106000D01*
X42640000Y-22598000D02*
X42640000Y-35100000D01*
X42680000Y-22604000D02*
X42680000Y-35094000D01*
X42720000Y-22611000D02*
X42720000Y-27409000D01*
X42720000Y-30289000D02*
X42720000Y-35087000D01*
X42760000Y-22618000D02*
X42760000Y-27409000D01*
X42760000Y-30289000D02*
X42760000Y-35080000D01*
X42800000Y-22626000D02*
X42800000Y-27409000D01*
X42800000Y-30289000D02*
X42800000Y-35072000D01*
X42840000Y-22633000D02*
X42840000Y-27409000D01*
X42840000Y-30289000D02*
X42840000Y-35065000D01*
X42880000Y-22641000D02*
X42880000Y-27409000D01*
X42880000Y-30289000D02*
X42880000Y-35057000D01*
X42920000Y-22649000D02*
X42920000Y-27409000D01*
X42920000Y-30289000D02*
X42920000Y-35049000D01*
X42960000Y-22657000D02*
X42960000Y-27409000D01*
X42960000Y-30289000D02*
X42960000Y-35041000D01*
X43000000Y-22666000D02*
X43000000Y-27409000D01*
X43000000Y-30289000D02*
X43000000Y-35032000D01*
X43040000Y-22675000D02*
X43040000Y-27409000D01*
X43040000Y-30289000D02*
X43040000Y-35023000D01*
X43080000Y-22684000D02*
X43080000Y-27409000D01*
X43080000Y-30289000D02*
X43080000Y-35014000D01*
X43120000Y-22693000D02*
X43120000Y-27409000D01*
X43120000Y-30289000D02*
X43120000Y-35005000D01*
X43160000Y-22703000D02*
X43160000Y-27409000D01*
X43160000Y-30289000D02*
X43160000Y-34995000D01*
X43200000Y-22713000D02*
X43200000Y-27409000D01*
X43200000Y-30289000D02*
X43200000Y-34985000D01*
X43240000Y-22723000D02*
X43240000Y-27409000D01*
X43240000Y-30289000D02*
X43240000Y-34975000D01*
X43280000Y-22734000D02*
X43280000Y-27409000D01*
X43280000Y-30289000D02*
X43280000Y-34964000D01*
X43320000Y-22745000D02*
X43320000Y-27409000D01*
X43320000Y-30289000D02*
X43320000Y-34953000D01*
X43360000Y-22756000D02*
X43360000Y-27409000D01*
X43360000Y-30289000D02*
X43360000Y-34942000D01*
X43400000Y-22767000D02*
X43400000Y-27409000D01*
X43400000Y-30289000D02*
X43400000Y-34931000D01*
X43440000Y-22779000D02*
X43440000Y-27409000D01*
X43440000Y-30289000D02*
X43440000Y-34919000D01*
X43480000Y-22791000D02*
X43480000Y-27409000D01*
X43480000Y-30289000D02*
X43480000Y-34907000D01*
X43520000Y-22803000D02*
X43520000Y-27409000D01*
X43520000Y-30289000D02*
X43520000Y-34895000D01*
X43560000Y-22815000D02*
X43560000Y-27409000D01*
X43560000Y-30289000D02*
X43560000Y-34883000D01*
X43600000Y-22828000D02*
X43600000Y-27409000D01*
X43600000Y-30289000D02*
X43600000Y-34870000D01*
X43640000Y-22841000D02*
X43640000Y-27409000D01*
X43640000Y-30289000D02*
X43640000Y-34857000D01*
X43680000Y-22854000D02*
X43680000Y-27409000D01*
X43680000Y-30289000D02*
X43680000Y-34844000D01*
X43720000Y-22868000D02*
X43720000Y-27409000D01*
X43720000Y-30289000D02*
X43720000Y-34830000D01*
X43760000Y-22882000D02*
X43760000Y-27409000D01*
X43760000Y-30289000D02*
X43760000Y-34816000D01*
X43800000Y-22896000D02*
X43800000Y-27409000D01*
X43800000Y-30289000D02*
X43800000Y-34802000D01*
X43840000Y-22911000D02*
X43840000Y-27409000D01*
X43840000Y-30289000D02*
X43840000Y-34787000D01*
X43880000Y-22926000D02*
X43880000Y-27409000D01*
X43880000Y-30289000D02*
X43880000Y-34772000D01*
X43920000Y-22941000D02*
X43920000Y-27409000D01*
X43920000Y-30289000D02*
X43920000Y-34757000D01*
X43960000Y-22957000D02*
X43960000Y-27409000D01*
X43960000Y-30289000D02*
X43960000Y-34741000D01*
X44000000Y-22972000D02*
X44000000Y-27409000D01*
X44000000Y-30289000D02*
X44000000Y-34726000D01*
X44040000Y-22988000D02*
X44040000Y-27409000D01*
X44040000Y-30289000D02*
X44040000Y-34710000D01*
X44080000Y-23005000D02*
X44080000Y-27409000D01*
X44080000Y-30289000D02*
X44080000Y-34693000D01*
X44120000Y-23022000D02*
X44120000Y-27409000D01*
X44120000Y-30289000D02*
X44120000Y-34676000D01*
X44160000Y-23039000D02*
X44160000Y-27409000D01*
X44160000Y-30289000D02*
X44160000Y-34659000D01*
X44200000Y-23056000D02*
X44200000Y-27409000D01*
X44200000Y-30289000D02*
X44200000Y-34642000D01*
X44240000Y-23074000D02*
X44240000Y-27409000D01*
X44240000Y-30289000D02*
X44240000Y-34624000D01*
X44280000Y-23092000D02*
X44280000Y-27409000D01*
X44280000Y-30289000D02*
X44280000Y-34606000D01*
X44320000Y-23110000D02*
X44320000Y-27409000D01*
X44320000Y-30289000D02*
X44320000Y-34588000D01*
X44360000Y-23129000D02*
X44360000Y-27409000D01*
X44360000Y-30289000D02*
X44360000Y-34569000D01*
X44400000Y-23148000D02*
X44400000Y-27409000D01*
X44400000Y-30289000D02*
X44400000Y-34550000D01*
X44440000Y-23167000D02*
X44440000Y-27409000D01*
X44440000Y-30289000D02*
X44440000Y-34531000D01*
X44480000Y-23187000D02*
X44480000Y-27409000D01*
X44480000Y-30289000D02*
X44480000Y-34511000D01*
X44520000Y-23207000D02*
X44520000Y-27409000D01*
X44520000Y-30289000D02*
X44520000Y-34491000D01*
X44560000Y-23228000D02*
X44560000Y-27409000D01*
X44560000Y-30289000D02*
X44560000Y-34470000D01*
X44600000Y-23248000D02*
X44600000Y-27409000D01*
X44600000Y-30289000D02*
X44600000Y-34450000D01*
X44640000Y-23270000D02*
X44640000Y-27409000D01*
X44640000Y-30289000D02*
X44640000Y-34428000D01*
X44680000Y-23291000D02*
X44680000Y-27409000D01*
X44680000Y-30289000D02*
X44680000Y-34407000D01*
X44720000Y-23313000D02*
X44720000Y-27409000D01*
X44720000Y-30289000D02*
X44720000Y-34385000D01*
X44760000Y-23335000D02*
X44760000Y-27409000D01*
X44760000Y-30289000D02*
X44760000Y-34363000D01*
X44800000Y-23358000D02*
X44800000Y-27409000D01*
X44800000Y-30289000D02*
X44800000Y-34340000D01*
X44840000Y-23381000D02*
X44840000Y-27409000D01*
X44840000Y-30289000D02*
X44840000Y-34317000D01*
X44880000Y-23405000D02*
X44880000Y-27409000D01*
X44880000Y-30289000D02*
X44880000Y-34293000D01*
X44920000Y-23428000D02*
X44920000Y-27409000D01*
X44920000Y-30289000D02*
X44920000Y-34270000D01*
X44960000Y-23453000D02*
X44960000Y-27409000D01*
X44960000Y-30289000D02*
X44960000Y-34245000D01*
X45000000Y-23477000D02*
X45000000Y-27409000D01*
X45000000Y-30289000D02*
X45000000Y-34221000D01*
X45040000Y-23502000D02*
X45040000Y-27409000D01*
X45040000Y-30289000D02*
X45040000Y-34196000D01*
X45080000Y-23528000D02*
X45080000Y-27409000D01*
X45080000Y-30289000D02*
X45080000Y-34170000D01*
X45120000Y-23554000D02*
X45120000Y-27409000D01*
X45120000Y-30289000D02*
X45120000Y-34144000D01*
X45160000Y-23580000D02*
X45160000Y-27409000D01*
X45160000Y-30289000D02*
X45160000Y-34118000D01*
X45200000Y-23607000D02*
X45200000Y-27409000D01*
X45200000Y-30289000D02*
X45200000Y-34091000D01*
X45240000Y-23634000D02*
X45240000Y-27409000D01*
X45240000Y-30289000D02*
X45240000Y-34064000D01*
X45280000Y-23661000D02*
X45280000Y-27409000D01*
X45280000Y-30289000D02*
X45280000Y-34037000D01*
X45320000Y-23690000D02*
X45320000Y-27409000D01*
X45320000Y-30289000D02*
X45320000Y-34008000D01*
X45360000Y-23718000D02*
X45360000Y-27409000D01*
X45360000Y-30289000D02*
X45360000Y-33980000D01*
X45400000Y-23747000D02*
X45400000Y-27409000D01*
X45400000Y-30289000D02*
X45400000Y-33951000D01*
X45440000Y-23777000D02*
X45440000Y-27409000D01*
X45440000Y-30289000D02*
X45440000Y-33921000D01*
X45480000Y-23807000D02*
X45480000Y-27409000D01*
X45480000Y-30289000D02*
X45480000Y-33891000D01*
X45520000Y-23837000D02*
X45520000Y-27409000D01*
X45520000Y-30289000D02*
X45520000Y-33861000D01*
X45560000Y-23868000D02*
X45560000Y-27409000D01*
X45560000Y-30289000D02*
X45560000Y-33830000D01*
X45600000Y-23899000D02*
X45600000Y-33799000D01*
X45640000Y-23931000D02*
X45640000Y-33767000D01*
X45680000Y-23964000D02*
X45680000Y-33734000D01*
X45720000Y-23997000D02*
X45720000Y-33701000D01*
X45760000Y-24031000D02*
X45760000Y-33667000D01*
X45800000Y-24065000D02*
X45800000Y-33633000D01*
X45840000Y-24100000D02*
X45840000Y-33598000D01*
X45880000Y-24135000D02*
X45880000Y-33563000D01*
X45920000Y-24171000D02*
X45920000Y-33527000D01*
X45960000Y-24208000D02*
X45960000Y-33490000D01*
X46000000Y-24245000D02*
X46000000Y-33453000D01*
X46040000Y-24283000D02*
X46040000Y-33415000D01*
X46080000Y-24321000D02*
X46080000Y-33377000D01*
X46120000Y-24361000D02*
X46120000Y-33337000D01*
X46160000Y-24401000D02*
X46160000Y-33297000D01*
X46200000Y-24441000D02*
X46200000Y-33257000D01*
X46240000Y-24483000D02*
X46240000Y-33215000D01*
X46280000Y-24525000D02*
X46280000Y-33173000D01*
X46320000Y-24568000D02*
X46320000Y-33130000D01*
X46360000Y-24611000D02*
X46360000Y-33087000D01*
X46400000Y-24656000D02*
X46400000Y-33042000D01*
X46440000Y-24701000D02*
X46440000Y-32997000D01*
X46480000Y-24748000D02*
X46480000Y-32950000D01*
X46520000Y-24795000D02*
X46520000Y-32903000D01*
X46560000Y-24843000D02*
X46560000Y-32855000D01*
X46600000Y-24892000D02*
X46600000Y-32806000D01*
X46640000Y-24942000D02*
X46640000Y-32756000D01*
X46680000Y-24993000D02*
X46680000Y-32705000D01*
X46720000Y-25046000D02*
X46720000Y-32652000D01*
X46760000Y-25099000D02*
X46760000Y-32599000D01*
X46800000Y-25154000D02*
X46800000Y-32544000D01*
X46840000Y-25210000D02*
X46840000Y-32488000D01*
X46880000Y-25267000D02*
X46880000Y-32431000D01*
X46920000Y-25326000D02*
X46920000Y-32372000D01*
X46960000Y-25386000D02*
X46960000Y-32312000D01*
X47000000Y-25447000D02*
X47000000Y-32251000D01*
X47040000Y-25510000D02*
X47040000Y-32188000D01*
X47080000Y-25575000D02*
X47080000Y-32123000D01*
X47120000Y-25641000D02*
X47120000Y-32057000D01*
X47160000Y-25710000D02*
X47160000Y-31988000D01*
X47200000Y-25780000D02*
X47200000Y-31918000D01*
X47240000Y-25853000D02*
X47240000Y-31845000D01*
X47280000Y-25928000D02*
X47280000Y-31770000D01*
X47320000Y-26006000D02*
X47320000Y-31692000D01*
X47360000Y-26086000D02*
X47360000Y-31612000D01*
X47400000Y-26169000D02*
X47400000Y-31529000D01*
X47440000Y-26255000D02*
X47440000Y-31443000D01*
X47480000Y-26345000D02*
X47480000Y-31353000D01*
X47520000Y-26439000D02*
X47520000Y-31259000D01*
X47560000Y-26537000D02*
X47560000Y-31161000D01*
X47600000Y-26641000D02*
X47600000Y-31057000D01*
X47640000Y-26750000D02*
X47640000Y-30948000D01*
X47680000Y-26865000D02*
X47680000Y-30833000D01*
X47720000Y-26989000D02*
X47720000Y-30709000D01*
X47760000Y-27122000D02*
X47760000Y-30576000D01*
X47800000Y-27267000D02*
X47800000Y-30431000D01*
X47840000Y-27427000D02*
X47840000Y-30271000D01*
X47880000Y-27609000D02*
X47880000Y-30089000D01*
X47920000Y-27822000D02*
X47920000Y-29876000D01*
X47960000Y-28092000D02*
X47960000Y-29606000D01*
X48000000Y-28532000D02*
X48000000Y-29166000D01*
X48010000Y-28849000D02*
G75*
G02*
X35270000Y-28849000I-6370000J0D01*
G01*
X35270000Y-28849000D02*
G75*
G02*
X48010000Y-28849000I6370000J0D01*
G01*
%TO.C,R27*%
X25306622Y-71378832D02*
X24832106Y-71378832D01*
X25306622Y-72423832D02*
X24832106Y-72423832D01*
%TO.C,RV1*%
X14172364Y-60686332D02*
X19192364Y-60686332D01*
X14172364Y-67306332D02*
X14172364Y-64086332D01*
X14172364Y-70706332D02*
X14172364Y-60686332D01*
X14172364Y-70706332D02*
X19192364Y-70706332D01*
X18001364Y-64086332D02*
X14172364Y-64086332D01*
X18001364Y-67306332D02*
X14172364Y-67306332D01*
X19192364Y-61800332D02*
X19192364Y-60686332D01*
X19192364Y-66800332D02*
X19192364Y-64592332D01*
X19192364Y-66800332D02*
X19192364Y-64592332D01*
X19192364Y-70706332D02*
X19192364Y-69592332D01*
%TO.C,C16*%
X24742302Y-26248000D02*
X25542302Y-26248000D01*
X25142302Y-25848000D02*
X25142302Y-26648000D01*
X29152000Y-24483000D02*
X29152000Y-32643000D01*
X29192000Y-24483000D02*
X29192000Y-32643000D01*
X29232000Y-24484000D02*
X29232000Y-32642000D01*
X29272000Y-24485000D02*
X29272000Y-32641000D01*
X29312000Y-24486000D02*
X29312000Y-32640000D01*
X29352000Y-24488000D02*
X29352000Y-32638000D01*
X29392000Y-24490000D02*
X29392000Y-32636000D01*
X29432000Y-24493000D02*
X29432000Y-32633000D01*
X29472000Y-24495000D02*
X29472000Y-32631000D01*
X29512000Y-24499000D02*
X29512000Y-32627000D01*
X29552000Y-24502000D02*
X29552000Y-32624000D01*
X29592000Y-24507000D02*
X29592000Y-32619000D01*
X29632000Y-24511000D02*
X29632000Y-32615000D01*
X29672000Y-24516000D02*
X29672000Y-32610000D01*
X29712000Y-24521000D02*
X29712000Y-32605000D01*
X29752000Y-24527000D02*
X29752000Y-32599000D01*
X29792000Y-24533000D02*
X29792000Y-32593000D01*
X29832000Y-24540000D02*
X29832000Y-32586000D01*
X29872000Y-24546000D02*
X29872000Y-27523000D01*
X29872000Y-29603000D02*
X29872000Y-32580000D01*
X29912000Y-24554000D02*
X29912000Y-27523000D01*
X29912000Y-29603000D02*
X29912000Y-32572000D01*
X29952000Y-24561000D02*
X29952000Y-27523000D01*
X29952000Y-29603000D02*
X29952000Y-32565000D01*
X29992000Y-24570000D02*
X29992000Y-27523000D01*
X29992000Y-29603000D02*
X29992000Y-32556000D01*
X30032000Y-24578000D02*
X30032000Y-27523000D01*
X30032000Y-29603000D02*
X30032000Y-32548000D01*
X30072000Y-24587000D02*
X30072000Y-27523000D01*
X30072000Y-29603000D02*
X30072000Y-32539000D01*
X30112000Y-24596000D02*
X30112000Y-27523000D01*
X30112000Y-29603000D02*
X30112000Y-32530000D01*
X30152000Y-24606000D02*
X30152000Y-27523000D01*
X30152000Y-29603000D02*
X30152000Y-32520000D01*
X30192000Y-24616000D02*
X30192000Y-27523000D01*
X30192000Y-29603000D02*
X30192000Y-32510000D01*
X30232000Y-24627000D02*
X30232000Y-27523000D01*
X30232000Y-29603000D02*
X30232000Y-32499000D01*
X30272000Y-24638000D02*
X30272000Y-27523000D01*
X30272000Y-29603000D02*
X30272000Y-32488000D01*
X30312000Y-24650000D02*
X30312000Y-27523000D01*
X30312000Y-29603000D02*
X30312000Y-32476000D01*
X30352000Y-24662000D02*
X30352000Y-27523000D01*
X30352000Y-29603000D02*
X30352000Y-32464000D01*
X30392000Y-24674000D02*
X30392000Y-27523000D01*
X30392000Y-29603000D02*
X30392000Y-32452000D01*
X30432000Y-24687000D02*
X30432000Y-27523000D01*
X30432000Y-29603000D02*
X30432000Y-32439000D01*
X30472000Y-24700000D02*
X30472000Y-27523000D01*
X30472000Y-29603000D02*
X30472000Y-32426000D01*
X30512000Y-24714000D02*
X30512000Y-27523000D01*
X30512000Y-29603000D02*
X30512000Y-32412000D01*
X30552000Y-24728000D02*
X30552000Y-27523000D01*
X30552000Y-29603000D02*
X30552000Y-32398000D01*
X30592000Y-24743000D02*
X30592000Y-27523000D01*
X30592000Y-29603000D02*
X30592000Y-32383000D01*
X30632000Y-24758000D02*
X30632000Y-27523000D01*
X30632000Y-29603000D02*
X30632000Y-32368000D01*
X30672000Y-24774000D02*
X30672000Y-27523000D01*
X30672000Y-29603000D02*
X30672000Y-32352000D01*
X30712000Y-24790000D02*
X30712000Y-27523000D01*
X30712000Y-29603000D02*
X30712000Y-32336000D01*
X30752000Y-24806000D02*
X30752000Y-27523000D01*
X30752000Y-29603000D02*
X30752000Y-32320000D01*
X30792000Y-24823000D02*
X30792000Y-27523000D01*
X30792000Y-29603000D02*
X30792000Y-32303000D01*
X30832000Y-24841000D02*
X30832000Y-27523000D01*
X30832000Y-29603000D02*
X30832000Y-32285000D01*
X30872000Y-24859000D02*
X30872000Y-27523000D01*
X30872000Y-29603000D02*
X30872000Y-32267000D01*
X30912000Y-24878000D02*
X30912000Y-27523000D01*
X30912000Y-29603000D02*
X30912000Y-32248000D01*
X30952000Y-24897000D02*
X30952000Y-27523000D01*
X30952000Y-29603000D02*
X30952000Y-32229000D01*
X30992000Y-24917000D02*
X30992000Y-27523000D01*
X30992000Y-29603000D02*
X30992000Y-32209000D01*
X31032000Y-24937000D02*
X31032000Y-27523000D01*
X31032000Y-29603000D02*
X31032000Y-32189000D01*
X31072000Y-24958000D02*
X31072000Y-27523000D01*
X31072000Y-29603000D02*
X31072000Y-32168000D01*
X31112000Y-24979000D02*
X31112000Y-27523000D01*
X31112000Y-29603000D02*
X31112000Y-32147000D01*
X31152000Y-25001000D02*
X31152000Y-27523000D01*
X31152000Y-29603000D02*
X31152000Y-32125000D01*
X31192000Y-25024000D02*
X31192000Y-27523000D01*
X31192000Y-29603000D02*
X31192000Y-32102000D01*
X31232000Y-25047000D02*
X31232000Y-27523000D01*
X31232000Y-29603000D02*
X31232000Y-32079000D01*
X31272000Y-25070000D02*
X31272000Y-27523000D01*
X31272000Y-29603000D02*
X31272000Y-32056000D01*
X31312000Y-25095000D02*
X31312000Y-27523000D01*
X31312000Y-29603000D02*
X31312000Y-32031000D01*
X31352000Y-25120000D02*
X31352000Y-27523000D01*
X31352000Y-29603000D02*
X31352000Y-32006000D01*
X31392000Y-25145000D02*
X31392000Y-27523000D01*
X31392000Y-29603000D02*
X31392000Y-31981000D01*
X31432000Y-25171000D02*
X31432000Y-27523000D01*
X31432000Y-29603000D02*
X31432000Y-31955000D01*
X31472000Y-25198000D02*
X31472000Y-27523000D01*
X31472000Y-29603000D02*
X31472000Y-31928000D01*
X31512000Y-25226000D02*
X31512000Y-27523000D01*
X31512000Y-29603000D02*
X31512000Y-31900000D01*
X31552000Y-25254000D02*
X31552000Y-27523000D01*
X31552000Y-29603000D02*
X31552000Y-31872000D01*
X31592000Y-25283000D02*
X31592000Y-27523000D01*
X31592000Y-29603000D02*
X31592000Y-31843000D01*
X31632000Y-25313000D02*
X31632000Y-27523000D01*
X31632000Y-29603000D02*
X31632000Y-31813000D01*
X31672000Y-25344000D02*
X31672000Y-27523000D01*
X31672000Y-29603000D02*
X31672000Y-31782000D01*
X31712000Y-25375000D02*
X31712000Y-27523000D01*
X31712000Y-29603000D02*
X31712000Y-31751000D01*
X31752000Y-25407000D02*
X31752000Y-27523000D01*
X31752000Y-29603000D02*
X31752000Y-31719000D01*
X31792000Y-25440000D02*
X31792000Y-27523000D01*
X31792000Y-29603000D02*
X31792000Y-31686000D01*
X31832000Y-25474000D02*
X31832000Y-27523000D01*
X31832000Y-29603000D02*
X31832000Y-31652000D01*
X31872000Y-25508000D02*
X31872000Y-27523000D01*
X31872000Y-29603000D02*
X31872000Y-31618000D01*
X31912000Y-25544000D02*
X31912000Y-27523000D01*
X31912000Y-29603000D02*
X31912000Y-31582000D01*
X31952000Y-25581000D02*
X31952000Y-31545000D01*
X31992000Y-25618000D02*
X31992000Y-31508000D01*
X32032000Y-25657000D02*
X32032000Y-31469000D01*
X32072000Y-25696000D02*
X32072000Y-31430000D01*
X32112000Y-25737000D02*
X32112000Y-31389000D01*
X32152000Y-25779000D02*
X32152000Y-31347000D01*
X32192000Y-25822000D02*
X32192000Y-31304000D01*
X32232000Y-25867000D02*
X32232000Y-31259000D01*
X32272000Y-25912000D02*
X32272000Y-31214000D01*
X32312000Y-25959000D02*
X32312000Y-31167000D01*
X32352000Y-26008000D02*
X32352000Y-31118000D01*
X32392000Y-26058000D02*
X32392000Y-31068000D01*
X32432000Y-26110000D02*
X32432000Y-31016000D01*
X32472000Y-26163000D02*
X32472000Y-30963000D01*
X32512000Y-26219000D02*
X32512000Y-30907000D01*
X32552000Y-26276000D02*
X32552000Y-30850000D01*
X32592000Y-26336000D02*
X32592000Y-30790000D01*
X32632000Y-26398000D02*
X32632000Y-30728000D01*
X32672000Y-26462000D02*
X32672000Y-30664000D01*
X32712000Y-26529000D02*
X32712000Y-30597000D01*
X32752000Y-26599000D02*
X32752000Y-30527000D01*
X32792000Y-26673000D02*
X32792000Y-30453000D01*
X32832000Y-26750000D02*
X32832000Y-30376000D01*
X32872000Y-26832000D02*
X32872000Y-30294000D01*
X32912000Y-26919000D02*
X32912000Y-30207000D01*
X32952000Y-27011000D02*
X32952000Y-30115000D01*
X32992000Y-27110000D02*
X32992000Y-30016000D01*
X33032000Y-27217000D02*
X33032000Y-29909000D01*
X33072000Y-27335000D02*
X33072000Y-29791000D01*
X33112000Y-27466000D02*
X33112000Y-29660000D01*
X33152000Y-27616000D02*
X33152000Y-29510000D01*
X33192000Y-27795000D02*
X33192000Y-29331000D01*
X33232000Y-28030000D02*
X33232000Y-29096000D01*
X33272000Y-28563000D02*
G75*
G02*
X25032000Y-28563000I-4120000J0D01*
G01*
X25032000Y-28563000D02*
G75*
G02*
X33272000Y-28563000I4120000J0D01*
G01*
%TO.C,R16*%
X85640500Y-31895258D02*
X85640500Y-31420742D01*
X86685500Y-31895258D02*
X86685500Y-31420742D01*
%TO.C,Q1*%
X63245364Y-35796332D02*
X63245364Y-45286332D01*
X63245364Y-35796332D02*
X73485364Y-35796332D01*
X63245364Y-45286332D02*
X73485364Y-45286332D01*
X63245364Y-45526332D02*
X63245364Y-46726332D01*
X63245364Y-47926332D02*
X63245364Y-49126332D01*
X63245364Y-50326332D02*
X63245364Y-51526332D01*
X63245364Y-51686332D02*
X64445364Y-51686332D01*
X65644364Y-51686332D02*
X66845364Y-51686332D01*
X65825364Y-33256332D02*
X65825364Y-35796332D01*
X68045364Y-51686332D02*
X69245364Y-51686332D01*
X68365364Y-33256332D02*
X68365364Y-35796332D01*
X70445364Y-51686332D02*
X71645364Y-51686332D01*
X70905364Y-33256332D02*
X70905364Y-35796332D01*
X72845364Y-51686332D02*
X73485364Y-51686332D01*
X73485364Y-35796332D02*
X73485364Y-45286332D01*
X73485364Y-45526332D02*
X73485364Y-46726332D01*
X73485364Y-47926332D02*
X73485364Y-49126332D01*
X73485364Y-50326332D02*
X73485364Y-51526332D01*
%TO.C,R6*%
X46224071Y-57677583D02*
X45749555Y-57677583D01*
X46224071Y-58722583D02*
X45749555Y-58722583D01*
%TO.C,C8*%
X27417700Y-55805388D02*
X27202028Y-55805388D01*
X27417700Y-56525388D02*
X27202028Y-56525388D01*
%TO.C,R9*%
X60557568Y-36465326D02*
X61032084Y-36465326D01*
X60557568Y-37510326D02*
X61032084Y-37510326D01*
%TO.C,Q2*%
X73877015Y-35796332D02*
X73877015Y-45286332D01*
X73877015Y-35796332D02*
X84117015Y-35796332D01*
X73877015Y-45286332D02*
X84117015Y-45286332D01*
X73877015Y-45526332D02*
X73877015Y-46726332D01*
X73877015Y-47926332D02*
X73877015Y-49126332D01*
X73877015Y-50326332D02*
X73877015Y-51526332D01*
X73877015Y-51686332D02*
X75077015Y-51686332D01*
X76276015Y-51686332D02*
X77477015Y-51686332D01*
X76457015Y-33256332D02*
X76457015Y-35796332D01*
X78677015Y-51686332D02*
X79877015Y-51686332D01*
X78997015Y-33256332D02*
X78997015Y-35796332D01*
X81077015Y-51686332D02*
X82277015Y-51686332D01*
X81537015Y-33256332D02*
X81537015Y-35796332D01*
X83477015Y-51686332D02*
X84117015Y-51686332D01*
X84117015Y-35796332D02*
X84117015Y-45286332D01*
X84117015Y-45526332D02*
X84117015Y-46726332D01*
X84117015Y-47926332D02*
X84117015Y-49126332D01*
X84117015Y-50326332D02*
X84117015Y-51526332D01*
%TO.C,R3*%
X29471622Y-68495832D02*
X28997106Y-68495832D01*
X29471622Y-69540832D02*
X28997106Y-69540832D01*
%TO.C,U6*%
X74907364Y-15406332D02*
X74907364Y-20047332D01*
X74907364Y-15406332D02*
X85147364Y-15406332D01*
X74907364Y-16916332D02*
X85147364Y-16916332D01*
X74907364Y-20047332D02*
X85147364Y-20047332D01*
X78177364Y-15406332D02*
X78177364Y-16916332D01*
X81878364Y-15406332D02*
X81878364Y-16916332D01*
X85147364Y-15406332D02*
X85147364Y-20047332D01*
%TO.C,F1*%
X25607364Y-15670332D02*
X25607364Y-17270332D01*
X25607364Y-22070332D02*
X25607364Y-20470332D01*
X31907364Y-15670332D02*
X25607364Y-15670332D01*
X31907364Y-15670332D02*
X31907364Y-17270332D01*
X31907364Y-22070332D02*
X25607364Y-22070332D01*
X31907364Y-22070332D02*
X31907364Y-20470332D01*
X39647364Y-15670332D02*
X39647364Y-17270332D01*
X39647364Y-16370332D02*
X31907364Y-16370332D01*
X39647364Y-21370332D02*
X31907364Y-21370332D01*
X39647364Y-22070332D02*
X39647364Y-20470332D01*
X39647364Y-22070332D02*
X45947364Y-22070332D01*
X45947364Y-15670332D02*
X39647364Y-15670332D01*
X45947364Y-17270332D02*
X45947364Y-15670332D01*
X45947364Y-20470332D02*
X45947364Y-22070332D01*
%TO.C,R17*%
X78880622Y-60185832D02*
X78406106Y-60185832D01*
X78880622Y-61230832D02*
X78406106Y-61230832D01*
%TO.C,R7*%
X59429300Y-39510332D02*
X60883428Y-39510332D01*
X59429300Y-41330332D02*
X60883428Y-41330332D01*
%TO.C,R1*%
X23116622Y-58652888D02*
X22642106Y-58652888D01*
X23116622Y-59697888D02*
X22642106Y-59697888D01*
%TO.C,Q3*%
X63245364Y-66970332D02*
X63245364Y-76460332D01*
X63245364Y-66970332D02*
X73485364Y-66970332D01*
X63245364Y-76460332D02*
X73485364Y-76460332D01*
X63245364Y-76700332D02*
X63245364Y-77900332D01*
X63245364Y-79100332D02*
X63245364Y-80300332D01*
X63245364Y-81500332D02*
X63245364Y-82700332D01*
X63245364Y-82860332D02*
X64445364Y-82860332D01*
X65644364Y-82860332D02*
X66845364Y-82860332D01*
X65825364Y-64430332D02*
X65825364Y-66970332D01*
X68045364Y-82860332D02*
X69245364Y-82860332D01*
X68365364Y-64430332D02*
X68365364Y-66970332D01*
X70445364Y-82860332D02*
X71645364Y-82860332D01*
X70905364Y-64430332D02*
X70905364Y-66970332D01*
X72845364Y-82860332D02*
X73485364Y-82860332D01*
X73485364Y-66970332D02*
X73485364Y-76460332D01*
X73485364Y-76700332D02*
X73485364Y-77900332D01*
X73485364Y-79100332D02*
X73485364Y-80300332D01*
X73485364Y-81500332D02*
X73485364Y-82700332D01*
%TO.C,C5*%
X30164364Y-67151496D02*
X30164364Y-67367168D01*
X30884364Y-67151496D02*
X30884364Y-67367168D01*
%TO.C,C7*%
X51408377Y-35267429D02*
X51624049Y-35267429D01*
X51408377Y-35987429D02*
X51624049Y-35987429D01*
%TO.C,D2*%
X51317364Y-66394332D02*
X51317364Y-69694332D01*
X51317364Y-66394332D02*
X56827364Y-66394332D01*
X51317364Y-69694332D02*
X56827364Y-69694332D01*
%TO.C,C17*%
X87208199Y-17563000D02*
X87608199Y-17563000D01*
X87408199Y-17363000D02*
X87408199Y-17763000D01*
X89478000Y-16678000D02*
X89478000Y-20838000D01*
X89518000Y-16678000D02*
X89518000Y-20838000D01*
X89558000Y-16680000D02*
X89558000Y-20836000D01*
X89598000Y-16681000D02*
X89598000Y-20835000D01*
X89638000Y-16684000D02*
X89638000Y-20832000D01*
X89678000Y-16687000D02*
X89678000Y-17918000D01*
X89678000Y-19598000D02*
X89678000Y-20829000D01*
X89718000Y-16692000D02*
X89718000Y-17918000D01*
X89718000Y-19598000D02*
X89718000Y-20824000D01*
X89758000Y-16697000D02*
X89758000Y-17918000D01*
X89758000Y-19598000D02*
X89758000Y-20819000D01*
X89798000Y-16702000D02*
X89798000Y-17918000D01*
X89798000Y-19598000D02*
X89798000Y-20814000D01*
X89838000Y-16709000D02*
X89838000Y-17918000D01*
X89838000Y-19598000D02*
X89838000Y-20807000D01*
X89878000Y-16716000D02*
X89878000Y-17918000D01*
X89878000Y-19598000D02*
X89878000Y-20800000D01*
X89918000Y-16724000D02*
X89918000Y-17918000D01*
X89918000Y-19598000D02*
X89918000Y-20792000D01*
X89958000Y-16733000D02*
X89958000Y-17918000D01*
X89958000Y-19598000D02*
X89958000Y-20783000D01*
X89998000Y-16743000D02*
X89998000Y-17918000D01*
X89998000Y-19598000D02*
X89998000Y-20773000D01*
X90038000Y-16753000D02*
X90038000Y-17918000D01*
X90038000Y-19598000D02*
X90038000Y-20763000D01*
X90078000Y-16765000D02*
X90078000Y-17918000D01*
X90078000Y-19598000D02*
X90078000Y-20751000D01*
X90118000Y-16777000D02*
X90118000Y-17918000D01*
X90118000Y-19598000D02*
X90118000Y-20739000D01*
X90158000Y-16790000D02*
X90158000Y-17918000D01*
X90158000Y-19598000D02*
X90158000Y-20726000D01*
X90198000Y-16804000D02*
X90198000Y-17918000D01*
X90198000Y-19598000D02*
X90198000Y-20712000D01*
X90238000Y-16819000D02*
X90238000Y-17918000D01*
X90238000Y-19598000D02*
X90238000Y-20697000D01*
X90278000Y-16835000D02*
X90278000Y-17918000D01*
X90278000Y-19598000D02*
X90278000Y-20681000D01*
X90318000Y-16852000D02*
X90318000Y-17918000D01*
X90318000Y-19598000D02*
X90318000Y-20664000D01*
X90358000Y-16869000D02*
X90358000Y-17918000D01*
X90358000Y-19598000D02*
X90358000Y-20647000D01*
X90398000Y-16888000D02*
X90398000Y-17918000D01*
X90398000Y-19598000D02*
X90398000Y-20628000D01*
X90438000Y-16908000D02*
X90438000Y-17918000D01*
X90438000Y-19598000D02*
X90438000Y-20608000D01*
X90478000Y-16929000D02*
X90478000Y-17918000D01*
X90478000Y-19598000D02*
X90478000Y-20587000D01*
X90518000Y-16951000D02*
X90518000Y-17918000D01*
X90518000Y-19598000D02*
X90518000Y-20565000D01*
X90558000Y-16974000D02*
X90558000Y-17918000D01*
X90558000Y-19598000D02*
X90558000Y-20542000D01*
X90598000Y-16998000D02*
X90598000Y-17918000D01*
X90598000Y-19598000D02*
X90598000Y-20518000D01*
X90638000Y-17024000D02*
X90638000Y-17918000D01*
X90638000Y-19598000D02*
X90638000Y-20492000D01*
X90678000Y-17050000D02*
X90678000Y-17918000D01*
X90678000Y-19598000D02*
X90678000Y-20466000D01*
X90718000Y-17078000D02*
X90718000Y-17918000D01*
X90718000Y-19598000D02*
X90718000Y-20438000D01*
X90758000Y-17108000D02*
X90758000Y-17918000D01*
X90758000Y-19598000D02*
X90758000Y-20408000D01*
X90798000Y-17139000D02*
X90798000Y-17918000D01*
X90798000Y-19598000D02*
X90798000Y-20377000D01*
X90838000Y-17172000D02*
X90838000Y-17918000D01*
X90838000Y-19598000D02*
X90838000Y-20344000D01*
X90878000Y-17206000D02*
X90878000Y-17918000D01*
X90878000Y-19598000D02*
X90878000Y-20310000D01*
X90918000Y-17242000D02*
X90918000Y-17918000D01*
X90918000Y-19598000D02*
X90918000Y-20274000D01*
X90958000Y-17280000D02*
X90958000Y-17918000D01*
X90958000Y-19598000D02*
X90958000Y-20236000D01*
X90998000Y-17320000D02*
X90998000Y-17918000D01*
X90998000Y-19598000D02*
X90998000Y-20196000D01*
X91038000Y-17362000D02*
X91038000Y-17918000D01*
X91038000Y-19598000D02*
X91038000Y-20154000D01*
X91078000Y-17407000D02*
X91078000Y-17918000D01*
X91078000Y-19598000D02*
X91078000Y-20109000D01*
X91118000Y-17455000D02*
X91118000Y-17918000D01*
X91118000Y-19598000D02*
X91118000Y-20061000D01*
X91158000Y-17505000D02*
X91158000Y-17918000D01*
X91158000Y-19598000D02*
X91158000Y-20011000D01*
X91198000Y-17559000D02*
X91198000Y-17918000D01*
X91198000Y-19598000D02*
X91198000Y-19957000D01*
X91238000Y-17616000D02*
X91238000Y-17918000D01*
X91238000Y-19598000D02*
X91238000Y-19900000D01*
X91278000Y-17678000D02*
X91278000Y-17918000D01*
X91278000Y-19598000D02*
X91278000Y-19838000D01*
X91318000Y-17745000D02*
X91318000Y-19771000D01*
X91358000Y-17818000D02*
X91358000Y-19698000D01*
X91398000Y-17899000D02*
X91398000Y-19617000D01*
X91438000Y-17990000D02*
X91438000Y-19526000D01*
X91478000Y-18095000D02*
X91478000Y-19421000D01*
X91518000Y-18221000D02*
X91518000Y-19295000D01*
X91558000Y-18388000D02*
X91558000Y-19128000D01*
X91598000Y-18758000D02*
G75*
G02*
X87358000Y-18758000I-2120000J0D01*
G01*
X87358000Y-18758000D02*
G75*
G02*
X91598000Y-18758000I2120000J0D01*
G01*
%TO.C,U5*%
X64073364Y-15406332D02*
X64073364Y-20047332D01*
X64073364Y-15406332D02*
X74313364Y-15406332D01*
X64073364Y-16916332D02*
X74313364Y-16916332D01*
X64073364Y-20047332D02*
X74313364Y-20047332D01*
X67343364Y-15406332D02*
X67343364Y-16916332D01*
X71044364Y-15406332D02*
X71044364Y-16916332D01*
X74313364Y-15406332D02*
X74313364Y-20047332D01*
%TO.C,R23*%
X28207106Y-66961832D02*
X28681622Y-66961832D01*
X28207106Y-68006832D02*
X28681622Y-68006832D01*
%TO.C,U2*%
X24794864Y-65794332D02*
X23994864Y-65794332D01*
X24794864Y-65794332D02*
X25594864Y-65794332D01*
X24794864Y-68914332D02*
X23994864Y-68914332D01*
X24794864Y-68914332D02*
X25594864Y-68914332D01*
X23494864Y-65844332D02*
X23254864Y-65514332D01*
X23734864Y-65514332D01*
X23494864Y-65844332D01*
G36*
X23494864Y-65844332D02*
G01*
X23254864Y-65514332D01*
X23734864Y-65514332D01*
X23494864Y-65844332D01*
G37*
%TO.C,C19*%
X92386000Y-28114000D02*
X87588000Y-28114000D01*
X92386000Y-28154000D02*
X87595000Y-28154000D01*
X92386000Y-28194000D02*
X87603000Y-28194000D01*
X92386000Y-28234000D02*
X87610000Y-28234000D01*
X92386000Y-28274000D02*
X87618000Y-28274000D01*
X92386000Y-28314000D02*
X87626000Y-28314000D01*
X92386000Y-28354000D02*
X87634000Y-28354000D01*
X92386000Y-28394000D02*
X87643000Y-28394000D01*
X92386000Y-28434000D02*
X87652000Y-28434000D01*
X92386000Y-28474000D02*
X87661000Y-28474000D01*
X92386000Y-28514000D02*
X87670000Y-28514000D01*
X92386000Y-28554000D02*
X87680000Y-28554000D01*
X92386000Y-28594000D02*
X87690000Y-28594000D01*
X92386000Y-28634000D02*
X87700000Y-28634000D01*
X92386000Y-28674000D02*
X87711000Y-28674000D01*
X92386000Y-28714000D02*
X87722000Y-28714000D01*
X92386000Y-28754000D02*
X87733000Y-28754000D01*
X92386000Y-28794000D02*
X87744000Y-28794000D01*
X92386000Y-28834000D02*
X87756000Y-28834000D01*
X92386000Y-28874000D02*
X87768000Y-28874000D01*
X92386000Y-28914000D02*
X87780000Y-28914000D01*
X92386000Y-28954000D02*
X87792000Y-28954000D01*
X92386000Y-28994000D02*
X87805000Y-28994000D01*
X92386000Y-29034000D02*
X87818000Y-29034000D01*
X92386000Y-29074000D02*
X87831000Y-29074000D01*
X92386000Y-29114000D02*
X87845000Y-29114000D01*
X92386000Y-29154000D02*
X87859000Y-29154000D01*
X92386000Y-29194000D02*
X87873000Y-29194000D01*
X92386000Y-29234000D02*
X87888000Y-29234000D01*
X92386000Y-29274000D02*
X87903000Y-29274000D01*
X92386000Y-29314000D02*
X87918000Y-29314000D01*
X92386000Y-29354000D02*
X87934000Y-29354000D01*
X92386000Y-29394000D02*
X87949000Y-29394000D01*
X92386000Y-29434000D02*
X87965000Y-29434000D01*
X92386000Y-29474000D02*
X87982000Y-29474000D01*
X92386000Y-29514000D02*
X87999000Y-29514000D01*
X92386000Y-29554000D02*
X88016000Y-29554000D01*
X92386000Y-29594000D02*
X88033000Y-29594000D01*
X92386000Y-29634000D02*
X88051000Y-29634000D01*
X92386000Y-29674000D02*
X88069000Y-29674000D01*
X92386000Y-29714000D02*
X88087000Y-29714000D01*
X92386000Y-29754000D02*
X88106000Y-29754000D01*
X92386000Y-29794000D02*
X88125000Y-29794000D01*
X92386000Y-29834000D02*
X88144000Y-29834000D01*
X92386000Y-29874000D02*
X88164000Y-29874000D01*
X92386000Y-29914000D02*
X88184000Y-29914000D01*
X92386000Y-29954000D02*
X88205000Y-29954000D01*
X92386000Y-29994000D02*
X88225000Y-29994000D01*
X92386000Y-30034000D02*
X88247000Y-30034000D01*
X92386000Y-30074000D02*
X88268000Y-30074000D01*
X92386000Y-30114000D02*
X88290000Y-30114000D01*
X92386000Y-30154000D02*
X88312000Y-30154000D01*
X92386000Y-30194000D02*
X88335000Y-30194000D01*
X92386000Y-30234000D02*
X88358000Y-30234000D01*
X92386000Y-30274000D02*
X88382000Y-30274000D01*
X92386000Y-30314000D02*
X88405000Y-30314000D01*
X92386000Y-30354000D02*
X88430000Y-30354000D01*
X92386000Y-30394000D02*
X88454000Y-30394000D01*
X92386000Y-30434000D02*
X88479000Y-30434000D01*
X92386000Y-30474000D02*
X88505000Y-30474000D01*
X92386000Y-30514000D02*
X88531000Y-30514000D01*
X92386000Y-30554000D02*
X88557000Y-30554000D01*
X92386000Y-30594000D02*
X88584000Y-30594000D01*
X92386000Y-30634000D02*
X88611000Y-30634000D01*
X92386000Y-30674000D02*
X88638000Y-30674000D01*
X92386000Y-30714000D02*
X88667000Y-30714000D01*
X92386000Y-30754000D02*
X88695000Y-30754000D01*
X92386000Y-30794000D02*
X88724000Y-30794000D01*
X92386000Y-30834000D02*
X88754000Y-30834000D01*
X92386000Y-30874000D02*
X88784000Y-30874000D01*
X92386000Y-30914000D02*
X88814000Y-30914000D01*
X92386000Y-30954000D02*
X88845000Y-30954000D01*
X94143000Y-33394000D02*
X93509000Y-33394000D01*
X94583000Y-33354000D02*
X93069000Y-33354000D01*
X94853000Y-33314000D02*
X92799000Y-33314000D01*
X95066000Y-33274000D02*
X92586000Y-33274000D01*
X95248000Y-33234000D02*
X92404000Y-33234000D01*
X95408000Y-33194000D02*
X92244000Y-33194000D01*
X95553000Y-33154000D02*
X92099000Y-33154000D01*
X95686000Y-33114000D02*
X91966000Y-33114000D01*
X95810000Y-33074000D02*
X91842000Y-33074000D01*
X95925000Y-33034000D02*
X91727000Y-33034000D01*
X96034000Y-32994000D02*
X91618000Y-32994000D01*
X96138000Y-32954000D02*
X91514000Y-32954000D01*
X96236000Y-32914000D02*
X91416000Y-32914000D01*
X96330000Y-32874000D02*
X91322000Y-32874000D01*
X96420000Y-32834000D02*
X91232000Y-32834000D01*
X96506000Y-32794000D02*
X91146000Y-32794000D01*
X96589000Y-32754000D02*
X91063000Y-32754000D01*
X96669000Y-32714000D02*
X90983000Y-32714000D01*
X96747000Y-32674000D02*
X90905000Y-32674000D01*
X96822000Y-32634000D02*
X90830000Y-32634000D01*
X96895000Y-32594000D02*
X90757000Y-32594000D01*
X96965000Y-32554000D02*
X90687000Y-32554000D01*
X97034000Y-32514000D02*
X90618000Y-32514000D01*
X97100000Y-32474000D02*
X90552000Y-32474000D01*
X97165000Y-32434000D02*
X90487000Y-32434000D01*
X97228000Y-32394000D02*
X90424000Y-32394000D01*
X97289000Y-32354000D02*
X90363000Y-32354000D01*
X97349000Y-32314000D02*
X90303000Y-32314000D01*
X97401000Y-20216918D02*
X97401000Y-21466918D01*
X97408000Y-32274000D02*
X90244000Y-32274000D01*
X97465000Y-32234000D02*
X90187000Y-32234000D01*
X97521000Y-32194000D02*
X90131000Y-32194000D01*
X97576000Y-32154000D02*
X90076000Y-32154000D01*
X97629000Y-32114000D02*
X90023000Y-32114000D01*
X97682000Y-32074000D02*
X89970000Y-32074000D01*
X97733000Y-32034000D02*
X89919000Y-32034000D01*
X97783000Y-31994000D02*
X89869000Y-31994000D01*
X97832000Y-31954000D02*
X89820000Y-31954000D01*
X97880000Y-31914000D02*
X89772000Y-31914000D01*
X97927000Y-31874000D02*
X89725000Y-31874000D01*
X97974000Y-31834000D02*
X89678000Y-31834000D01*
X98019000Y-31794000D02*
X89633000Y-31794000D01*
X98026000Y-20841918D02*
X96776000Y-20841918D01*
X98064000Y-31754000D02*
X89588000Y-31754000D01*
X98107000Y-31714000D02*
X89545000Y-31714000D01*
X98150000Y-31674000D02*
X89502000Y-31674000D01*
X98192000Y-31634000D02*
X89460000Y-31634000D01*
X98234000Y-31594000D02*
X89418000Y-31594000D01*
X98274000Y-31554000D02*
X89378000Y-31554000D01*
X98314000Y-31514000D02*
X89338000Y-31514000D01*
X98354000Y-31474000D02*
X89298000Y-31474000D01*
X98392000Y-31434000D02*
X89260000Y-31434000D01*
X98430000Y-31394000D02*
X89222000Y-31394000D01*
X98467000Y-31354000D02*
X89185000Y-31354000D01*
X98504000Y-31314000D02*
X89148000Y-31314000D01*
X98540000Y-31274000D02*
X89112000Y-31274000D01*
X98575000Y-31234000D02*
X89077000Y-31234000D01*
X98610000Y-31194000D02*
X89042000Y-31194000D01*
X98644000Y-31154000D02*
X89008000Y-31154000D01*
X98678000Y-31114000D02*
X88974000Y-31114000D01*
X98711000Y-31074000D02*
X88941000Y-31074000D01*
X98744000Y-31034000D02*
X88908000Y-31034000D01*
X98776000Y-30994000D02*
X88876000Y-30994000D01*
X98807000Y-30954000D02*
X95266000Y-30954000D01*
X98838000Y-30914000D02*
X95266000Y-30914000D01*
X98868000Y-30874000D02*
X95266000Y-30874000D01*
X98898000Y-30834000D02*
X95266000Y-30834000D01*
X98928000Y-30794000D02*
X95266000Y-30794000D01*
X98957000Y-30754000D02*
X95266000Y-30754000D01*
X98985000Y-30714000D02*
X95266000Y-30714000D01*
X99014000Y-30674000D02*
X95266000Y-30674000D01*
X99041000Y-30634000D02*
X95266000Y-30634000D01*
X99068000Y-30594000D02*
X95266000Y-30594000D01*
X99095000Y-30554000D02*
X95266000Y-30554000D01*
X99121000Y-30514000D02*
X95266000Y-30514000D01*
X99147000Y-30474000D02*
X95266000Y-30474000D01*
X99173000Y-30434000D02*
X95266000Y-30434000D01*
X99198000Y-30394000D02*
X95266000Y-30394000D01*
X99222000Y-30354000D02*
X95266000Y-30354000D01*
X99247000Y-30314000D02*
X95266000Y-30314000D01*
X99270000Y-30274000D02*
X95266000Y-30274000D01*
X99294000Y-30234000D02*
X95266000Y-30234000D01*
X99317000Y-30194000D02*
X95266000Y-30194000D01*
X99340000Y-30154000D02*
X95266000Y-30154000D01*
X99362000Y-30114000D02*
X95266000Y-30114000D01*
X99384000Y-30074000D02*
X95266000Y-30074000D01*
X99405000Y-30034000D02*
X95266000Y-30034000D01*
X99427000Y-29994000D02*
X95266000Y-29994000D01*
X99447000Y-29954000D02*
X95266000Y-29954000D01*
X99468000Y-29914000D02*
X95266000Y-29914000D01*
X99488000Y-29874000D02*
X95266000Y-29874000D01*
X99508000Y-29834000D02*
X95266000Y-29834000D01*
X99527000Y-29794000D02*
X95266000Y-29794000D01*
X99546000Y-29754000D02*
X95266000Y-29754000D01*
X99565000Y-29714000D02*
X95266000Y-29714000D01*
X99583000Y-29674000D02*
X95266000Y-29674000D01*
X99601000Y-29634000D02*
X95266000Y-29634000D01*
X99619000Y-29594000D02*
X95266000Y-29594000D01*
X99636000Y-29554000D02*
X95266000Y-29554000D01*
X99653000Y-29514000D02*
X95266000Y-29514000D01*
X99670000Y-29474000D02*
X95266000Y-29474000D01*
X99687000Y-29434000D02*
X95266000Y-29434000D01*
X99703000Y-29394000D02*
X95266000Y-29394000D01*
X99718000Y-29354000D02*
X95266000Y-29354000D01*
X99734000Y-29314000D02*
X95266000Y-29314000D01*
X99749000Y-29274000D02*
X95266000Y-29274000D01*
X99764000Y-29234000D02*
X95266000Y-29234000D01*
X99779000Y-29194000D02*
X95266000Y-29194000D01*
X99793000Y-29154000D02*
X95266000Y-29154000D01*
X99807000Y-29114000D02*
X95266000Y-29114000D01*
X99821000Y-29074000D02*
X95266000Y-29074000D01*
X99834000Y-29034000D02*
X95266000Y-29034000D01*
X99847000Y-28994000D02*
X95266000Y-28994000D01*
X99860000Y-28954000D02*
X95266000Y-28954000D01*
X99872000Y-28914000D02*
X95266000Y-28914000D01*
X99884000Y-28874000D02*
X95266000Y-28874000D01*
X99896000Y-28834000D02*
X95266000Y-28834000D01*
X99908000Y-28794000D02*
X95266000Y-28794000D01*
X99919000Y-28754000D02*
X95266000Y-28754000D01*
X99930000Y-28714000D02*
X95266000Y-28714000D01*
X99941000Y-28674000D02*
X95266000Y-28674000D01*
X99952000Y-28634000D02*
X95266000Y-28634000D01*
X99962000Y-28594000D02*
X95266000Y-28594000D01*
X99972000Y-28554000D02*
X95266000Y-28554000D01*
X99982000Y-28514000D02*
X95266000Y-28514000D01*
X99991000Y-28474000D02*
X95266000Y-28474000D01*
X100000000Y-28434000D02*
X95266000Y-28434000D01*
X100009000Y-28394000D02*
X95266000Y-28394000D01*
X100018000Y-28354000D02*
X95266000Y-28354000D01*
X100026000Y-28314000D02*
X95266000Y-28314000D01*
X100034000Y-28274000D02*
X95266000Y-28274000D01*
X100042000Y-28234000D02*
X95266000Y-28234000D01*
X100049000Y-28194000D02*
X95266000Y-28194000D01*
X100057000Y-28154000D02*
X95266000Y-28154000D01*
X100064000Y-28114000D02*
X95266000Y-28114000D01*
X100071000Y-28074000D02*
X87581000Y-28074000D01*
X100077000Y-28034000D02*
X87575000Y-28034000D01*
X100083000Y-27994000D02*
X87569000Y-27994000D01*
X100089000Y-27954000D02*
X87563000Y-27954000D01*
X100095000Y-27914000D02*
X87557000Y-27914000D01*
X100100000Y-27874000D02*
X87552000Y-27874000D01*
X100106000Y-27834000D02*
X87546000Y-27834000D01*
X100110000Y-27794000D02*
X87542000Y-27794000D01*
X100115000Y-27754000D02*
X87537000Y-27754000D01*
X100120000Y-27714000D02*
X87532000Y-27714000D01*
X100124000Y-27674000D02*
X87528000Y-27674000D01*
X100128000Y-27634000D02*
X87524000Y-27634000D01*
X100131000Y-27594000D02*
X87521000Y-27594000D01*
X100135000Y-27554000D02*
X87517000Y-27554000D01*
X100138000Y-27514000D02*
X87514000Y-27514000D01*
X100141000Y-27474000D02*
X87511000Y-27474000D01*
X100143000Y-27434000D02*
X87509000Y-27434000D01*
X100146000Y-27394000D02*
X87506000Y-27394000D01*
X100148000Y-27354000D02*
X87504000Y-27354000D01*
X100150000Y-27314000D02*
X87502000Y-27314000D01*
X100151000Y-27274000D02*
X87501000Y-27274000D01*
X100153000Y-27234000D02*
X87499000Y-27234000D01*
X100154000Y-27194000D02*
X87498000Y-27194000D01*
X100155000Y-27114000D02*
X87497000Y-27114000D01*
X100155000Y-27154000D02*
X87497000Y-27154000D01*
X100156000Y-27034000D02*
X87496000Y-27034000D01*
X100156000Y-27074000D02*
X87496000Y-27074000D01*
X100196000Y-27034000D02*
G75*
G02*
X87456000Y-27034000I-6370000J0D01*
G01*
X87456000Y-27034000D02*
G75*
G02*
X100196000Y-27034000I6370000J0D01*
G01*
%TO.C,U4*%
X33561801Y-57991602D02*
X32761801Y-57991602D01*
X33561801Y-57991602D02*
X34361801Y-57991602D01*
X33561801Y-61111602D02*
X32761801Y-61111602D01*
X33561801Y-61111602D02*
X34361801Y-61111602D01*
X32261801Y-58041602D02*
X32021801Y-57711602D01*
X32501801Y-57711602D01*
X32261801Y-58041602D01*
G36*
X32261801Y-58041602D02*
G01*
X32021801Y-57711602D01*
X32501801Y-57711602D01*
X32261801Y-58041602D01*
G37*
%TO.C,U1*%
X33561801Y-53441602D02*
X32761801Y-53441602D01*
X33561801Y-53441602D02*
X34361801Y-53441602D01*
X33561801Y-56561602D02*
X32761801Y-56561602D01*
X33561801Y-56561602D02*
X34361801Y-56561602D01*
X32261801Y-53491602D02*
X32021801Y-53161602D01*
X32501801Y-53161602D01*
X32261801Y-53491602D01*
G36*
X32261801Y-53491602D02*
G01*
X32021801Y-53161602D01*
X32501801Y-53161602D01*
X32261801Y-53491602D01*
G37*
%TO.C,R19*%
X59332554Y-62370332D02*
X60786682Y-62370332D01*
X59332554Y-64190332D02*
X60786682Y-64190332D01*
%TO.C,U3*%
X49988364Y-39090332D02*
X49988364Y-64610332D01*
X49988364Y-64610332D02*
X55288364Y-64610332D01*
X51638364Y-39090332D02*
X49988364Y-39090332D01*
X55288364Y-39090332D02*
X53638364Y-39090332D01*
X55288364Y-64610332D02*
X55288364Y-39090332D01*
X53638364Y-39090332D02*
G75*
G02*
X51638364Y-39090332I-1000000J0D01*
G01*
%TO.C,SW1*%
X29593000Y-35894000D02*
X29593000Y-40394000D01*
X32093000Y-41644000D02*
X33593000Y-41644000D01*
X33593000Y-34644000D02*
X32093000Y-34644000D01*
X36093000Y-40394000D02*
X36093000Y-35894000D01*
%TO.C,R2*%
X22642106Y-57132888D02*
X23116622Y-57132888D01*
X22642106Y-58177888D02*
X23116622Y-58177888D01*
%TO.C,C12*%
X73115199Y-21538000D02*
X73515199Y-21538000D01*
X73315199Y-21338000D02*
X73315199Y-21738000D01*
X75385000Y-20653000D02*
X75385000Y-24813000D01*
X75425000Y-20653000D02*
X75425000Y-24813000D01*
X75465000Y-20655000D02*
X75465000Y-24811000D01*
X75505000Y-20656000D02*
X75505000Y-24810000D01*
X75545000Y-20659000D02*
X75545000Y-24807000D01*
X75585000Y-20662000D02*
X75585000Y-21893000D01*
X75585000Y-23573000D02*
X75585000Y-24804000D01*
X75625000Y-20667000D02*
X75625000Y-21893000D01*
X75625000Y-23573000D02*
X75625000Y-24799000D01*
X75665000Y-20672000D02*
X75665000Y-21893000D01*
X75665000Y-23573000D02*
X75665000Y-24794000D01*
X75705000Y-20677000D02*
X75705000Y-21893000D01*
X75705000Y-23573000D02*
X75705000Y-24789000D01*
X75745000Y-20684000D02*
X75745000Y-21893000D01*
X75745000Y-23573000D02*
X75745000Y-24782000D01*
X75785000Y-20691000D02*
X75785000Y-21893000D01*
X75785000Y-23573000D02*
X75785000Y-24775000D01*
X75825000Y-20699000D02*
X75825000Y-21893000D01*
X75825000Y-23573000D02*
X75825000Y-24767000D01*
X75865000Y-20708000D02*
X75865000Y-21893000D01*
X75865000Y-23573000D02*
X75865000Y-24758000D01*
X75905000Y-20718000D02*
X75905000Y-21893000D01*
X75905000Y-23573000D02*
X75905000Y-24748000D01*
X75945000Y-20728000D02*
X75945000Y-21893000D01*
X75945000Y-23573000D02*
X75945000Y-24738000D01*
X75985000Y-20740000D02*
X75985000Y-21893000D01*
X75985000Y-23573000D02*
X75985000Y-24726000D01*
X76025000Y-20752000D02*
X76025000Y-21893000D01*
X76025000Y-23573000D02*
X76025000Y-24714000D01*
X76065000Y-20765000D02*
X76065000Y-21893000D01*
X76065000Y-23573000D02*
X76065000Y-24701000D01*
X76105000Y-20779000D02*
X76105000Y-21893000D01*
X76105000Y-23573000D02*
X76105000Y-24687000D01*
X76145000Y-20794000D02*
X76145000Y-21893000D01*
X76145000Y-23573000D02*
X76145000Y-24672000D01*
X76185000Y-20810000D02*
X76185000Y-21893000D01*
X76185000Y-23573000D02*
X76185000Y-24656000D01*
X76225000Y-20827000D02*
X76225000Y-21893000D01*
X76225000Y-23573000D02*
X76225000Y-24639000D01*
X76265000Y-20844000D02*
X76265000Y-21893000D01*
X76265000Y-23573000D02*
X76265000Y-24622000D01*
X76305000Y-20863000D02*
X76305000Y-21893000D01*
X76305000Y-23573000D02*
X76305000Y-24603000D01*
X76345000Y-20883000D02*
X76345000Y-21893000D01*
X76345000Y-23573000D02*
X76345000Y-24583000D01*
X76385000Y-20904000D02*
X76385000Y-21893000D01*
X76385000Y-23573000D02*
X76385000Y-24562000D01*
X76425000Y-20926000D02*
X76425000Y-21893000D01*
X76425000Y-23573000D02*
X76425000Y-24540000D01*
X76465000Y-20949000D02*
X76465000Y-21893000D01*
X76465000Y-23573000D02*
X76465000Y-24517000D01*
X76505000Y-20973000D02*
X76505000Y-21893000D01*
X76505000Y-23573000D02*
X76505000Y-24493000D01*
X76545000Y-20999000D02*
X76545000Y-21893000D01*
X76545000Y-23573000D02*
X76545000Y-24467000D01*
X76585000Y-21025000D02*
X76585000Y-21893000D01*
X76585000Y-23573000D02*
X76585000Y-24441000D01*
X76625000Y-21053000D02*
X76625000Y-21893000D01*
X76625000Y-23573000D02*
X76625000Y-24413000D01*
X76665000Y-21083000D02*
X76665000Y-21893000D01*
X76665000Y-23573000D02*
X76665000Y-24383000D01*
X76705000Y-21114000D02*
X76705000Y-21893000D01*
X76705000Y-23573000D02*
X76705000Y-24352000D01*
X76745000Y-21147000D02*
X76745000Y-21893000D01*
X76745000Y-23573000D02*
X76745000Y-24319000D01*
X76785000Y-21181000D02*
X76785000Y-21893000D01*
X76785000Y-23573000D02*
X76785000Y-24285000D01*
X76825000Y-21217000D02*
X76825000Y-21893000D01*
X76825000Y-23573000D02*
X76825000Y-24249000D01*
X76865000Y-21255000D02*
X76865000Y-21893000D01*
X76865000Y-23573000D02*
X76865000Y-24211000D01*
X76905000Y-21295000D02*
X76905000Y-21893000D01*
X76905000Y-23573000D02*
X76905000Y-24171000D01*
X76945000Y-21337000D02*
X76945000Y-21893000D01*
X76945000Y-23573000D02*
X76945000Y-24129000D01*
X76985000Y-21382000D02*
X76985000Y-21893000D01*
X76985000Y-23573000D02*
X76985000Y-24084000D01*
X77025000Y-21430000D02*
X77025000Y-21893000D01*
X77025000Y-23573000D02*
X77025000Y-24036000D01*
X77065000Y-21480000D02*
X77065000Y-21893000D01*
X77065000Y-23573000D02*
X77065000Y-23986000D01*
X77105000Y-21534000D02*
X77105000Y-21893000D01*
X77105000Y-23573000D02*
X77105000Y-23932000D01*
X77145000Y-21591000D02*
X77145000Y-21893000D01*
X77145000Y-23573000D02*
X77145000Y-23875000D01*
X77185000Y-21653000D02*
X77185000Y-21893000D01*
X77185000Y-23573000D02*
X77185000Y-23813000D01*
X77225000Y-21720000D02*
X77225000Y-23746000D01*
X77265000Y-21793000D02*
X77265000Y-23673000D01*
X77305000Y-21874000D02*
X77305000Y-23592000D01*
X77345000Y-21965000D02*
X77345000Y-23501000D01*
X77385000Y-22070000D02*
X77385000Y-23396000D01*
X77425000Y-22196000D02*
X77425000Y-23270000D01*
X77465000Y-22363000D02*
X77465000Y-23103000D01*
X77505000Y-22733000D02*
G75*
G02*
X73265000Y-22733000I-2120000J0D01*
G01*
X73265000Y-22733000D02*
G75*
G02*
X77505000Y-22733000I2120000J0D01*
G01*
%TO.C,C14*%
X52813302Y-28975000D02*
X53613302Y-28975000D01*
X53213302Y-28575000D02*
X53213302Y-29375000D01*
X57223000Y-27210000D02*
X57223000Y-35370000D01*
X57263000Y-27210000D02*
X57263000Y-35370000D01*
X57303000Y-27211000D02*
X57303000Y-35369000D01*
X57343000Y-27212000D02*
X57343000Y-35368000D01*
X57383000Y-27213000D02*
X57383000Y-35367000D01*
X57423000Y-27215000D02*
X57423000Y-35365000D01*
X57463000Y-27217000D02*
X57463000Y-35363000D01*
X57503000Y-27220000D02*
X57503000Y-35360000D01*
X57543000Y-27222000D02*
X57543000Y-35358000D01*
X57583000Y-27226000D02*
X57583000Y-35354000D01*
X57623000Y-27229000D02*
X57623000Y-35351000D01*
X57663000Y-27234000D02*
X57663000Y-35346000D01*
X57703000Y-27238000D02*
X57703000Y-35342000D01*
X57743000Y-27243000D02*
X57743000Y-35337000D01*
X57783000Y-27248000D02*
X57783000Y-35332000D01*
X57823000Y-27254000D02*
X57823000Y-35326000D01*
X57863000Y-27260000D02*
X57863000Y-35320000D01*
X57903000Y-27267000D02*
X57903000Y-35313000D01*
X57943000Y-27273000D02*
X57943000Y-30250000D01*
X57943000Y-32330000D02*
X57943000Y-35307000D01*
X57983000Y-27281000D02*
X57983000Y-30250000D01*
X57983000Y-32330000D02*
X57983000Y-35299000D01*
X58023000Y-27288000D02*
X58023000Y-30250000D01*
X58023000Y-32330000D02*
X58023000Y-35292000D01*
X58063000Y-27297000D02*
X58063000Y-30250000D01*
X58063000Y-32330000D02*
X58063000Y-35283000D01*
X58103000Y-27305000D02*
X58103000Y-30250000D01*
X58103000Y-32330000D02*
X58103000Y-35275000D01*
X58143000Y-27314000D02*
X58143000Y-30250000D01*
X58143000Y-32330000D02*
X58143000Y-35266000D01*
X58183000Y-27323000D02*
X58183000Y-30250000D01*
X58183000Y-32330000D02*
X58183000Y-35257000D01*
X58223000Y-27333000D02*
X58223000Y-30250000D01*
X58223000Y-32330000D02*
X58223000Y-35247000D01*
X58263000Y-27343000D02*
X58263000Y-30250000D01*
X58263000Y-32330000D02*
X58263000Y-35237000D01*
X58303000Y-27354000D02*
X58303000Y-30250000D01*
X58303000Y-32330000D02*
X58303000Y-35226000D01*
X58343000Y-27365000D02*
X58343000Y-30250000D01*
X58343000Y-32330000D02*
X58343000Y-35215000D01*
X58383000Y-27377000D02*
X58383000Y-30250000D01*
X58383000Y-32330000D02*
X58383000Y-35203000D01*
X58423000Y-27389000D02*
X58423000Y-30250000D01*
X58423000Y-32330000D02*
X58423000Y-35191000D01*
X58463000Y-27401000D02*
X58463000Y-30250000D01*
X58463000Y-32330000D02*
X58463000Y-35179000D01*
X58503000Y-27414000D02*
X58503000Y-30250000D01*
X58503000Y-32330000D02*
X58503000Y-35166000D01*
X58543000Y-27427000D02*
X58543000Y-30250000D01*
X58543000Y-32330000D02*
X58543000Y-35153000D01*
X58583000Y-27441000D02*
X58583000Y-30250000D01*
X58583000Y-32330000D02*
X58583000Y-35139000D01*
X58623000Y-27455000D02*
X58623000Y-30250000D01*
X58623000Y-32330000D02*
X58623000Y-35125000D01*
X58663000Y-27470000D02*
X58663000Y-30250000D01*
X58663000Y-32330000D02*
X58663000Y-35110000D01*
X58703000Y-27485000D02*
X58703000Y-30250000D01*
X58703000Y-32330000D02*
X58703000Y-35095000D01*
X58743000Y-27501000D02*
X58743000Y-30250000D01*
X58743000Y-32330000D02*
X58743000Y-35079000D01*
X58783000Y-27517000D02*
X58783000Y-30250000D01*
X58783000Y-32330000D02*
X58783000Y-35063000D01*
X58823000Y-27533000D02*
X58823000Y-30250000D01*
X58823000Y-32330000D02*
X58823000Y-35047000D01*
X58863000Y-27550000D02*
X58863000Y-30250000D01*
X58863000Y-32330000D02*
X58863000Y-35030000D01*
X58903000Y-27568000D02*
X58903000Y-30250000D01*
X58903000Y-32330000D02*
X58903000Y-35012000D01*
X58943000Y-27586000D02*
X58943000Y-30250000D01*
X58943000Y-32330000D02*
X58943000Y-34994000D01*
X58983000Y-27605000D02*
X58983000Y-30250000D01*
X58983000Y-32330000D02*
X58983000Y-34975000D01*
X59023000Y-27624000D02*
X59023000Y-30250000D01*
X59023000Y-32330000D02*
X59023000Y-34956000D01*
X59063000Y-27644000D02*
X59063000Y-30250000D01*
X59063000Y-32330000D02*
X59063000Y-34936000D01*
X59103000Y-27664000D02*
X59103000Y-30250000D01*
X59103000Y-32330000D02*
X59103000Y-34916000D01*
X59143000Y-27685000D02*
X59143000Y-30250000D01*
X59143000Y-32330000D02*
X59143000Y-34895000D01*
X59183000Y-27706000D02*
X59183000Y-30250000D01*
X59183000Y-32330000D02*
X59183000Y-34874000D01*
X59223000Y-27728000D02*
X59223000Y-30250000D01*
X59223000Y-32330000D02*
X59223000Y-34852000D01*
X59263000Y-27751000D02*
X59263000Y-30250000D01*
X59263000Y-32330000D02*
X59263000Y-34829000D01*
X59303000Y-27774000D02*
X59303000Y-30250000D01*
X59303000Y-32330000D02*
X59303000Y-34806000D01*
X59343000Y-27797000D02*
X59343000Y-30250000D01*
X59343000Y-32330000D02*
X59343000Y-34783000D01*
X59383000Y-27822000D02*
X59383000Y-30250000D01*
X59383000Y-32330000D02*
X59383000Y-34758000D01*
X59423000Y-27847000D02*
X59423000Y-30250000D01*
X59423000Y-32330000D02*
X59423000Y-34733000D01*
X59463000Y-27872000D02*
X59463000Y-30250000D01*
X59463000Y-32330000D02*
X59463000Y-34708000D01*
X59503000Y-27898000D02*
X59503000Y-30250000D01*
X59503000Y-32330000D02*
X59503000Y-34682000D01*
X59543000Y-27925000D02*
X59543000Y-30250000D01*
X59543000Y-32330000D02*
X59543000Y-34655000D01*
X59583000Y-27953000D02*
X59583000Y-30250000D01*
X59583000Y-32330000D02*
X59583000Y-34627000D01*
X59623000Y-27981000D02*
X59623000Y-30250000D01*
X59623000Y-32330000D02*
X59623000Y-34599000D01*
X59663000Y-28010000D02*
X59663000Y-30250000D01*
X59663000Y-32330000D02*
X59663000Y-34570000D01*
X59703000Y-28040000D02*
X59703000Y-30250000D01*
X59703000Y-32330000D02*
X59703000Y-34540000D01*
X59743000Y-28071000D02*
X59743000Y-30250000D01*
X59743000Y-32330000D02*
X59743000Y-34509000D01*
X59783000Y-28102000D02*
X59783000Y-30250000D01*
X59783000Y-32330000D02*
X59783000Y-34478000D01*
X59823000Y-28134000D02*
X59823000Y-30250000D01*
X59823000Y-32330000D02*
X59823000Y-34446000D01*
X59863000Y-28167000D02*
X59863000Y-30250000D01*
X59863000Y-32330000D02*
X59863000Y-34413000D01*
X59903000Y-28201000D02*
X59903000Y-30250000D01*
X59903000Y-32330000D02*
X59903000Y-34379000D01*
X59943000Y-28235000D02*
X59943000Y-30250000D01*
X59943000Y-32330000D02*
X59943000Y-34345000D01*
X59983000Y-28271000D02*
X59983000Y-30250000D01*
X59983000Y-32330000D02*
X59983000Y-34309000D01*
X60023000Y-28308000D02*
X60023000Y-34272000D01*
X60063000Y-28345000D02*
X60063000Y-34235000D01*
X60103000Y-28384000D02*
X60103000Y-34196000D01*
X60143000Y-28423000D02*
X60143000Y-34157000D01*
X60183000Y-28464000D02*
X60183000Y-34116000D01*
X60223000Y-28506000D02*
X60223000Y-34074000D01*
X60263000Y-28549000D02*
X60263000Y-34031000D01*
X60303000Y-28594000D02*
X60303000Y-33986000D01*
X60343000Y-28639000D02*
X60343000Y-33941000D01*
X60383000Y-28686000D02*
X60383000Y-33894000D01*
X60423000Y-28735000D02*
X60423000Y-33845000D01*
X60463000Y-28785000D02*
X60463000Y-33795000D01*
X60503000Y-28837000D02*
X60503000Y-33743000D01*
X60543000Y-28890000D02*
X60543000Y-33690000D01*
X60583000Y-28946000D02*
X60583000Y-33634000D01*
X60623000Y-29003000D02*
X60623000Y-33577000D01*
X60663000Y-29063000D02*
X60663000Y-33517000D01*
X60703000Y-29125000D02*
X60703000Y-33455000D01*
X60743000Y-29189000D02*
X60743000Y-33391000D01*
X60783000Y-29256000D02*
X60783000Y-33324000D01*
X60823000Y-29326000D02*
X60823000Y-33254000D01*
X60863000Y-29400000D02*
X60863000Y-33180000D01*
X60903000Y-29477000D02*
X60903000Y-33103000D01*
X60943000Y-29559000D02*
X60943000Y-33021000D01*
X60983000Y-29646000D02*
X60983000Y-32934000D01*
X61023000Y-29738000D02*
X61023000Y-32842000D01*
X61063000Y-29837000D02*
X61063000Y-32743000D01*
X61103000Y-29944000D02*
X61103000Y-32636000D01*
X61143000Y-30062000D02*
X61143000Y-32518000D01*
X61183000Y-30193000D02*
X61183000Y-32387000D01*
X61223000Y-30343000D02*
X61223000Y-32237000D01*
X61263000Y-30522000D02*
X61263000Y-32058000D01*
X61303000Y-30757000D02*
X61303000Y-31823000D01*
X61343000Y-31290000D02*
G75*
G02*
X53103000Y-31290000I-4120000J0D01*
G01*
X53103000Y-31290000D02*
G75*
G02*
X61343000Y-31290000I4120000J0D01*
G01*
%TO.C,C26*%
X14442959Y-35487000D02*
X15692959Y-35487000D01*
X15067959Y-34862000D02*
X15067959Y-36112000D01*
X21260041Y-32732000D02*
X21260041Y-45392000D01*
X21300041Y-32732000D02*
X21300041Y-45392000D01*
X21340041Y-32733000D02*
X21340041Y-45391000D01*
X21380041Y-32733000D02*
X21380041Y-45391000D01*
X21420041Y-32734000D02*
X21420041Y-45390000D01*
X21460041Y-32735000D02*
X21460041Y-45389000D01*
X21500041Y-32737000D02*
X21500041Y-45387000D01*
X21540041Y-32738000D02*
X21540041Y-45386000D01*
X21580041Y-32740000D02*
X21580041Y-45384000D01*
X21620041Y-32742000D02*
X21620041Y-45382000D01*
X21660041Y-32745000D02*
X21660041Y-45379000D01*
X21700041Y-32747000D02*
X21700041Y-45377000D01*
X21740041Y-32750000D02*
X21740041Y-45374000D01*
X21780041Y-32753000D02*
X21780041Y-45371000D01*
X21820041Y-32757000D02*
X21820041Y-45367000D01*
X21860041Y-32760000D02*
X21860041Y-45364000D01*
X21900041Y-32764000D02*
X21900041Y-45360000D01*
X21940041Y-32768000D02*
X21940041Y-45356000D01*
X21980041Y-32773000D02*
X21980041Y-45351000D01*
X22020041Y-32778000D02*
X22020041Y-45346000D01*
X22060041Y-32782000D02*
X22060041Y-45342000D01*
X22100041Y-32788000D02*
X22100041Y-45336000D01*
X22140041Y-32793000D02*
X22140041Y-45331000D01*
X22180041Y-32799000D02*
X22180041Y-45325000D01*
X22220041Y-32805000D02*
X22220041Y-45319000D01*
X22260041Y-32811000D02*
X22260041Y-45313000D01*
X22300041Y-32817000D02*
X22300041Y-45307000D01*
X22340041Y-32824000D02*
X22340041Y-37622000D01*
X22340041Y-40502000D02*
X22340041Y-45300000D01*
X22380041Y-32831000D02*
X22380041Y-37622000D01*
X22380041Y-40502000D02*
X22380041Y-45293000D01*
X22420041Y-32839000D02*
X22420041Y-37622000D01*
X22420041Y-40502000D02*
X22420041Y-45285000D01*
X22460041Y-32846000D02*
X22460041Y-37622000D01*
X22460041Y-40502000D02*
X22460041Y-45278000D01*
X22500041Y-32854000D02*
X22500041Y-37622000D01*
X22500041Y-40502000D02*
X22500041Y-45270000D01*
X22540041Y-32862000D02*
X22540041Y-37622000D01*
X22540041Y-40502000D02*
X22540041Y-45262000D01*
X22580041Y-32870000D02*
X22580041Y-37622000D01*
X22580041Y-40502000D02*
X22580041Y-45254000D01*
X22620041Y-32879000D02*
X22620041Y-37622000D01*
X22620041Y-40502000D02*
X22620041Y-45245000D01*
X22660041Y-32888000D02*
X22660041Y-37622000D01*
X22660041Y-40502000D02*
X22660041Y-45236000D01*
X22700041Y-32897000D02*
X22700041Y-37622000D01*
X22700041Y-40502000D02*
X22700041Y-45227000D01*
X22740041Y-32906000D02*
X22740041Y-37622000D01*
X22740041Y-40502000D02*
X22740041Y-45218000D01*
X22780041Y-32916000D02*
X22780041Y-37622000D01*
X22780041Y-40502000D02*
X22780041Y-45208000D01*
X22820041Y-32926000D02*
X22820041Y-37622000D01*
X22820041Y-40502000D02*
X22820041Y-45198000D01*
X22860041Y-32936000D02*
X22860041Y-37622000D01*
X22860041Y-40502000D02*
X22860041Y-45188000D01*
X22900041Y-32947000D02*
X22900041Y-37622000D01*
X22900041Y-40502000D02*
X22900041Y-45177000D01*
X22940041Y-32958000D02*
X22940041Y-37622000D01*
X22940041Y-40502000D02*
X22940041Y-45166000D01*
X22980041Y-32969000D02*
X22980041Y-37622000D01*
X22980041Y-40502000D02*
X22980041Y-45155000D01*
X23020041Y-32980000D02*
X23020041Y-37622000D01*
X23020041Y-40502000D02*
X23020041Y-45144000D01*
X23060041Y-32992000D02*
X23060041Y-37622000D01*
X23060041Y-40502000D02*
X23060041Y-45132000D01*
X23100041Y-33004000D02*
X23100041Y-37622000D01*
X23100041Y-40502000D02*
X23100041Y-45120000D01*
X23140041Y-33016000D02*
X23140041Y-37622000D01*
X23140041Y-40502000D02*
X23140041Y-45108000D01*
X23180041Y-33028000D02*
X23180041Y-37622000D01*
X23180041Y-40502000D02*
X23180041Y-45096000D01*
X23220041Y-33041000D02*
X23220041Y-37622000D01*
X23220041Y-40502000D02*
X23220041Y-45083000D01*
X23260041Y-33054000D02*
X23260041Y-37622000D01*
X23260041Y-40502000D02*
X23260041Y-45070000D01*
X23300041Y-33067000D02*
X23300041Y-37622000D01*
X23300041Y-40502000D02*
X23300041Y-45057000D01*
X23340041Y-33081000D02*
X23340041Y-37622000D01*
X23340041Y-40502000D02*
X23340041Y-45043000D01*
X23380041Y-33095000D02*
X23380041Y-37622000D01*
X23380041Y-40502000D02*
X23380041Y-45029000D01*
X23420041Y-33109000D02*
X23420041Y-37622000D01*
X23420041Y-40502000D02*
X23420041Y-45015000D01*
X23460041Y-33124000D02*
X23460041Y-37622000D01*
X23460041Y-40502000D02*
X23460041Y-45000000D01*
X23500041Y-33139000D02*
X23500041Y-37622000D01*
X23500041Y-40502000D02*
X23500041Y-44985000D01*
X23540041Y-33154000D02*
X23540041Y-37622000D01*
X23540041Y-40502000D02*
X23540041Y-44970000D01*
X23580041Y-33170000D02*
X23580041Y-37622000D01*
X23580041Y-40502000D02*
X23580041Y-44954000D01*
X23620041Y-33185000D02*
X23620041Y-37622000D01*
X23620041Y-40502000D02*
X23620041Y-44939000D01*
X23660041Y-33201000D02*
X23660041Y-37622000D01*
X23660041Y-40502000D02*
X23660041Y-44923000D01*
X23700041Y-33218000D02*
X23700041Y-37622000D01*
X23700041Y-40502000D02*
X23700041Y-44906000D01*
X23740041Y-33235000D02*
X23740041Y-37622000D01*
X23740041Y-40502000D02*
X23740041Y-44889000D01*
X23780041Y-33252000D02*
X23780041Y-37622000D01*
X23780041Y-40502000D02*
X23780041Y-44872000D01*
X23820041Y-33269000D02*
X23820041Y-37622000D01*
X23820041Y-40502000D02*
X23820041Y-44855000D01*
X23860041Y-33287000D02*
X23860041Y-37622000D01*
X23860041Y-40502000D02*
X23860041Y-44837000D01*
X23900041Y-33305000D02*
X23900041Y-37622000D01*
X23900041Y-40502000D02*
X23900041Y-44819000D01*
X23940041Y-33323000D02*
X23940041Y-37622000D01*
X23940041Y-40502000D02*
X23940041Y-44801000D01*
X23980041Y-33342000D02*
X23980041Y-37622000D01*
X23980041Y-40502000D02*
X23980041Y-44782000D01*
X24020041Y-33361000D02*
X24020041Y-37622000D01*
X24020041Y-40502000D02*
X24020041Y-44763000D01*
X24060041Y-33380000D02*
X24060041Y-37622000D01*
X24060041Y-40502000D02*
X24060041Y-44744000D01*
X24100041Y-33400000D02*
X24100041Y-37622000D01*
X24100041Y-40502000D02*
X24100041Y-44724000D01*
X24140041Y-33420000D02*
X24140041Y-37622000D01*
X24140041Y-40502000D02*
X24140041Y-44704000D01*
X24180041Y-33441000D02*
X24180041Y-37622000D01*
X24180041Y-40502000D02*
X24180041Y-44683000D01*
X24220041Y-33461000D02*
X24220041Y-37622000D01*
X24220041Y-40502000D02*
X24220041Y-44663000D01*
X24260041Y-33483000D02*
X24260041Y-37622000D01*
X24260041Y-40502000D02*
X24260041Y-44641000D01*
X24300041Y-33504000D02*
X24300041Y-37622000D01*
X24300041Y-40502000D02*
X24300041Y-44620000D01*
X24340041Y-33526000D02*
X24340041Y-37622000D01*
X24340041Y-40502000D02*
X24340041Y-44598000D01*
X24380041Y-33548000D02*
X24380041Y-37622000D01*
X24380041Y-40502000D02*
X24380041Y-44576000D01*
X24420041Y-33571000D02*
X24420041Y-37622000D01*
X24420041Y-40502000D02*
X24420041Y-44553000D01*
X24460041Y-33594000D02*
X24460041Y-37622000D01*
X24460041Y-40502000D02*
X24460041Y-44530000D01*
X24500041Y-33618000D02*
X24500041Y-37622000D01*
X24500041Y-40502000D02*
X24500041Y-44506000D01*
X24540041Y-33641000D02*
X24540041Y-37622000D01*
X24540041Y-40502000D02*
X24540041Y-44483000D01*
X24580041Y-33666000D02*
X24580041Y-37622000D01*
X24580041Y-40502000D02*
X24580041Y-44458000D01*
X24620041Y-33690000D02*
X24620041Y-37622000D01*
X24620041Y-40502000D02*
X24620041Y-44434000D01*
X24660041Y-33715000D02*
X24660041Y-37622000D01*
X24660041Y-40502000D02*
X24660041Y-44409000D01*
X24700041Y-33741000D02*
X24700041Y-37622000D01*
X24700041Y-40502000D02*
X24700041Y-44383000D01*
X24740041Y-33767000D02*
X24740041Y-37622000D01*
X24740041Y-40502000D02*
X24740041Y-44357000D01*
X24780041Y-33793000D02*
X24780041Y-37622000D01*
X24780041Y-40502000D02*
X24780041Y-44331000D01*
X24820041Y-33820000D02*
X24820041Y-37622000D01*
X24820041Y-40502000D02*
X24820041Y-44304000D01*
X24860041Y-33847000D02*
X24860041Y-37622000D01*
X24860041Y-40502000D02*
X24860041Y-44277000D01*
X24900041Y-33874000D02*
X24900041Y-37622000D01*
X24900041Y-40502000D02*
X24900041Y-44250000D01*
X24940041Y-33903000D02*
X24940041Y-37622000D01*
X24940041Y-40502000D02*
X24940041Y-44221000D01*
X24980041Y-33931000D02*
X24980041Y-37622000D01*
X24980041Y-40502000D02*
X24980041Y-44193000D01*
X25020041Y-33960000D02*
X25020041Y-37622000D01*
X25020041Y-40502000D02*
X25020041Y-44164000D01*
X25060041Y-33990000D02*
X25060041Y-37622000D01*
X25060041Y-40502000D02*
X25060041Y-44134000D01*
X25100041Y-34020000D02*
X25100041Y-37622000D01*
X25100041Y-40502000D02*
X25100041Y-44104000D01*
X25140041Y-34050000D02*
X25140041Y-37622000D01*
X25140041Y-40502000D02*
X25140041Y-44074000D01*
X25180041Y-34081000D02*
X25180041Y-37622000D01*
X25180041Y-40502000D02*
X25180041Y-44043000D01*
X25220041Y-34112000D02*
X25220041Y-44012000D01*
X25260041Y-34144000D02*
X25260041Y-43980000D01*
X25300041Y-34177000D02*
X25300041Y-43947000D01*
X25340041Y-34210000D02*
X25340041Y-43914000D01*
X25380041Y-34244000D02*
X25380041Y-43880000D01*
X25420041Y-34278000D02*
X25420041Y-43846000D01*
X25460041Y-34313000D02*
X25460041Y-43811000D01*
X25500041Y-34348000D02*
X25500041Y-43776000D01*
X25540041Y-34384000D02*
X25540041Y-43740000D01*
X25580041Y-34421000D02*
X25580041Y-43703000D01*
X25620041Y-34458000D02*
X25620041Y-43666000D01*
X25660041Y-34496000D02*
X25660041Y-43628000D01*
X25700041Y-34534000D02*
X25700041Y-43590000D01*
X25740041Y-34574000D02*
X25740041Y-43550000D01*
X25780041Y-34614000D02*
X25780041Y-43510000D01*
X25820041Y-34654000D02*
X25820041Y-43470000D01*
X25860041Y-34696000D02*
X25860041Y-43428000D01*
X25900041Y-34738000D02*
X25900041Y-43386000D01*
X25940041Y-34781000D02*
X25940041Y-43343000D01*
X25980041Y-34824000D02*
X25980041Y-43300000D01*
X26020041Y-34869000D02*
X26020041Y-43255000D01*
X26060041Y-34914000D02*
X26060041Y-43210000D01*
X26100041Y-34961000D02*
X26100041Y-43163000D01*
X26140041Y-35008000D02*
X26140041Y-43116000D01*
X26180041Y-35056000D02*
X26180041Y-43068000D01*
X26220041Y-35105000D02*
X26220041Y-43019000D01*
X26260041Y-35155000D02*
X26260041Y-42969000D01*
X26300041Y-35206000D02*
X26300041Y-42918000D01*
X26340041Y-35259000D02*
X26340041Y-42865000D01*
X26380041Y-35312000D02*
X26380041Y-42812000D01*
X26420041Y-35367000D02*
X26420041Y-42757000D01*
X26460041Y-35423000D02*
X26460041Y-42701000D01*
X26500041Y-35480000D02*
X26500041Y-42644000D01*
X26540041Y-35539000D02*
X26540041Y-42585000D01*
X26580041Y-35599000D02*
X26580041Y-42525000D01*
X26620041Y-35660000D02*
X26620041Y-42464000D01*
X26660041Y-35723000D02*
X26660041Y-42401000D01*
X26700041Y-35788000D02*
X26700041Y-42336000D01*
X26740041Y-35854000D02*
X26740041Y-42270000D01*
X26780041Y-35923000D02*
X26780041Y-42201000D01*
X26820041Y-35993000D02*
X26820041Y-42131000D01*
X26860041Y-36066000D02*
X26860041Y-42058000D01*
X26900041Y-36141000D02*
X26900041Y-41983000D01*
X26940041Y-36219000D02*
X26940041Y-41905000D01*
X26980041Y-36299000D02*
X26980041Y-41825000D01*
X27020041Y-36382000D02*
X27020041Y-41742000D01*
X27060041Y-36468000D02*
X27060041Y-41656000D01*
X27100041Y-36558000D02*
X27100041Y-41566000D01*
X27140041Y-36652000D02*
X27140041Y-41472000D01*
X27180041Y-36750000D02*
X27180041Y-41374000D01*
X27220041Y-36854000D02*
X27220041Y-41270000D01*
X27260041Y-36963000D02*
X27260041Y-41161000D01*
X27300041Y-37078000D02*
X27300041Y-41046000D01*
X27340041Y-37202000D02*
X27340041Y-40922000D01*
X27380041Y-37335000D02*
X27380041Y-40789000D01*
X27420041Y-37480000D02*
X27420041Y-40644000D01*
X27460041Y-37640000D02*
X27460041Y-40484000D01*
X27500041Y-37822000D02*
X27500041Y-40302000D01*
X27540041Y-38035000D02*
X27540041Y-40089000D01*
X27580041Y-38305000D02*
X27580041Y-39819000D01*
X27620041Y-38745000D02*
X27620041Y-39379000D01*
X27630041Y-39062000D02*
G75*
G02*
X14890041Y-39062000I-6370000J0D01*
G01*
X14890041Y-39062000D02*
G75*
G02*
X27630041Y-39062000I6370000J0D01*
G01*
%TO.C,D1*%
X50335864Y-35245332D02*
X44825864Y-35245332D01*
X50335864Y-38545332D02*
X44825864Y-38545332D01*
X50335864Y-38545332D02*
X50335864Y-35245332D01*
%TO.C,L2*%
X87116000Y-36094000D02*
X93706000Y-36094000D01*
X87116000Y-41782000D02*
X87116000Y-36094000D01*
X87116000Y-50304000D02*
X87116000Y-44616000D01*
X87116000Y-50304000D02*
X93706000Y-50304000D01*
X93706000Y-41782000D02*
X93706000Y-36094000D01*
X93706000Y-50304000D02*
X93706000Y-44616000D01*
%TO.C,C15*%
X54272000Y-21455000D02*
X49474000Y-21455000D01*
X54272000Y-21495000D02*
X49481000Y-21495000D01*
X54272000Y-21535000D02*
X49489000Y-21535000D01*
X54272000Y-21575000D02*
X49496000Y-21575000D01*
X54272000Y-21615000D02*
X49504000Y-21615000D01*
X54272000Y-21655000D02*
X49512000Y-21655000D01*
X54272000Y-21695000D02*
X49520000Y-21695000D01*
X54272000Y-21735000D02*
X49529000Y-21735000D01*
X54272000Y-21775000D02*
X49538000Y-21775000D01*
X54272000Y-21815000D02*
X49547000Y-21815000D01*
X54272000Y-21855000D02*
X49556000Y-21855000D01*
X54272000Y-21895000D02*
X49566000Y-21895000D01*
X54272000Y-21935000D02*
X49576000Y-21935000D01*
X54272000Y-21975000D02*
X49586000Y-21975000D01*
X54272000Y-22015000D02*
X49597000Y-22015000D01*
X54272000Y-22055000D02*
X49608000Y-22055000D01*
X54272000Y-22095000D02*
X49619000Y-22095000D01*
X54272000Y-22135000D02*
X49630000Y-22135000D01*
X54272000Y-22175000D02*
X49642000Y-22175000D01*
X54272000Y-22215000D02*
X49654000Y-22215000D01*
X54272000Y-22255000D02*
X49666000Y-22255000D01*
X54272000Y-22295000D02*
X49678000Y-22295000D01*
X54272000Y-22335000D02*
X49691000Y-22335000D01*
X54272000Y-22375000D02*
X49704000Y-22375000D01*
X54272000Y-22415000D02*
X49717000Y-22415000D01*
X54272000Y-22455000D02*
X49731000Y-22455000D01*
X54272000Y-22495000D02*
X49745000Y-22495000D01*
X54272000Y-22535000D02*
X49759000Y-22535000D01*
X54272000Y-22575000D02*
X49774000Y-22575000D01*
X54272000Y-22615000D02*
X49789000Y-22615000D01*
X54272000Y-22655000D02*
X49804000Y-22655000D01*
X54272000Y-22695000D02*
X49820000Y-22695000D01*
X54272000Y-22735000D02*
X49835000Y-22735000D01*
X54272000Y-22775000D02*
X49851000Y-22775000D01*
X54272000Y-22815000D02*
X49868000Y-22815000D01*
X54272000Y-22855000D02*
X49885000Y-22855000D01*
X54272000Y-22895000D02*
X49902000Y-22895000D01*
X54272000Y-22935000D02*
X49919000Y-22935000D01*
X54272000Y-22975000D02*
X49937000Y-22975000D01*
X54272000Y-23015000D02*
X49955000Y-23015000D01*
X54272000Y-23055000D02*
X49973000Y-23055000D01*
X54272000Y-23095000D02*
X49992000Y-23095000D01*
X54272000Y-23135000D02*
X50011000Y-23135000D01*
X54272000Y-23175000D02*
X50030000Y-23175000D01*
X54272000Y-23215000D02*
X50050000Y-23215000D01*
X54272000Y-23255000D02*
X50070000Y-23255000D01*
X54272000Y-23295000D02*
X50091000Y-23295000D01*
X54272000Y-23335000D02*
X50111000Y-23335000D01*
X54272000Y-23375000D02*
X50133000Y-23375000D01*
X54272000Y-23415000D02*
X50154000Y-23415000D01*
X54272000Y-23455000D02*
X50176000Y-23455000D01*
X54272000Y-23495000D02*
X50198000Y-23495000D01*
X54272000Y-23535000D02*
X50221000Y-23535000D01*
X54272000Y-23575000D02*
X50244000Y-23575000D01*
X54272000Y-23615000D02*
X50268000Y-23615000D01*
X54272000Y-23655000D02*
X50291000Y-23655000D01*
X54272000Y-23695000D02*
X50316000Y-23695000D01*
X54272000Y-23735000D02*
X50340000Y-23735000D01*
X54272000Y-23775000D02*
X50365000Y-23775000D01*
X54272000Y-23815000D02*
X50391000Y-23815000D01*
X54272000Y-23855000D02*
X50417000Y-23855000D01*
X54272000Y-23895000D02*
X50443000Y-23895000D01*
X54272000Y-23935000D02*
X50470000Y-23935000D01*
X54272000Y-23975000D02*
X50497000Y-23975000D01*
X54272000Y-24015000D02*
X50524000Y-24015000D01*
X54272000Y-24055000D02*
X50553000Y-24055000D01*
X54272000Y-24095000D02*
X50581000Y-24095000D01*
X54272000Y-24135000D02*
X50610000Y-24135000D01*
X54272000Y-24175000D02*
X50640000Y-24175000D01*
X54272000Y-24215000D02*
X50670000Y-24215000D01*
X54272000Y-24255000D02*
X50700000Y-24255000D01*
X54272000Y-24295000D02*
X50731000Y-24295000D01*
X56029000Y-26735000D02*
X55395000Y-26735000D01*
X56469000Y-26695000D02*
X54955000Y-26695000D01*
X56739000Y-26655000D02*
X54685000Y-26655000D01*
X56952000Y-26615000D02*
X54472000Y-26615000D01*
X57134000Y-26575000D02*
X54290000Y-26575000D01*
X57294000Y-26535000D02*
X54130000Y-26535000D01*
X57439000Y-26495000D02*
X53985000Y-26495000D01*
X57572000Y-26455000D02*
X53852000Y-26455000D01*
X57696000Y-26415000D02*
X53728000Y-26415000D01*
X57811000Y-26375000D02*
X53613000Y-26375000D01*
X57920000Y-26335000D02*
X53504000Y-26335000D01*
X58024000Y-26295000D02*
X53400000Y-26295000D01*
X58122000Y-26255000D02*
X53302000Y-26255000D01*
X58216000Y-26215000D02*
X53208000Y-26215000D01*
X58306000Y-26175000D02*
X53118000Y-26175000D01*
X58392000Y-26135000D02*
X53032000Y-26135000D01*
X58475000Y-26095000D02*
X52949000Y-26095000D01*
X58555000Y-26055000D02*
X52869000Y-26055000D01*
X58633000Y-26015000D02*
X52791000Y-26015000D01*
X58708000Y-25975000D02*
X52716000Y-25975000D01*
X58781000Y-25935000D02*
X52643000Y-25935000D01*
X58851000Y-25895000D02*
X52573000Y-25895000D01*
X58920000Y-25855000D02*
X52504000Y-25855000D01*
X58986000Y-25815000D02*
X52438000Y-25815000D01*
X59051000Y-25775000D02*
X52373000Y-25775000D01*
X59114000Y-25735000D02*
X52310000Y-25735000D01*
X59175000Y-25695000D02*
X52249000Y-25695000D01*
X59235000Y-25655000D02*
X52189000Y-25655000D01*
X59287000Y-13557918D02*
X59287000Y-14807918D01*
X59294000Y-25615000D02*
X52130000Y-25615000D01*
X59351000Y-25575000D02*
X52073000Y-25575000D01*
X59407000Y-25535000D02*
X52017000Y-25535000D01*
X59462000Y-25495000D02*
X51962000Y-25495000D01*
X59515000Y-25455000D02*
X51909000Y-25455000D01*
X59568000Y-25415000D02*
X51856000Y-25415000D01*
X59619000Y-25375000D02*
X51805000Y-25375000D01*
X59669000Y-25335000D02*
X51755000Y-25335000D01*
X59718000Y-25295000D02*
X51706000Y-25295000D01*
X59766000Y-25255000D02*
X51658000Y-25255000D01*
X59813000Y-25215000D02*
X51611000Y-25215000D01*
X59860000Y-25175000D02*
X51564000Y-25175000D01*
X59905000Y-25135000D02*
X51519000Y-25135000D01*
X59912000Y-14182918D02*
X58662000Y-14182918D01*
X59950000Y-25095000D02*
X51474000Y-25095000D01*
X59993000Y-25055000D02*
X51431000Y-25055000D01*
X60036000Y-25015000D02*
X51388000Y-25015000D01*
X60078000Y-24975000D02*
X51346000Y-24975000D01*
X60120000Y-24935000D02*
X51304000Y-24935000D01*
X60160000Y-24895000D02*
X51264000Y-24895000D01*
X60200000Y-24855000D02*
X51224000Y-24855000D01*
X60240000Y-24815000D02*
X51184000Y-24815000D01*
X60278000Y-24775000D02*
X51146000Y-24775000D01*
X60316000Y-24735000D02*
X51108000Y-24735000D01*
X60353000Y-24695000D02*
X51071000Y-24695000D01*
X60390000Y-24655000D02*
X51034000Y-24655000D01*
X60426000Y-24615000D02*
X50998000Y-24615000D01*
X60461000Y-24575000D02*
X50963000Y-24575000D01*
X60496000Y-24535000D02*
X50928000Y-24535000D01*
X60530000Y-24495000D02*
X50894000Y-24495000D01*
X60564000Y-24455000D02*
X50860000Y-24455000D01*
X60597000Y-24415000D02*
X50827000Y-24415000D01*
X60630000Y-24375000D02*
X50794000Y-24375000D01*
X60662000Y-24335000D02*
X50762000Y-24335000D01*
X60693000Y-24295000D02*
X57152000Y-24295000D01*
X60724000Y-24255000D02*
X57152000Y-24255000D01*
X60754000Y-24215000D02*
X57152000Y-24215000D01*
X60784000Y-24175000D02*
X57152000Y-24175000D01*
X60814000Y-24135000D02*
X57152000Y-24135000D01*
X60843000Y-24095000D02*
X57152000Y-24095000D01*
X60871000Y-24055000D02*
X57152000Y-24055000D01*
X60900000Y-24015000D02*
X57152000Y-24015000D01*
X60927000Y-23975000D02*
X57152000Y-23975000D01*
X60954000Y-23935000D02*
X57152000Y-23935000D01*
X60981000Y-23895000D02*
X57152000Y-23895000D01*
X61007000Y-23855000D02*
X57152000Y-23855000D01*
X61033000Y-23815000D02*
X57152000Y-23815000D01*
X61059000Y-23775000D02*
X57152000Y-23775000D01*
X61084000Y-23735000D02*
X57152000Y-23735000D01*
X61108000Y-23695000D02*
X57152000Y-23695000D01*
X61133000Y-23655000D02*
X57152000Y-23655000D01*
X61156000Y-23615000D02*
X57152000Y-23615000D01*
X61180000Y-23575000D02*
X57152000Y-23575000D01*
X61203000Y-23535000D02*
X57152000Y-23535000D01*
X61226000Y-23495000D02*
X57152000Y-23495000D01*
X61248000Y-23455000D02*
X57152000Y-23455000D01*
X61270000Y-23415000D02*
X57152000Y-23415000D01*
X61291000Y-23375000D02*
X57152000Y-23375000D01*
X61313000Y-23335000D02*
X57152000Y-23335000D01*
X61333000Y-23295000D02*
X57152000Y-23295000D01*
X61354000Y-23255000D02*
X57152000Y-23255000D01*
X61374000Y-23215000D02*
X57152000Y-23215000D01*
X61394000Y-23175000D02*
X57152000Y-23175000D01*
X61413000Y-23135000D02*
X57152000Y-23135000D01*
X61432000Y-23095000D02*
X57152000Y-23095000D01*
X61451000Y-23055000D02*
X57152000Y-23055000D01*
X61469000Y-23015000D02*
X57152000Y-23015000D01*
X61487000Y-22975000D02*
X57152000Y-22975000D01*
X61505000Y-22935000D02*
X57152000Y-22935000D01*
X61522000Y-22895000D02*
X57152000Y-22895000D01*
X61539000Y-22855000D02*
X57152000Y-22855000D01*
X61556000Y-22815000D02*
X57152000Y-22815000D01*
X61573000Y-22775000D02*
X57152000Y-22775000D01*
X61589000Y-22735000D02*
X57152000Y-22735000D01*
X61604000Y-22695000D02*
X57152000Y-22695000D01*
X61620000Y-22655000D02*
X57152000Y-22655000D01*
X61635000Y-22615000D02*
X57152000Y-22615000D01*
X61650000Y-22575000D02*
X57152000Y-22575000D01*
X61665000Y-22535000D02*
X57152000Y-22535000D01*
X61679000Y-22495000D02*
X57152000Y-22495000D01*
X61693000Y-22455000D02*
X57152000Y-22455000D01*
X61707000Y-22415000D02*
X57152000Y-22415000D01*
X61720000Y-22375000D02*
X57152000Y-22375000D01*
X61733000Y-22335000D02*
X57152000Y-22335000D01*
X61746000Y-22295000D02*
X57152000Y-22295000D01*
X61758000Y-22255000D02*
X57152000Y-22255000D01*
X61770000Y-22215000D02*
X57152000Y-22215000D01*
X61782000Y-22175000D02*
X57152000Y-22175000D01*
X61794000Y-22135000D02*
X57152000Y-22135000D01*
X61805000Y-22095000D02*
X57152000Y-22095000D01*
X61816000Y-22055000D02*
X57152000Y-22055000D01*
X61827000Y-22015000D02*
X57152000Y-22015000D01*
X61838000Y-21975000D02*
X57152000Y-21975000D01*
X61848000Y-21935000D02*
X57152000Y-21935000D01*
X61858000Y-21895000D02*
X57152000Y-21895000D01*
X61868000Y-21855000D02*
X57152000Y-21855000D01*
X61877000Y-21815000D02*
X57152000Y-21815000D01*
X61886000Y-21775000D02*
X57152000Y-21775000D01*
X61895000Y-21735000D02*
X57152000Y-21735000D01*
X61904000Y-21695000D02*
X57152000Y-21695000D01*
X61912000Y-21655000D02*
X57152000Y-21655000D01*
X61920000Y-21615000D02*
X57152000Y-21615000D01*
X61928000Y-21575000D02*
X57152000Y-21575000D01*
X61935000Y-21535000D02*
X57152000Y-21535000D01*
X61943000Y-21495000D02*
X57152000Y-21495000D01*
X61950000Y-21455000D02*
X57152000Y-21455000D01*
X61957000Y-21415000D02*
X49467000Y-21415000D01*
X61963000Y-21375000D02*
X49461000Y-21375000D01*
X61969000Y-21335000D02*
X49455000Y-21335000D01*
X61975000Y-21295000D02*
X49449000Y-21295000D01*
X61981000Y-21255000D02*
X49443000Y-21255000D01*
X61986000Y-21215000D02*
X49438000Y-21215000D01*
X61992000Y-21175000D02*
X49432000Y-21175000D01*
X61996000Y-21135000D02*
X49428000Y-21135000D01*
X62001000Y-21095000D02*
X49423000Y-21095000D01*
X62006000Y-21055000D02*
X49418000Y-21055000D01*
X62010000Y-21015000D02*
X49414000Y-21015000D01*
X62014000Y-20975000D02*
X49410000Y-20975000D01*
X62017000Y-20935000D02*
X49407000Y-20935000D01*
X62021000Y-20895000D02*
X49403000Y-20895000D01*
X62024000Y-20855000D02*
X49400000Y-20855000D01*
X62027000Y-20815000D02*
X49397000Y-20815000D01*
X62029000Y-20775000D02*
X49395000Y-20775000D01*
X62032000Y-20735000D02*
X49392000Y-20735000D01*
X62034000Y-20695000D02*
X49390000Y-20695000D01*
X62036000Y-20655000D02*
X49388000Y-20655000D01*
X62037000Y-20615000D02*
X49387000Y-20615000D01*
X62039000Y-20575000D02*
X49385000Y-20575000D01*
X62040000Y-20535000D02*
X49384000Y-20535000D01*
X62041000Y-20455000D02*
X49383000Y-20455000D01*
X62041000Y-20495000D02*
X49383000Y-20495000D01*
X62042000Y-20375000D02*
X49382000Y-20375000D01*
X62042000Y-20415000D02*
X49382000Y-20415000D01*
X62082000Y-20375000D02*
G75*
G02*
X49342000Y-20375000I-6370000J0D01*
G01*
X49342000Y-20375000D02*
G75*
G02*
X62082000Y-20375000I6370000J0D01*
G01*
%TO.C,C3*%
X23118157Y-61600388D02*
X23333829Y-61600388D01*
X23118157Y-62320388D02*
X23333829Y-62320388D01*
%TO.C,J1*%
X14086364Y-75845233D02*
X16586364Y-75845233D01*
X14086364Y-81045233D02*
X14086364Y-75845233D01*
X16586364Y-75345233D02*
X19786364Y-75345233D01*
X16586364Y-75845233D02*
X16586364Y-75345233D01*
X16586364Y-81045233D02*
X14086364Y-81045233D01*
X16586364Y-81545233D02*
X16586364Y-81045233D01*
X17786364Y-81545233D02*
X16586364Y-81545233D01*
X17786364Y-81545233D02*
X17786364Y-83545233D01*
X20386364Y-81545233D02*
X20386364Y-83545233D01*
X22386364Y-75345233D02*
X31286364Y-75345233D01*
X26886364Y-81545233D02*
X20386364Y-81545233D01*
X31286364Y-75345233D02*
X31286364Y-81545233D01*
X31286364Y-81545233D02*
X30086364Y-81545233D01*
%TO.C,R28*%
X24832106Y-69818832D02*
X25306622Y-69818832D01*
X24832106Y-70863832D02*
X25306622Y-70863832D01*
%TO.C,J2*%
X94420500Y-51802000D02*
X101660500Y-51802000D01*
X94420500Y-59742000D02*
X94420500Y-51802000D01*
X94420500Y-59742000D02*
X101660500Y-59742000D01*
X100040500Y-59742000D02*
X100040500Y-51802000D01*
X101660500Y-57222000D02*
X101660500Y-51802000D01*
X101660500Y-59742000D02*
X101660500Y-57822000D01*
X102270500Y-57962000D02*
X101660500Y-57522000D01*
X102270500Y-57082000D01*
X102270500Y-57962000D01*
G36*
X102270500Y-57962000D02*
G01*
X101660500Y-57522000D01*
X102270500Y-57082000D01*
X102270500Y-57962000D01*
G37*
%TO.C,D5*%
X22303272Y-60085297D02*
X24263272Y-60085297D01*
X22303272Y-61285297D02*
X24263272Y-61285297D01*
X24263272Y-61285297D02*
X24263272Y-60085297D01*
%TO.C,D4*%
X21742903Y-55557814D02*
X21742903Y-56757814D01*
X23702903Y-55557814D02*
X21742903Y-55557814D01*
X23702903Y-56757814D02*
X21742903Y-56757814D01*
%TO.C,C9*%
X53563528Y-65156332D02*
X53779200Y-65156332D01*
X53563528Y-65876332D02*
X53779200Y-65876332D01*
%TO.C,C32*%
X34326512Y-56911602D02*
X34110840Y-56911602D01*
X34326512Y-57631602D02*
X34110840Y-57631602D01*
%TO.C,C31*%
X34327766Y-52261602D02*
X34112094Y-52261602D01*
X34327766Y-52981602D02*
X34112094Y-52981602D01*
%TO.C,C6*%
X52975200Y-36785332D02*
X52759528Y-36785332D01*
X52975200Y-37505332D02*
X52759528Y-37505332D01*
%TD*%
M02*
