%TF.GenerationSoftware,KiCad,Pcbnew,9.0.5*%
%TF.CreationDate,2026-01-26T23:14:56+01:00*%
%TF.ProjectId,DIY amplifier,44495920-616d-4706-9c69-666965722e6b,rev?*%
%TF.SameCoordinates,Original*%
%TF.FileFunction,Legend,Top*%
%TF.FilePolarity,Positive*%
%FSLAX46Y46*%
G04 Gerber Fmt 4.6, Leading zero omitted, Abs format (unit mm)*
G04 Created by KiCad (PCBNEW 9.0.5) date 2026-01-26 23:14:56*
%MOMM*%
%LPD*%
G01*
G04 APERTURE LIST*
%ADD10C,0.300000*%
%ADD11C,0.150000*%
%ADD12C,0.120000*%
G04 APERTURE END LIST*
D10*
X37002510Y-76682912D02*
X37002510Y-75182912D01*
X37716796Y-75682912D02*
X37716796Y-76682912D01*
X37716796Y-75825769D02*
X37788225Y-75754341D01*
X37788225Y-75754341D02*
X37931082Y-75682912D01*
X37931082Y-75682912D02*
X38145368Y-75682912D01*
X38145368Y-75682912D02*
X38288225Y-75754341D01*
X38288225Y-75754341D02*
X38359654Y-75897198D01*
X38359654Y-75897198D02*
X38359654Y-76682912D01*
X39073939Y-75682912D02*
X39073939Y-77182912D01*
X39073939Y-75754341D02*
X39216797Y-75682912D01*
X39216797Y-75682912D02*
X39502511Y-75682912D01*
X39502511Y-75682912D02*
X39645368Y-75754341D01*
X39645368Y-75754341D02*
X39716797Y-75825769D01*
X39716797Y-75825769D02*
X39788225Y-75968626D01*
X39788225Y-75968626D02*
X39788225Y-76397198D01*
X39788225Y-76397198D02*
X39716797Y-76540055D01*
X39716797Y-76540055D02*
X39645368Y-76611484D01*
X39645368Y-76611484D02*
X39502511Y-76682912D01*
X39502511Y-76682912D02*
X39216797Y-76682912D01*
X39216797Y-76682912D02*
X39073939Y-76611484D01*
X41073940Y-75682912D02*
X41073940Y-76682912D01*
X40431082Y-75682912D02*
X40431082Y-76468626D01*
X40431082Y-76468626D02*
X40502511Y-76611484D01*
X40502511Y-76611484D02*
X40645368Y-76682912D01*
X40645368Y-76682912D02*
X40859654Y-76682912D01*
X40859654Y-76682912D02*
X41002511Y-76611484D01*
X41002511Y-76611484D02*
X41073940Y-76540055D01*
X41573940Y-75682912D02*
X42145368Y-75682912D01*
X41788225Y-75182912D02*
X41788225Y-76468626D01*
X41788225Y-76468626D02*
X41859654Y-76611484D01*
X41859654Y-76611484D02*
X42002511Y-76682912D01*
X42002511Y-76682912D02*
X42145368Y-76682912D01*
X43788225Y-76540055D02*
X43859654Y-76611484D01*
X43859654Y-76611484D02*
X43788225Y-76682912D01*
X43788225Y-76682912D02*
X43716797Y-76611484D01*
X43716797Y-76611484D02*
X43788225Y-76540055D01*
X43788225Y-76540055D02*
X43788225Y-76682912D01*
X43788225Y-75754341D02*
X43859654Y-75825769D01*
X43859654Y-75825769D02*
X43788225Y-75897198D01*
X43788225Y-75897198D02*
X43716797Y-75825769D01*
X43716797Y-75825769D02*
X43788225Y-75754341D01*
X43788225Y-75754341D02*
X43788225Y-75897198D01*
X46431083Y-76682912D02*
X45573940Y-76682912D01*
X46002511Y-76682912D02*
X46002511Y-75182912D01*
X46002511Y-75182912D02*
X45859654Y-75397198D01*
X45859654Y-75397198D02*
X45716797Y-75540055D01*
X45716797Y-75540055D02*
X45573940Y-75611484D01*
X47788225Y-75182912D02*
X47073939Y-75182912D01*
X47073939Y-75182912D02*
X47002511Y-75897198D01*
X47002511Y-75897198D02*
X47073939Y-75825769D01*
X47073939Y-75825769D02*
X47216797Y-75754341D01*
X47216797Y-75754341D02*
X47573939Y-75754341D01*
X47573939Y-75754341D02*
X47716797Y-75825769D01*
X47716797Y-75825769D02*
X47788225Y-75897198D01*
X47788225Y-75897198D02*
X47859654Y-76040055D01*
X47859654Y-76040055D02*
X47859654Y-76397198D01*
X47859654Y-76397198D02*
X47788225Y-76540055D01*
X47788225Y-76540055D02*
X47716797Y-76611484D01*
X47716797Y-76611484D02*
X47573939Y-76682912D01*
X47573939Y-76682912D02*
X47216797Y-76682912D01*
X47216797Y-76682912D02*
X47073939Y-76611484D01*
X47073939Y-76611484D02*
X47002511Y-76540055D01*
X48502510Y-76111484D02*
X49645368Y-76111484D01*
X50216796Y-75182912D02*
X51145368Y-75182912D01*
X51145368Y-75182912D02*
X50645368Y-75754341D01*
X50645368Y-75754341D02*
X50859653Y-75754341D01*
X50859653Y-75754341D02*
X51002511Y-75825769D01*
X51002511Y-75825769D02*
X51073939Y-75897198D01*
X51073939Y-75897198D02*
X51145368Y-76040055D01*
X51145368Y-76040055D02*
X51145368Y-76397198D01*
X51145368Y-76397198D02*
X51073939Y-76540055D01*
X51073939Y-76540055D02*
X51002511Y-76611484D01*
X51002511Y-76611484D02*
X50859653Y-76682912D01*
X50859653Y-76682912D02*
X50431082Y-76682912D01*
X50431082Y-76682912D02*
X50288225Y-76611484D01*
X50288225Y-76611484D02*
X50216796Y-76540055D01*
X52502510Y-75182912D02*
X51788224Y-75182912D01*
X51788224Y-75182912D02*
X51716796Y-75897198D01*
X51716796Y-75897198D02*
X51788224Y-75825769D01*
X51788224Y-75825769D02*
X51931082Y-75754341D01*
X51931082Y-75754341D02*
X52288224Y-75754341D01*
X52288224Y-75754341D02*
X52431082Y-75825769D01*
X52431082Y-75825769D02*
X52502510Y-75897198D01*
X52502510Y-75897198D02*
X52573939Y-76040055D01*
X52573939Y-76040055D02*
X52573939Y-76397198D01*
X52573939Y-76397198D02*
X52502510Y-76540055D01*
X52502510Y-76540055D02*
X52431082Y-76611484D01*
X52431082Y-76611484D02*
X52288224Y-76682912D01*
X52288224Y-76682912D02*
X51931082Y-76682912D01*
X51931082Y-76682912D02*
X51788224Y-76611484D01*
X51788224Y-76611484D02*
X51716796Y-76540055D01*
X53002510Y-75182912D02*
X53502510Y-76682912D01*
X53502510Y-76682912D02*
X54002510Y-75182912D01*
X37288225Y-77597828D02*
X37573939Y-77597828D01*
X37573939Y-77597828D02*
X37716796Y-77669257D01*
X37716796Y-77669257D02*
X37859653Y-77812114D01*
X37859653Y-77812114D02*
X37931082Y-78097828D01*
X37931082Y-78097828D02*
X37931082Y-78597828D01*
X37931082Y-78597828D02*
X37859653Y-78883542D01*
X37859653Y-78883542D02*
X37716796Y-79026400D01*
X37716796Y-79026400D02*
X37573939Y-79097828D01*
X37573939Y-79097828D02*
X37288225Y-79097828D01*
X37288225Y-79097828D02*
X37145368Y-79026400D01*
X37145368Y-79026400D02*
X37002510Y-78883542D01*
X37002510Y-78883542D02*
X36931082Y-78597828D01*
X36931082Y-78597828D02*
X36931082Y-78097828D01*
X36931082Y-78097828D02*
X37002510Y-77812114D01*
X37002510Y-77812114D02*
X37145368Y-77669257D01*
X37145368Y-77669257D02*
X37288225Y-77597828D01*
X39216797Y-78097828D02*
X39216797Y-79097828D01*
X38573939Y-78097828D02*
X38573939Y-78883542D01*
X38573939Y-78883542D02*
X38645368Y-79026400D01*
X38645368Y-79026400D02*
X38788225Y-79097828D01*
X38788225Y-79097828D02*
X39002511Y-79097828D01*
X39002511Y-79097828D02*
X39145368Y-79026400D01*
X39145368Y-79026400D02*
X39216797Y-78954971D01*
X39716797Y-78097828D02*
X40288225Y-78097828D01*
X39931082Y-77597828D02*
X39931082Y-78883542D01*
X39931082Y-78883542D02*
X40002511Y-79026400D01*
X40002511Y-79026400D02*
X40145368Y-79097828D01*
X40145368Y-79097828D02*
X40288225Y-79097828D01*
X40788225Y-78097828D02*
X40788225Y-79597828D01*
X40788225Y-78169257D02*
X40931083Y-78097828D01*
X40931083Y-78097828D02*
X41216797Y-78097828D01*
X41216797Y-78097828D02*
X41359654Y-78169257D01*
X41359654Y-78169257D02*
X41431083Y-78240685D01*
X41431083Y-78240685D02*
X41502511Y-78383542D01*
X41502511Y-78383542D02*
X41502511Y-78812114D01*
X41502511Y-78812114D02*
X41431083Y-78954971D01*
X41431083Y-78954971D02*
X41359654Y-79026400D01*
X41359654Y-79026400D02*
X41216797Y-79097828D01*
X41216797Y-79097828D02*
X40931083Y-79097828D01*
X40931083Y-79097828D02*
X40788225Y-79026400D01*
X42788226Y-78097828D02*
X42788226Y-79097828D01*
X42145368Y-78097828D02*
X42145368Y-78883542D01*
X42145368Y-78883542D02*
X42216797Y-79026400D01*
X42216797Y-79026400D02*
X42359654Y-79097828D01*
X42359654Y-79097828D02*
X42573940Y-79097828D01*
X42573940Y-79097828D02*
X42716797Y-79026400D01*
X42716797Y-79026400D02*
X42788226Y-78954971D01*
X43288226Y-78097828D02*
X43859654Y-78097828D01*
X43502511Y-77597828D02*
X43502511Y-78883542D01*
X43502511Y-78883542D02*
X43573940Y-79026400D01*
X43573940Y-79026400D02*
X43716797Y-79097828D01*
X43716797Y-79097828D02*
X43859654Y-79097828D01*
X45502511Y-78954971D02*
X45573940Y-79026400D01*
X45573940Y-79026400D02*
X45502511Y-79097828D01*
X45502511Y-79097828D02*
X45431083Y-79026400D01*
X45431083Y-79026400D02*
X45502511Y-78954971D01*
X45502511Y-78954971D02*
X45502511Y-79097828D01*
X45502511Y-78169257D02*
X45573940Y-78240685D01*
X45573940Y-78240685D02*
X45502511Y-78312114D01*
X45502511Y-78312114D02*
X45431083Y-78240685D01*
X45431083Y-78240685D02*
X45502511Y-78169257D01*
X45502511Y-78169257D02*
X45502511Y-78312114D01*
X48002512Y-78097828D02*
X48002512Y-79097828D01*
X47645369Y-77526400D02*
X47288226Y-78597828D01*
X47288226Y-78597828D02*
X48216797Y-78597828D01*
X48716797Y-79097828D02*
X49073940Y-79097828D01*
X49073940Y-79097828D02*
X49073940Y-78812114D01*
X49073940Y-78812114D02*
X48931083Y-78740685D01*
X48931083Y-78740685D02*
X48788225Y-78597828D01*
X48788225Y-78597828D02*
X48716797Y-78383542D01*
X48716797Y-78383542D02*
X48716797Y-78026400D01*
X48716797Y-78026400D02*
X48788225Y-77812114D01*
X48788225Y-77812114D02*
X48931083Y-77669257D01*
X48931083Y-77669257D02*
X49145368Y-77597828D01*
X49145368Y-77597828D02*
X49431083Y-77597828D01*
X49431083Y-77597828D02*
X49645368Y-77669257D01*
X49645368Y-77669257D02*
X49788225Y-77812114D01*
X49788225Y-77812114D02*
X49859654Y-78026400D01*
X49859654Y-78026400D02*
X49859654Y-78383542D01*
X49859654Y-78383542D02*
X49788225Y-78597828D01*
X49788225Y-78597828D02*
X49645368Y-78740685D01*
X49645368Y-78740685D02*
X49502511Y-78812114D01*
X49502511Y-78812114D02*
X49502511Y-79097828D01*
X49502511Y-79097828D02*
X49859654Y-79097828D01*
X50573940Y-79026400D02*
X50573940Y-79097828D01*
X50573940Y-79097828D02*
X50502511Y-79240685D01*
X50502511Y-79240685D02*
X50431083Y-79312114D01*
X53002512Y-77597828D02*
X52716797Y-77597828D01*
X52716797Y-77597828D02*
X52573940Y-77669257D01*
X52573940Y-77669257D02*
X52502512Y-77740685D01*
X52502512Y-77740685D02*
X52359654Y-77954971D01*
X52359654Y-77954971D02*
X52288226Y-78240685D01*
X52288226Y-78240685D02*
X52288226Y-78812114D01*
X52288226Y-78812114D02*
X52359654Y-78954971D01*
X52359654Y-78954971D02*
X52431083Y-79026400D01*
X52431083Y-79026400D02*
X52573940Y-79097828D01*
X52573940Y-79097828D02*
X52859654Y-79097828D01*
X52859654Y-79097828D02*
X53002512Y-79026400D01*
X53002512Y-79026400D02*
X53073940Y-78954971D01*
X53073940Y-78954971D02*
X53145369Y-78812114D01*
X53145369Y-78812114D02*
X53145369Y-78454971D01*
X53145369Y-78454971D02*
X53073940Y-78312114D01*
X53073940Y-78312114D02*
X53002512Y-78240685D01*
X53002512Y-78240685D02*
X52859654Y-78169257D01*
X52859654Y-78169257D02*
X52573940Y-78169257D01*
X52573940Y-78169257D02*
X52431083Y-78240685D01*
X52431083Y-78240685D02*
X52359654Y-78312114D01*
X52359654Y-78312114D02*
X52288226Y-78454971D01*
X53716797Y-78669257D02*
X54431083Y-78669257D01*
X53573940Y-79097828D02*
X54073940Y-77597828D01*
X54073940Y-77597828D02*
X54573940Y-79097828D01*
D11*
X85265761Y-77050057D02*
X85170523Y-77002438D01*
X85170523Y-77002438D02*
X85075285Y-76907200D01*
X85075285Y-76907200D02*
X84932428Y-76764342D01*
X84932428Y-76764342D02*
X84837190Y-76716723D01*
X84837190Y-76716723D02*
X84741952Y-76716723D01*
X84789571Y-76954819D02*
X84694333Y-76907200D01*
X84694333Y-76907200D02*
X84599095Y-76811961D01*
X84599095Y-76811961D02*
X84551476Y-76621485D01*
X84551476Y-76621485D02*
X84551476Y-76288152D01*
X84551476Y-76288152D02*
X84599095Y-76097676D01*
X84599095Y-76097676D02*
X84694333Y-76002438D01*
X84694333Y-76002438D02*
X84789571Y-75954819D01*
X84789571Y-75954819D02*
X84980047Y-75954819D01*
X84980047Y-75954819D02*
X85075285Y-76002438D01*
X85075285Y-76002438D02*
X85170523Y-76097676D01*
X85170523Y-76097676D02*
X85218142Y-76288152D01*
X85218142Y-76288152D02*
X85218142Y-76621485D01*
X85218142Y-76621485D02*
X85170523Y-76811961D01*
X85170523Y-76811961D02*
X85075285Y-76907200D01*
X85075285Y-76907200D02*
X84980047Y-76954819D01*
X84980047Y-76954819D02*
X84789571Y-76954819D01*
X86075285Y-76288152D02*
X86075285Y-76954819D01*
X85837190Y-75907200D02*
X85599095Y-76621485D01*
X85599095Y-76621485D02*
X86218142Y-76621485D01*
X98241580Y-40836857D02*
X98289200Y-40884476D01*
X98289200Y-40884476D02*
X98336819Y-41027333D01*
X98336819Y-41027333D02*
X98336819Y-41122571D01*
X98336819Y-41122571D02*
X98289200Y-41265428D01*
X98289200Y-41265428D02*
X98193961Y-41360666D01*
X98193961Y-41360666D02*
X98098723Y-41408285D01*
X98098723Y-41408285D02*
X97908247Y-41455904D01*
X97908247Y-41455904D02*
X97765390Y-41455904D01*
X97765390Y-41455904D02*
X97574914Y-41408285D01*
X97574914Y-41408285D02*
X97479676Y-41360666D01*
X97479676Y-41360666D02*
X97384438Y-41265428D01*
X97384438Y-41265428D02*
X97336819Y-41122571D01*
X97336819Y-41122571D02*
X97336819Y-41027333D01*
X97336819Y-41027333D02*
X97384438Y-40884476D01*
X97384438Y-40884476D02*
X97432057Y-40836857D01*
X97432057Y-40455904D02*
X97384438Y-40408285D01*
X97384438Y-40408285D02*
X97336819Y-40313047D01*
X97336819Y-40313047D02*
X97336819Y-40074952D01*
X97336819Y-40074952D02*
X97384438Y-39979714D01*
X97384438Y-39979714D02*
X97432057Y-39932095D01*
X97432057Y-39932095D02*
X97527295Y-39884476D01*
X97527295Y-39884476D02*
X97622533Y-39884476D01*
X97622533Y-39884476D02*
X97765390Y-39932095D01*
X97765390Y-39932095D02*
X98336819Y-40503523D01*
X98336819Y-40503523D02*
X98336819Y-39884476D01*
X97336819Y-39551142D02*
X97336819Y-38932095D01*
X97336819Y-38932095D02*
X97717771Y-39265428D01*
X97717771Y-39265428D02*
X97717771Y-39122571D01*
X97717771Y-39122571D02*
X97765390Y-39027333D01*
X97765390Y-39027333D02*
X97813009Y-38979714D01*
X97813009Y-38979714D02*
X97908247Y-38932095D01*
X97908247Y-38932095D02*
X98146342Y-38932095D01*
X98146342Y-38932095D02*
X98241580Y-38979714D01*
X98241580Y-38979714D02*
X98289200Y-39027333D01*
X98289200Y-39027333D02*
X98336819Y-39122571D01*
X98336819Y-39122571D02*
X98336819Y-39408285D01*
X98336819Y-39408285D02*
X98289200Y-39503523D01*
X98289200Y-39503523D02*
X98241580Y-39551142D01*
X98473580Y-75476857D02*
X98521200Y-75524476D01*
X98521200Y-75524476D02*
X98568819Y-75667333D01*
X98568819Y-75667333D02*
X98568819Y-75762571D01*
X98568819Y-75762571D02*
X98521200Y-75905428D01*
X98521200Y-75905428D02*
X98425961Y-76000666D01*
X98425961Y-76000666D02*
X98330723Y-76048285D01*
X98330723Y-76048285D02*
X98140247Y-76095904D01*
X98140247Y-76095904D02*
X97997390Y-76095904D01*
X97997390Y-76095904D02*
X97806914Y-76048285D01*
X97806914Y-76048285D02*
X97711676Y-76000666D01*
X97711676Y-76000666D02*
X97616438Y-75905428D01*
X97616438Y-75905428D02*
X97568819Y-75762571D01*
X97568819Y-75762571D02*
X97568819Y-75667333D01*
X97568819Y-75667333D02*
X97616438Y-75524476D01*
X97616438Y-75524476D02*
X97664057Y-75476857D01*
X97664057Y-75095904D02*
X97616438Y-75048285D01*
X97616438Y-75048285D02*
X97568819Y-74953047D01*
X97568819Y-74953047D02*
X97568819Y-74714952D01*
X97568819Y-74714952D02*
X97616438Y-74619714D01*
X97616438Y-74619714D02*
X97664057Y-74572095D01*
X97664057Y-74572095D02*
X97759295Y-74524476D01*
X97759295Y-74524476D02*
X97854533Y-74524476D01*
X97854533Y-74524476D02*
X97997390Y-74572095D01*
X97997390Y-74572095D02*
X98568819Y-75143523D01*
X98568819Y-75143523D02*
X98568819Y-74524476D01*
X97664057Y-74143523D02*
X97616438Y-74095904D01*
X97616438Y-74095904D02*
X97568819Y-74000666D01*
X97568819Y-74000666D02*
X97568819Y-73762571D01*
X97568819Y-73762571D02*
X97616438Y-73667333D01*
X97616438Y-73667333D02*
X97664057Y-73619714D01*
X97664057Y-73619714D02*
X97759295Y-73572095D01*
X97759295Y-73572095D02*
X97854533Y-73572095D01*
X97854533Y-73572095D02*
X97997390Y-73619714D01*
X97997390Y-73619714D02*
X98568819Y-74191142D01*
X98568819Y-74191142D02*
X98568819Y-73572095D01*
X60115580Y-44125151D02*
X59782247Y-43648960D01*
X59544152Y-44125151D02*
X59544152Y-43125151D01*
X59544152Y-43125151D02*
X59925104Y-43125151D01*
X59925104Y-43125151D02*
X60020342Y-43172770D01*
X60020342Y-43172770D02*
X60067961Y-43220389D01*
X60067961Y-43220389D02*
X60115580Y-43315627D01*
X60115580Y-43315627D02*
X60115580Y-43458484D01*
X60115580Y-43458484D02*
X60067961Y-43553722D01*
X60067961Y-43553722D02*
X60020342Y-43601341D01*
X60020342Y-43601341D02*
X59925104Y-43648960D01*
X59925104Y-43648960D02*
X59544152Y-43648960D01*
X60687009Y-43553722D02*
X60591771Y-43506103D01*
X60591771Y-43506103D02*
X60544152Y-43458484D01*
X60544152Y-43458484D02*
X60496533Y-43363246D01*
X60496533Y-43363246D02*
X60496533Y-43315627D01*
X60496533Y-43315627D02*
X60544152Y-43220389D01*
X60544152Y-43220389D02*
X60591771Y-43172770D01*
X60591771Y-43172770D02*
X60687009Y-43125151D01*
X60687009Y-43125151D02*
X60877485Y-43125151D01*
X60877485Y-43125151D02*
X60972723Y-43172770D01*
X60972723Y-43172770D02*
X61020342Y-43220389D01*
X61020342Y-43220389D02*
X61067961Y-43315627D01*
X61067961Y-43315627D02*
X61067961Y-43363246D01*
X61067961Y-43363246D02*
X61020342Y-43458484D01*
X61020342Y-43458484D02*
X60972723Y-43506103D01*
X60972723Y-43506103D02*
X60877485Y-43553722D01*
X60877485Y-43553722D02*
X60687009Y-43553722D01*
X60687009Y-43553722D02*
X60591771Y-43601341D01*
X60591771Y-43601341D02*
X60544152Y-43648960D01*
X60544152Y-43648960D02*
X60496533Y-43744198D01*
X60496533Y-43744198D02*
X60496533Y-43934674D01*
X60496533Y-43934674D02*
X60544152Y-44029912D01*
X60544152Y-44029912D02*
X60591771Y-44077532D01*
X60591771Y-44077532D02*
X60687009Y-44125151D01*
X60687009Y-44125151D02*
X60877485Y-44125151D01*
X60877485Y-44125151D02*
X60972723Y-44077532D01*
X60972723Y-44077532D02*
X61020342Y-44029912D01*
X61020342Y-44029912D02*
X61067961Y-43934674D01*
X61067961Y-43934674D02*
X61067961Y-43744198D01*
X61067961Y-43744198D02*
X61020342Y-43648960D01*
X61020342Y-43648960D02*
X60972723Y-43601341D01*
X60972723Y-43601341D02*
X60877485Y-43553722D01*
X25957570Y-60526207D02*
X25957570Y-61335730D01*
X25957570Y-61335730D02*
X26005189Y-61430968D01*
X26005189Y-61430968D02*
X26052808Y-61478588D01*
X26052808Y-61478588D02*
X26148046Y-61526207D01*
X26148046Y-61526207D02*
X26338522Y-61526207D01*
X26338522Y-61526207D02*
X26433760Y-61478588D01*
X26433760Y-61478588D02*
X26481379Y-61430968D01*
X26481379Y-61430968D02*
X26528998Y-61335730D01*
X26528998Y-61335730D02*
X26528998Y-60526207D01*
X27148046Y-60954778D02*
X27052808Y-60907159D01*
X27052808Y-60907159D02*
X27005189Y-60859540D01*
X27005189Y-60859540D02*
X26957570Y-60764302D01*
X26957570Y-60764302D02*
X26957570Y-60716683D01*
X26957570Y-60716683D02*
X27005189Y-60621445D01*
X27005189Y-60621445D02*
X27052808Y-60573826D01*
X27052808Y-60573826D02*
X27148046Y-60526207D01*
X27148046Y-60526207D02*
X27338522Y-60526207D01*
X27338522Y-60526207D02*
X27433760Y-60573826D01*
X27433760Y-60573826D02*
X27481379Y-60621445D01*
X27481379Y-60621445D02*
X27528998Y-60716683D01*
X27528998Y-60716683D02*
X27528998Y-60764302D01*
X27528998Y-60764302D02*
X27481379Y-60859540D01*
X27481379Y-60859540D02*
X27433760Y-60907159D01*
X27433760Y-60907159D02*
X27338522Y-60954778D01*
X27338522Y-60954778D02*
X27148046Y-60954778D01*
X27148046Y-60954778D02*
X27052808Y-61002397D01*
X27052808Y-61002397D02*
X27005189Y-61050016D01*
X27005189Y-61050016D02*
X26957570Y-61145254D01*
X26957570Y-61145254D02*
X26957570Y-61335730D01*
X26957570Y-61335730D02*
X27005189Y-61430968D01*
X27005189Y-61430968D02*
X27052808Y-61478588D01*
X27052808Y-61478588D02*
X27148046Y-61526207D01*
X27148046Y-61526207D02*
X27338522Y-61526207D01*
X27338522Y-61526207D02*
X27433760Y-61478588D01*
X27433760Y-61478588D02*
X27481379Y-61430968D01*
X27481379Y-61430968D02*
X27528998Y-61335730D01*
X27528998Y-61335730D02*
X27528998Y-61145254D01*
X27528998Y-61145254D02*
X27481379Y-61050016D01*
X27481379Y-61050016D02*
X27433760Y-61002397D01*
X27433760Y-61002397D02*
X27338522Y-60954778D01*
X21403506Y-71098398D02*
X21355887Y-71146018D01*
X21355887Y-71146018D02*
X21213030Y-71193637D01*
X21213030Y-71193637D02*
X21117792Y-71193637D01*
X21117792Y-71193637D02*
X20974935Y-71146018D01*
X20974935Y-71146018D02*
X20879697Y-71050779D01*
X20879697Y-71050779D02*
X20832078Y-70955541D01*
X20832078Y-70955541D02*
X20784459Y-70765065D01*
X20784459Y-70765065D02*
X20784459Y-70622208D01*
X20784459Y-70622208D02*
X20832078Y-70431732D01*
X20832078Y-70431732D02*
X20879697Y-70336494D01*
X20879697Y-70336494D02*
X20974935Y-70241256D01*
X20974935Y-70241256D02*
X21117792Y-70193637D01*
X21117792Y-70193637D02*
X21213030Y-70193637D01*
X21213030Y-70193637D02*
X21355887Y-70241256D01*
X21355887Y-70241256D02*
X21403506Y-70288875D01*
X21736840Y-70193637D02*
X22355887Y-70193637D01*
X22355887Y-70193637D02*
X22022554Y-70574589D01*
X22022554Y-70574589D02*
X22165411Y-70574589D01*
X22165411Y-70574589D02*
X22260649Y-70622208D01*
X22260649Y-70622208D02*
X22308268Y-70669827D01*
X22308268Y-70669827D02*
X22355887Y-70765065D01*
X22355887Y-70765065D02*
X22355887Y-71003160D01*
X22355887Y-71003160D02*
X22308268Y-71098398D01*
X22308268Y-71098398D02*
X22260649Y-71146018D01*
X22260649Y-71146018D02*
X22165411Y-71193637D01*
X22165411Y-71193637D02*
X21879697Y-71193637D01*
X21879697Y-71193637D02*
X21784459Y-71146018D01*
X21784459Y-71146018D02*
X21736840Y-71098398D01*
X23260649Y-70193637D02*
X22784459Y-70193637D01*
X22784459Y-70193637D02*
X22736840Y-70669827D01*
X22736840Y-70669827D02*
X22784459Y-70622208D01*
X22784459Y-70622208D02*
X22879697Y-70574589D01*
X22879697Y-70574589D02*
X23117792Y-70574589D01*
X23117792Y-70574589D02*
X23213030Y-70622208D01*
X23213030Y-70622208D02*
X23260649Y-70669827D01*
X23260649Y-70669827D02*
X23308268Y-70765065D01*
X23308268Y-70765065D02*
X23308268Y-71003160D01*
X23308268Y-71003160D02*
X23260649Y-71098398D01*
X23260649Y-71098398D02*
X23213030Y-71146018D01*
X23213030Y-71146018D02*
X23117792Y-71193637D01*
X23117792Y-71193637D02*
X22879697Y-71193637D01*
X22879697Y-71193637D02*
X22784459Y-71146018D01*
X22784459Y-71146018D02*
X22736840Y-71098398D01*
X45820146Y-62730151D02*
X45486813Y-62253960D01*
X45248718Y-62730151D02*
X45248718Y-61730151D01*
X45248718Y-61730151D02*
X45629670Y-61730151D01*
X45629670Y-61730151D02*
X45724908Y-61777770D01*
X45724908Y-61777770D02*
X45772527Y-61825389D01*
X45772527Y-61825389D02*
X45820146Y-61920627D01*
X45820146Y-61920627D02*
X45820146Y-62063484D01*
X45820146Y-62063484D02*
X45772527Y-62158722D01*
X45772527Y-62158722D02*
X45724908Y-62206341D01*
X45724908Y-62206341D02*
X45629670Y-62253960D01*
X45629670Y-62253960D02*
X45248718Y-62253960D01*
X46724908Y-61730151D02*
X46248718Y-61730151D01*
X46248718Y-61730151D02*
X46201099Y-62206341D01*
X46201099Y-62206341D02*
X46248718Y-62158722D01*
X46248718Y-62158722D02*
X46343956Y-62111103D01*
X46343956Y-62111103D02*
X46582051Y-62111103D01*
X46582051Y-62111103D02*
X46677289Y-62158722D01*
X46677289Y-62158722D02*
X46724908Y-62206341D01*
X46724908Y-62206341D02*
X46772527Y-62301579D01*
X46772527Y-62301579D02*
X46772527Y-62539674D01*
X46772527Y-62539674D02*
X46724908Y-62634912D01*
X46724908Y-62634912D02*
X46677289Y-62682532D01*
X46677289Y-62682532D02*
X46582051Y-62730151D01*
X46582051Y-62730151D02*
X46343956Y-62730151D01*
X46343956Y-62730151D02*
X46248718Y-62682532D01*
X46248718Y-62682532D02*
X46201099Y-62634912D01*
X59337506Y-56825151D02*
X59004173Y-56348960D01*
X58766078Y-56825151D02*
X58766078Y-55825151D01*
X58766078Y-55825151D02*
X59147030Y-55825151D01*
X59147030Y-55825151D02*
X59242268Y-55872770D01*
X59242268Y-55872770D02*
X59289887Y-55920389D01*
X59289887Y-55920389D02*
X59337506Y-56015627D01*
X59337506Y-56015627D02*
X59337506Y-56158484D01*
X59337506Y-56158484D02*
X59289887Y-56253722D01*
X59289887Y-56253722D02*
X59242268Y-56301341D01*
X59242268Y-56301341D02*
X59147030Y-56348960D01*
X59147030Y-56348960D02*
X58766078Y-56348960D01*
X60289887Y-56825151D02*
X59718459Y-56825151D01*
X60004173Y-56825151D02*
X60004173Y-55825151D01*
X60004173Y-55825151D02*
X59908935Y-55968008D01*
X59908935Y-55968008D02*
X59813697Y-56063246D01*
X59813697Y-56063246D02*
X59718459Y-56110865D01*
X60861316Y-56253722D02*
X60766078Y-56206103D01*
X60766078Y-56206103D02*
X60718459Y-56158484D01*
X60718459Y-56158484D02*
X60670840Y-56063246D01*
X60670840Y-56063246D02*
X60670840Y-56015627D01*
X60670840Y-56015627D02*
X60718459Y-55920389D01*
X60718459Y-55920389D02*
X60766078Y-55872770D01*
X60766078Y-55872770D02*
X60861316Y-55825151D01*
X60861316Y-55825151D02*
X61051792Y-55825151D01*
X61051792Y-55825151D02*
X61147030Y-55872770D01*
X61147030Y-55872770D02*
X61194649Y-55920389D01*
X61194649Y-55920389D02*
X61242268Y-56015627D01*
X61242268Y-56015627D02*
X61242268Y-56063246D01*
X61242268Y-56063246D02*
X61194649Y-56158484D01*
X61194649Y-56158484D02*
X61147030Y-56206103D01*
X61147030Y-56206103D02*
X61051792Y-56253722D01*
X61051792Y-56253722D02*
X60861316Y-56253722D01*
X60861316Y-56253722D02*
X60766078Y-56301341D01*
X60766078Y-56301341D02*
X60718459Y-56348960D01*
X60718459Y-56348960D02*
X60670840Y-56444198D01*
X60670840Y-56444198D02*
X60670840Y-56634674D01*
X60670840Y-56634674D02*
X60718459Y-56729912D01*
X60718459Y-56729912D02*
X60766078Y-56777532D01*
X60766078Y-56777532D02*
X60861316Y-56825151D01*
X60861316Y-56825151D02*
X61051792Y-56825151D01*
X61051792Y-56825151D02*
X61147030Y-56777532D01*
X61147030Y-56777532D02*
X61194649Y-56729912D01*
X61194649Y-56729912D02*
X61242268Y-56634674D01*
X61242268Y-56634674D02*
X61242268Y-56444198D01*
X61242268Y-56444198D02*
X61194649Y-56348960D01*
X61194649Y-56348960D02*
X61147030Y-56301341D01*
X61147030Y-56301341D02*
X61051792Y-56253722D01*
X22068183Y-20953665D02*
X22782468Y-20953665D01*
X22782468Y-20953665D02*
X22925325Y-21001284D01*
X22925325Y-21001284D02*
X23020564Y-21096522D01*
X23020564Y-21096522D02*
X23068183Y-21239379D01*
X23068183Y-21239379D02*
X23068183Y-21334617D01*
X22068183Y-20572712D02*
X22068183Y-19953665D01*
X22068183Y-19953665D02*
X22449135Y-20286998D01*
X22449135Y-20286998D02*
X22449135Y-20144141D01*
X22449135Y-20144141D02*
X22496754Y-20048903D01*
X22496754Y-20048903D02*
X22544373Y-20001284D01*
X22544373Y-20001284D02*
X22639611Y-19953665D01*
X22639611Y-19953665D02*
X22877706Y-19953665D01*
X22877706Y-19953665D02*
X22972944Y-20001284D01*
X22972944Y-20001284D02*
X23020564Y-20048903D01*
X23020564Y-20048903D02*
X23068183Y-20144141D01*
X23068183Y-20144141D02*
X23068183Y-20429855D01*
X23068183Y-20429855D02*
X23020564Y-20525093D01*
X23020564Y-20525093D02*
X22972944Y-20572712D01*
X90381953Y-58276236D02*
X89905762Y-58609569D01*
X90381953Y-58847664D02*
X89381953Y-58847664D01*
X89381953Y-58847664D02*
X89381953Y-58466712D01*
X89381953Y-58466712D02*
X89429572Y-58371474D01*
X89429572Y-58371474D02*
X89477191Y-58323855D01*
X89477191Y-58323855D02*
X89572429Y-58276236D01*
X89572429Y-58276236D02*
X89715286Y-58276236D01*
X89715286Y-58276236D02*
X89810524Y-58323855D01*
X89810524Y-58323855D02*
X89858143Y-58371474D01*
X89858143Y-58371474D02*
X89905762Y-58466712D01*
X89905762Y-58466712D02*
X89905762Y-58847664D01*
X89477191Y-57895283D02*
X89429572Y-57847664D01*
X89429572Y-57847664D02*
X89381953Y-57752426D01*
X89381953Y-57752426D02*
X89381953Y-57514331D01*
X89381953Y-57514331D02*
X89429572Y-57419093D01*
X89429572Y-57419093D02*
X89477191Y-57371474D01*
X89477191Y-57371474D02*
X89572429Y-57323855D01*
X89572429Y-57323855D02*
X89667667Y-57323855D01*
X89667667Y-57323855D02*
X89810524Y-57371474D01*
X89810524Y-57371474D02*
X90381953Y-57942902D01*
X90381953Y-57942902D02*
X90381953Y-57323855D01*
X90381953Y-56371474D02*
X90381953Y-56942902D01*
X90381953Y-56657188D02*
X89381953Y-56657188D01*
X89381953Y-56657188D02*
X89524810Y-56752426D01*
X89524810Y-56752426D02*
X89620048Y-56847664D01*
X89620048Y-56847664D02*
X89667667Y-56942902D01*
X25287530Y-64319230D02*
X25239911Y-64366850D01*
X25239911Y-64366850D02*
X25097054Y-64414469D01*
X25097054Y-64414469D02*
X25001816Y-64414469D01*
X25001816Y-64414469D02*
X24858959Y-64366850D01*
X24858959Y-64366850D02*
X24763721Y-64271611D01*
X24763721Y-64271611D02*
X24716102Y-64176373D01*
X24716102Y-64176373D02*
X24668483Y-63985897D01*
X24668483Y-63985897D02*
X24668483Y-63843040D01*
X24668483Y-63843040D02*
X24716102Y-63652564D01*
X24716102Y-63652564D02*
X24763721Y-63557326D01*
X24763721Y-63557326D02*
X24858959Y-63462088D01*
X24858959Y-63462088D02*
X25001816Y-63414469D01*
X25001816Y-63414469D02*
X25097054Y-63414469D01*
X25097054Y-63414469D02*
X25239911Y-63462088D01*
X25239911Y-63462088D02*
X25287530Y-63509707D01*
X26144673Y-63747802D02*
X26144673Y-64414469D01*
X25906578Y-63366850D02*
X25668483Y-64081135D01*
X25668483Y-64081135D02*
X26287530Y-64081135D01*
X65399142Y-61674819D02*
X65065809Y-61198628D01*
X64827714Y-61674819D02*
X64827714Y-60674819D01*
X64827714Y-60674819D02*
X65208666Y-60674819D01*
X65208666Y-60674819D02*
X65303904Y-60722438D01*
X65303904Y-60722438D02*
X65351523Y-60770057D01*
X65351523Y-60770057D02*
X65399142Y-60865295D01*
X65399142Y-60865295D02*
X65399142Y-61008152D01*
X65399142Y-61008152D02*
X65351523Y-61103390D01*
X65351523Y-61103390D02*
X65303904Y-61151009D01*
X65303904Y-61151009D02*
X65208666Y-61198628D01*
X65208666Y-61198628D02*
X64827714Y-61198628D01*
X65780095Y-60770057D02*
X65827714Y-60722438D01*
X65827714Y-60722438D02*
X65922952Y-60674819D01*
X65922952Y-60674819D02*
X66161047Y-60674819D01*
X66161047Y-60674819D02*
X66256285Y-60722438D01*
X66256285Y-60722438D02*
X66303904Y-60770057D01*
X66303904Y-60770057D02*
X66351523Y-60865295D01*
X66351523Y-60865295D02*
X66351523Y-60960533D01*
X66351523Y-60960533D02*
X66303904Y-61103390D01*
X66303904Y-61103390D02*
X65732476Y-61674819D01*
X65732476Y-61674819D02*
X66351523Y-61674819D01*
X66970571Y-60674819D02*
X67065809Y-60674819D01*
X67065809Y-60674819D02*
X67161047Y-60722438D01*
X67161047Y-60722438D02*
X67208666Y-60770057D01*
X67208666Y-60770057D02*
X67256285Y-60865295D01*
X67256285Y-60865295D02*
X67303904Y-61055771D01*
X67303904Y-61055771D02*
X67303904Y-61293866D01*
X67303904Y-61293866D02*
X67256285Y-61484342D01*
X67256285Y-61484342D02*
X67208666Y-61579580D01*
X67208666Y-61579580D02*
X67161047Y-61627200D01*
X67161047Y-61627200D02*
X67065809Y-61674819D01*
X67065809Y-61674819D02*
X66970571Y-61674819D01*
X66970571Y-61674819D02*
X66875333Y-61627200D01*
X66875333Y-61627200D02*
X66827714Y-61579580D01*
X66827714Y-61579580D02*
X66780095Y-61484342D01*
X66780095Y-61484342D02*
X66732476Y-61293866D01*
X66732476Y-61293866D02*
X66732476Y-61055771D01*
X66732476Y-61055771D02*
X66780095Y-60865295D01*
X66780095Y-60865295D02*
X66827714Y-60770057D01*
X66827714Y-60770057D02*
X66875333Y-60722438D01*
X66875333Y-60722438D02*
X66970571Y-60674819D01*
X88244333Y-80526819D02*
X87768143Y-80526819D01*
X87768143Y-80526819D02*
X87768143Y-79526819D01*
X89101476Y-80526819D02*
X88530048Y-80526819D01*
X88815762Y-80526819D02*
X88815762Y-79526819D01*
X88815762Y-79526819D02*
X88720524Y-79669676D01*
X88720524Y-79669676D02*
X88625286Y-79764914D01*
X88625286Y-79764914D02*
X88530048Y-79812533D01*
X72152580Y-24914857D02*
X72200200Y-24962476D01*
X72200200Y-24962476D02*
X72247819Y-25105333D01*
X72247819Y-25105333D02*
X72247819Y-25200571D01*
X72247819Y-25200571D02*
X72200200Y-25343428D01*
X72200200Y-25343428D02*
X72104961Y-25438666D01*
X72104961Y-25438666D02*
X72009723Y-25486285D01*
X72009723Y-25486285D02*
X71819247Y-25533904D01*
X71819247Y-25533904D02*
X71676390Y-25533904D01*
X71676390Y-25533904D02*
X71485914Y-25486285D01*
X71485914Y-25486285D02*
X71390676Y-25438666D01*
X71390676Y-25438666D02*
X71295438Y-25343428D01*
X71295438Y-25343428D02*
X71247819Y-25200571D01*
X71247819Y-25200571D02*
X71247819Y-25105333D01*
X71247819Y-25105333D02*
X71295438Y-24962476D01*
X71295438Y-24962476D02*
X71343057Y-24914857D01*
X71343057Y-24533904D02*
X71295438Y-24486285D01*
X71295438Y-24486285D02*
X71247819Y-24391047D01*
X71247819Y-24391047D02*
X71247819Y-24152952D01*
X71247819Y-24152952D02*
X71295438Y-24057714D01*
X71295438Y-24057714D02*
X71343057Y-24010095D01*
X71343057Y-24010095D02*
X71438295Y-23962476D01*
X71438295Y-23962476D02*
X71533533Y-23962476D01*
X71533533Y-23962476D02*
X71676390Y-24010095D01*
X71676390Y-24010095D02*
X72247819Y-24581523D01*
X72247819Y-24581523D02*
X72247819Y-23962476D01*
X72247819Y-23010095D02*
X72247819Y-23581523D01*
X72247819Y-23295809D02*
X71247819Y-23295809D01*
X71247819Y-23295809D02*
X71390676Y-23391047D01*
X71390676Y-23391047D02*
X71485914Y-23486285D01*
X71485914Y-23486285D02*
X71533533Y-23581523D01*
X44618183Y-47302189D02*
X44141992Y-47635522D01*
X44618183Y-47873617D02*
X43618183Y-47873617D01*
X43618183Y-47873617D02*
X43618183Y-47492665D01*
X43618183Y-47492665D02*
X43665802Y-47397427D01*
X43665802Y-47397427D02*
X43713421Y-47349808D01*
X43713421Y-47349808D02*
X43808659Y-47302189D01*
X43808659Y-47302189D02*
X43951516Y-47302189D01*
X43951516Y-47302189D02*
X44046754Y-47349808D01*
X44046754Y-47349808D02*
X44094373Y-47397427D01*
X44094373Y-47397427D02*
X44141992Y-47492665D01*
X44141992Y-47492665D02*
X44141992Y-47873617D01*
X43713421Y-46921236D02*
X43665802Y-46873617D01*
X43665802Y-46873617D02*
X43618183Y-46778379D01*
X43618183Y-46778379D02*
X43618183Y-46540284D01*
X43618183Y-46540284D02*
X43665802Y-46445046D01*
X43665802Y-46445046D02*
X43713421Y-46397427D01*
X43713421Y-46397427D02*
X43808659Y-46349808D01*
X43808659Y-46349808D02*
X43903897Y-46349808D01*
X43903897Y-46349808D02*
X44046754Y-46397427D01*
X44046754Y-46397427D02*
X44618183Y-46968855D01*
X44618183Y-46968855D02*
X44618183Y-46349808D01*
X43713421Y-45968855D02*
X43665802Y-45921236D01*
X43665802Y-45921236D02*
X43618183Y-45825998D01*
X43618183Y-45825998D02*
X43618183Y-45587903D01*
X43618183Y-45587903D02*
X43665802Y-45492665D01*
X43665802Y-45492665D02*
X43713421Y-45445046D01*
X43713421Y-45445046D02*
X43808659Y-45397427D01*
X43808659Y-45397427D02*
X43903897Y-45397427D01*
X43903897Y-45397427D02*
X44046754Y-45445046D01*
X44046754Y-45445046D02*
X44618183Y-46016474D01*
X44618183Y-46016474D02*
X44618183Y-45397427D01*
X35933506Y-32617313D02*
X35885887Y-32664933D01*
X35885887Y-32664933D02*
X35743030Y-32712552D01*
X35743030Y-32712552D02*
X35647792Y-32712552D01*
X35647792Y-32712552D02*
X35504935Y-32664933D01*
X35504935Y-32664933D02*
X35409697Y-32569694D01*
X35409697Y-32569694D02*
X35362078Y-32474456D01*
X35362078Y-32474456D02*
X35314459Y-32283980D01*
X35314459Y-32283980D02*
X35314459Y-32141123D01*
X35314459Y-32141123D02*
X35362078Y-31950647D01*
X35362078Y-31950647D02*
X35409697Y-31855409D01*
X35409697Y-31855409D02*
X35504935Y-31760171D01*
X35504935Y-31760171D02*
X35647792Y-31712552D01*
X35647792Y-31712552D02*
X35743030Y-31712552D01*
X35743030Y-31712552D02*
X35885887Y-31760171D01*
X35885887Y-31760171D02*
X35933506Y-31807790D01*
X36885887Y-32712552D02*
X36314459Y-32712552D01*
X36600173Y-32712552D02*
X36600173Y-31712552D01*
X36600173Y-31712552D02*
X36504935Y-31855409D01*
X36504935Y-31855409D02*
X36409697Y-31950647D01*
X36409697Y-31950647D02*
X36314459Y-31998266D01*
X37219221Y-31712552D02*
X37838268Y-31712552D01*
X37838268Y-31712552D02*
X37504935Y-32093504D01*
X37504935Y-32093504D02*
X37647792Y-32093504D01*
X37647792Y-32093504D02*
X37743030Y-32141123D01*
X37743030Y-32141123D02*
X37790649Y-32188742D01*
X37790649Y-32188742D02*
X37838268Y-32283980D01*
X37838268Y-32283980D02*
X37838268Y-32522075D01*
X37838268Y-32522075D02*
X37790649Y-32617313D01*
X37790649Y-32617313D02*
X37743030Y-32664933D01*
X37743030Y-32664933D02*
X37647792Y-32712552D01*
X37647792Y-32712552D02*
X37362078Y-32712552D01*
X37362078Y-32712552D02*
X37266840Y-32664933D01*
X37266840Y-32664933D02*
X37219221Y-32617313D01*
X27280506Y-72356151D02*
X26947173Y-71879960D01*
X26709078Y-72356151D02*
X26709078Y-71356151D01*
X26709078Y-71356151D02*
X27090030Y-71356151D01*
X27090030Y-71356151D02*
X27185268Y-71403770D01*
X27185268Y-71403770D02*
X27232887Y-71451389D01*
X27232887Y-71451389D02*
X27280506Y-71546627D01*
X27280506Y-71546627D02*
X27280506Y-71689484D01*
X27280506Y-71689484D02*
X27232887Y-71784722D01*
X27232887Y-71784722D02*
X27185268Y-71832341D01*
X27185268Y-71832341D02*
X27090030Y-71879960D01*
X27090030Y-71879960D02*
X26709078Y-71879960D01*
X27661459Y-71451389D02*
X27709078Y-71403770D01*
X27709078Y-71403770D02*
X27804316Y-71356151D01*
X27804316Y-71356151D02*
X28042411Y-71356151D01*
X28042411Y-71356151D02*
X28137649Y-71403770D01*
X28137649Y-71403770D02*
X28185268Y-71451389D01*
X28185268Y-71451389D02*
X28232887Y-71546627D01*
X28232887Y-71546627D02*
X28232887Y-71641865D01*
X28232887Y-71641865D02*
X28185268Y-71784722D01*
X28185268Y-71784722D02*
X27613840Y-72356151D01*
X27613840Y-72356151D02*
X28232887Y-72356151D01*
X28566221Y-71356151D02*
X29232887Y-71356151D01*
X29232887Y-71356151D02*
X28804316Y-72356151D01*
X65682142Y-25401580D02*
X65634523Y-25449200D01*
X65634523Y-25449200D02*
X65491666Y-25496819D01*
X65491666Y-25496819D02*
X65396428Y-25496819D01*
X65396428Y-25496819D02*
X65253571Y-25449200D01*
X65253571Y-25449200D02*
X65158333Y-25353961D01*
X65158333Y-25353961D02*
X65110714Y-25258723D01*
X65110714Y-25258723D02*
X65063095Y-25068247D01*
X65063095Y-25068247D02*
X65063095Y-24925390D01*
X65063095Y-24925390D02*
X65110714Y-24734914D01*
X65110714Y-24734914D02*
X65158333Y-24639676D01*
X65158333Y-24639676D02*
X65253571Y-24544438D01*
X65253571Y-24544438D02*
X65396428Y-24496819D01*
X65396428Y-24496819D02*
X65491666Y-24496819D01*
X65491666Y-24496819D02*
X65634523Y-24544438D01*
X65634523Y-24544438D02*
X65682142Y-24592057D01*
X66634523Y-25496819D02*
X66063095Y-25496819D01*
X66348809Y-25496819D02*
X66348809Y-24496819D01*
X66348809Y-24496819D02*
X66253571Y-24639676D01*
X66253571Y-24639676D02*
X66158333Y-24734914D01*
X66158333Y-24734914D02*
X66063095Y-24782533D01*
X67586904Y-25496819D02*
X67015476Y-25496819D01*
X67301190Y-25496819D02*
X67301190Y-24496819D01*
X67301190Y-24496819D02*
X67205952Y-24639676D01*
X67205952Y-24639676D02*
X67110714Y-24734914D01*
X67110714Y-24734914D02*
X67015476Y-24782533D01*
X17449125Y-72052151D02*
X17115792Y-71575960D01*
X16877697Y-72052151D02*
X16877697Y-71052151D01*
X16877697Y-71052151D02*
X17258649Y-71052151D01*
X17258649Y-71052151D02*
X17353887Y-71099770D01*
X17353887Y-71099770D02*
X17401506Y-71147389D01*
X17401506Y-71147389D02*
X17449125Y-71242627D01*
X17449125Y-71242627D02*
X17449125Y-71385484D01*
X17449125Y-71385484D02*
X17401506Y-71480722D01*
X17401506Y-71480722D02*
X17353887Y-71528341D01*
X17353887Y-71528341D02*
X17258649Y-71575960D01*
X17258649Y-71575960D02*
X16877697Y-71575960D01*
X17734840Y-71052151D02*
X18068173Y-72052151D01*
X18068173Y-72052151D02*
X18401506Y-71052151D01*
X19258649Y-72052151D02*
X18687221Y-72052151D01*
X18972935Y-72052151D02*
X18972935Y-71052151D01*
X18972935Y-71052151D02*
X18877697Y-71195008D01*
X18877697Y-71195008D02*
X18782459Y-71290246D01*
X18782459Y-71290246D02*
X18687221Y-71337865D01*
X61142506Y-22513912D02*
X61094887Y-22561532D01*
X61094887Y-22561532D02*
X60952030Y-22609151D01*
X60952030Y-22609151D02*
X60856792Y-22609151D01*
X60856792Y-22609151D02*
X60713935Y-22561532D01*
X60713935Y-22561532D02*
X60618697Y-22466293D01*
X60618697Y-22466293D02*
X60571078Y-22371055D01*
X60571078Y-22371055D02*
X60523459Y-22180579D01*
X60523459Y-22180579D02*
X60523459Y-22037722D01*
X60523459Y-22037722D02*
X60571078Y-21847246D01*
X60571078Y-21847246D02*
X60618697Y-21752008D01*
X60618697Y-21752008D02*
X60713935Y-21656770D01*
X60713935Y-21656770D02*
X60856792Y-21609151D01*
X60856792Y-21609151D02*
X60952030Y-21609151D01*
X60952030Y-21609151D02*
X61094887Y-21656770D01*
X61094887Y-21656770D02*
X61142506Y-21704389D01*
X62094887Y-22609151D02*
X61523459Y-22609151D01*
X61809173Y-22609151D02*
X61809173Y-21609151D01*
X61809173Y-21609151D02*
X61713935Y-21752008D01*
X61713935Y-21752008D02*
X61618697Y-21847246D01*
X61618697Y-21847246D02*
X61523459Y-21894865D01*
X62952030Y-21609151D02*
X62761554Y-21609151D01*
X62761554Y-21609151D02*
X62666316Y-21656770D01*
X62666316Y-21656770D02*
X62618697Y-21704389D01*
X62618697Y-21704389D02*
X62523459Y-21847246D01*
X62523459Y-21847246D02*
X62475840Y-22037722D01*
X62475840Y-22037722D02*
X62475840Y-22418674D01*
X62475840Y-22418674D02*
X62523459Y-22513912D01*
X62523459Y-22513912D02*
X62571078Y-22561532D01*
X62571078Y-22561532D02*
X62666316Y-22609151D01*
X62666316Y-22609151D02*
X62856792Y-22609151D01*
X62856792Y-22609151D02*
X62952030Y-22561532D01*
X62952030Y-22561532D02*
X62999649Y-22513912D01*
X62999649Y-22513912D02*
X63047268Y-22418674D01*
X63047268Y-22418674D02*
X63047268Y-22180579D01*
X63047268Y-22180579D02*
X62999649Y-22085341D01*
X62999649Y-22085341D02*
X62952030Y-22037722D01*
X62952030Y-22037722D02*
X62856792Y-21990103D01*
X62856792Y-21990103D02*
X62666316Y-21990103D01*
X62666316Y-21990103D02*
X62571078Y-22037722D01*
X62571078Y-22037722D02*
X62523459Y-22085341D01*
X62523459Y-22085341D02*
X62475840Y-22180579D01*
X85187819Y-32300857D02*
X84711628Y-32634190D01*
X85187819Y-32872285D02*
X84187819Y-32872285D01*
X84187819Y-32872285D02*
X84187819Y-32491333D01*
X84187819Y-32491333D02*
X84235438Y-32396095D01*
X84235438Y-32396095D02*
X84283057Y-32348476D01*
X84283057Y-32348476D02*
X84378295Y-32300857D01*
X84378295Y-32300857D02*
X84521152Y-32300857D01*
X84521152Y-32300857D02*
X84616390Y-32348476D01*
X84616390Y-32348476D02*
X84664009Y-32396095D01*
X84664009Y-32396095D02*
X84711628Y-32491333D01*
X84711628Y-32491333D02*
X84711628Y-32872285D01*
X85187819Y-31348476D02*
X85187819Y-31919904D01*
X85187819Y-31634190D02*
X84187819Y-31634190D01*
X84187819Y-31634190D02*
X84330676Y-31729428D01*
X84330676Y-31729428D02*
X84425914Y-31824666D01*
X84425914Y-31824666D02*
X84473533Y-31919904D01*
X84187819Y-30491333D02*
X84187819Y-30681809D01*
X84187819Y-30681809D02*
X84235438Y-30777047D01*
X84235438Y-30777047D02*
X84283057Y-30824666D01*
X84283057Y-30824666D02*
X84425914Y-30919904D01*
X84425914Y-30919904D02*
X84616390Y-30967523D01*
X84616390Y-30967523D02*
X84997342Y-30967523D01*
X84997342Y-30967523D02*
X85092580Y-30919904D01*
X85092580Y-30919904D02*
X85140200Y-30872285D01*
X85140200Y-30872285D02*
X85187819Y-30777047D01*
X85187819Y-30777047D02*
X85187819Y-30586571D01*
X85187819Y-30586571D02*
X85140200Y-30491333D01*
X85140200Y-30491333D02*
X85092580Y-30443714D01*
X85092580Y-30443714D02*
X84997342Y-30396095D01*
X84997342Y-30396095D02*
X84759247Y-30396095D01*
X84759247Y-30396095D02*
X84664009Y-30443714D01*
X84664009Y-30443714D02*
X84616390Y-30491333D01*
X84616390Y-30491333D02*
X84568771Y-30586571D01*
X84568771Y-30586571D02*
X84568771Y-30777047D01*
X84568771Y-30777047D02*
X84616390Y-30872285D01*
X84616390Y-30872285D02*
X84664009Y-30919904D01*
X84664009Y-30919904D02*
X84759247Y-30967523D01*
X95754819Y-81333333D02*
X95278628Y-81666666D01*
X95754819Y-81904761D02*
X94754819Y-81904761D01*
X94754819Y-81904761D02*
X94754819Y-81523809D01*
X94754819Y-81523809D02*
X94802438Y-81428571D01*
X94802438Y-81428571D02*
X94850057Y-81380952D01*
X94850057Y-81380952D02*
X94945295Y-81333333D01*
X94945295Y-81333333D02*
X95088152Y-81333333D01*
X95088152Y-81333333D02*
X95183390Y-81380952D01*
X95183390Y-81380952D02*
X95231009Y-81428571D01*
X95231009Y-81428571D02*
X95278628Y-81523809D01*
X95278628Y-81523809D02*
X95278628Y-81904761D01*
X95231009Y-80904761D02*
X95231009Y-80571428D01*
X95754819Y-80428571D02*
X95754819Y-80904761D01*
X95754819Y-80904761D02*
X94754819Y-80904761D01*
X94754819Y-80904761D02*
X94754819Y-80428571D01*
X95231009Y-79666666D02*
X95231009Y-79999999D01*
X95754819Y-79999999D02*
X94754819Y-79999999D01*
X94754819Y-79999999D02*
X94754819Y-79523809D01*
X94754819Y-78999999D02*
X94992914Y-78999999D01*
X94897676Y-79238094D02*
X94992914Y-78999999D01*
X94992914Y-78999999D02*
X94897676Y-78761904D01*
X95183390Y-79142856D02*
X94992914Y-78999999D01*
X94992914Y-78999999D02*
X95183390Y-78857142D01*
X94754819Y-78238094D02*
X94992914Y-78238094D01*
X94897676Y-78476189D02*
X94992914Y-78238094D01*
X94992914Y-78238094D02*
X94897676Y-77999999D01*
X95183390Y-78380951D02*
X94992914Y-78238094D01*
X94992914Y-78238094D02*
X95183390Y-78095237D01*
X68270125Y-53236389D02*
X68174887Y-53188770D01*
X68174887Y-53188770D02*
X68079649Y-53093532D01*
X68079649Y-53093532D02*
X67936792Y-52950674D01*
X67936792Y-52950674D02*
X67841554Y-52903055D01*
X67841554Y-52903055D02*
X67746316Y-52903055D01*
X67793935Y-53141151D02*
X67698697Y-53093532D01*
X67698697Y-53093532D02*
X67603459Y-52998293D01*
X67603459Y-52998293D02*
X67555840Y-52807817D01*
X67555840Y-52807817D02*
X67555840Y-52474484D01*
X67555840Y-52474484D02*
X67603459Y-52284008D01*
X67603459Y-52284008D02*
X67698697Y-52188770D01*
X67698697Y-52188770D02*
X67793935Y-52141151D01*
X67793935Y-52141151D02*
X67984411Y-52141151D01*
X67984411Y-52141151D02*
X68079649Y-52188770D01*
X68079649Y-52188770D02*
X68174887Y-52284008D01*
X68174887Y-52284008D02*
X68222506Y-52474484D01*
X68222506Y-52474484D02*
X68222506Y-52807817D01*
X68222506Y-52807817D02*
X68174887Y-52998293D01*
X68174887Y-52998293D02*
X68079649Y-53093532D01*
X68079649Y-53093532D02*
X67984411Y-53141151D01*
X67984411Y-53141151D02*
X67793935Y-53141151D01*
X69174887Y-53141151D02*
X68603459Y-53141151D01*
X68889173Y-53141151D02*
X68889173Y-52141151D01*
X68889173Y-52141151D02*
X68793935Y-52284008D01*
X68793935Y-52284008D02*
X68698697Y-52379246D01*
X68698697Y-52379246D02*
X68603459Y-52426865D01*
X45820146Y-57244151D02*
X45486813Y-56767960D01*
X45248718Y-57244151D02*
X45248718Y-56244151D01*
X45248718Y-56244151D02*
X45629670Y-56244151D01*
X45629670Y-56244151D02*
X45724908Y-56291770D01*
X45724908Y-56291770D02*
X45772527Y-56339389D01*
X45772527Y-56339389D02*
X45820146Y-56434627D01*
X45820146Y-56434627D02*
X45820146Y-56577484D01*
X45820146Y-56577484D02*
X45772527Y-56672722D01*
X45772527Y-56672722D02*
X45724908Y-56720341D01*
X45724908Y-56720341D02*
X45629670Y-56767960D01*
X45629670Y-56767960D02*
X45248718Y-56767960D01*
X46677289Y-56244151D02*
X46486813Y-56244151D01*
X46486813Y-56244151D02*
X46391575Y-56291770D01*
X46391575Y-56291770D02*
X46343956Y-56339389D01*
X46343956Y-56339389D02*
X46248718Y-56482246D01*
X46248718Y-56482246D02*
X46201099Y-56672722D01*
X46201099Y-56672722D02*
X46201099Y-57053674D01*
X46201099Y-57053674D02*
X46248718Y-57148912D01*
X46248718Y-57148912D02*
X46296337Y-57196532D01*
X46296337Y-57196532D02*
X46391575Y-57244151D01*
X46391575Y-57244151D02*
X46582051Y-57244151D01*
X46582051Y-57244151D02*
X46677289Y-57196532D01*
X46677289Y-57196532D02*
X46724908Y-57148912D01*
X46724908Y-57148912D02*
X46772527Y-57053674D01*
X46772527Y-57053674D02*
X46772527Y-56815579D01*
X46772527Y-56815579D02*
X46724908Y-56720341D01*
X46724908Y-56720341D02*
X46677289Y-56672722D01*
X46677289Y-56672722D02*
X46582051Y-56625103D01*
X46582051Y-56625103D02*
X46391575Y-56625103D01*
X46391575Y-56625103D02*
X46296337Y-56672722D01*
X46296337Y-56672722D02*
X46248718Y-56720341D01*
X46248718Y-56720341D02*
X46201099Y-56815579D01*
X27143197Y-55382968D02*
X27095578Y-55430588D01*
X27095578Y-55430588D02*
X26952721Y-55478207D01*
X26952721Y-55478207D02*
X26857483Y-55478207D01*
X26857483Y-55478207D02*
X26714626Y-55430588D01*
X26714626Y-55430588D02*
X26619388Y-55335349D01*
X26619388Y-55335349D02*
X26571769Y-55240111D01*
X26571769Y-55240111D02*
X26524150Y-55049635D01*
X26524150Y-55049635D02*
X26524150Y-54906778D01*
X26524150Y-54906778D02*
X26571769Y-54716302D01*
X26571769Y-54716302D02*
X26619388Y-54621064D01*
X26619388Y-54621064D02*
X26714626Y-54525826D01*
X26714626Y-54525826D02*
X26857483Y-54478207D01*
X26857483Y-54478207D02*
X26952721Y-54478207D01*
X26952721Y-54478207D02*
X27095578Y-54525826D01*
X27095578Y-54525826D02*
X27143197Y-54573445D01*
X27714626Y-54906778D02*
X27619388Y-54859159D01*
X27619388Y-54859159D02*
X27571769Y-54811540D01*
X27571769Y-54811540D02*
X27524150Y-54716302D01*
X27524150Y-54716302D02*
X27524150Y-54668683D01*
X27524150Y-54668683D02*
X27571769Y-54573445D01*
X27571769Y-54573445D02*
X27619388Y-54525826D01*
X27619388Y-54525826D02*
X27714626Y-54478207D01*
X27714626Y-54478207D02*
X27905102Y-54478207D01*
X27905102Y-54478207D02*
X28000340Y-54525826D01*
X28000340Y-54525826D02*
X28047959Y-54573445D01*
X28047959Y-54573445D02*
X28095578Y-54668683D01*
X28095578Y-54668683D02*
X28095578Y-54716302D01*
X28095578Y-54716302D02*
X28047959Y-54811540D01*
X28047959Y-54811540D02*
X28000340Y-54859159D01*
X28000340Y-54859159D02*
X27905102Y-54906778D01*
X27905102Y-54906778D02*
X27714626Y-54906778D01*
X27714626Y-54906778D02*
X27619388Y-54954397D01*
X27619388Y-54954397D02*
X27571769Y-55002016D01*
X27571769Y-55002016D02*
X27524150Y-55097254D01*
X27524150Y-55097254D02*
X27524150Y-55287730D01*
X27524150Y-55287730D02*
X27571769Y-55382968D01*
X27571769Y-55382968D02*
X27619388Y-55430588D01*
X27619388Y-55430588D02*
X27714626Y-55478207D01*
X27714626Y-55478207D02*
X27905102Y-55478207D01*
X27905102Y-55478207D02*
X28000340Y-55430588D01*
X28000340Y-55430588D02*
X28047959Y-55382968D01*
X28047959Y-55382968D02*
X28095578Y-55287730D01*
X28095578Y-55287730D02*
X28095578Y-55097254D01*
X28095578Y-55097254D02*
X28047959Y-55002016D01*
X28047959Y-55002016D02*
X28000340Y-54954397D01*
X28000340Y-54954397D02*
X27905102Y-54906778D01*
X60628159Y-36012645D02*
X60294826Y-35536454D01*
X60056731Y-36012645D02*
X60056731Y-35012645D01*
X60056731Y-35012645D02*
X60437683Y-35012645D01*
X60437683Y-35012645D02*
X60532921Y-35060264D01*
X60532921Y-35060264D02*
X60580540Y-35107883D01*
X60580540Y-35107883D02*
X60628159Y-35203121D01*
X60628159Y-35203121D02*
X60628159Y-35345978D01*
X60628159Y-35345978D02*
X60580540Y-35441216D01*
X60580540Y-35441216D02*
X60532921Y-35488835D01*
X60532921Y-35488835D02*
X60437683Y-35536454D01*
X60437683Y-35536454D02*
X60056731Y-35536454D01*
X61104350Y-36012645D02*
X61294826Y-36012645D01*
X61294826Y-36012645D02*
X61390064Y-35965026D01*
X61390064Y-35965026D02*
X61437683Y-35917406D01*
X61437683Y-35917406D02*
X61532921Y-35774549D01*
X61532921Y-35774549D02*
X61580540Y-35584073D01*
X61580540Y-35584073D02*
X61580540Y-35203121D01*
X61580540Y-35203121D02*
X61532921Y-35107883D01*
X61532921Y-35107883D02*
X61485302Y-35060264D01*
X61485302Y-35060264D02*
X61390064Y-35012645D01*
X61390064Y-35012645D02*
X61199588Y-35012645D01*
X61199588Y-35012645D02*
X61104350Y-35060264D01*
X61104350Y-35060264D02*
X61056731Y-35107883D01*
X61056731Y-35107883D02*
X61009112Y-35203121D01*
X61009112Y-35203121D02*
X61009112Y-35441216D01*
X61009112Y-35441216D02*
X61056731Y-35536454D01*
X61056731Y-35536454D02*
X61104350Y-35584073D01*
X61104350Y-35584073D02*
X61199588Y-35631692D01*
X61199588Y-35631692D02*
X61390064Y-35631692D01*
X61390064Y-35631692D02*
X61485302Y-35584073D01*
X61485302Y-35584073D02*
X61532921Y-35536454D01*
X61532921Y-35536454D02*
X61580540Y-35441216D01*
X78901776Y-53236389D02*
X78806538Y-53188770D01*
X78806538Y-53188770D02*
X78711300Y-53093532D01*
X78711300Y-53093532D02*
X78568443Y-52950674D01*
X78568443Y-52950674D02*
X78473205Y-52903055D01*
X78473205Y-52903055D02*
X78377967Y-52903055D01*
X78425586Y-53141151D02*
X78330348Y-53093532D01*
X78330348Y-53093532D02*
X78235110Y-52998293D01*
X78235110Y-52998293D02*
X78187491Y-52807817D01*
X78187491Y-52807817D02*
X78187491Y-52474484D01*
X78187491Y-52474484D02*
X78235110Y-52284008D01*
X78235110Y-52284008D02*
X78330348Y-52188770D01*
X78330348Y-52188770D02*
X78425586Y-52141151D01*
X78425586Y-52141151D02*
X78616062Y-52141151D01*
X78616062Y-52141151D02*
X78711300Y-52188770D01*
X78711300Y-52188770D02*
X78806538Y-52284008D01*
X78806538Y-52284008D02*
X78854157Y-52474484D01*
X78854157Y-52474484D02*
X78854157Y-52807817D01*
X78854157Y-52807817D02*
X78806538Y-52998293D01*
X78806538Y-52998293D02*
X78711300Y-53093532D01*
X78711300Y-53093532D02*
X78616062Y-53141151D01*
X78616062Y-53141151D02*
X78425586Y-53141151D01*
X79235110Y-52236389D02*
X79282729Y-52188770D01*
X79282729Y-52188770D02*
X79377967Y-52141151D01*
X79377967Y-52141151D02*
X79616062Y-52141151D01*
X79616062Y-52141151D02*
X79711300Y-52188770D01*
X79711300Y-52188770D02*
X79758919Y-52236389D01*
X79758919Y-52236389D02*
X79806538Y-52331627D01*
X79806538Y-52331627D02*
X79806538Y-52426865D01*
X79806538Y-52426865D02*
X79758919Y-52569722D01*
X79758919Y-52569722D02*
X79187491Y-53141151D01*
X79187491Y-53141151D02*
X79806538Y-53141151D01*
X31472697Y-69473151D02*
X31139364Y-68996960D01*
X30901269Y-69473151D02*
X30901269Y-68473151D01*
X30901269Y-68473151D02*
X31282221Y-68473151D01*
X31282221Y-68473151D02*
X31377459Y-68520770D01*
X31377459Y-68520770D02*
X31425078Y-68568389D01*
X31425078Y-68568389D02*
X31472697Y-68663627D01*
X31472697Y-68663627D02*
X31472697Y-68806484D01*
X31472697Y-68806484D02*
X31425078Y-68901722D01*
X31425078Y-68901722D02*
X31377459Y-68949341D01*
X31377459Y-68949341D02*
X31282221Y-68996960D01*
X31282221Y-68996960D02*
X30901269Y-68996960D01*
X31806031Y-68473151D02*
X32425078Y-68473151D01*
X32425078Y-68473151D02*
X32091745Y-68854103D01*
X32091745Y-68854103D02*
X32234602Y-68854103D01*
X32234602Y-68854103D02*
X32329840Y-68901722D01*
X32329840Y-68901722D02*
X32377459Y-68949341D01*
X32377459Y-68949341D02*
X32425078Y-69044579D01*
X32425078Y-69044579D02*
X32425078Y-69282674D01*
X32425078Y-69282674D02*
X32377459Y-69377912D01*
X32377459Y-69377912D02*
X32329840Y-69425532D01*
X32329840Y-69425532D02*
X32234602Y-69473151D01*
X32234602Y-69473151D02*
X31948888Y-69473151D01*
X31948888Y-69473151D02*
X31853650Y-69425532D01*
X31853650Y-69425532D02*
X31806031Y-69377912D01*
X79265459Y-13861151D02*
X79265459Y-14670674D01*
X79265459Y-14670674D02*
X79313078Y-14765912D01*
X79313078Y-14765912D02*
X79360697Y-14813532D01*
X79360697Y-14813532D02*
X79455935Y-14861151D01*
X79455935Y-14861151D02*
X79646411Y-14861151D01*
X79646411Y-14861151D02*
X79741649Y-14813532D01*
X79741649Y-14813532D02*
X79789268Y-14765912D01*
X79789268Y-14765912D02*
X79836887Y-14670674D01*
X79836887Y-14670674D02*
X79836887Y-13861151D01*
X80741649Y-13861151D02*
X80551173Y-13861151D01*
X80551173Y-13861151D02*
X80455935Y-13908770D01*
X80455935Y-13908770D02*
X80408316Y-13956389D01*
X80408316Y-13956389D02*
X80313078Y-14099246D01*
X80313078Y-14099246D02*
X80265459Y-14289722D01*
X80265459Y-14289722D02*
X80265459Y-14670674D01*
X80265459Y-14670674D02*
X80313078Y-14765912D01*
X80313078Y-14765912D02*
X80360697Y-14813532D01*
X80360697Y-14813532D02*
X80455935Y-14861151D01*
X80455935Y-14861151D02*
X80646411Y-14861151D01*
X80646411Y-14861151D02*
X80741649Y-14813532D01*
X80741649Y-14813532D02*
X80789268Y-14765912D01*
X80789268Y-14765912D02*
X80836887Y-14670674D01*
X80836887Y-14670674D02*
X80836887Y-14432579D01*
X80836887Y-14432579D02*
X80789268Y-14337341D01*
X80789268Y-14337341D02*
X80741649Y-14289722D01*
X80741649Y-14289722D02*
X80646411Y-14242103D01*
X80646411Y-14242103D02*
X80455935Y-14242103D01*
X80455935Y-14242103D02*
X80360697Y-14289722D01*
X80360697Y-14289722D02*
X80313078Y-14337341D01*
X80313078Y-14337341D02*
X80265459Y-14432579D01*
X35444030Y-14301341D02*
X35110697Y-14301341D01*
X35110697Y-14825151D02*
X35110697Y-13825151D01*
X35110697Y-13825151D02*
X35586887Y-13825151D01*
X36491649Y-14825151D02*
X35920221Y-14825151D01*
X36205935Y-14825151D02*
X36205935Y-13825151D01*
X36205935Y-13825151D02*
X36110697Y-13968008D01*
X36110697Y-13968008D02*
X36015459Y-14063246D01*
X36015459Y-14063246D02*
X35920221Y-14110865D01*
X78000506Y-59754151D02*
X77667173Y-59277960D01*
X77429078Y-59754151D02*
X77429078Y-58754151D01*
X77429078Y-58754151D02*
X77810030Y-58754151D01*
X77810030Y-58754151D02*
X77905268Y-58801770D01*
X77905268Y-58801770D02*
X77952887Y-58849389D01*
X77952887Y-58849389D02*
X78000506Y-58944627D01*
X78000506Y-58944627D02*
X78000506Y-59087484D01*
X78000506Y-59087484D02*
X77952887Y-59182722D01*
X77952887Y-59182722D02*
X77905268Y-59230341D01*
X77905268Y-59230341D02*
X77810030Y-59277960D01*
X77810030Y-59277960D02*
X77429078Y-59277960D01*
X78952887Y-59754151D02*
X78381459Y-59754151D01*
X78667173Y-59754151D02*
X78667173Y-58754151D01*
X78667173Y-58754151D02*
X78571935Y-58897008D01*
X78571935Y-58897008D02*
X78476697Y-58992246D01*
X78476697Y-58992246D02*
X78381459Y-59039865D01*
X79286221Y-58754151D02*
X79952887Y-58754151D01*
X79952887Y-58754151D02*
X79524316Y-59754151D01*
X59989697Y-39045151D02*
X59656364Y-38568960D01*
X59418269Y-39045151D02*
X59418269Y-38045151D01*
X59418269Y-38045151D02*
X59799221Y-38045151D01*
X59799221Y-38045151D02*
X59894459Y-38092770D01*
X59894459Y-38092770D02*
X59942078Y-38140389D01*
X59942078Y-38140389D02*
X59989697Y-38235627D01*
X59989697Y-38235627D02*
X59989697Y-38378484D01*
X59989697Y-38378484D02*
X59942078Y-38473722D01*
X59942078Y-38473722D02*
X59894459Y-38521341D01*
X59894459Y-38521341D02*
X59799221Y-38568960D01*
X59799221Y-38568960D02*
X59418269Y-38568960D01*
X60323031Y-38045151D02*
X60989697Y-38045151D01*
X60989697Y-38045151D02*
X60561126Y-39045151D01*
X20273197Y-59630207D02*
X19939864Y-59154016D01*
X19701769Y-59630207D02*
X19701769Y-58630207D01*
X19701769Y-58630207D02*
X20082721Y-58630207D01*
X20082721Y-58630207D02*
X20177959Y-58677826D01*
X20177959Y-58677826D02*
X20225578Y-58725445D01*
X20225578Y-58725445D02*
X20273197Y-58820683D01*
X20273197Y-58820683D02*
X20273197Y-58963540D01*
X20273197Y-58963540D02*
X20225578Y-59058778D01*
X20225578Y-59058778D02*
X20177959Y-59106397D01*
X20177959Y-59106397D02*
X20082721Y-59154016D01*
X20082721Y-59154016D02*
X19701769Y-59154016D01*
X21225578Y-59630207D02*
X20654150Y-59630207D01*
X20939864Y-59630207D02*
X20939864Y-58630207D01*
X20939864Y-58630207D02*
X20844626Y-58773064D01*
X20844626Y-58773064D02*
X20749388Y-58868302D01*
X20749388Y-58868302D02*
X20654150Y-58915921D01*
X61992761Y-76987057D02*
X61897523Y-76939438D01*
X61897523Y-76939438D02*
X61802285Y-76844200D01*
X61802285Y-76844200D02*
X61659428Y-76701342D01*
X61659428Y-76701342D02*
X61564190Y-76653723D01*
X61564190Y-76653723D02*
X61468952Y-76653723D01*
X61516571Y-76891819D02*
X61421333Y-76844200D01*
X61421333Y-76844200D02*
X61326095Y-76748961D01*
X61326095Y-76748961D02*
X61278476Y-76558485D01*
X61278476Y-76558485D02*
X61278476Y-76225152D01*
X61278476Y-76225152D02*
X61326095Y-76034676D01*
X61326095Y-76034676D02*
X61421333Y-75939438D01*
X61421333Y-75939438D02*
X61516571Y-75891819D01*
X61516571Y-75891819D02*
X61707047Y-75891819D01*
X61707047Y-75891819D02*
X61802285Y-75939438D01*
X61802285Y-75939438D02*
X61897523Y-76034676D01*
X61897523Y-76034676D02*
X61945142Y-76225152D01*
X61945142Y-76225152D02*
X61945142Y-76558485D01*
X61945142Y-76558485D02*
X61897523Y-76748961D01*
X61897523Y-76748961D02*
X61802285Y-76844200D01*
X61802285Y-76844200D02*
X61707047Y-76891819D01*
X61707047Y-76891819D02*
X61516571Y-76891819D01*
X62278476Y-75891819D02*
X62897523Y-75891819D01*
X62897523Y-75891819D02*
X62564190Y-76272771D01*
X62564190Y-76272771D02*
X62707047Y-76272771D01*
X62707047Y-76272771D02*
X62802285Y-76320390D01*
X62802285Y-76320390D02*
X62849904Y-76368009D01*
X62849904Y-76368009D02*
X62897523Y-76463247D01*
X62897523Y-76463247D02*
X62897523Y-76701342D01*
X62897523Y-76701342D02*
X62849904Y-76796580D01*
X62849904Y-76796580D02*
X62802285Y-76844200D01*
X62802285Y-76844200D02*
X62707047Y-76891819D01*
X62707047Y-76891819D02*
X62421333Y-76891819D01*
X62421333Y-76891819D02*
X62326095Y-76844200D01*
X62326095Y-76844200D02*
X62278476Y-76796580D01*
X32043944Y-67425998D02*
X32091564Y-67473617D01*
X32091564Y-67473617D02*
X32139183Y-67616474D01*
X32139183Y-67616474D02*
X32139183Y-67711712D01*
X32139183Y-67711712D02*
X32091564Y-67854569D01*
X32091564Y-67854569D02*
X31996325Y-67949807D01*
X31996325Y-67949807D02*
X31901087Y-67997426D01*
X31901087Y-67997426D02*
X31710611Y-68045045D01*
X31710611Y-68045045D02*
X31567754Y-68045045D01*
X31567754Y-68045045D02*
X31377278Y-67997426D01*
X31377278Y-67997426D02*
X31282040Y-67949807D01*
X31282040Y-67949807D02*
X31186802Y-67854569D01*
X31186802Y-67854569D02*
X31139183Y-67711712D01*
X31139183Y-67711712D02*
X31139183Y-67616474D01*
X31139183Y-67616474D02*
X31186802Y-67473617D01*
X31186802Y-67473617D02*
X31234421Y-67425998D01*
X31139183Y-66521236D02*
X31139183Y-66997426D01*
X31139183Y-66997426D02*
X31615373Y-67045045D01*
X31615373Y-67045045D02*
X31567754Y-66997426D01*
X31567754Y-66997426D02*
X31520135Y-66902188D01*
X31520135Y-66902188D02*
X31520135Y-66664093D01*
X31520135Y-66664093D02*
X31567754Y-66568855D01*
X31567754Y-66568855D02*
X31615373Y-66521236D01*
X31615373Y-66521236D02*
X31710611Y-66473617D01*
X31710611Y-66473617D02*
X31948706Y-66473617D01*
X31948706Y-66473617D02*
X32043944Y-66521236D01*
X32043944Y-66521236D02*
X32091564Y-66568855D01*
X32091564Y-66568855D02*
X32139183Y-66664093D01*
X32139183Y-66664093D02*
X32139183Y-66902188D01*
X32139183Y-66902188D02*
X32091564Y-66997426D01*
X32091564Y-66997426D02*
X32043944Y-67045045D01*
X51349546Y-34827009D02*
X51301927Y-34874629D01*
X51301927Y-34874629D02*
X51159070Y-34922248D01*
X51159070Y-34922248D02*
X51063832Y-34922248D01*
X51063832Y-34922248D02*
X50920975Y-34874629D01*
X50920975Y-34874629D02*
X50825737Y-34779390D01*
X50825737Y-34779390D02*
X50778118Y-34684152D01*
X50778118Y-34684152D02*
X50730499Y-34493676D01*
X50730499Y-34493676D02*
X50730499Y-34350819D01*
X50730499Y-34350819D02*
X50778118Y-34160343D01*
X50778118Y-34160343D02*
X50825737Y-34065105D01*
X50825737Y-34065105D02*
X50920975Y-33969867D01*
X50920975Y-33969867D02*
X51063832Y-33922248D01*
X51063832Y-33922248D02*
X51159070Y-33922248D01*
X51159070Y-33922248D02*
X51301927Y-33969867D01*
X51301927Y-33969867D02*
X51349546Y-34017486D01*
X51682880Y-33922248D02*
X52349546Y-33922248D01*
X52349546Y-33922248D02*
X51920975Y-34922248D01*
X54066769Y-71020151D02*
X54066769Y-70020151D01*
X54066769Y-70020151D02*
X54304864Y-70020151D01*
X54304864Y-70020151D02*
X54447721Y-70067770D01*
X54447721Y-70067770D02*
X54542959Y-70163008D01*
X54542959Y-70163008D02*
X54590578Y-70258246D01*
X54590578Y-70258246D02*
X54638197Y-70448722D01*
X54638197Y-70448722D02*
X54638197Y-70591579D01*
X54638197Y-70591579D02*
X54590578Y-70782055D01*
X54590578Y-70782055D02*
X54542959Y-70877293D01*
X54542959Y-70877293D02*
X54447721Y-70972532D01*
X54447721Y-70972532D02*
X54304864Y-71020151D01*
X54304864Y-71020151D02*
X54066769Y-71020151D01*
X55019150Y-70115389D02*
X55066769Y-70067770D01*
X55066769Y-70067770D02*
X55162007Y-70020151D01*
X55162007Y-70020151D02*
X55400102Y-70020151D01*
X55400102Y-70020151D02*
X55495340Y-70067770D01*
X55495340Y-70067770D02*
X55542959Y-70115389D01*
X55542959Y-70115389D02*
X55590578Y-70210627D01*
X55590578Y-70210627D02*
X55590578Y-70305865D01*
X55590578Y-70305865D02*
X55542959Y-70448722D01*
X55542959Y-70448722D02*
X54971531Y-71020151D01*
X54971531Y-71020151D02*
X55590578Y-71020151D01*
X52610506Y-27489313D02*
X52562887Y-27536933D01*
X52562887Y-27536933D02*
X52420030Y-27584552D01*
X52420030Y-27584552D02*
X52324792Y-27584552D01*
X52324792Y-27584552D02*
X52181935Y-27536933D01*
X52181935Y-27536933D02*
X52086697Y-27441694D01*
X52086697Y-27441694D02*
X52039078Y-27346456D01*
X52039078Y-27346456D02*
X51991459Y-27155980D01*
X51991459Y-27155980D02*
X51991459Y-27013123D01*
X51991459Y-27013123D02*
X52039078Y-26822647D01*
X52039078Y-26822647D02*
X52086697Y-26727409D01*
X52086697Y-26727409D02*
X52181935Y-26632171D01*
X52181935Y-26632171D02*
X52324792Y-26584552D01*
X52324792Y-26584552D02*
X52420030Y-26584552D01*
X52420030Y-26584552D02*
X52562887Y-26632171D01*
X52562887Y-26632171D02*
X52610506Y-26679790D01*
X53562887Y-27584552D02*
X52991459Y-27584552D01*
X53277173Y-27584552D02*
X53277173Y-26584552D01*
X53277173Y-26584552D02*
X53181935Y-26727409D01*
X53181935Y-26727409D02*
X53086697Y-26822647D01*
X53086697Y-26822647D02*
X52991459Y-26870266D01*
X53896221Y-26584552D02*
X54562887Y-26584552D01*
X54562887Y-26584552D02*
X54134316Y-27584552D01*
X68431459Y-13861151D02*
X68431459Y-14670674D01*
X68431459Y-14670674D02*
X68479078Y-14765912D01*
X68479078Y-14765912D02*
X68526697Y-14813532D01*
X68526697Y-14813532D02*
X68621935Y-14861151D01*
X68621935Y-14861151D02*
X68812411Y-14861151D01*
X68812411Y-14861151D02*
X68907649Y-14813532D01*
X68907649Y-14813532D02*
X68955268Y-14765912D01*
X68955268Y-14765912D02*
X69002887Y-14670674D01*
X69002887Y-14670674D02*
X69002887Y-13861151D01*
X69955268Y-13861151D02*
X69479078Y-13861151D01*
X69479078Y-13861151D02*
X69431459Y-14337341D01*
X69431459Y-14337341D02*
X69479078Y-14289722D01*
X69479078Y-14289722D02*
X69574316Y-14242103D01*
X69574316Y-14242103D02*
X69812411Y-14242103D01*
X69812411Y-14242103D02*
X69907649Y-14289722D01*
X69907649Y-14289722D02*
X69955268Y-14337341D01*
X69955268Y-14337341D02*
X70002887Y-14432579D01*
X70002887Y-14432579D02*
X70002887Y-14670674D01*
X70002887Y-14670674D02*
X69955268Y-14765912D01*
X69955268Y-14765912D02*
X69907649Y-14813532D01*
X69907649Y-14813532D02*
X69812411Y-14861151D01*
X69812411Y-14861151D02*
X69574316Y-14861151D01*
X69574316Y-14861151D02*
X69479078Y-14813532D01*
X69479078Y-14813532D02*
X69431459Y-14765912D01*
X27801506Y-66509151D02*
X27468173Y-66032960D01*
X27230078Y-66509151D02*
X27230078Y-65509151D01*
X27230078Y-65509151D02*
X27611030Y-65509151D01*
X27611030Y-65509151D02*
X27706268Y-65556770D01*
X27706268Y-65556770D02*
X27753887Y-65604389D01*
X27753887Y-65604389D02*
X27801506Y-65699627D01*
X27801506Y-65699627D02*
X27801506Y-65842484D01*
X27801506Y-65842484D02*
X27753887Y-65937722D01*
X27753887Y-65937722D02*
X27706268Y-65985341D01*
X27706268Y-65985341D02*
X27611030Y-66032960D01*
X27611030Y-66032960D02*
X27230078Y-66032960D01*
X28182459Y-65604389D02*
X28230078Y-65556770D01*
X28230078Y-65556770D02*
X28325316Y-65509151D01*
X28325316Y-65509151D02*
X28563411Y-65509151D01*
X28563411Y-65509151D02*
X28658649Y-65556770D01*
X28658649Y-65556770D02*
X28706268Y-65604389D01*
X28706268Y-65604389D02*
X28753887Y-65699627D01*
X28753887Y-65699627D02*
X28753887Y-65794865D01*
X28753887Y-65794865D02*
X28706268Y-65937722D01*
X28706268Y-65937722D02*
X28134840Y-66509151D01*
X28134840Y-66509151D02*
X28753887Y-66509151D01*
X29087221Y-65509151D02*
X29706268Y-65509151D01*
X29706268Y-65509151D02*
X29372935Y-65890103D01*
X29372935Y-65890103D02*
X29515792Y-65890103D01*
X29515792Y-65890103D02*
X29611030Y-65937722D01*
X29611030Y-65937722D02*
X29658649Y-65985341D01*
X29658649Y-65985341D02*
X29706268Y-66080579D01*
X29706268Y-66080579D02*
X29706268Y-66318674D01*
X29706268Y-66318674D02*
X29658649Y-66413912D01*
X29658649Y-66413912D02*
X29611030Y-66461532D01*
X29611030Y-66461532D02*
X29515792Y-66509151D01*
X29515792Y-66509151D02*
X29230078Y-66509151D01*
X29230078Y-66509151D02*
X29134840Y-66461532D01*
X29134840Y-66461532D02*
X29087221Y-66413912D01*
X22500459Y-64341151D02*
X22500459Y-65150674D01*
X22500459Y-65150674D02*
X22548078Y-65245912D01*
X22548078Y-65245912D02*
X22595697Y-65293532D01*
X22595697Y-65293532D02*
X22690935Y-65341151D01*
X22690935Y-65341151D02*
X22881411Y-65341151D01*
X22881411Y-65341151D02*
X22976649Y-65293532D01*
X22976649Y-65293532D02*
X23024268Y-65245912D01*
X23024268Y-65245912D02*
X23071887Y-65150674D01*
X23071887Y-65150674D02*
X23071887Y-64341151D01*
X23500459Y-64436389D02*
X23548078Y-64388770D01*
X23548078Y-64388770D02*
X23643316Y-64341151D01*
X23643316Y-64341151D02*
X23881411Y-64341151D01*
X23881411Y-64341151D02*
X23976649Y-64388770D01*
X23976649Y-64388770D02*
X24024268Y-64436389D01*
X24024268Y-64436389D02*
X24071887Y-64531627D01*
X24071887Y-64531627D02*
X24071887Y-64626865D01*
X24071887Y-64626865D02*
X24024268Y-64769722D01*
X24024268Y-64769722D02*
X23452840Y-65341151D01*
X23452840Y-65341151D02*
X24071887Y-65341151D01*
X95293944Y-21760538D02*
X95341564Y-21808157D01*
X95341564Y-21808157D02*
X95389183Y-21951014D01*
X95389183Y-21951014D02*
X95389183Y-22046252D01*
X95389183Y-22046252D02*
X95341564Y-22189109D01*
X95341564Y-22189109D02*
X95246325Y-22284347D01*
X95246325Y-22284347D02*
X95151087Y-22331966D01*
X95151087Y-22331966D02*
X94960611Y-22379585D01*
X94960611Y-22379585D02*
X94817754Y-22379585D01*
X94817754Y-22379585D02*
X94627278Y-22331966D01*
X94627278Y-22331966D02*
X94532040Y-22284347D01*
X94532040Y-22284347D02*
X94436802Y-22189109D01*
X94436802Y-22189109D02*
X94389183Y-22046252D01*
X94389183Y-22046252D02*
X94389183Y-21951014D01*
X94389183Y-21951014D02*
X94436802Y-21808157D01*
X94436802Y-21808157D02*
X94484421Y-21760538D01*
X95389183Y-20808157D02*
X95389183Y-21379585D01*
X95389183Y-21093871D02*
X94389183Y-21093871D01*
X94389183Y-21093871D02*
X94532040Y-21189109D01*
X94532040Y-21189109D02*
X94627278Y-21284347D01*
X94627278Y-21284347D02*
X94674897Y-21379585D01*
X95389183Y-20331966D02*
X95389183Y-20141490D01*
X95389183Y-20141490D02*
X95341564Y-20046252D01*
X95341564Y-20046252D02*
X95293944Y-19998633D01*
X95293944Y-19998633D02*
X95151087Y-19903395D01*
X95151087Y-19903395D02*
X94960611Y-19855776D01*
X94960611Y-19855776D02*
X94579659Y-19855776D01*
X94579659Y-19855776D02*
X94484421Y-19903395D01*
X94484421Y-19903395D02*
X94436802Y-19951014D01*
X94436802Y-19951014D02*
X94389183Y-20046252D01*
X94389183Y-20046252D02*
X94389183Y-20236728D01*
X94389183Y-20236728D02*
X94436802Y-20331966D01*
X94436802Y-20331966D02*
X94484421Y-20379585D01*
X94484421Y-20379585D02*
X94579659Y-20427204D01*
X94579659Y-20427204D02*
X94817754Y-20427204D01*
X94817754Y-20427204D02*
X94912992Y-20379585D01*
X94912992Y-20379585D02*
X94960611Y-20331966D01*
X94960611Y-20331966D02*
X95008230Y-20236728D01*
X95008230Y-20236728D02*
X95008230Y-20046252D01*
X95008230Y-20046252D02*
X94960611Y-19951014D01*
X94960611Y-19951014D02*
X94912992Y-19903395D01*
X94912992Y-19903395D02*
X94817754Y-19855776D01*
X21585819Y-39468333D02*
X21109628Y-39801666D01*
X21585819Y-40039761D02*
X20585819Y-40039761D01*
X20585819Y-40039761D02*
X20585819Y-39658809D01*
X20585819Y-39658809D02*
X20633438Y-39563571D01*
X20633438Y-39563571D02*
X20681057Y-39515952D01*
X20681057Y-39515952D02*
X20776295Y-39468333D01*
X20776295Y-39468333D02*
X20919152Y-39468333D01*
X20919152Y-39468333D02*
X21014390Y-39515952D01*
X21014390Y-39515952D02*
X21062009Y-39563571D01*
X21062009Y-39563571D02*
X21109628Y-39658809D01*
X21109628Y-39658809D02*
X21109628Y-40039761D01*
X21062009Y-39039761D02*
X21062009Y-38706428D01*
X21585819Y-38563571D02*
X21585819Y-39039761D01*
X21585819Y-39039761D02*
X20585819Y-39039761D01*
X20585819Y-39039761D02*
X20585819Y-38563571D01*
X21062009Y-37801666D02*
X21062009Y-38134999D01*
X21585819Y-38134999D02*
X20585819Y-38134999D01*
X20585819Y-38134999D02*
X20585819Y-37658809D01*
X20585819Y-37134999D02*
X20823914Y-37134999D01*
X20728676Y-37373094D02*
X20823914Y-37134999D01*
X20823914Y-37134999D02*
X20728676Y-36896904D01*
X21014390Y-37277856D02*
X20823914Y-37134999D01*
X20823914Y-37134999D02*
X21014390Y-36992142D01*
X20585819Y-36373094D02*
X20823914Y-36373094D01*
X20728676Y-36611189D02*
X20823914Y-36373094D01*
X20823914Y-36373094D02*
X20728676Y-36134999D01*
X21014390Y-36515951D02*
X20823914Y-36373094D01*
X20823914Y-36373094D02*
X21014390Y-36230237D01*
X32799896Y-61488421D02*
X32799896Y-62297944D01*
X32799896Y-62297944D02*
X32847515Y-62393182D01*
X32847515Y-62393182D02*
X32895134Y-62440802D01*
X32895134Y-62440802D02*
X32990372Y-62488421D01*
X32990372Y-62488421D02*
X33180848Y-62488421D01*
X33180848Y-62488421D02*
X33276086Y-62440802D01*
X33276086Y-62440802D02*
X33323705Y-62393182D01*
X33323705Y-62393182D02*
X33371324Y-62297944D01*
X33371324Y-62297944D02*
X33371324Y-61488421D01*
X34276086Y-61821754D02*
X34276086Y-62488421D01*
X34037991Y-61440802D02*
X33799896Y-62155087D01*
X33799896Y-62155087D02*
X34418943Y-62155087D01*
X31423771Y-51928421D02*
X31423771Y-52737944D01*
X31423771Y-52737944D02*
X31471390Y-52833182D01*
X31471390Y-52833182D02*
X31519009Y-52880802D01*
X31519009Y-52880802D02*
X31614247Y-52928421D01*
X31614247Y-52928421D02*
X31804723Y-52928421D01*
X31804723Y-52928421D02*
X31899961Y-52880802D01*
X31899961Y-52880802D02*
X31947580Y-52833182D01*
X31947580Y-52833182D02*
X31995199Y-52737944D01*
X31995199Y-52737944D02*
X31995199Y-51928421D01*
X32995199Y-52928421D02*
X32423771Y-52928421D01*
X32709485Y-52928421D02*
X32709485Y-51928421D01*
X32709485Y-51928421D02*
X32614247Y-52071278D01*
X32614247Y-52071278D02*
X32519009Y-52166516D01*
X32519009Y-52166516D02*
X32423771Y-52214135D01*
X59416760Y-61905151D02*
X59083427Y-61428960D01*
X58845332Y-61905151D02*
X58845332Y-60905151D01*
X58845332Y-60905151D02*
X59226284Y-60905151D01*
X59226284Y-60905151D02*
X59321522Y-60952770D01*
X59321522Y-60952770D02*
X59369141Y-61000389D01*
X59369141Y-61000389D02*
X59416760Y-61095627D01*
X59416760Y-61095627D02*
X59416760Y-61238484D01*
X59416760Y-61238484D02*
X59369141Y-61333722D01*
X59369141Y-61333722D02*
X59321522Y-61381341D01*
X59321522Y-61381341D02*
X59226284Y-61428960D01*
X59226284Y-61428960D02*
X58845332Y-61428960D01*
X60369141Y-61905151D02*
X59797713Y-61905151D01*
X60083427Y-61905151D02*
X60083427Y-60905151D01*
X60083427Y-60905151D02*
X59988189Y-61048008D01*
X59988189Y-61048008D02*
X59892951Y-61143246D01*
X59892951Y-61143246D02*
X59797713Y-61190865D01*
X60845332Y-61905151D02*
X61035808Y-61905151D01*
X61035808Y-61905151D02*
X61131046Y-61857532D01*
X61131046Y-61857532D02*
X61178665Y-61809912D01*
X61178665Y-61809912D02*
X61273903Y-61667055D01*
X61273903Y-61667055D02*
X61321522Y-61476579D01*
X61321522Y-61476579D02*
X61321522Y-61095627D01*
X61321522Y-61095627D02*
X61273903Y-61000389D01*
X61273903Y-61000389D02*
X61226284Y-60952770D01*
X61226284Y-60952770D02*
X61131046Y-60905151D01*
X61131046Y-60905151D02*
X60940570Y-60905151D01*
X60940570Y-60905151D02*
X60845332Y-60952770D01*
X60845332Y-60952770D02*
X60797713Y-61000389D01*
X60797713Y-61000389D02*
X60750094Y-61095627D01*
X60750094Y-61095627D02*
X60750094Y-61333722D01*
X60750094Y-61333722D02*
X60797713Y-61428960D01*
X60797713Y-61428960D02*
X60845332Y-61476579D01*
X60845332Y-61476579D02*
X60940570Y-61524198D01*
X60940570Y-61524198D02*
X61131046Y-61524198D01*
X61131046Y-61524198D02*
X61226284Y-61476579D01*
X61226284Y-61476579D02*
X61273903Y-61428960D01*
X61273903Y-61428960D02*
X61321522Y-61333722D01*
X55247459Y-37836151D02*
X55247459Y-38645674D01*
X55247459Y-38645674D02*
X55295078Y-38740912D01*
X55295078Y-38740912D02*
X55342697Y-38788532D01*
X55342697Y-38788532D02*
X55437935Y-38836151D01*
X55437935Y-38836151D02*
X55628411Y-38836151D01*
X55628411Y-38836151D02*
X55723649Y-38788532D01*
X55723649Y-38788532D02*
X55771268Y-38740912D01*
X55771268Y-38740912D02*
X55818887Y-38645674D01*
X55818887Y-38645674D02*
X55818887Y-37836151D01*
X56199840Y-37836151D02*
X56818887Y-37836151D01*
X56818887Y-37836151D02*
X56485554Y-38217103D01*
X56485554Y-38217103D02*
X56628411Y-38217103D01*
X56628411Y-38217103D02*
X56723649Y-38264722D01*
X56723649Y-38264722D02*
X56771268Y-38312341D01*
X56771268Y-38312341D02*
X56818887Y-38407579D01*
X56818887Y-38407579D02*
X56818887Y-38645674D01*
X56818887Y-38645674D02*
X56771268Y-38740912D01*
X56771268Y-38740912D02*
X56723649Y-38788532D01*
X56723649Y-38788532D02*
X56628411Y-38836151D01*
X56628411Y-38836151D02*
X56342697Y-38836151D01*
X56342697Y-38836151D02*
X56247459Y-38788532D01*
X56247459Y-38788532D02*
X56199840Y-38740912D01*
X29000200Y-39477332D02*
X29047819Y-39334475D01*
X29047819Y-39334475D02*
X29047819Y-39096380D01*
X29047819Y-39096380D02*
X29000200Y-39001142D01*
X29000200Y-39001142D02*
X28952580Y-38953523D01*
X28952580Y-38953523D02*
X28857342Y-38905904D01*
X28857342Y-38905904D02*
X28762104Y-38905904D01*
X28762104Y-38905904D02*
X28666866Y-38953523D01*
X28666866Y-38953523D02*
X28619247Y-39001142D01*
X28619247Y-39001142D02*
X28571628Y-39096380D01*
X28571628Y-39096380D02*
X28524009Y-39286856D01*
X28524009Y-39286856D02*
X28476390Y-39382094D01*
X28476390Y-39382094D02*
X28428771Y-39429713D01*
X28428771Y-39429713D02*
X28333533Y-39477332D01*
X28333533Y-39477332D02*
X28238295Y-39477332D01*
X28238295Y-39477332D02*
X28143057Y-39429713D01*
X28143057Y-39429713D02*
X28095438Y-39382094D01*
X28095438Y-39382094D02*
X28047819Y-39286856D01*
X28047819Y-39286856D02*
X28047819Y-39048761D01*
X28047819Y-39048761D02*
X28095438Y-38905904D01*
X28047819Y-38572570D02*
X29047819Y-38334475D01*
X29047819Y-38334475D02*
X28333533Y-38143999D01*
X28333533Y-38143999D02*
X29047819Y-37953523D01*
X29047819Y-37953523D02*
X28047819Y-37715428D01*
X29047819Y-36810666D02*
X29047819Y-37382094D01*
X29047819Y-37096380D02*
X28047819Y-37096380D01*
X28047819Y-37096380D02*
X28190676Y-37191618D01*
X28190676Y-37191618D02*
X28285914Y-37286856D01*
X28285914Y-37286856D02*
X28333533Y-37382094D01*
X20312197Y-58110207D02*
X19978864Y-57634016D01*
X19740769Y-58110207D02*
X19740769Y-57110207D01*
X19740769Y-57110207D02*
X20121721Y-57110207D01*
X20121721Y-57110207D02*
X20216959Y-57157826D01*
X20216959Y-57157826D02*
X20264578Y-57205445D01*
X20264578Y-57205445D02*
X20312197Y-57300683D01*
X20312197Y-57300683D02*
X20312197Y-57443540D01*
X20312197Y-57443540D02*
X20264578Y-57538778D01*
X20264578Y-57538778D02*
X20216959Y-57586397D01*
X20216959Y-57586397D02*
X20121721Y-57634016D01*
X20121721Y-57634016D02*
X19740769Y-57634016D01*
X20693150Y-57205445D02*
X20740769Y-57157826D01*
X20740769Y-57157826D02*
X20836007Y-57110207D01*
X20836007Y-57110207D02*
X21074102Y-57110207D01*
X21074102Y-57110207D02*
X21169340Y-57157826D01*
X21169340Y-57157826D02*
X21216959Y-57205445D01*
X21216959Y-57205445D02*
X21264578Y-57300683D01*
X21264578Y-57300683D02*
X21264578Y-57395921D01*
X21264578Y-57395921D02*
X21216959Y-57538778D01*
X21216959Y-57538778D02*
X20645531Y-58110207D01*
X20645531Y-58110207D02*
X21264578Y-58110207D01*
X57416506Y-27564313D02*
X57368887Y-27611933D01*
X57368887Y-27611933D02*
X57226030Y-27659552D01*
X57226030Y-27659552D02*
X57130792Y-27659552D01*
X57130792Y-27659552D02*
X56987935Y-27611933D01*
X56987935Y-27611933D02*
X56892697Y-27516694D01*
X56892697Y-27516694D02*
X56845078Y-27421456D01*
X56845078Y-27421456D02*
X56797459Y-27230980D01*
X56797459Y-27230980D02*
X56797459Y-27088123D01*
X56797459Y-27088123D02*
X56845078Y-26897647D01*
X56845078Y-26897647D02*
X56892697Y-26802409D01*
X56892697Y-26802409D02*
X56987935Y-26707171D01*
X56987935Y-26707171D02*
X57130792Y-26659552D01*
X57130792Y-26659552D02*
X57226030Y-26659552D01*
X57226030Y-26659552D02*
X57368887Y-26707171D01*
X57368887Y-26707171D02*
X57416506Y-26754790D01*
X58368887Y-27659552D02*
X57797459Y-27659552D01*
X58083173Y-27659552D02*
X58083173Y-26659552D01*
X58083173Y-26659552D02*
X57987935Y-26802409D01*
X57987935Y-26802409D02*
X57892697Y-26897647D01*
X57892697Y-26897647D02*
X57797459Y-26945266D01*
X58749840Y-26754790D02*
X58797459Y-26707171D01*
X58797459Y-26707171D02*
X58892697Y-26659552D01*
X58892697Y-26659552D02*
X59130792Y-26659552D01*
X59130792Y-26659552D02*
X59226030Y-26707171D01*
X59226030Y-26707171D02*
X59273649Y-26754790D01*
X59273649Y-26754790D02*
X59321268Y-26850028D01*
X59321268Y-26850028D02*
X59321268Y-26945266D01*
X59321268Y-26945266D02*
X59273649Y-27088123D01*
X59273649Y-27088123D02*
X58702221Y-27659552D01*
X58702221Y-27659552D02*
X59321268Y-27659552D01*
X84820580Y-24608857D02*
X84868200Y-24656476D01*
X84868200Y-24656476D02*
X84915819Y-24799333D01*
X84915819Y-24799333D02*
X84915819Y-24894571D01*
X84915819Y-24894571D02*
X84868200Y-25037428D01*
X84868200Y-25037428D02*
X84772961Y-25132666D01*
X84772961Y-25132666D02*
X84677723Y-25180285D01*
X84677723Y-25180285D02*
X84487247Y-25227904D01*
X84487247Y-25227904D02*
X84344390Y-25227904D01*
X84344390Y-25227904D02*
X84153914Y-25180285D01*
X84153914Y-25180285D02*
X84058676Y-25132666D01*
X84058676Y-25132666D02*
X83963438Y-25037428D01*
X83963438Y-25037428D02*
X83915819Y-24894571D01*
X83915819Y-24894571D02*
X83915819Y-24799333D01*
X83915819Y-24799333D02*
X83963438Y-24656476D01*
X83963438Y-24656476D02*
X84011057Y-24608857D01*
X84011057Y-24227904D02*
X83963438Y-24180285D01*
X83963438Y-24180285D02*
X83915819Y-24085047D01*
X83915819Y-24085047D02*
X83915819Y-23846952D01*
X83915819Y-23846952D02*
X83963438Y-23751714D01*
X83963438Y-23751714D02*
X84011057Y-23704095D01*
X84011057Y-23704095D02*
X84106295Y-23656476D01*
X84106295Y-23656476D02*
X84201533Y-23656476D01*
X84201533Y-23656476D02*
X84344390Y-23704095D01*
X84344390Y-23704095D02*
X84915819Y-24275523D01*
X84915819Y-24275523D02*
X84915819Y-23656476D01*
X83915819Y-23037428D02*
X83915819Y-22942190D01*
X83915819Y-22942190D02*
X83963438Y-22846952D01*
X83963438Y-22846952D02*
X84011057Y-22799333D01*
X84011057Y-22799333D02*
X84106295Y-22751714D01*
X84106295Y-22751714D02*
X84296771Y-22704095D01*
X84296771Y-22704095D02*
X84534866Y-22704095D01*
X84534866Y-22704095D02*
X84725342Y-22751714D01*
X84725342Y-22751714D02*
X84820580Y-22799333D01*
X84820580Y-22799333D02*
X84868200Y-22846952D01*
X84868200Y-22846952D02*
X84915819Y-22942190D01*
X84915819Y-22942190D02*
X84915819Y-23037428D01*
X84915819Y-23037428D02*
X84868200Y-23132666D01*
X84868200Y-23132666D02*
X84820580Y-23180285D01*
X84820580Y-23180285D02*
X84725342Y-23227904D01*
X84725342Y-23227904D02*
X84534866Y-23275523D01*
X84534866Y-23275523D02*
X84296771Y-23275523D01*
X84296771Y-23275523D02*
X84106295Y-23227904D01*
X84106295Y-23227904D02*
X84011057Y-23180285D01*
X84011057Y-23180285D02*
X83963438Y-23132666D01*
X83963438Y-23132666D02*
X83915819Y-23037428D01*
X48773506Y-22699912D02*
X48725887Y-22747532D01*
X48725887Y-22747532D02*
X48583030Y-22795151D01*
X48583030Y-22795151D02*
X48487792Y-22795151D01*
X48487792Y-22795151D02*
X48344935Y-22747532D01*
X48344935Y-22747532D02*
X48249697Y-22652293D01*
X48249697Y-22652293D02*
X48202078Y-22557055D01*
X48202078Y-22557055D02*
X48154459Y-22366579D01*
X48154459Y-22366579D02*
X48154459Y-22223722D01*
X48154459Y-22223722D02*
X48202078Y-22033246D01*
X48202078Y-22033246D02*
X48249697Y-21938008D01*
X48249697Y-21938008D02*
X48344935Y-21842770D01*
X48344935Y-21842770D02*
X48487792Y-21795151D01*
X48487792Y-21795151D02*
X48583030Y-21795151D01*
X48583030Y-21795151D02*
X48725887Y-21842770D01*
X48725887Y-21842770D02*
X48773506Y-21890389D01*
X49725887Y-22795151D02*
X49154459Y-22795151D01*
X49440173Y-22795151D02*
X49440173Y-21795151D01*
X49440173Y-21795151D02*
X49344935Y-21938008D01*
X49344935Y-21938008D02*
X49249697Y-22033246D01*
X49249697Y-22033246D02*
X49154459Y-22080865D01*
X50583030Y-22128484D02*
X50583030Y-22795151D01*
X50344935Y-21747532D02*
X50106840Y-22461817D01*
X50106840Y-22461817D02*
X50725887Y-22461817D01*
X26332944Y-31609189D02*
X26380564Y-31656808D01*
X26380564Y-31656808D02*
X26428183Y-31799665D01*
X26428183Y-31799665D02*
X26428183Y-31894903D01*
X26428183Y-31894903D02*
X26380564Y-32037760D01*
X26380564Y-32037760D02*
X26285325Y-32132998D01*
X26285325Y-32132998D02*
X26190087Y-32180617D01*
X26190087Y-32180617D02*
X25999611Y-32228236D01*
X25999611Y-32228236D02*
X25856754Y-32228236D01*
X25856754Y-32228236D02*
X25666278Y-32180617D01*
X25666278Y-32180617D02*
X25571040Y-32132998D01*
X25571040Y-32132998D02*
X25475802Y-32037760D01*
X25475802Y-32037760D02*
X25428183Y-31894903D01*
X25428183Y-31894903D02*
X25428183Y-31799665D01*
X25428183Y-31799665D02*
X25475802Y-31656808D01*
X25475802Y-31656808D02*
X25523421Y-31609189D01*
X25523421Y-31228236D02*
X25475802Y-31180617D01*
X25475802Y-31180617D02*
X25428183Y-31085379D01*
X25428183Y-31085379D02*
X25428183Y-30847284D01*
X25428183Y-30847284D02*
X25475802Y-30752046D01*
X25475802Y-30752046D02*
X25523421Y-30704427D01*
X25523421Y-30704427D02*
X25618659Y-30656808D01*
X25618659Y-30656808D02*
X25713897Y-30656808D01*
X25713897Y-30656808D02*
X25856754Y-30704427D01*
X25856754Y-30704427D02*
X26428183Y-31275855D01*
X26428183Y-31275855D02*
X26428183Y-30656808D01*
X25428183Y-29799665D02*
X25428183Y-29990141D01*
X25428183Y-29990141D02*
X25475802Y-30085379D01*
X25475802Y-30085379D02*
X25523421Y-30132998D01*
X25523421Y-30132998D02*
X25666278Y-30228236D01*
X25666278Y-30228236D02*
X25856754Y-30275855D01*
X25856754Y-30275855D02*
X26237706Y-30275855D01*
X26237706Y-30275855D02*
X26332944Y-30228236D01*
X26332944Y-30228236D02*
X26380564Y-30180617D01*
X26380564Y-30180617D02*
X26428183Y-30085379D01*
X26428183Y-30085379D02*
X26428183Y-29894903D01*
X26428183Y-29894903D02*
X26380564Y-29799665D01*
X26380564Y-29799665D02*
X26332944Y-29752046D01*
X26332944Y-29752046D02*
X26237706Y-29704427D01*
X26237706Y-29704427D02*
X25999611Y-29704427D01*
X25999611Y-29704427D02*
X25904373Y-29752046D01*
X25904373Y-29752046D02*
X25856754Y-29799665D01*
X25856754Y-29799665D02*
X25809135Y-29894903D01*
X25809135Y-29894903D02*
X25809135Y-30085379D01*
X25809135Y-30085379D02*
X25856754Y-30180617D01*
X25856754Y-30180617D02*
X25904373Y-30228236D01*
X25904373Y-30228236D02*
X25999611Y-30275855D01*
X46110269Y-34855151D02*
X46110269Y-33855151D01*
X46110269Y-33855151D02*
X46348364Y-33855151D01*
X46348364Y-33855151D02*
X46491221Y-33902770D01*
X46491221Y-33902770D02*
X46586459Y-33998008D01*
X46586459Y-33998008D02*
X46634078Y-34093246D01*
X46634078Y-34093246D02*
X46681697Y-34283722D01*
X46681697Y-34283722D02*
X46681697Y-34426579D01*
X46681697Y-34426579D02*
X46634078Y-34617055D01*
X46634078Y-34617055D02*
X46586459Y-34712293D01*
X46586459Y-34712293D02*
X46491221Y-34807532D01*
X46491221Y-34807532D02*
X46348364Y-34855151D01*
X46348364Y-34855151D02*
X46110269Y-34855151D01*
X47634078Y-34855151D02*
X47062650Y-34855151D01*
X47348364Y-34855151D02*
X47348364Y-33855151D01*
X47348364Y-33855151D02*
X47253126Y-33998008D01*
X47253126Y-33998008D02*
X47157888Y-34093246D01*
X47157888Y-34093246D02*
X47062650Y-34140865D01*
X87959333Y-51914819D02*
X87483143Y-51914819D01*
X87483143Y-51914819D02*
X87483143Y-50914819D01*
X88245048Y-51010057D02*
X88292667Y-50962438D01*
X88292667Y-50962438D02*
X88387905Y-50914819D01*
X88387905Y-50914819D02*
X88626000Y-50914819D01*
X88626000Y-50914819D02*
X88721238Y-50962438D01*
X88721238Y-50962438D02*
X88768857Y-51010057D01*
X88768857Y-51010057D02*
X88816476Y-51105295D01*
X88816476Y-51105295D02*
X88816476Y-51200533D01*
X88816476Y-51200533D02*
X88768857Y-51343390D01*
X88768857Y-51343390D02*
X88197429Y-51914819D01*
X88197429Y-51914819D02*
X88816476Y-51914819D01*
X78189142Y-25129580D02*
X78141523Y-25177200D01*
X78141523Y-25177200D02*
X77998666Y-25224819D01*
X77998666Y-25224819D02*
X77903428Y-25224819D01*
X77903428Y-25224819D02*
X77760571Y-25177200D01*
X77760571Y-25177200D02*
X77665333Y-25081961D01*
X77665333Y-25081961D02*
X77617714Y-24986723D01*
X77617714Y-24986723D02*
X77570095Y-24796247D01*
X77570095Y-24796247D02*
X77570095Y-24653390D01*
X77570095Y-24653390D02*
X77617714Y-24462914D01*
X77617714Y-24462914D02*
X77665333Y-24367676D01*
X77665333Y-24367676D02*
X77760571Y-24272438D01*
X77760571Y-24272438D02*
X77903428Y-24224819D01*
X77903428Y-24224819D02*
X77998666Y-24224819D01*
X77998666Y-24224819D02*
X78141523Y-24272438D01*
X78141523Y-24272438D02*
X78189142Y-24320057D01*
X79141523Y-25224819D02*
X78570095Y-25224819D01*
X78855809Y-25224819D02*
X78855809Y-24224819D01*
X78855809Y-24224819D02*
X78760571Y-24367676D01*
X78760571Y-24367676D02*
X78665333Y-24462914D01*
X78665333Y-24462914D02*
X78570095Y-24510533D01*
X79712952Y-24653390D02*
X79617714Y-24605771D01*
X79617714Y-24605771D02*
X79570095Y-24558152D01*
X79570095Y-24558152D02*
X79522476Y-24462914D01*
X79522476Y-24462914D02*
X79522476Y-24415295D01*
X79522476Y-24415295D02*
X79570095Y-24320057D01*
X79570095Y-24320057D02*
X79617714Y-24272438D01*
X79617714Y-24272438D02*
X79712952Y-24224819D01*
X79712952Y-24224819D02*
X79903428Y-24224819D01*
X79903428Y-24224819D02*
X79998666Y-24272438D01*
X79998666Y-24272438D02*
X80046285Y-24320057D01*
X80046285Y-24320057D02*
X80093904Y-24415295D01*
X80093904Y-24415295D02*
X80093904Y-24462914D01*
X80093904Y-24462914D02*
X80046285Y-24558152D01*
X80046285Y-24558152D02*
X79998666Y-24605771D01*
X79998666Y-24605771D02*
X79903428Y-24653390D01*
X79903428Y-24653390D02*
X79712952Y-24653390D01*
X79712952Y-24653390D02*
X79617714Y-24701009D01*
X79617714Y-24701009D02*
X79570095Y-24748628D01*
X79570095Y-24748628D02*
X79522476Y-24843866D01*
X79522476Y-24843866D02*
X79522476Y-25034342D01*
X79522476Y-25034342D02*
X79570095Y-25129580D01*
X79570095Y-25129580D02*
X79617714Y-25177200D01*
X79617714Y-25177200D02*
X79712952Y-25224819D01*
X79712952Y-25224819D02*
X79903428Y-25224819D01*
X79903428Y-25224819D02*
X79998666Y-25177200D01*
X79998666Y-25177200D02*
X80046285Y-25129580D01*
X80046285Y-25129580D02*
X80093904Y-25034342D01*
X80093904Y-25034342D02*
X80093904Y-24843866D01*
X80093904Y-24843866D02*
X80046285Y-24748628D01*
X80046285Y-24748628D02*
X79998666Y-24701009D01*
X79998666Y-24701009D02*
X79903428Y-24653390D01*
X44815506Y-32505313D02*
X44767887Y-32552933D01*
X44767887Y-32552933D02*
X44625030Y-32600552D01*
X44625030Y-32600552D02*
X44529792Y-32600552D01*
X44529792Y-32600552D02*
X44386935Y-32552933D01*
X44386935Y-32552933D02*
X44291697Y-32457694D01*
X44291697Y-32457694D02*
X44244078Y-32362456D01*
X44244078Y-32362456D02*
X44196459Y-32171980D01*
X44196459Y-32171980D02*
X44196459Y-32029123D01*
X44196459Y-32029123D02*
X44244078Y-31838647D01*
X44244078Y-31838647D02*
X44291697Y-31743409D01*
X44291697Y-31743409D02*
X44386935Y-31648171D01*
X44386935Y-31648171D02*
X44529792Y-31600552D01*
X44529792Y-31600552D02*
X44625030Y-31600552D01*
X44625030Y-31600552D02*
X44767887Y-31648171D01*
X44767887Y-31648171D02*
X44815506Y-31695790D01*
X45767887Y-32600552D02*
X45196459Y-32600552D01*
X45482173Y-32600552D02*
X45482173Y-31600552D01*
X45482173Y-31600552D02*
X45386935Y-31743409D01*
X45386935Y-31743409D02*
X45291697Y-31838647D01*
X45291697Y-31838647D02*
X45196459Y-31886266D01*
X46672649Y-31600552D02*
X46196459Y-31600552D01*
X46196459Y-31600552D02*
X46148840Y-32076742D01*
X46148840Y-32076742D02*
X46196459Y-32029123D01*
X46196459Y-32029123D02*
X46291697Y-31981504D01*
X46291697Y-31981504D02*
X46529792Y-31981504D01*
X46529792Y-31981504D02*
X46625030Y-32029123D01*
X46625030Y-32029123D02*
X46672649Y-32076742D01*
X46672649Y-32076742D02*
X46720268Y-32171980D01*
X46720268Y-32171980D02*
X46720268Y-32410075D01*
X46720268Y-32410075D02*
X46672649Y-32505313D01*
X46672649Y-32505313D02*
X46625030Y-32552933D01*
X46625030Y-32552933D02*
X46529792Y-32600552D01*
X46529792Y-32600552D02*
X46291697Y-32600552D01*
X46291697Y-32600552D02*
X46196459Y-32552933D01*
X46196459Y-32552933D02*
X46148840Y-32505313D01*
X23059326Y-63520630D02*
X23011707Y-63568250D01*
X23011707Y-63568250D02*
X22868850Y-63615869D01*
X22868850Y-63615869D02*
X22773612Y-63615869D01*
X22773612Y-63615869D02*
X22630755Y-63568250D01*
X22630755Y-63568250D02*
X22535517Y-63473011D01*
X22535517Y-63473011D02*
X22487898Y-63377773D01*
X22487898Y-63377773D02*
X22440279Y-63187297D01*
X22440279Y-63187297D02*
X22440279Y-63044440D01*
X22440279Y-63044440D02*
X22487898Y-62853964D01*
X22487898Y-62853964D02*
X22535517Y-62758726D01*
X22535517Y-62758726D02*
X22630755Y-62663488D01*
X22630755Y-62663488D02*
X22773612Y-62615869D01*
X22773612Y-62615869D02*
X22868850Y-62615869D01*
X22868850Y-62615869D02*
X23011707Y-62663488D01*
X23011707Y-62663488D02*
X23059326Y-62711107D01*
X23392660Y-62615869D02*
X24011707Y-62615869D01*
X24011707Y-62615869D02*
X23678374Y-62996821D01*
X23678374Y-62996821D02*
X23821231Y-62996821D01*
X23821231Y-62996821D02*
X23916469Y-63044440D01*
X23916469Y-63044440D02*
X23964088Y-63092059D01*
X23964088Y-63092059D02*
X24011707Y-63187297D01*
X24011707Y-63187297D02*
X24011707Y-63425392D01*
X24011707Y-63425392D02*
X23964088Y-63520630D01*
X23964088Y-63520630D02*
X23916469Y-63568250D01*
X23916469Y-63568250D02*
X23821231Y-63615869D01*
X23821231Y-63615869D02*
X23535517Y-63615869D01*
X23535517Y-63615869D02*
X23440279Y-63568250D01*
X23440279Y-63568250D02*
X23392660Y-63520630D01*
X15433666Y-73686819D02*
X15433666Y-74401104D01*
X15433666Y-74401104D02*
X15386047Y-74543961D01*
X15386047Y-74543961D02*
X15290809Y-74639200D01*
X15290809Y-74639200D02*
X15147952Y-74686819D01*
X15147952Y-74686819D02*
X15052714Y-74686819D01*
X16433666Y-74686819D02*
X15862238Y-74686819D01*
X16147952Y-74686819D02*
X16147952Y-73686819D01*
X16147952Y-73686819D02*
X16052714Y-73829676D01*
X16052714Y-73829676D02*
X15957476Y-73924914D01*
X15957476Y-73924914D02*
X15862238Y-73972533D01*
X27247506Y-70877151D02*
X26914173Y-70400960D01*
X26676078Y-70877151D02*
X26676078Y-69877151D01*
X26676078Y-69877151D02*
X27057030Y-69877151D01*
X27057030Y-69877151D02*
X27152268Y-69924770D01*
X27152268Y-69924770D02*
X27199887Y-69972389D01*
X27199887Y-69972389D02*
X27247506Y-70067627D01*
X27247506Y-70067627D02*
X27247506Y-70210484D01*
X27247506Y-70210484D02*
X27199887Y-70305722D01*
X27199887Y-70305722D02*
X27152268Y-70353341D01*
X27152268Y-70353341D02*
X27057030Y-70400960D01*
X27057030Y-70400960D02*
X26676078Y-70400960D01*
X27628459Y-69972389D02*
X27676078Y-69924770D01*
X27676078Y-69924770D02*
X27771316Y-69877151D01*
X27771316Y-69877151D02*
X28009411Y-69877151D01*
X28009411Y-69877151D02*
X28104649Y-69924770D01*
X28104649Y-69924770D02*
X28152268Y-69972389D01*
X28152268Y-69972389D02*
X28199887Y-70067627D01*
X28199887Y-70067627D02*
X28199887Y-70162865D01*
X28199887Y-70162865D02*
X28152268Y-70305722D01*
X28152268Y-70305722D02*
X27580840Y-70877151D01*
X27580840Y-70877151D02*
X28199887Y-70877151D01*
X28771316Y-70305722D02*
X28676078Y-70258103D01*
X28676078Y-70258103D02*
X28628459Y-70210484D01*
X28628459Y-70210484D02*
X28580840Y-70115246D01*
X28580840Y-70115246D02*
X28580840Y-70067627D01*
X28580840Y-70067627D02*
X28628459Y-69972389D01*
X28628459Y-69972389D02*
X28676078Y-69924770D01*
X28676078Y-69924770D02*
X28771316Y-69877151D01*
X28771316Y-69877151D02*
X28961792Y-69877151D01*
X28961792Y-69877151D02*
X29057030Y-69924770D01*
X29057030Y-69924770D02*
X29104649Y-69972389D01*
X29104649Y-69972389D02*
X29152268Y-70067627D01*
X29152268Y-70067627D02*
X29152268Y-70115246D01*
X29152268Y-70115246D02*
X29104649Y-70210484D01*
X29104649Y-70210484D02*
X29057030Y-70258103D01*
X29057030Y-70258103D02*
X28961792Y-70305722D01*
X28961792Y-70305722D02*
X28771316Y-70305722D01*
X28771316Y-70305722D02*
X28676078Y-70353341D01*
X28676078Y-70353341D02*
X28628459Y-70400960D01*
X28628459Y-70400960D02*
X28580840Y-70496198D01*
X28580840Y-70496198D02*
X28580840Y-70686674D01*
X28580840Y-70686674D02*
X28628459Y-70781912D01*
X28628459Y-70781912D02*
X28676078Y-70829532D01*
X28676078Y-70829532D02*
X28771316Y-70877151D01*
X28771316Y-70877151D02*
X28961792Y-70877151D01*
X28961792Y-70877151D02*
X29057030Y-70829532D01*
X29057030Y-70829532D02*
X29104649Y-70781912D01*
X29104649Y-70781912D02*
X29152268Y-70686674D01*
X29152268Y-70686674D02*
X29152268Y-70496198D01*
X29152268Y-70496198D02*
X29104649Y-70400960D01*
X29104649Y-70400960D02*
X29057030Y-70353341D01*
X29057030Y-70353341D02*
X28961792Y-70305722D01*
X92875319Y-56105333D02*
X93589604Y-56105333D01*
X93589604Y-56105333D02*
X93732461Y-56152952D01*
X93732461Y-56152952D02*
X93827700Y-56248190D01*
X93827700Y-56248190D02*
X93875319Y-56391047D01*
X93875319Y-56391047D02*
X93875319Y-56486285D01*
X92970557Y-55676761D02*
X92922938Y-55629142D01*
X92922938Y-55629142D02*
X92875319Y-55533904D01*
X92875319Y-55533904D02*
X92875319Y-55295809D01*
X92875319Y-55295809D02*
X92922938Y-55200571D01*
X92922938Y-55200571D02*
X92970557Y-55152952D01*
X92970557Y-55152952D02*
X93065795Y-55105333D01*
X93065795Y-55105333D02*
X93161033Y-55105333D01*
X93161033Y-55105333D02*
X93303890Y-55152952D01*
X93303890Y-55152952D02*
X93875319Y-55724380D01*
X93875319Y-55724380D02*
X93875319Y-55105333D01*
X19879769Y-61140116D02*
X19879769Y-60140116D01*
X19879769Y-60140116D02*
X20117864Y-60140116D01*
X20117864Y-60140116D02*
X20260721Y-60187735D01*
X20260721Y-60187735D02*
X20355959Y-60282973D01*
X20355959Y-60282973D02*
X20403578Y-60378211D01*
X20403578Y-60378211D02*
X20451197Y-60568687D01*
X20451197Y-60568687D02*
X20451197Y-60711544D01*
X20451197Y-60711544D02*
X20403578Y-60902020D01*
X20403578Y-60902020D02*
X20355959Y-60997258D01*
X20355959Y-60997258D02*
X20260721Y-61092497D01*
X20260721Y-61092497D02*
X20117864Y-61140116D01*
X20117864Y-61140116D02*
X19879769Y-61140116D01*
X21355959Y-60140116D02*
X20879769Y-60140116D01*
X20879769Y-60140116D02*
X20832150Y-60616306D01*
X20832150Y-60616306D02*
X20879769Y-60568687D01*
X20879769Y-60568687D02*
X20975007Y-60521068D01*
X20975007Y-60521068D02*
X21213102Y-60521068D01*
X21213102Y-60521068D02*
X21308340Y-60568687D01*
X21308340Y-60568687D02*
X21355959Y-60616306D01*
X21355959Y-60616306D02*
X21403578Y-60711544D01*
X21403578Y-60711544D02*
X21403578Y-60949639D01*
X21403578Y-60949639D02*
X21355959Y-61044877D01*
X21355959Y-61044877D02*
X21308340Y-61092497D01*
X21308340Y-61092497D02*
X21213102Y-61140116D01*
X21213102Y-61140116D02*
X20975007Y-61140116D01*
X20975007Y-61140116D02*
X20879769Y-61092497D01*
X20879769Y-61092497D02*
X20832150Y-61044877D01*
X19790769Y-56612633D02*
X19790769Y-55612633D01*
X19790769Y-55612633D02*
X20028864Y-55612633D01*
X20028864Y-55612633D02*
X20171721Y-55660252D01*
X20171721Y-55660252D02*
X20266959Y-55755490D01*
X20266959Y-55755490D02*
X20314578Y-55850728D01*
X20314578Y-55850728D02*
X20362197Y-56041204D01*
X20362197Y-56041204D02*
X20362197Y-56184061D01*
X20362197Y-56184061D02*
X20314578Y-56374537D01*
X20314578Y-56374537D02*
X20266959Y-56469775D01*
X20266959Y-56469775D02*
X20171721Y-56565014D01*
X20171721Y-56565014D02*
X20028864Y-56612633D01*
X20028864Y-56612633D02*
X19790769Y-56612633D01*
X21219340Y-55945966D02*
X21219340Y-56612633D01*
X20981245Y-55565014D02*
X20743150Y-56279299D01*
X20743150Y-56279299D02*
X21362197Y-56279299D01*
X51457697Y-65875912D02*
X51410078Y-65923532D01*
X51410078Y-65923532D02*
X51267221Y-65971151D01*
X51267221Y-65971151D02*
X51171983Y-65971151D01*
X51171983Y-65971151D02*
X51029126Y-65923532D01*
X51029126Y-65923532D02*
X50933888Y-65828293D01*
X50933888Y-65828293D02*
X50886269Y-65733055D01*
X50886269Y-65733055D02*
X50838650Y-65542579D01*
X50838650Y-65542579D02*
X50838650Y-65399722D01*
X50838650Y-65399722D02*
X50886269Y-65209246D01*
X50886269Y-65209246D02*
X50933888Y-65114008D01*
X50933888Y-65114008D02*
X51029126Y-65018770D01*
X51029126Y-65018770D02*
X51171983Y-64971151D01*
X51171983Y-64971151D02*
X51267221Y-64971151D01*
X51267221Y-64971151D02*
X51410078Y-65018770D01*
X51410078Y-65018770D02*
X51457697Y-65066389D01*
X51933888Y-65971151D02*
X52124364Y-65971151D01*
X52124364Y-65971151D02*
X52219602Y-65923532D01*
X52219602Y-65923532D02*
X52267221Y-65875912D01*
X52267221Y-65875912D02*
X52362459Y-65733055D01*
X52362459Y-65733055D02*
X52410078Y-65542579D01*
X52410078Y-65542579D02*
X52410078Y-65161627D01*
X52410078Y-65161627D02*
X52362459Y-65066389D01*
X52362459Y-65066389D02*
X52314840Y-65018770D01*
X52314840Y-65018770D02*
X52219602Y-64971151D01*
X52219602Y-64971151D02*
X52029126Y-64971151D01*
X52029126Y-64971151D02*
X51933888Y-65018770D01*
X51933888Y-65018770D02*
X51886269Y-65066389D01*
X51886269Y-65066389D02*
X51838650Y-65161627D01*
X51838650Y-65161627D02*
X51838650Y-65399722D01*
X51838650Y-65399722D02*
X51886269Y-65494960D01*
X51886269Y-65494960D02*
X51933888Y-65542579D01*
X51933888Y-65542579D02*
X52029126Y-65590198D01*
X52029126Y-65590198D02*
X52219602Y-65590198D01*
X52219602Y-65590198D02*
X52314840Y-65542579D01*
X52314840Y-65542579D02*
X52362459Y-65494960D01*
X52362459Y-65494960D02*
X52410078Y-65399722D01*
X36345818Y-57631182D02*
X36298199Y-57678802D01*
X36298199Y-57678802D02*
X36155342Y-57726421D01*
X36155342Y-57726421D02*
X36060104Y-57726421D01*
X36060104Y-57726421D02*
X35917247Y-57678802D01*
X35917247Y-57678802D02*
X35822009Y-57583563D01*
X35822009Y-57583563D02*
X35774390Y-57488325D01*
X35774390Y-57488325D02*
X35726771Y-57297849D01*
X35726771Y-57297849D02*
X35726771Y-57154992D01*
X35726771Y-57154992D02*
X35774390Y-56964516D01*
X35774390Y-56964516D02*
X35822009Y-56869278D01*
X35822009Y-56869278D02*
X35917247Y-56774040D01*
X35917247Y-56774040D02*
X36060104Y-56726421D01*
X36060104Y-56726421D02*
X36155342Y-56726421D01*
X36155342Y-56726421D02*
X36298199Y-56774040D01*
X36298199Y-56774040D02*
X36345818Y-56821659D01*
X36679152Y-56726421D02*
X37298199Y-56726421D01*
X37298199Y-56726421D02*
X36964866Y-57107373D01*
X36964866Y-57107373D02*
X37107723Y-57107373D01*
X37107723Y-57107373D02*
X37202961Y-57154992D01*
X37202961Y-57154992D02*
X37250580Y-57202611D01*
X37250580Y-57202611D02*
X37298199Y-57297849D01*
X37298199Y-57297849D02*
X37298199Y-57535944D01*
X37298199Y-57535944D02*
X37250580Y-57631182D01*
X37250580Y-57631182D02*
X37202961Y-57678802D01*
X37202961Y-57678802D02*
X37107723Y-57726421D01*
X37107723Y-57726421D02*
X36822009Y-57726421D01*
X36822009Y-57726421D02*
X36726771Y-57678802D01*
X36726771Y-57678802D02*
X36679152Y-57631182D01*
X37679152Y-56821659D02*
X37726771Y-56774040D01*
X37726771Y-56774040D02*
X37822009Y-56726421D01*
X37822009Y-56726421D02*
X38060104Y-56726421D01*
X38060104Y-56726421D02*
X38155342Y-56774040D01*
X38155342Y-56774040D02*
X38202961Y-56821659D01*
X38202961Y-56821659D02*
X38250580Y-56916897D01*
X38250580Y-56916897D02*
X38250580Y-57012135D01*
X38250580Y-57012135D02*
X38202961Y-57154992D01*
X38202961Y-57154992D02*
X37631533Y-57726421D01*
X37631533Y-57726421D02*
X38250580Y-57726421D01*
X35933818Y-52981182D02*
X35886199Y-53028802D01*
X35886199Y-53028802D02*
X35743342Y-53076421D01*
X35743342Y-53076421D02*
X35648104Y-53076421D01*
X35648104Y-53076421D02*
X35505247Y-53028802D01*
X35505247Y-53028802D02*
X35410009Y-52933563D01*
X35410009Y-52933563D02*
X35362390Y-52838325D01*
X35362390Y-52838325D02*
X35314771Y-52647849D01*
X35314771Y-52647849D02*
X35314771Y-52504992D01*
X35314771Y-52504992D02*
X35362390Y-52314516D01*
X35362390Y-52314516D02*
X35410009Y-52219278D01*
X35410009Y-52219278D02*
X35505247Y-52124040D01*
X35505247Y-52124040D02*
X35648104Y-52076421D01*
X35648104Y-52076421D02*
X35743342Y-52076421D01*
X35743342Y-52076421D02*
X35886199Y-52124040D01*
X35886199Y-52124040D02*
X35933818Y-52171659D01*
X36267152Y-52076421D02*
X36886199Y-52076421D01*
X36886199Y-52076421D02*
X36552866Y-52457373D01*
X36552866Y-52457373D02*
X36695723Y-52457373D01*
X36695723Y-52457373D02*
X36790961Y-52504992D01*
X36790961Y-52504992D02*
X36838580Y-52552611D01*
X36838580Y-52552611D02*
X36886199Y-52647849D01*
X36886199Y-52647849D02*
X36886199Y-52885944D01*
X36886199Y-52885944D02*
X36838580Y-52981182D01*
X36838580Y-52981182D02*
X36790961Y-53028802D01*
X36790961Y-53028802D02*
X36695723Y-53076421D01*
X36695723Y-53076421D02*
X36410009Y-53076421D01*
X36410009Y-53076421D02*
X36314771Y-53028802D01*
X36314771Y-53028802D02*
X36267152Y-52981182D01*
X37838580Y-53076421D02*
X37267152Y-53076421D01*
X37552866Y-53076421D02*
X37552866Y-52076421D01*
X37552866Y-52076421D02*
X37457628Y-52219278D01*
X37457628Y-52219278D02*
X37362390Y-52314516D01*
X37362390Y-52314516D02*
X37267152Y-52362135D01*
X54749697Y-37504912D02*
X54702078Y-37552532D01*
X54702078Y-37552532D02*
X54559221Y-37600151D01*
X54559221Y-37600151D02*
X54463983Y-37600151D01*
X54463983Y-37600151D02*
X54321126Y-37552532D01*
X54321126Y-37552532D02*
X54225888Y-37457293D01*
X54225888Y-37457293D02*
X54178269Y-37362055D01*
X54178269Y-37362055D02*
X54130650Y-37171579D01*
X54130650Y-37171579D02*
X54130650Y-37028722D01*
X54130650Y-37028722D02*
X54178269Y-36838246D01*
X54178269Y-36838246D02*
X54225888Y-36743008D01*
X54225888Y-36743008D02*
X54321126Y-36647770D01*
X54321126Y-36647770D02*
X54463983Y-36600151D01*
X54463983Y-36600151D02*
X54559221Y-36600151D01*
X54559221Y-36600151D02*
X54702078Y-36647770D01*
X54702078Y-36647770D02*
X54749697Y-36695389D01*
X55606840Y-36600151D02*
X55416364Y-36600151D01*
X55416364Y-36600151D02*
X55321126Y-36647770D01*
X55321126Y-36647770D02*
X55273507Y-36695389D01*
X55273507Y-36695389D02*
X55178269Y-36838246D01*
X55178269Y-36838246D02*
X55130650Y-37028722D01*
X55130650Y-37028722D02*
X55130650Y-37409674D01*
X55130650Y-37409674D02*
X55178269Y-37504912D01*
X55178269Y-37504912D02*
X55225888Y-37552532D01*
X55225888Y-37552532D02*
X55321126Y-37600151D01*
X55321126Y-37600151D02*
X55511602Y-37600151D01*
X55511602Y-37600151D02*
X55606840Y-37552532D01*
X55606840Y-37552532D02*
X55654459Y-37504912D01*
X55654459Y-37504912D02*
X55702078Y-37409674D01*
X55702078Y-37409674D02*
X55702078Y-37171579D01*
X55702078Y-37171579D02*
X55654459Y-37076341D01*
X55654459Y-37076341D02*
X55606840Y-37028722D01*
X55606840Y-37028722D02*
X55511602Y-36981103D01*
X55511602Y-36981103D02*
X55321126Y-36981103D01*
X55321126Y-36981103D02*
X55225888Y-37028722D01*
X55225888Y-37028722D02*
X55178269Y-37076341D01*
X55178269Y-37076341D02*
X55130650Y-37171579D01*
X97666666Y-21154819D02*
X97333333Y-20678628D01*
X97095238Y-21154819D02*
X97095238Y-20154819D01*
X97095238Y-20154819D02*
X97476190Y-20154819D01*
X97476190Y-20154819D02*
X97571428Y-20202438D01*
X97571428Y-20202438D02*
X97619047Y-20250057D01*
X97619047Y-20250057D02*
X97666666Y-20345295D01*
X97666666Y-20345295D02*
X97666666Y-20488152D01*
X97666666Y-20488152D02*
X97619047Y-20583390D01*
X97619047Y-20583390D02*
X97571428Y-20631009D01*
X97571428Y-20631009D02*
X97476190Y-20678628D01*
X97476190Y-20678628D02*
X97095238Y-20678628D01*
X98095238Y-20631009D02*
X98428571Y-20631009D01*
X98571428Y-21154819D02*
X98095238Y-21154819D01*
X98095238Y-21154819D02*
X98095238Y-20154819D01*
X98095238Y-20154819D02*
X98571428Y-20154819D01*
X99333333Y-20631009D02*
X99000000Y-20631009D01*
X99000000Y-21154819D02*
X99000000Y-20154819D01*
X99000000Y-20154819D02*
X99476190Y-20154819D01*
X100000000Y-20154819D02*
X100000000Y-20392914D01*
X99761905Y-20297676D02*
X100000000Y-20392914D01*
X100000000Y-20392914D02*
X100238095Y-20297676D01*
X99857143Y-20583390D02*
X100000000Y-20392914D01*
X100000000Y-20392914D02*
X100142857Y-20583390D01*
X100761905Y-20154819D02*
X100761905Y-20392914D01*
X100523810Y-20297676D02*
X100761905Y-20392914D01*
X100761905Y-20392914D02*
X101000000Y-20297676D01*
X100619048Y-20583390D02*
X100761905Y-20392914D01*
X100761905Y-20392914D02*
X100904762Y-20583390D01*
D12*
%TO.C,Q4*%
X73877015Y-66970332D02*
X73877015Y-76460332D01*
X73877015Y-66970332D02*
X84117015Y-66970332D01*
X73877015Y-76460332D02*
X84117015Y-76460332D01*
X73877015Y-76700332D02*
X73877015Y-77900332D01*
X73877015Y-79100332D02*
X73877015Y-80300332D01*
X73877015Y-81500332D02*
X73877015Y-82700332D01*
X73877015Y-82860332D02*
X75077015Y-82860332D01*
X76276015Y-82860332D02*
X77477015Y-82860332D01*
X76457015Y-64430332D02*
X76457015Y-66970332D01*
X78677015Y-82860332D02*
X79877015Y-82860332D01*
X78997015Y-64430332D02*
X78997015Y-66970332D01*
X81077015Y-82860332D02*
X82277015Y-82860332D01*
X81537015Y-64430332D02*
X81537015Y-66970332D01*
X83477015Y-82860332D02*
X84117015Y-82860332D01*
X84117015Y-66970332D02*
X84117015Y-76460332D01*
X84117015Y-76700332D02*
X84117015Y-77900332D01*
X84117015Y-79100332D02*
X84117015Y-80300332D01*
X84117015Y-81500332D02*
X84117015Y-82700332D01*
%TO.C,C23*%
X94912000Y-39429000D02*
X94912000Y-40959000D01*
X96752000Y-39429000D02*
X96752000Y-40959000D01*
%TO.C,C22*%
X95307000Y-75599000D02*
X95307000Y-74069000D01*
X97147000Y-75599000D02*
X97147000Y-74069000D01*
%TO.C,R8*%
X59555183Y-44590332D02*
X61009311Y-44590332D01*
X59555183Y-46410332D02*
X61009311Y-46410332D01*
%TO.C,U8*%
X26719475Y-57045097D02*
X25919475Y-57045097D01*
X26719475Y-57045097D02*
X27519475Y-57045097D01*
X26719475Y-60165097D02*
X25919475Y-60165097D01*
X26719475Y-60165097D02*
X27519475Y-60165097D01*
X25419475Y-57095097D02*
X25179475Y-56765097D01*
X25659475Y-56765097D01*
X25419475Y-57095097D01*
G36*
X25419475Y-57095097D02*
G01*
X25179475Y-56765097D01*
X25659475Y-56765097D01*
X25419475Y-57095097D01*
G37*
%TO.C,C35*%
X21461137Y-71541235D02*
X21676809Y-71541235D01*
X21461137Y-72261235D02*
X21676809Y-72261235D01*
%TO.C,R5*%
X45749555Y-60217832D02*
X46224071Y-60217832D01*
X45749555Y-61262832D02*
X46224071Y-61262832D01*
%TO.C,R18*%
X59253300Y-57290332D02*
X60707428Y-57290332D01*
X59253300Y-59110332D02*
X60707428Y-59110332D01*
%TO.C,J3*%
X14373364Y-16650332D02*
X14373364Y-18570332D01*
X14373364Y-19170332D02*
X14373364Y-24590332D01*
X15993364Y-16650332D02*
X15993364Y-24590332D01*
X21613364Y-16650332D02*
X14373364Y-16650332D01*
X21613364Y-16650332D02*
X21613364Y-24590332D01*
X21613364Y-24590332D02*
X14373364Y-24590332D01*
X14373364Y-18870332D02*
X13763364Y-19310332D01*
X13763364Y-18430332D01*
X14373364Y-18870332D01*
G36*
X14373364Y-18870332D02*
G01*
X13763364Y-19310332D01*
X13763364Y-18430332D01*
X14373364Y-18870332D01*
G37*
%TO.C,R21*%
X85587134Y-55456315D02*
X85587134Y-59810443D01*
X89007134Y-55456315D02*
X89007134Y-59810443D01*
%TO.C,C4*%
X25562033Y-64690650D02*
X25346361Y-64690650D01*
X25562033Y-65410650D02*
X25346361Y-65410650D01*
%TO.C,R20*%
X62857742Y-60697500D02*
X63332258Y-60697500D01*
X62857742Y-61742500D02*
X63332258Y-61742500D01*
%TO.C,L1*%
X87401000Y-64936000D02*
X93991000Y-64936000D01*
X87401000Y-70624000D02*
X87401000Y-64936000D01*
X87401000Y-79146000D02*
X87401000Y-73458000D01*
X87401000Y-79146000D02*
X93991000Y-79146000D01*
X93991000Y-70624000D02*
X93991000Y-64936000D01*
X93991000Y-79146000D02*
X93991000Y-73458000D01*
%TO.C,C21*%
X69118000Y-25037000D02*
X69118000Y-23507000D01*
X70958000Y-25037000D02*
X70958000Y-23507000D01*
%TO.C,R22*%
X45074864Y-46422074D02*
X45074864Y-46896590D01*
X46119864Y-46422074D02*
X46119864Y-46896590D01*
%TO.C,C13*%
X35536364Y-27375681D02*
X32503364Y-27375681D01*
X35536364Y-27415681D02*
X32506364Y-27415681D01*
X35536364Y-27455681D02*
X32508364Y-27455681D01*
X35536364Y-27495681D02*
X32512364Y-27495681D01*
X35536364Y-27535681D02*
X32515364Y-27535681D01*
X35536364Y-27575681D02*
X32520364Y-27575681D01*
X35536364Y-27615681D02*
X32524364Y-27615681D01*
X35536364Y-27655681D02*
X32529364Y-27655681D01*
X35536364Y-27695681D02*
X32534364Y-27695681D01*
X35536364Y-27735681D02*
X32540364Y-27735681D01*
X35536364Y-27775681D02*
X32546364Y-27775681D01*
X35536364Y-27815681D02*
X32553364Y-27815681D01*
X35536364Y-27855681D02*
X32559364Y-27855681D01*
X35536364Y-27895681D02*
X32567364Y-27895681D01*
X35536364Y-27935681D02*
X32574364Y-27935681D01*
X35536364Y-27975681D02*
X32583364Y-27975681D01*
X35536364Y-28015681D02*
X32591364Y-28015681D01*
X35536364Y-28055681D02*
X32600364Y-28055681D01*
X35536364Y-28095681D02*
X32609364Y-28095681D01*
X35536364Y-28135681D02*
X32619364Y-28135681D01*
X35536364Y-28175681D02*
X32629364Y-28175681D01*
X35536364Y-28215681D02*
X32640364Y-28215681D01*
X35536364Y-28255681D02*
X32651364Y-28255681D01*
X35536364Y-28295681D02*
X32663364Y-28295681D01*
X35536364Y-28335681D02*
X32675364Y-28335681D01*
X35536364Y-28375681D02*
X32687364Y-28375681D01*
X35536364Y-28415681D02*
X32700364Y-28415681D01*
X35536364Y-28455681D02*
X32713364Y-28455681D01*
X35536364Y-28495681D02*
X32727364Y-28495681D01*
X35536364Y-28535681D02*
X32741364Y-28535681D01*
X35536364Y-28575681D02*
X32756364Y-28575681D01*
X35536364Y-28615681D02*
X32771364Y-28615681D01*
X35536364Y-28655681D02*
X32787364Y-28655681D01*
X35536364Y-28695681D02*
X32803364Y-28695681D01*
X35536364Y-28735681D02*
X32819364Y-28735681D01*
X35536364Y-28775681D02*
X32836364Y-28775681D01*
X35536364Y-28815681D02*
X32854364Y-28815681D01*
X35536364Y-28855681D02*
X32872364Y-28855681D01*
X35536364Y-28895681D02*
X32891364Y-28895681D01*
X35536364Y-28935681D02*
X32910364Y-28935681D01*
X35536364Y-28975681D02*
X32930364Y-28975681D01*
X35536364Y-29015681D02*
X32950364Y-29015681D01*
X35536364Y-29055681D02*
X32971364Y-29055681D01*
X35536364Y-29095681D02*
X32992364Y-29095681D01*
X35536364Y-29135681D02*
X33014364Y-29135681D01*
X35536364Y-29175681D02*
X33037364Y-29175681D01*
X35536364Y-29215681D02*
X33060364Y-29215681D01*
X35536364Y-29255681D02*
X33083364Y-29255681D01*
X35536364Y-29295681D02*
X33108364Y-29295681D01*
X35536364Y-29335681D02*
X33133364Y-29335681D01*
X35536364Y-29375681D02*
X33158364Y-29375681D01*
X35536364Y-29415681D02*
X33184364Y-29415681D01*
X37109364Y-31215681D02*
X36043364Y-31215681D01*
X37344364Y-31175681D02*
X35808364Y-31175681D01*
X37523364Y-31135681D02*
X35629364Y-31135681D01*
X37673364Y-31095681D02*
X35479364Y-31095681D01*
X37804364Y-31055681D02*
X35348364Y-31055681D01*
X37922364Y-31015681D02*
X35230364Y-31015681D01*
X38029364Y-30975681D02*
X35123364Y-30975681D01*
X38128364Y-30935681D02*
X35024364Y-30935681D01*
X38220364Y-30895681D02*
X34932364Y-30895681D01*
X38307364Y-30855681D02*
X34845364Y-30855681D01*
X38389364Y-30815681D02*
X34763364Y-30815681D01*
X38466364Y-30775681D02*
X34686364Y-30775681D01*
X38540364Y-30735681D02*
X34612364Y-30735681D01*
X38610364Y-30695681D02*
X34542364Y-30695681D01*
X38677364Y-30655681D02*
X34475364Y-30655681D01*
X38741364Y-30615681D02*
X34411364Y-30615681D01*
X38803364Y-30575681D02*
X34349364Y-30575681D01*
X38863364Y-30535681D02*
X34289364Y-30535681D01*
X38891364Y-22725983D02*
X38891364Y-23525983D01*
X38920364Y-30495681D02*
X34232364Y-30495681D01*
X38976364Y-30455681D02*
X34176364Y-30455681D01*
X39029364Y-30415681D02*
X34123364Y-30415681D01*
X39081364Y-30375681D02*
X34071364Y-30375681D01*
X39131364Y-30335681D02*
X34021364Y-30335681D01*
X39180364Y-30295681D02*
X33972364Y-30295681D01*
X39227364Y-30255681D02*
X33925364Y-30255681D01*
X39272364Y-30215681D02*
X33880364Y-30215681D01*
X39291364Y-23125983D02*
X38491364Y-23125983D01*
X39317364Y-30175681D02*
X33835364Y-30175681D01*
X39360364Y-30135681D02*
X33792364Y-30135681D01*
X39402364Y-30095681D02*
X33750364Y-30095681D01*
X39443364Y-30055681D02*
X33709364Y-30055681D01*
X39482364Y-30015681D02*
X33670364Y-30015681D01*
X39521364Y-29975681D02*
X33631364Y-29975681D01*
X39558364Y-29935681D02*
X33594364Y-29935681D01*
X39595364Y-29895681D02*
X33557364Y-29895681D01*
X39631364Y-29855681D02*
X33521364Y-29855681D01*
X39665364Y-29815681D02*
X33487364Y-29815681D01*
X39699364Y-29775681D02*
X33453364Y-29775681D01*
X39732364Y-29735681D02*
X33420364Y-29735681D01*
X39764364Y-29695681D02*
X33388364Y-29695681D01*
X39795364Y-29655681D02*
X33357364Y-29655681D01*
X39826364Y-29615681D02*
X33326364Y-29615681D01*
X39856364Y-29575681D02*
X33296364Y-29575681D01*
X39885364Y-29535681D02*
X33267364Y-29535681D01*
X39913364Y-29495681D02*
X33239364Y-29495681D01*
X39941364Y-29455681D02*
X33211364Y-29455681D01*
X39968364Y-29415681D02*
X37616364Y-29415681D01*
X39994364Y-29375681D02*
X37616364Y-29375681D01*
X40019364Y-29335681D02*
X37616364Y-29335681D01*
X40044364Y-29295681D02*
X37616364Y-29295681D01*
X40069364Y-29255681D02*
X37616364Y-29255681D01*
X40092364Y-29215681D02*
X37616364Y-29215681D01*
X40115364Y-29175681D02*
X37616364Y-29175681D01*
X40138364Y-29135681D02*
X37616364Y-29135681D01*
X40160364Y-29095681D02*
X37616364Y-29095681D01*
X40181364Y-29055681D02*
X37616364Y-29055681D01*
X40202364Y-29015681D02*
X37616364Y-29015681D01*
X40222364Y-28975681D02*
X37616364Y-28975681D01*
X40242364Y-28935681D02*
X37616364Y-28935681D01*
X40261364Y-28895681D02*
X37616364Y-28895681D01*
X40280364Y-28855681D02*
X37616364Y-28855681D01*
X40298364Y-28815681D02*
X37616364Y-28815681D01*
X40316364Y-28775681D02*
X37616364Y-28775681D01*
X40333364Y-28735681D02*
X37616364Y-28735681D01*
X40349364Y-28695681D02*
X37616364Y-28695681D01*
X40365364Y-28655681D02*
X37616364Y-28655681D01*
X40381364Y-28615681D02*
X37616364Y-28615681D01*
X40396364Y-28575681D02*
X37616364Y-28575681D01*
X40411364Y-28535681D02*
X37616364Y-28535681D01*
X40425364Y-28495681D02*
X37616364Y-28495681D01*
X40439364Y-28455681D02*
X37616364Y-28455681D01*
X40452364Y-28415681D02*
X37616364Y-28415681D01*
X40465364Y-28375681D02*
X37616364Y-28375681D01*
X40477364Y-28335681D02*
X37616364Y-28335681D01*
X40489364Y-28295681D02*
X37616364Y-28295681D01*
X40501364Y-28255681D02*
X37616364Y-28255681D01*
X40512364Y-28215681D02*
X37616364Y-28215681D01*
X40523364Y-28175681D02*
X37616364Y-28175681D01*
X40533364Y-28135681D02*
X37616364Y-28135681D01*
X40543364Y-28095681D02*
X37616364Y-28095681D01*
X40552364Y-28055681D02*
X37616364Y-28055681D01*
X40561364Y-28015681D02*
X37616364Y-28015681D01*
X40569364Y-27975681D02*
X37616364Y-27975681D01*
X40578364Y-27935681D02*
X37616364Y-27935681D01*
X40585364Y-27895681D02*
X37616364Y-27895681D01*
X40593364Y-27855681D02*
X37616364Y-27855681D01*
X40599364Y-27815681D02*
X37616364Y-27815681D01*
X40606364Y-27775681D02*
X37616364Y-27775681D01*
X40612364Y-27735681D02*
X37616364Y-27735681D01*
X40618364Y-27695681D02*
X37616364Y-27695681D01*
X40623364Y-27655681D02*
X37616364Y-27655681D01*
X40628364Y-27615681D02*
X37616364Y-27615681D01*
X40632364Y-27575681D02*
X37616364Y-27575681D01*
X40637364Y-27535681D02*
X37616364Y-27535681D01*
X40640364Y-27495681D02*
X37616364Y-27495681D01*
X40644364Y-27455681D02*
X37616364Y-27455681D01*
X40646364Y-27415681D02*
X37616364Y-27415681D01*
X40649364Y-27375681D02*
X37616364Y-27375681D01*
X40651364Y-27335681D02*
X32501364Y-27335681D01*
X40653364Y-27295681D02*
X32499364Y-27295681D01*
X40654364Y-27255681D02*
X32498364Y-27255681D01*
X40655364Y-27215681D02*
X32497364Y-27215681D01*
X40656364Y-27135681D02*
X32496364Y-27135681D01*
X40656364Y-27175681D02*
X32496364Y-27175681D01*
X40696364Y-27135681D02*
G75*
G02*
X32456364Y-27135681I-4120000J0D01*
G01*
X32456364Y-27135681D02*
G75*
G02*
X40696364Y-27135681I4120000J0D01*
G01*
%TO.C,R27*%
X25306622Y-71378832D02*
X24832106Y-71378832D01*
X25306622Y-72423832D02*
X24832106Y-72423832D01*
%TO.C,C11*%
X67090000Y-22072000D02*
X65560000Y-22072000D01*
X67090000Y-23912000D02*
X65560000Y-23912000D01*
%TO.C,RV1*%
X14172364Y-60686332D02*
X19192364Y-60686332D01*
X14172364Y-67306332D02*
X14172364Y-64086332D01*
X14172364Y-70706332D02*
X14172364Y-60686332D01*
X14172364Y-70706332D02*
X19192364Y-70706332D01*
X18001364Y-64086332D02*
X14172364Y-64086332D01*
X18001364Y-67306332D02*
X14172364Y-67306332D01*
X19192364Y-61800332D02*
X19192364Y-60686332D01*
X19192364Y-66800332D02*
X19192364Y-64592332D01*
X19192364Y-66800332D02*
X19192364Y-64592332D01*
X19192364Y-70706332D02*
X19192364Y-69592332D01*
%TO.C,C16*%
X58286364Y-18549953D02*
X56105364Y-18549953D01*
X58286364Y-18589953D02*
X56108364Y-18589953D01*
X58286364Y-18629953D02*
X56112364Y-18629953D01*
X58286364Y-18669953D02*
X56116364Y-18669953D01*
X58286364Y-18709953D02*
X56121364Y-18709953D01*
X58286364Y-18749953D02*
X56126364Y-18749953D01*
X58286364Y-18789953D02*
X56131364Y-18789953D01*
X58286364Y-18829953D02*
X56138364Y-18829953D01*
X58286364Y-18869953D02*
X56144364Y-18869953D01*
X58286364Y-18909953D02*
X56152364Y-18909953D01*
X58286364Y-18949953D02*
X56159364Y-18949953D01*
X58286364Y-18989953D02*
X56167364Y-18989953D01*
X58286364Y-19029953D02*
X56176364Y-19029953D01*
X58286364Y-19069953D02*
X56186364Y-19069953D01*
X58286364Y-19109953D02*
X56195364Y-19109953D01*
X58286364Y-19149953D02*
X56206364Y-19149953D01*
X58286364Y-19189953D02*
X56217364Y-19189953D01*
X58286364Y-19229953D02*
X56228364Y-19229953D01*
X58286364Y-19269953D02*
X56240364Y-19269953D01*
X58286364Y-19309953D02*
X56253364Y-19309953D01*
X58286364Y-19349953D02*
X56266364Y-19349953D01*
X58286364Y-19389953D02*
X56279364Y-19389953D01*
X58286364Y-19429953D02*
X56294364Y-19429953D01*
X58286364Y-19469953D02*
X56309364Y-19469953D01*
X58286364Y-19509953D02*
X56324364Y-19509953D01*
X58286364Y-19549953D02*
X56340364Y-19549953D01*
X58286364Y-19589953D02*
X56357364Y-19589953D01*
X58286364Y-19629953D02*
X56374364Y-19629953D01*
X58286364Y-19669953D02*
X56392364Y-19669953D01*
X58286364Y-19709953D02*
X56411364Y-19709953D01*
X58286364Y-19749953D02*
X56430364Y-19749953D01*
X58286364Y-19789953D02*
X56450364Y-19789953D01*
X58286364Y-19829953D02*
X56471364Y-19829953D01*
X58286364Y-19869953D02*
X56492364Y-19869953D01*
X58286364Y-19909953D02*
X56514364Y-19909953D01*
X58286364Y-19949953D02*
X56537364Y-19949953D01*
X58286364Y-19989953D02*
X56561364Y-19989953D01*
X58286364Y-20029953D02*
X56585364Y-20029953D01*
X58286364Y-20069953D02*
X56610364Y-20069953D01*
X58286364Y-20109953D02*
X56636364Y-20109953D01*
X58286364Y-20149953D02*
X56663364Y-20149953D01*
X58286364Y-20189953D02*
X56690364Y-20189953D01*
X58286364Y-20229953D02*
X56719364Y-20229953D01*
X58286364Y-20269953D02*
X56749364Y-20269953D01*
X58286364Y-20309953D02*
X56779364Y-20309953D01*
X58286364Y-20349953D02*
X56810364Y-20349953D01*
X58286364Y-20389953D02*
X56843364Y-20389953D01*
X58286364Y-20429953D02*
X56876364Y-20429953D01*
X58286364Y-20469953D02*
X56911364Y-20469953D01*
X58286364Y-20509953D02*
X56947364Y-20509953D01*
X58286364Y-20549953D02*
X56984364Y-20549953D01*
X58286364Y-20589953D02*
X57022364Y-20589953D01*
X59728364Y-21549953D02*
X58924364Y-21549953D01*
X59959364Y-21509953D02*
X58693364Y-21509953D01*
X60127364Y-21469953D02*
X58525364Y-21469953D01*
X60265364Y-21429953D02*
X58387364Y-21429953D01*
X60384364Y-21389953D02*
X58268364Y-21389953D01*
X60491364Y-21349953D02*
X58161364Y-21349953D01*
X60587364Y-21309953D02*
X58065364Y-21309953D01*
X60676364Y-21269953D02*
X57976364Y-21269953D01*
X60758364Y-21229953D02*
X57894364Y-21229953D01*
X60835364Y-21189953D02*
X57817364Y-21189953D01*
X60907364Y-21149953D02*
X57745364Y-21149953D01*
X60975364Y-21109953D02*
X57677364Y-21109953D01*
X61040364Y-21069953D02*
X57612364Y-21069953D01*
X61101364Y-21029953D02*
X57551364Y-21029953D01*
X61160364Y-20989953D02*
X57492364Y-20989953D01*
X61165364Y-14809712D02*
X61165364Y-15439712D01*
X61216364Y-20949953D02*
X57436364Y-20949953D01*
X61269364Y-20909953D02*
X57383364Y-20909953D01*
X61321364Y-20869953D02*
X57331364Y-20869953D01*
X61370364Y-20829953D02*
X57282364Y-20829953D01*
X61417364Y-20789953D02*
X57235364Y-20789953D01*
X61463364Y-20749953D02*
X57189364Y-20749953D01*
X61480364Y-15124712D02*
X60850364Y-15124712D01*
X61507364Y-20709953D02*
X57145364Y-20709953D01*
X61549364Y-20669953D02*
X57103364Y-20669953D01*
X61590364Y-20629953D02*
X57062364Y-20629953D01*
X61630364Y-20589953D02*
X60366364Y-20589953D01*
X61668364Y-20549953D02*
X60366364Y-20549953D01*
X61705364Y-20509953D02*
X60366364Y-20509953D01*
X61741364Y-20469953D02*
X60366364Y-20469953D01*
X61776364Y-20429953D02*
X60366364Y-20429953D01*
X61809364Y-20389953D02*
X60366364Y-20389953D01*
X61842364Y-20349953D02*
X60366364Y-20349953D01*
X61873364Y-20309953D02*
X60366364Y-20309953D01*
X61903364Y-20269953D02*
X60366364Y-20269953D01*
X61933364Y-20229953D02*
X60366364Y-20229953D01*
X61962364Y-20189953D02*
X60366364Y-20189953D01*
X61989364Y-20149953D02*
X60366364Y-20149953D01*
X62016364Y-20109953D02*
X60366364Y-20109953D01*
X62042364Y-20069953D02*
X60366364Y-20069953D01*
X62067364Y-20029953D02*
X60366364Y-20029953D01*
X62091364Y-19989953D02*
X60366364Y-19989953D01*
X62115364Y-19949953D02*
X60366364Y-19949953D01*
X62138364Y-19909953D02*
X60366364Y-19909953D01*
X62160364Y-19869953D02*
X60366364Y-19869953D01*
X62181364Y-19829953D02*
X60366364Y-19829953D01*
X62202364Y-19789953D02*
X60366364Y-19789953D01*
X62222364Y-19749953D02*
X60366364Y-19749953D01*
X62241364Y-19709953D02*
X60366364Y-19709953D01*
X62260364Y-19669953D02*
X60366364Y-19669953D01*
X62278364Y-19629953D02*
X60366364Y-19629953D01*
X62295364Y-19589953D02*
X60366364Y-19589953D01*
X62312364Y-19549953D02*
X60366364Y-19549953D01*
X62328364Y-19509953D02*
X60366364Y-19509953D01*
X62343364Y-19469953D02*
X60366364Y-19469953D01*
X62358364Y-19429953D02*
X60366364Y-19429953D01*
X62373364Y-19389953D02*
X60366364Y-19389953D01*
X62386364Y-19349953D02*
X60366364Y-19349953D01*
X62399364Y-19309953D02*
X60366364Y-19309953D01*
X62412364Y-19269953D02*
X60366364Y-19269953D01*
X62424364Y-19229953D02*
X60366364Y-19229953D01*
X62435364Y-19189953D02*
X60366364Y-19189953D01*
X62446364Y-19149953D02*
X60366364Y-19149953D01*
X62457364Y-19109953D02*
X60366364Y-19109953D01*
X62466364Y-19069953D02*
X60366364Y-19069953D01*
X62476364Y-19029953D02*
X60366364Y-19029953D01*
X62485364Y-18989953D02*
X60366364Y-18989953D01*
X62493364Y-18949953D02*
X60366364Y-18949953D01*
X62500364Y-18909953D02*
X60366364Y-18909953D01*
X62508364Y-18869953D02*
X60366364Y-18869953D01*
X62514364Y-18829953D02*
X60366364Y-18829953D01*
X62521364Y-18789953D02*
X60366364Y-18789953D01*
X62526364Y-18749953D02*
X60366364Y-18749953D01*
X62531364Y-18709953D02*
X60366364Y-18709953D01*
X62536364Y-18669953D02*
X60366364Y-18669953D01*
X62540364Y-18629953D02*
X60366364Y-18629953D01*
X62544364Y-18589953D02*
X60366364Y-18589953D01*
X62547364Y-18549953D02*
X60366364Y-18549953D01*
X62550364Y-18509953D02*
X56102364Y-18509953D01*
X62552364Y-18469953D02*
X56100364Y-18469953D01*
X62554364Y-18429953D02*
X56098364Y-18429953D01*
X62555364Y-18389953D02*
X56097364Y-18389953D01*
X62556364Y-18309953D02*
X56096364Y-18309953D01*
X62556364Y-18349953D02*
X56096364Y-18349953D01*
X62596364Y-18309953D02*
G75*
G02*
X56056364Y-18309953I-3270000J0D01*
G01*
X56056364Y-18309953D02*
G75*
G02*
X62596364Y-18309953I3270000J0D01*
G01*
%TO.C,R16*%
X85640500Y-31895258D02*
X85640500Y-31420742D01*
X86685500Y-31895258D02*
X86685500Y-31420742D01*
%TO.C,Q1*%
X63245364Y-35796332D02*
X63245364Y-45286332D01*
X63245364Y-35796332D02*
X73485364Y-35796332D01*
X63245364Y-45286332D02*
X73485364Y-45286332D01*
X63245364Y-45526332D02*
X63245364Y-46726332D01*
X63245364Y-47926332D02*
X63245364Y-49126332D01*
X63245364Y-50326332D02*
X63245364Y-51526332D01*
X63245364Y-51686332D02*
X64445364Y-51686332D01*
X65644364Y-51686332D02*
X66845364Y-51686332D01*
X65825364Y-33256332D02*
X65825364Y-35796332D01*
X68045364Y-51686332D02*
X69245364Y-51686332D01*
X68365364Y-33256332D02*
X68365364Y-35796332D01*
X70445364Y-51686332D02*
X71645364Y-51686332D01*
X70905364Y-33256332D02*
X70905364Y-35796332D01*
X72845364Y-51686332D02*
X73485364Y-51686332D01*
X73485364Y-35796332D02*
X73485364Y-45286332D01*
X73485364Y-45526332D02*
X73485364Y-46726332D01*
X73485364Y-47926332D02*
X73485364Y-49126332D01*
X73485364Y-50326332D02*
X73485364Y-51526332D01*
%TO.C,R6*%
X46224071Y-57677583D02*
X45749555Y-57677583D01*
X46224071Y-58722583D02*
X45749555Y-58722583D01*
%TO.C,C8*%
X27417700Y-55805388D02*
X27202028Y-55805388D01*
X27417700Y-56525388D02*
X27202028Y-56525388D01*
%TO.C,R9*%
X60557568Y-36465326D02*
X61032084Y-36465326D01*
X60557568Y-37510326D02*
X61032084Y-37510326D01*
%TO.C,Q2*%
X73877015Y-35796332D02*
X73877015Y-45286332D01*
X73877015Y-35796332D02*
X84117015Y-35796332D01*
X73877015Y-45286332D02*
X84117015Y-45286332D01*
X73877015Y-45526332D02*
X73877015Y-46726332D01*
X73877015Y-47926332D02*
X73877015Y-49126332D01*
X73877015Y-50326332D02*
X73877015Y-51526332D01*
X73877015Y-51686332D02*
X75077015Y-51686332D01*
X76276015Y-51686332D02*
X77477015Y-51686332D01*
X76457015Y-33256332D02*
X76457015Y-35796332D01*
X78677015Y-51686332D02*
X79877015Y-51686332D01*
X78997015Y-33256332D02*
X78997015Y-35796332D01*
X81077015Y-51686332D02*
X82277015Y-51686332D01*
X81537015Y-33256332D02*
X81537015Y-35796332D01*
X83477015Y-51686332D02*
X84117015Y-51686332D01*
X84117015Y-35796332D02*
X84117015Y-45286332D01*
X84117015Y-45526332D02*
X84117015Y-46726332D01*
X84117015Y-47926332D02*
X84117015Y-49126332D01*
X84117015Y-50326332D02*
X84117015Y-51526332D01*
%TO.C,R3*%
X29471622Y-68495832D02*
X28997106Y-68495832D01*
X29471622Y-69540832D02*
X28997106Y-69540832D01*
%TO.C,U6*%
X74907364Y-15406332D02*
X74907364Y-20047332D01*
X74907364Y-15406332D02*
X85147364Y-15406332D01*
X74907364Y-16916332D02*
X85147364Y-16916332D01*
X74907364Y-20047332D02*
X85147364Y-20047332D01*
X78177364Y-15406332D02*
X78177364Y-16916332D01*
X81878364Y-15406332D02*
X81878364Y-16916332D01*
X85147364Y-15406332D02*
X85147364Y-20047332D01*
%TO.C,F1*%
X25607364Y-15670332D02*
X25607364Y-17270332D01*
X25607364Y-22070332D02*
X25607364Y-20470332D01*
X31907364Y-15670332D02*
X25607364Y-15670332D01*
X31907364Y-15670332D02*
X31907364Y-17270332D01*
X31907364Y-22070332D02*
X25607364Y-22070332D01*
X31907364Y-22070332D02*
X31907364Y-20470332D01*
X39647364Y-15670332D02*
X39647364Y-17270332D01*
X39647364Y-16370332D02*
X31907364Y-16370332D01*
X39647364Y-21370332D02*
X31907364Y-21370332D01*
X39647364Y-22070332D02*
X39647364Y-20470332D01*
X39647364Y-22070332D02*
X45947364Y-22070332D01*
X45947364Y-15670332D02*
X39647364Y-15670332D01*
X45947364Y-17270332D02*
X45947364Y-15670332D01*
X45947364Y-20470332D02*
X45947364Y-22070332D01*
%TO.C,R17*%
X78880622Y-60185832D02*
X78406106Y-60185832D01*
X78880622Y-61230832D02*
X78406106Y-61230832D01*
%TO.C,R7*%
X59429300Y-39510332D02*
X60883428Y-39510332D01*
X59429300Y-41330332D02*
X60883428Y-41330332D01*
%TO.C,R1*%
X23116622Y-58652888D02*
X22642106Y-58652888D01*
X23116622Y-59697888D02*
X22642106Y-59697888D01*
%TO.C,Q3*%
X63245364Y-66970332D02*
X63245364Y-76460332D01*
X63245364Y-66970332D02*
X73485364Y-66970332D01*
X63245364Y-76460332D02*
X73485364Y-76460332D01*
X63245364Y-76700332D02*
X63245364Y-77900332D01*
X63245364Y-79100332D02*
X63245364Y-80300332D01*
X63245364Y-81500332D02*
X63245364Y-82700332D01*
X63245364Y-82860332D02*
X64445364Y-82860332D01*
X65644364Y-82860332D02*
X66845364Y-82860332D01*
X65825364Y-64430332D02*
X65825364Y-66970332D01*
X68045364Y-82860332D02*
X69245364Y-82860332D01*
X68365364Y-64430332D02*
X68365364Y-66970332D01*
X70445364Y-82860332D02*
X71645364Y-82860332D01*
X70905364Y-64430332D02*
X70905364Y-66970332D01*
X72845364Y-82860332D02*
X73485364Y-82860332D01*
X73485364Y-66970332D02*
X73485364Y-76460332D01*
X73485364Y-76700332D02*
X73485364Y-77900332D01*
X73485364Y-79100332D02*
X73485364Y-80300332D01*
X73485364Y-81500332D02*
X73485364Y-82700332D01*
%TO.C,C5*%
X30164364Y-67151496D02*
X30164364Y-67367168D01*
X30884364Y-67151496D02*
X30884364Y-67367168D01*
%TO.C,C7*%
X51408377Y-35267429D02*
X51624049Y-35267429D01*
X51408377Y-35987429D02*
X51624049Y-35987429D01*
%TO.C,D2*%
X51317364Y-66394332D02*
X51317364Y-69694332D01*
X51317364Y-66394332D02*
X56827364Y-66394332D01*
X51317364Y-69694332D02*
X56827364Y-69694332D01*
%TO.C,C17*%
X52413364Y-24318733D02*
X51182364Y-24318733D01*
X52413364Y-24358733D02*
X51187364Y-24358733D01*
X52413364Y-24398733D02*
X51192364Y-24398733D01*
X52413364Y-24438733D02*
X51197364Y-24438733D01*
X52413364Y-24478733D02*
X51204364Y-24478733D01*
X52413364Y-24518733D02*
X51211364Y-24518733D01*
X52413364Y-24558733D02*
X51219364Y-24558733D01*
X52413364Y-24598733D02*
X51228364Y-24598733D01*
X52413364Y-24638733D02*
X51238364Y-24638733D01*
X52413364Y-24678733D02*
X51248364Y-24678733D01*
X52413364Y-24718733D02*
X51260364Y-24718733D01*
X52413364Y-24758733D02*
X51272364Y-24758733D01*
X52413364Y-24798733D02*
X51285364Y-24798733D01*
X52413364Y-24838733D02*
X51299364Y-24838733D01*
X52413364Y-24878733D02*
X51314364Y-24878733D01*
X52413364Y-24918733D02*
X51330364Y-24918733D01*
X52413364Y-24958733D02*
X51347364Y-24958733D01*
X52413364Y-24998733D02*
X51364364Y-24998733D01*
X52413364Y-25038733D02*
X51383364Y-25038733D01*
X52413364Y-25078733D02*
X51403364Y-25078733D01*
X52413364Y-25118733D02*
X51424364Y-25118733D01*
X52413364Y-25158733D02*
X51446364Y-25158733D01*
X52413364Y-25198733D02*
X51469364Y-25198733D01*
X52413364Y-25238733D02*
X51493364Y-25238733D01*
X52413364Y-25278733D02*
X51519364Y-25278733D01*
X52413364Y-25318733D02*
X51545364Y-25318733D01*
X52413364Y-25358733D02*
X51573364Y-25358733D01*
X52413364Y-25398733D02*
X51603364Y-25398733D01*
X52413364Y-25438733D02*
X51634364Y-25438733D01*
X52413364Y-25478733D02*
X51667364Y-25478733D01*
X52413364Y-25518733D02*
X51701364Y-25518733D01*
X52413364Y-25558733D02*
X51737364Y-25558733D01*
X52413364Y-25598733D02*
X51775364Y-25598733D01*
X52413364Y-25638733D02*
X51815364Y-25638733D01*
X52413364Y-25678733D02*
X51857364Y-25678733D01*
X52413364Y-25718733D02*
X51902364Y-25718733D01*
X52413364Y-25758733D02*
X51950364Y-25758733D01*
X52413364Y-25798733D02*
X52000364Y-25798733D01*
X52413364Y-25838733D02*
X52054364Y-25838733D01*
X52413364Y-25878733D02*
X52111364Y-25878733D01*
X52413364Y-25918733D02*
X52173364Y-25918733D01*
X53623364Y-26198733D02*
X52883364Y-26198733D01*
X53790364Y-26158733D02*
X52716364Y-26158733D01*
X53916364Y-26118733D02*
X52590364Y-26118733D01*
X54021364Y-26078733D02*
X52485364Y-26078733D01*
X54112364Y-26038733D02*
X52394364Y-26038733D01*
X54193364Y-25998733D02*
X52313364Y-25998733D01*
X54266364Y-25958733D02*
X52240364Y-25958733D01*
X54333364Y-25918733D02*
X54093364Y-25918733D01*
X54395364Y-25878733D02*
X54093364Y-25878733D01*
X54448364Y-21848932D02*
X54448364Y-22248932D01*
X54452364Y-25838733D02*
X54093364Y-25838733D01*
X54506364Y-25798733D02*
X54093364Y-25798733D01*
X54556364Y-25758733D02*
X54093364Y-25758733D01*
X54604364Y-25718733D02*
X54093364Y-25718733D01*
X54648364Y-22048932D02*
X54248364Y-22048932D01*
X54649364Y-25678733D02*
X54093364Y-25678733D01*
X54691364Y-25638733D02*
X54093364Y-25638733D01*
X54731364Y-25598733D02*
X54093364Y-25598733D01*
X54769364Y-25558733D02*
X54093364Y-25558733D01*
X54805364Y-25518733D02*
X54093364Y-25518733D01*
X54839364Y-25478733D02*
X54093364Y-25478733D01*
X54872364Y-25438733D02*
X54093364Y-25438733D01*
X54903364Y-25398733D02*
X54093364Y-25398733D01*
X54933364Y-25358733D02*
X54093364Y-25358733D01*
X54961364Y-25318733D02*
X54093364Y-25318733D01*
X54987364Y-25278733D02*
X54093364Y-25278733D01*
X55013364Y-25238733D02*
X54093364Y-25238733D01*
X55037364Y-25198733D02*
X54093364Y-25198733D01*
X55060364Y-25158733D02*
X54093364Y-25158733D01*
X55082364Y-25118733D02*
X54093364Y-25118733D01*
X55103364Y-25078733D02*
X54093364Y-25078733D01*
X55123364Y-25038733D02*
X54093364Y-25038733D01*
X55142364Y-24998733D02*
X54093364Y-24998733D01*
X55159364Y-24958733D02*
X54093364Y-24958733D01*
X55176364Y-24918733D02*
X54093364Y-24918733D01*
X55192364Y-24878733D02*
X54093364Y-24878733D01*
X55207364Y-24838733D02*
X54093364Y-24838733D01*
X55221364Y-24798733D02*
X54093364Y-24798733D01*
X55234364Y-24758733D02*
X54093364Y-24758733D01*
X55246364Y-24718733D02*
X54093364Y-24718733D01*
X55258364Y-24678733D02*
X54093364Y-24678733D01*
X55268364Y-24638733D02*
X54093364Y-24638733D01*
X55278364Y-24598733D02*
X54093364Y-24598733D01*
X55287364Y-24558733D02*
X54093364Y-24558733D01*
X55295364Y-24518733D02*
X54093364Y-24518733D01*
X55302364Y-24478733D02*
X54093364Y-24478733D01*
X55309364Y-24438733D02*
X54093364Y-24438733D01*
X55314364Y-24398733D02*
X54093364Y-24398733D01*
X55319364Y-24358733D02*
X54093364Y-24358733D01*
X55324364Y-24318733D02*
X54093364Y-24318733D01*
X55327364Y-24278733D02*
X51179364Y-24278733D01*
X55330364Y-24238733D02*
X51176364Y-24238733D01*
X55331364Y-24198733D02*
X51175364Y-24198733D01*
X55333364Y-24118733D02*
X51173364Y-24118733D01*
X55333364Y-24158733D02*
X51173364Y-24158733D01*
X55373364Y-24118733D02*
G75*
G02*
X51133364Y-24118733I-2120000J0D01*
G01*
X51133364Y-24118733D02*
G75*
G02*
X55373364Y-24118733I2120000J0D01*
G01*
%TO.C,U5*%
X64073364Y-15406332D02*
X64073364Y-20047332D01*
X64073364Y-15406332D02*
X74313364Y-15406332D01*
X64073364Y-16916332D02*
X74313364Y-16916332D01*
X64073364Y-20047332D02*
X74313364Y-20047332D01*
X67343364Y-15406332D02*
X67343364Y-16916332D01*
X71044364Y-15406332D02*
X71044364Y-16916332D01*
X74313364Y-15406332D02*
X74313364Y-20047332D01*
%TO.C,R23*%
X28207106Y-66961832D02*
X28681622Y-66961832D01*
X28207106Y-68006832D02*
X28681622Y-68006832D01*
%TO.C,U2*%
X24794864Y-65794332D02*
X23994864Y-65794332D01*
X24794864Y-65794332D02*
X25594864Y-65794332D01*
X24794864Y-68914332D02*
X23994864Y-68914332D01*
X24794864Y-68914332D02*
X25594864Y-68914332D01*
X23494864Y-65844332D02*
X23254864Y-65514332D01*
X23734864Y-65514332D01*
X23494864Y-65844332D01*
G36*
X23494864Y-65844332D02*
G01*
X23254864Y-65514332D01*
X23734864Y-65514332D01*
X23494864Y-65844332D01*
G37*
%TO.C,C19*%
X88644364Y-21357681D02*
X85611364Y-21357681D01*
X88644364Y-21397681D02*
X85614364Y-21397681D01*
X88644364Y-21437681D02*
X85616364Y-21437681D01*
X88644364Y-21477681D02*
X85620364Y-21477681D01*
X88644364Y-21517681D02*
X85623364Y-21517681D01*
X88644364Y-21557681D02*
X85628364Y-21557681D01*
X88644364Y-21597681D02*
X85632364Y-21597681D01*
X88644364Y-21637681D02*
X85637364Y-21637681D01*
X88644364Y-21677681D02*
X85642364Y-21677681D01*
X88644364Y-21717681D02*
X85648364Y-21717681D01*
X88644364Y-21757681D02*
X85654364Y-21757681D01*
X88644364Y-21797681D02*
X85661364Y-21797681D01*
X88644364Y-21837681D02*
X85667364Y-21837681D01*
X88644364Y-21877681D02*
X85675364Y-21877681D01*
X88644364Y-21917681D02*
X85682364Y-21917681D01*
X88644364Y-21957681D02*
X85691364Y-21957681D01*
X88644364Y-21997681D02*
X85699364Y-21997681D01*
X88644364Y-22037681D02*
X85708364Y-22037681D01*
X88644364Y-22077681D02*
X85717364Y-22077681D01*
X88644364Y-22117681D02*
X85727364Y-22117681D01*
X88644364Y-22157681D02*
X85737364Y-22157681D01*
X88644364Y-22197681D02*
X85748364Y-22197681D01*
X88644364Y-22237681D02*
X85759364Y-22237681D01*
X88644364Y-22277681D02*
X85771364Y-22277681D01*
X88644364Y-22317681D02*
X85783364Y-22317681D01*
X88644364Y-22357681D02*
X85795364Y-22357681D01*
X88644364Y-22397681D02*
X85808364Y-22397681D01*
X88644364Y-22437681D02*
X85821364Y-22437681D01*
X88644364Y-22477681D02*
X85835364Y-22477681D01*
X88644364Y-22517681D02*
X85849364Y-22517681D01*
X88644364Y-22557681D02*
X85864364Y-22557681D01*
X88644364Y-22597681D02*
X85879364Y-22597681D01*
X88644364Y-22637681D02*
X85895364Y-22637681D01*
X88644364Y-22677681D02*
X85911364Y-22677681D01*
X88644364Y-22717681D02*
X85927364Y-22717681D01*
X88644364Y-22757681D02*
X85944364Y-22757681D01*
X88644364Y-22797681D02*
X85962364Y-22797681D01*
X88644364Y-22837681D02*
X85980364Y-22837681D01*
X88644364Y-22877681D02*
X85999364Y-22877681D01*
X88644364Y-22917681D02*
X86018364Y-22917681D01*
X88644364Y-22957681D02*
X86038364Y-22957681D01*
X88644364Y-22997681D02*
X86058364Y-22997681D01*
X88644364Y-23037681D02*
X86079364Y-23037681D01*
X88644364Y-23077681D02*
X86100364Y-23077681D01*
X88644364Y-23117681D02*
X86122364Y-23117681D01*
X88644364Y-23157681D02*
X86145364Y-23157681D01*
X88644364Y-23197681D02*
X86168364Y-23197681D01*
X88644364Y-23237681D02*
X86191364Y-23237681D01*
X88644364Y-23277681D02*
X86216364Y-23277681D01*
X88644364Y-23317681D02*
X86241364Y-23317681D01*
X88644364Y-23357681D02*
X86266364Y-23357681D01*
X88644364Y-23397681D02*
X86292364Y-23397681D01*
X90217364Y-25197681D02*
X89151364Y-25197681D01*
X90452364Y-25157681D02*
X88916364Y-25157681D01*
X90631364Y-25117681D02*
X88737364Y-25117681D01*
X90781364Y-25077681D02*
X88587364Y-25077681D01*
X90912364Y-25037681D02*
X88456364Y-25037681D01*
X91030364Y-24997681D02*
X88338364Y-24997681D01*
X91137364Y-24957681D02*
X88231364Y-24957681D01*
X91236364Y-24917681D02*
X88132364Y-24917681D01*
X91328364Y-24877681D02*
X88040364Y-24877681D01*
X91415364Y-24837681D02*
X87953364Y-24837681D01*
X91497364Y-24797681D02*
X87871364Y-24797681D01*
X91574364Y-24757681D02*
X87794364Y-24757681D01*
X91648364Y-24717681D02*
X87720364Y-24717681D01*
X91718364Y-24677681D02*
X87650364Y-24677681D01*
X91785364Y-24637681D02*
X87583364Y-24637681D01*
X91849364Y-24597681D02*
X87519364Y-24597681D01*
X91911364Y-24557681D02*
X87457364Y-24557681D01*
X91971364Y-24517681D02*
X87397364Y-24517681D01*
X91999364Y-16707983D02*
X91999364Y-17507983D01*
X92028364Y-24477681D02*
X87340364Y-24477681D01*
X92084364Y-24437681D02*
X87284364Y-24437681D01*
X92137364Y-24397681D02*
X87231364Y-24397681D01*
X92189364Y-24357681D02*
X87179364Y-24357681D01*
X92239364Y-24317681D02*
X87129364Y-24317681D01*
X92288364Y-24277681D02*
X87080364Y-24277681D01*
X92335364Y-24237681D02*
X87033364Y-24237681D01*
X92380364Y-24197681D02*
X86988364Y-24197681D01*
X92399364Y-17107983D02*
X91599364Y-17107983D01*
X92425364Y-24157681D02*
X86943364Y-24157681D01*
X92468364Y-24117681D02*
X86900364Y-24117681D01*
X92510364Y-24077681D02*
X86858364Y-24077681D01*
X92551364Y-24037681D02*
X86817364Y-24037681D01*
X92590364Y-23997681D02*
X86778364Y-23997681D01*
X92629364Y-23957681D02*
X86739364Y-23957681D01*
X92666364Y-23917681D02*
X86702364Y-23917681D01*
X92703364Y-23877681D02*
X86665364Y-23877681D01*
X92739364Y-23837681D02*
X86629364Y-23837681D01*
X92773364Y-23797681D02*
X86595364Y-23797681D01*
X92807364Y-23757681D02*
X86561364Y-23757681D01*
X92840364Y-23717681D02*
X86528364Y-23717681D01*
X92872364Y-23677681D02*
X86496364Y-23677681D01*
X92903364Y-23637681D02*
X86465364Y-23637681D01*
X92934364Y-23597681D02*
X86434364Y-23597681D01*
X92964364Y-23557681D02*
X86404364Y-23557681D01*
X92993364Y-23517681D02*
X86375364Y-23517681D01*
X93021364Y-23477681D02*
X86347364Y-23477681D01*
X93049364Y-23437681D02*
X86319364Y-23437681D01*
X93076364Y-23397681D02*
X90724364Y-23397681D01*
X93102364Y-23357681D02*
X90724364Y-23357681D01*
X93127364Y-23317681D02*
X90724364Y-23317681D01*
X93152364Y-23277681D02*
X90724364Y-23277681D01*
X93177364Y-23237681D02*
X90724364Y-23237681D01*
X93200364Y-23197681D02*
X90724364Y-23197681D01*
X93223364Y-23157681D02*
X90724364Y-23157681D01*
X93246364Y-23117681D02*
X90724364Y-23117681D01*
X93268364Y-23077681D02*
X90724364Y-23077681D01*
X93289364Y-23037681D02*
X90724364Y-23037681D01*
X93310364Y-22997681D02*
X90724364Y-22997681D01*
X93330364Y-22957681D02*
X90724364Y-22957681D01*
X93350364Y-22917681D02*
X90724364Y-22917681D01*
X93369364Y-22877681D02*
X90724364Y-22877681D01*
X93388364Y-22837681D02*
X90724364Y-22837681D01*
X93406364Y-22797681D02*
X90724364Y-22797681D01*
X93424364Y-22757681D02*
X90724364Y-22757681D01*
X93441364Y-22717681D02*
X90724364Y-22717681D01*
X93457364Y-22677681D02*
X90724364Y-22677681D01*
X93473364Y-22637681D02*
X90724364Y-22637681D01*
X93489364Y-22597681D02*
X90724364Y-22597681D01*
X93504364Y-22557681D02*
X90724364Y-22557681D01*
X93519364Y-22517681D02*
X90724364Y-22517681D01*
X93533364Y-22477681D02*
X90724364Y-22477681D01*
X93547364Y-22437681D02*
X90724364Y-22437681D01*
X93560364Y-22397681D02*
X90724364Y-22397681D01*
X93573364Y-22357681D02*
X90724364Y-22357681D01*
X93585364Y-22317681D02*
X90724364Y-22317681D01*
X93597364Y-22277681D02*
X90724364Y-22277681D01*
X93609364Y-22237681D02*
X90724364Y-22237681D01*
X93620364Y-22197681D02*
X90724364Y-22197681D01*
X93631364Y-22157681D02*
X90724364Y-22157681D01*
X93641364Y-22117681D02*
X90724364Y-22117681D01*
X93651364Y-22077681D02*
X90724364Y-22077681D01*
X93660364Y-22037681D02*
X90724364Y-22037681D01*
X93669364Y-21997681D02*
X90724364Y-21997681D01*
X93677364Y-21957681D02*
X90724364Y-21957681D01*
X93686364Y-21917681D02*
X90724364Y-21917681D01*
X93693364Y-21877681D02*
X90724364Y-21877681D01*
X93701364Y-21837681D02*
X90724364Y-21837681D01*
X93707364Y-21797681D02*
X90724364Y-21797681D01*
X93714364Y-21757681D02*
X90724364Y-21757681D01*
X93720364Y-21717681D02*
X90724364Y-21717681D01*
X93726364Y-21677681D02*
X90724364Y-21677681D01*
X93731364Y-21637681D02*
X90724364Y-21637681D01*
X93736364Y-21597681D02*
X90724364Y-21597681D01*
X93740364Y-21557681D02*
X90724364Y-21557681D01*
X93745364Y-21517681D02*
X90724364Y-21517681D01*
X93748364Y-21477681D02*
X90724364Y-21477681D01*
X93752364Y-21437681D02*
X90724364Y-21437681D01*
X93754364Y-21397681D02*
X90724364Y-21397681D01*
X93757364Y-21357681D02*
X90724364Y-21357681D01*
X93759364Y-21317681D02*
X85609364Y-21317681D01*
X93761364Y-21277681D02*
X85607364Y-21277681D01*
X93762364Y-21237681D02*
X85606364Y-21237681D01*
X93763364Y-21197681D02*
X85605364Y-21197681D01*
X93764364Y-21117681D02*
X85604364Y-21117681D01*
X93764364Y-21157681D02*
X85604364Y-21157681D01*
X93804364Y-21117681D02*
G75*
G02*
X85564364Y-21117681I-4120000J0D01*
G01*
X85564364Y-21117681D02*
G75*
G02*
X93804364Y-21117681I4120000J0D01*
G01*
%TO.C,U4*%
X33561801Y-57991602D02*
X32761801Y-57991602D01*
X33561801Y-57991602D02*
X34361801Y-57991602D01*
X33561801Y-61111602D02*
X32761801Y-61111602D01*
X33561801Y-61111602D02*
X34361801Y-61111602D01*
X32261801Y-58041602D02*
X32021801Y-57711602D01*
X32501801Y-57711602D01*
X32261801Y-58041602D01*
G36*
X32261801Y-58041602D02*
G01*
X32021801Y-57711602D01*
X32501801Y-57711602D01*
X32261801Y-58041602D01*
G37*
%TO.C,U1*%
X33561801Y-53441602D02*
X32761801Y-53441602D01*
X33561801Y-53441602D02*
X34361801Y-53441602D01*
X33561801Y-56561602D02*
X32761801Y-56561602D01*
X33561801Y-56561602D02*
X34361801Y-56561602D01*
X32261801Y-53491602D02*
X32021801Y-53161602D01*
X32501801Y-53161602D01*
X32261801Y-53491602D01*
G36*
X32261801Y-53491602D02*
G01*
X32021801Y-53161602D01*
X32501801Y-53161602D01*
X32261801Y-53491602D01*
G37*
%TO.C,R19*%
X59332554Y-62370332D02*
X60786682Y-62370332D01*
X59332554Y-64190332D02*
X60786682Y-64190332D01*
%TO.C,U3*%
X49988364Y-39090332D02*
X49988364Y-64610332D01*
X49988364Y-64610332D02*
X55288364Y-64610332D01*
X51638364Y-39090332D02*
X49988364Y-39090332D01*
X55288364Y-39090332D02*
X53638364Y-39090332D01*
X55288364Y-64610332D02*
X55288364Y-39090332D01*
X53638364Y-39090332D02*
G75*
G02*
X51638364Y-39090332I-1000000J0D01*
G01*
%TO.C,SW1*%
X29593000Y-35894000D02*
X29593000Y-40394000D01*
X32093000Y-41644000D02*
X33593000Y-41644000D01*
X33593000Y-34644000D02*
X32093000Y-34644000D01*
X36093000Y-40394000D02*
X36093000Y-35894000D01*
%TO.C,R2*%
X22642106Y-57132888D02*
X23116622Y-57132888D01*
X22642106Y-58177888D02*
X23116622Y-58177888D01*
%TO.C,C12*%
X57219364Y-24318733D02*
X55988364Y-24318733D01*
X57219364Y-24358733D02*
X55993364Y-24358733D01*
X57219364Y-24398733D02*
X55998364Y-24398733D01*
X57219364Y-24438733D02*
X56003364Y-24438733D01*
X57219364Y-24478733D02*
X56010364Y-24478733D01*
X57219364Y-24518733D02*
X56017364Y-24518733D01*
X57219364Y-24558733D02*
X56025364Y-24558733D01*
X57219364Y-24598733D02*
X56034364Y-24598733D01*
X57219364Y-24638733D02*
X56044364Y-24638733D01*
X57219364Y-24678733D02*
X56054364Y-24678733D01*
X57219364Y-24718733D02*
X56066364Y-24718733D01*
X57219364Y-24758733D02*
X56078364Y-24758733D01*
X57219364Y-24798733D02*
X56091364Y-24798733D01*
X57219364Y-24838733D02*
X56105364Y-24838733D01*
X57219364Y-24878733D02*
X56120364Y-24878733D01*
X57219364Y-24918733D02*
X56136364Y-24918733D01*
X57219364Y-24958733D02*
X56153364Y-24958733D01*
X57219364Y-24998733D02*
X56170364Y-24998733D01*
X57219364Y-25038733D02*
X56189364Y-25038733D01*
X57219364Y-25078733D02*
X56209364Y-25078733D01*
X57219364Y-25118733D02*
X56230364Y-25118733D01*
X57219364Y-25158733D02*
X56252364Y-25158733D01*
X57219364Y-25198733D02*
X56275364Y-25198733D01*
X57219364Y-25238733D02*
X56299364Y-25238733D01*
X57219364Y-25278733D02*
X56325364Y-25278733D01*
X57219364Y-25318733D02*
X56351364Y-25318733D01*
X57219364Y-25358733D02*
X56379364Y-25358733D01*
X57219364Y-25398733D02*
X56409364Y-25398733D01*
X57219364Y-25438733D02*
X56440364Y-25438733D01*
X57219364Y-25478733D02*
X56473364Y-25478733D01*
X57219364Y-25518733D02*
X56507364Y-25518733D01*
X57219364Y-25558733D02*
X56543364Y-25558733D01*
X57219364Y-25598733D02*
X56581364Y-25598733D01*
X57219364Y-25638733D02*
X56621364Y-25638733D01*
X57219364Y-25678733D02*
X56663364Y-25678733D01*
X57219364Y-25718733D02*
X56708364Y-25718733D01*
X57219364Y-25758733D02*
X56756364Y-25758733D01*
X57219364Y-25798733D02*
X56806364Y-25798733D01*
X57219364Y-25838733D02*
X56860364Y-25838733D01*
X57219364Y-25878733D02*
X56917364Y-25878733D01*
X57219364Y-25918733D02*
X56979364Y-25918733D01*
X58429364Y-26198733D02*
X57689364Y-26198733D01*
X58596364Y-26158733D02*
X57522364Y-26158733D01*
X58722364Y-26118733D02*
X57396364Y-26118733D01*
X58827364Y-26078733D02*
X57291364Y-26078733D01*
X58918364Y-26038733D02*
X57200364Y-26038733D01*
X58999364Y-25998733D02*
X57119364Y-25998733D01*
X59072364Y-25958733D02*
X57046364Y-25958733D01*
X59139364Y-25918733D02*
X58899364Y-25918733D01*
X59201364Y-25878733D02*
X58899364Y-25878733D01*
X59254364Y-21848932D02*
X59254364Y-22248932D01*
X59258364Y-25838733D02*
X58899364Y-25838733D01*
X59312364Y-25798733D02*
X58899364Y-25798733D01*
X59362364Y-25758733D02*
X58899364Y-25758733D01*
X59410364Y-25718733D02*
X58899364Y-25718733D01*
X59454364Y-22048932D02*
X59054364Y-22048932D01*
X59455364Y-25678733D02*
X58899364Y-25678733D01*
X59497364Y-25638733D02*
X58899364Y-25638733D01*
X59537364Y-25598733D02*
X58899364Y-25598733D01*
X59575364Y-25558733D02*
X58899364Y-25558733D01*
X59611364Y-25518733D02*
X58899364Y-25518733D01*
X59645364Y-25478733D02*
X58899364Y-25478733D01*
X59678364Y-25438733D02*
X58899364Y-25438733D01*
X59709364Y-25398733D02*
X58899364Y-25398733D01*
X59739364Y-25358733D02*
X58899364Y-25358733D01*
X59767364Y-25318733D02*
X58899364Y-25318733D01*
X59793364Y-25278733D02*
X58899364Y-25278733D01*
X59819364Y-25238733D02*
X58899364Y-25238733D01*
X59843364Y-25198733D02*
X58899364Y-25198733D01*
X59866364Y-25158733D02*
X58899364Y-25158733D01*
X59888364Y-25118733D02*
X58899364Y-25118733D01*
X59909364Y-25078733D02*
X58899364Y-25078733D01*
X59929364Y-25038733D02*
X58899364Y-25038733D01*
X59948364Y-24998733D02*
X58899364Y-24998733D01*
X59965364Y-24958733D02*
X58899364Y-24958733D01*
X59982364Y-24918733D02*
X58899364Y-24918733D01*
X59998364Y-24878733D02*
X58899364Y-24878733D01*
X60013364Y-24838733D02*
X58899364Y-24838733D01*
X60027364Y-24798733D02*
X58899364Y-24798733D01*
X60040364Y-24758733D02*
X58899364Y-24758733D01*
X60052364Y-24718733D02*
X58899364Y-24718733D01*
X60064364Y-24678733D02*
X58899364Y-24678733D01*
X60074364Y-24638733D02*
X58899364Y-24638733D01*
X60084364Y-24598733D02*
X58899364Y-24598733D01*
X60093364Y-24558733D02*
X58899364Y-24558733D01*
X60101364Y-24518733D02*
X58899364Y-24518733D01*
X60108364Y-24478733D02*
X58899364Y-24478733D01*
X60115364Y-24438733D02*
X58899364Y-24438733D01*
X60120364Y-24398733D02*
X58899364Y-24398733D01*
X60125364Y-24358733D02*
X58899364Y-24358733D01*
X60130364Y-24318733D02*
X58899364Y-24318733D01*
X60133364Y-24278733D02*
X55985364Y-24278733D01*
X60136364Y-24238733D02*
X55982364Y-24238733D01*
X60137364Y-24198733D02*
X55981364Y-24198733D01*
X60139364Y-24118733D02*
X55979364Y-24118733D01*
X60139364Y-24158733D02*
X55979364Y-24158733D01*
X60179364Y-24118733D02*
G75*
G02*
X55939364Y-24118733I-2120000J0D01*
G01*
X55939364Y-24118733D02*
G75*
G02*
X60179364Y-24118733I2120000J0D01*
G01*
%TO.C,C20*%
X81661000Y-24731000D02*
X81661000Y-23201000D01*
X83501000Y-24731000D02*
X83501000Y-23201000D01*
%TO.C,C14*%
X51021364Y-18549953D02*
X48840364Y-18549953D01*
X51021364Y-18589953D02*
X48843364Y-18589953D01*
X51021364Y-18629953D02*
X48847364Y-18629953D01*
X51021364Y-18669953D02*
X48851364Y-18669953D01*
X51021364Y-18709953D02*
X48856364Y-18709953D01*
X51021364Y-18749953D02*
X48861364Y-18749953D01*
X51021364Y-18789953D02*
X48866364Y-18789953D01*
X51021364Y-18829953D02*
X48873364Y-18829953D01*
X51021364Y-18869953D02*
X48879364Y-18869953D01*
X51021364Y-18909953D02*
X48887364Y-18909953D01*
X51021364Y-18949953D02*
X48894364Y-18949953D01*
X51021364Y-18989953D02*
X48902364Y-18989953D01*
X51021364Y-19029953D02*
X48911364Y-19029953D01*
X51021364Y-19069953D02*
X48921364Y-19069953D01*
X51021364Y-19109953D02*
X48930364Y-19109953D01*
X51021364Y-19149953D02*
X48941364Y-19149953D01*
X51021364Y-19189953D02*
X48952364Y-19189953D01*
X51021364Y-19229953D02*
X48963364Y-19229953D01*
X51021364Y-19269953D02*
X48975364Y-19269953D01*
X51021364Y-19309953D02*
X48988364Y-19309953D01*
X51021364Y-19349953D02*
X49001364Y-19349953D01*
X51021364Y-19389953D02*
X49014364Y-19389953D01*
X51021364Y-19429953D02*
X49029364Y-19429953D01*
X51021364Y-19469953D02*
X49044364Y-19469953D01*
X51021364Y-19509953D02*
X49059364Y-19509953D01*
X51021364Y-19549953D02*
X49075364Y-19549953D01*
X51021364Y-19589953D02*
X49092364Y-19589953D01*
X51021364Y-19629953D02*
X49109364Y-19629953D01*
X51021364Y-19669953D02*
X49127364Y-19669953D01*
X51021364Y-19709953D02*
X49146364Y-19709953D01*
X51021364Y-19749953D02*
X49165364Y-19749953D01*
X51021364Y-19789953D02*
X49185364Y-19789953D01*
X51021364Y-19829953D02*
X49206364Y-19829953D01*
X51021364Y-19869953D02*
X49227364Y-19869953D01*
X51021364Y-19909953D02*
X49249364Y-19909953D01*
X51021364Y-19949953D02*
X49272364Y-19949953D01*
X51021364Y-19989953D02*
X49296364Y-19989953D01*
X51021364Y-20029953D02*
X49320364Y-20029953D01*
X51021364Y-20069953D02*
X49345364Y-20069953D01*
X51021364Y-20109953D02*
X49371364Y-20109953D01*
X51021364Y-20149953D02*
X49398364Y-20149953D01*
X51021364Y-20189953D02*
X49425364Y-20189953D01*
X51021364Y-20229953D02*
X49454364Y-20229953D01*
X51021364Y-20269953D02*
X49484364Y-20269953D01*
X51021364Y-20309953D02*
X49514364Y-20309953D01*
X51021364Y-20349953D02*
X49545364Y-20349953D01*
X51021364Y-20389953D02*
X49578364Y-20389953D01*
X51021364Y-20429953D02*
X49611364Y-20429953D01*
X51021364Y-20469953D02*
X49646364Y-20469953D01*
X51021364Y-20509953D02*
X49682364Y-20509953D01*
X51021364Y-20549953D02*
X49719364Y-20549953D01*
X51021364Y-20589953D02*
X49757364Y-20589953D01*
X52463364Y-21549953D02*
X51659364Y-21549953D01*
X52694364Y-21509953D02*
X51428364Y-21509953D01*
X52862364Y-21469953D02*
X51260364Y-21469953D01*
X53000364Y-21429953D02*
X51122364Y-21429953D01*
X53119364Y-21389953D02*
X51003364Y-21389953D01*
X53226364Y-21349953D02*
X50896364Y-21349953D01*
X53322364Y-21309953D02*
X50800364Y-21309953D01*
X53411364Y-21269953D02*
X50711364Y-21269953D01*
X53493364Y-21229953D02*
X50629364Y-21229953D01*
X53570364Y-21189953D02*
X50552364Y-21189953D01*
X53642364Y-21149953D02*
X50480364Y-21149953D01*
X53710364Y-21109953D02*
X50412364Y-21109953D01*
X53775364Y-21069953D02*
X50347364Y-21069953D01*
X53836364Y-21029953D02*
X50286364Y-21029953D01*
X53895364Y-20989953D02*
X50227364Y-20989953D01*
X53900364Y-14809712D02*
X53900364Y-15439712D01*
X53951364Y-20949953D02*
X50171364Y-20949953D01*
X54004364Y-20909953D02*
X50118364Y-20909953D01*
X54056364Y-20869953D02*
X50066364Y-20869953D01*
X54105364Y-20829953D02*
X50017364Y-20829953D01*
X54152364Y-20789953D02*
X49970364Y-20789953D01*
X54198364Y-20749953D02*
X49924364Y-20749953D01*
X54215364Y-15124712D02*
X53585364Y-15124712D01*
X54242364Y-20709953D02*
X49880364Y-20709953D01*
X54284364Y-20669953D02*
X49838364Y-20669953D01*
X54325364Y-20629953D02*
X49797364Y-20629953D01*
X54365364Y-20589953D02*
X53101364Y-20589953D01*
X54403364Y-20549953D02*
X53101364Y-20549953D01*
X54440364Y-20509953D02*
X53101364Y-20509953D01*
X54476364Y-20469953D02*
X53101364Y-20469953D01*
X54511364Y-20429953D02*
X53101364Y-20429953D01*
X54544364Y-20389953D02*
X53101364Y-20389953D01*
X54577364Y-20349953D02*
X53101364Y-20349953D01*
X54608364Y-20309953D02*
X53101364Y-20309953D01*
X54638364Y-20269953D02*
X53101364Y-20269953D01*
X54668364Y-20229953D02*
X53101364Y-20229953D01*
X54697364Y-20189953D02*
X53101364Y-20189953D01*
X54724364Y-20149953D02*
X53101364Y-20149953D01*
X54751364Y-20109953D02*
X53101364Y-20109953D01*
X54777364Y-20069953D02*
X53101364Y-20069953D01*
X54802364Y-20029953D02*
X53101364Y-20029953D01*
X54826364Y-19989953D02*
X53101364Y-19989953D01*
X54850364Y-19949953D02*
X53101364Y-19949953D01*
X54873364Y-19909953D02*
X53101364Y-19909953D01*
X54895364Y-19869953D02*
X53101364Y-19869953D01*
X54916364Y-19829953D02*
X53101364Y-19829953D01*
X54937364Y-19789953D02*
X53101364Y-19789953D01*
X54957364Y-19749953D02*
X53101364Y-19749953D01*
X54976364Y-19709953D02*
X53101364Y-19709953D01*
X54995364Y-19669953D02*
X53101364Y-19669953D01*
X55013364Y-19629953D02*
X53101364Y-19629953D01*
X55030364Y-19589953D02*
X53101364Y-19589953D01*
X55047364Y-19549953D02*
X53101364Y-19549953D01*
X55063364Y-19509953D02*
X53101364Y-19509953D01*
X55078364Y-19469953D02*
X53101364Y-19469953D01*
X55093364Y-19429953D02*
X53101364Y-19429953D01*
X55108364Y-19389953D02*
X53101364Y-19389953D01*
X55121364Y-19349953D02*
X53101364Y-19349953D01*
X55134364Y-19309953D02*
X53101364Y-19309953D01*
X55147364Y-19269953D02*
X53101364Y-19269953D01*
X55159364Y-19229953D02*
X53101364Y-19229953D01*
X55170364Y-19189953D02*
X53101364Y-19189953D01*
X55181364Y-19149953D02*
X53101364Y-19149953D01*
X55192364Y-19109953D02*
X53101364Y-19109953D01*
X55201364Y-19069953D02*
X53101364Y-19069953D01*
X55211364Y-19029953D02*
X53101364Y-19029953D01*
X55220364Y-18989953D02*
X53101364Y-18989953D01*
X55228364Y-18949953D02*
X53101364Y-18949953D01*
X55235364Y-18909953D02*
X53101364Y-18909953D01*
X55243364Y-18869953D02*
X53101364Y-18869953D01*
X55249364Y-18829953D02*
X53101364Y-18829953D01*
X55256364Y-18789953D02*
X53101364Y-18789953D01*
X55261364Y-18749953D02*
X53101364Y-18749953D01*
X55266364Y-18709953D02*
X53101364Y-18709953D01*
X55271364Y-18669953D02*
X53101364Y-18669953D01*
X55275364Y-18629953D02*
X53101364Y-18629953D01*
X55279364Y-18589953D02*
X53101364Y-18589953D01*
X55282364Y-18549953D02*
X53101364Y-18549953D01*
X55285364Y-18509953D02*
X48837364Y-18509953D01*
X55287364Y-18469953D02*
X48835364Y-18469953D01*
X55289364Y-18429953D02*
X48833364Y-18429953D01*
X55290364Y-18389953D02*
X48832364Y-18389953D01*
X55291364Y-18309953D02*
X48831364Y-18309953D01*
X55291364Y-18349953D02*
X48831364Y-18349953D01*
X55331364Y-18309953D02*
G75*
G02*
X48791364Y-18309953I-3270000J0D01*
G01*
X48791364Y-18309953D02*
G75*
G02*
X55331364Y-18309953I3270000J0D01*
G01*
%TO.C,C26*%
X19683364Y-31206332D02*
X16650364Y-31206332D01*
X19683364Y-31246332D02*
X16653364Y-31246332D01*
X19683364Y-31286332D02*
X16655364Y-31286332D01*
X19683364Y-31326332D02*
X16659364Y-31326332D01*
X19683364Y-31366332D02*
X16662364Y-31366332D01*
X19683364Y-31406332D02*
X16667364Y-31406332D01*
X19683364Y-31446332D02*
X16671364Y-31446332D01*
X19683364Y-31486332D02*
X16676364Y-31486332D01*
X19683364Y-31526332D02*
X16681364Y-31526332D01*
X19683364Y-31566332D02*
X16687364Y-31566332D01*
X19683364Y-31606332D02*
X16693364Y-31606332D01*
X19683364Y-31646332D02*
X16700364Y-31646332D01*
X19683364Y-31686332D02*
X16706364Y-31686332D01*
X19683364Y-31726332D02*
X16714364Y-31726332D01*
X19683364Y-31766332D02*
X16721364Y-31766332D01*
X19683364Y-31806332D02*
X16730364Y-31806332D01*
X19683364Y-31846332D02*
X16738364Y-31846332D01*
X19683364Y-31886332D02*
X16747364Y-31886332D01*
X19683364Y-31926332D02*
X16756364Y-31926332D01*
X19683364Y-31966332D02*
X16766364Y-31966332D01*
X19683364Y-32006332D02*
X16776364Y-32006332D01*
X19683364Y-32046332D02*
X16787364Y-32046332D01*
X19683364Y-32086332D02*
X16798364Y-32086332D01*
X19683364Y-32126332D02*
X16810364Y-32126332D01*
X19683364Y-32166332D02*
X16822364Y-32166332D01*
X19683364Y-32206332D02*
X16834364Y-32206332D01*
X19683364Y-32246332D02*
X16847364Y-32246332D01*
X19683364Y-32286332D02*
X16860364Y-32286332D01*
X19683364Y-32326332D02*
X16874364Y-32326332D01*
X19683364Y-32366332D02*
X16888364Y-32366332D01*
X19683364Y-32406332D02*
X16903364Y-32406332D01*
X19683364Y-32446332D02*
X16918364Y-32446332D01*
X19683364Y-32486332D02*
X16934364Y-32486332D01*
X19683364Y-32526332D02*
X16950364Y-32526332D01*
X19683364Y-32566332D02*
X16966364Y-32566332D01*
X19683364Y-32606332D02*
X16983364Y-32606332D01*
X19683364Y-32646332D02*
X17001364Y-32646332D01*
X19683364Y-32686332D02*
X17019364Y-32686332D01*
X19683364Y-32726332D02*
X17038364Y-32726332D01*
X19683364Y-32766332D02*
X17057364Y-32766332D01*
X19683364Y-32806332D02*
X17077364Y-32806332D01*
X19683364Y-32846332D02*
X17097364Y-32846332D01*
X19683364Y-32886332D02*
X17118364Y-32886332D01*
X19683364Y-32926332D02*
X17139364Y-32926332D01*
X19683364Y-32966332D02*
X17161364Y-32966332D01*
X19683364Y-33006332D02*
X17184364Y-33006332D01*
X19683364Y-33046332D02*
X17207364Y-33046332D01*
X19683364Y-33086332D02*
X17230364Y-33086332D01*
X19683364Y-33126332D02*
X17255364Y-33126332D01*
X19683364Y-33166332D02*
X17280364Y-33166332D01*
X19683364Y-33206332D02*
X17305364Y-33206332D01*
X19683364Y-33246332D02*
X17331364Y-33246332D01*
X21256364Y-35046332D02*
X20190364Y-35046332D01*
X21491364Y-35006332D02*
X19955364Y-35006332D01*
X21670364Y-34966332D02*
X19776364Y-34966332D01*
X21820364Y-34926332D02*
X19626364Y-34926332D01*
X21951364Y-34886332D02*
X19495364Y-34886332D01*
X22069364Y-34846332D02*
X19377364Y-34846332D01*
X22176364Y-34806332D02*
X19270364Y-34806332D01*
X22275364Y-34766332D02*
X19171364Y-34766332D01*
X22367364Y-34726332D02*
X19079364Y-34726332D01*
X22454364Y-34686332D02*
X18992364Y-34686332D01*
X22536364Y-34646332D02*
X18910364Y-34646332D01*
X22613364Y-34606332D02*
X18833364Y-34606332D01*
X22687364Y-34566332D02*
X18759364Y-34566332D01*
X22757364Y-34526332D02*
X18689364Y-34526332D01*
X22824364Y-34486332D02*
X18622364Y-34486332D01*
X22888364Y-34446332D02*
X18558364Y-34446332D01*
X22950364Y-34406332D02*
X18496364Y-34406332D01*
X23010364Y-34366332D02*
X18436364Y-34366332D01*
X23038364Y-26556634D02*
X23038364Y-27356634D01*
X23067364Y-34326332D02*
X18379364Y-34326332D01*
X23123364Y-34286332D02*
X18323364Y-34286332D01*
X23176364Y-34246332D02*
X18270364Y-34246332D01*
X23228364Y-34206332D02*
X18218364Y-34206332D01*
X23278364Y-34166332D02*
X18168364Y-34166332D01*
X23327364Y-34126332D02*
X18119364Y-34126332D01*
X23374364Y-34086332D02*
X18072364Y-34086332D01*
X23419364Y-34046332D02*
X18027364Y-34046332D01*
X23438364Y-26956634D02*
X22638364Y-26956634D01*
X23464364Y-34006332D02*
X17982364Y-34006332D01*
X23507364Y-33966332D02*
X17939364Y-33966332D01*
X23549364Y-33926332D02*
X17897364Y-33926332D01*
X23590364Y-33886332D02*
X17856364Y-33886332D01*
X23629364Y-33846332D02*
X17817364Y-33846332D01*
X23668364Y-33806332D02*
X17778364Y-33806332D01*
X23705364Y-33766332D02*
X17741364Y-33766332D01*
X23742364Y-33726332D02*
X17704364Y-33726332D01*
X23778364Y-33686332D02*
X17668364Y-33686332D01*
X23812364Y-33646332D02*
X17634364Y-33646332D01*
X23846364Y-33606332D02*
X17600364Y-33606332D01*
X23879364Y-33566332D02*
X17567364Y-33566332D01*
X23911364Y-33526332D02*
X17535364Y-33526332D01*
X23942364Y-33486332D02*
X17504364Y-33486332D01*
X23973364Y-33446332D02*
X17473364Y-33446332D01*
X24003364Y-33406332D02*
X17443364Y-33406332D01*
X24032364Y-33366332D02*
X17414364Y-33366332D01*
X24060364Y-33326332D02*
X17386364Y-33326332D01*
X24088364Y-33286332D02*
X17358364Y-33286332D01*
X24115364Y-33246332D02*
X21763364Y-33246332D01*
X24141364Y-33206332D02*
X21763364Y-33206332D01*
X24166364Y-33166332D02*
X21763364Y-33166332D01*
X24191364Y-33126332D02*
X21763364Y-33126332D01*
X24216364Y-33086332D02*
X21763364Y-33086332D01*
X24239364Y-33046332D02*
X21763364Y-33046332D01*
X24262364Y-33006332D02*
X21763364Y-33006332D01*
X24285364Y-32966332D02*
X21763364Y-32966332D01*
X24307364Y-32926332D02*
X21763364Y-32926332D01*
X24328364Y-32886332D02*
X21763364Y-32886332D01*
X24349364Y-32846332D02*
X21763364Y-32846332D01*
X24369364Y-32806332D02*
X21763364Y-32806332D01*
X24389364Y-32766332D02*
X21763364Y-32766332D01*
X24408364Y-32726332D02*
X21763364Y-32726332D01*
X24427364Y-32686332D02*
X21763364Y-32686332D01*
X24445364Y-32646332D02*
X21763364Y-32646332D01*
X24463364Y-32606332D02*
X21763364Y-32606332D01*
X24480364Y-32566332D02*
X21763364Y-32566332D01*
X24496364Y-32526332D02*
X21763364Y-32526332D01*
X24512364Y-32486332D02*
X21763364Y-32486332D01*
X24528364Y-32446332D02*
X21763364Y-32446332D01*
X24543364Y-32406332D02*
X21763364Y-32406332D01*
X24558364Y-32366332D02*
X21763364Y-32366332D01*
X24572364Y-32326332D02*
X21763364Y-32326332D01*
X24586364Y-32286332D02*
X21763364Y-32286332D01*
X24599364Y-32246332D02*
X21763364Y-32246332D01*
X24612364Y-32206332D02*
X21763364Y-32206332D01*
X24624364Y-32166332D02*
X21763364Y-32166332D01*
X24636364Y-32126332D02*
X21763364Y-32126332D01*
X24648364Y-32086332D02*
X21763364Y-32086332D01*
X24659364Y-32046332D02*
X21763364Y-32046332D01*
X24670364Y-32006332D02*
X21763364Y-32006332D01*
X24680364Y-31966332D02*
X21763364Y-31966332D01*
X24690364Y-31926332D02*
X21763364Y-31926332D01*
X24699364Y-31886332D02*
X21763364Y-31886332D01*
X24708364Y-31846332D02*
X21763364Y-31846332D01*
X24716364Y-31806332D02*
X21763364Y-31806332D01*
X24725364Y-31766332D02*
X21763364Y-31766332D01*
X24732364Y-31726332D02*
X21763364Y-31726332D01*
X24740364Y-31686332D02*
X21763364Y-31686332D01*
X24746364Y-31646332D02*
X21763364Y-31646332D01*
X24753364Y-31606332D02*
X21763364Y-31606332D01*
X24759364Y-31566332D02*
X21763364Y-31566332D01*
X24765364Y-31526332D02*
X21763364Y-31526332D01*
X24770364Y-31486332D02*
X21763364Y-31486332D01*
X24775364Y-31446332D02*
X21763364Y-31446332D01*
X24779364Y-31406332D02*
X21763364Y-31406332D01*
X24784364Y-31366332D02*
X21763364Y-31366332D01*
X24787364Y-31326332D02*
X21763364Y-31326332D01*
X24791364Y-31286332D02*
X21763364Y-31286332D01*
X24793364Y-31246332D02*
X21763364Y-31246332D01*
X24796364Y-31206332D02*
X21763364Y-31206332D01*
X24798364Y-31166332D02*
X16648364Y-31166332D01*
X24800364Y-31126332D02*
X16646364Y-31126332D01*
X24801364Y-31086332D02*
X16645364Y-31086332D01*
X24802364Y-31046332D02*
X16644364Y-31046332D01*
X24803364Y-30966332D02*
X16643364Y-30966332D01*
X24803364Y-31006332D02*
X16643364Y-31006332D01*
X24843364Y-30966332D02*
G75*
G02*
X16603364Y-30966332I-4120000J0D01*
G01*
X16603364Y-30966332D02*
G75*
G02*
X24843364Y-30966332I4120000J0D01*
G01*
%TO.C,D1*%
X50335864Y-35245332D02*
X44825864Y-35245332D01*
X50335864Y-38545332D02*
X44825864Y-38545332D01*
X50335864Y-38545332D02*
X50335864Y-35245332D01*
%TO.C,L2*%
X87116000Y-36094000D02*
X93706000Y-36094000D01*
X87116000Y-41782000D02*
X87116000Y-36094000D01*
X87116000Y-50304000D02*
X87116000Y-44616000D01*
X87116000Y-50304000D02*
X93706000Y-50304000D01*
X93706000Y-41782000D02*
X93706000Y-36094000D01*
X93706000Y-50304000D02*
X93706000Y-44616000D01*
%TO.C,C18*%
X79597000Y-21800000D02*
X78067000Y-21800000D01*
X79597000Y-23640000D02*
X78067000Y-23640000D01*
%TO.C,C15*%
X44418364Y-27375681D02*
X41385364Y-27375681D01*
X44418364Y-27415681D02*
X41388364Y-27415681D01*
X44418364Y-27455681D02*
X41390364Y-27455681D01*
X44418364Y-27495681D02*
X41394364Y-27495681D01*
X44418364Y-27535681D02*
X41397364Y-27535681D01*
X44418364Y-27575681D02*
X41402364Y-27575681D01*
X44418364Y-27615681D02*
X41406364Y-27615681D01*
X44418364Y-27655681D02*
X41411364Y-27655681D01*
X44418364Y-27695681D02*
X41416364Y-27695681D01*
X44418364Y-27735681D02*
X41422364Y-27735681D01*
X44418364Y-27775681D02*
X41428364Y-27775681D01*
X44418364Y-27815681D02*
X41435364Y-27815681D01*
X44418364Y-27855681D02*
X41441364Y-27855681D01*
X44418364Y-27895681D02*
X41449364Y-27895681D01*
X44418364Y-27935681D02*
X41456364Y-27935681D01*
X44418364Y-27975681D02*
X41465364Y-27975681D01*
X44418364Y-28015681D02*
X41473364Y-28015681D01*
X44418364Y-28055681D02*
X41482364Y-28055681D01*
X44418364Y-28095681D02*
X41491364Y-28095681D01*
X44418364Y-28135681D02*
X41501364Y-28135681D01*
X44418364Y-28175681D02*
X41511364Y-28175681D01*
X44418364Y-28215681D02*
X41522364Y-28215681D01*
X44418364Y-28255681D02*
X41533364Y-28255681D01*
X44418364Y-28295681D02*
X41545364Y-28295681D01*
X44418364Y-28335681D02*
X41557364Y-28335681D01*
X44418364Y-28375681D02*
X41569364Y-28375681D01*
X44418364Y-28415681D02*
X41582364Y-28415681D01*
X44418364Y-28455681D02*
X41595364Y-28455681D01*
X44418364Y-28495681D02*
X41609364Y-28495681D01*
X44418364Y-28535681D02*
X41623364Y-28535681D01*
X44418364Y-28575681D02*
X41638364Y-28575681D01*
X44418364Y-28615681D02*
X41653364Y-28615681D01*
X44418364Y-28655681D02*
X41669364Y-28655681D01*
X44418364Y-28695681D02*
X41685364Y-28695681D01*
X44418364Y-28735681D02*
X41701364Y-28735681D01*
X44418364Y-28775681D02*
X41718364Y-28775681D01*
X44418364Y-28815681D02*
X41736364Y-28815681D01*
X44418364Y-28855681D02*
X41754364Y-28855681D01*
X44418364Y-28895681D02*
X41773364Y-28895681D01*
X44418364Y-28935681D02*
X41792364Y-28935681D01*
X44418364Y-28975681D02*
X41812364Y-28975681D01*
X44418364Y-29015681D02*
X41832364Y-29015681D01*
X44418364Y-29055681D02*
X41853364Y-29055681D01*
X44418364Y-29095681D02*
X41874364Y-29095681D01*
X44418364Y-29135681D02*
X41896364Y-29135681D01*
X44418364Y-29175681D02*
X41919364Y-29175681D01*
X44418364Y-29215681D02*
X41942364Y-29215681D01*
X44418364Y-29255681D02*
X41965364Y-29255681D01*
X44418364Y-29295681D02*
X41990364Y-29295681D01*
X44418364Y-29335681D02*
X42015364Y-29335681D01*
X44418364Y-29375681D02*
X42040364Y-29375681D01*
X44418364Y-29415681D02*
X42066364Y-29415681D01*
X45991364Y-31215681D02*
X44925364Y-31215681D01*
X46226364Y-31175681D02*
X44690364Y-31175681D01*
X46405364Y-31135681D02*
X44511364Y-31135681D01*
X46555364Y-31095681D02*
X44361364Y-31095681D01*
X46686364Y-31055681D02*
X44230364Y-31055681D01*
X46804364Y-31015681D02*
X44112364Y-31015681D01*
X46911364Y-30975681D02*
X44005364Y-30975681D01*
X47010364Y-30935681D02*
X43906364Y-30935681D01*
X47102364Y-30895681D02*
X43814364Y-30895681D01*
X47189364Y-30855681D02*
X43727364Y-30855681D01*
X47271364Y-30815681D02*
X43645364Y-30815681D01*
X47348364Y-30775681D02*
X43568364Y-30775681D01*
X47422364Y-30735681D02*
X43494364Y-30735681D01*
X47492364Y-30695681D02*
X43424364Y-30695681D01*
X47559364Y-30655681D02*
X43357364Y-30655681D01*
X47623364Y-30615681D02*
X43293364Y-30615681D01*
X47685364Y-30575681D02*
X43231364Y-30575681D01*
X47745364Y-30535681D02*
X43171364Y-30535681D01*
X47773364Y-22725983D02*
X47773364Y-23525983D01*
X47802364Y-30495681D02*
X43114364Y-30495681D01*
X47858364Y-30455681D02*
X43058364Y-30455681D01*
X47911364Y-30415681D02*
X43005364Y-30415681D01*
X47963364Y-30375681D02*
X42953364Y-30375681D01*
X48013364Y-30335681D02*
X42903364Y-30335681D01*
X48062364Y-30295681D02*
X42854364Y-30295681D01*
X48109364Y-30255681D02*
X42807364Y-30255681D01*
X48154364Y-30215681D02*
X42762364Y-30215681D01*
X48173364Y-23125983D02*
X47373364Y-23125983D01*
X48199364Y-30175681D02*
X42717364Y-30175681D01*
X48242364Y-30135681D02*
X42674364Y-30135681D01*
X48284364Y-30095681D02*
X42632364Y-30095681D01*
X48325364Y-30055681D02*
X42591364Y-30055681D01*
X48364364Y-30015681D02*
X42552364Y-30015681D01*
X48403364Y-29975681D02*
X42513364Y-29975681D01*
X48440364Y-29935681D02*
X42476364Y-29935681D01*
X48477364Y-29895681D02*
X42439364Y-29895681D01*
X48513364Y-29855681D02*
X42403364Y-29855681D01*
X48547364Y-29815681D02*
X42369364Y-29815681D01*
X48581364Y-29775681D02*
X42335364Y-29775681D01*
X48614364Y-29735681D02*
X42302364Y-29735681D01*
X48646364Y-29695681D02*
X42270364Y-29695681D01*
X48677364Y-29655681D02*
X42239364Y-29655681D01*
X48708364Y-29615681D02*
X42208364Y-29615681D01*
X48738364Y-29575681D02*
X42178364Y-29575681D01*
X48767364Y-29535681D02*
X42149364Y-29535681D01*
X48795364Y-29495681D02*
X42121364Y-29495681D01*
X48823364Y-29455681D02*
X42093364Y-29455681D01*
X48850364Y-29415681D02*
X46498364Y-29415681D01*
X48876364Y-29375681D02*
X46498364Y-29375681D01*
X48901364Y-29335681D02*
X46498364Y-29335681D01*
X48926364Y-29295681D02*
X46498364Y-29295681D01*
X48951364Y-29255681D02*
X46498364Y-29255681D01*
X48974364Y-29215681D02*
X46498364Y-29215681D01*
X48997364Y-29175681D02*
X46498364Y-29175681D01*
X49020364Y-29135681D02*
X46498364Y-29135681D01*
X49042364Y-29095681D02*
X46498364Y-29095681D01*
X49063364Y-29055681D02*
X46498364Y-29055681D01*
X49084364Y-29015681D02*
X46498364Y-29015681D01*
X49104364Y-28975681D02*
X46498364Y-28975681D01*
X49124364Y-28935681D02*
X46498364Y-28935681D01*
X49143364Y-28895681D02*
X46498364Y-28895681D01*
X49162364Y-28855681D02*
X46498364Y-28855681D01*
X49180364Y-28815681D02*
X46498364Y-28815681D01*
X49198364Y-28775681D02*
X46498364Y-28775681D01*
X49215364Y-28735681D02*
X46498364Y-28735681D01*
X49231364Y-28695681D02*
X46498364Y-28695681D01*
X49247364Y-28655681D02*
X46498364Y-28655681D01*
X49263364Y-28615681D02*
X46498364Y-28615681D01*
X49278364Y-28575681D02*
X46498364Y-28575681D01*
X49293364Y-28535681D02*
X46498364Y-28535681D01*
X49307364Y-28495681D02*
X46498364Y-28495681D01*
X49321364Y-28455681D02*
X46498364Y-28455681D01*
X49334364Y-28415681D02*
X46498364Y-28415681D01*
X49347364Y-28375681D02*
X46498364Y-28375681D01*
X49359364Y-28335681D02*
X46498364Y-28335681D01*
X49371364Y-28295681D02*
X46498364Y-28295681D01*
X49383364Y-28255681D02*
X46498364Y-28255681D01*
X49394364Y-28215681D02*
X46498364Y-28215681D01*
X49405364Y-28175681D02*
X46498364Y-28175681D01*
X49415364Y-28135681D02*
X46498364Y-28135681D01*
X49425364Y-28095681D02*
X46498364Y-28095681D01*
X49434364Y-28055681D02*
X46498364Y-28055681D01*
X49443364Y-28015681D02*
X46498364Y-28015681D01*
X49451364Y-27975681D02*
X46498364Y-27975681D01*
X49460364Y-27935681D02*
X46498364Y-27935681D01*
X49467364Y-27895681D02*
X46498364Y-27895681D01*
X49475364Y-27855681D02*
X46498364Y-27855681D01*
X49481364Y-27815681D02*
X46498364Y-27815681D01*
X49488364Y-27775681D02*
X46498364Y-27775681D01*
X49494364Y-27735681D02*
X46498364Y-27735681D01*
X49500364Y-27695681D02*
X46498364Y-27695681D01*
X49505364Y-27655681D02*
X46498364Y-27655681D01*
X49510364Y-27615681D02*
X46498364Y-27615681D01*
X49514364Y-27575681D02*
X46498364Y-27575681D01*
X49519364Y-27535681D02*
X46498364Y-27535681D01*
X49522364Y-27495681D02*
X46498364Y-27495681D01*
X49526364Y-27455681D02*
X46498364Y-27455681D01*
X49528364Y-27415681D02*
X46498364Y-27415681D01*
X49531364Y-27375681D02*
X46498364Y-27375681D01*
X49533364Y-27335681D02*
X41383364Y-27335681D01*
X49535364Y-27295681D02*
X41381364Y-27295681D01*
X49536364Y-27255681D02*
X41380364Y-27255681D01*
X49537364Y-27215681D02*
X41379364Y-27215681D01*
X49538364Y-27135681D02*
X41378364Y-27135681D01*
X49538364Y-27175681D02*
X41378364Y-27175681D01*
X49578364Y-27135681D02*
G75*
G02*
X41338364Y-27135681I-4120000J0D01*
G01*
X41338364Y-27135681D02*
G75*
G02*
X49578364Y-27135681I4120000J0D01*
G01*
%TO.C,C3*%
X23118157Y-61600388D02*
X23333829Y-61600388D01*
X23118157Y-62320388D02*
X23333829Y-62320388D01*
%TO.C,J1*%
X14086364Y-75845233D02*
X16586364Y-75845233D01*
X14086364Y-81045233D02*
X14086364Y-75845233D01*
X16586364Y-75345233D02*
X19786364Y-75345233D01*
X16586364Y-75845233D02*
X16586364Y-75345233D01*
X16586364Y-81045233D02*
X14086364Y-81045233D01*
X16586364Y-81545233D02*
X16586364Y-81045233D01*
X17786364Y-81545233D02*
X16586364Y-81545233D01*
X17786364Y-81545233D02*
X17786364Y-83545233D01*
X20386364Y-81545233D02*
X20386364Y-83545233D01*
X22386364Y-75345233D02*
X31286364Y-75345233D01*
X26886364Y-81545233D02*
X20386364Y-81545233D01*
X31286364Y-75345233D02*
X31286364Y-81545233D01*
X31286364Y-81545233D02*
X30086364Y-81545233D01*
%TO.C,R28*%
X24832106Y-69818832D02*
X25306622Y-69818832D01*
X24832106Y-70863832D02*
X25306622Y-70863832D01*
%TO.C,J2*%
X94420500Y-51802000D02*
X101660500Y-51802000D01*
X94420500Y-59742000D02*
X94420500Y-51802000D01*
X94420500Y-59742000D02*
X101660500Y-59742000D01*
X100040500Y-59742000D02*
X100040500Y-51802000D01*
X101660500Y-57222000D02*
X101660500Y-51802000D01*
X101660500Y-59742000D02*
X101660500Y-57822000D01*
X102270500Y-57962000D02*
X101660500Y-57522000D01*
X102270500Y-57082000D01*
X102270500Y-57962000D01*
G36*
X102270500Y-57962000D02*
G01*
X101660500Y-57522000D01*
X102270500Y-57082000D01*
X102270500Y-57962000D01*
G37*
%TO.C,D5*%
X22303272Y-60085297D02*
X24263272Y-60085297D01*
X22303272Y-61285297D02*
X24263272Y-61285297D01*
X24263272Y-61285297D02*
X24263272Y-60085297D01*
%TO.C,D4*%
X21742903Y-55557814D02*
X21742903Y-56757814D01*
X23702903Y-55557814D02*
X21742903Y-55557814D01*
X23702903Y-56757814D02*
X21742903Y-56757814D01*
%TO.C,C9*%
X53563528Y-65156332D02*
X53779200Y-65156332D01*
X53563528Y-65876332D02*
X53779200Y-65876332D01*
%TO.C,C32*%
X34326512Y-56911602D02*
X34110840Y-56911602D01*
X34326512Y-57631602D02*
X34110840Y-57631602D01*
%TO.C,C31*%
X34327766Y-52261602D02*
X34112094Y-52261602D01*
X34327766Y-52981602D02*
X34112094Y-52981602D01*
%TO.C,C6*%
X52975200Y-36785332D02*
X52759528Y-36785332D01*
X52975200Y-37505332D02*
X52759528Y-37505332D01*
%TD*%
M02*
