%TF.GenerationSoftware,KiCad,Pcbnew,9.0.5*%
%TF.CreationDate,2026-01-26T23:14:56+01:00*%
%TF.ProjectId,DIY amplifier,44495920-616d-4706-9c69-666965722e6b,rev?*%
%TF.SameCoordinates,Original*%
%TF.FileFunction,Other,User*%
%FSLAX46Y46*%
G04 Gerber Fmt 4.6, Leading zero omitted, Abs format (unit mm)*
G04 Created by KiCad (PCBNEW 9.0.5) date 2026-01-26 23:14:56*
%MOMM*%
%LPD*%
G01*
G04 APERTURE LIST*
%ADD10C,0.050000*%
G04 APERTURE END LIST*
D10*
%TO.C,C1*%
X25321583Y-52096332D02*
X25321583Y-53916332D01*
X25321583Y-53916332D02*
X26241583Y-53916332D01*
X26241583Y-52096332D02*
X25321583Y-52096332D01*
X26241583Y-53916332D02*
X26241583Y-52096332D01*
%TO.C,R12*%
X19250583Y-42457332D02*
X19250583Y-43917332D01*
X19250583Y-43917332D02*
X22210583Y-43917332D01*
X22210583Y-42457332D02*
X19250583Y-42457332D01*
X22210583Y-43917332D02*
X22210583Y-42457332D01*
%TO.C,U10*%
X45566364Y-65220701D02*
X48966364Y-65220701D01*
X48966364Y-69320701D01*
X45566364Y-69320701D01*
X45566364Y-65220701D01*
%TO.C,R25*%
X38208705Y-46211148D02*
X38208705Y-47671148D01*
X38208705Y-47671148D02*
X41168705Y-47671148D01*
X41168705Y-46211148D02*
X38208705Y-46211148D01*
X41168705Y-47671148D02*
X41168705Y-46211148D01*
%TO.C,U7*%
X17980583Y-48595832D02*
X22080583Y-48595832D01*
X22080583Y-45195832D01*
X17980583Y-45195832D01*
X17980583Y-48595832D01*
%TO.C,R30*%
X43475513Y-47989813D02*
X43475513Y-50949813D01*
X43475513Y-50949813D02*
X44935513Y-50949813D01*
X44935513Y-47989813D02*
X43475513Y-47989813D01*
X44935513Y-50949813D02*
X44935513Y-47989813D01*
%TO.C,C33*%
X44530184Y-67018201D02*
X44530184Y-68838201D01*
X44530184Y-68838201D02*
X45450184Y-68838201D01*
X45450184Y-67018201D02*
X44530184Y-67018201D01*
X45450184Y-68838201D02*
X45450184Y-67018201D01*
%TO.C,Q8*%
X38089466Y-47749148D02*
X34689466Y-47749148D01*
X34689466Y-43909148D01*
X38089466Y-43909148D01*
X38089466Y-47749148D01*
%TO.C,U11*%
X41330853Y-44754500D02*
X45430853Y-44754500D01*
X45430853Y-41354500D01*
X41330853Y-41354500D01*
X41330853Y-44754500D01*
%TO.C,Q6*%
X21279915Y-50153332D02*
X17439915Y-50153332D01*
X17439915Y-53553332D01*
X21279915Y-53553332D01*
X21279915Y-50153332D01*
%TO.C,C24*%
X43118263Y-44906518D02*
X43118263Y-45826518D01*
X43118263Y-45826518D02*
X44938263Y-45826518D01*
X44938263Y-44906518D02*
X43118263Y-44906518D01*
X44938263Y-45826518D02*
X44938263Y-44906518D01*
%TO.C,R14*%
X14612583Y-45865763D02*
X14612583Y-47325763D01*
X14612583Y-47325763D02*
X17572583Y-47325763D01*
X17572583Y-45865763D02*
X14612583Y-45865763D01*
X17572583Y-47325763D02*
X17572583Y-45865763D01*
%TO.C,R26*%
X32556466Y-50065148D02*
X32556466Y-51525148D01*
X32556466Y-51525148D02*
X35516466Y-51525148D01*
X35516466Y-50065148D02*
X32556466Y-50065148D01*
X35516466Y-51525148D02*
X35516466Y-50065148D01*
%TO.C,R11*%
X21699583Y-53783332D02*
X21699583Y-55243332D01*
X21699583Y-55243332D02*
X24659583Y-55243332D01*
X24659583Y-53783332D02*
X21699583Y-53783332D01*
X24659583Y-55243332D02*
X24659583Y-53783332D01*
%TO.C,R4*%
X15886583Y-50336332D02*
X15886583Y-53296332D01*
X15886583Y-53296332D02*
X17346583Y-53296332D01*
X17346583Y-50336332D02*
X15886583Y-50336332D01*
X17346583Y-53296332D02*
X17346583Y-50336332D01*
%TO.C,R15*%
X14612583Y-47405332D02*
X14612583Y-48865332D01*
X14612583Y-48865332D02*
X17572583Y-48865332D01*
X17572583Y-47405332D02*
X14612583Y-47405332D01*
X17572583Y-48865332D02*
X17572583Y-47405332D01*
%TO.C,Q9*%
X35639000Y-47937648D02*
X39039000Y-47937648D01*
X39039000Y-51777648D01*
X35639000Y-51777648D01*
X35639000Y-47937648D01*
%TO.C,R13*%
X26549583Y-42373332D02*
X26549583Y-45333332D01*
X26549583Y-45333332D02*
X28009583Y-45333332D01*
X28009583Y-42373332D02*
X26549583Y-42373332D01*
X28009583Y-45333332D02*
X28009583Y-42373332D01*
%TO.C,R10*%
X22863292Y-46776045D02*
X22863292Y-49736045D01*
X22863292Y-49736045D02*
X24323292Y-49736045D01*
X24323292Y-46776045D02*
X22863292Y-46776045D01*
X24323292Y-49736045D02*
X24323292Y-46776045D01*
%TO.C,C10*%
X30093727Y-47653343D02*
X30093727Y-49473343D01*
X30093727Y-49473343D02*
X31013727Y-49473343D01*
X31013727Y-47653343D02*
X30093727Y-47653343D01*
X31013727Y-49473343D02*
X31013727Y-47653343D01*
%TO.C,Q7*%
X21374813Y-53553332D02*
X25214813Y-53553332D01*
X25214813Y-50153332D01*
X21374813Y-50153332D01*
X21374813Y-53553332D01*
%TO.C,Q5*%
X24422083Y-49829332D02*
X28262083Y-49829332D01*
X28262083Y-46429332D01*
X24422083Y-46429332D01*
X24422083Y-49829332D01*
%TO.C,R24*%
X38208705Y-44161648D02*
X38208705Y-45621648D01*
X38208705Y-45621648D02*
X41168705Y-45621648D01*
X41168705Y-44161648D02*
X38208705Y-44161648D01*
X41168705Y-45621648D02*
X41168705Y-44161648D01*
%TO.C,U9*%
X31169353Y-45856500D02*
X34569353Y-45856500D01*
X34569353Y-49956500D01*
X31169353Y-49956500D01*
X31169353Y-45856500D01*
%TO.C,Q10*%
X43359353Y-48057000D02*
X39259353Y-48057000D01*
X39259353Y-51457000D01*
X43359353Y-51457000D01*
X43359353Y-48057000D01*
%TO.C,C2*%
X19771382Y-44188687D02*
X19771382Y-45108687D01*
X19771382Y-45108687D02*
X21591382Y-45108687D01*
X21591382Y-44188687D02*
X19771382Y-44188687D01*
X21591382Y-45108687D02*
X21591382Y-44188687D01*
%TD*%
M02*
