%TF.GenerationSoftware,KiCad,Pcbnew,9.0.5*%
%TF.CreationDate,2026-01-26T23:14:56+01:00*%
%TF.ProjectId,DIY amplifier,44495920-616d-4706-9c69-666965722e6b,rev?*%
%TF.SameCoordinates,Original*%
%TF.FileFunction,Copper,L2,Inr*%
%TF.FilePolarity,Positive*%
%FSLAX46Y46*%
G04 Gerber Fmt 4.6, Leading zero omitted, Abs format (unit mm)*
G04 Created by KiCad (PCBNEW 9.0.5) date 2026-01-26 23:14:56*
%MOMM*%
%LPD*%
G01*
G04 APERTURE LIST*
G04 Aperture macros list*
%AMRoundRect*
0 Rectangle with rounded corners*
0 $1 Rounding radius*
0 $2 $3 $4 $5 $6 $7 $8 $9 X,Y pos of 4 corners*
0 Add a 4 corners polygon primitive as box body*
4,1,4,$2,$3,$4,$5,$6,$7,$8,$9,$2,$3,0*
0 Add four circle primitives for the rounded corners*
1,1,$1+$1,$2,$3*
1,1,$1+$1,$4,$5*
1,1,$1+$1,$6,$7*
1,1,$1+$1,$8,$9*
0 Add four rect primitives between the rounded corners*
20,1,$1+$1,$2,$3,$4,$5,0*
20,1,$1+$1,$4,$5,$6,$7,0*
20,1,$1+$1,$6,$7,$8,$9,0*
20,1,$1+$1,$8,$9,$2,$3,0*%
G04 Aperture macros list end*
%TA.AperFunction,ComponentPad*%
%ADD10R,1.905000X2.000000*%
%TD*%
%TA.AperFunction,ComponentPad*%
%ADD11O,1.905000X2.000000*%
%TD*%
%TA.AperFunction,ComponentPad*%
%ADD12C,1.600000*%
%TD*%
%TA.AperFunction,ComponentPad*%
%ADD13RoundRect,0.250001X-0.949999X0.949999X-0.949999X-0.949999X0.949999X-0.949999X0.949999X0.949999X0*%
%TD*%
%TA.AperFunction,ComponentPad*%
%ADD14C,2.400000*%
%TD*%
%TA.AperFunction,ComponentPad*%
%ADD15C,3.000000*%
%TD*%
%TA.AperFunction,ComponentPad*%
%ADD16R,1.600000X1.600000*%
%TD*%
%TA.AperFunction,ComponentPad*%
%ADD17C,2.340000*%
%TD*%
%TA.AperFunction,ComponentPad*%
%ADD18C,3.100000*%
%TD*%
%TA.AperFunction,ComponentPad*%
%ADD19RoundRect,0.675000X-0.675000X-0.675000X0.675000X-0.675000X0.675000X0.675000X-0.675000X0.675000X0*%
%TD*%
%TA.AperFunction,ComponentPad*%
%ADD20C,2.700000*%
%TD*%
%TA.AperFunction,ComponentPad*%
%ADD21R,1.200000X1.200000*%
%TD*%
%TA.AperFunction,ComponentPad*%
%ADD22C,1.200000*%
%TD*%
%TA.AperFunction,ComponentPad*%
%ADD23RoundRect,0.250000X-0.550000X-0.550000X0.550000X-0.550000X0.550000X0.550000X-0.550000X0.550000X0*%
%TD*%
%TA.AperFunction,ComponentPad*%
%ADD24C,2.000000*%
%TD*%
%TA.AperFunction,ComponentPad*%
%ADD25RoundRect,0.250001X0.949999X-0.949999X0.949999X0.949999X-0.949999X0.949999X-0.949999X-0.949999X0*%
%TD*%
%TA.AperFunction,ViaPad*%
%ADD26C,0.600000*%
%TD*%
%TA.AperFunction,ViaPad*%
%ADD27C,1.000000*%
%TD*%
%TA.AperFunction,Conductor*%
%ADD28C,0.500000*%
%TD*%
G04 APERTURE END LIST*
D10*
%TO.N,Net-(Q4-G)*%
%TO.C,Q4*%
X76457015Y-63280332D03*
D11*
%TO.N,A out*%
X78997015Y-63280332D03*
%TO.N,R_shunt*%
X81537015Y-63280332D03*
%TD*%
D12*
%TO.N,GND*%
%TO.C,C23*%
X95832000Y-38944000D03*
%TO.N,Speaker -*%
X95832000Y-41444000D03*
%TD*%
%TO.N,GND*%
%TO.C,C22*%
X96227000Y-76084000D03*
%TO.N,Speaker +*%
X96227000Y-73584000D03*
%TD*%
D13*
%TO.N,Net-(J3-Pin_1)*%
%TO.C,J3*%
X18093364Y-18870332D03*
D14*
%TO.N,GND*%
X18093364Y-22370332D03*
%TD*%
D15*
%TO.N,A out*%
%TO.C,L1*%
X88411000Y-72041000D03*
%TO.N,Speaker +*%
X92981000Y-72041000D03*
%TD*%
D12*
%TO.N,GND*%
%TO.C,C21*%
X70038000Y-25522000D03*
%TO.N,+5V*%
X70038000Y-23022000D03*
%TD*%
D16*
%TO.N,Vcc*%
%TO.C,C13*%
X36576364Y-25885681D03*
D12*
%TO.N,GND*%
X36576364Y-28385681D03*
%TD*%
%TO.N,GND*%
%TO.C,C11*%
X67575000Y-22992000D03*
%TO.N,Vcc*%
X65075000Y-22992000D03*
%TD*%
D17*
%TO.N,Net-(U2--)*%
%TO.C,RV1*%
X19082364Y-68196332D03*
%TO.N,Audio*%
X16582364Y-65696332D03*
X19082364Y-63196332D03*
%TD*%
D16*
%TO.N,Vcc*%
%TO.C,C16*%
X59326364Y-17059953D03*
D12*
%TO.N,GND*%
X59326364Y-19559953D03*
%TD*%
D18*
%TO.N,N/C*%
%TO.C,REF\u002A\u002A*%
X99000000Y-80000000D03*
%TD*%
D10*
%TO.N,Net-(Q1-G)*%
%TO.C,Q1*%
X65825364Y-32106332D03*
D11*
%TO.N,Vcc*%
X68365364Y-32106332D03*
%TO.N,B out*%
X70905364Y-32106332D03*
%TD*%
D10*
%TO.N,Net-(Q2-G)*%
%TO.C,Q2*%
X76457015Y-32106332D03*
D11*
%TO.N,B out*%
X78997015Y-32106332D03*
%TO.N,R_shunt*%
X81537015Y-32106332D03*
%TD*%
D10*
%TO.N,Vcc*%
%TO.C,U6*%
X77487364Y-18676332D03*
D11*
%TO.N,GND*%
X80027364Y-18676332D03*
%TO.N,+12V*%
X82567364Y-18676332D03*
%TD*%
D19*
%TO.N,Net-(J3-Pin_1)*%
%TO.C,F1*%
X25377364Y-18870332D03*
X32137364Y-18870332D03*
D20*
%TO.N,Vcc*%
X39417364Y-18870332D03*
X46177364Y-18870332D03*
%TD*%
D10*
%TO.N,Net-(Q3-G)*%
%TO.C,Q3*%
X65825364Y-63280332D03*
D11*
%TO.N,Vcc*%
X68365364Y-63280332D03*
%TO.N,A out*%
X70905364Y-63280332D03*
%TD*%
D21*
%TO.N,Vcc*%
%TO.C,C17*%
X53253364Y-23118733D03*
D22*
%TO.N,GND*%
X53253364Y-25118733D03*
%TD*%
D10*
%TO.N,Vcc*%
%TO.C,U5*%
X66653364Y-18676332D03*
D11*
%TO.N,GND*%
X69193364Y-18676332D03*
%TO.N,+5V*%
X71733364Y-18676332D03*
%TD*%
D16*
%TO.N,+12V*%
%TO.C,C19*%
X89684364Y-19867681D03*
D12*
%TO.N,GND*%
X89684364Y-22367681D03*
%TD*%
D18*
%TO.N,N/C*%
%TO.C,REF\u002A\u002A*%
X17431000Y-38135000D03*
%TD*%
D23*
%TO.N,Net-(D1-K)*%
%TO.C,U3*%
X48828364Y-40420332D03*
D12*
%TO.N,+12V*%
X48828364Y-42960332D03*
%TO.N,DIS*%
X48828364Y-45500332D03*
%TO.N,GND*%
X48828364Y-48040332D03*
%TO.N,-PWM*%
X48828364Y-50580332D03*
%TO.N,+PWM*%
X48828364Y-53120332D03*
%TO.N,+12V*%
X48828364Y-55660332D03*
%TO.N,Net-(U3-HDEL)*%
X48828364Y-58200332D03*
%TO.N,Net-(U3-LDEL)*%
X48828364Y-60740332D03*
%TO.N,Net-(D2-K)*%
X48828364Y-63280332D03*
%TO.N,Net-(U3-AHO)*%
X56448364Y-63280332D03*
%TO.N,A out*%
X56448364Y-60740332D03*
%TO.N,Net-(U3-ALO)*%
X56448364Y-58200332D03*
%TO.N,R_shunt*%
X56448364Y-55660332D03*
%TO.N,+12V*%
X56448364Y-53120332D03*
X56448364Y-50580332D03*
%TO.N,R_shunt*%
X56448364Y-48040332D03*
%TO.N,Net-(U3-BLO)*%
X56448364Y-45500332D03*
%TO.N,B out*%
X56448364Y-42960332D03*
%TO.N,Net-(U3-BHO)*%
X56448364Y-40420332D03*
%TD*%
D24*
%TO.N,+5V*%
%TO.C,SW1*%
X30593000Y-41394000D03*
X30593000Y-34894000D03*
%TO.N,Net-(Q10-G)*%
X35093000Y-41394000D03*
X35093000Y-34894000D03*
%TD*%
D21*
%TO.N,Vcc*%
%TO.C,C12*%
X58059364Y-23118733D03*
D22*
%TO.N,GND*%
X58059364Y-25118733D03*
%TD*%
D12*
%TO.N,GND*%
%TO.C,C20*%
X82581000Y-25216000D03*
%TO.N,+12V*%
X82581000Y-22716000D03*
%TD*%
D16*
%TO.N,Vcc*%
%TO.C,C14*%
X52061364Y-17059953D03*
D12*
%TO.N,GND*%
X52061364Y-19559953D03*
%TD*%
D16*
%TO.N,+5V*%
%TO.C,C26*%
X20723364Y-29716332D03*
D12*
%TO.N,GND*%
X20723364Y-32216332D03*
%TD*%
D15*
%TO.N,B out*%
%TO.C,L2*%
X88126000Y-43199000D03*
%TO.N,Speaker -*%
X92696000Y-43199000D03*
%TD*%
D12*
%TO.N,GND*%
%TO.C,C18*%
X80082000Y-22720000D03*
%TO.N,Vcc*%
X77582000Y-22720000D03*
%TD*%
D16*
%TO.N,Vcc*%
%TO.C,C15*%
X45458364Y-25885681D03*
D12*
%TO.N,GND*%
X45458364Y-28385681D03*
%TD*%
D25*
%TO.N,Speaker +*%
%TO.C,J2*%
X97940500Y-57522000D03*
D14*
%TO.N,Speaker -*%
X97940500Y-54022000D03*
%TD*%
D18*
%TO.N,N/C*%
%TO.C,REF\u002A\u002A*%
X99000000Y-17000000D03*
%TD*%
D26*
%TO.N,Tri*%
X25274364Y-60763332D03*
%TO.N,GND*%
X22147364Y-67356332D03*
X30099364Y-65904332D03*
X32422364Y-57184332D03*
X21069364Y-82650332D03*
X29593364Y-70341332D03*
D27*
X87292200Y-63705465D03*
D26*
X25492364Y-54512332D03*
X45161813Y-59479332D03*
D27*
X87299134Y-62376379D03*
X88342200Y-63705465D03*
X86199132Y-62377898D03*
X86192198Y-63706984D03*
X88349134Y-62376379D03*
D26*
X19042364Y-59177332D03*
%TO.N,+5V*%
X29060364Y-56169332D03*
X36564364Y-54059332D03*
X43603364Y-68416332D03*
X36366364Y-58606332D03*
X20299583Y-54035332D03*
X22472583Y-45945832D03*
X15266583Y-44214332D03*
X45904000Y-44700000D03*
X31920000Y-50723000D03*
X27538364Y-66404332D03*
X29593364Y-71902332D03*
%TO.N,+12V*%
X58741364Y-68048332D03*
%TO.N,Net-(U2--)*%
X27375364Y-68811332D03*
%TO.N,Net-(Q10-G)*%
X42279000Y-52047000D03*
%TO.N,Net-(U10-Pad1)*%
X39131000Y-54376000D03*
X32877000Y-45088000D03*
%TD*%
D28*
%TO.N,Net-(U2--)*%
X19082364Y-68196332D02*
X22377364Y-68196332D01*
X22992364Y-68811332D02*
X27375364Y-68811332D01*
X22377364Y-68196332D02*
X22992364Y-68811332D01*
%TD*%
%TA.AperFunction,Conductor*%
%TO.N,+5V*%
G36*
X103453089Y-13400517D02*
G01*
X103498844Y-13453321D01*
X103510050Y-13504832D01*
X103510050Y-83895832D01*
X103490365Y-83962871D01*
X103437561Y-84008626D01*
X103386050Y-84019832D01*
X13768050Y-84019832D01*
X13701011Y-84000147D01*
X13655256Y-83947343D01*
X13644050Y-83895832D01*
X13644050Y-82571485D01*
X20268864Y-82571485D01*
X20268864Y-82729178D01*
X20299625Y-82883821D01*
X20299628Y-82883833D01*
X20359966Y-83029504D01*
X20359973Y-83029517D01*
X20447574Y-83160620D01*
X20447577Y-83160624D01*
X20559071Y-83272118D01*
X20559075Y-83272121D01*
X20690178Y-83359722D01*
X20690191Y-83359729D01*
X20835862Y-83420067D01*
X20835867Y-83420069D01*
X20990517Y-83450831D01*
X20990520Y-83450832D01*
X20990522Y-83450832D01*
X21148208Y-83450832D01*
X21148209Y-83450831D01*
X21302861Y-83420069D01*
X21448543Y-83359726D01*
X21579653Y-83272121D01*
X21691153Y-83160621D01*
X21778758Y-83029511D01*
X21839101Y-82883829D01*
X21869864Y-82729174D01*
X21869864Y-82571490D01*
X21869864Y-82571487D01*
X21869863Y-82571485D01*
X21839102Y-82416842D01*
X21839101Y-82416835D01*
X21839099Y-82416830D01*
X21778761Y-82271159D01*
X21778754Y-82271146D01*
X21691153Y-82140043D01*
X21691150Y-82140039D01*
X21579656Y-82028545D01*
X21579652Y-82028542D01*
X21448549Y-81940941D01*
X21448536Y-81940934D01*
X21302865Y-81880596D01*
X21302853Y-81880593D01*
X21148209Y-81849832D01*
X21148206Y-81849832D01*
X20990522Y-81849832D01*
X20990519Y-81849832D01*
X20835874Y-81880593D01*
X20835862Y-81880596D01*
X20690191Y-81940934D01*
X20690178Y-81940941D01*
X20559075Y-82028542D01*
X20559071Y-82028545D01*
X20447577Y-82140039D01*
X20447574Y-82140043D01*
X20359973Y-82271146D01*
X20359966Y-82271159D01*
X20299628Y-82416830D01*
X20299625Y-82416842D01*
X20268864Y-82571485D01*
X13644050Y-82571485D01*
X13644050Y-79809204D01*
X66364864Y-79809204D01*
X66364864Y-80071459D01*
X66391487Y-80273671D01*
X66399094Y-80331448D01*
X66417702Y-80400893D01*
X66466966Y-80584750D01*
X66466969Y-80584760D01*
X66567317Y-80827022D01*
X66567322Y-80827032D01*
X66698439Y-81054135D01*
X66858082Y-81262183D01*
X66858090Y-81262192D01*
X67043504Y-81447606D01*
X67043512Y-81447613D01*
X67251560Y-81607256D01*
X67478663Y-81738373D01*
X67478673Y-81738378D01*
X67720935Y-81838726D01*
X67720945Y-81838730D01*
X67974248Y-81906602D01*
X68234244Y-81940832D01*
X68234251Y-81940832D01*
X68496477Y-81940832D01*
X68496484Y-81940832D01*
X68756480Y-81906602D01*
X69009783Y-81838730D01*
X69252061Y-81738375D01*
X69479167Y-81607256D01*
X69687215Y-81447614D01*
X69687219Y-81447609D01*
X69687224Y-81447606D01*
X69872638Y-81262192D01*
X69872641Y-81262187D01*
X69872646Y-81262183D01*
X70032288Y-81054135D01*
X70163407Y-80827029D01*
X70263762Y-80584751D01*
X70331634Y-80331448D01*
X70365864Y-80071452D01*
X70365864Y-79809212D01*
X70365863Y-79809204D01*
X76996515Y-79809204D01*
X76996515Y-80071459D01*
X77023138Y-80273671D01*
X77030745Y-80331448D01*
X77049353Y-80400893D01*
X77098617Y-80584750D01*
X77098620Y-80584760D01*
X77198968Y-80827022D01*
X77198973Y-80827032D01*
X77330090Y-81054135D01*
X77489733Y-81262183D01*
X77489741Y-81262192D01*
X77675155Y-81447606D01*
X77675163Y-81447613D01*
X77883211Y-81607256D01*
X78110314Y-81738373D01*
X78110324Y-81738378D01*
X78352586Y-81838726D01*
X78352596Y-81838730D01*
X78605899Y-81906602D01*
X78865895Y-81940832D01*
X78865902Y-81940832D01*
X79128128Y-81940832D01*
X79128135Y-81940832D01*
X79388131Y-81906602D01*
X79641434Y-81838730D01*
X79883712Y-81738375D01*
X80110818Y-81607256D01*
X80318866Y-81447614D01*
X80318870Y-81447609D01*
X80318875Y-81447606D01*
X80504289Y-81262192D01*
X80504292Y-81262187D01*
X80504297Y-81262183D01*
X80663939Y-81054135D01*
X80795058Y-80827029D01*
X80895413Y-80584751D01*
X80963285Y-80331448D01*
X80997515Y-80071452D01*
X80997515Y-79865602D01*
X96949500Y-79865602D01*
X96949500Y-80134397D01*
X96984582Y-80400880D01*
X96984583Y-80400885D01*
X96984584Y-80400891D01*
X96984585Y-80400893D01*
X97054152Y-80660524D01*
X97157011Y-80908850D01*
X97157019Y-80908866D01*
X97237830Y-81048832D01*
X97291413Y-81141641D01*
X97291415Y-81141644D01*
X97291416Y-81141645D01*
X97455042Y-81354888D01*
X97455048Y-81354895D01*
X97645104Y-81544951D01*
X97645110Y-81544956D01*
X97858359Y-81708587D01*
X98007968Y-81794964D01*
X98091133Y-81842980D01*
X98091149Y-81842988D01*
X98181944Y-81880596D01*
X98339474Y-81945847D01*
X98599109Y-82015416D01*
X98787319Y-82040193D01*
X98865602Y-82050500D01*
X98865603Y-82050500D01*
X99134398Y-82050500D01*
X99194905Y-82042534D01*
X99400891Y-82015416D01*
X99660526Y-81945847D01*
X99847457Y-81868417D01*
X99908850Y-81842988D01*
X99908853Y-81842986D01*
X99908859Y-81842984D01*
X100141641Y-81708587D01*
X100354890Y-81544956D01*
X100544956Y-81354890D01*
X100708587Y-81141641D01*
X100842984Y-80908859D01*
X100945847Y-80660526D01*
X101015416Y-80400891D01*
X101050500Y-80134397D01*
X101050500Y-79865603D01*
X101015416Y-79599109D01*
X100945847Y-79339474D01*
X100907132Y-79246008D01*
X100842988Y-79091149D01*
X100842980Y-79091133D01*
X100794964Y-79007968D01*
X100708587Y-78858359D01*
X100544956Y-78645110D01*
X100544951Y-78645104D01*
X100354895Y-78455048D01*
X100354888Y-78455042D01*
X100141645Y-78291416D01*
X100141644Y-78291415D01*
X100141641Y-78291413D01*
X100048832Y-78237830D01*
X99908866Y-78157019D01*
X99908850Y-78157011D01*
X99660524Y-78054152D01*
X99530708Y-78019368D01*
X99400891Y-77984584D01*
X99400885Y-77984583D01*
X99400880Y-77984582D01*
X99134398Y-77949500D01*
X99134397Y-77949500D01*
X98865603Y-77949500D01*
X98865602Y-77949500D01*
X98599119Y-77984582D01*
X98599112Y-77984583D01*
X98599109Y-77984584D01*
X98544239Y-77999286D01*
X98339475Y-78054152D01*
X98091149Y-78157011D01*
X98091133Y-78157019D01*
X97858354Y-78291416D01*
X97645111Y-78455042D01*
X97645104Y-78455048D01*
X97455048Y-78645104D01*
X97455042Y-78645111D01*
X97291416Y-78858354D01*
X97157019Y-79091133D01*
X97157011Y-79091149D01*
X97054152Y-79339475D01*
X96984585Y-79599106D01*
X96984582Y-79599119D01*
X96949500Y-79865602D01*
X80997515Y-79865602D01*
X80997515Y-79809212D01*
X80963285Y-79549216D01*
X80895413Y-79295913D01*
X80895409Y-79295903D01*
X80795061Y-79053641D01*
X80795056Y-79053631D01*
X80663939Y-78826528D01*
X80504296Y-78618480D01*
X80504289Y-78618472D01*
X80318875Y-78433058D01*
X80318866Y-78433050D01*
X80110818Y-78273407D01*
X79883715Y-78142290D01*
X79883705Y-78142285D01*
X79641443Y-78041937D01*
X79641436Y-78041935D01*
X79641434Y-78041934D01*
X79388131Y-77974062D01*
X79330354Y-77966455D01*
X79128142Y-77939832D01*
X79128135Y-77939832D01*
X78865895Y-77939832D01*
X78865887Y-77939832D01*
X78634787Y-77970258D01*
X78605899Y-77974062D01*
X78424050Y-78022788D01*
X78352596Y-78041934D01*
X78352586Y-78041937D01*
X78110324Y-78142285D01*
X78110314Y-78142290D01*
X77883211Y-78273407D01*
X77675163Y-78433050D01*
X77489733Y-78618480D01*
X77330090Y-78826528D01*
X77198973Y-79053631D01*
X77198968Y-79053641D01*
X77098620Y-79295903D01*
X77098617Y-79295913D01*
X77031679Y-79545733D01*
X77030745Y-79549217D01*
X76996515Y-79809204D01*
X70365863Y-79809204D01*
X70331634Y-79549216D01*
X70263762Y-79295913D01*
X70263758Y-79295903D01*
X70163410Y-79053641D01*
X70163405Y-79053631D01*
X70032288Y-78826528D01*
X69872645Y-78618480D01*
X69872638Y-78618472D01*
X69687224Y-78433058D01*
X69687215Y-78433050D01*
X69479167Y-78273407D01*
X69252064Y-78142290D01*
X69252054Y-78142285D01*
X69009792Y-78041937D01*
X69009785Y-78041935D01*
X69009783Y-78041934D01*
X68756480Y-77974062D01*
X68698703Y-77966455D01*
X68496491Y-77939832D01*
X68496484Y-77939832D01*
X68234244Y-77939832D01*
X68234236Y-77939832D01*
X68003136Y-77970258D01*
X67974248Y-77974062D01*
X67792399Y-78022788D01*
X67720945Y-78041934D01*
X67720935Y-78041937D01*
X67478673Y-78142285D01*
X67478663Y-78142290D01*
X67251560Y-78273407D01*
X67043512Y-78433050D01*
X66858082Y-78618480D01*
X66698439Y-78826528D01*
X66567322Y-79053631D01*
X66567317Y-79053641D01*
X66466969Y-79295903D01*
X66466966Y-79295913D01*
X66400028Y-79545733D01*
X66399094Y-79549217D01*
X66364864Y-79809204D01*
X13644050Y-79809204D01*
X13644050Y-78358622D01*
X19085864Y-78358622D01*
X19085864Y-78531843D01*
X19103803Y-78645110D01*
X19112962Y-78702934D01*
X19166491Y-78867678D01*
X19245132Y-79022021D01*
X19346950Y-79162161D01*
X19469436Y-79284647D01*
X19609576Y-79386465D01*
X19763919Y-79465106D01*
X19928663Y-79518635D01*
X20099753Y-79545733D01*
X20099754Y-79545733D01*
X20272974Y-79545733D01*
X20272975Y-79545733D01*
X20444065Y-79518635D01*
X20608809Y-79465106D01*
X20763152Y-79386465D01*
X20903292Y-79284647D01*
X21025778Y-79162161D01*
X21127596Y-79022021D01*
X21206237Y-78867678D01*
X21259766Y-78702934D01*
X21286864Y-78531844D01*
X21286864Y-78358622D01*
X26085864Y-78358622D01*
X26085864Y-78531843D01*
X26103803Y-78645110D01*
X26112962Y-78702934D01*
X26166491Y-78867678D01*
X26245132Y-79022021D01*
X26346950Y-79162161D01*
X26469436Y-79284647D01*
X26609576Y-79386465D01*
X26763919Y-79465106D01*
X26928663Y-79518635D01*
X27099753Y-79545733D01*
X27099754Y-79545733D01*
X27272974Y-79545733D01*
X27272975Y-79545733D01*
X27444065Y-79518635D01*
X27608809Y-79465106D01*
X27763152Y-79386465D01*
X27903292Y-79284647D01*
X28025778Y-79162161D01*
X28127596Y-79022021D01*
X28206237Y-78867678D01*
X28259766Y-78702934D01*
X28286864Y-78531844D01*
X28286864Y-78358622D01*
X28259766Y-78187532D01*
X28206237Y-78022788D01*
X28127596Y-77868445D01*
X28025778Y-77728305D01*
X27903292Y-77605819D01*
X27763152Y-77504001D01*
X27608809Y-77425360D01*
X27444065Y-77371831D01*
X27444063Y-77371830D01*
X27444062Y-77371830D01*
X27312635Y-77351014D01*
X27272975Y-77344733D01*
X27099753Y-77344733D01*
X27060092Y-77351014D01*
X26928666Y-77371830D01*
X26763916Y-77425361D01*
X26609575Y-77504001D01*
X26529620Y-77562092D01*
X26469436Y-77605819D01*
X26469434Y-77605821D01*
X26469433Y-77605821D01*
X26346952Y-77728302D01*
X26346952Y-77728303D01*
X26346950Y-77728305D01*
X26303223Y-77788489D01*
X26245132Y-77868444D01*
X26166492Y-78022785D01*
X26112961Y-78187535D01*
X26085864Y-78358622D01*
X21286864Y-78358622D01*
X21259766Y-78187532D01*
X21206237Y-78022788D01*
X21127596Y-77868445D01*
X21025778Y-77728305D01*
X20903292Y-77605819D01*
X20763152Y-77504001D01*
X20608809Y-77425360D01*
X20444065Y-77371831D01*
X20444063Y-77371830D01*
X20444062Y-77371830D01*
X20312635Y-77351014D01*
X20272975Y-77344733D01*
X20099753Y-77344733D01*
X20060092Y-77351014D01*
X19928666Y-77371830D01*
X19763916Y-77425361D01*
X19609575Y-77504001D01*
X19529620Y-77562092D01*
X19469436Y-77605819D01*
X19469434Y-77605821D01*
X19469433Y-77605821D01*
X19346952Y-77728302D01*
X19346952Y-77728303D01*
X19346950Y-77728305D01*
X19303223Y-77788489D01*
X19245132Y-77868444D01*
X19166492Y-78022785D01*
X19112961Y-78187535D01*
X19085864Y-78358622D01*
X13644050Y-78358622D01*
X13644050Y-71909872D01*
X86410500Y-71909872D01*
X86410500Y-72172127D01*
X86429380Y-72315523D01*
X86444730Y-72432116D01*
X86487578Y-72592028D01*
X86512602Y-72685418D01*
X86512605Y-72685428D01*
X86612953Y-72927690D01*
X86612958Y-72927700D01*
X86744075Y-73154803D01*
X86903718Y-73362851D01*
X86903726Y-73362860D01*
X87089140Y-73548274D01*
X87089148Y-73548281D01*
X87297196Y-73707924D01*
X87524299Y-73839041D01*
X87524309Y-73839046D01*
X87766571Y-73939394D01*
X87766581Y-73939398D01*
X88019884Y-74007270D01*
X88279880Y-74041500D01*
X88279887Y-74041500D01*
X88542113Y-74041500D01*
X88542120Y-74041500D01*
X88802116Y-74007270D01*
X89055419Y-73939398D01*
X89297697Y-73839043D01*
X89524803Y-73707924D01*
X89732851Y-73548282D01*
X89732855Y-73548277D01*
X89732860Y-73548274D01*
X89918274Y-73362860D01*
X89918277Y-73362855D01*
X89918282Y-73362851D01*
X90077924Y-73154803D01*
X90209043Y-72927697D01*
X90309398Y-72685419D01*
X90377270Y-72432116D01*
X90411500Y-72172120D01*
X90411500Y-71909880D01*
X90411499Y-71909872D01*
X90980500Y-71909872D01*
X90980500Y-72172127D01*
X90999380Y-72315523D01*
X91014730Y-72432116D01*
X91057578Y-72592028D01*
X91082602Y-72685418D01*
X91082605Y-72685428D01*
X91182953Y-72927690D01*
X91182958Y-72927700D01*
X91314075Y-73154803D01*
X91473718Y-73362851D01*
X91473726Y-73362860D01*
X91659140Y-73548274D01*
X91659148Y-73548281D01*
X91867196Y-73707924D01*
X92094299Y-73839041D01*
X92094309Y-73839046D01*
X92336571Y-73939394D01*
X92336581Y-73939398D01*
X92589884Y-74007270D01*
X92849880Y-74041500D01*
X92849887Y-74041500D01*
X93112113Y-74041500D01*
X93112120Y-74041500D01*
X93372116Y-74007270D01*
X93625419Y-73939398D01*
X93867697Y-73839043D01*
X94094803Y-73707924D01*
X94302851Y-73548282D01*
X94302855Y-73548277D01*
X94302860Y-73548274D01*
X94369486Y-73481648D01*
X94926500Y-73481648D01*
X94926500Y-73686351D01*
X94958522Y-73888534D01*
X95021781Y-74083223D01*
X95114715Y-74265613D01*
X95235028Y-74431213D01*
X95379786Y-74575971D01*
X95545388Y-74696286D01*
X95598828Y-74723516D01*
X95649623Y-74771490D01*
X95666418Y-74839312D01*
X95643880Y-74905446D01*
X95598828Y-74944484D01*
X95545388Y-74971713D01*
X95379786Y-75092028D01*
X95235028Y-75236786D01*
X95114715Y-75402386D01*
X95021781Y-75584776D01*
X94958522Y-75779465D01*
X94926500Y-75981648D01*
X94926500Y-76186351D01*
X94958522Y-76388534D01*
X95021781Y-76583223D01*
X95114715Y-76765613D01*
X95235028Y-76931213D01*
X95379786Y-77075971D01*
X95534749Y-77188556D01*
X95545390Y-77196287D01*
X95661607Y-77255503D01*
X95727776Y-77289218D01*
X95727778Y-77289218D01*
X95727781Y-77289220D01*
X95832137Y-77323127D01*
X95922465Y-77352477D01*
X96023557Y-77368488D01*
X96124648Y-77384500D01*
X96124649Y-77384500D01*
X96329351Y-77384500D01*
X96329352Y-77384500D01*
X96531534Y-77352477D01*
X96726219Y-77289220D01*
X96908610Y-77196287D01*
X97001590Y-77128732D01*
X97074213Y-77075971D01*
X97074215Y-77075968D01*
X97074219Y-77075966D01*
X97218966Y-76931219D01*
X97218968Y-76931215D01*
X97218971Y-76931213D01*
X97271732Y-76858590D01*
X97339287Y-76765610D01*
X97432220Y-76583219D01*
X97495477Y-76388534D01*
X97527500Y-76186352D01*
X97527500Y-75981648D01*
X97495477Y-75779466D01*
X97432220Y-75584781D01*
X97432218Y-75584778D01*
X97432218Y-75584776D01*
X97398503Y-75518607D01*
X97339287Y-75402390D01*
X97331556Y-75391749D01*
X97218971Y-75236786D01*
X97074213Y-75092028D01*
X96908613Y-74971715D01*
X96908612Y-74971714D01*
X96908610Y-74971713D01*
X96855171Y-74944484D01*
X96804376Y-74896510D01*
X96787581Y-74828689D01*
X96810118Y-74762554D01*
X96855172Y-74723515D01*
X96908610Y-74696287D01*
X97001590Y-74628732D01*
X97074213Y-74575971D01*
X97074215Y-74575968D01*
X97074219Y-74575966D01*
X97218966Y-74431219D01*
X97218968Y-74431215D01*
X97218971Y-74431213D01*
X97271732Y-74358590D01*
X97339287Y-74265610D01*
X97432220Y-74083219D01*
X97495477Y-73888534D01*
X97527500Y-73686352D01*
X97527500Y-73481648D01*
X97495477Y-73279466D01*
X97432220Y-73084781D01*
X97432218Y-73084778D01*
X97432218Y-73084776D01*
X97398503Y-73018607D01*
X97339287Y-72902390D01*
X97331556Y-72891749D01*
X97218971Y-72736786D01*
X97074213Y-72592028D01*
X96908613Y-72471715D01*
X96908612Y-72471714D01*
X96908610Y-72471713D01*
X96830893Y-72432114D01*
X96726223Y-72378781D01*
X96531534Y-72315522D01*
X96356995Y-72287878D01*
X96329352Y-72283500D01*
X96124648Y-72283500D01*
X96100329Y-72287351D01*
X95922465Y-72315522D01*
X95727776Y-72378781D01*
X95545386Y-72471715D01*
X95379786Y-72592028D01*
X95235028Y-72736786D01*
X95114715Y-72902386D01*
X95021781Y-73084776D01*
X94958522Y-73279465D01*
X94926500Y-73481648D01*
X94369486Y-73481648D01*
X94488274Y-73362860D01*
X94488277Y-73362855D01*
X94488282Y-73362851D01*
X94647924Y-73154803D01*
X94779043Y-72927697D01*
X94879398Y-72685419D01*
X94947270Y-72432116D01*
X94981500Y-72172120D01*
X94981500Y-71909880D01*
X94947270Y-71649884D01*
X94879398Y-71396581D01*
X94879394Y-71396571D01*
X94779046Y-71154309D01*
X94779041Y-71154299D01*
X94647924Y-70927196D01*
X94525424Y-70767554D01*
X94488282Y-70719149D01*
X94488281Y-70719148D01*
X94488274Y-70719140D01*
X94302860Y-70533726D01*
X94302851Y-70533718D01*
X94094803Y-70374075D01*
X93867700Y-70242958D01*
X93867690Y-70242953D01*
X93625428Y-70142605D01*
X93625421Y-70142603D01*
X93625419Y-70142602D01*
X93372116Y-70074730D01*
X93314339Y-70067123D01*
X93112127Y-70040500D01*
X93112120Y-70040500D01*
X92849880Y-70040500D01*
X92849872Y-70040500D01*
X92618772Y-70070926D01*
X92589884Y-70074730D01*
X92466353Y-70107830D01*
X92336581Y-70142602D01*
X92336571Y-70142605D01*
X92094309Y-70242953D01*
X92094299Y-70242958D01*
X91867196Y-70374075D01*
X91659148Y-70533718D01*
X91473718Y-70719148D01*
X91314075Y-70927196D01*
X91182958Y-71154299D01*
X91182953Y-71154309D01*
X91082605Y-71396571D01*
X91082602Y-71396581D01*
X91014730Y-71649885D01*
X90980500Y-71909872D01*
X90411499Y-71909872D01*
X90377270Y-71649884D01*
X90309398Y-71396581D01*
X90309394Y-71396571D01*
X90209046Y-71154309D01*
X90209041Y-71154299D01*
X90077924Y-70927196D01*
X89955424Y-70767554D01*
X89918282Y-70719149D01*
X89918281Y-70719148D01*
X89918274Y-70719140D01*
X89732860Y-70533726D01*
X89732851Y-70533718D01*
X89524803Y-70374075D01*
X89297700Y-70242958D01*
X89297690Y-70242953D01*
X89055428Y-70142605D01*
X89055421Y-70142603D01*
X89055419Y-70142602D01*
X88802116Y-70074730D01*
X88744339Y-70067123D01*
X88542127Y-70040500D01*
X88542120Y-70040500D01*
X88279880Y-70040500D01*
X88279872Y-70040500D01*
X88048772Y-70070926D01*
X88019884Y-70074730D01*
X87896353Y-70107830D01*
X87766581Y-70142602D01*
X87766571Y-70142605D01*
X87524309Y-70242953D01*
X87524299Y-70242958D01*
X87297196Y-70374075D01*
X87089148Y-70533718D01*
X86903718Y-70719148D01*
X86744075Y-70927196D01*
X86612958Y-71154299D01*
X86612953Y-71154309D01*
X86512605Y-71396571D01*
X86512602Y-71396581D01*
X86444730Y-71649885D01*
X86410500Y-71909872D01*
X13644050Y-71909872D01*
X13644050Y-70262485D01*
X28792864Y-70262485D01*
X28792864Y-70420178D01*
X28823625Y-70574821D01*
X28823628Y-70574833D01*
X28883966Y-70720504D01*
X28883973Y-70720517D01*
X28971574Y-70851620D01*
X28971577Y-70851624D01*
X29083071Y-70963118D01*
X29083075Y-70963121D01*
X29214178Y-71050722D01*
X29214191Y-71050729D01*
X29359862Y-71111067D01*
X29359867Y-71111069D01*
X29514517Y-71141831D01*
X29514520Y-71141832D01*
X29514522Y-71141832D01*
X29672208Y-71141832D01*
X29672209Y-71141831D01*
X29826861Y-71111069D01*
X29972543Y-71050726D01*
X30103653Y-70963121D01*
X30215153Y-70851621D01*
X30302758Y-70720511D01*
X30363101Y-70574829D01*
X30393864Y-70420174D01*
X30393864Y-70262490D01*
X30393864Y-70262487D01*
X30393863Y-70262485D01*
X30370017Y-70142605D01*
X30363101Y-70107835D01*
X30335210Y-70040500D01*
X30302761Y-69962159D01*
X30302754Y-69962146D01*
X30215153Y-69831043D01*
X30215150Y-69831039D01*
X30103656Y-69719545D01*
X30103652Y-69719542D01*
X29972549Y-69631941D01*
X29972536Y-69631934D01*
X29826865Y-69571596D01*
X29826853Y-69571593D01*
X29672209Y-69540832D01*
X29672206Y-69540832D01*
X29514522Y-69540832D01*
X29514519Y-69540832D01*
X29359874Y-69571593D01*
X29359862Y-69571596D01*
X29214191Y-69631934D01*
X29214178Y-69631941D01*
X29083075Y-69719542D01*
X29083071Y-69719545D01*
X28971577Y-69831039D01*
X28971574Y-69831043D01*
X28883973Y-69962146D01*
X28883966Y-69962159D01*
X28823628Y-70107830D01*
X28823625Y-70107842D01*
X28792864Y-70262485D01*
X13644050Y-70262485D01*
X13644050Y-65586834D01*
X14911864Y-65586834D01*
X14911864Y-65805829D01*
X14935670Y-65986646D01*
X14940447Y-66022930D01*
X14997123Y-66234449D01*
X15080924Y-66436760D01*
X15080926Y-66436765D01*
X15080929Y-66436770D01*
X15190413Y-66626402D01*
X15323719Y-66800130D01*
X15323725Y-66800137D01*
X15478558Y-66954970D01*
X15478565Y-66954976D01*
X15652293Y-67088282D01*
X15841925Y-67197766D01*
X15841927Y-67197766D01*
X15841936Y-67197772D01*
X16044247Y-67281573D01*
X16255766Y-67338249D01*
X16472874Y-67366832D01*
X16472881Y-67366832D01*
X16691847Y-67366832D01*
X16691854Y-67366832D01*
X16908962Y-67338249D01*
X17120481Y-67281573D01*
X17322792Y-67197772D01*
X17512435Y-67088282D01*
X17530127Y-67074706D01*
X17595293Y-67049511D01*
X17663739Y-67063548D01*
X17713730Y-67112360D01*
X17729395Y-67180451D01*
X17705760Y-67246202D01*
X17703992Y-67248565D01*
X17690412Y-67266263D01*
X17580929Y-67455893D01*
X17580924Y-67455905D01*
X17497122Y-67658216D01*
X17440448Y-67869731D01*
X17440446Y-67869742D01*
X17411864Y-68086834D01*
X17411864Y-68305829D01*
X17435670Y-68486646D01*
X17440447Y-68522930D01*
X17455159Y-68577835D01*
X17496596Y-68732485D01*
X17497123Y-68734449D01*
X17580924Y-68936760D01*
X17580926Y-68936765D01*
X17580929Y-68936770D01*
X17690413Y-69126402D01*
X17823719Y-69300130D01*
X17823725Y-69300137D01*
X17978558Y-69454970D01*
X17978565Y-69454976D01*
X18152293Y-69588282D01*
X18341925Y-69697766D01*
X18341927Y-69697766D01*
X18341936Y-69697772D01*
X18544247Y-69781573D01*
X18755766Y-69838249D01*
X18972874Y-69866832D01*
X18972881Y-69866832D01*
X19191847Y-69866832D01*
X19191854Y-69866832D01*
X19408962Y-69838249D01*
X19620481Y-69781573D01*
X19822792Y-69697772D01*
X20012435Y-69588282D01*
X20186164Y-69454975D01*
X20341007Y-69300132D01*
X20474314Y-69126403D01*
X20507868Y-69068284D01*
X20542194Y-69008832D01*
X20592761Y-68960616D01*
X20649581Y-68946832D01*
X22015134Y-68946832D01*
X22082173Y-68966517D01*
X22102815Y-68983151D01*
X22513944Y-69394280D01*
X22513948Y-69394283D01*
X22636862Y-69476412D01*
X22636875Y-69476419D01*
X22743833Y-69520722D01*
X22773451Y-69532990D01*
X22773455Y-69532990D01*
X22773456Y-69532991D01*
X22918443Y-69561832D01*
X22918446Y-69561832D01*
X23066281Y-69561832D01*
X27070760Y-69561832D01*
X27118208Y-69571269D01*
X27141867Y-69581069D01*
X27141872Y-69581070D01*
X27141875Y-69581071D01*
X27296517Y-69611831D01*
X27296520Y-69611832D01*
X27296522Y-69611832D01*
X27454208Y-69611832D01*
X27454209Y-69611831D01*
X27608861Y-69581069D01*
X27754543Y-69520726D01*
X27885653Y-69433121D01*
X27997153Y-69321621D01*
X28084758Y-69190511D01*
X28145101Y-69044829D01*
X28175864Y-68890174D01*
X28175864Y-68732490D01*
X28175864Y-68732487D01*
X28175863Y-68732485D01*
X28145102Y-68577842D01*
X28145101Y-68577835D01*
X28122355Y-68522921D01*
X28084761Y-68432159D01*
X28084754Y-68432146D01*
X27997153Y-68301043D01*
X27997150Y-68301039D01*
X27885656Y-68189545D01*
X27885652Y-68189542D01*
X27754549Y-68101941D01*
X27754536Y-68101934D01*
X27696653Y-68077959D01*
X27608865Y-68041596D01*
X27608853Y-68041593D01*
X27454209Y-68010832D01*
X27454206Y-68010832D01*
X27296522Y-68010832D01*
X27296519Y-68010832D01*
X27141875Y-68041592D01*
X27141870Y-68041594D01*
X27141868Y-68041594D01*
X27141867Y-68041595D01*
X27118208Y-68051394D01*
X27070760Y-68060832D01*
X23354593Y-68060832D01*
X23287554Y-68041147D01*
X23266912Y-68024513D01*
X23211884Y-67969485D01*
X57940864Y-67969485D01*
X57940864Y-68127178D01*
X57971625Y-68281821D01*
X57971628Y-68281833D01*
X58031966Y-68427504D01*
X58031973Y-68427517D01*
X58119574Y-68558620D01*
X58119577Y-68558624D01*
X58231071Y-68670118D01*
X58231075Y-68670121D01*
X58362178Y-68757722D01*
X58362191Y-68757729D01*
X58507862Y-68818067D01*
X58507867Y-68818069D01*
X58662517Y-68848831D01*
X58662520Y-68848832D01*
X58662522Y-68848832D01*
X58820208Y-68848832D01*
X58820209Y-68848831D01*
X58974861Y-68818069D01*
X59120543Y-68757726D01*
X59251653Y-68670121D01*
X59363153Y-68558621D01*
X59450758Y-68427511D01*
X59511101Y-68281829D01*
X59541864Y-68127174D01*
X59541864Y-67969490D01*
X59541864Y-67969487D01*
X59541863Y-67969485D01*
X59522021Y-67869734D01*
X59511101Y-67814835D01*
X59466636Y-67707486D01*
X59450761Y-67669159D01*
X59450754Y-67669146D01*
X59363153Y-67538043D01*
X59363150Y-67538039D01*
X59251656Y-67426545D01*
X59251652Y-67426542D01*
X59120549Y-67338941D01*
X59120536Y-67338934D01*
X58974865Y-67278596D01*
X58974853Y-67278593D01*
X58820209Y-67247832D01*
X58820206Y-67247832D01*
X58662522Y-67247832D01*
X58662519Y-67247832D01*
X58507874Y-67278593D01*
X58507862Y-67278596D01*
X58362191Y-67338934D01*
X58362178Y-67338941D01*
X58231075Y-67426542D01*
X58231071Y-67426545D01*
X58119577Y-67538039D01*
X58119574Y-67538043D01*
X58031973Y-67669146D01*
X58031966Y-67669159D01*
X57971628Y-67814830D01*
X57971625Y-67814842D01*
X57940864Y-67969485D01*
X23211884Y-67969485D01*
X22949886Y-67707486D01*
X22916401Y-67646163D01*
X22915950Y-67595613D01*
X22947864Y-67435176D01*
X22947864Y-67277487D01*
X22947863Y-67277485D01*
X22932006Y-67197766D01*
X22917101Y-67122835D01*
X22892544Y-67063548D01*
X22856761Y-66977159D01*
X22856754Y-66977146D01*
X22769153Y-66846043D01*
X22769150Y-66846039D01*
X22657656Y-66734545D01*
X22657652Y-66734542D01*
X22526549Y-66646941D01*
X22526536Y-66646934D01*
X22380865Y-66586596D01*
X22380853Y-66586593D01*
X22226209Y-66555832D01*
X22226206Y-66555832D01*
X22068522Y-66555832D01*
X22068519Y-66555832D01*
X21913874Y-66586593D01*
X21913862Y-66586596D01*
X21768191Y-66646934D01*
X21768178Y-66646941D01*
X21637075Y-66734542D01*
X21637071Y-66734545D01*
X21525577Y-66846039D01*
X21525574Y-66846043D01*
X21437973Y-66977146D01*
X21437966Y-66977159D01*
X21377628Y-67122830D01*
X21377625Y-67122842D01*
X21346864Y-67277485D01*
X21346864Y-67321832D01*
X21327179Y-67388871D01*
X21274375Y-67434626D01*
X21222864Y-67445832D01*
X20649581Y-67445832D01*
X20582542Y-67426147D01*
X20542194Y-67383832D01*
X20474314Y-67266261D01*
X20341008Y-67092533D01*
X20341002Y-67092526D01*
X20186169Y-66937693D01*
X20186162Y-66937687D01*
X20012434Y-66804381D01*
X19822802Y-66694897D01*
X19822797Y-66694894D01*
X19822792Y-66694892D01*
X19626850Y-66613729D01*
X19620479Y-66611090D01*
X19514721Y-66582753D01*
X19408962Y-66554415D01*
X19372678Y-66549638D01*
X19191861Y-66525832D01*
X19191854Y-66525832D01*
X18972874Y-66525832D01*
X18972866Y-66525832D01*
X18766217Y-66553039D01*
X18755766Y-66554415D01*
X18750478Y-66555832D01*
X18544248Y-66611090D01*
X18425738Y-66660179D01*
X18341936Y-66694892D01*
X18341933Y-66694893D01*
X18341925Y-66694897D01*
X18152295Y-66804380D01*
X18134597Y-66817960D01*
X18069427Y-66843152D01*
X18000983Y-66829112D01*
X17950994Y-66780297D01*
X17935333Y-66712205D01*
X17958971Y-66646455D01*
X17960699Y-66644145D01*
X17974314Y-66626403D01*
X18083804Y-66436760D01*
X18167605Y-66234449D01*
X18224281Y-66022930D01*
X18250275Y-65825485D01*
X29298864Y-65825485D01*
X29298864Y-65983178D01*
X29329625Y-66137821D01*
X29329628Y-66137833D01*
X29389966Y-66283504D01*
X29389973Y-66283517D01*
X29477574Y-66414620D01*
X29477577Y-66414624D01*
X29589071Y-66526118D01*
X29589075Y-66526121D01*
X29720178Y-66613722D01*
X29720191Y-66613729D01*
X29865862Y-66674067D01*
X29865867Y-66674069D01*
X29970551Y-66694892D01*
X30020517Y-66704831D01*
X30020520Y-66704832D01*
X30020522Y-66704832D01*
X30178208Y-66704832D01*
X30178209Y-66704831D01*
X30332861Y-66674069D01*
X30478543Y-66613726D01*
X30609653Y-66526121D01*
X30721153Y-66414621D01*
X30808758Y-66283511D01*
X30869101Y-66137829D01*
X30899864Y-65983174D01*
X30899864Y-65825490D01*
X30899864Y-65825487D01*
X30899863Y-65825485D01*
X30869102Y-65670842D01*
X30869101Y-65670835D01*
X30834313Y-65586848D01*
X30808761Y-65525159D01*
X30808754Y-65525146D01*
X30721153Y-65394043D01*
X30721150Y-65394039D01*
X30609656Y-65282545D01*
X30609652Y-65282542D01*
X30478549Y-65194941D01*
X30478536Y-65194934D01*
X30332865Y-65134596D01*
X30332853Y-65134593D01*
X30178209Y-65103832D01*
X30178206Y-65103832D01*
X30020522Y-65103832D01*
X30020519Y-65103832D01*
X29865874Y-65134593D01*
X29865862Y-65134596D01*
X29720191Y-65194934D01*
X29720178Y-65194941D01*
X29589075Y-65282542D01*
X29589071Y-65282545D01*
X29477577Y-65394039D01*
X29477574Y-65394043D01*
X29389973Y-65525146D01*
X29389966Y-65525159D01*
X29329628Y-65670830D01*
X29329625Y-65670842D01*
X29298864Y-65825485D01*
X18250275Y-65825485D01*
X18252864Y-65805822D01*
X18252864Y-65586842D01*
X18224281Y-65369734D01*
X18167605Y-65158215D01*
X18083804Y-64955904D01*
X18032378Y-64866832D01*
X17974317Y-64766266D01*
X17974316Y-64766265D01*
X17974314Y-64766261D01*
X17960736Y-64748566D01*
X17935543Y-64683399D01*
X17949581Y-64614954D01*
X17998395Y-64564964D01*
X18066486Y-64549300D01*
X18132237Y-64572936D01*
X18134563Y-64574677D01*
X18152293Y-64588282D01*
X18152297Y-64588284D01*
X18152298Y-64588285D01*
X18341925Y-64697766D01*
X18341927Y-64697766D01*
X18341936Y-64697772D01*
X18544247Y-64781573D01*
X18755766Y-64838249D01*
X18972874Y-64866832D01*
X18972881Y-64866832D01*
X19191847Y-64866832D01*
X19191854Y-64866832D01*
X19408962Y-64838249D01*
X19620481Y-64781573D01*
X19822792Y-64697772D01*
X20012435Y-64588282D01*
X20186164Y-64454975D01*
X20341007Y-64300132D01*
X20474314Y-64126403D01*
X20583804Y-63936760D01*
X20667605Y-63734449D01*
X20724281Y-63522930D01*
X20752864Y-63305822D01*
X20752864Y-63086842D01*
X20724281Y-62869734D01*
X20667605Y-62658215D01*
X20583804Y-62455904D01*
X20474314Y-62266261D01*
X20448368Y-62232448D01*
X20341008Y-62092533D01*
X20341002Y-62092526D01*
X20186169Y-61937693D01*
X20186162Y-61937687D01*
X20012434Y-61804381D01*
X19822802Y-61694897D01*
X19822797Y-61694894D01*
X19822792Y-61694892D01*
X19620481Y-61611091D01*
X19620482Y-61611091D01*
X19620479Y-61611090D01*
X19514721Y-61582753D01*
X19408962Y-61554415D01*
X19372678Y-61549638D01*
X19191861Y-61525832D01*
X19191854Y-61525832D01*
X18972874Y-61525832D01*
X18972866Y-61525832D01*
X18766217Y-61553039D01*
X18755766Y-61554415D01*
X18720625Y-61563831D01*
X18544248Y-61611090D01*
X18425738Y-61660179D01*
X18341936Y-61694892D01*
X18341933Y-61694893D01*
X18341925Y-61694897D01*
X18152293Y-61804381D01*
X17978565Y-61937687D01*
X17978558Y-61937693D01*
X17823725Y-62092526D01*
X17823719Y-62092533D01*
X17690413Y-62266261D01*
X17580929Y-62455893D01*
X17580925Y-62455901D01*
X17580924Y-62455904D01*
X17552370Y-62524839D01*
X17497122Y-62658216D01*
X17440448Y-62869731D01*
X17440446Y-62869742D01*
X17411864Y-63086834D01*
X17411864Y-63305829D01*
X17429817Y-63442186D01*
X17440447Y-63522930D01*
X17497123Y-63734449D01*
X17580924Y-63936760D01*
X17580926Y-63936765D01*
X17580929Y-63936770D01*
X17690413Y-64126402D01*
X17703990Y-64144096D01*
X17729184Y-64209265D01*
X17715145Y-64277710D01*
X17666331Y-64327700D01*
X17598240Y-64343363D01*
X17532490Y-64319726D01*
X17530128Y-64317958D01*
X17512434Y-64304381D01*
X17322802Y-64194897D01*
X17322797Y-64194894D01*
X17322792Y-64194892D01*
X17120481Y-64111091D01*
X17120482Y-64111091D01*
X17120479Y-64111090D01*
X17014721Y-64082753D01*
X16908962Y-64054415D01*
X16872678Y-64049638D01*
X16691861Y-64025832D01*
X16691854Y-64025832D01*
X16472874Y-64025832D01*
X16472866Y-64025832D01*
X16266217Y-64053039D01*
X16255766Y-64054415D01*
X16211063Y-64066392D01*
X16044248Y-64111090D01*
X15925738Y-64160179D01*
X15841936Y-64194892D01*
X15841933Y-64194893D01*
X15841925Y-64194897D01*
X15652293Y-64304381D01*
X15478565Y-64437687D01*
X15478558Y-64437693D01*
X15323725Y-64592526D01*
X15323719Y-64592533D01*
X15190413Y-64766261D01*
X15080929Y-64955893D01*
X15080924Y-64955905D01*
X14997122Y-65158216D01*
X14940448Y-65369731D01*
X14940446Y-65369742D01*
X14911864Y-65586834D01*
X13644050Y-65586834D01*
X13644050Y-60684485D01*
X24473864Y-60684485D01*
X24473864Y-60842178D01*
X24504625Y-60996821D01*
X24504628Y-60996833D01*
X24564966Y-61142504D01*
X24564973Y-61142517D01*
X24652574Y-61273620D01*
X24652577Y-61273624D01*
X24764071Y-61385118D01*
X24764075Y-61385121D01*
X24895178Y-61472722D01*
X24895191Y-61472729D01*
X25000122Y-61516192D01*
X25040867Y-61533069D01*
X25195517Y-61563831D01*
X25195520Y-61563832D01*
X25195522Y-61563832D01*
X25353208Y-61563832D01*
X25353209Y-61563831D01*
X25507861Y-61533069D01*
X25653543Y-61472726D01*
X25784653Y-61385121D01*
X25896153Y-61273621D01*
X25983758Y-61142511D01*
X26044101Y-60996829D01*
X26074864Y-60842174D01*
X26074864Y-60684490D01*
X26074864Y-60684487D01*
X26074863Y-60684485D01*
X26044101Y-60529835D01*
X26005150Y-60435798D01*
X25983761Y-60384159D01*
X25983754Y-60384146D01*
X25896153Y-60253043D01*
X25896150Y-60253039D01*
X25784656Y-60141545D01*
X25784652Y-60141542D01*
X25653549Y-60053941D01*
X25653536Y-60053934D01*
X25507865Y-59993596D01*
X25507853Y-59993593D01*
X25353209Y-59962832D01*
X25353206Y-59962832D01*
X25195522Y-59962832D01*
X25195519Y-59962832D01*
X25040874Y-59993593D01*
X25040862Y-59993596D01*
X24895191Y-60053934D01*
X24895178Y-60053941D01*
X24764075Y-60141542D01*
X24764071Y-60141545D01*
X24652577Y-60253039D01*
X24652574Y-60253043D01*
X24564973Y-60384146D01*
X24564966Y-60384159D01*
X24504628Y-60529830D01*
X24504625Y-60529842D01*
X24473864Y-60684485D01*
X13644050Y-60684485D01*
X13644050Y-59098485D01*
X18241864Y-59098485D01*
X18241864Y-59256178D01*
X18272625Y-59410821D01*
X18272628Y-59410833D01*
X18332966Y-59556504D01*
X18332973Y-59556517D01*
X18420574Y-59687620D01*
X18420577Y-59687624D01*
X18532071Y-59799118D01*
X18532075Y-59799121D01*
X18663178Y-59886722D01*
X18663191Y-59886729D01*
X18808862Y-59947067D01*
X18808867Y-59947069D01*
X18963517Y-59977831D01*
X18963520Y-59977832D01*
X18963522Y-59977832D01*
X19121208Y-59977832D01*
X19121209Y-59977831D01*
X19275861Y-59947069D01*
X19421543Y-59886726D01*
X19552653Y-59799121D01*
X19664153Y-59687621D01*
X19751758Y-59556511D01*
X19812101Y-59410829D01*
X19814158Y-59400485D01*
X44361313Y-59400485D01*
X44361313Y-59558178D01*
X44392074Y-59712821D01*
X44392077Y-59712833D01*
X44452415Y-59858504D01*
X44452422Y-59858517D01*
X44540023Y-59989620D01*
X44540026Y-59989624D01*
X44651520Y-60101118D01*
X44651524Y-60101121D01*
X44782627Y-60188722D01*
X44782640Y-60188729D01*
X44909096Y-60241108D01*
X44928316Y-60249069D01*
X45082966Y-60279831D01*
X45082969Y-60279832D01*
X45082971Y-60279832D01*
X45240657Y-60279832D01*
X45240658Y-60279831D01*
X45395310Y-60249069D01*
X45540992Y-60188726D01*
X45672102Y-60101121D01*
X45783602Y-59989621D01*
X45871207Y-59858511D01*
X45931550Y-59712829D01*
X45962313Y-59558174D01*
X45962313Y-59400490D01*
X45962313Y-59400487D01*
X45962312Y-59400485D01*
X45956289Y-59370205D01*
X45931550Y-59245835D01*
X45931548Y-59245830D01*
X45871210Y-59100159D01*
X45871203Y-59100146D01*
X45783602Y-58969043D01*
X45783599Y-58969039D01*
X45672105Y-58857545D01*
X45672101Y-58857542D01*
X45540998Y-58769941D01*
X45540985Y-58769934D01*
X45395314Y-58709596D01*
X45395302Y-58709593D01*
X45240658Y-58678832D01*
X45240655Y-58678832D01*
X45082971Y-58678832D01*
X45082968Y-58678832D01*
X44928323Y-58709593D01*
X44928311Y-58709596D01*
X44782640Y-58769934D01*
X44782627Y-58769941D01*
X44651524Y-58857542D01*
X44651520Y-58857545D01*
X44540026Y-58969039D01*
X44540023Y-58969043D01*
X44452422Y-59100146D01*
X44452415Y-59100159D01*
X44392077Y-59245830D01*
X44392074Y-59245842D01*
X44361313Y-59400485D01*
X19814158Y-59400485D01*
X19814476Y-59398887D01*
X19820182Y-59370206D01*
X19820182Y-59370205D01*
X19842863Y-59256178D01*
X19842864Y-59256176D01*
X19842864Y-59098487D01*
X19842863Y-59098485D01*
X19836145Y-59064710D01*
X19812101Y-58943835D01*
X19786466Y-58881945D01*
X19751761Y-58798159D01*
X19751754Y-58798146D01*
X19664153Y-58667043D01*
X19664150Y-58667039D01*
X19552656Y-58555545D01*
X19552652Y-58555542D01*
X19421549Y-58467941D01*
X19421536Y-58467934D01*
X19275865Y-58407596D01*
X19275853Y-58407593D01*
X19121209Y-58376832D01*
X19121206Y-58376832D01*
X18963522Y-58376832D01*
X18963519Y-58376832D01*
X18808874Y-58407593D01*
X18808862Y-58407596D01*
X18663191Y-58467934D01*
X18663178Y-58467941D01*
X18532075Y-58555542D01*
X18532071Y-58555545D01*
X18420577Y-58667039D01*
X18420574Y-58667043D01*
X18332973Y-58798146D01*
X18332966Y-58798159D01*
X18272628Y-58943830D01*
X18272625Y-58943842D01*
X18241864Y-59098485D01*
X13644050Y-59098485D01*
X13644050Y-57105485D01*
X31621864Y-57105485D01*
X31621864Y-57263178D01*
X31652625Y-57417821D01*
X31652628Y-57417833D01*
X31712966Y-57563504D01*
X31712973Y-57563517D01*
X31800574Y-57694620D01*
X31800577Y-57694624D01*
X31912071Y-57806118D01*
X31912075Y-57806121D01*
X32043178Y-57893722D01*
X32043191Y-57893729D01*
X32188862Y-57954067D01*
X32188867Y-57954069D01*
X32343517Y-57984831D01*
X32343520Y-57984832D01*
X32343522Y-57984832D01*
X32501208Y-57984832D01*
X32501209Y-57984831D01*
X32655861Y-57954069D01*
X32801543Y-57893726D01*
X32932653Y-57806121D01*
X33044153Y-57694621D01*
X33131758Y-57563511D01*
X33192101Y-57417829D01*
X33222864Y-57263174D01*
X33222864Y-57105490D01*
X33222864Y-57105487D01*
X33222863Y-57105485D01*
X33219394Y-57088045D01*
X33192101Y-56950835D01*
X33184239Y-56931855D01*
X33131761Y-56805159D01*
X33131754Y-56805146D01*
X33044153Y-56674043D01*
X33044150Y-56674039D01*
X32932656Y-56562545D01*
X32932652Y-56562542D01*
X32801549Y-56474941D01*
X32801536Y-56474934D01*
X32655865Y-56414596D01*
X32655853Y-56414593D01*
X32501209Y-56383832D01*
X32501206Y-56383832D01*
X32343522Y-56383832D01*
X32343519Y-56383832D01*
X32188874Y-56414593D01*
X32188862Y-56414596D01*
X32043191Y-56474934D01*
X32043178Y-56474941D01*
X31912075Y-56562542D01*
X31912071Y-56562545D01*
X31800577Y-56674039D01*
X31800574Y-56674043D01*
X31712973Y-56805146D01*
X31712966Y-56805159D01*
X31652628Y-56950830D01*
X31652625Y-56950842D01*
X31621864Y-57105485D01*
X13644050Y-57105485D01*
X13644050Y-54433485D01*
X24691864Y-54433485D01*
X24691864Y-54591178D01*
X24722625Y-54745821D01*
X24722628Y-54745833D01*
X24782966Y-54891504D01*
X24782973Y-54891517D01*
X24870574Y-55022620D01*
X24870577Y-55022624D01*
X24982071Y-55134118D01*
X24982075Y-55134121D01*
X25113178Y-55221722D01*
X25113191Y-55221729D01*
X25258862Y-55282067D01*
X25258867Y-55282069D01*
X25413517Y-55312831D01*
X25413520Y-55312832D01*
X25413522Y-55312832D01*
X25571208Y-55312832D01*
X25571209Y-55312831D01*
X25725861Y-55282069D01*
X25871543Y-55221726D01*
X26002653Y-55134121D01*
X26114153Y-55022621D01*
X26201758Y-54891511D01*
X26203922Y-54886288D01*
X26249719Y-54775722D01*
X26262101Y-54745829D01*
X26292864Y-54591174D01*
X26292864Y-54433490D01*
X26292864Y-54433487D01*
X26269346Y-54315258D01*
X26265745Y-54297153D01*
X38330500Y-54297153D01*
X38330500Y-54454846D01*
X38361261Y-54609489D01*
X38361264Y-54609501D01*
X38421602Y-54755172D01*
X38421609Y-54755185D01*
X38509210Y-54886288D01*
X38509213Y-54886292D01*
X38620707Y-54997786D01*
X38620711Y-54997789D01*
X38751814Y-55085390D01*
X38751827Y-55085397D01*
X38869452Y-55134118D01*
X38897503Y-55145737D01*
X39052153Y-55176499D01*
X39052156Y-55176500D01*
X39052158Y-55176500D01*
X39209844Y-55176500D01*
X39209845Y-55176499D01*
X39364497Y-55145737D01*
X39510179Y-55085394D01*
X39641289Y-54997789D01*
X39752789Y-54886289D01*
X39840394Y-54755179D01*
X39900737Y-54609497D01*
X39931500Y-54454842D01*
X39931500Y-54297158D01*
X39931500Y-54297155D01*
X39931499Y-54297153D01*
X39900738Y-54142510D01*
X39900737Y-54142503D01*
X39888226Y-54112298D01*
X39840397Y-53996827D01*
X39840390Y-53996814D01*
X39752789Y-53865711D01*
X39752786Y-53865707D01*
X39641292Y-53754213D01*
X39641288Y-53754210D01*
X39510185Y-53666609D01*
X39510172Y-53666602D01*
X39364501Y-53606264D01*
X39364489Y-53606261D01*
X39209845Y-53575500D01*
X39209842Y-53575500D01*
X39052158Y-53575500D01*
X39052155Y-53575500D01*
X38897510Y-53606261D01*
X38897498Y-53606264D01*
X38751827Y-53666602D01*
X38751814Y-53666609D01*
X38620711Y-53754210D01*
X38620707Y-53754213D01*
X38509213Y-53865707D01*
X38509210Y-53865711D01*
X38421609Y-53996814D01*
X38421602Y-53996827D01*
X38361264Y-54142498D01*
X38361261Y-54142510D01*
X38330500Y-54297153D01*
X26265745Y-54297153D01*
X26262101Y-54278835D01*
X26201884Y-54133457D01*
X26201761Y-54133159D01*
X26201754Y-54133146D01*
X26114153Y-54002043D01*
X26114150Y-54002039D01*
X26002656Y-53890545D01*
X26002652Y-53890542D01*
X25871549Y-53802941D01*
X25871536Y-53802934D01*
X25725865Y-53742596D01*
X25725853Y-53742593D01*
X25571209Y-53711832D01*
X25571206Y-53711832D01*
X25413522Y-53711832D01*
X25413519Y-53711832D01*
X25258874Y-53742593D01*
X25258862Y-53742596D01*
X25113191Y-53802934D01*
X25113178Y-53802941D01*
X24982075Y-53890542D01*
X24982071Y-53890545D01*
X24870577Y-54002039D01*
X24870574Y-54002043D01*
X24782973Y-54133146D01*
X24782966Y-54133159D01*
X24722628Y-54278830D01*
X24722625Y-54278842D01*
X24691864Y-54433485D01*
X13644050Y-54433485D01*
X13644050Y-51968153D01*
X41478500Y-51968153D01*
X41478500Y-52125846D01*
X41509261Y-52280489D01*
X41509264Y-52280501D01*
X41569602Y-52426172D01*
X41569609Y-52426185D01*
X41657210Y-52557288D01*
X41657213Y-52557292D01*
X41768707Y-52668786D01*
X41768711Y-52668789D01*
X41899814Y-52756390D01*
X41899827Y-52756397D01*
X42043236Y-52815798D01*
X42045503Y-52816737D01*
X42200153Y-52847499D01*
X42200156Y-52847500D01*
X42200158Y-52847500D01*
X42357844Y-52847500D01*
X42357845Y-52847499D01*
X42512497Y-52816737D01*
X42658179Y-52756394D01*
X42789289Y-52668789D01*
X42900789Y-52557289D01*
X42988394Y-52426179D01*
X43048737Y-52280497D01*
X43079500Y-52125842D01*
X43079500Y-51968158D01*
X43079500Y-51968155D01*
X43079499Y-51968153D01*
X43057119Y-51855643D01*
X43048737Y-51813503D01*
X43038100Y-51787822D01*
X42988397Y-51667827D01*
X42988390Y-51667814D01*
X42900789Y-51536711D01*
X42900786Y-51536707D01*
X42789292Y-51425213D01*
X42789288Y-51425210D01*
X42658185Y-51337609D01*
X42658172Y-51337602D01*
X42512501Y-51277264D01*
X42512489Y-51277261D01*
X42357845Y-51246500D01*
X42357842Y-51246500D01*
X42200158Y-51246500D01*
X42200155Y-51246500D01*
X42045510Y-51277261D01*
X42045498Y-51277264D01*
X41899827Y-51337602D01*
X41899814Y-51337609D01*
X41768711Y-51425210D01*
X41768707Y-51425213D01*
X41657213Y-51536707D01*
X41657210Y-51536711D01*
X41569609Y-51667814D01*
X41569602Y-51667827D01*
X41509264Y-51813498D01*
X41509261Y-51813510D01*
X41478500Y-51968153D01*
X13644050Y-51968153D01*
X13644050Y-45009153D01*
X32076500Y-45009153D01*
X32076500Y-45166846D01*
X32107261Y-45321489D01*
X32107264Y-45321501D01*
X32167602Y-45467172D01*
X32167609Y-45467185D01*
X32255210Y-45598288D01*
X32255213Y-45598292D01*
X32366707Y-45709786D01*
X32366711Y-45709789D01*
X32497814Y-45797390D01*
X32497827Y-45797397D01*
X32643498Y-45857735D01*
X32643503Y-45857737D01*
X32798153Y-45888499D01*
X32798156Y-45888500D01*
X32798158Y-45888500D01*
X32955844Y-45888500D01*
X32955845Y-45888499D01*
X33110497Y-45857737D01*
X33256179Y-45797394D01*
X33387289Y-45709789D01*
X33498789Y-45598289D01*
X33586394Y-45467179D01*
X33646737Y-45321497D01*
X33677500Y-45166842D01*
X33677500Y-45009158D01*
X33677500Y-45009155D01*
X33677499Y-45009153D01*
X33675090Y-44997041D01*
X33646737Y-44854503D01*
X33631916Y-44818722D01*
X33586397Y-44708827D01*
X33586390Y-44708814D01*
X33498789Y-44577711D01*
X33498786Y-44577707D01*
X33387292Y-44466213D01*
X33387288Y-44466210D01*
X33256185Y-44378609D01*
X33256172Y-44378602D01*
X33110501Y-44318264D01*
X33110489Y-44318261D01*
X32955845Y-44287500D01*
X32955842Y-44287500D01*
X32798158Y-44287500D01*
X32798155Y-44287500D01*
X32643510Y-44318261D01*
X32643498Y-44318264D01*
X32497827Y-44378602D01*
X32497814Y-44378609D01*
X32366711Y-44466210D01*
X32366707Y-44466213D01*
X32255213Y-44577707D01*
X32255210Y-44577711D01*
X32167609Y-44708814D01*
X32167602Y-44708827D01*
X32107264Y-44854498D01*
X32107261Y-44854510D01*
X32076500Y-45009153D01*
X13644050Y-45009153D01*
X13644050Y-41275947D01*
X29093000Y-41275947D01*
X29093000Y-41512052D01*
X29129934Y-41745247D01*
X29202897Y-41969802D01*
X29310087Y-42180174D01*
X29370338Y-42263104D01*
X29370340Y-42263105D01*
X30069212Y-41564233D01*
X30080482Y-41606292D01*
X30152890Y-41731708D01*
X30255292Y-41834110D01*
X30380708Y-41906518D01*
X30422765Y-41917787D01*
X29723893Y-42616658D01*
X29806828Y-42676914D01*
X30017197Y-42784102D01*
X30241752Y-42857065D01*
X30241751Y-42857065D01*
X30474948Y-42894000D01*
X30711052Y-42894000D01*
X30944247Y-42857065D01*
X31168802Y-42784102D01*
X31379163Y-42676918D01*
X31379169Y-42676914D01*
X31462104Y-42616658D01*
X31462105Y-42616658D01*
X30763233Y-41917787D01*
X30805292Y-41906518D01*
X30930708Y-41834110D01*
X31033110Y-41731708D01*
X31105518Y-41606292D01*
X31116787Y-41564233D01*
X31815658Y-42263105D01*
X31815658Y-42263104D01*
X31875914Y-42180169D01*
X31875918Y-42180163D01*
X31983102Y-41969802D01*
X32056065Y-41745247D01*
X32093000Y-41512052D01*
X32093000Y-41275947D01*
X32092993Y-41275902D01*
X33592500Y-41275902D01*
X33592500Y-41512097D01*
X33629446Y-41745368D01*
X33702433Y-41969996D01*
X33775358Y-42113118D01*
X33809657Y-42180433D01*
X33948483Y-42371510D01*
X34115490Y-42538517D01*
X34306567Y-42677343D01*
X34405991Y-42728002D01*
X34517003Y-42784566D01*
X34517005Y-42784566D01*
X34517008Y-42784568D01*
X34637412Y-42823689D01*
X34741631Y-42857553D01*
X34974903Y-42894500D01*
X34974908Y-42894500D01*
X35211097Y-42894500D01*
X35444368Y-42857553D01*
X35445870Y-42857065D01*
X35668992Y-42784568D01*
X35879433Y-42677343D01*
X36070510Y-42538517D01*
X36237517Y-42371510D01*
X36376343Y-42180433D01*
X36483568Y-41969992D01*
X36556553Y-41745368D01*
X36570843Y-41655144D01*
X36593500Y-41512097D01*
X36593500Y-41275902D01*
X36556553Y-41042631D01*
X36483566Y-40818003D01*
X36376477Y-40607830D01*
X36376343Y-40607567D01*
X36237517Y-40416490D01*
X36070510Y-40249483D01*
X35879433Y-40110657D01*
X35668996Y-40003433D01*
X35458680Y-39935097D01*
X35444368Y-39930446D01*
X35211097Y-39893500D01*
X35211092Y-39893500D01*
X34974908Y-39893500D01*
X34974903Y-39893500D01*
X34741631Y-39930446D01*
X34517003Y-40003433D01*
X34306566Y-40110657D01*
X34197550Y-40189862D01*
X34115490Y-40249483D01*
X34115488Y-40249485D01*
X34115487Y-40249485D01*
X33948485Y-40416487D01*
X33948485Y-40416488D01*
X33948483Y-40416490D01*
X33922663Y-40452028D01*
X33809657Y-40607566D01*
X33702433Y-40818003D01*
X33629446Y-41042631D01*
X33592500Y-41275902D01*
X32092993Y-41275902D01*
X32056065Y-41042752D01*
X31983102Y-40818197D01*
X31875914Y-40607828D01*
X31815658Y-40524894D01*
X31815658Y-40524893D01*
X31116787Y-41223765D01*
X31105518Y-41181708D01*
X31033110Y-41056292D01*
X30930708Y-40953890D01*
X30805292Y-40881482D01*
X30763234Y-40870212D01*
X31462105Y-40171340D01*
X31462104Y-40171338D01*
X31379174Y-40111087D01*
X31168802Y-40003897D01*
X30944247Y-39930934D01*
X30944248Y-39930934D01*
X30711052Y-39894000D01*
X30474948Y-39894000D01*
X30241752Y-39930934D01*
X30017197Y-40003897D01*
X29806830Y-40111084D01*
X29723894Y-40171340D01*
X30422766Y-40870212D01*
X30380708Y-40881482D01*
X30255292Y-40953890D01*
X30152890Y-41056292D01*
X30080482Y-41181708D01*
X30069212Y-41223766D01*
X29370340Y-40524894D01*
X29310084Y-40607830D01*
X29202897Y-40818197D01*
X29129934Y-41042752D01*
X29093000Y-41275947D01*
X13644050Y-41275947D01*
X13644050Y-38000602D01*
X15380500Y-38000602D01*
X15380500Y-38269397D01*
X15415582Y-38535880D01*
X15415583Y-38535885D01*
X15415584Y-38535891D01*
X15415585Y-38535893D01*
X15485152Y-38795524D01*
X15588011Y-39043850D01*
X15588019Y-39043866D01*
X15668830Y-39183832D01*
X15722413Y-39276641D01*
X15722415Y-39276644D01*
X15722416Y-39276645D01*
X15886042Y-39489888D01*
X15886048Y-39489895D01*
X16076104Y-39679951D01*
X16076110Y-39679956D01*
X16289359Y-39843587D01*
X16423629Y-39921108D01*
X16522133Y-39977980D01*
X16522149Y-39977988D01*
X16677008Y-40042132D01*
X16770474Y-40080847D01*
X17030109Y-40150416D01*
X17218319Y-40175193D01*
X17296602Y-40185500D01*
X17296603Y-40185500D01*
X17565398Y-40185500D01*
X17625905Y-40177534D01*
X17831891Y-40150416D01*
X18091526Y-40080847D01*
X18278457Y-40003417D01*
X18339850Y-39977988D01*
X18339853Y-39977986D01*
X18339859Y-39977984D01*
X18572641Y-39843587D01*
X18602970Y-39820315D01*
X47527864Y-39820315D01*
X47527864Y-41020333D01*
X47527865Y-41020350D01*
X47538364Y-41123128D01*
X47538365Y-41123131D01*
X47574683Y-41232730D01*
X47593550Y-41289666D01*
X47685652Y-41438988D01*
X47809708Y-41563044D01*
X47959030Y-41655146D01*
X48040934Y-41682286D01*
X48098379Y-41722059D01*
X48125202Y-41786575D01*
X48112887Y-41855350D01*
X48074815Y-41900310D01*
X47981151Y-41968360D01*
X47981146Y-41968364D01*
X47836392Y-42113118D01*
X47716079Y-42278718D01*
X47623145Y-42461108D01*
X47559886Y-42655797D01*
X47527864Y-42857980D01*
X47527864Y-43062683D01*
X47559886Y-43264866D01*
X47623145Y-43459555D01*
X47716079Y-43641945D01*
X47836392Y-43807545D01*
X47981150Y-43952303D01*
X48136113Y-44064888D01*
X48146754Y-44072619D01*
X48238204Y-44119215D01*
X48239444Y-44119847D01*
X48290240Y-44167822D01*
X48307035Y-44235643D01*
X48284498Y-44301778D01*
X48239444Y-44340817D01*
X48146750Y-44388047D01*
X47981150Y-44508360D01*
X47836392Y-44653118D01*
X47716079Y-44818718D01*
X47623145Y-45001108D01*
X47559886Y-45195797D01*
X47527864Y-45397980D01*
X47527864Y-45602683D01*
X47559886Y-45804866D01*
X47623145Y-45999555D01*
X47716079Y-46181945D01*
X47836392Y-46347545D01*
X47981150Y-46492303D01*
X48136113Y-46604888D01*
X48146754Y-46612619D01*
X48238204Y-46659215D01*
X48239444Y-46659847D01*
X48290240Y-46707822D01*
X48307035Y-46775643D01*
X48284498Y-46841778D01*
X48239444Y-46880817D01*
X48146750Y-46928047D01*
X47981150Y-47048360D01*
X47836392Y-47193118D01*
X47716079Y-47358718D01*
X47623145Y-47541108D01*
X47559886Y-47735797D01*
X47527864Y-47937980D01*
X47527864Y-48142683D01*
X47559886Y-48344866D01*
X47623145Y-48539555D01*
X47716079Y-48721945D01*
X47836392Y-48887545D01*
X47981150Y-49032303D01*
X48136113Y-49144888D01*
X48146754Y-49152619D01*
X48238204Y-49199215D01*
X48239444Y-49199847D01*
X48290240Y-49247822D01*
X48307035Y-49315643D01*
X48284498Y-49381778D01*
X48239444Y-49420817D01*
X48146750Y-49468047D01*
X47981150Y-49588360D01*
X47836392Y-49733118D01*
X47716079Y-49898718D01*
X47623145Y-50081108D01*
X47559886Y-50275797D01*
X47527864Y-50477980D01*
X47527864Y-50682683D01*
X47559886Y-50884866D01*
X47623145Y-51079555D01*
X47716079Y-51261945D01*
X47836392Y-51427545D01*
X47981150Y-51572303D01*
X48112622Y-51667821D01*
X48146754Y-51692619D01*
X48238204Y-51739215D01*
X48239444Y-51739847D01*
X48290240Y-51787822D01*
X48307035Y-51855643D01*
X48284498Y-51921778D01*
X48239444Y-51960817D01*
X48146750Y-52008047D01*
X47981150Y-52128360D01*
X47836392Y-52273118D01*
X47716079Y-52438718D01*
X47623145Y-52621108D01*
X47559886Y-52815797D01*
X47527864Y-53017980D01*
X47527864Y-53222683D01*
X47559886Y-53424866D01*
X47623145Y-53619555D01*
X47685837Y-53742593D01*
X47716076Y-53801941D01*
X47716079Y-53801945D01*
X47836392Y-53967545D01*
X47981150Y-54112303D01*
X48136113Y-54224888D01*
X48146754Y-54232619D01*
X48237448Y-54278830D01*
X48239444Y-54279847D01*
X48290240Y-54327822D01*
X48307035Y-54395643D01*
X48284498Y-54461778D01*
X48239444Y-54500817D01*
X48146750Y-54548047D01*
X47981150Y-54668360D01*
X47836392Y-54813118D01*
X47716079Y-54978718D01*
X47623145Y-55161108D01*
X47559886Y-55355797D01*
X47527864Y-55557980D01*
X47527864Y-55762683D01*
X47559886Y-55964866D01*
X47623145Y-56159555D01*
X47716079Y-56341945D01*
X47836392Y-56507545D01*
X47981150Y-56652303D01*
X48136113Y-56764888D01*
X48146754Y-56772619D01*
X48238204Y-56819215D01*
X48239444Y-56819847D01*
X48290240Y-56867822D01*
X48307035Y-56935643D01*
X48284498Y-57001778D01*
X48239444Y-57040817D01*
X48146750Y-57088047D01*
X47981150Y-57208360D01*
X47836392Y-57353118D01*
X47716079Y-57518718D01*
X47623145Y-57701108D01*
X47559886Y-57895797D01*
X47527864Y-58097980D01*
X47527864Y-58302683D01*
X47559886Y-58504866D01*
X47623145Y-58699555D01*
X47716079Y-58881945D01*
X47836392Y-59047545D01*
X47981150Y-59192303D01*
X48136113Y-59304888D01*
X48146754Y-59312619D01*
X48238204Y-59359215D01*
X48239444Y-59359847D01*
X48290240Y-59407822D01*
X48307035Y-59475643D01*
X48284498Y-59541778D01*
X48239444Y-59580817D01*
X48146750Y-59628047D01*
X47981150Y-59748360D01*
X47836392Y-59893118D01*
X47716079Y-60058718D01*
X47623145Y-60241108D01*
X47559886Y-60435797D01*
X47527864Y-60637980D01*
X47527864Y-60842683D01*
X47559886Y-61044866D01*
X47623145Y-61239555D01*
X47687055Y-61364985D01*
X47712971Y-61415847D01*
X47716079Y-61421945D01*
X47836392Y-61587545D01*
X47981150Y-61732303D01*
X48095815Y-61815610D01*
X48146754Y-61852619D01*
X48238204Y-61899215D01*
X48239444Y-61899847D01*
X48290240Y-61947822D01*
X48307035Y-62015643D01*
X48284498Y-62081778D01*
X48239444Y-62120817D01*
X48146750Y-62168047D01*
X47981150Y-62288360D01*
X47836392Y-62433118D01*
X47716079Y-62598718D01*
X47623145Y-62781108D01*
X47559886Y-62975797D01*
X47527864Y-63177980D01*
X47527864Y-63382683D01*
X47559886Y-63584866D01*
X47623145Y-63779555D01*
X47716079Y-63961945D01*
X47836392Y-64127545D01*
X47981150Y-64272303D01*
X48136113Y-64384888D01*
X48146754Y-64392619D01*
X48237505Y-64438859D01*
X48329140Y-64485550D01*
X48329142Y-64485550D01*
X48329145Y-64485552D01*
X48433501Y-64519459D01*
X48523829Y-64548809D01*
X48624921Y-64564820D01*
X48726012Y-64580832D01*
X48726013Y-64580832D01*
X48930715Y-64580832D01*
X48930716Y-64580832D01*
X49132898Y-64548809D01*
X49327583Y-64485552D01*
X49509974Y-64392619D01*
X49602954Y-64325064D01*
X49675577Y-64272303D01*
X49675579Y-64272300D01*
X49675583Y-64272298D01*
X49820330Y-64127551D01*
X49820332Y-64127547D01*
X49820335Y-64127545D01*
X49886973Y-64035824D01*
X49940651Y-63961942D01*
X50033584Y-63779551D01*
X50096841Y-63584866D01*
X50128864Y-63382684D01*
X50128864Y-63177980D01*
X50096841Y-62975798D01*
X50069802Y-62892582D01*
X50056557Y-62851818D01*
X50033584Y-62781113D01*
X50033582Y-62781110D01*
X50033582Y-62781108D01*
X49976056Y-62668208D01*
X49940651Y-62598722D01*
X49932920Y-62588081D01*
X49820335Y-62433118D01*
X49675577Y-62288360D01*
X49509978Y-62168047D01*
X49503370Y-62164680D01*
X49417281Y-62120815D01*
X49366487Y-62072843D01*
X49349692Y-62005022D01*
X49372229Y-61938887D01*
X49417281Y-61899848D01*
X49509974Y-61852619D01*
X49576367Y-61804382D01*
X49675577Y-61732303D01*
X49675579Y-61732300D01*
X49675583Y-61732298D01*
X49820330Y-61587551D01*
X49820332Y-61587547D01*
X49820335Y-61587545D01*
X49885607Y-61497704D01*
X49940651Y-61421942D01*
X50033584Y-61239551D01*
X50096841Y-61044866D01*
X50128864Y-60842684D01*
X50128864Y-60637980D01*
X50111735Y-60529835D01*
X50096841Y-60435797D01*
X50067491Y-60345469D01*
X50033584Y-60241113D01*
X50033582Y-60241110D01*
X50033582Y-60241108D01*
X49962254Y-60101121D01*
X49940651Y-60058722D01*
X49893334Y-59993595D01*
X49820335Y-59893118D01*
X49675577Y-59748360D01*
X49509978Y-59628047D01*
X49503370Y-59624680D01*
X49417281Y-59580815D01*
X49366487Y-59532843D01*
X49349692Y-59465022D01*
X49372229Y-59398887D01*
X49417281Y-59359848D01*
X49509974Y-59312619D01*
X49587665Y-59256174D01*
X49675577Y-59192303D01*
X49675579Y-59192300D01*
X49675583Y-59192298D01*
X49820330Y-59047551D01*
X49820332Y-59047547D01*
X49820335Y-59047545D01*
X49897994Y-58940655D01*
X49940651Y-58881942D01*
X50033584Y-58699551D01*
X50096841Y-58504866D01*
X50128864Y-58302684D01*
X50128864Y-58097980D01*
X50096841Y-57895798D01*
X50096166Y-57893722D01*
X50033582Y-57701108D01*
X49963472Y-57563511D01*
X49940651Y-57518722D01*
X49932920Y-57508081D01*
X49820335Y-57353118D01*
X49675577Y-57208360D01*
X49509978Y-57088047D01*
X49503370Y-57084680D01*
X49417281Y-57040815D01*
X49366487Y-56992843D01*
X49349692Y-56925022D01*
X49372229Y-56858887D01*
X49417281Y-56819848D01*
X49509974Y-56772619D01*
X49531134Y-56757245D01*
X49675577Y-56652303D01*
X49675579Y-56652300D01*
X49675583Y-56652298D01*
X49820330Y-56507551D01*
X49820332Y-56507547D01*
X49820335Y-56507545D01*
X49910216Y-56383832D01*
X49940651Y-56341942D01*
X50033584Y-56159551D01*
X50096841Y-55964866D01*
X50128864Y-55762684D01*
X50128864Y-55557980D01*
X50096841Y-55355798D01*
X50082880Y-55312832D01*
X50053277Y-55221722D01*
X50033584Y-55161113D01*
X50033582Y-55161110D01*
X50033582Y-55161108D01*
X49963020Y-55022624D01*
X49940651Y-54978722D01*
X49932920Y-54968081D01*
X49820335Y-54813118D01*
X49675577Y-54668360D01*
X49509978Y-54548047D01*
X49503370Y-54544680D01*
X49417281Y-54500815D01*
X49366487Y-54452843D01*
X49349692Y-54385022D01*
X49372229Y-54318887D01*
X49417281Y-54279848D01*
X49509974Y-54232619D01*
X49531134Y-54217245D01*
X49675577Y-54112303D01*
X49675579Y-54112300D01*
X49675583Y-54112298D01*
X49820330Y-53967551D01*
X49820332Y-53967547D01*
X49820335Y-53967545D01*
X49894323Y-53865707D01*
X49940651Y-53801942D01*
X50033584Y-53619551D01*
X50096841Y-53424866D01*
X50128864Y-53222684D01*
X50128864Y-53017980D01*
X50096841Y-52815797D01*
X50033582Y-52621108D01*
X49968609Y-52493593D01*
X49940651Y-52438722D01*
X49918541Y-52408290D01*
X49820335Y-52273118D01*
X49675577Y-52128360D01*
X49509978Y-52008047D01*
X49431691Y-51968158D01*
X49417281Y-51960815D01*
X49366487Y-51912843D01*
X49349692Y-51845022D01*
X49372229Y-51778887D01*
X49417281Y-51739848D01*
X49509974Y-51692619D01*
X49544106Y-51667821D01*
X49675577Y-51572303D01*
X49675579Y-51572300D01*
X49675583Y-51572298D01*
X49820330Y-51427551D01*
X49820332Y-51427547D01*
X49820335Y-51427545D01*
X49885681Y-51337602D01*
X49940651Y-51261942D01*
X50033584Y-51079551D01*
X50096841Y-50884866D01*
X50128864Y-50682684D01*
X50128864Y-50477980D01*
X50096841Y-50275798D01*
X50096131Y-50273614D01*
X50033582Y-50081108D01*
X49999867Y-50014939D01*
X49940651Y-49898722D01*
X49927147Y-49880135D01*
X49820335Y-49733118D01*
X49675577Y-49588360D01*
X49509978Y-49468047D01*
X49503370Y-49464680D01*
X49417281Y-49420815D01*
X49366487Y-49372843D01*
X49349692Y-49305022D01*
X49372229Y-49238887D01*
X49417281Y-49199848D01*
X49509974Y-49152619D01*
X49531134Y-49137245D01*
X49675577Y-49032303D01*
X49675579Y-49032300D01*
X49675583Y-49032298D01*
X49820330Y-48887551D01*
X49820332Y-48887547D01*
X49820335Y-48887545D01*
X49873096Y-48814922D01*
X49940651Y-48721942D01*
X50033584Y-48539551D01*
X50096841Y-48344866D01*
X50128864Y-48142684D01*
X50128864Y-47937980D01*
X50096841Y-47735798D01*
X50033584Y-47541113D01*
X50033582Y-47541110D01*
X50033582Y-47541108D01*
X49984343Y-47444472D01*
X49940651Y-47358722D01*
X49932920Y-47348081D01*
X49820335Y-47193118D01*
X49675577Y-47048360D01*
X49509978Y-46928047D01*
X49503370Y-46924680D01*
X49417281Y-46880815D01*
X49366487Y-46832843D01*
X49349692Y-46765022D01*
X49372229Y-46698887D01*
X49417281Y-46659848D01*
X49509974Y-46612619D01*
X49531134Y-46597245D01*
X49675577Y-46492303D01*
X49675579Y-46492300D01*
X49675583Y-46492298D01*
X49820330Y-46347551D01*
X49820332Y-46347547D01*
X49820335Y-46347545D01*
X49873096Y-46274922D01*
X49940651Y-46181942D01*
X50033584Y-45999551D01*
X50096841Y-45804866D01*
X50128864Y-45602684D01*
X50128864Y-45397980D01*
X50116749Y-45321489D01*
X50096841Y-45195797D01*
X50033582Y-45001108D01*
X49999867Y-44934939D01*
X49940651Y-44818722D01*
X49932920Y-44808081D01*
X49820335Y-44653118D01*
X49675577Y-44508360D01*
X49509978Y-44388047D01*
X49491441Y-44378602D01*
X49417281Y-44340815D01*
X49366487Y-44292843D01*
X49349692Y-44225022D01*
X49372229Y-44158887D01*
X49417281Y-44119848D01*
X49509974Y-44072619D01*
X49531134Y-44057245D01*
X49675577Y-43952303D01*
X49675579Y-43952300D01*
X49675583Y-43952298D01*
X49820330Y-43807551D01*
X49820332Y-43807547D01*
X49820335Y-43807545D01*
X49873096Y-43734922D01*
X49940651Y-43641942D01*
X50033584Y-43459551D01*
X50096841Y-43264866D01*
X50128864Y-43062684D01*
X50128864Y-42857980D01*
X50120929Y-42807884D01*
X50096841Y-42655797D01*
X50033582Y-42461108D01*
X49957759Y-42312299D01*
X49940651Y-42278722D01*
X49929304Y-42263104D01*
X49820335Y-42113118D01*
X49675583Y-41968366D01*
X49640971Y-41943219D01*
X49581911Y-41900310D01*
X49539246Y-41844981D01*
X49533267Y-41775368D01*
X49565872Y-41713572D01*
X49615790Y-41682287D01*
X49697698Y-41655146D01*
X49847020Y-41563044D01*
X49971076Y-41438988D01*
X50063178Y-41289666D01*
X50118363Y-41123129D01*
X50128864Y-41020341D01*
X50128863Y-40317980D01*
X55147864Y-40317980D01*
X55147864Y-40522683D01*
X55179886Y-40724866D01*
X55243145Y-40919555D01*
X55336079Y-41101945D01*
X55456392Y-41267545D01*
X55601150Y-41412303D01*
X55756113Y-41524888D01*
X55766754Y-41532619D01*
X55858204Y-41579215D01*
X55859444Y-41579847D01*
X55910240Y-41627822D01*
X55927035Y-41695643D01*
X55904498Y-41761778D01*
X55859444Y-41800817D01*
X55766750Y-41848047D01*
X55601150Y-41968360D01*
X55456392Y-42113118D01*
X55336079Y-42278718D01*
X55243145Y-42461108D01*
X55179886Y-42655797D01*
X55147864Y-42857980D01*
X55147864Y-43062683D01*
X55179886Y-43264866D01*
X55243145Y-43459555D01*
X55336079Y-43641945D01*
X55456392Y-43807545D01*
X55601150Y-43952303D01*
X55756113Y-44064888D01*
X55766754Y-44072619D01*
X55858204Y-44119215D01*
X55859444Y-44119847D01*
X55910240Y-44167822D01*
X55927035Y-44235643D01*
X55904498Y-44301778D01*
X55859444Y-44340817D01*
X55766750Y-44388047D01*
X55601150Y-44508360D01*
X55456392Y-44653118D01*
X55336079Y-44818718D01*
X55243145Y-45001108D01*
X55179886Y-45195797D01*
X55147864Y-45397980D01*
X55147864Y-45602683D01*
X55179886Y-45804866D01*
X55243145Y-45999555D01*
X55336079Y-46181945D01*
X55456392Y-46347545D01*
X55601150Y-46492303D01*
X55756113Y-46604888D01*
X55766754Y-46612619D01*
X55858204Y-46659215D01*
X55859444Y-46659847D01*
X55910240Y-46707822D01*
X55927035Y-46775643D01*
X55904498Y-46841778D01*
X55859444Y-46880817D01*
X55766750Y-46928047D01*
X55601150Y-47048360D01*
X55456392Y-47193118D01*
X55336079Y-47358718D01*
X55243145Y-47541108D01*
X55179886Y-47735797D01*
X55147864Y-47937980D01*
X55147864Y-48142683D01*
X55179886Y-48344866D01*
X55243145Y-48539555D01*
X55336079Y-48721945D01*
X55456392Y-48887545D01*
X55601150Y-49032303D01*
X55756113Y-49144888D01*
X55766754Y-49152619D01*
X55858204Y-49199215D01*
X55859444Y-49199847D01*
X55910240Y-49247822D01*
X55927035Y-49315643D01*
X55904498Y-49381778D01*
X55859444Y-49420817D01*
X55766750Y-49468047D01*
X55601150Y-49588360D01*
X55456392Y-49733118D01*
X55336079Y-49898718D01*
X55243145Y-50081108D01*
X55179886Y-50275797D01*
X55147864Y-50477980D01*
X55147864Y-50682683D01*
X55179886Y-50884866D01*
X55243145Y-51079555D01*
X55336079Y-51261945D01*
X55456392Y-51427545D01*
X55601150Y-51572303D01*
X55732622Y-51667821D01*
X55766754Y-51692619D01*
X55858204Y-51739215D01*
X55859444Y-51739847D01*
X55910240Y-51787822D01*
X55927035Y-51855643D01*
X55904498Y-51921778D01*
X55859444Y-51960817D01*
X55766750Y-52008047D01*
X55601150Y-52128360D01*
X55456392Y-52273118D01*
X55336079Y-52438718D01*
X55243145Y-52621108D01*
X55179886Y-52815797D01*
X55147864Y-53017980D01*
X55147864Y-53222683D01*
X55179886Y-53424866D01*
X55243145Y-53619555D01*
X55305837Y-53742593D01*
X55336076Y-53801941D01*
X55336079Y-53801945D01*
X55456392Y-53967545D01*
X55601150Y-54112303D01*
X55756113Y-54224888D01*
X55766754Y-54232619D01*
X55857448Y-54278830D01*
X55859444Y-54279847D01*
X55910240Y-54327822D01*
X55927035Y-54395643D01*
X55904498Y-54461778D01*
X55859444Y-54500817D01*
X55766750Y-54548047D01*
X55601150Y-54668360D01*
X55456392Y-54813118D01*
X55336079Y-54978718D01*
X55243145Y-55161108D01*
X55179886Y-55355797D01*
X55147864Y-55557980D01*
X55147864Y-55762683D01*
X55179886Y-55964866D01*
X55243145Y-56159555D01*
X55336079Y-56341945D01*
X55456392Y-56507545D01*
X55601150Y-56652303D01*
X55756113Y-56764888D01*
X55766754Y-56772619D01*
X55858204Y-56819215D01*
X55859444Y-56819847D01*
X55910240Y-56867822D01*
X55927035Y-56935643D01*
X55904498Y-57001778D01*
X55859444Y-57040817D01*
X55766750Y-57088047D01*
X55601150Y-57208360D01*
X55456392Y-57353118D01*
X55336079Y-57518718D01*
X55243145Y-57701108D01*
X55179886Y-57895797D01*
X55147864Y-58097980D01*
X55147864Y-58302683D01*
X55179886Y-58504866D01*
X55243145Y-58699555D01*
X55336079Y-58881945D01*
X55456392Y-59047545D01*
X55601150Y-59192303D01*
X55756113Y-59304888D01*
X55766754Y-59312619D01*
X55858204Y-59359215D01*
X55859444Y-59359847D01*
X55910240Y-59407822D01*
X55927035Y-59475643D01*
X55904498Y-59541778D01*
X55859444Y-59580817D01*
X55766750Y-59628047D01*
X55601150Y-59748360D01*
X55456392Y-59893118D01*
X55336079Y-60058718D01*
X55243145Y-60241108D01*
X55179886Y-60435797D01*
X55147864Y-60637980D01*
X55147864Y-60842683D01*
X55179886Y-61044866D01*
X55243145Y-61239555D01*
X55307055Y-61364985D01*
X55332971Y-61415847D01*
X55336079Y-61421945D01*
X55456392Y-61587545D01*
X55601150Y-61732303D01*
X55715815Y-61815610D01*
X55766754Y-61852619D01*
X55858204Y-61899215D01*
X55859444Y-61899847D01*
X55910240Y-61947822D01*
X55927035Y-62015643D01*
X55904498Y-62081778D01*
X55859444Y-62120817D01*
X55766750Y-62168047D01*
X55601150Y-62288360D01*
X55456392Y-62433118D01*
X55336079Y-62598718D01*
X55243145Y-62781108D01*
X55179886Y-62975797D01*
X55147864Y-63177980D01*
X55147864Y-63382683D01*
X55179886Y-63584866D01*
X55243145Y-63779555D01*
X55336079Y-63961945D01*
X55456392Y-64127545D01*
X55601150Y-64272303D01*
X55756113Y-64384888D01*
X55766754Y-64392619D01*
X55857505Y-64438859D01*
X55949140Y-64485550D01*
X55949142Y-64485550D01*
X55949145Y-64485552D01*
X56053501Y-64519459D01*
X56143829Y-64548809D01*
X56244921Y-64564820D01*
X56346012Y-64580832D01*
X56346013Y-64580832D01*
X56550715Y-64580832D01*
X56550716Y-64580832D01*
X56752898Y-64548809D01*
X56947583Y-64485552D01*
X57129974Y-64392619D01*
X57222954Y-64325064D01*
X57295577Y-64272303D01*
X57295579Y-64272300D01*
X57295583Y-64272298D01*
X57440330Y-64127551D01*
X57440332Y-64127547D01*
X57440335Y-64127545D01*
X57506973Y-64035824D01*
X57560651Y-63961942D01*
X57653584Y-63779551D01*
X57716841Y-63584866D01*
X57748864Y-63382684D01*
X57748864Y-63177980D01*
X57716841Y-62975798D01*
X57689802Y-62892582D01*
X57676557Y-62851818D01*
X57653584Y-62781113D01*
X57653582Y-62781110D01*
X57653582Y-62781108D01*
X57596056Y-62668208D01*
X57560651Y-62598722D01*
X57552920Y-62588081D01*
X57440335Y-62433118D01*
X57295577Y-62288360D01*
X57218646Y-62232467D01*
X64372364Y-62232467D01*
X64372364Y-64328202D01*
X64372365Y-64328208D01*
X64378772Y-64387815D01*
X64429066Y-64522660D01*
X64429070Y-64522667D01*
X64515316Y-64637876D01*
X64515319Y-64637879D01*
X64630528Y-64724125D01*
X64630535Y-64724129D01*
X64765381Y-64774423D01*
X64765380Y-64774423D01*
X64772308Y-64775167D01*
X64824991Y-64780832D01*
X66825736Y-64780831D01*
X66885347Y-64774423D01*
X67020195Y-64724128D01*
X67135410Y-64637878D01*
X67221660Y-64522663D01*
X67232054Y-64494792D01*
X67273924Y-64438859D01*
X67339387Y-64414440D01*
X67407661Y-64429290D01*
X67421110Y-64437797D01*
X67603826Y-64570549D01*
X67690976Y-64614954D01*
X67807608Y-64674381D01*
X68025115Y-64745053D01*
X68025116Y-64745053D01*
X68025119Y-64745054D01*
X68251010Y-64780832D01*
X68251011Y-64780832D01*
X68479717Y-64780832D01*
X68479718Y-64780832D01*
X68705609Y-64745054D01*
X68705612Y-64745053D01*
X68705613Y-64745053D01*
X68923119Y-64674381D01*
X68923119Y-64674380D01*
X68923122Y-64674380D01*
X69126902Y-64570549D01*
X69311930Y-64436118D01*
X69473650Y-64274398D01*
X69535047Y-64189891D01*
X69590376Y-64147228D01*
X69659989Y-64141249D01*
X69721784Y-64173855D01*
X69735678Y-64189888D01*
X69797078Y-64274398D01*
X69958798Y-64436118D01*
X70143826Y-64570549D01*
X70230976Y-64614954D01*
X70347608Y-64674381D01*
X70565115Y-64745053D01*
X70565116Y-64745053D01*
X70565119Y-64745054D01*
X70791010Y-64780832D01*
X70791011Y-64780832D01*
X71019717Y-64780832D01*
X71019718Y-64780832D01*
X71245609Y-64745054D01*
X71245612Y-64745053D01*
X71245613Y-64745053D01*
X71463119Y-64674381D01*
X71463119Y-64674380D01*
X71463122Y-64674380D01*
X71666902Y-64570549D01*
X71851930Y-64436118D01*
X72013650Y-64274398D01*
X72148081Y-64089370D01*
X72251912Y-63885590D01*
X72322586Y-63668077D01*
X72358364Y-63442186D01*
X72358364Y-63118478D01*
X72322586Y-62892587D01*
X72322585Y-62892583D01*
X72322585Y-62892582D01*
X72251913Y-62675076D01*
X72213007Y-62598718D01*
X72148081Y-62471294D01*
X72013650Y-62286266D01*
X71959851Y-62232467D01*
X75004015Y-62232467D01*
X75004015Y-64328202D01*
X75004016Y-64328208D01*
X75010423Y-64387815D01*
X75060717Y-64522660D01*
X75060721Y-64522667D01*
X75146967Y-64637876D01*
X75146970Y-64637879D01*
X75262179Y-64724125D01*
X75262186Y-64724129D01*
X75397032Y-64774423D01*
X75397031Y-64774423D01*
X75403959Y-64775167D01*
X75456642Y-64780832D01*
X77457387Y-64780831D01*
X77516998Y-64774423D01*
X77651846Y-64724128D01*
X77767061Y-64637878D01*
X77853311Y-64522663D01*
X77863705Y-64494792D01*
X77905575Y-64438859D01*
X77971038Y-64414440D01*
X78039312Y-64429290D01*
X78052761Y-64437797D01*
X78235477Y-64570549D01*
X78322627Y-64614954D01*
X78439259Y-64674381D01*
X78656766Y-64745053D01*
X78656767Y-64745053D01*
X78656770Y-64745054D01*
X78882661Y-64780832D01*
X78882662Y-64780832D01*
X79111368Y-64780832D01*
X79111369Y-64780832D01*
X79337260Y-64745054D01*
X79337263Y-64745053D01*
X79337264Y-64745053D01*
X79554770Y-64674381D01*
X79554770Y-64674380D01*
X79554773Y-64674380D01*
X79758553Y-64570549D01*
X79943581Y-64436118D01*
X80105301Y-64274398D01*
X80166698Y-64189891D01*
X80222027Y-64147228D01*
X80291640Y-64141249D01*
X80353435Y-64173855D01*
X80367329Y-64189888D01*
X80428729Y-64274398D01*
X80590449Y-64436118D01*
X80775477Y-64570549D01*
X80862627Y-64614954D01*
X80979259Y-64674381D01*
X81196766Y-64745053D01*
X81196767Y-64745053D01*
X81196770Y-64745054D01*
X81422661Y-64780832D01*
X81422662Y-64780832D01*
X81651368Y-64780832D01*
X81651369Y-64780832D01*
X81877260Y-64745054D01*
X81877263Y-64745053D01*
X81877264Y-64745053D01*
X82094770Y-64674381D01*
X82094770Y-64674380D01*
X82094773Y-64674380D01*
X82298553Y-64570549D01*
X82483581Y-64436118D01*
X82645301Y-64274398D01*
X82779732Y-64089370D01*
X82883563Y-63885590D01*
X82909577Y-63805527D01*
X85191697Y-63805527D01*
X85230145Y-63998813D01*
X85230148Y-63998823D01*
X85305562Y-64180891D01*
X85305569Y-64180904D01*
X85415058Y-64344765D01*
X85415061Y-64344769D01*
X85554412Y-64484120D01*
X85554416Y-64484123D01*
X85718277Y-64593612D01*
X85718290Y-64593619D01*
X85825145Y-64637879D01*
X85900363Y-64669035D01*
X85900367Y-64669035D01*
X85900368Y-64669036D01*
X86093654Y-64707484D01*
X86093657Y-64707484D01*
X86290741Y-64707484D01*
X86457162Y-64674380D01*
X86484033Y-64669035D01*
X86666112Y-64593616D01*
X86674439Y-64588051D01*
X86741114Y-64567170D01*
X86808495Y-64585651D01*
X86812224Y-64588047D01*
X86818281Y-64592094D01*
X86818292Y-64592100D01*
X86928814Y-64637879D01*
X87000365Y-64667516D01*
X87000369Y-64667516D01*
X87000370Y-64667517D01*
X87193656Y-64705965D01*
X87193659Y-64705965D01*
X87390743Y-64705965D01*
X87520782Y-64680097D01*
X87584035Y-64667516D01*
X87762447Y-64593616D01*
X87769748Y-64590592D01*
X87839217Y-64583123D01*
X87864652Y-64590592D01*
X87871960Y-64593619D01*
X88050365Y-64667516D01*
X88050369Y-64667516D01*
X88050370Y-64667517D01*
X88243656Y-64705965D01*
X88243659Y-64705965D01*
X88440743Y-64705965D01*
X88570782Y-64680097D01*
X88634035Y-64667516D01*
X88812447Y-64593616D01*
X88816107Y-64592100D01*
X88816107Y-64592099D01*
X88816114Y-64592097D01*
X88979982Y-64482604D01*
X89119339Y-64343247D01*
X89228832Y-64179379D01*
X89304251Y-63997300D01*
X89326472Y-63885587D01*
X89342700Y-63804008D01*
X89342700Y-63606921D01*
X89304252Y-63413635D01*
X89304251Y-63413634D01*
X89304251Y-63413630D01*
X89291433Y-63382684D01*
X89228835Y-63231557D01*
X89228828Y-63231544D01*
X89150956Y-63115001D01*
X89130078Y-63048324D01*
X89148562Y-62980943D01*
X89150934Y-62977251D01*
X89235766Y-62850293D01*
X89311185Y-62668214D01*
X89325009Y-62598718D01*
X89349634Y-62474922D01*
X89349634Y-62277835D01*
X89311186Y-62084549D01*
X89311185Y-62084548D01*
X89311185Y-62084544D01*
X89291907Y-62038003D01*
X89235769Y-61902471D01*
X89235762Y-61902458D01*
X89126273Y-61738597D01*
X89126270Y-61738593D01*
X88986919Y-61599242D01*
X88986915Y-61599239D01*
X88823054Y-61489750D01*
X88823041Y-61489743D01*
X88640973Y-61414329D01*
X88640963Y-61414326D01*
X88447677Y-61375879D01*
X88447675Y-61375879D01*
X88250593Y-61375879D01*
X88250591Y-61375879D01*
X88057304Y-61414326D01*
X88057294Y-61414329D01*
X87871586Y-61491252D01*
X87802117Y-61498721D01*
X87776682Y-61491252D01*
X87590973Y-61414329D01*
X87590963Y-61414326D01*
X87397677Y-61375879D01*
X87397675Y-61375879D01*
X87200593Y-61375879D01*
X87200591Y-61375879D01*
X87007304Y-61414326D01*
X87007294Y-61414329D01*
X86825227Y-61489743D01*
X86825217Y-61489749D01*
X86816882Y-61495318D01*
X86750203Y-61516192D01*
X86682824Y-61497704D01*
X86679104Y-61495313D01*
X86673054Y-61491270D01*
X86673039Y-61491262D01*
X86490971Y-61415848D01*
X86490961Y-61415845D01*
X86297675Y-61377398D01*
X86297673Y-61377398D01*
X86100591Y-61377398D01*
X86100589Y-61377398D01*
X85907302Y-61415845D01*
X85907292Y-61415848D01*
X85725224Y-61491262D01*
X85725211Y-61491269D01*
X85561350Y-61600758D01*
X85561346Y-61600761D01*
X85421995Y-61740112D01*
X85421992Y-61740116D01*
X85312503Y-61903977D01*
X85312496Y-61903990D01*
X85237082Y-62086058D01*
X85237079Y-62086068D01*
X85198632Y-62279354D01*
X85198632Y-62279357D01*
X85198632Y-62476439D01*
X85198632Y-62476441D01*
X85198631Y-62476441D01*
X85237079Y-62669727D01*
X85237082Y-62669737D01*
X85312496Y-62851805D01*
X85312503Y-62851818D01*
X85390375Y-62968361D01*
X85411253Y-63035039D01*
X85392768Y-63102419D01*
X85390375Y-63106143D01*
X85305569Y-63233063D01*
X85305562Y-63233076D01*
X85230148Y-63415144D01*
X85230145Y-63415154D01*
X85191698Y-63608440D01*
X85191698Y-63608443D01*
X85191698Y-63805525D01*
X85191698Y-63805527D01*
X85191697Y-63805527D01*
X82909577Y-63805527D01*
X82954237Y-63668077D01*
X82990015Y-63442186D01*
X82990015Y-63118478D01*
X82954237Y-62892587D01*
X82954236Y-62892583D01*
X82954236Y-62892582D01*
X82883564Y-62675076D01*
X82844658Y-62598718D01*
X82779732Y-62471294D01*
X82645301Y-62286266D01*
X82483581Y-62124546D01*
X82298553Y-61990115D01*
X82094770Y-61886282D01*
X81877263Y-61815610D01*
X81691827Y-61786240D01*
X81651369Y-61779832D01*
X81422661Y-61779832D01*
X81382203Y-61786240D01*
X81196768Y-61815610D01*
X81196765Y-61815610D01*
X80979259Y-61886282D01*
X80775476Y-61990115D01*
X80709565Y-62038003D01*
X80590449Y-62124546D01*
X80590447Y-62124548D01*
X80590446Y-62124548D01*
X80428730Y-62286264D01*
X80367333Y-62370770D01*
X80312002Y-62413435D01*
X80242389Y-62419414D01*
X80180594Y-62386808D01*
X80166697Y-62370770D01*
X80155788Y-62355755D01*
X80105301Y-62286266D01*
X79943581Y-62124546D01*
X79758553Y-61990115D01*
X79554770Y-61886282D01*
X79337263Y-61815610D01*
X79151827Y-61786240D01*
X79111369Y-61779832D01*
X78882661Y-61779832D01*
X78842203Y-61786240D01*
X78656768Y-61815610D01*
X78656765Y-61815610D01*
X78439259Y-61886282D01*
X78235476Y-61990115D01*
X78052774Y-62122857D01*
X77986967Y-62146337D01*
X77918913Y-62130512D01*
X77870218Y-62080406D01*
X77863705Y-62065870D01*
X77853311Y-62038001D01*
X77853308Y-62037996D01*
X77767062Y-61922787D01*
X77767059Y-61922784D01*
X77651850Y-61836538D01*
X77651843Y-61836534D01*
X77516997Y-61786240D01*
X77516998Y-61786240D01*
X77457398Y-61779833D01*
X77457396Y-61779832D01*
X77457388Y-61779832D01*
X77457379Y-61779832D01*
X75456644Y-61779832D01*
X75456638Y-61779833D01*
X75397031Y-61786240D01*
X75262186Y-61836534D01*
X75262179Y-61836538D01*
X75146970Y-61922784D01*
X75146967Y-61922787D01*
X75060721Y-62037996D01*
X75060717Y-62038003D01*
X75010423Y-62172849D01*
X75004016Y-62232448D01*
X75004015Y-62232467D01*
X71959851Y-62232467D01*
X71851930Y-62124546D01*
X71666902Y-61990115D01*
X71463119Y-61886282D01*
X71245612Y-61815610D01*
X71060176Y-61786240D01*
X71019718Y-61779832D01*
X70791010Y-61779832D01*
X70750552Y-61786240D01*
X70565117Y-61815610D01*
X70565114Y-61815610D01*
X70347608Y-61886282D01*
X70143825Y-61990115D01*
X70077914Y-62038003D01*
X69958798Y-62124546D01*
X69958796Y-62124548D01*
X69958795Y-62124548D01*
X69797079Y-62286264D01*
X69735682Y-62370770D01*
X69680351Y-62413435D01*
X69610738Y-62419414D01*
X69548943Y-62386808D01*
X69535046Y-62370770D01*
X69524137Y-62355755D01*
X69473650Y-62286266D01*
X69311930Y-62124546D01*
X69126902Y-61990115D01*
X68923119Y-61886282D01*
X68705612Y-61815610D01*
X68520176Y-61786240D01*
X68479718Y-61779832D01*
X68251010Y-61779832D01*
X68210552Y-61786240D01*
X68025117Y-61815610D01*
X68025114Y-61815610D01*
X67807608Y-61886282D01*
X67603825Y-61990115D01*
X67421123Y-62122857D01*
X67355316Y-62146337D01*
X67287262Y-62130512D01*
X67238567Y-62080406D01*
X67232054Y-62065870D01*
X67221660Y-62038001D01*
X67221657Y-62037996D01*
X67135411Y-61922787D01*
X67135408Y-61922784D01*
X67020199Y-61836538D01*
X67020192Y-61836534D01*
X66885346Y-61786240D01*
X66885347Y-61786240D01*
X66825747Y-61779833D01*
X66825745Y-61779832D01*
X66825737Y-61779832D01*
X66825728Y-61779832D01*
X64824993Y-61779832D01*
X64824987Y-61779833D01*
X64765380Y-61786240D01*
X64630535Y-61836534D01*
X64630528Y-61836538D01*
X64515319Y-61922784D01*
X64515316Y-61922787D01*
X64429070Y-62037996D01*
X64429066Y-62038003D01*
X64378772Y-62172849D01*
X64372365Y-62232448D01*
X64372364Y-62232467D01*
X57218646Y-62232467D01*
X57129978Y-62168047D01*
X57123370Y-62164680D01*
X57037281Y-62120815D01*
X56986487Y-62072843D01*
X56969692Y-62005022D01*
X56992229Y-61938887D01*
X57037281Y-61899848D01*
X57129974Y-61852619D01*
X57196367Y-61804382D01*
X57295577Y-61732303D01*
X57295579Y-61732300D01*
X57295583Y-61732298D01*
X57440330Y-61587551D01*
X57440332Y-61587547D01*
X57440335Y-61587545D01*
X57505607Y-61497704D01*
X57560651Y-61421942D01*
X57653584Y-61239551D01*
X57716841Y-61044866D01*
X57748864Y-60842684D01*
X57748864Y-60637980D01*
X57731735Y-60529835D01*
X57716841Y-60435797D01*
X57687491Y-60345469D01*
X57653584Y-60241113D01*
X57653582Y-60241110D01*
X57653582Y-60241108D01*
X57582254Y-60101121D01*
X57560651Y-60058722D01*
X57513334Y-59993595D01*
X57440335Y-59893118D01*
X57295577Y-59748360D01*
X57129978Y-59628047D01*
X57123370Y-59624680D01*
X57037281Y-59580815D01*
X56986487Y-59532843D01*
X56969692Y-59465022D01*
X56992229Y-59398887D01*
X57037281Y-59359848D01*
X57129974Y-59312619D01*
X57207665Y-59256174D01*
X57295577Y-59192303D01*
X57295579Y-59192300D01*
X57295583Y-59192298D01*
X57440330Y-59047551D01*
X57440332Y-59047547D01*
X57440335Y-59047545D01*
X57517994Y-58940655D01*
X57560651Y-58881942D01*
X57653584Y-58699551D01*
X57716841Y-58504866D01*
X57748864Y-58302684D01*
X57748864Y-58097980D01*
X57716841Y-57895798D01*
X57716166Y-57893722D01*
X57653582Y-57701108D01*
X57583472Y-57563511D01*
X57560651Y-57518722D01*
X57552920Y-57508081D01*
X57440335Y-57353118D01*
X57295577Y-57208360D01*
X57129978Y-57088047D01*
X57123370Y-57084680D01*
X57037281Y-57040815D01*
X56986487Y-56992843D01*
X56969692Y-56925022D01*
X56992229Y-56858887D01*
X57037281Y-56819848D01*
X57129974Y-56772619D01*
X57151134Y-56757245D01*
X57295577Y-56652303D01*
X57295579Y-56652300D01*
X57295583Y-56652298D01*
X57440330Y-56507551D01*
X57440332Y-56507547D01*
X57440335Y-56507545D01*
X57530216Y-56383832D01*
X57560651Y-56341942D01*
X57653584Y-56159551D01*
X57716841Y-55964866D01*
X57748864Y-55762684D01*
X57748864Y-55557980D01*
X57716841Y-55355798D01*
X57702880Y-55312832D01*
X57673277Y-55221722D01*
X57653584Y-55161113D01*
X57653582Y-55161110D01*
X57653582Y-55161108D01*
X57583020Y-55022624D01*
X57560651Y-54978722D01*
X57552920Y-54968081D01*
X57440335Y-54813118D01*
X57295577Y-54668360D01*
X57129978Y-54548047D01*
X57123370Y-54544680D01*
X57037281Y-54500815D01*
X56986487Y-54452843D01*
X56969692Y-54385022D01*
X56992229Y-54318887D01*
X57037281Y-54279848D01*
X57129974Y-54232619D01*
X57151134Y-54217245D01*
X57295577Y-54112303D01*
X57295579Y-54112300D01*
X57295583Y-54112298D01*
X57440330Y-53967551D01*
X57481744Y-53910549D01*
X96240000Y-53910549D01*
X96240000Y-54133450D01*
X96240001Y-54133466D01*
X96269094Y-54354452D01*
X96269095Y-54354457D01*
X96269096Y-54354463D01*
X96326790Y-54569780D01*
X96326793Y-54569790D01*
X96412093Y-54775722D01*
X96412095Y-54775726D01*
X96523552Y-54968774D01*
X96523557Y-54968780D01*
X96523558Y-54968782D01*
X96659251Y-55145622D01*
X96659257Y-55145629D01*
X96816870Y-55303242D01*
X96816876Y-55303247D01*
X96993726Y-55438948D01*
X97186774Y-55550405D01*
X97186777Y-55550406D01*
X97186782Y-55550409D01*
X97265317Y-55582939D01*
X97319721Y-55626780D01*
X97341786Y-55693074D01*
X97324507Y-55760773D01*
X97273370Y-55808384D01*
X97217865Y-55821500D01*
X96940484Y-55821500D01*
X96837704Y-55832000D01*
X96837703Y-55832001D01*
X96671164Y-55887186D01*
X96671162Y-55887187D01*
X96521848Y-55979286D01*
X96521844Y-55979289D01*
X96397789Y-56103344D01*
X96397786Y-56103348D01*
X96305687Y-56252662D01*
X96305686Y-56252664D01*
X96250501Y-56419203D01*
X96250500Y-56419204D01*
X96240000Y-56521984D01*
X96240000Y-58522015D01*
X96250500Y-58624795D01*
X96250501Y-58624797D01*
X96275272Y-58699551D01*
X96305686Y-58791335D01*
X96305687Y-58791337D01*
X96397786Y-58940651D01*
X96397789Y-58940655D01*
X96521844Y-59064710D01*
X96521848Y-59064713D01*
X96671162Y-59156812D01*
X96671164Y-59156813D01*
X96671166Y-59156814D01*
X96837703Y-59211999D01*
X96940492Y-59222500D01*
X96940497Y-59222500D01*
X98940503Y-59222500D01*
X98940508Y-59222500D01*
X99043297Y-59211999D01*
X99209834Y-59156814D01*
X99359155Y-59064711D01*
X99483211Y-58940655D01*
X99575314Y-58791334D01*
X99630499Y-58624797D01*
X99641000Y-58522008D01*
X99641000Y-56521992D01*
X99630499Y-56419203D01*
X99575314Y-56252666D01*
X99483211Y-56103345D01*
X99359155Y-55979289D01*
X99359151Y-55979286D01*
X99209837Y-55887187D01*
X99209835Y-55887186D01*
X99126565Y-55859593D01*
X99043297Y-55832001D01*
X99043295Y-55832000D01*
X98940515Y-55821500D01*
X98940508Y-55821500D01*
X98663135Y-55821500D01*
X98596096Y-55801815D01*
X98550341Y-55749011D01*
X98540397Y-55679853D01*
X98569422Y-55616297D01*
X98615683Y-55582939D01*
X98694217Y-55550409D01*
X98694218Y-55550407D01*
X98694226Y-55550405D01*
X98887274Y-55438948D01*
X99064124Y-55303247D01*
X99221747Y-55145624D01*
X99357448Y-54968774D01*
X99468905Y-54775726D01*
X99554210Y-54569781D01*
X99611904Y-54354463D01*
X99641000Y-54133457D01*
X99641000Y-53910543D01*
X99611904Y-53689537D01*
X99554210Y-53474219D01*
X99468905Y-53268274D01*
X99357448Y-53075226D01*
X99221747Y-52898376D01*
X99221742Y-52898370D01*
X99064129Y-52740757D01*
X99064122Y-52740751D01*
X98887282Y-52605058D01*
X98887280Y-52605057D01*
X98887274Y-52605052D01*
X98694226Y-52493595D01*
X98694222Y-52493593D01*
X98488290Y-52408293D01*
X98488283Y-52408291D01*
X98488281Y-52408290D01*
X98272963Y-52350596D01*
X98272957Y-52350595D01*
X98272952Y-52350594D01*
X98051966Y-52321501D01*
X98051963Y-52321500D01*
X98051957Y-52321500D01*
X97829043Y-52321500D01*
X97829037Y-52321500D01*
X97829033Y-52321501D01*
X97608047Y-52350594D01*
X97608040Y-52350595D01*
X97608037Y-52350596D01*
X97392719Y-52408290D01*
X97392709Y-52408293D01*
X97186777Y-52493593D01*
X97186773Y-52493595D01*
X96993726Y-52605052D01*
X96993717Y-52605058D01*
X96816877Y-52740751D01*
X96816870Y-52740757D01*
X96659257Y-52898370D01*
X96659251Y-52898377D01*
X96523558Y-53075217D01*
X96523552Y-53075226D01*
X96412095Y-53268273D01*
X96412093Y-53268277D01*
X96326793Y-53474209D01*
X96326790Y-53474219D01*
X96275242Y-53666602D01*
X96269097Y-53689534D01*
X96269094Y-53689547D01*
X96240001Y-53910533D01*
X96240000Y-53910549D01*
X57481744Y-53910549D01*
X57496280Y-53890542D01*
X57537649Y-53833602D01*
X57537651Y-53833599D01*
X57560651Y-53801942D01*
X57653584Y-53619551D01*
X57716841Y-53424866D01*
X57748864Y-53222684D01*
X57748864Y-53017980D01*
X57716841Y-52815797D01*
X57653582Y-52621108D01*
X57588609Y-52493593D01*
X57560651Y-52438722D01*
X57538541Y-52408290D01*
X57440335Y-52273118D01*
X57295577Y-52128360D01*
X57129978Y-52008047D01*
X57051691Y-51968158D01*
X57037281Y-51960815D01*
X56986487Y-51912843D01*
X56969692Y-51845022D01*
X56992229Y-51778887D01*
X57037281Y-51739848D01*
X57129974Y-51692619D01*
X57164106Y-51667821D01*
X57295577Y-51572303D01*
X57295579Y-51572300D01*
X57295583Y-51572298D01*
X57440330Y-51427551D01*
X57440332Y-51427547D01*
X57440335Y-51427545D01*
X57505681Y-51337602D01*
X57560651Y-51261942D01*
X57653584Y-51079551D01*
X57716841Y-50884866D01*
X57748864Y-50682684D01*
X57748864Y-50477980D01*
X57716841Y-50275798D01*
X57716131Y-50273614D01*
X57653582Y-50081108D01*
X57619867Y-50014939D01*
X57560651Y-49898722D01*
X57547147Y-49880135D01*
X57440335Y-49733118D01*
X57295577Y-49588360D01*
X57129978Y-49468047D01*
X57123370Y-49464680D01*
X57037281Y-49420815D01*
X56986487Y-49372843D01*
X56969692Y-49305022D01*
X56992229Y-49238887D01*
X57037281Y-49199848D01*
X57129974Y-49152619D01*
X57151134Y-49137245D01*
X57295577Y-49032303D01*
X57295579Y-49032300D01*
X57295583Y-49032298D01*
X57440330Y-48887551D01*
X57440332Y-48887547D01*
X57440335Y-48887545D01*
X57560648Y-48721946D01*
X57560649Y-48721945D01*
X57560651Y-48721942D01*
X57604846Y-48635204D01*
X66364864Y-48635204D01*
X66364864Y-48897459D01*
X66382617Y-49032298D01*
X66399094Y-49157448D01*
X66439651Y-49308809D01*
X66466966Y-49410750D01*
X66466969Y-49410760D01*
X66567317Y-49653022D01*
X66567322Y-49653032D01*
X66698439Y-49880135D01*
X66858082Y-50088183D01*
X66858090Y-50088192D01*
X67043504Y-50273606D01*
X67043512Y-50273613D01*
X67043513Y-50273614D01*
X67091918Y-50310756D01*
X67251560Y-50433256D01*
X67478663Y-50564373D01*
X67478673Y-50564378D01*
X67720935Y-50664726D01*
X67720945Y-50664730D01*
X67974248Y-50732602D01*
X68234244Y-50766832D01*
X68234251Y-50766832D01*
X68496477Y-50766832D01*
X68496484Y-50766832D01*
X68756480Y-50732602D01*
X69009783Y-50664730D01*
X69252061Y-50564375D01*
X69479167Y-50433256D01*
X69687215Y-50273614D01*
X69687219Y-50273609D01*
X69687224Y-50273606D01*
X69872638Y-50088192D01*
X69872641Y-50088187D01*
X69872646Y-50088183D01*
X70032288Y-49880135D01*
X70163407Y-49653029D01*
X70263762Y-49410751D01*
X70331634Y-49157448D01*
X70365864Y-48897452D01*
X70365864Y-48635212D01*
X70365863Y-48635204D01*
X76996515Y-48635204D01*
X76996515Y-48897459D01*
X77014268Y-49032298D01*
X77030745Y-49157448D01*
X77071302Y-49308809D01*
X77098617Y-49410750D01*
X77098620Y-49410760D01*
X77198968Y-49653022D01*
X77198973Y-49653032D01*
X77330090Y-49880135D01*
X77489733Y-50088183D01*
X77489741Y-50088192D01*
X77675155Y-50273606D01*
X77675163Y-50273613D01*
X77675164Y-50273614D01*
X77723569Y-50310756D01*
X77883211Y-50433256D01*
X78110314Y-50564373D01*
X78110324Y-50564378D01*
X78352586Y-50664726D01*
X78352596Y-50664730D01*
X78605899Y-50732602D01*
X78865895Y-50766832D01*
X78865902Y-50766832D01*
X79128128Y-50766832D01*
X79128135Y-50766832D01*
X79388131Y-50732602D01*
X79641434Y-50664730D01*
X79883712Y-50564375D01*
X80110818Y-50433256D01*
X80318866Y-50273614D01*
X80318870Y-50273609D01*
X80318875Y-50273606D01*
X80504289Y-50088192D01*
X80504292Y-50088187D01*
X80504297Y-50088183D01*
X80663939Y-49880135D01*
X80795058Y-49653029D01*
X80895413Y-49410751D01*
X80963285Y-49157448D01*
X80997515Y-48897452D01*
X80997515Y-48635212D01*
X80963285Y-48375216D01*
X80895413Y-48121913D01*
X80895409Y-48121903D01*
X80795061Y-47879641D01*
X80795056Y-47879631D01*
X80663939Y-47652528D01*
X80504296Y-47444480D01*
X80504289Y-47444472D01*
X80318875Y-47259058D01*
X80318866Y-47259050D01*
X80110818Y-47099407D01*
X79883715Y-46968290D01*
X79883705Y-46968285D01*
X79641443Y-46867937D01*
X79641436Y-46867935D01*
X79641434Y-46867934D01*
X79388131Y-46800062D01*
X79330354Y-46792455D01*
X79128142Y-46765832D01*
X79128135Y-46765832D01*
X78865895Y-46765832D01*
X78865887Y-46765832D01*
X78634787Y-46796258D01*
X78605899Y-46800062D01*
X78475090Y-46835112D01*
X78352596Y-46867934D01*
X78352586Y-46867937D01*
X78110324Y-46968285D01*
X78110314Y-46968290D01*
X77883211Y-47099407D01*
X77675163Y-47259050D01*
X77489733Y-47444480D01*
X77330090Y-47652528D01*
X77198973Y-47879631D01*
X77198968Y-47879641D01*
X77098620Y-48121903D01*
X77098617Y-48121913D01*
X77030745Y-48375217D01*
X76996515Y-48635204D01*
X70365863Y-48635204D01*
X70331634Y-48375216D01*
X70263762Y-48121913D01*
X70263758Y-48121903D01*
X70163410Y-47879641D01*
X70163405Y-47879631D01*
X70032288Y-47652528D01*
X69872645Y-47444480D01*
X69872638Y-47444472D01*
X69687224Y-47259058D01*
X69687215Y-47259050D01*
X69479167Y-47099407D01*
X69252064Y-46968290D01*
X69252054Y-46968285D01*
X69009792Y-46867937D01*
X69009785Y-46867935D01*
X69009783Y-46867934D01*
X68756480Y-46800062D01*
X68698703Y-46792455D01*
X68496491Y-46765832D01*
X68496484Y-46765832D01*
X68234244Y-46765832D01*
X68234236Y-46765832D01*
X68003136Y-46796258D01*
X67974248Y-46800062D01*
X67843439Y-46835112D01*
X67720945Y-46867934D01*
X67720935Y-46867937D01*
X67478673Y-46968285D01*
X67478663Y-46968290D01*
X67251560Y-47099407D01*
X67043512Y-47259050D01*
X66858082Y-47444480D01*
X66698439Y-47652528D01*
X66567322Y-47879631D01*
X66567317Y-47879641D01*
X66466969Y-48121903D01*
X66466966Y-48121913D01*
X66399094Y-48375217D01*
X66364864Y-48635204D01*
X57604846Y-48635204D01*
X57653584Y-48539551D01*
X57716841Y-48344866D01*
X57748864Y-48142684D01*
X57748864Y-47937980D01*
X57716841Y-47735798D01*
X57653584Y-47541113D01*
X57653582Y-47541110D01*
X57653582Y-47541108D01*
X57604343Y-47444472D01*
X57560651Y-47358722D01*
X57552920Y-47348081D01*
X57440335Y-47193118D01*
X57295577Y-47048360D01*
X57129978Y-46928047D01*
X57123370Y-46924680D01*
X57037281Y-46880815D01*
X56986487Y-46832843D01*
X56969692Y-46765022D01*
X56992229Y-46698887D01*
X57037281Y-46659848D01*
X57129974Y-46612619D01*
X57151134Y-46597245D01*
X57295577Y-46492303D01*
X57295579Y-46492300D01*
X57295583Y-46492298D01*
X57440330Y-46347551D01*
X57440332Y-46347547D01*
X57440335Y-46347545D01*
X57493096Y-46274922D01*
X57560651Y-46181942D01*
X57653584Y-45999551D01*
X57716841Y-45804866D01*
X57748864Y-45602684D01*
X57748864Y-45397980D01*
X57736749Y-45321489D01*
X57716841Y-45195797D01*
X57653582Y-45001108D01*
X57619867Y-44934939D01*
X57560651Y-44818722D01*
X57552920Y-44808081D01*
X57440335Y-44653118D01*
X57295577Y-44508360D01*
X57129978Y-44388047D01*
X57111441Y-44378602D01*
X57037281Y-44340815D01*
X56986487Y-44292843D01*
X56969692Y-44225022D01*
X56992229Y-44158887D01*
X57037281Y-44119848D01*
X57129974Y-44072619D01*
X57151134Y-44057245D01*
X57295577Y-43952303D01*
X57295579Y-43952300D01*
X57295583Y-43952298D01*
X57440330Y-43807551D01*
X57440332Y-43807547D01*
X57440335Y-43807545D01*
X57493096Y-43734922D01*
X57560651Y-43641942D01*
X57653584Y-43459551D01*
X57716841Y-43264866D01*
X57748042Y-43067872D01*
X86125500Y-43067872D01*
X86125500Y-43330127D01*
X86142540Y-43459551D01*
X86159730Y-43590116D01*
X86227602Y-43843418D01*
X86227605Y-43843428D01*
X86327953Y-44085690D01*
X86327958Y-44085700D01*
X86459075Y-44312803D01*
X86618718Y-44520851D01*
X86618726Y-44520860D01*
X86804140Y-44706274D01*
X86804148Y-44706281D01*
X87012196Y-44865924D01*
X87239299Y-44997041D01*
X87239309Y-44997046D01*
X87481571Y-45097394D01*
X87481581Y-45097398D01*
X87734884Y-45165270D01*
X87994880Y-45199500D01*
X87994887Y-45199500D01*
X88257113Y-45199500D01*
X88257120Y-45199500D01*
X88517116Y-45165270D01*
X88770419Y-45097398D01*
X89012697Y-44997043D01*
X89239803Y-44865924D01*
X89447851Y-44706282D01*
X89447855Y-44706277D01*
X89447860Y-44706274D01*
X89633274Y-44520860D01*
X89633277Y-44520855D01*
X89633282Y-44520851D01*
X89792924Y-44312803D01*
X89924043Y-44085697D01*
X90024398Y-43843419D01*
X90092270Y-43590116D01*
X90126500Y-43330120D01*
X90126500Y-43067880D01*
X90126499Y-43067872D01*
X90695500Y-43067872D01*
X90695500Y-43330127D01*
X90712540Y-43459551D01*
X90729730Y-43590116D01*
X90797602Y-43843418D01*
X90797605Y-43843428D01*
X90897953Y-44085690D01*
X90897958Y-44085700D01*
X91029075Y-44312803D01*
X91188718Y-44520851D01*
X91188726Y-44520860D01*
X91374140Y-44706274D01*
X91374148Y-44706281D01*
X91582196Y-44865924D01*
X91809299Y-44997041D01*
X91809309Y-44997046D01*
X92051571Y-45097394D01*
X92051581Y-45097398D01*
X92304884Y-45165270D01*
X92564880Y-45199500D01*
X92564887Y-45199500D01*
X92827113Y-45199500D01*
X92827120Y-45199500D01*
X93087116Y-45165270D01*
X93340419Y-45097398D01*
X93582697Y-44997043D01*
X93809803Y-44865924D01*
X94017851Y-44706282D01*
X94017855Y-44706277D01*
X94017860Y-44706274D01*
X94203274Y-44520860D01*
X94203277Y-44520855D01*
X94203282Y-44520851D01*
X94362924Y-44312803D01*
X94494043Y-44085697D01*
X94594398Y-43843419D01*
X94662270Y-43590116D01*
X94696500Y-43330120D01*
X94696500Y-43067880D01*
X94662270Y-42807884D01*
X94594398Y-42554581D01*
X94587743Y-42538514D01*
X94494046Y-42312309D01*
X94494041Y-42312299D01*
X94362924Y-42085196D01*
X94203281Y-41877148D01*
X94203274Y-41877140D01*
X94017860Y-41691726D01*
X94017851Y-41691718D01*
X93809803Y-41532075D01*
X93582700Y-41400958D01*
X93582690Y-41400953D01*
X93340428Y-41300605D01*
X93340421Y-41300603D01*
X93340419Y-41300602D01*
X93087116Y-41232730D01*
X93029339Y-41225123D01*
X92827127Y-41198500D01*
X92827120Y-41198500D01*
X92564880Y-41198500D01*
X92564872Y-41198500D01*
X92333772Y-41228926D01*
X92304884Y-41232730D01*
X92051581Y-41300602D01*
X92051571Y-41300605D01*
X91809309Y-41400953D01*
X91809299Y-41400958D01*
X91582196Y-41532075D01*
X91374148Y-41691718D01*
X91188718Y-41877148D01*
X91029075Y-42085196D01*
X90897958Y-42312299D01*
X90897953Y-42312309D01*
X90797605Y-42554571D01*
X90797602Y-42554581D01*
X90735978Y-42784568D01*
X90729730Y-42807885D01*
X90695500Y-43067872D01*
X90126499Y-43067872D01*
X90092270Y-42807884D01*
X90024398Y-42554581D01*
X90017743Y-42538514D01*
X89924046Y-42312309D01*
X89924041Y-42312299D01*
X89792924Y-42085196D01*
X89633281Y-41877148D01*
X89633274Y-41877140D01*
X89447860Y-41691726D01*
X89447851Y-41691718D01*
X89239803Y-41532075D01*
X89012700Y-41400958D01*
X89012690Y-41400953D01*
X88770428Y-41300605D01*
X88770421Y-41300603D01*
X88770419Y-41300602D01*
X88517116Y-41232730D01*
X88459339Y-41225123D01*
X88257127Y-41198500D01*
X88257120Y-41198500D01*
X87994880Y-41198500D01*
X87994872Y-41198500D01*
X87763772Y-41228926D01*
X87734884Y-41232730D01*
X87481581Y-41300602D01*
X87481571Y-41300605D01*
X87239309Y-41400953D01*
X87239299Y-41400958D01*
X87012196Y-41532075D01*
X86804148Y-41691718D01*
X86618718Y-41877148D01*
X86459075Y-42085196D01*
X86327958Y-42312299D01*
X86327953Y-42312309D01*
X86227605Y-42554571D01*
X86227602Y-42554581D01*
X86165978Y-42784568D01*
X86159730Y-42807885D01*
X86125500Y-43067872D01*
X57748042Y-43067872D01*
X57748864Y-43062684D01*
X57748864Y-42857980D01*
X57740929Y-42807884D01*
X57716841Y-42655797D01*
X57653582Y-42461108D01*
X57577759Y-42312299D01*
X57560651Y-42278722D01*
X57549304Y-42263104D01*
X57440335Y-42113118D01*
X57295577Y-41968360D01*
X57129978Y-41848047D01*
X57102625Y-41834110D01*
X57037281Y-41800815D01*
X56986487Y-41752843D01*
X56969692Y-41685022D01*
X56992229Y-41618887D01*
X57037281Y-41579848D01*
X57129974Y-41532619D01*
X57258846Y-41438989D01*
X57295577Y-41412303D01*
X57295579Y-41412300D01*
X57295583Y-41412298D01*
X57440330Y-41267551D01*
X57440332Y-41267547D01*
X57440335Y-41267545D01*
X57545256Y-41123131D01*
X57560651Y-41101942D01*
X57653584Y-40919551D01*
X57716841Y-40724866D01*
X57748864Y-40522684D01*
X57748864Y-40317980D01*
X57722135Y-40149220D01*
X57716841Y-40115797D01*
X57672064Y-39977988D01*
X57653584Y-39921113D01*
X57653582Y-39921110D01*
X57653582Y-39921108D01*
X57602229Y-39820323D01*
X57560651Y-39738722D01*
X57545256Y-39717532D01*
X57440335Y-39573118D01*
X57295577Y-39428360D01*
X57129977Y-39308047D01*
X57129976Y-39308046D01*
X57129974Y-39308045D01*
X57068340Y-39276641D01*
X56947587Y-39215113D01*
X56752898Y-39151854D01*
X56578359Y-39124210D01*
X56550716Y-39119832D01*
X56346012Y-39119832D01*
X56321693Y-39123683D01*
X56143829Y-39151854D01*
X55949140Y-39215113D01*
X55766750Y-39308047D01*
X55601150Y-39428360D01*
X55456392Y-39573118D01*
X55336079Y-39738718D01*
X55243145Y-39921108D01*
X55179886Y-40115797D01*
X55147864Y-40317980D01*
X50128863Y-40317980D01*
X50128863Y-39820324D01*
X50118363Y-39717535D01*
X50063178Y-39550998D01*
X49971076Y-39401676D01*
X49847020Y-39277620D01*
X49697698Y-39185518D01*
X49531161Y-39130333D01*
X49531159Y-39130332D01*
X49428374Y-39119832D01*
X48228362Y-39119832D01*
X48228345Y-39119833D01*
X48125567Y-39130332D01*
X48125564Y-39130333D01*
X47959032Y-39185517D01*
X47959027Y-39185519D01*
X47809706Y-39277621D01*
X47685653Y-39401674D01*
X47593551Y-39550995D01*
X47593550Y-39550998D01*
X47538365Y-39717535D01*
X47538365Y-39717536D01*
X47538364Y-39717536D01*
X47527864Y-39820315D01*
X18602970Y-39820315D01*
X18785890Y-39679956D01*
X18975956Y-39489890D01*
X19139587Y-39276641D01*
X19273984Y-39043859D01*
X19357743Y-38841648D01*
X94531500Y-38841648D01*
X94531500Y-39046351D01*
X94563522Y-39248534D01*
X94626781Y-39443223D01*
X94719715Y-39625613D01*
X94840028Y-39791213D01*
X94984786Y-39935971D01*
X95150388Y-40056286D01*
X95203828Y-40083516D01*
X95254623Y-40131490D01*
X95271418Y-40199312D01*
X95248880Y-40265446D01*
X95203828Y-40304484D01*
X95150388Y-40331713D01*
X94984786Y-40452028D01*
X94840028Y-40596786D01*
X94719715Y-40762386D01*
X94626781Y-40944776D01*
X94563522Y-41139465D01*
X94534677Y-41321591D01*
X94531500Y-41341648D01*
X94531500Y-41546352D01*
X94534144Y-41563044D01*
X94563522Y-41748534D01*
X94626781Y-41943223D01*
X94690691Y-42068653D01*
X94713345Y-42113113D01*
X94719715Y-42125613D01*
X94840028Y-42291213D01*
X94984786Y-42435971D01*
X95125927Y-42538514D01*
X95150390Y-42556287D01*
X95266607Y-42615503D01*
X95332776Y-42649218D01*
X95332778Y-42649218D01*
X95332781Y-42649220D01*
X95418027Y-42676918D01*
X95527465Y-42712477D01*
X95628557Y-42728488D01*
X95729648Y-42744500D01*
X95729649Y-42744500D01*
X95934351Y-42744500D01*
X95934352Y-42744500D01*
X96136534Y-42712477D01*
X96331219Y-42649220D01*
X96513610Y-42556287D01*
X96644614Y-42461108D01*
X96679213Y-42435971D01*
X96679215Y-42435968D01*
X96679219Y-42435966D01*
X96823966Y-42291219D01*
X96823968Y-42291215D01*
X96823971Y-42291213D01*
X96904652Y-42180163D01*
X96944287Y-42125610D01*
X97037220Y-41943219D01*
X97100477Y-41748534D01*
X97132500Y-41546352D01*
X97132500Y-41341648D01*
X97100477Y-41139466D01*
X97095169Y-41123131D01*
X97061768Y-41020333D01*
X97037220Y-40944781D01*
X97037218Y-40944778D01*
X97037218Y-40944776D01*
X96972722Y-40818197D01*
X96944287Y-40762390D01*
X96936556Y-40751749D01*
X96823971Y-40596786D01*
X96679213Y-40452028D01*
X96513613Y-40331715D01*
X96513612Y-40331714D01*
X96513610Y-40331713D01*
X96460171Y-40304484D01*
X96409376Y-40256510D01*
X96392581Y-40188689D01*
X96415118Y-40122554D01*
X96460172Y-40083515D01*
X96465408Y-40080847D01*
X96513610Y-40056287D01*
X96621391Y-39977980D01*
X96679213Y-39935971D01*
X96679215Y-39935968D01*
X96679219Y-39935966D01*
X96823966Y-39791219D01*
X96823968Y-39791215D01*
X96823971Y-39791213D01*
X96904802Y-39679957D01*
X96944287Y-39625610D01*
X97037220Y-39443219D01*
X97100477Y-39248534D01*
X97132500Y-39046352D01*
X97132500Y-38841648D01*
X97100477Y-38639466D01*
X97037220Y-38444781D01*
X97037218Y-38444778D01*
X97037218Y-38444776D01*
X97003503Y-38378607D01*
X96944287Y-38262390D01*
X96936556Y-38251749D01*
X96823971Y-38096786D01*
X96679213Y-37952028D01*
X96513613Y-37831715D01*
X96513612Y-37831714D01*
X96513610Y-37831713D01*
X96456653Y-37802691D01*
X96331223Y-37738781D01*
X96136534Y-37675522D01*
X95961995Y-37647878D01*
X95934352Y-37643500D01*
X95729648Y-37643500D01*
X95705329Y-37647351D01*
X95527465Y-37675522D01*
X95332776Y-37738781D01*
X95150386Y-37831715D01*
X94984786Y-37952028D01*
X94840028Y-38096786D01*
X94719715Y-38262386D01*
X94626781Y-38444776D01*
X94563522Y-38639465D01*
X94531500Y-38841648D01*
X19357743Y-38841648D01*
X19376847Y-38795526D01*
X19446416Y-38535891D01*
X19481500Y-38269397D01*
X19481500Y-38000603D01*
X19446416Y-37734109D01*
X19376847Y-37474474D01*
X19338132Y-37381008D01*
X19273988Y-37226149D01*
X19273980Y-37226133D01*
X19225964Y-37142968D01*
X19139587Y-36993359D01*
X18975956Y-36780110D01*
X18975951Y-36780104D01*
X18785895Y-36590048D01*
X18785888Y-36590042D01*
X18572645Y-36426416D01*
X18572644Y-36426415D01*
X18572641Y-36426413D01*
X18479832Y-36372830D01*
X18339866Y-36292019D01*
X18339850Y-36292011D01*
X18091524Y-36189152D01*
X17961708Y-36154368D01*
X17831891Y-36119584D01*
X17831885Y-36119583D01*
X17831880Y-36119582D01*
X17565398Y-36084500D01*
X17565397Y-36084500D01*
X17296603Y-36084500D01*
X17296602Y-36084500D01*
X17030119Y-36119582D01*
X17030112Y-36119583D01*
X17030109Y-36119584D01*
X16975239Y-36134286D01*
X16770475Y-36189152D01*
X16522149Y-36292011D01*
X16522133Y-36292019D01*
X16289354Y-36426416D01*
X16076111Y-36590042D01*
X16076104Y-36590048D01*
X15886048Y-36780104D01*
X15886042Y-36780111D01*
X15722416Y-36993354D01*
X15588019Y-37226133D01*
X15588011Y-37226149D01*
X15485152Y-37474475D01*
X15415585Y-37734106D01*
X15415582Y-37734119D01*
X15380500Y-38000602D01*
X13644050Y-38000602D01*
X13644050Y-34775947D01*
X29093000Y-34775947D01*
X29093000Y-35012052D01*
X29129934Y-35245247D01*
X29202897Y-35469802D01*
X29310087Y-35680174D01*
X29370338Y-35763104D01*
X29370340Y-35763105D01*
X30069212Y-35064233D01*
X30080482Y-35106292D01*
X30152890Y-35231708D01*
X30255292Y-35334110D01*
X30380708Y-35406518D01*
X30422765Y-35417787D01*
X29723893Y-36116658D01*
X29806828Y-36176914D01*
X30017197Y-36284102D01*
X30241752Y-36357065D01*
X30241751Y-36357065D01*
X30474948Y-36394000D01*
X30711052Y-36394000D01*
X30944247Y-36357065D01*
X31168802Y-36284102D01*
X31379163Y-36176918D01*
X31379169Y-36176914D01*
X31462104Y-36116658D01*
X31462105Y-36116658D01*
X30763233Y-35417787D01*
X30805292Y-35406518D01*
X30930708Y-35334110D01*
X31033110Y-35231708D01*
X31105518Y-35106292D01*
X31116787Y-35064233D01*
X31815658Y-35763105D01*
X31815658Y-35763104D01*
X31875914Y-35680169D01*
X31875918Y-35680163D01*
X31983102Y-35469802D01*
X32056065Y-35245247D01*
X32093000Y-35012052D01*
X32093000Y-34775947D01*
X32092993Y-34775902D01*
X33592500Y-34775902D01*
X33592500Y-35012097D01*
X33629446Y-35245368D01*
X33702433Y-35469996D01*
X33809519Y-35680163D01*
X33809657Y-35680433D01*
X33948483Y-35871510D01*
X34115490Y-36038517D01*
X34306567Y-36177343D01*
X34405991Y-36228002D01*
X34517003Y-36284566D01*
X34517005Y-36284566D01*
X34517008Y-36284568D01*
X34637412Y-36323689D01*
X34741631Y-36357553D01*
X34974903Y-36394500D01*
X34974908Y-36394500D01*
X35211097Y-36394500D01*
X35444368Y-36357553D01*
X35445870Y-36357065D01*
X35668992Y-36284568D01*
X35879433Y-36177343D01*
X36070510Y-36038517D01*
X36237517Y-35871510D01*
X36376343Y-35680433D01*
X36483568Y-35469992D01*
X36556553Y-35245368D01*
X36558717Y-35231708D01*
X36593500Y-35012097D01*
X36593500Y-34775902D01*
X36556553Y-34542631D01*
X36483566Y-34318003D01*
X36376477Y-34107830D01*
X36376343Y-34107567D01*
X36237517Y-33916490D01*
X36070510Y-33749483D01*
X35879433Y-33610657D01*
X35801706Y-33571053D01*
X35668996Y-33503433D01*
X35444368Y-33430446D01*
X35211097Y-33393500D01*
X35211092Y-33393500D01*
X34974908Y-33393500D01*
X34974903Y-33393500D01*
X34741631Y-33430446D01*
X34517003Y-33503433D01*
X34306566Y-33610657D01*
X34223047Y-33671338D01*
X34115490Y-33749483D01*
X34115488Y-33749485D01*
X34115487Y-33749485D01*
X33948485Y-33916487D01*
X33948485Y-33916488D01*
X33948483Y-33916490D01*
X33888862Y-33998550D01*
X33809657Y-34107566D01*
X33702433Y-34318003D01*
X33629446Y-34542631D01*
X33592500Y-34775902D01*
X32092993Y-34775902D01*
X32056065Y-34542752D01*
X31983102Y-34318197D01*
X31875914Y-34107828D01*
X31815658Y-34024894D01*
X31815658Y-34024893D01*
X31116787Y-34723765D01*
X31105518Y-34681708D01*
X31033110Y-34556292D01*
X30930708Y-34453890D01*
X30805292Y-34381482D01*
X30763234Y-34370212D01*
X31462105Y-33671340D01*
X31462104Y-33671338D01*
X31379174Y-33611087D01*
X31168802Y-33503897D01*
X30944247Y-33430934D01*
X30944248Y-33430934D01*
X30711052Y-33394000D01*
X30474948Y-33394000D01*
X30241752Y-33430934D01*
X30017197Y-33503897D01*
X29806830Y-33611084D01*
X29723894Y-33671340D01*
X30422766Y-34370212D01*
X30380708Y-34381482D01*
X30255292Y-34453890D01*
X30152890Y-34556292D01*
X30080482Y-34681708D01*
X30069212Y-34723766D01*
X29370340Y-34024894D01*
X29310084Y-34107830D01*
X29202897Y-34318197D01*
X29129934Y-34542752D01*
X29093000Y-34775947D01*
X13644050Y-34775947D01*
X13644050Y-32113980D01*
X19422864Y-32113980D01*
X19422864Y-32318683D01*
X19454886Y-32520866D01*
X19518145Y-32715555D01*
X19611079Y-32897945D01*
X19731392Y-33063545D01*
X19876150Y-33208303D01*
X20030984Y-33320794D01*
X20041754Y-33328619D01*
X20157971Y-33387835D01*
X20224140Y-33421550D01*
X20224142Y-33421550D01*
X20224145Y-33421552D01*
X20328501Y-33455459D01*
X20418829Y-33484809D01*
X20517140Y-33500380D01*
X20621012Y-33516832D01*
X20621013Y-33516832D01*
X20825715Y-33516832D01*
X20825716Y-33516832D01*
X21027898Y-33484809D01*
X21222583Y-33421552D01*
X21404974Y-33328619D01*
X21526343Y-33240440D01*
X21570577Y-33208303D01*
X21570579Y-33208300D01*
X21570583Y-33208298D01*
X21715330Y-33063551D01*
X21715332Y-33063547D01*
X21715335Y-33063545D01*
X21785297Y-32967249D01*
X21835651Y-32897942D01*
X21928584Y-32715551D01*
X21991841Y-32520866D01*
X22023864Y-32318684D01*
X22023864Y-32113980D01*
X21991841Y-31911798D01*
X21928584Y-31717113D01*
X21928582Y-31717110D01*
X21928582Y-31717108D01*
X21894867Y-31650939D01*
X21835651Y-31534722D01*
X21811206Y-31501076D01*
X21715335Y-31369118D01*
X21567138Y-31220921D01*
X21568462Y-31219596D01*
X21534638Y-31167774D01*
X21534144Y-31097906D01*
X21559097Y-31058467D01*
X64372364Y-31058467D01*
X64372364Y-33154202D01*
X64372365Y-33154208D01*
X64378772Y-33213815D01*
X64429066Y-33348660D01*
X64429070Y-33348667D01*
X64515316Y-33463876D01*
X64515319Y-33463879D01*
X64630528Y-33550125D01*
X64630535Y-33550129D01*
X64765381Y-33600423D01*
X64765380Y-33600423D01*
X64772308Y-33601167D01*
X64824991Y-33606832D01*
X66825736Y-33606831D01*
X66885347Y-33600423D01*
X67020195Y-33550128D01*
X67135410Y-33463878D01*
X67221660Y-33348663D01*
X67232054Y-33320792D01*
X67273924Y-33264859D01*
X67339387Y-33240440D01*
X67407661Y-33255290D01*
X67421110Y-33263797D01*
X67603826Y-33396549D01*
X67735963Y-33463876D01*
X67807608Y-33500381D01*
X68025115Y-33571053D01*
X68025116Y-33571053D01*
X68025119Y-33571054D01*
X68251010Y-33606832D01*
X68251011Y-33606832D01*
X68479717Y-33606832D01*
X68479718Y-33606832D01*
X68705609Y-33571054D01*
X68705612Y-33571053D01*
X68705613Y-33571053D01*
X68923119Y-33500381D01*
X68923119Y-33500380D01*
X68923122Y-33500380D01*
X69126902Y-33396549D01*
X69311930Y-33262118D01*
X69473650Y-33100398D01*
X69535047Y-33015891D01*
X69590376Y-32973228D01*
X69659989Y-32967249D01*
X69721784Y-32999855D01*
X69735678Y-33015888D01*
X69797078Y-33100398D01*
X69958798Y-33262118D01*
X70143826Y-33396549D01*
X70275963Y-33463876D01*
X70347608Y-33500381D01*
X70565115Y-33571053D01*
X70565116Y-33571053D01*
X70565119Y-33571054D01*
X70791010Y-33606832D01*
X70791011Y-33606832D01*
X71019717Y-33606832D01*
X71019718Y-33606832D01*
X71245609Y-33571054D01*
X71245612Y-33571053D01*
X71245613Y-33571053D01*
X71463119Y-33500381D01*
X71463119Y-33500380D01*
X71463122Y-33500380D01*
X71666902Y-33396549D01*
X71851930Y-33262118D01*
X72013650Y-33100398D01*
X72148081Y-32915370D01*
X72251912Y-32711590D01*
X72322586Y-32494077D01*
X72358364Y-32268186D01*
X72358364Y-31944478D01*
X72322586Y-31718587D01*
X72322585Y-31718583D01*
X72322585Y-31718582D01*
X72251913Y-31501076D01*
X72184675Y-31369114D01*
X72148081Y-31297294D01*
X72013650Y-31112266D01*
X71959851Y-31058467D01*
X75004015Y-31058467D01*
X75004015Y-33154202D01*
X75004016Y-33154208D01*
X75010423Y-33213815D01*
X75060717Y-33348660D01*
X75060721Y-33348667D01*
X75146967Y-33463876D01*
X75146970Y-33463879D01*
X75262179Y-33550125D01*
X75262186Y-33550129D01*
X75397032Y-33600423D01*
X75397031Y-33600423D01*
X75403959Y-33601167D01*
X75456642Y-33606832D01*
X77457387Y-33606831D01*
X77516998Y-33600423D01*
X77651846Y-33550128D01*
X77767061Y-33463878D01*
X77853311Y-33348663D01*
X77863705Y-33320792D01*
X77905575Y-33264859D01*
X77971038Y-33240440D01*
X78039312Y-33255290D01*
X78052761Y-33263797D01*
X78235477Y-33396549D01*
X78367614Y-33463876D01*
X78439259Y-33500381D01*
X78656766Y-33571053D01*
X78656767Y-33571053D01*
X78656770Y-33571054D01*
X78882661Y-33606832D01*
X78882662Y-33606832D01*
X79111368Y-33606832D01*
X79111369Y-33606832D01*
X79337260Y-33571054D01*
X79337263Y-33571053D01*
X79337264Y-33571053D01*
X79554770Y-33500381D01*
X79554770Y-33500380D01*
X79554773Y-33500380D01*
X79758553Y-33396549D01*
X79943581Y-33262118D01*
X80105301Y-33100398D01*
X80166698Y-33015891D01*
X80222027Y-32973228D01*
X80291640Y-32967249D01*
X80353435Y-32999855D01*
X80367329Y-33015888D01*
X80428729Y-33100398D01*
X80590449Y-33262118D01*
X80775477Y-33396549D01*
X80907614Y-33463876D01*
X80979259Y-33500381D01*
X81196766Y-33571053D01*
X81196767Y-33571053D01*
X81196770Y-33571054D01*
X81422661Y-33606832D01*
X81422662Y-33606832D01*
X81651368Y-33606832D01*
X81651369Y-33606832D01*
X81877260Y-33571054D01*
X81877263Y-33571053D01*
X81877264Y-33571053D01*
X82094770Y-33500381D01*
X82094770Y-33500380D01*
X82094773Y-33500380D01*
X82298553Y-33396549D01*
X82483581Y-33262118D01*
X82645301Y-33100398D01*
X82779732Y-32915370D01*
X82883563Y-32711590D01*
X82954237Y-32494077D01*
X82990015Y-32268186D01*
X82990015Y-31944478D01*
X82954237Y-31718587D01*
X82954236Y-31718583D01*
X82954236Y-31718582D01*
X82883564Y-31501076D01*
X82816326Y-31369114D01*
X82779732Y-31297294D01*
X82645301Y-31112266D01*
X82483581Y-30950546D01*
X82298553Y-30816115D01*
X82185330Y-30758425D01*
X82094770Y-30712282D01*
X81877263Y-30641610D01*
X81691827Y-30612240D01*
X81651369Y-30605832D01*
X81422661Y-30605832D01*
X81382203Y-30612240D01*
X81196768Y-30641610D01*
X81196765Y-30641610D01*
X80979259Y-30712282D01*
X80775476Y-30816115D01*
X80709565Y-30864003D01*
X80590449Y-30950546D01*
X80590447Y-30950548D01*
X80590446Y-30950548D01*
X80428730Y-31112264D01*
X80367333Y-31196770D01*
X80312002Y-31239435D01*
X80242389Y-31245414D01*
X80180594Y-31212808D01*
X80166697Y-31196770D01*
X80145630Y-31167774D01*
X80105301Y-31112266D01*
X79943581Y-30950546D01*
X79758553Y-30816115D01*
X79645330Y-30758425D01*
X79554770Y-30712282D01*
X79337263Y-30641610D01*
X79151827Y-30612240D01*
X79111369Y-30605832D01*
X78882661Y-30605832D01*
X78842203Y-30612240D01*
X78656768Y-30641610D01*
X78656765Y-30641610D01*
X78439259Y-30712282D01*
X78235476Y-30816115D01*
X78156467Y-30873519D01*
X78056540Y-30946121D01*
X78052774Y-30948857D01*
X77986967Y-30972337D01*
X77918913Y-30956512D01*
X77870218Y-30906406D01*
X77863705Y-30891870D01*
X77853311Y-30864001D01*
X77853308Y-30863996D01*
X77767062Y-30748787D01*
X77767059Y-30748784D01*
X77651850Y-30662538D01*
X77651843Y-30662534D01*
X77516997Y-30612240D01*
X77516998Y-30612240D01*
X77457398Y-30605833D01*
X77457396Y-30605832D01*
X77457388Y-30605832D01*
X77457379Y-30605832D01*
X75456644Y-30605832D01*
X75456638Y-30605833D01*
X75397031Y-30612240D01*
X75262186Y-30662534D01*
X75262179Y-30662538D01*
X75146970Y-30748784D01*
X75146967Y-30748787D01*
X75060721Y-30863996D01*
X75060717Y-30864003D01*
X75010423Y-30998849D01*
X75004016Y-31058448D01*
X75004015Y-31058467D01*
X71959851Y-31058467D01*
X71851930Y-30950546D01*
X71666902Y-30816115D01*
X71553679Y-30758425D01*
X71463119Y-30712282D01*
X71245612Y-30641610D01*
X71060176Y-30612240D01*
X71019718Y-30605832D01*
X70791010Y-30605832D01*
X70750552Y-30612240D01*
X70565117Y-30641610D01*
X70565114Y-30641610D01*
X70347608Y-30712282D01*
X70143825Y-30816115D01*
X70077914Y-30864003D01*
X69958798Y-30950546D01*
X69958796Y-30950548D01*
X69958795Y-30950548D01*
X69797079Y-31112264D01*
X69735682Y-31196770D01*
X69680351Y-31239435D01*
X69610738Y-31245414D01*
X69548943Y-31212808D01*
X69535046Y-31196770D01*
X69513979Y-31167774D01*
X69473650Y-31112266D01*
X69311930Y-30950546D01*
X69126902Y-30816115D01*
X69013679Y-30758425D01*
X68923119Y-30712282D01*
X68705612Y-30641610D01*
X68520176Y-30612240D01*
X68479718Y-30605832D01*
X68251010Y-30605832D01*
X68210552Y-30612240D01*
X68025117Y-30641610D01*
X68025114Y-30641610D01*
X67807608Y-30712282D01*
X67603825Y-30816115D01*
X67524816Y-30873519D01*
X67424889Y-30946121D01*
X67421123Y-30948857D01*
X67355316Y-30972337D01*
X67287262Y-30956512D01*
X67238567Y-30906406D01*
X67232054Y-30891870D01*
X67221660Y-30864001D01*
X67221657Y-30863996D01*
X67135411Y-30748787D01*
X67135408Y-30748784D01*
X67020199Y-30662538D01*
X67020192Y-30662534D01*
X66885346Y-30612240D01*
X66885347Y-30612240D01*
X66825747Y-30605833D01*
X66825745Y-30605832D01*
X66825737Y-30605832D01*
X66825728Y-30605832D01*
X64824993Y-30605832D01*
X64824987Y-30605833D01*
X64765380Y-30612240D01*
X64630535Y-30662534D01*
X64630528Y-30662538D01*
X64515319Y-30748784D01*
X64515316Y-30748787D01*
X64429070Y-30863996D01*
X64429066Y-30864003D01*
X64378772Y-30998849D01*
X64372365Y-31058448D01*
X64372364Y-31058467D01*
X21559097Y-31058467D01*
X21571501Y-31038862D01*
X21607177Y-31016921D01*
X21783572Y-30946121D01*
X21880554Y-30873519D01*
X21966714Y-30758425D01*
X21966718Y-30758418D01*
X22016960Y-30623711D01*
X22016962Y-30623704D01*
X22023363Y-30564176D01*
X22023364Y-30564159D01*
X22023364Y-29966332D01*
X21039050Y-29966332D01*
X21043444Y-29961938D01*
X21096105Y-29870726D01*
X21123364Y-29768993D01*
X21123364Y-29663671D01*
X21096105Y-29561938D01*
X21043444Y-29470726D01*
X21039050Y-29466332D01*
X22023364Y-29466332D01*
X22023364Y-28868504D01*
X22023363Y-28868487D01*
X22016962Y-28808959D01*
X22016960Y-28808952D01*
X21966718Y-28674245D01*
X21966714Y-28674238D01*
X21880554Y-28559144D01*
X21880551Y-28559141D01*
X21765457Y-28472981D01*
X21765450Y-28472977D01*
X21630743Y-28422735D01*
X21630736Y-28422733D01*
X21571208Y-28416332D01*
X20973364Y-28416332D01*
X20973364Y-29400646D01*
X20968970Y-29396252D01*
X20877758Y-29343591D01*
X20776025Y-29316332D01*
X20670703Y-29316332D01*
X20568970Y-29343591D01*
X20477758Y-29396252D01*
X20473364Y-29400646D01*
X20473364Y-28416332D01*
X19875519Y-28416332D01*
X19815991Y-28422733D01*
X19815984Y-28422735D01*
X19681277Y-28472977D01*
X19681270Y-28472981D01*
X19566176Y-28559141D01*
X19566173Y-28559144D01*
X19480013Y-28674238D01*
X19480009Y-28674245D01*
X19429767Y-28808952D01*
X19429765Y-28808959D01*
X19423364Y-28868487D01*
X19423364Y-29466332D01*
X20407678Y-29466332D01*
X20403284Y-29470726D01*
X20350623Y-29561938D01*
X20323364Y-29663671D01*
X20323364Y-29768993D01*
X20350623Y-29870726D01*
X20403284Y-29961938D01*
X20407678Y-29966332D01*
X19423364Y-29966332D01*
X19423364Y-30564176D01*
X19429765Y-30623704D01*
X19429767Y-30623711D01*
X19480009Y-30758418D01*
X19480013Y-30758425D01*
X19566173Y-30873519D01*
X19566176Y-30873522D01*
X19681270Y-30959682D01*
X19681277Y-30959686D01*
X19815985Y-31009929D01*
X19821872Y-31011320D01*
X19882590Y-31045891D01*
X19914978Y-31107801D01*
X19908754Y-31177393D01*
X19878506Y-31219837D01*
X19879590Y-31220921D01*
X19731396Y-31369114D01*
X19731392Y-31369118D01*
X19611079Y-31534718D01*
X19518145Y-31717108D01*
X19454886Y-31911797D01*
X19422864Y-32113980D01*
X13644050Y-32113980D01*
X13644050Y-25037816D01*
X35275864Y-25037816D01*
X35275864Y-26733551D01*
X35275865Y-26733557D01*
X35282272Y-26793164D01*
X35332566Y-26928009D01*
X35332570Y-26928016D01*
X35418816Y-27043225D01*
X35418819Y-27043228D01*
X35534028Y-27129474D01*
X35534035Y-27129478D01*
X35668878Y-27179771D01*
X35668881Y-27179772D01*
X35668883Y-27179772D01*
X35674397Y-27181075D01*
X35735115Y-27215646D01*
X35767503Y-27277555D01*
X35761279Y-27347147D01*
X35731397Y-27389077D01*
X35732590Y-27390270D01*
X35584396Y-27538463D01*
X35584392Y-27538467D01*
X35464079Y-27704067D01*
X35371145Y-27886457D01*
X35307886Y-28081146D01*
X35275864Y-28283329D01*
X35275864Y-28488032D01*
X35307886Y-28690215D01*
X35371145Y-28884904D01*
X35464079Y-29067294D01*
X35584392Y-29232894D01*
X35729150Y-29377652D01*
X35851210Y-29466332D01*
X35894754Y-29497968D01*
X36010971Y-29557184D01*
X36077140Y-29590899D01*
X36077142Y-29590899D01*
X36077145Y-29590901D01*
X36181501Y-29624808D01*
X36271829Y-29654158D01*
X36372921Y-29670169D01*
X36474012Y-29686181D01*
X36474013Y-29686181D01*
X36678715Y-29686181D01*
X36678716Y-29686181D01*
X36880898Y-29654158D01*
X37075583Y-29590901D01*
X37257974Y-29497968D01*
X37350954Y-29430413D01*
X37423577Y-29377652D01*
X37423579Y-29377649D01*
X37423583Y-29377647D01*
X37568330Y-29232900D01*
X37568332Y-29232896D01*
X37568335Y-29232894D01*
X37621096Y-29160271D01*
X37688651Y-29067291D01*
X37781584Y-28884900D01*
X37844841Y-28690215D01*
X37876864Y-28488033D01*
X37876864Y-28283329D01*
X37844841Y-28081147D01*
X37781584Y-27886462D01*
X37781582Y-27886459D01*
X37781582Y-27886457D01*
X37747867Y-27820288D01*
X37688651Y-27704071D01*
X37680920Y-27693430D01*
X37568335Y-27538467D01*
X37420138Y-27390270D01*
X37421583Y-27388824D01*
X37388101Y-27337487D01*
X37387632Y-27267619D01*
X37425010Y-27208588D01*
X37478331Y-27181075D01*
X37483842Y-27179772D01*
X37483847Y-27179772D01*
X37618695Y-27129477D01*
X37733910Y-27043227D01*
X37820160Y-26928012D01*
X37870455Y-26793164D01*
X37876864Y-26733554D01*
X37876863Y-25037816D01*
X44157864Y-25037816D01*
X44157864Y-26733551D01*
X44157865Y-26733557D01*
X44164272Y-26793164D01*
X44214566Y-26928009D01*
X44214570Y-26928016D01*
X44300816Y-27043225D01*
X44300819Y-27043228D01*
X44416028Y-27129474D01*
X44416035Y-27129478D01*
X44550878Y-27179771D01*
X44550881Y-27179772D01*
X44550883Y-27179772D01*
X44556397Y-27181075D01*
X44617115Y-27215646D01*
X44649503Y-27277555D01*
X44643279Y-27347147D01*
X44613397Y-27389077D01*
X44614590Y-27390270D01*
X44466396Y-27538463D01*
X44466392Y-27538467D01*
X44346079Y-27704067D01*
X44253145Y-27886457D01*
X44189886Y-28081146D01*
X44157864Y-28283329D01*
X44157864Y-28488032D01*
X44189886Y-28690215D01*
X44253145Y-28884904D01*
X44346079Y-29067294D01*
X44466392Y-29232894D01*
X44611150Y-29377652D01*
X44733210Y-29466332D01*
X44776754Y-29497968D01*
X44892971Y-29557184D01*
X44959140Y-29590899D01*
X44959142Y-29590899D01*
X44959145Y-29590901D01*
X45063501Y-29624808D01*
X45153829Y-29654158D01*
X45254921Y-29670169D01*
X45356012Y-29686181D01*
X45356013Y-29686181D01*
X45560715Y-29686181D01*
X45560716Y-29686181D01*
X45762898Y-29654158D01*
X45957583Y-29590901D01*
X46139974Y-29497968D01*
X46232954Y-29430413D01*
X46305577Y-29377652D01*
X46305579Y-29377649D01*
X46305583Y-29377647D01*
X46450330Y-29232900D01*
X46450332Y-29232896D01*
X46450335Y-29232894D01*
X46503096Y-29160271D01*
X46570651Y-29067291D01*
X46663584Y-28884900D01*
X46726841Y-28690215D01*
X46758864Y-28488033D01*
X46758864Y-28283329D01*
X46726841Y-28081147D01*
X46663584Y-27886462D01*
X46663582Y-27886459D01*
X46663582Y-27886457D01*
X46629867Y-27820288D01*
X46570651Y-27704071D01*
X46562920Y-27693430D01*
X46450335Y-27538467D01*
X46302138Y-27390270D01*
X46303583Y-27388824D01*
X46270101Y-27337487D01*
X46269632Y-27267619D01*
X46307010Y-27208588D01*
X46360331Y-27181075D01*
X46365842Y-27179772D01*
X46365847Y-27179772D01*
X46500695Y-27129477D01*
X46615910Y-27043227D01*
X46702160Y-26928012D01*
X46752455Y-26793164D01*
X46758864Y-26733554D01*
X46758863Y-25037809D01*
X46752455Y-24978198D01*
X46727565Y-24911465D01*
X46702161Y-24843352D01*
X46702157Y-24843345D01*
X46615911Y-24728136D01*
X46615908Y-24728133D01*
X46500699Y-24641887D01*
X46500692Y-24641883D01*
X46365846Y-24591589D01*
X46365847Y-24591589D01*
X46306247Y-24585182D01*
X46306245Y-24585181D01*
X46306237Y-24585181D01*
X46306228Y-24585181D01*
X44610493Y-24585181D01*
X44610487Y-24585182D01*
X44550880Y-24591589D01*
X44416035Y-24641883D01*
X44416028Y-24641887D01*
X44300819Y-24728133D01*
X44300816Y-24728136D01*
X44214570Y-24843345D01*
X44214566Y-24843352D01*
X44164272Y-24978198D01*
X44158475Y-25032122D01*
X44157865Y-25037804D01*
X44157864Y-25037816D01*
X37876863Y-25037816D01*
X37876863Y-25037809D01*
X37870455Y-24978198D01*
X37845565Y-24911465D01*
X37820161Y-24843352D01*
X37820157Y-24843345D01*
X37733911Y-24728136D01*
X37733908Y-24728133D01*
X37618699Y-24641887D01*
X37618692Y-24641883D01*
X37483846Y-24591589D01*
X37483847Y-24591589D01*
X37424247Y-24585182D01*
X37424245Y-24585181D01*
X37424237Y-24585181D01*
X37424228Y-24585181D01*
X35728493Y-24585181D01*
X35728487Y-24585182D01*
X35668880Y-24591589D01*
X35534035Y-24641883D01*
X35534028Y-24641887D01*
X35418819Y-24728133D01*
X35418816Y-24728136D01*
X35332570Y-24843345D01*
X35332566Y-24843352D01*
X35282272Y-24978198D01*
X35276475Y-25032122D01*
X35275865Y-25037804D01*
X35275864Y-25037816D01*
X13644050Y-25037816D01*
X13644050Y-17870316D01*
X16392864Y-17870316D01*
X16392864Y-19870347D01*
X16403364Y-19973127D01*
X16403365Y-19973128D01*
X16458550Y-20139667D01*
X16458551Y-20139669D01*
X16550650Y-20288983D01*
X16550653Y-20288987D01*
X16674708Y-20413042D01*
X16674712Y-20413045D01*
X16824026Y-20505144D01*
X16824028Y-20505145D01*
X16824030Y-20505146D01*
X16990567Y-20560331D01*
X17093356Y-20570832D01*
X17093361Y-20570832D01*
X17370729Y-20570832D01*
X17437768Y-20590517D01*
X17483523Y-20643321D01*
X17493467Y-20712479D01*
X17464442Y-20776035D01*
X17418181Y-20809393D01*
X17339646Y-20841922D01*
X17339637Y-20841927D01*
X17146590Y-20953384D01*
X17146581Y-20953390D01*
X16969741Y-21089083D01*
X16969734Y-21089089D01*
X16812121Y-21246702D01*
X16812115Y-21246709D01*
X16676422Y-21423549D01*
X16676416Y-21423558D01*
X16564959Y-21616605D01*
X16564957Y-21616609D01*
X16479657Y-21822541D01*
X16479654Y-21822551D01*
X16425505Y-22024641D01*
X16421961Y-22037866D01*
X16421958Y-22037879D01*
X16392865Y-22258865D01*
X16392864Y-22258881D01*
X16392864Y-22481782D01*
X16392865Y-22481798D01*
X16421958Y-22702784D01*
X16421959Y-22702789D01*
X16421960Y-22702795D01*
X16453995Y-22822351D01*
X16479654Y-22918112D01*
X16479657Y-22918122D01*
X16552654Y-23094351D01*
X16564959Y-23124058D01*
X16676416Y-23317106D01*
X16676421Y-23317112D01*
X16676422Y-23317114D01*
X16812115Y-23493954D01*
X16812121Y-23493961D01*
X16969734Y-23651574D01*
X16969741Y-23651580D01*
X16998454Y-23673612D01*
X17146590Y-23787280D01*
X17339638Y-23898737D01*
X17351113Y-23903490D01*
X17545411Y-23983971D01*
X17545583Y-23984042D01*
X17760901Y-24041736D01*
X17981907Y-24070832D01*
X17981914Y-24070832D01*
X18204814Y-24070832D01*
X18204821Y-24070832D01*
X18425827Y-24041736D01*
X18641145Y-23984042D01*
X18847090Y-23898737D01*
X19040138Y-23787280D01*
X19216988Y-23651579D01*
X19374611Y-23493956D01*
X19510312Y-23317106D01*
X19621769Y-23124058D01*
X19707074Y-22918113D01*
X19764768Y-22702795D01*
X19793864Y-22481789D01*
X19793864Y-22470868D01*
X52152864Y-22470868D01*
X52152864Y-23766603D01*
X52152865Y-23766609D01*
X52159272Y-23826216D01*
X52209566Y-23961061D01*
X52209570Y-23961068D01*
X52295816Y-24076277D01*
X52295819Y-24076280D01*
X52411028Y-24162526D01*
X52418818Y-24166780D01*
X52417567Y-24169069D01*
X52462578Y-24202758D01*
X52486999Y-24268221D01*
X52472152Y-24336495D01*
X52450998Y-24364756D01*
X52413953Y-24401801D01*
X52413952Y-24401803D01*
X52413950Y-24401805D01*
X52408204Y-24409714D01*
X52312132Y-24541944D01*
X52233492Y-24696285D01*
X52179961Y-24861035D01*
X52152864Y-25032122D01*
X52152864Y-25205343D01*
X52179961Y-25376430D01*
X52179961Y-25376432D01*
X52179962Y-25376434D01*
X52233491Y-25541178D01*
X52312132Y-25695521D01*
X52413950Y-25835661D01*
X52536436Y-25958147D01*
X52676576Y-26059965D01*
X52830919Y-26138606D01*
X52995663Y-26192135D01*
X53166753Y-26219233D01*
X53166754Y-26219233D01*
X53339974Y-26219233D01*
X53339975Y-26219233D01*
X53511065Y-26192135D01*
X53675809Y-26138606D01*
X53830152Y-26059965D01*
X53970292Y-25958147D01*
X54092778Y-25835661D01*
X54194596Y-25695521D01*
X54273237Y-25541178D01*
X54326766Y-25376434D01*
X54353864Y-25205344D01*
X54353864Y-25032122D01*
X54326766Y-24861032D01*
X54273237Y-24696288D01*
X54194596Y-24541945D01*
X54092778Y-24401805D01*
X54055729Y-24364756D01*
X54022245Y-24303434D01*
X54027229Y-24233742D01*
X54069101Y-24177809D01*
X54088229Y-24167365D01*
X54087910Y-24166780D01*
X54095690Y-24162530D01*
X54095695Y-24162529D01*
X54210910Y-24076279D01*
X54297160Y-23961064D01*
X54347455Y-23826216D01*
X54353864Y-23766606D01*
X54353863Y-22470868D01*
X56958864Y-22470868D01*
X56958864Y-23766603D01*
X56958865Y-23766609D01*
X56965272Y-23826216D01*
X57015566Y-23961061D01*
X57015570Y-23961068D01*
X57101816Y-24076277D01*
X57101819Y-24076280D01*
X57217028Y-24162526D01*
X57224818Y-24166780D01*
X57223567Y-24169069D01*
X57268578Y-24202758D01*
X57292999Y-24268221D01*
X57278152Y-24336495D01*
X57256998Y-24364756D01*
X57219953Y-24401801D01*
X57219952Y-24401803D01*
X57219950Y-24401805D01*
X57214204Y-24409714D01*
X57118132Y-24541944D01*
X57039492Y-24696285D01*
X56985961Y-24861035D01*
X56958864Y-25032122D01*
X56958864Y-25205343D01*
X56985961Y-25376430D01*
X56985961Y-25376432D01*
X56985962Y-25376434D01*
X57039491Y-25541178D01*
X57118132Y-25695521D01*
X57219950Y-25835661D01*
X57342436Y-25958147D01*
X57482576Y-26059965D01*
X57636919Y-26138606D01*
X57801663Y-26192135D01*
X57972753Y-26219233D01*
X57972754Y-26219233D01*
X58145974Y-26219233D01*
X58145975Y-26219233D01*
X58317065Y-26192135D01*
X58481809Y-26138606D01*
X58636152Y-26059965D01*
X58776292Y-25958147D01*
X58898778Y-25835661D01*
X59000596Y-25695521D01*
X59079237Y-25541178D01*
X59132766Y-25376434D01*
X59159864Y-25205344D01*
X59159864Y-25032122D01*
X59132766Y-24861032D01*
X59079237Y-24696288D01*
X59000596Y-24541945D01*
X58898778Y-24401805D01*
X58861729Y-24364756D01*
X58828245Y-24303434D01*
X58833229Y-24233742D01*
X58875101Y-24177809D01*
X58894229Y-24167365D01*
X58893910Y-24166780D01*
X58901690Y-24162530D01*
X58901695Y-24162529D01*
X59016910Y-24076279D01*
X59103160Y-23961064D01*
X59153455Y-23826216D01*
X59159864Y-23766606D01*
X59159863Y-22889648D01*
X63774500Y-22889648D01*
X63774500Y-23094351D01*
X63806522Y-23296534D01*
X63869781Y-23491223D01*
X63926908Y-23603339D01*
X63960639Y-23669540D01*
X63962715Y-23673613D01*
X64083028Y-23839213D01*
X64227786Y-23983971D01*
X64382749Y-24096556D01*
X64393390Y-24104287D01*
X64505153Y-24161233D01*
X64575776Y-24197218D01*
X64575778Y-24197218D01*
X64575781Y-24197220D01*
X64643527Y-24219232D01*
X64770465Y-24260477D01*
X64871557Y-24276488D01*
X64972648Y-24292500D01*
X64972649Y-24292500D01*
X65177351Y-24292500D01*
X65177352Y-24292500D01*
X65379534Y-24260477D01*
X65574219Y-24197220D01*
X65756610Y-24104287D01*
X65871934Y-24020500D01*
X65922213Y-23983971D01*
X65922215Y-23983968D01*
X65922219Y-23983966D01*
X66066966Y-23839219D01*
X66066968Y-23839215D01*
X66066971Y-23839213D01*
X66119732Y-23766590D01*
X66187287Y-23673610D01*
X66214515Y-23620171D01*
X66262490Y-23569376D01*
X66330311Y-23552581D01*
X66396446Y-23575118D01*
X66435484Y-23620171D01*
X66460639Y-23669540D01*
X66462715Y-23673613D01*
X66583028Y-23839213D01*
X66727786Y-23983971D01*
X66882749Y-24096556D01*
X66893390Y-24104287D01*
X67005153Y-24161233D01*
X67075776Y-24197218D01*
X67075778Y-24197218D01*
X67075781Y-24197220D01*
X67143527Y-24219232D01*
X67270465Y-24260477D01*
X67371557Y-24276488D01*
X67472648Y-24292500D01*
X67472649Y-24292500D01*
X67677351Y-24292500D01*
X67677352Y-24292500D01*
X67879534Y-24260477D01*
X68074219Y-24197220D01*
X68256610Y-24104287D01*
X68371934Y-24020500D01*
X68422213Y-23983971D01*
X68422215Y-23983968D01*
X68422219Y-23983966D01*
X68566966Y-23839219D01*
X68566968Y-23839215D01*
X68566971Y-23839213D01*
X68665673Y-23703359D01*
X68687287Y-23673610D01*
X68688650Y-23670935D01*
X68689438Y-23670099D01*
X68689832Y-23669458D01*
X68689966Y-23669540D01*
X68736622Y-23620137D01*
X68804442Y-23603339D01*
X68870578Y-23625873D01*
X68909621Y-23670929D01*
X68926138Y-23703345D01*
X68926147Y-23703359D01*
X68958523Y-23747921D01*
X68958524Y-23747922D01*
X69638000Y-23068446D01*
X69638000Y-23074661D01*
X69665259Y-23176394D01*
X69717920Y-23267606D01*
X69792394Y-23342080D01*
X69883606Y-23394741D01*
X69985339Y-23422000D01*
X69991553Y-23422000D01*
X69312076Y-24101474D01*
X69356652Y-24133861D01*
X69410376Y-24161234D01*
X69461172Y-24209208D01*
X69477968Y-24277028D01*
X69455431Y-24343164D01*
X69410379Y-24382203D01*
X69356386Y-24409714D01*
X69190786Y-24530028D01*
X69046028Y-24674786D01*
X68925715Y-24840386D01*
X68832781Y-25022776D01*
X68769522Y-25217465D01*
X68737500Y-25419648D01*
X68737500Y-25624351D01*
X68769522Y-25826534D01*
X68832781Y-26021223D01*
X68892591Y-26138604D01*
X68919866Y-26192135D01*
X68925715Y-26203613D01*
X69046028Y-26369213D01*
X69190786Y-26513971D01*
X69345749Y-26626556D01*
X69356390Y-26634287D01*
X69472607Y-26693503D01*
X69538776Y-26727218D01*
X69538778Y-26727218D01*
X69538781Y-26727220D01*
X69643137Y-26761127D01*
X69733465Y-26790477D01*
X69834557Y-26806488D01*
X69935648Y-26822500D01*
X69935649Y-26822500D01*
X70140351Y-26822500D01*
X70140352Y-26822500D01*
X70342534Y-26790477D01*
X70537219Y-26727220D01*
X70719610Y-26634287D01*
X70812590Y-26566732D01*
X70885213Y-26513971D01*
X70885215Y-26513968D01*
X70885219Y-26513966D01*
X71029966Y-26369219D01*
X71029968Y-26369215D01*
X71029971Y-26369213D01*
X71138936Y-26219233D01*
X71150287Y-26203610D01*
X71243220Y-26021219D01*
X71306477Y-25826534D01*
X71338500Y-25624352D01*
X71338500Y-25419648D01*
X71306477Y-25217466D01*
X71302538Y-25205344D01*
X71248105Y-25037816D01*
X71243220Y-25022781D01*
X71243218Y-25022778D01*
X71243218Y-25022776D01*
X71186502Y-24911466D01*
X71150287Y-24840390D01*
X71142556Y-24829749D01*
X71029971Y-24674786D01*
X70885213Y-24530028D01*
X70719611Y-24409713D01*
X70665621Y-24382203D01*
X70614825Y-24334228D01*
X70598031Y-24266407D01*
X70620569Y-24200272D01*
X70665624Y-24161233D01*
X70719349Y-24133859D01*
X70763921Y-24101474D01*
X70084447Y-23422000D01*
X70090661Y-23422000D01*
X70192394Y-23394741D01*
X70283606Y-23342080D01*
X70358080Y-23267606D01*
X70410741Y-23176394D01*
X70438000Y-23074661D01*
X70438000Y-23068447D01*
X71117474Y-23747921D01*
X71149859Y-23703349D01*
X71242755Y-23521031D01*
X71305990Y-23326417D01*
X71338000Y-23124317D01*
X71338000Y-22919682D01*
X71305989Y-22717581D01*
X71305989Y-22717578D01*
X71284387Y-22651094D01*
X71273519Y-22617648D01*
X76281500Y-22617648D01*
X76281500Y-22822351D01*
X76313522Y-23024534D01*
X76376781Y-23219223D01*
X76426655Y-23317105D01*
X76467676Y-23397613D01*
X76469715Y-23401613D01*
X76590028Y-23567213D01*
X76734786Y-23711971D01*
X76889749Y-23824556D01*
X76900390Y-23832287D01*
X77016607Y-23891503D01*
X77082776Y-23925218D01*
X77082778Y-23925218D01*
X77082781Y-23925220D01*
X77187137Y-23959127D01*
X77277465Y-23988477D01*
X77378557Y-24004488D01*
X77479648Y-24020500D01*
X77479649Y-24020500D01*
X77684351Y-24020500D01*
X77684352Y-24020500D01*
X77886534Y-23988477D01*
X78081219Y-23925220D01*
X78263610Y-23832287D01*
X78356590Y-23764732D01*
X78429213Y-23711971D01*
X78429215Y-23711968D01*
X78429219Y-23711966D01*
X78573966Y-23567219D01*
X78573968Y-23567215D01*
X78573971Y-23567213D01*
X78637359Y-23479965D01*
X78694287Y-23401610D01*
X78721515Y-23348171D01*
X78769490Y-23297376D01*
X78837311Y-23280581D01*
X78903446Y-23303118D01*
X78942484Y-23348171D01*
X78967676Y-23397613D01*
X78969715Y-23401613D01*
X79090028Y-23567213D01*
X79234786Y-23711971D01*
X79389749Y-23824556D01*
X79400390Y-23832287D01*
X79516607Y-23891503D01*
X79582776Y-23925218D01*
X79582778Y-23925218D01*
X79582781Y-23925220D01*
X79687137Y-23959127D01*
X79777465Y-23988477D01*
X79878557Y-24004488D01*
X79979648Y-24020500D01*
X79979649Y-24020500D01*
X80184351Y-24020500D01*
X80184352Y-24020500D01*
X80386534Y-23988477D01*
X80581219Y-23925220D01*
X80763610Y-23832287D01*
X80856590Y-23764732D01*
X80929213Y-23711971D01*
X80929215Y-23711968D01*
X80929219Y-23711966D01*
X81073966Y-23567219D01*
X81073968Y-23567215D01*
X81073971Y-23567213D01*
X81194284Y-23401614D01*
X81194285Y-23401613D01*
X81194287Y-23401610D01*
X81222034Y-23347152D01*
X81270008Y-23296357D01*
X81337829Y-23279562D01*
X81403964Y-23302099D01*
X81443003Y-23347152D01*
X81457474Y-23375553D01*
X81468715Y-23397614D01*
X81589028Y-23563213D01*
X81733786Y-23707971D01*
X81899388Y-23828286D01*
X81952828Y-23855516D01*
X82003623Y-23903490D01*
X82020418Y-23971312D01*
X81997880Y-24037446D01*
X81952828Y-24076484D01*
X81899388Y-24103713D01*
X81733786Y-24224028D01*
X81589028Y-24368786D01*
X81468715Y-24534386D01*
X81375781Y-24716776D01*
X81312522Y-24911465D01*
X81280500Y-25113648D01*
X81280500Y-25318351D01*
X81312522Y-25520534D01*
X81375781Y-25715223D01*
X81468715Y-25897613D01*
X81589028Y-26063213D01*
X81733786Y-26207971D01*
X81888749Y-26320556D01*
X81899390Y-26328287D01*
X82015607Y-26387503D01*
X82081776Y-26421218D01*
X82081778Y-26421218D01*
X82081781Y-26421220D01*
X82186137Y-26455127D01*
X82276465Y-26484477D01*
X82377557Y-26500488D01*
X82478648Y-26516500D01*
X82478649Y-26516500D01*
X82683351Y-26516500D01*
X82683352Y-26516500D01*
X82885534Y-26484477D01*
X83080219Y-26421220D01*
X83262610Y-26328287D01*
X83355590Y-26260732D01*
X83428213Y-26207971D01*
X83428215Y-26207968D01*
X83428219Y-26207966D01*
X83572966Y-26063219D01*
X83572968Y-26063215D01*
X83572971Y-26063213D01*
X83625732Y-25990590D01*
X83693287Y-25897610D01*
X83786220Y-25715219D01*
X83849477Y-25520534D01*
X83881500Y-25318352D01*
X83881500Y-25113648D01*
X83867107Y-25022776D01*
X83849477Y-24911465D01*
X83786218Y-24716776D01*
X83752503Y-24650607D01*
X83693287Y-24534390D01*
X83685556Y-24523749D01*
X83572971Y-24368786D01*
X83428213Y-24224028D01*
X83262613Y-24103715D01*
X83262612Y-24103714D01*
X83262610Y-24103713D01*
X83209171Y-24076484D01*
X83158376Y-24028510D01*
X83141581Y-23960689D01*
X83164118Y-23894554D01*
X83209172Y-23855515D01*
X83262610Y-23828287D01*
X83422707Y-23711971D01*
X83428213Y-23707971D01*
X83428215Y-23707968D01*
X83428219Y-23707966D01*
X83572966Y-23563219D01*
X83572968Y-23563215D01*
X83572971Y-23563213D01*
X83633453Y-23479965D01*
X83693287Y-23397610D01*
X83786220Y-23215219D01*
X83849477Y-23020534D01*
X83881500Y-22818352D01*
X83881500Y-22613648D01*
X83849477Y-22411465D01*
X83811985Y-22296077D01*
X83786220Y-22216781D01*
X83786218Y-22216778D01*
X83786218Y-22216776D01*
X83749534Y-22144781D01*
X83693287Y-22034390D01*
X83668322Y-22000028D01*
X83572971Y-21868786D01*
X83428213Y-21724028D01*
X83262613Y-21603715D01*
X83262612Y-21603714D01*
X83262610Y-21603713D01*
X83205653Y-21574691D01*
X83080223Y-21510781D01*
X82885534Y-21447522D01*
X82708607Y-21419500D01*
X82683352Y-21415500D01*
X82478648Y-21415500D01*
X82454329Y-21419351D01*
X82276465Y-21447522D01*
X82081776Y-21510781D01*
X81899386Y-21603715D01*
X81733786Y-21724028D01*
X81589028Y-21868786D01*
X81468714Y-22034386D01*
X81440964Y-22088848D01*
X81392988Y-22139643D01*
X81325167Y-22156437D01*
X81259033Y-22133898D01*
X81219995Y-22088845D01*
X81194286Y-22038388D01*
X81073971Y-21872786D01*
X80929213Y-21728028D01*
X80763613Y-21607715D01*
X80763612Y-21607714D01*
X80763610Y-21607713D01*
X80706653Y-21578691D01*
X80581223Y-21514781D01*
X80386534Y-21451522D01*
X80209916Y-21423549D01*
X80184352Y-21419500D01*
X79979648Y-21419500D01*
X79955329Y-21423351D01*
X79777465Y-21451522D01*
X79582776Y-21514781D01*
X79400386Y-21607715D01*
X79234786Y-21728028D01*
X79090028Y-21872786D01*
X78969713Y-22038388D01*
X78942484Y-22091828D01*
X78894510Y-22142623D01*
X78826688Y-22159418D01*
X78760554Y-22136880D01*
X78721516Y-22091828D01*
X78694286Y-22038388D01*
X78573971Y-21872786D01*
X78429213Y-21728028D01*
X78263613Y-21607715D01*
X78263612Y-21607714D01*
X78263610Y-21607713D01*
X78206653Y-21578691D01*
X78081223Y-21514781D01*
X77886534Y-21451522D01*
X77709916Y-21423549D01*
X77684352Y-21419500D01*
X77479648Y-21419500D01*
X77455329Y-21423351D01*
X77277465Y-21451522D01*
X77082776Y-21514781D01*
X76900386Y-21607715D01*
X76734786Y-21728028D01*
X76590028Y-21872786D01*
X76469715Y-22038386D01*
X76376781Y-22220776D01*
X76313522Y-22415465D01*
X76281500Y-22617648D01*
X71273519Y-22617648D01*
X71242755Y-22522968D01*
X71149859Y-22340650D01*
X71117474Y-22296077D01*
X71117474Y-22296076D01*
X70438000Y-22975551D01*
X70438000Y-22969339D01*
X70410741Y-22867606D01*
X70358080Y-22776394D01*
X70283606Y-22701920D01*
X70192394Y-22649259D01*
X70090661Y-22622000D01*
X70084446Y-22622000D01*
X70763922Y-21942524D01*
X70763921Y-21942523D01*
X70719359Y-21910147D01*
X70719350Y-21910141D01*
X70537031Y-21817244D01*
X70342417Y-21754009D01*
X70140317Y-21722000D01*
X69935683Y-21722000D01*
X69733582Y-21754009D01*
X69538968Y-21817244D01*
X69356644Y-21910143D01*
X69312077Y-21942523D01*
X69312077Y-21942524D01*
X69991554Y-22622000D01*
X69985339Y-22622000D01*
X69883606Y-22649259D01*
X69792394Y-22701920D01*
X69717920Y-22776394D01*
X69665259Y-22867606D01*
X69638000Y-22969339D01*
X69638000Y-22975553D01*
X68958524Y-22296077D01*
X68958523Y-22296077D01*
X68926143Y-22340645D01*
X68926142Y-22340646D01*
X68924904Y-22343077D01*
X68924191Y-22343831D01*
X68923601Y-22344795D01*
X68923398Y-22344670D01*
X68876926Y-22393869D01*
X68809103Y-22410660D01*
X68742970Y-22388117D01*
X68703939Y-22343070D01*
X68687286Y-22310388D01*
X68566971Y-22144786D01*
X68422213Y-22000028D01*
X68256613Y-21879715D01*
X68256612Y-21879714D01*
X68256610Y-21879713D01*
X68199653Y-21850691D01*
X68074223Y-21786781D01*
X67879534Y-21723522D01*
X67704995Y-21695878D01*
X67677352Y-21691500D01*
X67472648Y-21691500D01*
X67448329Y-21695351D01*
X67270465Y-21723522D01*
X67075776Y-21786781D01*
X66893386Y-21879715D01*
X66727786Y-22000028D01*
X66583028Y-22144786D01*
X66462713Y-22310388D01*
X66435484Y-22363828D01*
X66387510Y-22414623D01*
X66319688Y-22431418D01*
X66253554Y-22408880D01*
X66214516Y-22363828D01*
X66187286Y-22310388D01*
X66066971Y-22144786D01*
X65922213Y-22000028D01*
X65756613Y-21879715D01*
X65756612Y-21879714D01*
X65756610Y-21879713D01*
X65699653Y-21850691D01*
X65574223Y-21786781D01*
X65379534Y-21723522D01*
X65204995Y-21695878D01*
X65177352Y-21691500D01*
X64972648Y-21691500D01*
X64948329Y-21695351D01*
X64770465Y-21723522D01*
X64575776Y-21786781D01*
X64393386Y-21879715D01*
X64227786Y-22000028D01*
X64083028Y-22144786D01*
X63962715Y-22310386D01*
X63869781Y-22492776D01*
X63806522Y-22687465D01*
X63774500Y-22889648D01*
X59159863Y-22889648D01*
X59159863Y-22470861D01*
X59153455Y-22411250D01*
X59146972Y-22393869D01*
X59103161Y-22276404D01*
X59103157Y-22276397D01*
X59016911Y-22161188D01*
X59016908Y-22161185D01*
X58901699Y-22074939D01*
X58901692Y-22074935D01*
X58766846Y-22024641D01*
X58766847Y-22024641D01*
X58707247Y-22018234D01*
X58707245Y-22018233D01*
X58707237Y-22018233D01*
X58707228Y-22018233D01*
X57411493Y-22018233D01*
X57411487Y-22018234D01*
X57351880Y-22024641D01*
X57217035Y-22074935D01*
X57217028Y-22074939D01*
X57101819Y-22161185D01*
X57101816Y-22161188D01*
X57015570Y-22276397D01*
X57015566Y-22276404D01*
X56965272Y-22411250D01*
X56958953Y-22470032D01*
X56958865Y-22470856D01*
X56958864Y-22470868D01*
X54353863Y-22470868D01*
X54353863Y-22470861D01*
X54347455Y-22411250D01*
X54340972Y-22393869D01*
X54297161Y-22276404D01*
X54297157Y-22276397D01*
X54210911Y-22161188D01*
X54210908Y-22161185D01*
X54095699Y-22074939D01*
X54095692Y-22074935D01*
X53960846Y-22024641D01*
X53960847Y-22024641D01*
X53901247Y-22018234D01*
X53901245Y-22018233D01*
X53901237Y-22018233D01*
X53901228Y-22018233D01*
X52605493Y-22018233D01*
X52605487Y-22018234D01*
X52545880Y-22024641D01*
X52411035Y-22074935D01*
X52411028Y-22074939D01*
X52295819Y-22161185D01*
X52295816Y-22161188D01*
X52209570Y-22276397D01*
X52209566Y-22276404D01*
X52159272Y-22411250D01*
X52152953Y-22470032D01*
X52152865Y-22470856D01*
X52152864Y-22470868D01*
X19793864Y-22470868D01*
X19793864Y-22258875D01*
X19764768Y-22037869D01*
X19707074Y-21822551D01*
X19621769Y-21616606D01*
X19510312Y-21423558D01*
X19374611Y-21246708D01*
X19374606Y-21246702D01*
X19216993Y-21089089D01*
X19216986Y-21089083D01*
X19040146Y-20953390D01*
X19040144Y-20953389D01*
X19040138Y-20953384D01*
X18847090Y-20841927D01*
X18847081Y-20841922D01*
X18768547Y-20809393D01*
X18714143Y-20765552D01*
X18692078Y-20699258D01*
X18709357Y-20631559D01*
X18760494Y-20583948D01*
X18815999Y-20570832D01*
X19093367Y-20570832D01*
X19093372Y-20570832D01*
X19196161Y-20560331D01*
X19362698Y-20505146D01*
X19512019Y-20413043D01*
X19636075Y-20288987D01*
X19728178Y-20139666D01*
X19783363Y-19973129D01*
X19793864Y-19870340D01*
X19793864Y-18122776D01*
X23526864Y-18122776D01*
X23526864Y-19617887D01*
X23533148Y-19708425D01*
X23533150Y-19708441D01*
X23583023Y-19920488D01*
X23583025Y-19920493D01*
X23583026Y-19920496D01*
X23671021Y-20119786D01*
X23754443Y-20241566D01*
X23794137Y-20299513D01*
X23794142Y-20299519D01*
X23948176Y-20453553D01*
X23948182Y-20453558D01*
X24127910Y-20576675D01*
X24327200Y-20664670D01*
X24327205Y-20664671D01*
X24327207Y-20664672D01*
X24539254Y-20714545D01*
X24539259Y-20714545D01*
X24539265Y-20714547D01*
X24589568Y-20718038D01*
X24629808Y-20720832D01*
X24629812Y-20720832D01*
X26124920Y-20720832D01*
X26161134Y-20718318D01*
X26215463Y-20714547D01*
X26215469Y-20714545D01*
X26215473Y-20714545D01*
X26427520Y-20664672D01*
X26427520Y-20664671D01*
X26427528Y-20664670D01*
X26626818Y-20576675D01*
X26806546Y-20453558D01*
X26960590Y-20299514D01*
X27083707Y-20119786D01*
X27171702Y-19920496D01*
X27203849Y-19783815D01*
X27221577Y-19708441D01*
X27221577Y-19708437D01*
X27221579Y-19708431D01*
X27227864Y-19617884D01*
X27227864Y-18122780D01*
X27227864Y-18122776D01*
X30286864Y-18122776D01*
X30286864Y-19617887D01*
X30293148Y-19708425D01*
X30293150Y-19708441D01*
X30343023Y-19920488D01*
X30343025Y-19920493D01*
X30343026Y-19920496D01*
X30431021Y-20119786D01*
X30514443Y-20241566D01*
X30554137Y-20299513D01*
X30554142Y-20299519D01*
X30708176Y-20453553D01*
X30708182Y-20453558D01*
X30887910Y-20576675D01*
X31087200Y-20664670D01*
X31087205Y-20664671D01*
X31087207Y-20664672D01*
X31299254Y-20714545D01*
X31299259Y-20714545D01*
X31299265Y-20714547D01*
X31349568Y-20718038D01*
X31389808Y-20720832D01*
X31389812Y-20720832D01*
X32884920Y-20720832D01*
X32921134Y-20718318D01*
X32975463Y-20714547D01*
X32975469Y-20714545D01*
X32975473Y-20714545D01*
X33187520Y-20664672D01*
X33187520Y-20664671D01*
X33187528Y-20664670D01*
X33386818Y-20576675D01*
X33566546Y-20453558D01*
X33720590Y-20299514D01*
X33843707Y-20119786D01*
X33931702Y-19920496D01*
X33963849Y-19783815D01*
X33981577Y-19708441D01*
X33981577Y-19708437D01*
X33981579Y-19708431D01*
X33987864Y-19617884D01*
X33987864Y-18749043D01*
X37566864Y-18749043D01*
X37566864Y-18991620D01*
X37597763Y-19226332D01*
X37598526Y-19232121D01*
X37611781Y-19281590D01*
X37661311Y-19466436D01*
X37754137Y-19690537D01*
X37754141Y-19690546D01*
X37764464Y-19708425D01*
X37875428Y-19900621D01*
X37875430Y-19900624D01*
X37875431Y-19900625D01*
X38023097Y-20093068D01*
X38023103Y-20093075D01*
X38194620Y-20264592D01*
X38194627Y-20264598D01*
X38240131Y-20299514D01*
X38387075Y-20412268D01*
X38597152Y-20533556D01*
X38821264Y-20626386D01*
X39055575Y-20689170D01*
X39232628Y-20712479D01*
X39296075Y-20720832D01*
X39296076Y-20720832D01*
X39538653Y-20720832D01*
X39602100Y-20712479D01*
X39779153Y-20689170D01*
X40013464Y-20626386D01*
X40237576Y-20533556D01*
X40447653Y-20412268D01*
X40640102Y-20264597D01*
X40811629Y-20093070D01*
X40959300Y-19900621D01*
X41080588Y-19690544D01*
X41173418Y-19466432D01*
X41236202Y-19232121D01*
X41267864Y-18991620D01*
X41267864Y-18749044D01*
X41267864Y-18749043D01*
X44326864Y-18749043D01*
X44326864Y-18991620D01*
X44357763Y-19226332D01*
X44358526Y-19232121D01*
X44371781Y-19281590D01*
X44421311Y-19466436D01*
X44514137Y-19690537D01*
X44514141Y-19690546D01*
X44524464Y-19708425D01*
X44635428Y-19900621D01*
X44635430Y-19900624D01*
X44635431Y-19900625D01*
X44783097Y-20093068D01*
X44783103Y-20093075D01*
X44954620Y-20264592D01*
X44954627Y-20264598D01*
X45000131Y-20299514D01*
X45147075Y-20412268D01*
X45357152Y-20533556D01*
X45581264Y-20626386D01*
X45815575Y-20689170D01*
X45992628Y-20712479D01*
X46056075Y-20720832D01*
X46056076Y-20720832D01*
X46298653Y-20720832D01*
X46362100Y-20712479D01*
X46539153Y-20689170D01*
X46773464Y-20626386D01*
X46997576Y-20533556D01*
X47207653Y-20412268D01*
X47400102Y-20264597D01*
X47571629Y-20093070D01*
X47719300Y-19900621D01*
X47840588Y-19690544D01*
X47933418Y-19466432D01*
X47996202Y-19232121D01*
X48027864Y-18991620D01*
X48027864Y-18749044D01*
X47996202Y-18508543D01*
X47933418Y-18274232D01*
X47840588Y-18050120D01*
X47719300Y-17840043D01*
X47598232Y-17682264D01*
X47571630Y-17647595D01*
X47571624Y-17647588D01*
X47400107Y-17476071D01*
X47400100Y-17476065D01*
X47207657Y-17328399D01*
X47207656Y-17328398D01*
X47207653Y-17328396D01*
X46997576Y-17207108D01*
X46937542Y-17182241D01*
X46773468Y-17114279D01*
X46539149Y-17051493D01*
X46298653Y-17019832D01*
X46298652Y-17019832D01*
X46056076Y-17019832D01*
X46056075Y-17019832D01*
X45815578Y-17051493D01*
X45581259Y-17114279D01*
X45357158Y-17207105D01*
X45357149Y-17207109D01*
X45226943Y-17282284D01*
X45148418Y-17327621D01*
X45147070Y-17328399D01*
X44954627Y-17476065D01*
X44954620Y-17476071D01*
X44783103Y-17647588D01*
X44783097Y-17647595D01*
X44635431Y-17840038D01*
X44514141Y-18050117D01*
X44514137Y-18050126D01*
X44421311Y-18274227D01*
X44358525Y-18508546D01*
X44326864Y-18749043D01*
X41267864Y-18749043D01*
X41236202Y-18508543D01*
X41173418Y-18274232D01*
X41080588Y-18050120D01*
X40959300Y-17840043D01*
X40838232Y-17682264D01*
X40811630Y-17647595D01*
X40811624Y-17647588D01*
X40640107Y-17476071D01*
X40640100Y-17476065D01*
X40447657Y-17328399D01*
X40447656Y-17328398D01*
X40447653Y-17328396D01*
X40237576Y-17207108D01*
X40177542Y-17182241D01*
X40013468Y-17114279D01*
X39779149Y-17051493D01*
X39538653Y-17019832D01*
X39538652Y-17019832D01*
X39296076Y-17019832D01*
X39296075Y-17019832D01*
X39055578Y-17051493D01*
X38821259Y-17114279D01*
X38597158Y-17207105D01*
X38597149Y-17207109D01*
X38466943Y-17282284D01*
X38388418Y-17327621D01*
X38387070Y-17328399D01*
X38194627Y-17476065D01*
X38194620Y-17476071D01*
X38023103Y-17647588D01*
X38023097Y-17647595D01*
X37875431Y-17840038D01*
X37754141Y-18050117D01*
X37754137Y-18050126D01*
X37661311Y-18274227D01*
X37598525Y-18508546D01*
X37566864Y-18749043D01*
X33987864Y-18749043D01*
X33987864Y-18122780D01*
X33981579Y-18032233D01*
X33981577Y-18032227D01*
X33981577Y-18032222D01*
X33931704Y-17820175D01*
X33931703Y-17820173D01*
X33931702Y-17820168D01*
X33843707Y-17620878D01*
X33720590Y-17441150D01*
X33720585Y-17441144D01*
X33566551Y-17287110D01*
X33566545Y-17287105D01*
X33534010Y-17264818D01*
X33386818Y-17163989D01*
X33187528Y-17075994D01*
X33187525Y-17075993D01*
X33187520Y-17075991D01*
X32975473Y-17026118D01*
X32975457Y-17026116D01*
X32884920Y-17019832D01*
X32884916Y-17019832D01*
X31389812Y-17019832D01*
X31389808Y-17019832D01*
X31299270Y-17026116D01*
X31299254Y-17026118D01*
X31087207Y-17075991D01*
X31087200Y-17075994D01*
X30887914Y-17163987D01*
X30887913Y-17163987D01*
X30887910Y-17163989D01*
X30838520Y-17197822D01*
X30708182Y-17287105D01*
X30708176Y-17287110D01*
X30554142Y-17441144D01*
X30554137Y-17441150D01*
X30500907Y-17518857D01*
X30431021Y-17620878D01*
X30431019Y-17620881D01*
X30431019Y-17620882D01*
X30343026Y-17820168D01*
X30343023Y-17820175D01*
X30293150Y-18032222D01*
X30293148Y-18032238D01*
X30286864Y-18122776D01*
X27227864Y-18122776D01*
X27221579Y-18032233D01*
X27221577Y-18032227D01*
X27221577Y-18032222D01*
X27171704Y-17820175D01*
X27171703Y-17820173D01*
X27171702Y-17820168D01*
X27083707Y-17620878D01*
X26960590Y-17441150D01*
X26960585Y-17441144D01*
X26806551Y-17287110D01*
X26806545Y-17287105D01*
X26774010Y-17264818D01*
X26626818Y-17163989D01*
X26427528Y-17075994D01*
X26427525Y-17075993D01*
X26427520Y-17075991D01*
X26215473Y-17026118D01*
X26215457Y-17026116D01*
X26124920Y-17019832D01*
X26124916Y-17019832D01*
X24629812Y-17019832D01*
X24629808Y-17019832D01*
X24539270Y-17026116D01*
X24539254Y-17026118D01*
X24327207Y-17075991D01*
X24327200Y-17075994D01*
X24127914Y-17163987D01*
X24127913Y-17163987D01*
X24127910Y-17163989D01*
X24078520Y-17197822D01*
X23948182Y-17287105D01*
X23948176Y-17287110D01*
X23794142Y-17441144D01*
X23794137Y-17441150D01*
X23740907Y-17518857D01*
X23671021Y-17620878D01*
X23671019Y-17620881D01*
X23671019Y-17620882D01*
X23583026Y-17820168D01*
X23583023Y-17820175D01*
X23533150Y-18032222D01*
X23533148Y-18032238D01*
X23526864Y-18122776D01*
X19793864Y-18122776D01*
X19793864Y-17870324D01*
X19783363Y-17767535D01*
X19728178Y-17600998D01*
X19708348Y-17568849D01*
X19636077Y-17451680D01*
X19636074Y-17451676D01*
X19512019Y-17327621D01*
X19512015Y-17327618D01*
X19362701Y-17235519D01*
X19362699Y-17235518D01*
X19248939Y-17197822D01*
X19196161Y-17180333D01*
X19196159Y-17180332D01*
X19093379Y-17169832D01*
X19093372Y-17169832D01*
X17093356Y-17169832D01*
X17093348Y-17169832D01*
X16990568Y-17180332D01*
X16990567Y-17180333D01*
X16824028Y-17235518D01*
X16824026Y-17235519D01*
X16674712Y-17327618D01*
X16674708Y-17327621D01*
X16550653Y-17451676D01*
X16550650Y-17451680D01*
X16458551Y-17600994D01*
X16458550Y-17600996D01*
X16403365Y-17767535D01*
X16403364Y-17767536D01*
X16392864Y-17870316D01*
X13644050Y-17870316D01*
X13644050Y-16212088D01*
X50760864Y-16212088D01*
X50760864Y-17907823D01*
X50760865Y-17907829D01*
X50767272Y-17967436D01*
X50817566Y-18102281D01*
X50817570Y-18102288D01*
X50903816Y-18217497D01*
X50903819Y-18217500D01*
X51019028Y-18303746D01*
X51019035Y-18303750D01*
X51153878Y-18354043D01*
X51153881Y-18354044D01*
X51153883Y-18354044D01*
X51159397Y-18355347D01*
X51220115Y-18389918D01*
X51252503Y-18451827D01*
X51246279Y-18521419D01*
X51216397Y-18563349D01*
X51217590Y-18564542D01*
X51069396Y-18712735D01*
X51069392Y-18712739D01*
X50949079Y-18878339D01*
X50856145Y-19060729D01*
X50792886Y-19255418D01*
X50760864Y-19457601D01*
X50760864Y-19662304D01*
X50792886Y-19864487D01*
X50856145Y-20059176D01*
X50949079Y-20241566D01*
X51069392Y-20407166D01*
X51214150Y-20551924D01*
X51339950Y-20643321D01*
X51379754Y-20672240D01*
X51475121Y-20720832D01*
X51562140Y-20765171D01*
X51562142Y-20765171D01*
X51562145Y-20765173D01*
X51666501Y-20799080D01*
X51756829Y-20828430D01*
X51842014Y-20841922D01*
X51959012Y-20860453D01*
X51959013Y-20860453D01*
X52163715Y-20860453D01*
X52163716Y-20860453D01*
X52365898Y-20828430D01*
X52560583Y-20765173D01*
X52742974Y-20672240D01*
X52874509Y-20576675D01*
X52908577Y-20551924D01*
X52908579Y-20551921D01*
X52908583Y-20551919D01*
X53053330Y-20407172D01*
X53053332Y-20407168D01*
X53053335Y-20407166D01*
X53131548Y-20299513D01*
X53173651Y-20241563D01*
X53266584Y-20059172D01*
X53329841Y-19864487D01*
X53361864Y-19662305D01*
X53361864Y-19457601D01*
X53333986Y-19281587D01*
X53329841Y-19255418D01*
X53300491Y-19165090D01*
X53266584Y-19060734D01*
X53266582Y-19060731D01*
X53266582Y-19060729D01*
X53215358Y-18960198D01*
X53173651Y-18878343D01*
X53165920Y-18867702D01*
X53053335Y-18712739D01*
X52905138Y-18564542D01*
X52906583Y-18563096D01*
X52873101Y-18511759D01*
X52872632Y-18441891D01*
X52910010Y-18382860D01*
X52963331Y-18355347D01*
X52968842Y-18354044D01*
X52968847Y-18354044D01*
X53103695Y-18303749D01*
X53218910Y-18217499D01*
X53305160Y-18102284D01*
X53355455Y-17967436D01*
X53361864Y-17907826D01*
X53361863Y-16212088D01*
X58025864Y-16212088D01*
X58025864Y-17907823D01*
X58025865Y-17907829D01*
X58032272Y-17967436D01*
X58082566Y-18102281D01*
X58082570Y-18102288D01*
X58168816Y-18217497D01*
X58168819Y-18217500D01*
X58284028Y-18303746D01*
X58284035Y-18303750D01*
X58418878Y-18354043D01*
X58418881Y-18354044D01*
X58418883Y-18354044D01*
X58424397Y-18355347D01*
X58485115Y-18389918D01*
X58517503Y-18451827D01*
X58511279Y-18521419D01*
X58481397Y-18563349D01*
X58482590Y-18564542D01*
X58334396Y-18712735D01*
X58334392Y-18712739D01*
X58214079Y-18878339D01*
X58121145Y-19060729D01*
X58057886Y-19255418D01*
X58025864Y-19457601D01*
X58025864Y-19662304D01*
X58057886Y-19864487D01*
X58121145Y-20059176D01*
X58214079Y-20241566D01*
X58334392Y-20407166D01*
X58479150Y-20551924D01*
X58604950Y-20643321D01*
X58644754Y-20672240D01*
X58740121Y-20720832D01*
X58827140Y-20765171D01*
X58827142Y-20765171D01*
X58827145Y-20765173D01*
X58931501Y-20799080D01*
X59021829Y-20828430D01*
X59107014Y-20841922D01*
X59224012Y-20860453D01*
X59224013Y-20860453D01*
X59428715Y-20860453D01*
X59428716Y-20860453D01*
X59630898Y-20828430D01*
X59825583Y-20765173D01*
X60007974Y-20672240D01*
X60139509Y-20576675D01*
X60173577Y-20551924D01*
X60173579Y-20551921D01*
X60173583Y-20551919D01*
X60318330Y-20407172D01*
X60318332Y-20407168D01*
X60318335Y-20407166D01*
X60396548Y-20299513D01*
X60438651Y-20241563D01*
X60531584Y-20059172D01*
X60594841Y-19864487D01*
X60626864Y-19662305D01*
X60626864Y-19457601D01*
X60598986Y-19281587D01*
X60594841Y-19255418D01*
X60565491Y-19165090D01*
X60531584Y-19060734D01*
X60531582Y-19060731D01*
X60531582Y-19060729D01*
X60480358Y-18960198D01*
X60438651Y-18878343D01*
X60430920Y-18867702D01*
X60318335Y-18712739D01*
X60170138Y-18564542D01*
X60171583Y-18563096D01*
X60138101Y-18511759D01*
X60137632Y-18441891D01*
X60175010Y-18382860D01*
X60228331Y-18355347D01*
X60233842Y-18354044D01*
X60233847Y-18354044D01*
X60368695Y-18303749D01*
X60483910Y-18217499D01*
X60570160Y-18102284D01*
X60620455Y-17967436D01*
X60626864Y-17907826D01*
X60626864Y-17628467D01*
X65200364Y-17628467D01*
X65200364Y-19724202D01*
X65200365Y-19724208D01*
X65206772Y-19783815D01*
X65257066Y-19918660D01*
X65257070Y-19918667D01*
X65343316Y-20033876D01*
X65343319Y-20033879D01*
X65458528Y-20120125D01*
X65458535Y-20120129D01*
X65593381Y-20170423D01*
X65593380Y-20170423D01*
X65600308Y-20171167D01*
X65652991Y-20176832D01*
X67653736Y-20176831D01*
X67713347Y-20170423D01*
X67848195Y-20120128D01*
X67963410Y-20033878D01*
X68049660Y-19918663D01*
X68060054Y-19890792D01*
X68101924Y-19834859D01*
X68167387Y-19810440D01*
X68235661Y-19825290D01*
X68249110Y-19833797D01*
X68431826Y-19966549D01*
X68563963Y-20033876D01*
X68635608Y-20070381D01*
X68853115Y-20141053D01*
X68853116Y-20141053D01*
X68853119Y-20141054D01*
X69079010Y-20176832D01*
X69079011Y-20176832D01*
X69307717Y-20176832D01*
X69307718Y-20176832D01*
X69533609Y-20141054D01*
X69533612Y-20141053D01*
X69533613Y-20141053D01*
X69751119Y-20070381D01*
X69751119Y-20070380D01*
X69751122Y-20070380D01*
X69954902Y-19966549D01*
X70139930Y-19832118D01*
X70301650Y-19670398D01*
X70363356Y-19585466D01*
X70418683Y-19542802D01*
X70488296Y-19536823D01*
X70550091Y-19569428D01*
X70563990Y-19585467D01*
X70625461Y-19670073D01*
X70625461Y-19670074D01*
X70787121Y-19831734D01*
X70972087Y-19966120D01*
X71175793Y-20069914D01*
X71393235Y-20140566D01*
X71483364Y-20154841D01*
X71483364Y-19167079D01*
X71521072Y-19188850D01*
X71660955Y-19226332D01*
X71805773Y-19226332D01*
X71945656Y-19188850D01*
X71983364Y-19167079D01*
X71983364Y-20154840D01*
X72073492Y-20140566D01*
X72290934Y-20069914D01*
X72494640Y-19966120D01*
X72679606Y-19831734D01*
X72841266Y-19670074D01*
X72975652Y-19485108D01*
X73079446Y-19281402D01*
X73150098Y-19063960D01*
X73171896Y-18926332D01*
X72224112Y-18926332D01*
X72245882Y-18888624D01*
X72283364Y-18748741D01*
X72283364Y-18603923D01*
X72245882Y-18464040D01*
X72224112Y-18426332D01*
X73171896Y-18426332D01*
X73150098Y-18288703D01*
X73079446Y-18071261D01*
X72975652Y-17867555D01*
X72852480Y-17698024D01*
X72852479Y-17698022D01*
X72841269Y-17682592D01*
X72787144Y-17628467D01*
X76034364Y-17628467D01*
X76034364Y-19724202D01*
X76034365Y-19724208D01*
X76040772Y-19783815D01*
X76091066Y-19918660D01*
X76091070Y-19918667D01*
X76177316Y-20033876D01*
X76177319Y-20033879D01*
X76292528Y-20120125D01*
X76292535Y-20120129D01*
X76427381Y-20170423D01*
X76427380Y-20170423D01*
X76434308Y-20171167D01*
X76486991Y-20176832D01*
X78487736Y-20176831D01*
X78547347Y-20170423D01*
X78682195Y-20120128D01*
X78797410Y-20033878D01*
X78883660Y-19918663D01*
X78894054Y-19890792D01*
X78935924Y-19834859D01*
X79001387Y-19810440D01*
X79069661Y-19825290D01*
X79083110Y-19833797D01*
X79265826Y-19966549D01*
X79397963Y-20033876D01*
X79469608Y-20070381D01*
X79687115Y-20141053D01*
X79687116Y-20141053D01*
X79687119Y-20141054D01*
X79913010Y-20176832D01*
X79913011Y-20176832D01*
X80141717Y-20176832D01*
X80141718Y-20176832D01*
X80367609Y-20141054D01*
X80367612Y-20141053D01*
X80367613Y-20141053D01*
X80585119Y-20070381D01*
X80585119Y-20070380D01*
X80585122Y-20070380D01*
X80788902Y-19966549D01*
X80973930Y-19832118D01*
X81135650Y-19670398D01*
X81197047Y-19585891D01*
X81252376Y-19543228D01*
X81321989Y-19537249D01*
X81383784Y-19569855D01*
X81397678Y-19585888D01*
X81459078Y-19670398D01*
X81620798Y-19832118D01*
X81805826Y-19966549D01*
X81937963Y-20033876D01*
X82009608Y-20070381D01*
X82227115Y-20141053D01*
X82227116Y-20141053D01*
X82227119Y-20141054D01*
X82453010Y-20176832D01*
X82453011Y-20176832D01*
X82681717Y-20176832D01*
X82681718Y-20176832D01*
X82907609Y-20141054D01*
X82907612Y-20141053D01*
X82907613Y-20141053D01*
X83125119Y-20070381D01*
X83125119Y-20070380D01*
X83125122Y-20070380D01*
X83328902Y-19966549D01*
X83513930Y-19832118D01*
X83675650Y-19670398D01*
X83810081Y-19485370D01*
X83913912Y-19281590D01*
X83913973Y-19281402D01*
X83984585Y-19064081D01*
X83984585Y-19064080D01*
X83984586Y-19064077D01*
X83991596Y-19019816D01*
X88383864Y-19019816D01*
X88383864Y-20715551D01*
X88383865Y-20715557D01*
X88390272Y-20775164D01*
X88440566Y-20910009D01*
X88440570Y-20910016D01*
X88526816Y-21025225D01*
X88526819Y-21025228D01*
X88642028Y-21111474D01*
X88642035Y-21111478D01*
X88776878Y-21161771D01*
X88776881Y-21161772D01*
X88776883Y-21161772D01*
X88782397Y-21163075D01*
X88843115Y-21197646D01*
X88875503Y-21259555D01*
X88869279Y-21329147D01*
X88839397Y-21371077D01*
X88840590Y-21372270D01*
X88692396Y-21520463D01*
X88692392Y-21520467D01*
X88572079Y-21686067D01*
X88479145Y-21868457D01*
X88415886Y-22063146D01*
X88390920Y-22220781D01*
X88383864Y-22265329D01*
X88383864Y-22470033D01*
X88387466Y-22492776D01*
X88415886Y-22672215D01*
X88479145Y-22866904D01*
X88572079Y-23049294D01*
X88692392Y-23214894D01*
X88837150Y-23359652D01*
X88992113Y-23472237D01*
X89002754Y-23479968D01*
X89083345Y-23521031D01*
X89185140Y-23572899D01*
X89185142Y-23572899D01*
X89185145Y-23572901D01*
X89278824Y-23603339D01*
X89379829Y-23636158D01*
X89477161Y-23651574D01*
X89582012Y-23668181D01*
X89582013Y-23668181D01*
X89786715Y-23668181D01*
X89786716Y-23668181D01*
X89988898Y-23636158D01*
X90183583Y-23572901D01*
X90365974Y-23479968D01*
X90473821Y-23401613D01*
X90531577Y-23359652D01*
X90531579Y-23359649D01*
X90531583Y-23359647D01*
X90676330Y-23214900D01*
X90676332Y-23214896D01*
X90676335Y-23214894D01*
X90742333Y-23124054D01*
X90796651Y-23049291D01*
X90889584Y-22866900D01*
X90952841Y-22672215D01*
X90984864Y-22470033D01*
X90984864Y-22265329D01*
X90977174Y-22216776D01*
X90952841Y-22063146D01*
X90893240Y-21879715D01*
X90889584Y-21868462D01*
X90889582Y-21868459D01*
X90889582Y-21868457D01*
X90818029Y-21728028D01*
X90796651Y-21686071D01*
X90788920Y-21675430D01*
X90676335Y-21520467D01*
X90528138Y-21372270D01*
X90529583Y-21370824D01*
X90496101Y-21319487D01*
X90495632Y-21249619D01*
X90533010Y-21190588D01*
X90586331Y-21163075D01*
X90591842Y-21161772D01*
X90591847Y-21161772D01*
X90726695Y-21111477D01*
X90841910Y-21025227D01*
X90928160Y-20910012D01*
X90978455Y-20775164D01*
X90984864Y-20715554D01*
X90984863Y-19019809D01*
X90978455Y-18960198D01*
X90973102Y-18945847D01*
X90928161Y-18825352D01*
X90928157Y-18825345D01*
X90841911Y-18710136D01*
X90841908Y-18710133D01*
X90726699Y-18623887D01*
X90726692Y-18623883D01*
X90591846Y-18573589D01*
X90591847Y-18573589D01*
X90532247Y-18567182D01*
X90532245Y-18567181D01*
X90532237Y-18567181D01*
X90532228Y-18567181D01*
X88836493Y-18567181D01*
X88836487Y-18567182D01*
X88776880Y-18573589D01*
X88642035Y-18623883D01*
X88642028Y-18623887D01*
X88526819Y-18710133D01*
X88526816Y-18710136D01*
X88440570Y-18825345D01*
X88440566Y-18825352D01*
X88390272Y-18960198D01*
X88384484Y-19014040D01*
X88383865Y-19019804D01*
X88383864Y-19019816D01*
X83991596Y-19019816D01*
X84020364Y-18838186D01*
X84020364Y-18514478D01*
X83984586Y-18288587D01*
X83984585Y-18288583D01*
X83984585Y-18288582D01*
X83913913Y-18071076D01*
X83894124Y-18032238D01*
X83810081Y-17867294D01*
X83675650Y-17682266D01*
X83513930Y-17520546D01*
X83328902Y-17386115D01*
X83214101Y-17327621D01*
X83125119Y-17282282D01*
X82907612Y-17211610D01*
X82722176Y-17182240D01*
X82681718Y-17175832D01*
X82453010Y-17175832D01*
X82412552Y-17182240D01*
X82227117Y-17211610D01*
X82227114Y-17211610D01*
X82009608Y-17282282D01*
X81805825Y-17386115D01*
X81739914Y-17434003D01*
X81620798Y-17520546D01*
X81620796Y-17520548D01*
X81620795Y-17520548D01*
X81459079Y-17682264D01*
X81397682Y-17766770D01*
X81342351Y-17809435D01*
X81272738Y-17815414D01*
X81210943Y-17782808D01*
X81197046Y-17766770D01*
X81186137Y-17751755D01*
X81135650Y-17682266D01*
X80973930Y-17520546D01*
X80788902Y-17386115D01*
X80674101Y-17327621D01*
X80585119Y-17282282D01*
X80367612Y-17211610D01*
X80182176Y-17182240D01*
X80141718Y-17175832D01*
X79913010Y-17175832D01*
X79872552Y-17182240D01*
X79687117Y-17211610D01*
X79687114Y-17211610D01*
X79469608Y-17282282D01*
X79265825Y-17386115D01*
X79083123Y-17518857D01*
X79017316Y-17542337D01*
X78949262Y-17526512D01*
X78900567Y-17476406D01*
X78894054Y-17461870D01*
X78890252Y-17451677D01*
X78883660Y-17434001D01*
X78883657Y-17433996D01*
X78797411Y-17318787D01*
X78797408Y-17318784D01*
X78682199Y-17232538D01*
X78682192Y-17232534D01*
X78547346Y-17182240D01*
X78547347Y-17182240D01*
X78487747Y-17175833D01*
X78487745Y-17175832D01*
X78487737Y-17175832D01*
X78487728Y-17175832D01*
X76486993Y-17175832D01*
X76486987Y-17175833D01*
X76427380Y-17182240D01*
X76292535Y-17232534D01*
X76292528Y-17232538D01*
X76177319Y-17318784D01*
X76177316Y-17318787D01*
X76091070Y-17433996D01*
X76091066Y-17434003D01*
X76040772Y-17568849D01*
X76034365Y-17628448D01*
X76034364Y-17628467D01*
X72787144Y-17628467D01*
X72679606Y-17520929D01*
X72494640Y-17386543D01*
X72290932Y-17282749D01*
X72073488Y-17212097D01*
X71983364Y-17197822D01*
X71983364Y-18185584D01*
X71945656Y-18163814D01*
X71805773Y-18126332D01*
X71660955Y-18126332D01*
X71521072Y-18163814D01*
X71483364Y-18185584D01*
X71483364Y-17197822D01*
X71483363Y-17197822D01*
X71393239Y-17212097D01*
X71175795Y-17282749D01*
X70972087Y-17386543D01*
X70787121Y-17520929D01*
X70625461Y-17682589D01*
X70563991Y-17767196D01*
X70508661Y-17809861D01*
X70439048Y-17815840D01*
X70377253Y-17783234D01*
X70363355Y-17767196D01*
X70301650Y-17682266D01*
X70139930Y-17520546D01*
X69954902Y-17386115D01*
X69840101Y-17327621D01*
X69751119Y-17282282D01*
X69533612Y-17211610D01*
X69348176Y-17182240D01*
X69307718Y-17175832D01*
X69079010Y-17175832D01*
X69038552Y-17182240D01*
X68853117Y-17211610D01*
X68853114Y-17211610D01*
X68635608Y-17282282D01*
X68431825Y-17386115D01*
X68249123Y-17518857D01*
X68183316Y-17542337D01*
X68115262Y-17526512D01*
X68066567Y-17476406D01*
X68060054Y-17461870D01*
X68056252Y-17451677D01*
X68049660Y-17434001D01*
X68049657Y-17433996D01*
X67963411Y-17318787D01*
X67963408Y-17318784D01*
X67848199Y-17232538D01*
X67848192Y-17232534D01*
X67713346Y-17182240D01*
X67713347Y-17182240D01*
X67653747Y-17175833D01*
X67653745Y-17175832D01*
X67653737Y-17175832D01*
X67653728Y-17175832D01*
X65652993Y-17175832D01*
X65652987Y-17175833D01*
X65593380Y-17182240D01*
X65458535Y-17232534D01*
X65458528Y-17232538D01*
X65343319Y-17318784D01*
X65343316Y-17318787D01*
X65257070Y-17433996D01*
X65257066Y-17434003D01*
X65206772Y-17568849D01*
X65200365Y-17628448D01*
X65200364Y-17628467D01*
X60626864Y-17628467D01*
X60626863Y-16865602D01*
X96949500Y-16865602D01*
X96949500Y-17134397D01*
X96984582Y-17400880D01*
X96984583Y-17400885D01*
X96984584Y-17400891D01*
X97016646Y-17520548D01*
X97054152Y-17660524D01*
X97157011Y-17908850D01*
X97157019Y-17908866D01*
X97228240Y-18032222D01*
X97291413Y-18141641D01*
X97291415Y-18141644D01*
X97291416Y-18141645D01*
X97455042Y-18354888D01*
X97455048Y-18354895D01*
X97645104Y-18544951D01*
X97645111Y-18544957D01*
X97682425Y-18573589D01*
X97858359Y-18708587D01*
X98007968Y-18794964D01*
X98091133Y-18842980D01*
X98091149Y-18842988D01*
X98246008Y-18907132D01*
X98339474Y-18945847D01*
X98599109Y-19015416D01*
X98787319Y-19040193D01*
X98865602Y-19050500D01*
X98865603Y-19050500D01*
X99134398Y-19050500D01*
X99194905Y-19042534D01*
X99400891Y-19015416D01*
X99660526Y-18945847D01*
X99847457Y-18868417D01*
X99908850Y-18842988D01*
X99908853Y-18842986D01*
X99908859Y-18842984D01*
X100141641Y-18708587D01*
X100354890Y-18544956D01*
X100544956Y-18354890D01*
X100708587Y-18141641D01*
X100842984Y-17908859D01*
X100843413Y-17907825D01*
X100884167Y-17809435D01*
X100945847Y-17660526D01*
X101015416Y-17400891D01*
X101050500Y-17134397D01*
X101050500Y-16865603D01*
X101015416Y-16599109D01*
X100945847Y-16339474D01*
X100893080Y-16212083D01*
X100842988Y-16091149D01*
X100842980Y-16091133D01*
X100794964Y-16007968D01*
X100708587Y-15858359D01*
X100544956Y-15645110D01*
X100544951Y-15645104D01*
X100354895Y-15455048D01*
X100354888Y-15455042D01*
X100141645Y-15291416D01*
X100141644Y-15291415D01*
X100141641Y-15291413D01*
X100048832Y-15237830D01*
X99908866Y-15157019D01*
X99908850Y-15157011D01*
X99660524Y-15054152D01*
X99530708Y-15019368D01*
X99400891Y-14984584D01*
X99400885Y-14984583D01*
X99400880Y-14984582D01*
X99134398Y-14949500D01*
X99134397Y-14949500D01*
X98865603Y-14949500D01*
X98865602Y-14949500D01*
X98599119Y-14984582D01*
X98599112Y-14984583D01*
X98599109Y-14984584D01*
X98544239Y-14999286D01*
X98339475Y-15054152D01*
X98091149Y-15157011D01*
X98091133Y-15157019D01*
X97858354Y-15291416D01*
X97645111Y-15455042D01*
X97645104Y-15455048D01*
X97455048Y-15645104D01*
X97455042Y-15645111D01*
X97291416Y-15858354D01*
X97157019Y-16091133D01*
X97157011Y-16091149D01*
X97054152Y-16339475D01*
X96984585Y-16599106D01*
X96984582Y-16599119D01*
X96949500Y-16865602D01*
X60626863Y-16865602D01*
X60626863Y-16212081D01*
X60620455Y-16152470D01*
X60570160Y-16017622D01*
X60570159Y-16017621D01*
X60570157Y-16017617D01*
X60483911Y-15902408D01*
X60483908Y-15902405D01*
X60368699Y-15816159D01*
X60368692Y-15816155D01*
X60233846Y-15765861D01*
X60233847Y-15765861D01*
X60174247Y-15759454D01*
X60174245Y-15759453D01*
X60174237Y-15759453D01*
X60174228Y-15759453D01*
X58478493Y-15759453D01*
X58478487Y-15759454D01*
X58418880Y-15765861D01*
X58284035Y-15816155D01*
X58284028Y-15816159D01*
X58168819Y-15902405D01*
X58168816Y-15902408D01*
X58082570Y-16017617D01*
X58082566Y-16017624D01*
X58032272Y-16152470D01*
X58025865Y-16212069D01*
X58025865Y-16212076D01*
X58025864Y-16212088D01*
X53361863Y-16212088D01*
X53361863Y-16212081D01*
X53355455Y-16152470D01*
X53305160Y-16017622D01*
X53305159Y-16017621D01*
X53305157Y-16017617D01*
X53218911Y-15902408D01*
X53218908Y-15902405D01*
X53103699Y-15816159D01*
X53103692Y-15816155D01*
X52968846Y-15765861D01*
X52968847Y-15765861D01*
X52909247Y-15759454D01*
X52909245Y-15759453D01*
X52909237Y-15759453D01*
X52909228Y-15759453D01*
X51213493Y-15759453D01*
X51213487Y-15759454D01*
X51153880Y-15765861D01*
X51019035Y-15816155D01*
X51019028Y-15816159D01*
X50903819Y-15902405D01*
X50903816Y-15902408D01*
X50817570Y-16017617D01*
X50817566Y-16017624D01*
X50767272Y-16152470D01*
X50760865Y-16212069D01*
X50760865Y-16212076D01*
X50760864Y-16212088D01*
X13644050Y-16212088D01*
X13644050Y-13504832D01*
X13663735Y-13437793D01*
X13716539Y-13392038D01*
X13768050Y-13380832D01*
X103386050Y-13380832D01*
X103453089Y-13400517D01*
G37*
%TD.AperFunction*%
%TD*%
M02*
