%TF.GenerationSoftware,KiCad,Pcbnew,9.0.5*%
%TF.CreationDate,2026-01-31T01:06:20+01:00*%
%TF.ProjectId,DIY amplifier,44495920-616d-4706-9c69-666965722e6b,rev?*%
%TF.SameCoordinates,Original*%
%TF.FileFunction,Copper,L3,Inr*%
%TF.FilePolarity,Positive*%
%FSLAX46Y46*%
G04 Gerber Fmt 4.6, Leading zero omitted, Abs format (unit mm)*
G04 Created by KiCad (PCBNEW 9.0.5) date 2026-01-31 01:06:20*
%MOMM*%
%LPD*%
G01*
G04 APERTURE LIST*
G04 Aperture macros list*
%AMRoundRect*
0 Rectangle with rounded corners*
0 $1 Rounding radius*
0 $2 $3 $4 $5 $6 $7 $8 $9 X,Y pos of 4 corners*
0 Add a 4 corners polygon primitive as box body*
4,1,4,$2,$3,$4,$5,$6,$7,$8,$9,$2,$3,0*
0 Add four circle primitives for the rounded corners*
1,1,$1+$1,$2,$3*
1,1,$1+$1,$4,$5*
1,1,$1+$1,$6,$7*
1,1,$1+$1,$8,$9*
0 Add four rect primitives between the rounded corners*
20,1,$1+$1,$2,$3,$4,$5,0*
20,1,$1+$1,$4,$5,$6,$7,0*
20,1,$1+$1,$6,$7,$8,$9,0*
20,1,$1+$1,$8,$9,$2,$3,0*%
G04 Aperture macros list end*
%TA.AperFunction,ComponentPad*%
%ADD10R,1.905000X2.000000*%
%TD*%
%TA.AperFunction,ComponentPad*%
%ADD11O,1.905000X2.000000*%
%TD*%
%TA.AperFunction,ComponentPad*%
%ADD12C,1.600000*%
%TD*%
%TA.AperFunction,ComponentPad*%
%ADD13RoundRect,0.250001X-0.949999X0.949999X-0.949999X-0.949999X0.949999X-0.949999X0.949999X0.949999X0*%
%TD*%
%TA.AperFunction,ComponentPad*%
%ADD14C,2.400000*%
%TD*%
%TA.AperFunction,ComponentPad*%
%ADD15C,3.800000*%
%TD*%
%TA.AperFunction,ComponentPad*%
%ADD16C,3.000000*%
%TD*%
%TA.AperFunction,ComponentPad*%
%ADD17R,2.400000X2.400000*%
%TD*%
%TA.AperFunction,ComponentPad*%
%ADD18C,2.340000*%
%TD*%
%TA.AperFunction,ComponentPad*%
%ADD19R,1.600000X1.600000*%
%TD*%
%TA.AperFunction,ComponentPad*%
%ADD20RoundRect,0.675000X-0.675000X-0.675000X0.675000X-0.675000X0.675000X0.675000X-0.675000X0.675000X0*%
%TD*%
%TA.AperFunction,ComponentPad*%
%ADD21C,2.700000*%
%TD*%
%TA.AperFunction,ComponentPad*%
%ADD22R,1.200000X1.200000*%
%TD*%
%TA.AperFunction,ComponentPad*%
%ADD23C,1.200000*%
%TD*%
%TA.AperFunction,ComponentPad*%
%ADD24RoundRect,0.250000X-0.550000X-0.550000X0.550000X-0.550000X0.550000X0.550000X-0.550000X0.550000X0*%
%TD*%
%TA.AperFunction,ComponentPad*%
%ADD25C,2.000000*%
%TD*%
%TA.AperFunction,ComponentPad*%
%ADD26RoundRect,0.250001X0.949999X-0.949999X0.949999X0.949999X-0.949999X0.949999X-0.949999X-0.949999X0*%
%TD*%
%TA.AperFunction,ViaPad*%
%ADD27C,0.600000*%
%TD*%
%TA.AperFunction,ViaPad*%
%ADD28C,1.000000*%
%TD*%
G04 APERTURE END LIST*
D10*
%TO.N,Net-(Q4-G)*%
%TO.C,Q4*%
X76457015Y-63280332D03*
D11*
%TO.N,A out*%
X78997015Y-63280332D03*
%TO.N,R_shunt*%
X81537015Y-63280332D03*
%TD*%
D12*
%TO.N,GND*%
%TO.C,C23*%
X95832000Y-38944000D03*
%TO.N,Speaker -*%
X95832000Y-41444000D03*
%TD*%
%TO.N,GND*%
%TO.C,C22*%
X96227000Y-76084000D03*
%TO.N,Speaker +*%
X96227000Y-73584000D03*
%TD*%
D13*
%TO.N,Net-(J3-Pin_1)*%
%TO.C,J3*%
X18093364Y-18870332D03*
D14*
%TO.N,GND*%
X18093364Y-22370332D03*
%TD*%
D15*
%TO.N,N/C*%
%TO.C,REF\u002A\u002A*%
X17573000Y-29355000D03*
%TD*%
D16*
%TO.N,A out*%
%TO.C,L1*%
X88411000Y-72041000D03*
%TO.N,Speaker +*%
X92981000Y-72041000D03*
%TD*%
D17*
%TO.N,Vcc*%
%TO.C,C13*%
X39140000Y-28849000D03*
D14*
%TO.N,GND*%
X44140000Y-28849000D03*
%TD*%
D18*
%TO.N,Net-(U2--)*%
%TO.C,RV1*%
X19082364Y-68196332D03*
%TO.N,Audio*%
X16582364Y-65696332D03*
X19082364Y-63196332D03*
%TD*%
D19*
%TO.N,Vcc*%
%TO.C,C16*%
X27402000Y-28563000D03*
D12*
%TO.N,GND*%
X30902000Y-28563000D03*
%TD*%
D10*
%TO.N,Net-(Q1-G)*%
%TO.C,Q1*%
X65825364Y-32106332D03*
D11*
%TO.N,Vcc*%
X68365364Y-32106332D03*
%TO.N,B out*%
X70905364Y-32106332D03*
%TD*%
D10*
%TO.N,Net-(Q2-G)*%
%TO.C,Q2*%
X76457015Y-32106332D03*
D11*
%TO.N,B out*%
X78997015Y-32106332D03*
%TO.N,R_shunt*%
X81537015Y-32106332D03*
%TD*%
D10*
%TO.N,Vcc*%
%TO.C,U6*%
X77487364Y-18676332D03*
D11*
%TO.N,GND*%
X80027364Y-18676332D03*
%TO.N,+12V*%
X82567364Y-18676332D03*
%TD*%
D20*
%TO.N,Net-(J3-Pin_1)*%
%TO.C,F1*%
X25377364Y-18870332D03*
X32137364Y-18870332D03*
D21*
%TO.N,Vcc*%
X39417364Y-18870332D03*
X46177364Y-18870332D03*
%TD*%
D10*
%TO.N,Net-(Q3-G)*%
%TO.C,Q3*%
X65825364Y-63280332D03*
D11*
%TO.N,Vcc*%
X68365364Y-63280332D03*
%TO.N,A out*%
X70905364Y-63280332D03*
%TD*%
D22*
%TO.N,Vcc*%
%TO.C,C17*%
X88478000Y-18758000D03*
D23*
%TO.N,GND*%
X90478000Y-18758000D03*
%TD*%
D10*
%TO.N,Vcc*%
%TO.C,U5*%
X66653364Y-18676332D03*
D11*
%TO.N,GND*%
X69193364Y-18676332D03*
%TO.N,+5V*%
X71733364Y-18676332D03*
%TD*%
D17*
%TO.N,+12V*%
%TO.C,C19*%
X93826000Y-24534000D03*
D14*
%TO.N,GND*%
X93826000Y-29534000D03*
%TD*%
D24*
%TO.N,Net-(D1-K)*%
%TO.C,U3*%
X48828364Y-40420332D03*
D12*
%TO.N,+12V*%
X48828364Y-42960332D03*
%TO.N,DIS*%
X48828364Y-45500332D03*
%TO.N,GND*%
X48828364Y-48040332D03*
%TO.N,-PWM*%
X48828364Y-50580332D03*
%TO.N,+PWM*%
X48828364Y-53120332D03*
%TO.N,+12V*%
X48828364Y-55660332D03*
%TO.N,Net-(U3-HDEL)*%
X48828364Y-58200332D03*
%TO.N,Net-(U3-LDEL)*%
X48828364Y-60740332D03*
%TO.N,Net-(D2-K)*%
X48828364Y-63280332D03*
%TO.N,Net-(U3-AHO)*%
X56448364Y-63280332D03*
%TO.N,A out*%
X56448364Y-60740332D03*
%TO.N,Net-(U3-ALO)*%
X56448364Y-58200332D03*
%TO.N,R_shunt*%
X56448364Y-55660332D03*
%TO.N,+12V*%
X56448364Y-53120332D03*
X56448364Y-50580332D03*
%TO.N,R_shunt*%
X56448364Y-48040332D03*
%TO.N,Net-(U3-BLO)*%
X56448364Y-45500332D03*
%TO.N,B out*%
X56448364Y-42960332D03*
%TO.N,Net-(U3-BHO)*%
X56448364Y-40420332D03*
%TD*%
D25*
%TO.N,+5V*%
%TO.C,SW1*%
X30593000Y-41394000D03*
X30593000Y-34894000D03*
%TO.N,Net-(Q10-G)*%
X35093000Y-41394000D03*
X35093000Y-34894000D03*
%TD*%
D22*
%TO.N,Vcc*%
%TO.C,C12*%
X74385000Y-22733000D03*
D23*
%TO.N,GND*%
X76385000Y-22733000D03*
%TD*%
D19*
%TO.N,Vcc*%
%TO.C,C14*%
X55473000Y-31290000D03*
D12*
%TO.N,GND*%
X58973000Y-31290000D03*
%TD*%
D17*
%TO.N,+5V*%
%TO.C,C26*%
X18760041Y-39062000D03*
D14*
%TO.N,GND*%
X23760041Y-39062000D03*
%TD*%
D16*
%TO.N,B out*%
%TO.C,L2*%
X88126000Y-43199000D03*
%TO.N,Speaker -*%
X92696000Y-43199000D03*
%TD*%
D15*
%TO.N,N/C*%
%TO.C,REF\u002A\u002A*%
X99774000Y-17823000D03*
%TD*%
D17*
%TO.N,Vcc*%
%TO.C,C15*%
X55712000Y-17875000D03*
D14*
%TO.N,GND*%
X55712000Y-22875000D03*
%TD*%
D26*
%TO.N,Speaker +*%
%TO.C,J2*%
X97940500Y-57522000D03*
D14*
%TO.N,Speaker -*%
X97940500Y-54022000D03*
%TD*%
D15*
%TO.N,N/C*%
%TO.C,REF\u002A\u002A*%
X100156000Y-80815000D03*
%TD*%
D12*
%TO.N,GND*%
%TO.C,C21*%
X79271250Y-25522000D03*
%TO.N,+5V*%
X79271250Y-23022000D03*
%TD*%
%TO.N,GND*%
%TO.C,C11*%
X81734250Y-22992000D03*
%TO.N,Vcc*%
X84234250Y-22992000D03*
%TD*%
%TO.N,GND*%
%TO.C,C20*%
X66728250Y-25216000D03*
%TO.N,+12V*%
X66728250Y-22716000D03*
%TD*%
%TO.N,GND*%
%TO.C,C18*%
X69227250Y-22720000D03*
%TO.N,Vcc*%
X71727250Y-22720000D03*
%TD*%
D27*
%TO.N,Tri*%
X25274364Y-60763332D03*
%TO.N,GND*%
X22147364Y-67356332D03*
X30099364Y-65904332D03*
X32422364Y-57184332D03*
X21069364Y-82650332D03*
X29593364Y-70341332D03*
D28*
X87292200Y-63705465D03*
D27*
X25492364Y-54512332D03*
X45161813Y-59479332D03*
D28*
X87299134Y-62376379D03*
X88342200Y-63705465D03*
X86199132Y-62377898D03*
X86192198Y-63706984D03*
X88349134Y-62376379D03*
D27*
X19042364Y-59177332D03*
%TO.N,+5V*%
X29060364Y-56169332D03*
X36564364Y-54059332D03*
X43603364Y-68416332D03*
X36366364Y-58606332D03*
X20299583Y-54035332D03*
X22472583Y-45945832D03*
X15266583Y-44214332D03*
X45904000Y-44700000D03*
X31920000Y-50723000D03*
X27538364Y-66404332D03*
X29593364Y-71902332D03*
%TO.N,+12V*%
X58741364Y-68048332D03*
%TO.N,Net-(U2--)*%
X27375364Y-68811332D03*
%TO.N,Net-(Q10-G)*%
X42279000Y-52047000D03*
%TO.N,Net-(U10-Pad1)*%
X39131000Y-54376000D03*
X32877000Y-45088000D03*
%TD*%
%TA.AperFunction,Conductor*%
%TO.N,+12V*%
G36*
X103453089Y-13400517D02*
G01*
X103498844Y-13453321D01*
X103510050Y-13504832D01*
X103510050Y-83895832D01*
X103490365Y-83962871D01*
X103437561Y-84008626D01*
X103386050Y-84019832D01*
X13768050Y-84019832D01*
X13701011Y-84000147D01*
X13655256Y-83947343D01*
X13644050Y-83895832D01*
X13644050Y-82571485D01*
X20268864Y-82571485D01*
X20268864Y-82729178D01*
X20299625Y-82883821D01*
X20299628Y-82883833D01*
X20359966Y-83029504D01*
X20359973Y-83029517D01*
X20447574Y-83160620D01*
X20447577Y-83160624D01*
X20559071Y-83272118D01*
X20559075Y-83272121D01*
X20690178Y-83359722D01*
X20690191Y-83359729D01*
X20835862Y-83420067D01*
X20835867Y-83420069D01*
X20990517Y-83450831D01*
X20990520Y-83450832D01*
X20990522Y-83450832D01*
X21148208Y-83450832D01*
X21148209Y-83450831D01*
X21302861Y-83420069D01*
X21448543Y-83359726D01*
X21579653Y-83272121D01*
X21691153Y-83160621D01*
X21778758Y-83029511D01*
X21839101Y-82883829D01*
X21869864Y-82729174D01*
X21869864Y-82571490D01*
X21869864Y-82571487D01*
X21869863Y-82571485D01*
X21839101Y-82416835D01*
X21839099Y-82416830D01*
X21778761Y-82271159D01*
X21778754Y-82271146D01*
X21691153Y-82140043D01*
X21691150Y-82140039D01*
X21579656Y-82028545D01*
X21579652Y-82028542D01*
X21448549Y-81940941D01*
X21448536Y-81940934D01*
X21302865Y-81880596D01*
X21302853Y-81880593D01*
X21148209Y-81849832D01*
X21148206Y-81849832D01*
X20990522Y-81849832D01*
X20990519Y-81849832D01*
X20835874Y-81880593D01*
X20835862Y-81880596D01*
X20690191Y-81940934D01*
X20690178Y-81940941D01*
X20559075Y-82028542D01*
X20559071Y-82028545D01*
X20447577Y-82140039D01*
X20447574Y-82140043D01*
X20359973Y-82271146D01*
X20359966Y-82271159D01*
X20299628Y-82416830D01*
X20299625Y-82416842D01*
X20268864Y-82571485D01*
X13644050Y-82571485D01*
X13644050Y-79809204D01*
X66364864Y-79809204D01*
X66364864Y-80071459D01*
X66375127Y-80149409D01*
X66399094Y-80331448D01*
X66420750Y-80412268D01*
X66466966Y-80584750D01*
X66466969Y-80584760D01*
X66567317Y-80827022D01*
X66567322Y-80827032D01*
X66698439Y-81054135D01*
X66858082Y-81262183D01*
X66858090Y-81262192D01*
X67043504Y-81447606D01*
X67043512Y-81447613D01*
X67043513Y-81447614D01*
X67091918Y-81484756D01*
X67251560Y-81607256D01*
X67478663Y-81738373D01*
X67478673Y-81738378D01*
X67720935Y-81838726D01*
X67720945Y-81838730D01*
X67974248Y-81906602D01*
X68234244Y-81940832D01*
X68234251Y-81940832D01*
X68496477Y-81940832D01*
X68496484Y-81940832D01*
X68756480Y-81906602D01*
X69009783Y-81838730D01*
X69252061Y-81738375D01*
X69479167Y-81607256D01*
X69687215Y-81447614D01*
X69687219Y-81447609D01*
X69687224Y-81447606D01*
X69872638Y-81262192D01*
X69872641Y-81262187D01*
X69872646Y-81262183D01*
X70032288Y-81054135D01*
X70163407Y-80827029D01*
X70263762Y-80584751D01*
X70331634Y-80331448D01*
X70365864Y-80071452D01*
X70365864Y-79809212D01*
X70365863Y-79809204D01*
X76996515Y-79809204D01*
X76996515Y-80071459D01*
X77006778Y-80149409D01*
X77030745Y-80331448D01*
X77052401Y-80412268D01*
X77098617Y-80584750D01*
X77098620Y-80584760D01*
X77198968Y-80827022D01*
X77198973Y-80827032D01*
X77330090Y-81054135D01*
X77489733Y-81262183D01*
X77489741Y-81262192D01*
X77675155Y-81447606D01*
X77675163Y-81447613D01*
X77675164Y-81447614D01*
X77723569Y-81484756D01*
X77883211Y-81607256D01*
X78110314Y-81738373D01*
X78110324Y-81738378D01*
X78352586Y-81838726D01*
X78352596Y-81838730D01*
X78605899Y-81906602D01*
X78865895Y-81940832D01*
X78865902Y-81940832D01*
X79128128Y-81940832D01*
X79128135Y-81940832D01*
X79388131Y-81906602D01*
X79641434Y-81838730D01*
X79883712Y-81738375D01*
X80110818Y-81607256D01*
X80318866Y-81447614D01*
X80318870Y-81447609D01*
X80318875Y-81447606D01*
X80504289Y-81262192D01*
X80504292Y-81262187D01*
X80504297Y-81262183D01*
X80663939Y-81054135D01*
X80795058Y-80827029D01*
X80855882Y-80680186D01*
X97755500Y-80680186D01*
X97755500Y-80949813D01*
X97785686Y-81217719D01*
X97785688Y-81217731D01*
X97845684Y-81480594D01*
X97845687Y-81480602D01*
X97934734Y-81735082D01*
X98051714Y-81977994D01*
X98051716Y-81977997D01*
X98195162Y-82206289D01*
X98246894Y-82271159D01*
X98363066Y-82416835D01*
X98363266Y-82417085D01*
X98553915Y-82607734D01*
X98764711Y-82775838D01*
X98993003Y-82919284D01*
X99235921Y-83036267D01*
X99427049Y-83103145D01*
X99490397Y-83125312D01*
X99490405Y-83125315D01*
X99490408Y-83125315D01*
X99490409Y-83125316D01*
X99753268Y-83185312D01*
X100021187Y-83215499D01*
X100021188Y-83215500D01*
X100021191Y-83215500D01*
X100290812Y-83215500D01*
X100290812Y-83215499D01*
X100558732Y-83185312D01*
X100821591Y-83125316D01*
X101076079Y-83036267D01*
X101318997Y-82919284D01*
X101547289Y-82775838D01*
X101758085Y-82607734D01*
X101948734Y-82417085D01*
X102116838Y-82206289D01*
X102260284Y-81977997D01*
X102377267Y-81735079D01*
X102466316Y-81480591D01*
X102526312Y-81217732D01*
X102556500Y-80949809D01*
X102556500Y-80680191D01*
X102526312Y-80412268D01*
X102466316Y-80149409D01*
X102377267Y-79894921D01*
X102260284Y-79652003D01*
X102116838Y-79423711D01*
X101948734Y-79212915D01*
X101758085Y-79022266D01*
X101547289Y-78854162D01*
X101318997Y-78710716D01*
X101318994Y-78710714D01*
X101076082Y-78593734D01*
X100821602Y-78504687D01*
X100821594Y-78504684D01*
X100624446Y-78459687D01*
X100558732Y-78444688D01*
X100558728Y-78444687D01*
X100558719Y-78444686D01*
X100290813Y-78414500D01*
X100290809Y-78414500D01*
X100021191Y-78414500D01*
X100021186Y-78414500D01*
X99753280Y-78444686D01*
X99753268Y-78444688D01*
X99490405Y-78504684D01*
X99490397Y-78504687D01*
X99235917Y-78593734D01*
X98993005Y-78710714D01*
X98764712Y-78854161D01*
X98553915Y-79022265D01*
X98363265Y-79212915D01*
X98195161Y-79423712D01*
X98051714Y-79652005D01*
X97934734Y-79894917D01*
X97845687Y-80149397D01*
X97845684Y-80149405D01*
X97785688Y-80412268D01*
X97785686Y-80412280D01*
X97755500Y-80680186D01*
X80855882Y-80680186D01*
X80895413Y-80584751D01*
X80963285Y-80331448D01*
X80997515Y-80071452D01*
X80997515Y-79809212D01*
X80963285Y-79549216D01*
X80895413Y-79295913D01*
X80895409Y-79295903D01*
X80795061Y-79053641D01*
X80795056Y-79053631D01*
X80663939Y-78826528D01*
X80504296Y-78618480D01*
X80504289Y-78618472D01*
X80318875Y-78433058D01*
X80318866Y-78433050D01*
X80110818Y-78273407D01*
X79883715Y-78142290D01*
X79883705Y-78142285D01*
X79641443Y-78041937D01*
X79641436Y-78041935D01*
X79641434Y-78041934D01*
X79388131Y-77974062D01*
X79330354Y-77966455D01*
X79128142Y-77939832D01*
X79128135Y-77939832D01*
X78865895Y-77939832D01*
X78865887Y-77939832D01*
X78634787Y-77970258D01*
X78605899Y-77974062D01*
X78424050Y-78022788D01*
X78352596Y-78041934D01*
X78352586Y-78041937D01*
X78110324Y-78142285D01*
X78110314Y-78142290D01*
X77883211Y-78273407D01*
X77675163Y-78433050D01*
X77489733Y-78618480D01*
X77330090Y-78826528D01*
X77198973Y-79053631D01*
X77198968Y-79053641D01*
X77098620Y-79295903D01*
X77098617Y-79295913D01*
X77031679Y-79545733D01*
X77030745Y-79549217D01*
X76996515Y-79809204D01*
X70365863Y-79809204D01*
X70331634Y-79549216D01*
X70263762Y-79295913D01*
X70263758Y-79295903D01*
X70163410Y-79053641D01*
X70163405Y-79053631D01*
X70032288Y-78826528D01*
X69872645Y-78618480D01*
X69872638Y-78618472D01*
X69687224Y-78433058D01*
X69687215Y-78433050D01*
X69479167Y-78273407D01*
X69252064Y-78142290D01*
X69252054Y-78142285D01*
X69009792Y-78041937D01*
X69009785Y-78041935D01*
X69009783Y-78041934D01*
X68756480Y-77974062D01*
X68698703Y-77966455D01*
X68496491Y-77939832D01*
X68496484Y-77939832D01*
X68234244Y-77939832D01*
X68234236Y-77939832D01*
X68003136Y-77970258D01*
X67974248Y-77974062D01*
X67792399Y-78022788D01*
X67720945Y-78041934D01*
X67720935Y-78041937D01*
X67478673Y-78142285D01*
X67478663Y-78142290D01*
X67251560Y-78273407D01*
X67043512Y-78433050D01*
X66858082Y-78618480D01*
X66698439Y-78826528D01*
X66567322Y-79053631D01*
X66567317Y-79053641D01*
X66466969Y-79295903D01*
X66466966Y-79295913D01*
X66400028Y-79545733D01*
X66399094Y-79549217D01*
X66364864Y-79809204D01*
X13644050Y-79809204D01*
X13644050Y-78358622D01*
X19085864Y-78358622D01*
X19085864Y-78531843D01*
X19099584Y-78618472D01*
X19112962Y-78702934D01*
X19166491Y-78867678D01*
X19245132Y-79022021D01*
X19346950Y-79162161D01*
X19469436Y-79284647D01*
X19609576Y-79386465D01*
X19763919Y-79465106D01*
X19928663Y-79518635D01*
X20099753Y-79545733D01*
X20099754Y-79545733D01*
X20272974Y-79545733D01*
X20272975Y-79545733D01*
X20444065Y-79518635D01*
X20608809Y-79465106D01*
X20763152Y-79386465D01*
X20903292Y-79284647D01*
X21025778Y-79162161D01*
X21127596Y-79022021D01*
X21206237Y-78867678D01*
X21259766Y-78702934D01*
X21286864Y-78531844D01*
X21286864Y-78358622D01*
X26085864Y-78358622D01*
X26085864Y-78531843D01*
X26099584Y-78618472D01*
X26112962Y-78702934D01*
X26166491Y-78867678D01*
X26245132Y-79022021D01*
X26346950Y-79162161D01*
X26469436Y-79284647D01*
X26609576Y-79386465D01*
X26763919Y-79465106D01*
X26928663Y-79518635D01*
X27099753Y-79545733D01*
X27099754Y-79545733D01*
X27272974Y-79545733D01*
X27272975Y-79545733D01*
X27444065Y-79518635D01*
X27608809Y-79465106D01*
X27763152Y-79386465D01*
X27903292Y-79284647D01*
X28025778Y-79162161D01*
X28127596Y-79022021D01*
X28206237Y-78867678D01*
X28259766Y-78702934D01*
X28286864Y-78531844D01*
X28286864Y-78358622D01*
X28259766Y-78187532D01*
X28206237Y-78022788D01*
X28127596Y-77868445D01*
X28025778Y-77728305D01*
X27903292Y-77605819D01*
X27763152Y-77504001D01*
X27608809Y-77425360D01*
X27444065Y-77371831D01*
X27444063Y-77371830D01*
X27444062Y-77371830D01*
X27312635Y-77351014D01*
X27272975Y-77344733D01*
X27099753Y-77344733D01*
X27060092Y-77351014D01*
X26928666Y-77371830D01*
X26763916Y-77425361D01*
X26609575Y-77504001D01*
X26529620Y-77562092D01*
X26469436Y-77605819D01*
X26469434Y-77605821D01*
X26469433Y-77605821D01*
X26346952Y-77728302D01*
X26346952Y-77728303D01*
X26346950Y-77728305D01*
X26303223Y-77788489D01*
X26245132Y-77868444D01*
X26166492Y-78022785D01*
X26112961Y-78187535D01*
X26085864Y-78358622D01*
X21286864Y-78358622D01*
X21259766Y-78187532D01*
X21206237Y-78022788D01*
X21127596Y-77868445D01*
X21025778Y-77728305D01*
X20903292Y-77605819D01*
X20763152Y-77504001D01*
X20608809Y-77425360D01*
X20444065Y-77371831D01*
X20444063Y-77371830D01*
X20444062Y-77371830D01*
X20312635Y-77351014D01*
X20272975Y-77344733D01*
X20099753Y-77344733D01*
X20060092Y-77351014D01*
X19928666Y-77371830D01*
X19763916Y-77425361D01*
X19609575Y-77504001D01*
X19529620Y-77562092D01*
X19469436Y-77605819D01*
X19469434Y-77605821D01*
X19469433Y-77605821D01*
X19346952Y-77728302D01*
X19346952Y-77728303D01*
X19346950Y-77728305D01*
X19303223Y-77788489D01*
X19245132Y-77868444D01*
X19166492Y-78022785D01*
X19112961Y-78187535D01*
X19085864Y-78358622D01*
X13644050Y-78358622D01*
X13644050Y-70262485D01*
X28792864Y-70262485D01*
X28792864Y-70420178D01*
X28823625Y-70574821D01*
X28823628Y-70574833D01*
X28883966Y-70720504D01*
X28883973Y-70720517D01*
X28971574Y-70851620D01*
X28971577Y-70851624D01*
X29083071Y-70963118D01*
X29083075Y-70963121D01*
X29166298Y-71018730D01*
X29211103Y-71072343D01*
X29219810Y-71141668D01*
X29189655Y-71204695D01*
X29166298Y-71224934D01*
X29083075Y-71280542D01*
X29083071Y-71280545D01*
X28971577Y-71392039D01*
X28971574Y-71392043D01*
X28883973Y-71523146D01*
X28883966Y-71523159D01*
X28823628Y-71668830D01*
X28823625Y-71668842D01*
X28792864Y-71823485D01*
X28792864Y-71981178D01*
X28823625Y-72135821D01*
X28823628Y-72135833D01*
X28883966Y-72281504D01*
X28883973Y-72281517D01*
X28971574Y-72412620D01*
X28971577Y-72412624D01*
X29083071Y-72524118D01*
X29083075Y-72524121D01*
X29214178Y-72611722D01*
X29214191Y-72611729D01*
X29359862Y-72672067D01*
X29359867Y-72672069D01*
X29514517Y-72702831D01*
X29514520Y-72702832D01*
X29514522Y-72702832D01*
X29672208Y-72702832D01*
X29672209Y-72702831D01*
X29826861Y-72672069D01*
X29972543Y-72611726D01*
X30103653Y-72524121D01*
X30215153Y-72412621D01*
X30302758Y-72281511D01*
X30363101Y-72135829D01*
X30393864Y-71981174D01*
X30393864Y-71909872D01*
X86410500Y-71909872D01*
X86410500Y-72172127D01*
X86429380Y-72315523D01*
X86444730Y-72432116D01*
X86509025Y-72672069D01*
X86512602Y-72685418D01*
X86512605Y-72685428D01*
X86612953Y-72927690D01*
X86612958Y-72927700D01*
X86744075Y-73154803D01*
X86903718Y-73362851D01*
X86903726Y-73362860D01*
X87089140Y-73548274D01*
X87089148Y-73548281D01*
X87297196Y-73707924D01*
X87524299Y-73839041D01*
X87524309Y-73839046D01*
X87766571Y-73939394D01*
X87766581Y-73939398D01*
X88019884Y-74007270D01*
X88279880Y-74041500D01*
X88279887Y-74041500D01*
X88542113Y-74041500D01*
X88542120Y-74041500D01*
X88802116Y-74007270D01*
X89055419Y-73939398D01*
X89297697Y-73839043D01*
X89524803Y-73707924D01*
X89732851Y-73548282D01*
X89732855Y-73548277D01*
X89732860Y-73548274D01*
X89918274Y-73362860D01*
X89918277Y-73362855D01*
X89918282Y-73362851D01*
X90077924Y-73154803D01*
X90209043Y-72927697D01*
X90309398Y-72685419D01*
X90377270Y-72432116D01*
X90411500Y-72172120D01*
X90411500Y-71909880D01*
X90411499Y-71909872D01*
X90980500Y-71909872D01*
X90980500Y-72172127D01*
X90999380Y-72315523D01*
X91014730Y-72432116D01*
X91079025Y-72672069D01*
X91082602Y-72685418D01*
X91082605Y-72685428D01*
X91182953Y-72927690D01*
X91182958Y-72927700D01*
X91314075Y-73154803D01*
X91473718Y-73362851D01*
X91473726Y-73362860D01*
X91659140Y-73548274D01*
X91659148Y-73548281D01*
X91867196Y-73707924D01*
X92094299Y-73839041D01*
X92094309Y-73839046D01*
X92336571Y-73939394D01*
X92336581Y-73939398D01*
X92589884Y-74007270D01*
X92849880Y-74041500D01*
X92849887Y-74041500D01*
X93112113Y-74041500D01*
X93112120Y-74041500D01*
X93372116Y-74007270D01*
X93625419Y-73939398D01*
X93867697Y-73839043D01*
X94094803Y-73707924D01*
X94302851Y-73548282D01*
X94302855Y-73548277D01*
X94302860Y-73548274D01*
X94369486Y-73481648D01*
X94926500Y-73481648D01*
X94926500Y-73686351D01*
X94958522Y-73888534D01*
X95021781Y-74083223D01*
X95114715Y-74265613D01*
X95235028Y-74431213D01*
X95379786Y-74575971D01*
X95545388Y-74696286D01*
X95598828Y-74723516D01*
X95649623Y-74771490D01*
X95666418Y-74839312D01*
X95643880Y-74905446D01*
X95598828Y-74944484D01*
X95545388Y-74971713D01*
X95379786Y-75092028D01*
X95235028Y-75236786D01*
X95114715Y-75402386D01*
X95021781Y-75584776D01*
X94958522Y-75779465D01*
X94926500Y-75981648D01*
X94926500Y-76186351D01*
X94958522Y-76388534D01*
X95021781Y-76583223D01*
X95114715Y-76765613D01*
X95235028Y-76931213D01*
X95379786Y-77075971D01*
X95534749Y-77188556D01*
X95545390Y-77196287D01*
X95661607Y-77255503D01*
X95727776Y-77289218D01*
X95727778Y-77289218D01*
X95727781Y-77289220D01*
X95832137Y-77323127D01*
X95922465Y-77352477D01*
X96023557Y-77368488D01*
X96124648Y-77384500D01*
X96124649Y-77384500D01*
X96329351Y-77384500D01*
X96329352Y-77384500D01*
X96531534Y-77352477D01*
X96726219Y-77289220D01*
X96908610Y-77196287D01*
X97001590Y-77128732D01*
X97074213Y-77075971D01*
X97074215Y-77075968D01*
X97074219Y-77075966D01*
X97218966Y-76931219D01*
X97218968Y-76931215D01*
X97218971Y-76931213D01*
X97271732Y-76858590D01*
X97339287Y-76765610D01*
X97432220Y-76583219D01*
X97495477Y-76388534D01*
X97527500Y-76186352D01*
X97527500Y-75981648D01*
X97495477Y-75779466D01*
X97432220Y-75584781D01*
X97432218Y-75584778D01*
X97432218Y-75584776D01*
X97398503Y-75518607D01*
X97339287Y-75402390D01*
X97331556Y-75391749D01*
X97218971Y-75236786D01*
X97074213Y-75092028D01*
X96908613Y-74971715D01*
X96908612Y-74971714D01*
X96908610Y-74971713D01*
X96855171Y-74944484D01*
X96804376Y-74896510D01*
X96787581Y-74828689D01*
X96810118Y-74762554D01*
X96855172Y-74723515D01*
X96908610Y-74696287D01*
X97001590Y-74628732D01*
X97074213Y-74575971D01*
X97074215Y-74575968D01*
X97074219Y-74575966D01*
X97218966Y-74431219D01*
X97218968Y-74431215D01*
X97218971Y-74431213D01*
X97271732Y-74358590D01*
X97339287Y-74265610D01*
X97432220Y-74083219D01*
X97495477Y-73888534D01*
X97527500Y-73686352D01*
X97527500Y-73481648D01*
X97495477Y-73279466D01*
X97432220Y-73084781D01*
X97432218Y-73084778D01*
X97432218Y-73084776D01*
X97398503Y-73018607D01*
X97339287Y-72902390D01*
X97331556Y-72891749D01*
X97218971Y-72736786D01*
X97074213Y-72592028D01*
X96908613Y-72471715D01*
X96908612Y-72471714D01*
X96908610Y-72471713D01*
X96830893Y-72432114D01*
X96726223Y-72378781D01*
X96531534Y-72315522D01*
X96356995Y-72287878D01*
X96329352Y-72283500D01*
X96124648Y-72283500D01*
X96100329Y-72287351D01*
X95922465Y-72315522D01*
X95727776Y-72378781D01*
X95545386Y-72471715D01*
X95379786Y-72592028D01*
X95235028Y-72736786D01*
X95114715Y-72902386D01*
X95021781Y-73084776D01*
X94958522Y-73279465D01*
X94926500Y-73481648D01*
X94369486Y-73481648D01*
X94488274Y-73362860D01*
X94488277Y-73362855D01*
X94488282Y-73362851D01*
X94647924Y-73154803D01*
X94779043Y-72927697D01*
X94879398Y-72685419D01*
X94947270Y-72432116D01*
X94981500Y-72172120D01*
X94981500Y-71909880D01*
X94947270Y-71649884D01*
X94879398Y-71396581D01*
X94877517Y-71392039D01*
X94779046Y-71154309D01*
X94779041Y-71154299D01*
X94647924Y-70927196D01*
X94525424Y-70767554D01*
X94488282Y-70719149D01*
X94488281Y-70719148D01*
X94488274Y-70719140D01*
X94302860Y-70533726D01*
X94302851Y-70533718D01*
X94094803Y-70374075D01*
X93867700Y-70242958D01*
X93867690Y-70242953D01*
X93625428Y-70142605D01*
X93625421Y-70142603D01*
X93625419Y-70142602D01*
X93372116Y-70074730D01*
X93314339Y-70067123D01*
X93112127Y-70040500D01*
X93112120Y-70040500D01*
X92849880Y-70040500D01*
X92849872Y-70040500D01*
X92618772Y-70070926D01*
X92589884Y-70074730D01*
X92466353Y-70107830D01*
X92336581Y-70142602D01*
X92336571Y-70142605D01*
X92094309Y-70242953D01*
X92094299Y-70242958D01*
X91867196Y-70374075D01*
X91659148Y-70533718D01*
X91473718Y-70719148D01*
X91314075Y-70927196D01*
X91182958Y-71154299D01*
X91182953Y-71154309D01*
X91082605Y-71396571D01*
X91082602Y-71396581D01*
X91014730Y-71649885D01*
X90980500Y-71909872D01*
X90411499Y-71909872D01*
X90377270Y-71649884D01*
X90309398Y-71396581D01*
X90307517Y-71392039D01*
X90209046Y-71154309D01*
X90209041Y-71154299D01*
X90077924Y-70927196D01*
X89955424Y-70767554D01*
X89918282Y-70719149D01*
X89918281Y-70719148D01*
X89918274Y-70719140D01*
X89732860Y-70533726D01*
X89732851Y-70533718D01*
X89524803Y-70374075D01*
X89297700Y-70242958D01*
X89297690Y-70242953D01*
X89055428Y-70142605D01*
X89055421Y-70142603D01*
X89055419Y-70142602D01*
X88802116Y-70074730D01*
X88744339Y-70067123D01*
X88542127Y-70040500D01*
X88542120Y-70040500D01*
X88279880Y-70040500D01*
X88279872Y-70040500D01*
X88048772Y-70070926D01*
X88019884Y-70074730D01*
X87896353Y-70107830D01*
X87766581Y-70142602D01*
X87766571Y-70142605D01*
X87524309Y-70242953D01*
X87524299Y-70242958D01*
X87297196Y-70374075D01*
X87089148Y-70533718D01*
X86903718Y-70719148D01*
X86744075Y-70927196D01*
X86612958Y-71154299D01*
X86612953Y-71154309D01*
X86512605Y-71396571D01*
X86512602Y-71396581D01*
X86444730Y-71649885D01*
X86410500Y-71909872D01*
X30393864Y-71909872D01*
X30393864Y-71823490D01*
X30393864Y-71823487D01*
X30393863Y-71823485D01*
X30363102Y-71668842D01*
X30363101Y-71668835D01*
X30355251Y-71649884D01*
X30302761Y-71523159D01*
X30302754Y-71523146D01*
X30215153Y-71392043D01*
X30215150Y-71392039D01*
X30103656Y-71280545D01*
X30103652Y-71280542D01*
X30020429Y-71224934D01*
X29975624Y-71171322D01*
X29966917Y-71101997D01*
X29997071Y-71038969D01*
X30020429Y-71018730D01*
X30053396Y-70996701D01*
X30103653Y-70963121D01*
X30215153Y-70851621D01*
X30302758Y-70720511D01*
X30363101Y-70574829D01*
X30393864Y-70420174D01*
X30393864Y-70262490D01*
X30393864Y-70262487D01*
X30393863Y-70262485D01*
X30370017Y-70142605D01*
X30363101Y-70107835D01*
X30335210Y-70040500D01*
X30302761Y-69962159D01*
X30302754Y-69962146D01*
X30215153Y-69831043D01*
X30215150Y-69831039D01*
X30103656Y-69719545D01*
X30103652Y-69719542D01*
X29972549Y-69631941D01*
X29972536Y-69631934D01*
X29826865Y-69571596D01*
X29826853Y-69571593D01*
X29672209Y-69540832D01*
X29672206Y-69540832D01*
X29514522Y-69540832D01*
X29514519Y-69540832D01*
X29359874Y-69571593D01*
X29359862Y-69571596D01*
X29214191Y-69631934D01*
X29214178Y-69631941D01*
X29083075Y-69719542D01*
X29083071Y-69719545D01*
X28971577Y-69831039D01*
X28971574Y-69831043D01*
X28883973Y-69962146D01*
X28883966Y-69962159D01*
X28823628Y-70107830D01*
X28823625Y-70107842D01*
X28792864Y-70262485D01*
X13644050Y-70262485D01*
X13644050Y-65586834D01*
X14911864Y-65586834D01*
X14911864Y-65805829D01*
X14935670Y-65986646D01*
X14940447Y-66022930D01*
X14968785Y-66128689D01*
X14997121Y-66234444D01*
X14997123Y-66234449D01*
X15080924Y-66436760D01*
X15080926Y-66436765D01*
X15080929Y-66436770D01*
X15190413Y-66626402D01*
X15323719Y-66800130D01*
X15323725Y-66800137D01*
X15478558Y-66954970D01*
X15478565Y-66954976D01*
X15652293Y-67088282D01*
X15841925Y-67197766D01*
X15841927Y-67197766D01*
X15841936Y-67197772D01*
X16044247Y-67281573D01*
X16255766Y-67338249D01*
X16472874Y-67366832D01*
X16472881Y-67366832D01*
X16691847Y-67366832D01*
X16691854Y-67366832D01*
X16908962Y-67338249D01*
X17120481Y-67281573D01*
X17322792Y-67197772D01*
X17512435Y-67088282D01*
X17530127Y-67074706D01*
X17595293Y-67049511D01*
X17663739Y-67063548D01*
X17713730Y-67112360D01*
X17729395Y-67180451D01*
X17705760Y-67246202D01*
X17703992Y-67248565D01*
X17690412Y-67266263D01*
X17580929Y-67455893D01*
X17580924Y-67455905D01*
X17497122Y-67658216D01*
X17460594Y-67794543D01*
X17441282Y-67866620D01*
X17440448Y-67869731D01*
X17440446Y-67869742D01*
X17411864Y-68086834D01*
X17411864Y-68305829D01*
X17435670Y-68486646D01*
X17440447Y-68522930D01*
X17455159Y-68577835D01*
X17497121Y-68734445D01*
X17497123Y-68734449D01*
X17580924Y-68936760D01*
X17580926Y-68936765D01*
X17580929Y-68936770D01*
X17690413Y-69126402D01*
X17823719Y-69300130D01*
X17823725Y-69300137D01*
X17978558Y-69454970D01*
X17978565Y-69454976D01*
X18152293Y-69588282D01*
X18341925Y-69697766D01*
X18341927Y-69697766D01*
X18341936Y-69697772D01*
X18544247Y-69781573D01*
X18755766Y-69838249D01*
X18972874Y-69866832D01*
X18972881Y-69866832D01*
X19191847Y-69866832D01*
X19191854Y-69866832D01*
X19408962Y-69838249D01*
X19620481Y-69781573D01*
X19822792Y-69697772D01*
X20012435Y-69588282D01*
X20186164Y-69454975D01*
X20341007Y-69300132D01*
X20474314Y-69126403D01*
X20583804Y-68936760D01*
X20667605Y-68734449D01*
X20668131Y-68732485D01*
X26574864Y-68732485D01*
X26574864Y-68890178D01*
X26605625Y-69044821D01*
X26605628Y-69044833D01*
X26665966Y-69190504D01*
X26665973Y-69190517D01*
X26753574Y-69321620D01*
X26753577Y-69321624D01*
X26865071Y-69433118D01*
X26865075Y-69433121D01*
X26996178Y-69520722D01*
X26996191Y-69520729D01*
X27118997Y-69571596D01*
X27141867Y-69581069D01*
X27296517Y-69611831D01*
X27296520Y-69611832D01*
X27296522Y-69611832D01*
X27454208Y-69611832D01*
X27454209Y-69611831D01*
X27608861Y-69581069D01*
X27754543Y-69520726D01*
X27885653Y-69433121D01*
X27997153Y-69321621D01*
X28084758Y-69190511D01*
X28145101Y-69044829D01*
X28175864Y-68890174D01*
X28175864Y-68732490D01*
X28175864Y-68732487D01*
X28175863Y-68732485D01*
X28159422Y-68649833D01*
X28145101Y-68577835D01*
X28110862Y-68495174D01*
X28084761Y-68432159D01*
X28084751Y-68432141D01*
X28063469Y-68400290D01*
X28063468Y-68400289D01*
X28021503Y-68337485D01*
X42802864Y-68337485D01*
X42802864Y-68495178D01*
X42833625Y-68649821D01*
X42833628Y-68649833D01*
X42893966Y-68795504D01*
X42893973Y-68795517D01*
X42981574Y-68926620D01*
X42981577Y-68926624D01*
X43093071Y-69038118D01*
X43093075Y-69038121D01*
X43224178Y-69125722D01*
X43224191Y-69125729D01*
X43369862Y-69186067D01*
X43369867Y-69186069D01*
X43524517Y-69216831D01*
X43524520Y-69216832D01*
X43524522Y-69216832D01*
X43682208Y-69216832D01*
X43682209Y-69216831D01*
X43836861Y-69186069D01*
X43982543Y-69125726D01*
X44113653Y-69038121D01*
X44225153Y-68926621D01*
X44312758Y-68795511D01*
X44373101Y-68649829D01*
X44403864Y-68495174D01*
X44403864Y-68337490D01*
X44403864Y-68337487D01*
X44403863Y-68337485D01*
X44396613Y-68301039D01*
X44373101Y-68182835D01*
X44362330Y-68156831D01*
X44312761Y-68037159D01*
X44312754Y-68037146D01*
X44225153Y-67906043D01*
X44225150Y-67906039D01*
X44113656Y-67794545D01*
X44113652Y-67794542D01*
X43982549Y-67706941D01*
X43982536Y-67706934D01*
X43836865Y-67646596D01*
X43836853Y-67646593D01*
X43682209Y-67615832D01*
X43682206Y-67615832D01*
X43524522Y-67615832D01*
X43524519Y-67615832D01*
X43369874Y-67646593D01*
X43369862Y-67646596D01*
X43224191Y-67706934D01*
X43224178Y-67706941D01*
X43093075Y-67794542D01*
X43093071Y-67794545D01*
X42981577Y-67906039D01*
X42981574Y-67906043D01*
X42893973Y-68037146D01*
X42893966Y-68037159D01*
X42833628Y-68182830D01*
X42833625Y-68182842D01*
X42802864Y-68337485D01*
X28021503Y-68337485D01*
X27997153Y-68301043D01*
X27997150Y-68301039D01*
X27885656Y-68189545D01*
X27885652Y-68189542D01*
X27754549Y-68101941D01*
X27754536Y-68101934D01*
X27608865Y-68041596D01*
X27608853Y-68041593D01*
X27454209Y-68010832D01*
X27454206Y-68010832D01*
X27296522Y-68010832D01*
X27296519Y-68010832D01*
X27141874Y-68041593D01*
X27141862Y-68041596D01*
X26996191Y-68101934D01*
X26996178Y-68101941D01*
X26865075Y-68189542D01*
X26865071Y-68189545D01*
X26753577Y-68301039D01*
X26753574Y-68301043D01*
X26665973Y-68432146D01*
X26665966Y-68432159D01*
X26605628Y-68577830D01*
X26605625Y-68577842D01*
X26574864Y-68732485D01*
X20668131Y-68732485D01*
X20724281Y-68522930D01*
X20752864Y-68305822D01*
X20752864Y-68086842D01*
X20724281Y-67869734D01*
X20667605Y-67658215D01*
X20583804Y-67455904D01*
X20571836Y-67435174D01*
X20513077Y-67333399D01*
X20513076Y-67333398D01*
X20480794Y-67277485D01*
X21346864Y-67277485D01*
X21346864Y-67435178D01*
X21377625Y-67589821D01*
X21377628Y-67589833D01*
X21437966Y-67735504D01*
X21437973Y-67735517D01*
X21525574Y-67866620D01*
X21525577Y-67866624D01*
X21637071Y-67978118D01*
X21637075Y-67978121D01*
X21768178Y-68065722D01*
X21768191Y-68065729D01*
X21855609Y-68101938D01*
X21913867Y-68126069D01*
X22068517Y-68156831D01*
X22068520Y-68156832D01*
X22068522Y-68156832D01*
X22226208Y-68156832D01*
X22226209Y-68156831D01*
X22380861Y-68126069D01*
X22526543Y-68065726D01*
X22657653Y-67978121D01*
X22769153Y-67866621D01*
X22856758Y-67735511D01*
X22917101Y-67589829D01*
X22947864Y-67435174D01*
X22947864Y-67277490D01*
X22947864Y-67277487D01*
X22947863Y-67277485D01*
X22932006Y-67197766D01*
X22917101Y-67122835D01*
X22892544Y-67063548D01*
X22856761Y-66977159D01*
X22856754Y-66977146D01*
X22769153Y-66846043D01*
X22769150Y-66846039D01*
X22657656Y-66734545D01*
X22657652Y-66734542D01*
X22526549Y-66646941D01*
X22526536Y-66646934D01*
X22380865Y-66586596D01*
X22380853Y-66586593D01*
X22226209Y-66555832D01*
X22226206Y-66555832D01*
X22068522Y-66555832D01*
X22068519Y-66555832D01*
X21913874Y-66586593D01*
X21913862Y-66586596D01*
X21768191Y-66646934D01*
X21768178Y-66646941D01*
X21637075Y-66734542D01*
X21637071Y-66734545D01*
X21525577Y-66846039D01*
X21525574Y-66846043D01*
X21437973Y-66977146D01*
X21437966Y-66977159D01*
X21377628Y-67122830D01*
X21377625Y-67122842D01*
X21346864Y-67277485D01*
X20480794Y-67277485D01*
X20474314Y-67266261D01*
X20341008Y-67092533D01*
X20341002Y-67092526D01*
X20186169Y-66937693D01*
X20186162Y-66937687D01*
X20012434Y-66804381D01*
X19822802Y-66694897D01*
X19822797Y-66694894D01*
X19822792Y-66694892D01*
X19626850Y-66613729D01*
X19620479Y-66611090D01*
X19514721Y-66582753D01*
X19408962Y-66554415D01*
X19372678Y-66549638D01*
X19191861Y-66525832D01*
X19191854Y-66525832D01*
X18972874Y-66525832D01*
X18972866Y-66525832D01*
X18766217Y-66553039D01*
X18755766Y-66554415D01*
X18750478Y-66555832D01*
X18544248Y-66611090D01*
X18425738Y-66660179D01*
X18341936Y-66694892D01*
X18341933Y-66694893D01*
X18341925Y-66694897D01*
X18152295Y-66804380D01*
X18134597Y-66817960D01*
X18069427Y-66843152D01*
X18000983Y-66829112D01*
X17950994Y-66780297D01*
X17935333Y-66712205D01*
X17958971Y-66646455D01*
X17960699Y-66644145D01*
X17974314Y-66626403D01*
X18083804Y-66436760D01*
X18129896Y-66325485D01*
X26737864Y-66325485D01*
X26737864Y-66483178D01*
X26768625Y-66637821D01*
X26768628Y-66637833D01*
X26828966Y-66783504D01*
X26828973Y-66783517D01*
X26916574Y-66914620D01*
X26916577Y-66914624D01*
X27028071Y-67026118D01*
X27028075Y-67026121D01*
X27159178Y-67113722D01*
X27159191Y-67113729D01*
X27304862Y-67174067D01*
X27304867Y-67174069D01*
X27459517Y-67204831D01*
X27459520Y-67204832D01*
X27459522Y-67204832D01*
X27617208Y-67204832D01*
X27617209Y-67204831D01*
X27771861Y-67174069D01*
X27917543Y-67113726D01*
X28048653Y-67026121D01*
X28160153Y-66914621D01*
X28247758Y-66783511D01*
X28308101Y-66637829D01*
X28338864Y-66483174D01*
X28338864Y-66325490D01*
X28338864Y-66325487D01*
X28338863Y-66325485D01*
X28328213Y-66271944D01*
X28308101Y-66170835D01*
X28294426Y-66137821D01*
X28247761Y-66025159D01*
X28247754Y-66025146D01*
X28160154Y-65894044D01*
X28160148Y-65894037D01*
X28091596Y-65825485D01*
X29298864Y-65825485D01*
X29298864Y-65983178D01*
X29329625Y-66137821D01*
X29329628Y-66137833D01*
X29389966Y-66283504D01*
X29389973Y-66283517D01*
X29477574Y-66414620D01*
X29477577Y-66414624D01*
X29589071Y-66526118D01*
X29589075Y-66526121D01*
X29720178Y-66613722D01*
X29720191Y-66613729D01*
X29865862Y-66674067D01*
X29865867Y-66674069D01*
X29970551Y-66694892D01*
X30020517Y-66704831D01*
X30020520Y-66704832D01*
X30020522Y-66704832D01*
X30178208Y-66704832D01*
X30178209Y-66704831D01*
X30332861Y-66674069D01*
X30478543Y-66613726D01*
X30609653Y-66526121D01*
X30721153Y-66414621D01*
X30808758Y-66283511D01*
X30869101Y-66137829D01*
X30899864Y-65983174D01*
X30899864Y-65825490D01*
X30899864Y-65825487D01*
X30899863Y-65825485D01*
X30873895Y-65694938D01*
X30869101Y-65670835D01*
X30869099Y-65670830D01*
X30808761Y-65525159D01*
X30808754Y-65525146D01*
X30721153Y-65394043D01*
X30721150Y-65394039D01*
X30609656Y-65282545D01*
X30609652Y-65282542D01*
X30478549Y-65194941D01*
X30478536Y-65194934D01*
X30332865Y-65134596D01*
X30332853Y-65134593D01*
X30178209Y-65103832D01*
X30178206Y-65103832D01*
X30020522Y-65103832D01*
X30020519Y-65103832D01*
X29865874Y-65134593D01*
X29865862Y-65134596D01*
X29720191Y-65194934D01*
X29720178Y-65194941D01*
X29589075Y-65282542D01*
X29589071Y-65282545D01*
X29477577Y-65394039D01*
X29477574Y-65394043D01*
X29389973Y-65525146D01*
X29389966Y-65525159D01*
X29329628Y-65670830D01*
X29329625Y-65670842D01*
X29298864Y-65825485D01*
X28091596Y-65825485D01*
X28048656Y-65782545D01*
X28048652Y-65782542D01*
X27917549Y-65694941D01*
X27917536Y-65694934D01*
X27771865Y-65634596D01*
X27771853Y-65634593D01*
X27617209Y-65603832D01*
X27617206Y-65603832D01*
X27459522Y-65603832D01*
X27459519Y-65603832D01*
X27304874Y-65634593D01*
X27304862Y-65634596D01*
X27159191Y-65694934D01*
X27159178Y-65694941D01*
X27028075Y-65782542D01*
X27028071Y-65782545D01*
X26916577Y-65894039D01*
X26916574Y-65894043D01*
X26828973Y-66025146D01*
X26828966Y-66025159D01*
X26768628Y-66170830D01*
X26768625Y-66170842D01*
X26737864Y-66325485D01*
X18129896Y-66325485D01*
X18167605Y-66234449D01*
X18224281Y-66022930D01*
X18252864Y-65805822D01*
X18252864Y-65586842D01*
X18224281Y-65369734D01*
X18167605Y-65158215D01*
X18083804Y-64955904D01*
X18032378Y-64866832D01*
X17974317Y-64766266D01*
X17974316Y-64766265D01*
X17974314Y-64766261D01*
X17960736Y-64748566D01*
X17935543Y-64683399D01*
X17949581Y-64614954D01*
X17998395Y-64564964D01*
X18066486Y-64549300D01*
X18132237Y-64572936D01*
X18134563Y-64574677D01*
X18152293Y-64588282D01*
X18152297Y-64588284D01*
X18152298Y-64588285D01*
X18341925Y-64697766D01*
X18341927Y-64697766D01*
X18341936Y-64697772D01*
X18544247Y-64781573D01*
X18755766Y-64838249D01*
X18972874Y-64866832D01*
X18972881Y-64866832D01*
X19191847Y-64866832D01*
X19191854Y-64866832D01*
X19408962Y-64838249D01*
X19620481Y-64781573D01*
X19822792Y-64697772D01*
X20012435Y-64588282D01*
X20186164Y-64454975D01*
X20341007Y-64300132D01*
X20474314Y-64126403D01*
X20583804Y-63936760D01*
X20667605Y-63734449D01*
X20724281Y-63522930D01*
X20752864Y-63305822D01*
X20752864Y-63086842D01*
X20724281Y-62869734D01*
X20667605Y-62658215D01*
X20583804Y-62455904D01*
X20474314Y-62266261D01*
X20448368Y-62232448D01*
X20341008Y-62092533D01*
X20341002Y-62092526D01*
X20186169Y-61937693D01*
X20186162Y-61937687D01*
X20012434Y-61804381D01*
X19822802Y-61694897D01*
X19822797Y-61694894D01*
X19822792Y-61694892D01*
X19620481Y-61611091D01*
X19620482Y-61611091D01*
X19620479Y-61611090D01*
X19514721Y-61582753D01*
X19408962Y-61554415D01*
X19372678Y-61549638D01*
X19191861Y-61525832D01*
X19191854Y-61525832D01*
X18972874Y-61525832D01*
X18972866Y-61525832D01*
X18766217Y-61553039D01*
X18755766Y-61554415D01*
X18720625Y-61563831D01*
X18544248Y-61611090D01*
X18425738Y-61660179D01*
X18341936Y-61694892D01*
X18341933Y-61694893D01*
X18341925Y-61694897D01*
X18152293Y-61804381D01*
X17978565Y-61937687D01*
X17978558Y-61937693D01*
X17823725Y-62092526D01*
X17823719Y-62092533D01*
X17690413Y-62266261D01*
X17580929Y-62455893D01*
X17580925Y-62455901D01*
X17580924Y-62455904D01*
X17552370Y-62524839D01*
X17497122Y-62658216D01*
X17440448Y-62869731D01*
X17440446Y-62869742D01*
X17411864Y-63086834D01*
X17411864Y-63305829D01*
X17429817Y-63442186D01*
X17440447Y-63522930D01*
X17497123Y-63734449D01*
X17580924Y-63936760D01*
X17580926Y-63936765D01*
X17580929Y-63936770D01*
X17690413Y-64126402D01*
X17703990Y-64144096D01*
X17729184Y-64209265D01*
X17715145Y-64277710D01*
X17666331Y-64327700D01*
X17598240Y-64343363D01*
X17532490Y-64319726D01*
X17530128Y-64317958D01*
X17512434Y-64304381D01*
X17322802Y-64194897D01*
X17322797Y-64194894D01*
X17322792Y-64194892D01*
X17120481Y-64111091D01*
X17120482Y-64111091D01*
X17120479Y-64111090D01*
X17014721Y-64082753D01*
X16908962Y-64054415D01*
X16872678Y-64049638D01*
X16691861Y-64025832D01*
X16691854Y-64025832D01*
X16472874Y-64025832D01*
X16472866Y-64025832D01*
X16266217Y-64053039D01*
X16255766Y-64054415D01*
X16211063Y-64066392D01*
X16044248Y-64111090D01*
X15925738Y-64160179D01*
X15841936Y-64194892D01*
X15841933Y-64194893D01*
X15841925Y-64194897D01*
X15652293Y-64304381D01*
X15478565Y-64437687D01*
X15478558Y-64437693D01*
X15323725Y-64592526D01*
X15323719Y-64592533D01*
X15190413Y-64766261D01*
X15080929Y-64955893D01*
X15080924Y-64955905D01*
X14997122Y-65158216D01*
X14940448Y-65369731D01*
X14940446Y-65369742D01*
X14911864Y-65586834D01*
X13644050Y-65586834D01*
X13644050Y-60684485D01*
X24473864Y-60684485D01*
X24473864Y-60842178D01*
X24504625Y-60996821D01*
X24504628Y-60996833D01*
X24564966Y-61142504D01*
X24564973Y-61142517D01*
X24652574Y-61273620D01*
X24652577Y-61273624D01*
X24764071Y-61385118D01*
X24764075Y-61385121D01*
X24895178Y-61472722D01*
X24895191Y-61472729D01*
X25000122Y-61516192D01*
X25040867Y-61533069D01*
X25195517Y-61563831D01*
X25195520Y-61563832D01*
X25195522Y-61563832D01*
X25353208Y-61563832D01*
X25353209Y-61563831D01*
X25507861Y-61533069D01*
X25653543Y-61472726D01*
X25784653Y-61385121D01*
X25896153Y-61273621D01*
X25983758Y-61142511D01*
X26044101Y-60996829D01*
X26074864Y-60842174D01*
X26074864Y-60684490D01*
X26074864Y-60684487D01*
X26074863Y-60684485D01*
X26044101Y-60529835D01*
X26005150Y-60435798D01*
X25983761Y-60384159D01*
X25983754Y-60384146D01*
X25896153Y-60253043D01*
X25896150Y-60253039D01*
X25784656Y-60141545D01*
X25784652Y-60141542D01*
X25653549Y-60053941D01*
X25653536Y-60053934D01*
X25507865Y-59993596D01*
X25507853Y-59993593D01*
X25353209Y-59962832D01*
X25353206Y-59962832D01*
X25195522Y-59962832D01*
X25195519Y-59962832D01*
X25040874Y-59993593D01*
X25040862Y-59993596D01*
X24895191Y-60053934D01*
X24895178Y-60053941D01*
X24764075Y-60141542D01*
X24764071Y-60141545D01*
X24652577Y-60253039D01*
X24652574Y-60253043D01*
X24564973Y-60384146D01*
X24564966Y-60384159D01*
X24504628Y-60529830D01*
X24504625Y-60529842D01*
X24473864Y-60684485D01*
X13644050Y-60684485D01*
X13644050Y-59098485D01*
X18241864Y-59098485D01*
X18241864Y-59256178D01*
X18272625Y-59410821D01*
X18272628Y-59410833D01*
X18332966Y-59556504D01*
X18332973Y-59556517D01*
X18420574Y-59687620D01*
X18420577Y-59687624D01*
X18532071Y-59799118D01*
X18532075Y-59799121D01*
X18663178Y-59886722D01*
X18663191Y-59886729D01*
X18808862Y-59947067D01*
X18808867Y-59947069D01*
X18963517Y-59977831D01*
X18963520Y-59977832D01*
X18963522Y-59977832D01*
X19121208Y-59977832D01*
X19121209Y-59977831D01*
X19275861Y-59947069D01*
X19421543Y-59886726D01*
X19552653Y-59799121D01*
X19664153Y-59687621D01*
X19751758Y-59556511D01*
X19812101Y-59410829D01*
X19842864Y-59256174D01*
X19842864Y-59098490D01*
X19842864Y-59098487D01*
X19842863Y-59098485D01*
X19836145Y-59064710D01*
X19812101Y-58943835D01*
X19786466Y-58881945D01*
X19751761Y-58798159D01*
X19751754Y-58798146D01*
X19664153Y-58667043D01*
X19664150Y-58667039D01*
X19552656Y-58555545D01*
X19552652Y-58555542D01*
X19510662Y-58527485D01*
X35565864Y-58527485D01*
X35565864Y-58685178D01*
X35596625Y-58839821D01*
X35596628Y-58839833D01*
X35656966Y-58985504D01*
X35656973Y-58985517D01*
X35744574Y-59116620D01*
X35744577Y-59116624D01*
X35856071Y-59228118D01*
X35856075Y-59228121D01*
X35987178Y-59315722D01*
X35987191Y-59315729D01*
X36093703Y-59359847D01*
X36132867Y-59376069D01*
X36255614Y-59400485D01*
X36287517Y-59406831D01*
X36287520Y-59406832D01*
X36287522Y-59406832D01*
X36445208Y-59406832D01*
X36445209Y-59406831D01*
X36477113Y-59400485D01*
X44361313Y-59400485D01*
X44361313Y-59558178D01*
X44392074Y-59712821D01*
X44392077Y-59712833D01*
X44452415Y-59858504D01*
X44452422Y-59858517D01*
X44540023Y-59989620D01*
X44540026Y-59989624D01*
X44651520Y-60101118D01*
X44651524Y-60101121D01*
X44782627Y-60188722D01*
X44782640Y-60188729D01*
X44909096Y-60241108D01*
X44928316Y-60249069D01*
X45082966Y-60279831D01*
X45082969Y-60279832D01*
X45082971Y-60279832D01*
X45240657Y-60279832D01*
X45240658Y-60279831D01*
X45395310Y-60249069D01*
X45540992Y-60188726D01*
X45672102Y-60101121D01*
X45783602Y-59989621D01*
X45871207Y-59858511D01*
X45931550Y-59712829D01*
X45962313Y-59558174D01*
X45962313Y-59400490D01*
X45962313Y-59400487D01*
X45962312Y-59400485D01*
X45961994Y-59398887D01*
X45931550Y-59245835D01*
X45924213Y-59228121D01*
X45871210Y-59100159D01*
X45871203Y-59100146D01*
X45783602Y-58969043D01*
X45783599Y-58969039D01*
X45672105Y-58857545D01*
X45672101Y-58857542D01*
X45540998Y-58769941D01*
X45540985Y-58769934D01*
X45395314Y-58709596D01*
X45395302Y-58709593D01*
X45240658Y-58678832D01*
X45240655Y-58678832D01*
X45082971Y-58678832D01*
X45082968Y-58678832D01*
X44928323Y-58709593D01*
X44928311Y-58709596D01*
X44782640Y-58769934D01*
X44782627Y-58769941D01*
X44651524Y-58857542D01*
X44651520Y-58857545D01*
X44540026Y-58969039D01*
X44540023Y-58969043D01*
X44452422Y-59100146D01*
X44452415Y-59100159D01*
X44392077Y-59245830D01*
X44392074Y-59245842D01*
X44361313Y-59400485D01*
X36477113Y-59400485D01*
X36599861Y-59376069D01*
X36745543Y-59315726D01*
X36750193Y-59312619D01*
X36782106Y-59291296D01*
X36834669Y-59256174D01*
X36876653Y-59228121D01*
X36988153Y-59116621D01*
X37075758Y-58985511D01*
X37136101Y-58839829D01*
X37166864Y-58685174D01*
X37166864Y-58527490D01*
X37166864Y-58527487D01*
X37166863Y-58527485D01*
X37136102Y-58372842D01*
X37136101Y-58372835D01*
X37107044Y-58302684D01*
X37075761Y-58227159D01*
X37075754Y-58227146D01*
X37032224Y-58161999D01*
X36988153Y-58096043D01*
X36988150Y-58096039D01*
X36876656Y-57984545D01*
X36876652Y-57984542D01*
X36745549Y-57896941D01*
X36745536Y-57896934D01*
X36599865Y-57836596D01*
X36599853Y-57836593D01*
X36445209Y-57805832D01*
X36445206Y-57805832D01*
X36287522Y-57805832D01*
X36287519Y-57805832D01*
X36132874Y-57836593D01*
X36132862Y-57836596D01*
X35987191Y-57896934D01*
X35987178Y-57896941D01*
X35856075Y-57984542D01*
X35856071Y-57984545D01*
X35744577Y-58096039D01*
X35744574Y-58096043D01*
X35656973Y-58227146D01*
X35656966Y-58227159D01*
X35596628Y-58372830D01*
X35596625Y-58372842D01*
X35565864Y-58527485D01*
X19510662Y-58527485D01*
X19421549Y-58467941D01*
X19421536Y-58467934D01*
X19275865Y-58407596D01*
X19275853Y-58407593D01*
X19121209Y-58376832D01*
X19121206Y-58376832D01*
X18963522Y-58376832D01*
X18963519Y-58376832D01*
X18808874Y-58407593D01*
X18808862Y-58407596D01*
X18663191Y-58467934D01*
X18663178Y-58467941D01*
X18532075Y-58555542D01*
X18532071Y-58555545D01*
X18420577Y-58667039D01*
X18420574Y-58667043D01*
X18332973Y-58798146D01*
X18332966Y-58798159D01*
X18272628Y-58943830D01*
X18272625Y-58943842D01*
X18241864Y-59098485D01*
X13644050Y-59098485D01*
X13644050Y-57105485D01*
X31621864Y-57105485D01*
X31621864Y-57263178D01*
X31652625Y-57417821D01*
X31652628Y-57417833D01*
X31712966Y-57563504D01*
X31712973Y-57563517D01*
X31800574Y-57694620D01*
X31800577Y-57694624D01*
X31912071Y-57806118D01*
X31912075Y-57806121D01*
X32043178Y-57893722D01*
X32043191Y-57893729D01*
X32188862Y-57954067D01*
X32188867Y-57954069D01*
X32342064Y-57984542D01*
X32343517Y-57984831D01*
X32343520Y-57984832D01*
X32343522Y-57984832D01*
X32501208Y-57984832D01*
X32501209Y-57984831D01*
X32655861Y-57954069D01*
X32793781Y-57896941D01*
X32801536Y-57893729D01*
X32801536Y-57893728D01*
X32801543Y-57893726D01*
X32932653Y-57806121D01*
X33044153Y-57694621D01*
X33131758Y-57563511D01*
X33192101Y-57417829D01*
X33222864Y-57263174D01*
X33222864Y-57105490D01*
X33222864Y-57105487D01*
X33222863Y-57105485D01*
X33219394Y-57088045D01*
X33192101Y-56950835D01*
X33187228Y-56939070D01*
X33131761Y-56805159D01*
X33131754Y-56805146D01*
X33044153Y-56674043D01*
X33044150Y-56674039D01*
X32932656Y-56562545D01*
X32932652Y-56562542D01*
X32801549Y-56474941D01*
X32801536Y-56474934D01*
X32655865Y-56414596D01*
X32655853Y-56414593D01*
X32501209Y-56383832D01*
X32501206Y-56383832D01*
X32343522Y-56383832D01*
X32343519Y-56383832D01*
X32188874Y-56414593D01*
X32188862Y-56414596D01*
X32043191Y-56474934D01*
X32043178Y-56474941D01*
X31912075Y-56562542D01*
X31912071Y-56562545D01*
X31800577Y-56674039D01*
X31800574Y-56674043D01*
X31712973Y-56805146D01*
X31712966Y-56805159D01*
X31652628Y-56950830D01*
X31652625Y-56950842D01*
X31621864Y-57105485D01*
X13644050Y-57105485D01*
X13644050Y-56090485D01*
X28259864Y-56090485D01*
X28259864Y-56248178D01*
X28290625Y-56402821D01*
X28290628Y-56402833D01*
X28350966Y-56548504D01*
X28350973Y-56548517D01*
X28438574Y-56679620D01*
X28438577Y-56679624D01*
X28550071Y-56791118D01*
X28550075Y-56791121D01*
X28681178Y-56878722D01*
X28681191Y-56878729D01*
X28817915Y-56935361D01*
X28826867Y-56939069D01*
X28981517Y-56969831D01*
X28981520Y-56969832D01*
X28981522Y-56969832D01*
X29139208Y-56969832D01*
X29139209Y-56969831D01*
X29293861Y-56939069D01*
X29439543Y-56878726D01*
X29570653Y-56791121D01*
X29682153Y-56679621D01*
X29769758Y-56548511D01*
X29830101Y-56402829D01*
X29860864Y-56248174D01*
X29860864Y-56090490D01*
X29860864Y-56090487D01*
X29860863Y-56090485D01*
X29838968Y-55980412D01*
X29830101Y-55935835D01*
X29830099Y-55935830D01*
X29769761Y-55790159D01*
X29769754Y-55790146D01*
X29682153Y-55659043D01*
X29682150Y-55659039D01*
X29570656Y-55547545D01*
X29570652Y-55547542D01*
X29439549Y-55459941D01*
X29439536Y-55459934D01*
X29293865Y-55399596D01*
X29293853Y-55399593D01*
X29139209Y-55368832D01*
X29139206Y-55368832D01*
X28981522Y-55368832D01*
X28981519Y-55368832D01*
X28826874Y-55399593D01*
X28826862Y-55399596D01*
X28681191Y-55459934D01*
X28681178Y-55459941D01*
X28550075Y-55547542D01*
X28550071Y-55547545D01*
X28438577Y-55659039D01*
X28438574Y-55659043D01*
X28350973Y-55790146D01*
X28350966Y-55790159D01*
X28290628Y-55935830D01*
X28290625Y-55935842D01*
X28259864Y-56090485D01*
X13644050Y-56090485D01*
X13644050Y-53956485D01*
X19499083Y-53956485D01*
X19499083Y-54114178D01*
X19529844Y-54268821D01*
X19529847Y-54268833D01*
X19590185Y-54414504D01*
X19590192Y-54414517D01*
X19677793Y-54545620D01*
X19677796Y-54545624D01*
X19789290Y-54657118D01*
X19789294Y-54657121D01*
X19920397Y-54744722D01*
X19920410Y-54744729D01*
X20066081Y-54805067D01*
X20066086Y-54805069D01*
X20220736Y-54835831D01*
X20220739Y-54835832D01*
X20220741Y-54835832D01*
X20378427Y-54835832D01*
X20378428Y-54835831D01*
X20533080Y-54805069D01*
X20653543Y-54755172D01*
X20678755Y-54744729D01*
X20678755Y-54744728D01*
X20678762Y-54744726D01*
X20809872Y-54657121D01*
X20921372Y-54545621D01*
X20996299Y-54433485D01*
X24691864Y-54433485D01*
X24691864Y-54591178D01*
X24722625Y-54745821D01*
X24722628Y-54745833D01*
X24782966Y-54891504D01*
X24782973Y-54891517D01*
X24870574Y-55022620D01*
X24870577Y-55022624D01*
X24982071Y-55134118D01*
X24982075Y-55134121D01*
X25113178Y-55221722D01*
X25113191Y-55221729D01*
X25258862Y-55282067D01*
X25258867Y-55282069D01*
X25383087Y-55306778D01*
X25413517Y-55312831D01*
X25413520Y-55312832D01*
X25413522Y-55312832D01*
X25571208Y-55312832D01*
X25571209Y-55312831D01*
X25725861Y-55282069D01*
X25871543Y-55221726D01*
X26002653Y-55134121D01*
X26114153Y-55022621D01*
X26201758Y-54891511D01*
X26203922Y-54886288D01*
X26249719Y-54775722D01*
X26262101Y-54745829D01*
X26292864Y-54591174D01*
X26292864Y-54433490D01*
X26292864Y-54433487D01*
X26292863Y-54433485D01*
X26283976Y-54388809D01*
X26262101Y-54278835D01*
X26257958Y-54268833D01*
X26201761Y-54133159D01*
X26201754Y-54133146D01*
X26141713Y-54043289D01*
X26114153Y-54002043D01*
X26114150Y-54002039D01*
X26092596Y-53980485D01*
X35763864Y-53980485D01*
X35763864Y-54138178D01*
X35794625Y-54292821D01*
X35794628Y-54292833D01*
X35854966Y-54438504D01*
X35854973Y-54438517D01*
X35942574Y-54569620D01*
X35942577Y-54569624D01*
X36054071Y-54681118D01*
X36054075Y-54681121D01*
X36185178Y-54768722D01*
X36185191Y-54768729D01*
X36330862Y-54829067D01*
X36330867Y-54829069D01*
X36485517Y-54859831D01*
X36485520Y-54859832D01*
X36485522Y-54859832D01*
X36643208Y-54859832D01*
X36643209Y-54859831D01*
X36797861Y-54829069D01*
X36943543Y-54768726D01*
X37074653Y-54681121D01*
X37186153Y-54569621D01*
X37273758Y-54438511D01*
X37332310Y-54297153D01*
X38330500Y-54297153D01*
X38330500Y-54454846D01*
X38361261Y-54609489D01*
X38361264Y-54609501D01*
X38421602Y-54755172D01*
X38421609Y-54755185D01*
X38509210Y-54886288D01*
X38509213Y-54886292D01*
X38620707Y-54997786D01*
X38620711Y-54997789D01*
X38751814Y-55085390D01*
X38751827Y-55085397D01*
X38869452Y-55134118D01*
X38897503Y-55145737D01*
X39052153Y-55176499D01*
X39052156Y-55176500D01*
X39052158Y-55176500D01*
X39209844Y-55176500D01*
X39209845Y-55176499D01*
X39364497Y-55145737D01*
X39510179Y-55085394D01*
X39641289Y-54997789D01*
X39752789Y-54886289D01*
X39840394Y-54755179D01*
X39844723Y-54744729D01*
X39854067Y-54722166D01*
X39900737Y-54609497D01*
X39931500Y-54454842D01*
X39931500Y-54297158D01*
X39931500Y-54297155D01*
X39931499Y-54297153D01*
X39918662Y-54232616D01*
X39900737Y-54142503D01*
X39896861Y-54133146D01*
X39840397Y-53996827D01*
X39840390Y-53996814D01*
X39752789Y-53865711D01*
X39752786Y-53865707D01*
X39641292Y-53754213D01*
X39641288Y-53754210D01*
X39510185Y-53666609D01*
X39510172Y-53666602D01*
X39364501Y-53606264D01*
X39364489Y-53606261D01*
X39209845Y-53575500D01*
X39209842Y-53575500D01*
X39052158Y-53575500D01*
X39052155Y-53575500D01*
X38897510Y-53606261D01*
X38897498Y-53606264D01*
X38751827Y-53666602D01*
X38751814Y-53666609D01*
X38620711Y-53754210D01*
X38620707Y-53754213D01*
X38509213Y-53865707D01*
X38509210Y-53865711D01*
X38421609Y-53996814D01*
X38421602Y-53996827D01*
X38361264Y-54142498D01*
X38361261Y-54142510D01*
X38330500Y-54297153D01*
X37332310Y-54297153D01*
X37334101Y-54292829D01*
X37346078Y-54232616D01*
X37364864Y-54138176D01*
X37364864Y-53980487D01*
X37364863Y-53980485D01*
X37350952Y-53910549D01*
X37334101Y-53825835D01*
X37324096Y-53801681D01*
X37273761Y-53680159D01*
X37273754Y-53680146D01*
X37186153Y-53549043D01*
X37186150Y-53549039D01*
X37074656Y-53437545D01*
X37074652Y-53437542D01*
X36943549Y-53349941D01*
X36943536Y-53349934D01*
X36797865Y-53289596D01*
X36797853Y-53289593D01*
X36643209Y-53258832D01*
X36643206Y-53258832D01*
X36485522Y-53258832D01*
X36485519Y-53258832D01*
X36330874Y-53289593D01*
X36330862Y-53289596D01*
X36185191Y-53349934D01*
X36185178Y-53349941D01*
X36054075Y-53437542D01*
X36054071Y-53437545D01*
X35942577Y-53549039D01*
X35942574Y-53549043D01*
X35854973Y-53680146D01*
X35854966Y-53680159D01*
X35794628Y-53825830D01*
X35794625Y-53825842D01*
X35763864Y-53980485D01*
X26092596Y-53980485D01*
X26002656Y-53890545D01*
X26002652Y-53890542D01*
X25871549Y-53802941D01*
X25871536Y-53802934D01*
X25725865Y-53742596D01*
X25725853Y-53742593D01*
X25571209Y-53711832D01*
X25571206Y-53711832D01*
X25413522Y-53711832D01*
X25413519Y-53711832D01*
X25258874Y-53742593D01*
X25258862Y-53742596D01*
X25113191Y-53802934D01*
X25113178Y-53802941D01*
X24982075Y-53890542D01*
X24982071Y-53890545D01*
X24870577Y-54002039D01*
X24870574Y-54002043D01*
X24782973Y-54133146D01*
X24782966Y-54133159D01*
X24722628Y-54278830D01*
X24722625Y-54278842D01*
X24691864Y-54433485D01*
X20996299Y-54433485D01*
X21008977Y-54414511D01*
X21069320Y-54268829D01*
X21100083Y-54114174D01*
X21100083Y-53956490D01*
X21100083Y-53956487D01*
X21100082Y-53956485D01*
X21090945Y-53910549D01*
X21069320Y-53801835D01*
X21069256Y-53801681D01*
X21008980Y-53656159D01*
X21008973Y-53656146D01*
X20921372Y-53525043D01*
X20921369Y-53525039D01*
X20809875Y-53413545D01*
X20809871Y-53413542D01*
X20678768Y-53325941D01*
X20678755Y-53325934D01*
X20533084Y-53265596D01*
X20533072Y-53265593D01*
X20378428Y-53234832D01*
X20378425Y-53234832D01*
X20220741Y-53234832D01*
X20220738Y-53234832D01*
X20066093Y-53265593D01*
X20066081Y-53265596D01*
X19920410Y-53325934D01*
X19920397Y-53325941D01*
X19789294Y-53413542D01*
X19789290Y-53413545D01*
X19677796Y-53525039D01*
X19677793Y-53525043D01*
X19590192Y-53656146D01*
X19590185Y-53656159D01*
X19529847Y-53801830D01*
X19529844Y-53801842D01*
X19499083Y-53956485D01*
X13644050Y-53956485D01*
X13644050Y-51968153D01*
X41478500Y-51968153D01*
X41478500Y-52125846D01*
X41509261Y-52280489D01*
X41509264Y-52280501D01*
X41569602Y-52426172D01*
X41569609Y-52426185D01*
X41657210Y-52557288D01*
X41657213Y-52557292D01*
X41768707Y-52668786D01*
X41768711Y-52668789D01*
X41899814Y-52756390D01*
X41899827Y-52756397D01*
X42043236Y-52815798D01*
X42045503Y-52816737D01*
X42200153Y-52847499D01*
X42200156Y-52847500D01*
X42200158Y-52847500D01*
X42357844Y-52847500D01*
X42357845Y-52847499D01*
X42512497Y-52816737D01*
X42658179Y-52756394D01*
X42789289Y-52668789D01*
X42900789Y-52557289D01*
X42988394Y-52426179D01*
X43048737Y-52280497D01*
X43079500Y-52125842D01*
X43079500Y-51968158D01*
X43079500Y-51968155D01*
X43079499Y-51968153D01*
X43057119Y-51855642D01*
X43048737Y-51813503D01*
X43038099Y-51787821D01*
X42988397Y-51667827D01*
X42988390Y-51667814D01*
X42900789Y-51536711D01*
X42900786Y-51536707D01*
X42789292Y-51425213D01*
X42789288Y-51425210D01*
X42658185Y-51337609D01*
X42658172Y-51337602D01*
X42512501Y-51277264D01*
X42512489Y-51277261D01*
X42357845Y-51246500D01*
X42357842Y-51246500D01*
X42200158Y-51246500D01*
X42200155Y-51246500D01*
X42045510Y-51277261D01*
X42045498Y-51277264D01*
X41899827Y-51337602D01*
X41899814Y-51337609D01*
X41768711Y-51425210D01*
X41768707Y-51425213D01*
X41657213Y-51536707D01*
X41657210Y-51536711D01*
X41569609Y-51667814D01*
X41569602Y-51667827D01*
X41509264Y-51813498D01*
X41509261Y-51813510D01*
X41478500Y-51968153D01*
X13644050Y-51968153D01*
X13644050Y-50644153D01*
X31119500Y-50644153D01*
X31119500Y-50801846D01*
X31150261Y-50956489D01*
X31150264Y-50956501D01*
X31210602Y-51102172D01*
X31210609Y-51102185D01*
X31298210Y-51233288D01*
X31298213Y-51233292D01*
X31409707Y-51344786D01*
X31409711Y-51344789D01*
X31540814Y-51432390D01*
X31540827Y-51432397D01*
X31686498Y-51492735D01*
X31686503Y-51492737D01*
X31841153Y-51523499D01*
X31841156Y-51523500D01*
X31841158Y-51523500D01*
X31998844Y-51523500D01*
X31998845Y-51523499D01*
X32153497Y-51492737D01*
X32299179Y-51432394D01*
X32430289Y-51344789D01*
X32541789Y-51233289D01*
X32629394Y-51102179D01*
X32689737Y-50956497D01*
X32720500Y-50801842D01*
X32720500Y-50644158D01*
X32720500Y-50644155D01*
X32720499Y-50644153D01*
X32707804Y-50580331D01*
X32689737Y-50489503D01*
X32663408Y-50425938D01*
X32629397Y-50343827D01*
X32629390Y-50343814D01*
X32541789Y-50212711D01*
X32541786Y-50212707D01*
X32430292Y-50101213D01*
X32430288Y-50101210D01*
X32299185Y-50013609D01*
X32299172Y-50013602D01*
X32153501Y-49953264D01*
X32153489Y-49953261D01*
X31998845Y-49922500D01*
X31998842Y-49922500D01*
X31841158Y-49922500D01*
X31841155Y-49922500D01*
X31686510Y-49953261D01*
X31686498Y-49953264D01*
X31540827Y-50013602D01*
X31540814Y-50013609D01*
X31409711Y-50101210D01*
X31409707Y-50101213D01*
X31298213Y-50212707D01*
X31298210Y-50212711D01*
X31210609Y-50343814D01*
X31210602Y-50343827D01*
X31150264Y-50489498D01*
X31150261Y-50489510D01*
X31119500Y-50644153D01*
X13644050Y-50644153D01*
X13644050Y-45866985D01*
X21672083Y-45866985D01*
X21672083Y-46024678D01*
X21702844Y-46179321D01*
X21702847Y-46179333D01*
X21763185Y-46325004D01*
X21763192Y-46325017D01*
X21850793Y-46456120D01*
X21850796Y-46456124D01*
X21962290Y-46567618D01*
X21962294Y-46567621D01*
X22093397Y-46655222D01*
X22093410Y-46655229D01*
X22220383Y-46707822D01*
X22239086Y-46715569D01*
X22393736Y-46746331D01*
X22393739Y-46746332D01*
X22393741Y-46746332D01*
X22551427Y-46746332D01*
X22551428Y-46746331D01*
X22706080Y-46715569D01*
X22851762Y-46655226D01*
X22982872Y-46567621D01*
X23094372Y-46456121D01*
X23181977Y-46325011D01*
X23242320Y-46179329D01*
X23273083Y-46024674D01*
X23273083Y-45866990D01*
X23273083Y-45866987D01*
X23273082Y-45866985D01*
X23259239Y-45797394D01*
X23242320Y-45712335D01*
X23241264Y-45709786D01*
X23181980Y-45566659D01*
X23181973Y-45566646D01*
X23094372Y-45435543D01*
X23094369Y-45435539D01*
X22982875Y-45324045D01*
X22982871Y-45324042D01*
X22851768Y-45236441D01*
X22851755Y-45236434D01*
X22706084Y-45176096D01*
X22706072Y-45176093D01*
X22551428Y-45145332D01*
X22551425Y-45145332D01*
X22393741Y-45145332D01*
X22393738Y-45145332D01*
X22239093Y-45176093D01*
X22239081Y-45176096D01*
X22093410Y-45236434D01*
X22093397Y-45236441D01*
X21962294Y-45324042D01*
X21962290Y-45324045D01*
X21850796Y-45435539D01*
X21850793Y-45435543D01*
X21763192Y-45566646D01*
X21763185Y-45566659D01*
X21702847Y-45712330D01*
X21702844Y-45712342D01*
X21672083Y-45866985D01*
X13644050Y-45866985D01*
X13644050Y-44135485D01*
X14466083Y-44135485D01*
X14466083Y-44293178D01*
X14496844Y-44447821D01*
X14496847Y-44447833D01*
X14557185Y-44593504D01*
X14557192Y-44593517D01*
X14644793Y-44724620D01*
X14644796Y-44724624D01*
X14756290Y-44836118D01*
X14756294Y-44836121D01*
X14887397Y-44923722D01*
X14887410Y-44923729D01*
X15033081Y-44984067D01*
X15033086Y-44984069D01*
X15159191Y-45009153D01*
X15187736Y-45014831D01*
X15187739Y-45014832D01*
X15187741Y-45014832D01*
X15345427Y-45014832D01*
X15345428Y-45014831D01*
X15373973Y-45009153D01*
X32076500Y-45009153D01*
X32076500Y-45166846D01*
X32107261Y-45321489D01*
X32107264Y-45321501D01*
X32167602Y-45467172D01*
X32167609Y-45467185D01*
X32255210Y-45598288D01*
X32255213Y-45598292D01*
X32366707Y-45709786D01*
X32366711Y-45709789D01*
X32497814Y-45797390D01*
X32497827Y-45797397D01*
X32643498Y-45857735D01*
X32643503Y-45857737D01*
X32798153Y-45888499D01*
X32798156Y-45888500D01*
X32798158Y-45888500D01*
X32955844Y-45888500D01*
X32955845Y-45888499D01*
X33110497Y-45857737D01*
X33256179Y-45797394D01*
X33387289Y-45709789D01*
X33498789Y-45598289D01*
X33586394Y-45467179D01*
X33646737Y-45321497D01*
X33677500Y-45166842D01*
X33677500Y-45009158D01*
X33677500Y-45009155D01*
X33677499Y-45009153D01*
X33660506Y-44923726D01*
X33646737Y-44854503D01*
X33631916Y-44818722D01*
X33586397Y-44708827D01*
X33586390Y-44708814D01*
X33569781Y-44683957D01*
X33527816Y-44621153D01*
X45103500Y-44621153D01*
X45103500Y-44778846D01*
X45134261Y-44933489D01*
X45134264Y-44933501D01*
X45194602Y-45079172D01*
X45194609Y-45079185D01*
X45282210Y-45210288D01*
X45282213Y-45210292D01*
X45393707Y-45321786D01*
X45393711Y-45321789D01*
X45524814Y-45409390D01*
X45524827Y-45409397D01*
X45664310Y-45467172D01*
X45670503Y-45469737D01*
X45825153Y-45500499D01*
X45825156Y-45500500D01*
X45825158Y-45500500D01*
X45982844Y-45500500D01*
X45982845Y-45500499D01*
X46137497Y-45469737D01*
X46283179Y-45409394D01*
X46414289Y-45321789D01*
X46414589Y-45321489D01*
X46430652Y-45305427D01*
X46525786Y-45210292D01*
X46525789Y-45210289D01*
X46613394Y-45079179D01*
X46673737Y-44933497D01*
X46704500Y-44778842D01*
X46704500Y-44621158D01*
X46704500Y-44621155D01*
X46704499Y-44621153D01*
X46684549Y-44520860D01*
X46673737Y-44466503D01*
X46641239Y-44388045D01*
X46613397Y-44320827D01*
X46613390Y-44320814D01*
X46525789Y-44189711D01*
X46525786Y-44189707D01*
X46414292Y-44078213D01*
X46414288Y-44078210D01*
X46283185Y-43990609D01*
X46283172Y-43990602D01*
X46137501Y-43930264D01*
X46137489Y-43930261D01*
X45982845Y-43899500D01*
X45982842Y-43899500D01*
X45825158Y-43899500D01*
X45825155Y-43899500D01*
X45670510Y-43930261D01*
X45670498Y-43930264D01*
X45524827Y-43990602D01*
X45524814Y-43990609D01*
X45393711Y-44078210D01*
X45393707Y-44078213D01*
X45282213Y-44189707D01*
X45282210Y-44189711D01*
X45194609Y-44320814D01*
X45194602Y-44320827D01*
X45134264Y-44466498D01*
X45134261Y-44466510D01*
X45103500Y-44621153D01*
X33527816Y-44621153D01*
X33498789Y-44577711D01*
X33498786Y-44577707D01*
X33387292Y-44466213D01*
X33387288Y-44466210D01*
X33256185Y-44378609D01*
X33256172Y-44378602D01*
X33110501Y-44318264D01*
X33110489Y-44318261D01*
X32955845Y-44287500D01*
X32955842Y-44287500D01*
X32798158Y-44287500D01*
X32798155Y-44287500D01*
X32643510Y-44318261D01*
X32643498Y-44318264D01*
X32497827Y-44378602D01*
X32497814Y-44378609D01*
X32366711Y-44466210D01*
X32366707Y-44466213D01*
X32255213Y-44577707D01*
X32255210Y-44577711D01*
X32167609Y-44708814D01*
X32167602Y-44708827D01*
X32107264Y-44854498D01*
X32107261Y-44854510D01*
X32076500Y-45009153D01*
X15373973Y-45009153D01*
X15500080Y-44984069D01*
X15645762Y-44923726D01*
X15645768Y-44923722D01*
X15681325Y-44899964D01*
X15720467Y-44873809D01*
X15776872Y-44836121D01*
X15888372Y-44724621D01*
X15975977Y-44593511D01*
X16036320Y-44447829D01*
X16067083Y-44293174D01*
X16067083Y-44135490D01*
X16067083Y-44135487D01*
X16067082Y-44135485D01*
X16038264Y-43990609D01*
X16036320Y-43980835D01*
X16015372Y-43930261D01*
X15975980Y-43835159D01*
X15975973Y-43835146D01*
X15888372Y-43704043D01*
X15888369Y-43704039D01*
X15776875Y-43592545D01*
X15776871Y-43592542D01*
X15645768Y-43504941D01*
X15645755Y-43504934D01*
X15500084Y-43444596D01*
X15500072Y-43444593D01*
X15345428Y-43413832D01*
X15345425Y-43413832D01*
X15187741Y-43413832D01*
X15187738Y-43413832D01*
X15033093Y-43444593D01*
X15033081Y-43444596D01*
X14887410Y-43504934D01*
X14887397Y-43504941D01*
X14756294Y-43592542D01*
X14756290Y-43592545D01*
X14644796Y-43704039D01*
X14644793Y-43704043D01*
X14557192Y-43835146D01*
X14557185Y-43835159D01*
X14496847Y-43980830D01*
X14496844Y-43980842D01*
X14466083Y-44135485D01*
X13644050Y-44135485D01*
X13644050Y-41275902D01*
X29092500Y-41275902D01*
X29092500Y-41512097D01*
X29129446Y-41745368D01*
X29202433Y-41969996D01*
X29275358Y-42113118D01*
X29309657Y-42180433D01*
X29448483Y-42371510D01*
X29615490Y-42538517D01*
X29806567Y-42677343D01*
X29905991Y-42728002D01*
X30017003Y-42784566D01*
X30017005Y-42784566D01*
X30017008Y-42784568D01*
X30137412Y-42823689D01*
X30241631Y-42857553D01*
X30474903Y-42894500D01*
X30474908Y-42894500D01*
X30711097Y-42894500D01*
X30944368Y-42857553D01*
X31168992Y-42784568D01*
X31379433Y-42677343D01*
X31570510Y-42538517D01*
X31737517Y-42371510D01*
X31876343Y-42180433D01*
X31983568Y-41969992D01*
X32056553Y-41745368D01*
X32066514Y-41682479D01*
X32093500Y-41512097D01*
X32093500Y-41275902D01*
X33592500Y-41275902D01*
X33592500Y-41512097D01*
X33629446Y-41745368D01*
X33702433Y-41969996D01*
X33775358Y-42113118D01*
X33809657Y-42180433D01*
X33948483Y-42371510D01*
X34115490Y-42538517D01*
X34306567Y-42677343D01*
X34405991Y-42728002D01*
X34517003Y-42784566D01*
X34517005Y-42784566D01*
X34517008Y-42784568D01*
X34637412Y-42823689D01*
X34741631Y-42857553D01*
X34974903Y-42894500D01*
X34974908Y-42894500D01*
X35211097Y-42894500D01*
X35444368Y-42857553D01*
X35668992Y-42784568D01*
X35879433Y-42677343D01*
X36070510Y-42538517D01*
X36237517Y-42371510D01*
X36376343Y-42180433D01*
X36483568Y-41969992D01*
X36556553Y-41745368D01*
X36566514Y-41682479D01*
X36593500Y-41512097D01*
X36593500Y-41275902D01*
X36556553Y-41042631D01*
X36483566Y-40818003D01*
X36426392Y-40705793D01*
X36376343Y-40607567D01*
X36237517Y-40416490D01*
X36070510Y-40249483D01*
X35879433Y-40110657D01*
X35826164Y-40083515D01*
X35668996Y-40003433D01*
X35458680Y-39935097D01*
X35444368Y-39930446D01*
X35211097Y-39893500D01*
X35211092Y-39893500D01*
X34974908Y-39893500D01*
X34974903Y-39893500D01*
X34741631Y-39930446D01*
X34517003Y-40003433D01*
X34306566Y-40110657D01*
X34197550Y-40189862D01*
X34115490Y-40249483D01*
X34115488Y-40249485D01*
X34115487Y-40249485D01*
X33948485Y-40416487D01*
X33948485Y-40416488D01*
X33948483Y-40416490D01*
X33888862Y-40498550D01*
X33809657Y-40607566D01*
X33702433Y-40818003D01*
X33629446Y-41042631D01*
X33592500Y-41275902D01*
X32093500Y-41275902D01*
X32056553Y-41042631D01*
X31983566Y-40818003D01*
X31926392Y-40705793D01*
X31876343Y-40607567D01*
X31737517Y-40416490D01*
X31570510Y-40249483D01*
X31379433Y-40110657D01*
X31326164Y-40083515D01*
X31168996Y-40003433D01*
X30944368Y-39930446D01*
X30711097Y-39893500D01*
X30711092Y-39893500D01*
X30474908Y-39893500D01*
X30474903Y-39893500D01*
X30241631Y-39930446D01*
X30017003Y-40003433D01*
X29806566Y-40110657D01*
X29697550Y-40189862D01*
X29615490Y-40249483D01*
X29615488Y-40249485D01*
X29615487Y-40249485D01*
X29448485Y-40416487D01*
X29448485Y-40416488D01*
X29448483Y-40416490D01*
X29388862Y-40498550D01*
X29309657Y-40607566D01*
X29202433Y-40818003D01*
X29129446Y-41042631D01*
X29092500Y-41275902D01*
X13644050Y-41275902D01*
X13644050Y-37814135D01*
X17059541Y-37814135D01*
X17059541Y-40309870D01*
X17059542Y-40309876D01*
X17065949Y-40369483D01*
X17116243Y-40504328D01*
X17116247Y-40504335D01*
X17202493Y-40619544D01*
X17202496Y-40619547D01*
X17317705Y-40705793D01*
X17317712Y-40705797D01*
X17452558Y-40756091D01*
X17452557Y-40756091D01*
X17459485Y-40756835D01*
X17512168Y-40762500D01*
X20007913Y-40762499D01*
X20067524Y-40756091D01*
X20202372Y-40705796D01*
X20317587Y-40619546D01*
X20403837Y-40504331D01*
X20454132Y-40369483D01*
X20460541Y-40309873D01*
X20460540Y-38950549D01*
X22059541Y-38950549D01*
X22059541Y-39173450D01*
X22059542Y-39173466D01*
X22088635Y-39394452D01*
X22088636Y-39394457D01*
X22088637Y-39394463D01*
X22146331Y-39609780D01*
X22146334Y-39609790D01*
X22221482Y-39791213D01*
X22231636Y-39815726D01*
X22343093Y-40008774D01*
X22343098Y-40008780D01*
X22343099Y-40008782D01*
X22478792Y-40185622D01*
X22478798Y-40185629D01*
X22636411Y-40343242D01*
X22636418Y-40343248D01*
X22731866Y-40416487D01*
X22813267Y-40478948D01*
X23006315Y-40590405D01*
X23212260Y-40675710D01*
X23427578Y-40733404D01*
X23648584Y-40762500D01*
X23648591Y-40762500D01*
X23871491Y-40762500D01*
X23871498Y-40762500D01*
X24092504Y-40733404D01*
X24307822Y-40675710D01*
X24513767Y-40590405D01*
X24706815Y-40478948D01*
X24883665Y-40343247D01*
X25041288Y-40185624D01*
X25176989Y-40008774D01*
X25285797Y-39820315D01*
X47527864Y-39820315D01*
X47527864Y-41020333D01*
X47527865Y-41020350D01*
X47538364Y-41123128D01*
X47538365Y-41123131D01*
X47574683Y-41232730D01*
X47593550Y-41289666D01*
X47685652Y-41438988D01*
X47809708Y-41563044D01*
X47959030Y-41655146D01*
X48041516Y-41682479D01*
X48098961Y-41722252D01*
X48125784Y-41786768D01*
X48113469Y-41855544D01*
X48103507Y-41867307D01*
X48102441Y-41880856D01*
X48781918Y-42560332D01*
X48775703Y-42560332D01*
X48673970Y-42587591D01*
X48582758Y-42640252D01*
X48508284Y-42714726D01*
X48455623Y-42805938D01*
X48428364Y-42907671D01*
X48428364Y-42913885D01*
X47748888Y-42234409D01*
X47748887Y-42234409D01*
X47716507Y-42278976D01*
X47623608Y-42461300D01*
X47560373Y-42655914D01*
X47528364Y-42858014D01*
X47528364Y-43062649D01*
X47560373Y-43264749D01*
X47623608Y-43459363D01*
X47716505Y-43641682D01*
X47716511Y-43641691D01*
X47748887Y-43686253D01*
X47748888Y-43686254D01*
X48428364Y-43006778D01*
X48428364Y-43012993D01*
X48455623Y-43114726D01*
X48508284Y-43205938D01*
X48582758Y-43280412D01*
X48673970Y-43333073D01*
X48775703Y-43360332D01*
X48781917Y-43360332D01*
X48102440Y-44039806D01*
X48147016Y-44072193D01*
X48239992Y-44119566D01*
X48290789Y-44167540D01*
X48307584Y-44235361D01*
X48285047Y-44301496D01*
X48239994Y-44340535D01*
X48146752Y-44388045D01*
X47981150Y-44508360D01*
X47836392Y-44653118D01*
X47716079Y-44818718D01*
X47623145Y-45001108D01*
X47559886Y-45195797D01*
X47527864Y-45397980D01*
X47527864Y-45602683D01*
X47559886Y-45804866D01*
X47623145Y-45999555D01*
X47716079Y-46181945D01*
X47836392Y-46347545D01*
X47981150Y-46492303D01*
X48136113Y-46604888D01*
X48146754Y-46612619D01*
X48230367Y-46655222D01*
X48239444Y-46659847D01*
X48290240Y-46707822D01*
X48307035Y-46775643D01*
X48284498Y-46841778D01*
X48239444Y-46880817D01*
X48146750Y-46928047D01*
X47981150Y-47048360D01*
X47836392Y-47193118D01*
X47716079Y-47358718D01*
X47623145Y-47541108D01*
X47559886Y-47735797D01*
X47527864Y-47937980D01*
X47527864Y-48142683D01*
X47559886Y-48344866D01*
X47623145Y-48539555D01*
X47716079Y-48721945D01*
X47836392Y-48887545D01*
X47981150Y-49032303D01*
X48136113Y-49144888D01*
X48146754Y-49152619D01*
X48238204Y-49199215D01*
X48239444Y-49199847D01*
X48290240Y-49247822D01*
X48307035Y-49315643D01*
X48284498Y-49381778D01*
X48239444Y-49420817D01*
X48146750Y-49468047D01*
X47981150Y-49588360D01*
X47836392Y-49733118D01*
X47716079Y-49898718D01*
X47623145Y-50081108D01*
X47559886Y-50275797D01*
X47527864Y-50477980D01*
X47527864Y-50682683D01*
X47559886Y-50884866D01*
X47623145Y-51079555D01*
X47687055Y-51204985D01*
X47715949Y-51261691D01*
X47716079Y-51261945D01*
X47836392Y-51427545D01*
X47981150Y-51572303D01*
X48112622Y-51667821D01*
X48146754Y-51692619D01*
X48238204Y-51739215D01*
X48239444Y-51739847D01*
X48290240Y-51787822D01*
X48307035Y-51855643D01*
X48284498Y-51921778D01*
X48239444Y-51960817D01*
X48146750Y-52008047D01*
X47981150Y-52128360D01*
X47836392Y-52273118D01*
X47716079Y-52438718D01*
X47623145Y-52621108D01*
X47559886Y-52815797D01*
X47527864Y-53017980D01*
X47527864Y-53222683D01*
X47559886Y-53424866D01*
X47623145Y-53619555D01*
X47685837Y-53742593D01*
X47716026Y-53801842D01*
X47716079Y-53801945D01*
X47836392Y-53967545D01*
X47981150Y-54112303D01*
X48146749Y-54232616D01*
X48146751Y-54232617D01*
X48146754Y-54232619D01*
X48237458Y-54278835D01*
X48239994Y-54280127D01*
X48290790Y-54328102D01*
X48307585Y-54395923D01*
X48285048Y-54462057D01*
X48239994Y-54501097D01*
X48147008Y-54548475D01*
X48102441Y-54580855D01*
X48102441Y-54580856D01*
X48781918Y-55260332D01*
X48775703Y-55260332D01*
X48673970Y-55287591D01*
X48582758Y-55340252D01*
X48508284Y-55414726D01*
X48455623Y-55505938D01*
X48428364Y-55607671D01*
X48428364Y-55613885D01*
X47748888Y-54934409D01*
X47748887Y-54934409D01*
X47716507Y-54978976D01*
X47623608Y-55161300D01*
X47560373Y-55355914D01*
X47528364Y-55558014D01*
X47528364Y-55762649D01*
X47560373Y-55964749D01*
X47623608Y-56159363D01*
X47716505Y-56341682D01*
X47716511Y-56341691D01*
X47748887Y-56386253D01*
X47748888Y-56386254D01*
X48428364Y-55706778D01*
X48428364Y-55712993D01*
X48455623Y-55814726D01*
X48508284Y-55905938D01*
X48582758Y-55980412D01*
X48673970Y-56033073D01*
X48775703Y-56060332D01*
X48781917Y-56060332D01*
X48102440Y-56739806D01*
X48147016Y-56772193D01*
X48239992Y-56819566D01*
X48290789Y-56867540D01*
X48307584Y-56935361D01*
X48285047Y-57001496D01*
X48239994Y-57040535D01*
X48146752Y-57088045D01*
X47981150Y-57208360D01*
X47836392Y-57353118D01*
X47716079Y-57518718D01*
X47623145Y-57701108D01*
X47559886Y-57895797D01*
X47527864Y-58097980D01*
X47527864Y-58302683D01*
X47559886Y-58504866D01*
X47623145Y-58699555D01*
X47716079Y-58881945D01*
X47836392Y-59047545D01*
X47981150Y-59192303D01*
X48117405Y-59291296D01*
X48146754Y-59312619D01*
X48238204Y-59359215D01*
X48239444Y-59359847D01*
X48290240Y-59407822D01*
X48307035Y-59475643D01*
X48284498Y-59541778D01*
X48239444Y-59580817D01*
X48146750Y-59628047D01*
X47981150Y-59748360D01*
X47836392Y-59893118D01*
X47716079Y-60058718D01*
X47623145Y-60241108D01*
X47559886Y-60435797D01*
X47527864Y-60637980D01*
X47527864Y-60842683D01*
X47559886Y-61044866D01*
X47623145Y-61239555D01*
X47687055Y-61364985D01*
X47712971Y-61415847D01*
X47716079Y-61421945D01*
X47836392Y-61587545D01*
X47981150Y-61732303D01*
X48095815Y-61815610D01*
X48146754Y-61852619D01*
X48238204Y-61899215D01*
X48239444Y-61899847D01*
X48290240Y-61947822D01*
X48307035Y-62015643D01*
X48284498Y-62081778D01*
X48239444Y-62120817D01*
X48146750Y-62168047D01*
X47981150Y-62288360D01*
X47836392Y-62433118D01*
X47716079Y-62598718D01*
X47623145Y-62781108D01*
X47559886Y-62975797D01*
X47527864Y-63177980D01*
X47527864Y-63382683D01*
X47559886Y-63584866D01*
X47623145Y-63779555D01*
X47716079Y-63961945D01*
X47836392Y-64127545D01*
X47981150Y-64272303D01*
X48136113Y-64384888D01*
X48146754Y-64392619D01*
X48237505Y-64438859D01*
X48329140Y-64485550D01*
X48329142Y-64485550D01*
X48329145Y-64485552D01*
X48433501Y-64519459D01*
X48523829Y-64548809D01*
X48624921Y-64564820D01*
X48726012Y-64580832D01*
X48726013Y-64580832D01*
X48930715Y-64580832D01*
X48930716Y-64580832D01*
X49132898Y-64548809D01*
X49327583Y-64485552D01*
X49509974Y-64392619D01*
X49602954Y-64325064D01*
X49675577Y-64272303D01*
X49675579Y-64272300D01*
X49675583Y-64272298D01*
X49820330Y-64127551D01*
X49820332Y-64127547D01*
X49820335Y-64127545D01*
X49886973Y-64035824D01*
X49940651Y-63961942D01*
X50033584Y-63779551D01*
X50096841Y-63584866D01*
X50128864Y-63382684D01*
X50128864Y-63177980D01*
X50096841Y-62975798D01*
X50069802Y-62892582D01*
X50056557Y-62851818D01*
X50033584Y-62781113D01*
X50033582Y-62781110D01*
X50033582Y-62781108D01*
X49976056Y-62668208D01*
X49940651Y-62598722D01*
X49932920Y-62588081D01*
X49820335Y-62433118D01*
X49675577Y-62288360D01*
X49509978Y-62168047D01*
X49503370Y-62164680D01*
X49417281Y-62120815D01*
X49366487Y-62072843D01*
X49349692Y-62005022D01*
X49372229Y-61938887D01*
X49417281Y-61899848D01*
X49509974Y-61852619D01*
X49576367Y-61804382D01*
X49675577Y-61732303D01*
X49675579Y-61732300D01*
X49675583Y-61732298D01*
X49820330Y-61587551D01*
X49820332Y-61587547D01*
X49820335Y-61587545D01*
X49885607Y-61497704D01*
X49940651Y-61421942D01*
X50033584Y-61239551D01*
X50096841Y-61044866D01*
X50128864Y-60842684D01*
X50128864Y-60637980D01*
X50111735Y-60529835D01*
X50096841Y-60435797D01*
X50067491Y-60345469D01*
X50033584Y-60241113D01*
X50033582Y-60241110D01*
X50033582Y-60241108D01*
X49962254Y-60101121D01*
X49940651Y-60058722D01*
X49893334Y-59993595D01*
X49820335Y-59893118D01*
X49675577Y-59748360D01*
X49509978Y-59628047D01*
X49503370Y-59624680D01*
X49417281Y-59580815D01*
X49366487Y-59532843D01*
X49349692Y-59465022D01*
X49372229Y-59398887D01*
X49417281Y-59359848D01*
X49509974Y-59312619D01*
X49587665Y-59256174D01*
X49675577Y-59192303D01*
X49675579Y-59192300D01*
X49675583Y-59192298D01*
X49820330Y-59047551D01*
X49820332Y-59047547D01*
X49820335Y-59047545D01*
X49897994Y-58940655D01*
X49940651Y-58881942D01*
X50033584Y-58699551D01*
X50096841Y-58504866D01*
X50128864Y-58302684D01*
X50128864Y-58097980D01*
X50096841Y-57895798D01*
X50096166Y-57893722D01*
X50033582Y-57701108D01*
X49963472Y-57563511D01*
X49940651Y-57518722D01*
X49932920Y-57508081D01*
X49820335Y-57353118D01*
X49675577Y-57208360D01*
X49509975Y-57088045D01*
X49416733Y-57040535D01*
X49365938Y-56992561D01*
X49349143Y-56924739D01*
X49371681Y-56858605D01*
X49416735Y-56819566D01*
X49509710Y-56772193D01*
X49509711Y-56772193D01*
X49554285Y-56739806D01*
X48874811Y-56060332D01*
X48881025Y-56060332D01*
X48982758Y-56033073D01*
X49073970Y-55980412D01*
X49148444Y-55905938D01*
X49201105Y-55814726D01*
X49228364Y-55712993D01*
X49228364Y-55706779D01*
X49907838Y-56386253D01*
X49940223Y-56341681D01*
X50033119Y-56159363D01*
X50096354Y-55964749D01*
X50128364Y-55762649D01*
X50128364Y-55558014D01*
X50096354Y-55355914D01*
X50033119Y-55161300D01*
X49940223Y-54978982D01*
X49907838Y-54934409D01*
X49907838Y-54934408D01*
X49228364Y-55613883D01*
X49228364Y-55607671D01*
X49201105Y-55505938D01*
X49148444Y-55414726D01*
X49073970Y-55340252D01*
X48982758Y-55287591D01*
X48881025Y-55260332D01*
X48874810Y-55260332D01*
X49554286Y-54580856D01*
X49554285Y-54580855D01*
X49509723Y-54548479D01*
X49509714Y-54548473D01*
X49416733Y-54501097D01*
X49365937Y-54453122D01*
X49349142Y-54385301D01*
X49371679Y-54319167D01*
X49416734Y-54280127D01*
X49419270Y-54278835D01*
X49509974Y-54232619D01*
X49559508Y-54196630D01*
X49675577Y-54112303D01*
X49675579Y-54112300D01*
X49675583Y-54112298D01*
X49820330Y-53967551D01*
X49820332Y-53967547D01*
X49820335Y-53967545D01*
X49894323Y-53865707D01*
X49940651Y-53801942D01*
X50033584Y-53619551D01*
X50096841Y-53424866D01*
X50128864Y-53222684D01*
X50128864Y-53017980D01*
X50120621Y-52965938D01*
X50096841Y-52815797D01*
X50049074Y-52668786D01*
X50033584Y-52621113D01*
X50033582Y-52621110D01*
X50033582Y-52621108D01*
X49940783Y-52438982D01*
X49940651Y-52438722D01*
X49908456Y-52394409D01*
X49820335Y-52273118D01*
X49675577Y-52128360D01*
X49509978Y-52008047D01*
X49431691Y-51968158D01*
X49417281Y-51960815D01*
X49366487Y-51912843D01*
X49349692Y-51845022D01*
X49372229Y-51778887D01*
X49417281Y-51739848D01*
X49509974Y-51692619D01*
X49544106Y-51667821D01*
X49675577Y-51572303D01*
X49675579Y-51572300D01*
X49675583Y-51572298D01*
X49820330Y-51427551D01*
X49820332Y-51427547D01*
X49820335Y-51427545D01*
X49885681Y-51337602D01*
X49940651Y-51261942D01*
X50033584Y-51079551D01*
X50096841Y-50884866D01*
X50128864Y-50682684D01*
X50128864Y-50477980D01*
X50107614Y-50343814D01*
X50096841Y-50275797D01*
X50035881Y-50088183D01*
X50033584Y-50081113D01*
X50033582Y-50081110D01*
X50033582Y-50081108D01*
X49999185Y-50013602D01*
X49940651Y-49898722D01*
X49908456Y-49854409D01*
X49820335Y-49733118D01*
X49675577Y-49588360D01*
X49509978Y-49468047D01*
X49503370Y-49464680D01*
X49417281Y-49420815D01*
X49366487Y-49372843D01*
X49349692Y-49305022D01*
X49372229Y-49238887D01*
X49417281Y-49199848D01*
X49509974Y-49152619D01*
X49531134Y-49137245D01*
X49675577Y-49032303D01*
X49675579Y-49032300D01*
X49675583Y-49032298D01*
X49820330Y-48887551D01*
X49820332Y-48887547D01*
X49820335Y-48887545D01*
X49873096Y-48814922D01*
X49940651Y-48721942D01*
X50033584Y-48539551D01*
X50096841Y-48344866D01*
X50128864Y-48142684D01*
X50128864Y-47937980D01*
X50096841Y-47735798D01*
X50033584Y-47541113D01*
X50033582Y-47541110D01*
X50033582Y-47541108D01*
X49984343Y-47444472D01*
X49940651Y-47358722D01*
X49932920Y-47348081D01*
X49820335Y-47193118D01*
X49675577Y-47048360D01*
X49509978Y-46928047D01*
X49503370Y-46924680D01*
X49417281Y-46880815D01*
X49366487Y-46832843D01*
X49349692Y-46765022D01*
X49372229Y-46698887D01*
X49417281Y-46659848D01*
X49509974Y-46612619D01*
X49571913Y-46567618D01*
X49675577Y-46492303D01*
X49675579Y-46492300D01*
X49675583Y-46492298D01*
X49820330Y-46347551D01*
X49820332Y-46347547D01*
X49820335Y-46347545D01*
X49873096Y-46274922D01*
X49940651Y-46181942D01*
X50033584Y-45999551D01*
X50096841Y-45804866D01*
X50128864Y-45602684D01*
X50128864Y-45397980D01*
X50099136Y-45210288D01*
X50096841Y-45195797D01*
X50058947Y-45079172D01*
X50033584Y-45001113D01*
X50033582Y-45001110D01*
X50033582Y-45001108D01*
X49982046Y-44899964D01*
X49940651Y-44818722D01*
X49911677Y-44778842D01*
X49820335Y-44653118D01*
X49675577Y-44508360D01*
X49509975Y-44388045D01*
X49416733Y-44340535D01*
X49365938Y-44292561D01*
X49349143Y-44224739D01*
X49371681Y-44158605D01*
X49416735Y-44119566D01*
X49509710Y-44072193D01*
X49509711Y-44072193D01*
X49554285Y-44039806D01*
X48874811Y-43360332D01*
X48881025Y-43360332D01*
X48982758Y-43333073D01*
X49073970Y-43280412D01*
X49148444Y-43205938D01*
X49201105Y-43114726D01*
X49228364Y-43012993D01*
X49228364Y-43006779D01*
X49907838Y-43686253D01*
X49940223Y-43641681D01*
X50033119Y-43459363D01*
X50096354Y-43264749D01*
X50128364Y-43062649D01*
X50128364Y-42858014D01*
X50096354Y-42655914D01*
X50033119Y-42461300D01*
X49940223Y-42278982D01*
X49907838Y-42234409D01*
X49907838Y-42234408D01*
X49228364Y-42913883D01*
X49228364Y-42907671D01*
X49201105Y-42805938D01*
X49148444Y-42714726D01*
X49073970Y-42640252D01*
X48982758Y-42587591D01*
X48881025Y-42560332D01*
X48874810Y-42560332D01*
X49554286Y-41880856D01*
X49552934Y-41863681D01*
X49538663Y-41845174D01*
X49532684Y-41775561D01*
X49565289Y-41713765D01*
X49615209Y-41682480D01*
X49697698Y-41655146D01*
X49847020Y-41563044D01*
X49971076Y-41438988D01*
X50063178Y-41289666D01*
X50118363Y-41123129D01*
X50128864Y-41020341D01*
X50128863Y-40317980D01*
X55147864Y-40317980D01*
X55147864Y-40522683D01*
X55179886Y-40724866D01*
X55243145Y-40919555D01*
X55336079Y-41101945D01*
X55456392Y-41267545D01*
X55601150Y-41412303D01*
X55756113Y-41524888D01*
X55766754Y-41532619D01*
X55858204Y-41579215D01*
X55859444Y-41579847D01*
X55910240Y-41627822D01*
X55927035Y-41695643D01*
X55904498Y-41761778D01*
X55859444Y-41800817D01*
X55766750Y-41848047D01*
X55601150Y-41968360D01*
X55456392Y-42113118D01*
X55336079Y-42278718D01*
X55243145Y-42461108D01*
X55179886Y-42655797D01*
X55147864Y-42857980D01*
X55147864Y-43062683D01*
X55179886Y-43264866D01*
X55243145Y-43459555D01*
X55266271Y-43504941D01*
X55335949Y-43641691D01*
X55336079Y-43641945D01*
X55456392Y-43807545D01*
X55601150Y-43952303D01*
X55721590Y-44039806D01*
X55766754Y-44072619D01*
X55858204Y-44119215D01*
X55859444Y-44119847D01*
X55910240Y-44167822D01*
X55927035Y-44235643D01*
X55904498Y-44301778D01*
X55859444Y-44340817D01*
X55766750Y-44388047D01*
X55601150Y-44508360D01*
X55456392Y-44653118D01*
X55336079Y-44818718D01*
X55243145Y-45001108D01*
X55179886Y-45195797D01*
X55147864Y-45397980D01*
X55147864Y-45602683D01*
X55179886Y-45804866D01*
X55243145Y-45999555D01*
X55336079Y-46181945D01*
X55456392Y-46347545D01*
X55601150Y-46492303D01*
X55756113Y-46604888D01*
X55766754Y-46612619D01*
X55850367Y-46655222D01*
X55859444Y-46659847D01*
X55910240Y-46707822D01*
X55927035Y-46775643D01*
X55904498Y-46841778D01*
X55859444Y-46880817D01*
X55766750Y-46928047D01*
X55601150Y-47048360D01*
X55456392Y-47193118D01*
X55336079Y-47358718D01*
X55243145Y-47541108D01*
X55179886Y-47735797D01*
X55147864Y-47937980D01*
X55147864Y-48142683D01*
X55179886Y-48344866D01*
X55243145Y-48539555D01*
X55336079Y-48721945D01*
X55456392Y-48887545D01*
X55601150Y-49032303D01*
X55766749Y-49152616D01*
X55766751Y-49152617D01*
X55766754Y-49152619D01*
X55859444Y-49199847D01*
X55859994Y-49200127D01*
X55910790Y-49248102D01*
X55927585Y-49315923D01*
X55905048Y-49382057D01*
X55859994Y-49421097D01*
X55767008Y-49468475D01*
X55722441Y-49500855D01*
X55722441Y-49500856D01*
X56401918Y-50180332D01*
X56395703Y-50180332D01*
X56293970Y-50207591D01*
X56202758Y-50260252D01*
X56128284Y-50334726D01*
X56075623Y-50425938D01*
X56048364Y-50527671D01*
X56048364Y-50533885D01*
X55368888Y-49854409D01*
X55368887Y-49854409D01*
X55336507Y-49898976D01*
X55243608Y-50081300D01*
X55180373Y-50275914D01*
X55148364Y-50478014D01*
X55148364Y-50682649D01*
X55180373Y-50884749D01*
X55243608Y-51079363D01*
X55336505Y-51261682D01*
X55336511Y-51261691D01*
X55368887Y-51306253D01*
X55368888Y-51306254D01*
X56048364Y-50626778D01*
X56048364Y-50632993D01*
X56075623Y-50734726D01*
X56128284Y-50825938D01*
X56202758Y-50900412D01*
X56293970Y-50953073D01*
X56395703Y-50980332D01*
X56401917Y-50980332D01*
X55722440Y-51659806D01*
X55767014Y-51692191D01*
X55860544Y-51739847D01*
X55911340Y-51787821D01*
X55928135Y-51855642D01*
X55905598Y-51921777D01*
X55860544Y-51960817D01*
X55767008Y-52008475D01*
X55722441Y-52040855D01*
X55722441Y-52040856D01*
X56401918Y-52720332D01*
X56395703Y-52720332D01*
X56293970Y-52747591D01*
X56202758Y-52800252D01*
X56128284Y-52874726D01*
X56075623Y-52965938D01*
X56048364Y-53067671D01*
X56048364Y-53073885D01*
X55368888Y-52394409D01*
X55368887Y-52394409D01*
X55336507Y-52438976D01*
X55243608Y-52621300D01*
X55180373Y-52815914D01*
X55148364Y-53018014D01*
X55148364Y-53222649D01*
X55180373Y-53424749D01*
X55243608Y-53619363D01*
X55336505Y-53801682D01*
X55336511Y-53801691D01*
X55368887Y-53846253D01*
X55368888Y-53846254D01*
X56048364Y-53166778D01*
X56048364Y-53172993D01*
X56075623Y-53274726D01*
X56128284Y-53365938D01*
X56202758Y-53440412D01*
X56293970Y-53493073D01*
X56395703Y-53520332D01*
X56401917Y-53520332D01*
X55722440Y-54199806D01*
X55767016Y-54232193D01*
X55859992Y-54279566D01*
X55910789Y-54327540D01*
X55927584Y-54395361D01*
X55905047Y-54461496D01*
X55859994Y-54500535D01*
X55766752Y-54548045D01*
X55601150Y-54668360D01*
X55456392Y-54813118D01*
X55336079Y-54978718D01*
X55243145Y-55161108D01*
X55179886Y-55355797D01*
X55147864Y-55557980D01*
X55147864Y-55762683D01*
X55179886Y-55964866D01*
X55243145Y-56159555D01*
X55307055Y-56284985D01*
X55335949Y-56341691D01*
X55336079Y-56341945D01*
X55456392Y-56507545D01*
X55601150Y-56652303D01*
X55721590Y-56739806D01*
X55766754Y-56772619D01*
X55858204Y-56819215D01*
X55859444Y-56819847D01*
X55910240Y-56867822D01*
X55927035Y-56935643D01*
X55904498Y-57001778D01*
X55859444Y-57040817D01*
X55766750Y-57088047D01*
X55601150Y-57208360D01*
X55456392Y-57353118D01*
X55336079Y-57518718D01*
X55243145Y-57701108D01*
X55179886Y-57895797D01*
X55147864Y-58097980D01*
X55147864Y-58302683D01*
X55179886Y-58504866D01*
X55243145Y-58699555D01*
X55336079Y-58881945D01*
X55456392Y-59047545D01*
X55601150Y-59192303D01*
X55737405Y-59291296D01*
X55766754Y-59312619D01*
X55858204Y-59359215D01*
X55859444Y-59359847D01*
X55910240Y-59407822D01*
X55927035Y-59475643D01*
X55904498Y-59541778D01*
X55859444Y-59580817D01*
X55766750Y-59628047D01*
X55601150Y-59748360D01*
X55456392Y-59893118D01*
X55336079Y-60058718D01*
X55243145Y-60241108D01*
X55179886Y-60435797D01*
X55147864Y-60637980D01*
X55147864Y-60842683D01*
X55179886Y-61044866D01*
X55243145Y-61239555D01*
X55307055Y-61364985D01*
X55332971Y-61415847D01*
X55336079Y-61421945D01*
X55456392Y-61587545D01*
X55601150Y-61732303D01*
X55715815Y-61815610D01*
X55766754Y-61852619D01*
X55858204Y-61899215D01*
X55859444Y-61899847D01*
X55910240Y-61947822D01*
X55927035Y-62015643D01*
X55904498Y-62081778D01*
X55859444Y-62120817D01*
X55766750Y-62168047D01*
X55601150Y-62288360D01*
X55456392Y-62433118D01*
X55336079Y-62598718D01*
X55243145Y-62781108D01*
X55179886Y-62975797D01*
X55147864Y-63177980D01*
X55147864Y-63382683D01*
X55179886Y-63584866D01*
X55243145Y-63779555D01*
X55336079Y-63961945D01*
X55456392Y-64127545D01*
X55601150Y-64272303D01*
X55756113Y-64384888D01*
X55766754Y-64392619D01*
X55857505Y-64438859D01*
X55949140Y-64485550D01*
X55949142Y-64485550D01*
X55949145Y-64485552D01*
X56053501Y-64519459D01*
X56143829Y-64548809D01*
X56244921Y-64564820D01*
X56346012Y-64580832D01*
X56346013Y-64580832D01*
X56550715Y-64580832D01*
X56550716Y-64580832D01*
X56752898Y-64548809D01*
X56947583Y-64485552D01*
X57129974Y-64392619D01*
X57222954Y-64325064D01*
X57295577Y-64272303D01*
X57295579Y-64272300D01*
X57295583Y-64272298D01*
X57440330Y-64127551D01*
X57440332Y-64127547D01*
X57440335Y-64127545D01*
X57506973Y-64035824D01*
X57560651Y-63961942D01*
X57653584Y-63779551D01*
X57716841Y-63584866D01*
X57748864Y-63382684D01*
X57748864Y-63177980D01*
X57716841Y-62975798D01*
X57689802Y-62892582D01*
X57676557Y-62851818D01*
X57653584Y-62781113D01*
X57653582Y-62781110D01*
X57653582Y-62781108D01*
X57596056Y-62668208D01*
X57560651Y-62598722D01*
X57552920Y-62588081D01*
X57440335Y-62433118D01*
X57295577Y-62288360D01*
X57218646Y-62232467D01*
X64372364Y-62232467D01*
X64372364Y-64328202D01*
X64372365Y-64328208D01*
X64378772Y-64387815D01*
X64429066Y-64522660D01*
X64429070Y-64522667D01*
X64515316Y-64637876D01*
X64515319Y-64637879D01*
X64630528Y-64724125D01*
X64630535Y-64724129D01*
X64765381Y-64774423D01*
X64765380Y-64774423D01*
X64772308Y-64775167D01*
X64824991Y-64780832D01*
X66825736Y-64780831D01*
X66885347Y-64774423D01*
X67020195Y-64724128D01*
X67135410Y-64637878D01*
X67221660Y-64522663D01*
X67232054Y-64494792D01*
X67273924Y-64438859D01*
X67339387Y-64414440D01*
X67407661Y-64429290D01*
X67421110Y-64437797D01*
X67603826Y-64570549D01*
X67690976Y-64614954D01*
X67807608Y-64674381D01*
X68025115Y-64745053D01*
X68025116Y-64745053D01*
X68025119Y-64745054D01*
X68251010Y-64780832D01*
X68251011Y-64780832D01*
X68479717Y-64780832D01*
X68479718Y-64780832D01*
X68705609Y-64745054D01*
X68705612Y-64745053D01*
X68705613Y-64745053D01*
X68923119Y-64674381D01*
X68923119Y-64674380D01*
X68923122Y-64674380D01*
X69126902Y-64570549D01*
X69311930Y-64436118D01*
X69473650Y-64274398D01*
X69535047Y-64189891D01*
X69590376Y-64147228D01*
X69659989Y-64141249D01*
X69721784Y-64173855D01*
X69735678Y-64189888D01*
X69797078Y-64274398D01*
X69958798Y-64436118D01*
X70143826Y-64570549D01*
X70230976Y-64614954D01*
X70347608Y-64674381D01*
X70565115Y-64745053D01*
X70565116Y-64745053D01*
X70565119Y-64745054D01*
X70791010Y-64780832D01*
X70791011Y-64780832D01*
X71019717Y-64780832D01*
X71019718Y-64780832D01*
X71245609Y-64745054D01*
X71245612Y-64745053D01*
X71245613Y-64745053D01*
X71463119Y-64674381D01*
X71463119Y-64674380D01*
X71463122Y-64674380D01*
X71666902Y-64570549D01*
X71851930Y-64436118D01*
X72013650Y-64274398D01*
X72148081Y-64089370D01*
X72251912Y-63885590D01*
X72322586Y-63668077D01*
X72358364Y-63442186D01*
X72358364Y-63118478D01*
X72322586Y-62892587D01*
X72322585Y-62892583D01*
X72322585Y-62892582D01*
X72251913Y-62675076D01*
X72213007Y-62598718D01*
X72148081Y-62471294D01*
X72013650Y-62286266D01*
X71959851Y-62232467D01*
X75004015Y-62232467D01*
X75004015Y-64328202D01*
X75004016Y-64328208D01*
X75010423Y-64387815D01*
X75060717Y-64522660D01*
X75060721Y-64522667D01*
X75146967Y-64637876D01*
X75146970Y-64637879D01*
X75262179Y-64724125D01*
X75262186Y-64724129D01*
X75397032Y-64774423D01*
X75397031Y-64774423D01*
X75403959Y-64775167D01*
X75456642Y-64780832D01*
X77457387Y-64780831D01*
X77516998Y-64774423D01*
X77651846Y-64724128D01*
X77767061Y-64637878D01*
X77853311Y-64522663D01*
X77863705Y-64494792D01*
X77905575Y-64438859D01*
X77971038Y-64414440D01*
X78039312Y-64429290D01*
X78052761Y-64437797D01*
X78235477Y-64570549D01*
X78322627Y-64614954D01*
X78439259Y-64674381D01*
X78656766Y-64745053D01*
X78656767Y-64745053D01*
X78656770Y-64745054D01*
X78882661Y-64780832D01*
X78882662Y-64780832D01*
X79111368Y-64780832D01*
X79111369Y-64780832D01*
X79337260Y-64745054D01*
X79337263Y-64745053D01*
X79337264Y-64745053D01*
X79554770Y-64674381D01*
X79554770Y-64674380D01*
X79554773Y-64674380D01*
X79758553Y-64570549D01*
X79943581Y-64436118D01*
X80105301Y-64274398D01*
X80166698Y-64189891D01*
X80222027Y-64147228D01*
X80291640Y-64141249D01*
X80353435Y-64173855D01*
X80367329Y-64189888D01*
X80428729Y-64274398D01*
X80590449Y-64436118D01*
X80775477Y-64570549D01*
X80862627Y-64614954D01*
X80979259Y-64674381D01*
X81196766Y-64745053D01*
X81196767Y-64745053D01*
X81196770Y-64745054D01*
X81422661Y-64780832D01*
X81422662Y-64780832D01*
X81651368Y-64780832D01*
X81651369Y-64780832D01*
X81877260Y-64745054D01*
X81877263Y-64745053D01*
X81877264Y-64745053D01*
X82094770Y-64674381D01*
X82094770Y-64674380D01*
X82094773Y-64674380D01*
X82298553Y-64570549D01*
X82483581Y-64436118D01*
X82645301Y-64274398D01*
X82779732Y-64089370D01*
X82883563Y-63885590D01*
X82909577Y-63805527D01*
X85191697Y-63805527D01*
X85230145Y-63998813D01*
X85230148Y-63998823D01*
X85305562Y-64180891D01*
X85305569Y-64180904D01*
X85415058Y-64344765D01*
X85415061Y-64344769D01*
X85554412Y-64484120D01*
X85554416Y-64484123D01*
X85718277Y-64593612D01*
X85718290Y-64593619D01*
X85825145Y-64637879D01*
X85900363Y-64669035D01*
X85900367Y-64669035D01*
X85900368Y-64669036D01*
X86093654Y-64707484D01*
X86093657Y-64707484D01*
X86290741Y-64707484D01*
X86457162Y-64674380D01*
X86484033Y-64669035D01*
X86666112Y-64593616D01*
X86674439Y-64588051D01*
X86741114Y-64567170D01*
X86808495Y-64585651D01*
X86812224Y-64588047D01*
X86818281Y-64592094D01*
X86818292Y-64592100D01*
X86928814Y-64637879D01*
X87000365Y-64667516D01*
X87000369Y-64667516D01*
X87000370Y-64667517D01*
X87193656Y-64705965D01*
X87193659Y-64705965D01*
X87390743Y-64705965D01*
X87520782Y-64680097D01*
X87584035Y-64667516D01*
X87762447Y-64593616D01*
X87769748Y-64590592D01*
X87839217Y-64583123D01*
X87864652Y-64590592D01*
X87871960Y-64593619D01*
X88050365Y-64667516D01*
X88050369Y-64667516D01*
X88050370Y-64667517D01*
X88243656Y-64705965D01*
X88243659Y-64705965D01*
X88440743Y-64705965D01*
X88570782Y-64680097D01*
X88634035Y-64667516D01*
X88812447Y-64593616D01*
X88816107Y-64592100D01*
X88816107Y-64592099D01*
X88816114Y-64592097D01*
X88979982Y-64482604D01*
X89119339Y-64343247D01*
X89228832Y-64179379D01*
X89304251Y-63997300D01*
X89326472Y-63885587D01*
X89342700Y-63804008D01*
X89342700Y-63606921D01*
X89304252Y-63413635D01*
X89304251Y-63413634D01*
X89304251Y-63413630D01*
X89291433Y-63382684D01*
X89228835Y-63231557D01*
X89228828Y-63231544D01*
X89150956Y-63115001D01*
X89130078Y-63048324D01*
X89148562Y-62980943D01*
X89150934Y-62977251D01*
X89235766Y-62850293D01*
X89311185Y-62668214D01*
X89325009Y-62598718D01*
X89349634Y-62474922D01*
X89349634Y-62277835D01*
X89311186Y-62084549D01*
X89311185Y-62084548D01*
X89311185Y-62084544D01*
X89291907Y-62038003D01*
X89235769Y-61902471D01*
X89235762Y-61902458D01*
X89126273Y-61738597D01*
X89126270Y-61738593D01*
X88986919Y-61599242D01*
X88986915Y-61599239D01*
X88823054Y-61489750D01*
X88823041Y-61489743D01*
X88640973Y-61414329D01*
X88640963Y-61414326D01*
X88447677Y-61375879D01*
X88447675Y-61375879D01*
X88250593Y-61375879D01*
X88250591Y-61375879D01*
X88057304Y-61414326D01*
X88057294Y-61414329D01*
X87871586Y-61491252D01*
X87802117Y-61498721D01*
X87776682Y-61491252D01*
X87590973Y-61414329D01*
X87590963Y-61414326D01*
X87397677Y-61375879D01*
X87397675Y-61375879D01*
X87200593Y-61375879D01*
X87200591Y-61375879D01*
X87007304Y-61414326D01*
X87007294Y-61414329D01*
X86825227Y-61489743D01*
X86825217Y-61489749D01*
X86816882Y-61495318D01*
X86750203Y-61516192D01*
X86682824Y-61497704D01*
X86679104Y-61495313D01*
X86673054Y-61491270D01*
X86673039Y-61491262D01*
X86490971Y-61415848D01*
X86490961Y-61415845D01*
X86297675Y-61377398D01*
X86297673Y-61377398D01*
X86100591Y-61377398D01*
X86100589Y-61377398D01*
X85907302Y-61415845D01*
X85907292Y-61415848D01*
X85725224Y-61491262D01*
X85725211Y-61491269D01*
X85561350Y-61600758D01*
X85561346Y-61600761D01*
X85421995Y-61740112D01*
X85421992Y-61740116D01*
X85312503Y-61903977D01*
X85312496Y-61903990D01*
X85237082Y-62086058D01*
X85237079Y-62086068D01*
X85198632Y-62279354D01*
X85198632Y-62279357D01*
X85198632Y-62476439D01*
X85198632Y-62476441D01*
X85198631Y-62476441D01*
X85237079Y-62669727D01*
X85237082Y-62669737D01*
X85312496Y-62851805D01*
X85312503Y-62851818D01*
X85390375Y-62968361D01*
X85411253Y-63035039D01*
X85392768Y-63102419D01*
X85390375Y-63106143D01*
X85305569Y-63233063D01*
X85305562Y-63233076D01*
X85230148Y-63415144D01*
X85230145Y-63415154D01*
X85191698Y-63608440D01*
X85191698Y-63608443D01*
X85191698Y-63805525D01*
X85191698Y-63805527D01*
X85191697Y-63805527D01*
X82909577Y-63805527D01*
X82954237Y-63668077D01*
X82990015Y-63442186D01*
X82990015Y-63118478D01*
X82954237Y-62892587D01*
X82954236Y-62892583D01*
X82954236Y-62892582D01*
X82883564Y-62675076D01*
X82844658Y-62598718D01*
X82779732Y-62471294D01*
X82645301Y-62286266D01*
X82483581Y-62124546D01*
X82298553Y-61990115D01*
X82094770Y-61886282D01*
X81877263Y-61815610D01*
X81691827Y-61786240D01*
X81651369Y-61779832D01*
X81422661Y-61779832D01*
X81382203Y-61786240D01*
X81196768Y-61815610D01*
X81196765Y-61815610D01*
X80979259Y-61886282D01*
X80775476Y-61990115D01*
X80709565Y-62038003D01*
X80590449Y-62124546D01*
X80590447Y-62124548D01*
X80590446Y-62124548D01*
X80428730Y-62286264D01*
X80367333Y-62370770D01*
X80312002Y-62413435D01*
X80242389Y-62419414D01*
X80180594Y-62386808D01*
X80166697Y-62370770D01*
X80155788Y-62355755D01*
X80105301Y-62286266D01*
X79943581Y-62124546D01*
X79758553Y-61990115D01*
X79554770Y-61886282D01*
X79337263Y-61815610D01*
X79151827Y-61786240D01*
X79111369Y-61779832D01*
X78882661Y-61779832D01*
X78842203Y-61786240D01*
X78656768Y-61815610D01*
X78656765Y-61815610D01*
X78439259Y-61886282D01*
X78235476Y-61990115D01*
X78052774Y-62122857D01*
X77986967Y-62146337D01*
X77918913Y-62130512D01*
X77870218Y-62080406D01*
X77863705Y-62065870D01*
X77853311Y-62038001D01*
X77853308Y-62037996D01*
X77767062Y-61922787D01*
X77767059Y-61922784D01*
X77651850Y-61836538D01*
X77651843Y-61836534D01*
X77516997Y-61786240D01*
X77516998Y-61786240D01*
X77457398Y-61779833D01*
X77457396Y-61779832D01*
X77457388Y-61779832D01*
X77457379Y-61779832D01*
X75456644Y-61779832D01*
X75456638Y-61779833D01*
X75397031Y-61786240D01*
X75262186Y-61836534D01*
X75262179Y-61836538D01*
X75146970Y-61922784D01*
X75146967Y-61922787D01*
X75060721Y-62037996D01*
X75060717Y-62038003D01*
X75010423Y-62172849D01*
X75004016Y-62232448D01*
X75004015Y-62232467D01*
X71959851Y-62232467D01*
X71851930Y-62124546D01*
X71666902Y-61990115D01*
X71463119Y-61886282D01*
X71245612Y-61815610D01*
X71060176Y-61786240D01*
X71019718Y-61779832D01*
X70791010Y-61779832D01*
X70750552Y-61786240D01*
X70565117Y-61815610D01*
X70565114Y-61815610D01*
X70347608Y-61886282D01*
X70143825Y-61990115D01*
X70077914Y-62038003D01*
X69958798Y-62124546D01*
X69958796Y-62124548D01*
X69958795Y-62124548D01*
X69797079Y-62286264D01*
X69735682Y-62370770D01*
X69680351Y-62413435D01*
X69610738Y-62419414D01*
X69548943Y-62386808D01*
X69535046Y-62370770D01*
X69524137Y-62355755D01*
X69473650Y-62286266D01*
X69311930Y-62124546D01*
X69126902Y-61990115D01*
X68923119Y-61886282D01*
X68705612Y-61815610D01*
X68520176Y-61786240D01*
X68479718Y-61779832D01*
X68251010Y-61779832D01*
X68210552Y-61786240D01*
X68025117Y-61815610D01*
X68025114Y-61815610D01*
X67807608Y-61886282D01*
X67603825Y-61990115D01*
X67421123Y-62122857D01*
X67355316Y-62146337D01*
X67287262Y-62130512D01*
X67238567Y-62080406D01*
X67232054Y-62065870D01*
X67221660Y-62038001D01*
X67221657Y-62037996D01*
X67135411Y-61922787D01*
X67135408Y-61922784D01*
X67020199Y-61836538D01*
X67020192Y-61836534D01*
X66885346Y-61786240D01*
X66885347Y-61786240D01*
X66825747Y-61779833D01*
X66825745Y-61779832D01*
X66825737Y-61779832D01*
X66825728Y-61779832D01*
X64824993Y-61779832D01*
X64824987Y-61779833D01*
X64765380Y-61786240D01*
X64630535Y-61836534D01*
X64630528Y-61836538D01*
X64515319Y-61922784D01*
X64515316Y-61922787D01*
X64429070Y-62037996D01*
X64429066Y-62038003D01*
X64378772Y-62172849D01*
X64372365Y-62232448D01*
X64372364Y-62232467D01*
X57218646Y-62232467D01*
X57129978Y-62168047D01*
X57123370Y-62164680D01*
X57037281Y-62120815D01*
X56986487Y-62072843D01*
X56969692Y-62005022D01*
X56992229Y-61938887D01*
X57037281Y-61899848D01*
X57129974Y-61852619D01*
X57196367Y-61804382D01*
X57295577Y-61732303D01*
X57295579Y-61732300D01*
X57295583Y-61732298D01*
X57440330Y-61587551D01*
X57440332Y-61587547D01*
X57440335Y-61587545D01*
X57505607Y-61497704D01*
X57560651Y-61421942D01*
X57653584Y-61239551D01*
X57716841Y-61044866D01*
X57748864Y-60842684D01*
X57748864Y-60637980D01*
X57731735Y-60529835D01*
X57716841Y-60435797D01*
X57687491Y-60345469D01*
X57653584Y-60241113D01*
X57653582Y-60241110D01*
X57653582Y-60241108D01*
X57582254Y-60101121D01*
X57560651Y-60058722D01*
X57513334Y-59993595D01*
X57440335Y-59893118D01*
X57295577Y-59748360D01*
X57129978Y-59628047D01*
X57123370Y-59624680D01*
X57037281Y-59580815D01*
X56986487Y-59532843D01*
X56969692Y-59465022D01*
X56992229Y-59398887D01*
X57037281Y-59359848D01*
X57129974Y-59312619D01*
X57207665Y-59256174D01*
X57295577Y-59192303D01*
X57295579Y-59192300D01*
X57295583Y-59192298D01*
X57440330Y-59047551D01*
X57440332Y-59047547D01*
X57440335Y-59047545D01*
X57517994Y-58940655D01*
X57560651Y-58881942D01*
X57653584Y-58699551D01*
X57716841Y-58504866D01*
X57748864Y-58302684D01*
X57748864Y-58097980D01*
X57716841Y-57895798D01*
X57716166Y-57893722D01*
X57653582Y-57701108D01*
X57583472Y-57563511D01*
X57560651Y-57518722D01*
X57552920Y-57508081D01*
X57440335Y-57353118D01*
X57295577Y-57208360D01*
X57129978Y-57088047D01*
X57123370Y-57084680D01*
X57037281Y-57040815D01*
X56986487Y-56992843D01*
X56969692Y-56925022D01*
X56992229Y-56858887D01*
X57037281Y-56819848D01*
X57129974Y-56772619D01*
X57257976Y-56679621D01*
X57295577Y-56652303D01*
X57295579Y-56652300D01*
X57295583Y-56652298D01*
X57440330Y-56507551D01*
X57440332Y-56507547D01*
X57440335Y-56507545D01*
X57516420Y-56402821D01*
X57560651Y-56341942D01*
X57653584Y-56159551D01*
X57716841Y-55964866D01*
X57748864Y-55762684D01*
X57748864Y-55557980D01*
X57730010Y-55438941D01*
X57716841Y-55355797D01*
X57673277Y-55221722D01*
X57653584Y-55161113D01*
X57653582Y-55161110D01*
X57653582Y-55161108D01*
X57583020Y-55022624D01*
X57560651Y-54978722D01*
X57528456Y-54934409D01*
X57440335Y-54813118D01*
X57295577Y-54668360D01*
X57129975Y-54548045D01*
X57036733Y-54500535D01*
X56985938Y-54452561D01*
X56969143Y-54384739D01*
X56991681Y-54318605D01*
X57036735Y-54279566D01*
X57129710Y-54232193D01*
X57129711Y-54232193D01*
X57174285Y-54199806D01*
X56885028Y-53910549D01*
X96240000Y-53910549D01*
X96240000Y-54133450D01*
X96240001Y-54133466D01*
X96269094Y-54354452D01*
X96269095Y-54354457D01*
X96269096Y-54354463D01*
X96320317Y-54545624D01*
X96326790Y-54569780D01*
X96326793Y-54569790D01*
X96412093Y-54775722D01*
X96412095Y-54775726D01*
X96523552Y-54968774D01*
X96523557Y-54968780D01*
X96523558Y-54968782D01*
X96659251Y-55145622D01*
X96659257Y-55145629D01*
X96816870Y-55303242D01*
X96816877Y-55303248D01*
X96942437Y-55399593D01*
X96993726Y-55438948D01*
X97186774Y-55550405D01*
X97186777Y-55550406D01*
X97186782Y-55550409D01*
X97265317Y-55582939D01*
X97319721Y-55626780D01*
X97341786Y-55693074D01*
X97324507Y-55760773D01*
X97273370Y-55808384D01*
X97217865Y-55821500D01*
X96940484Y-55821500D01*
X96837704Y-55832000D01*
X96837703Y-55832001D01*
X96671164Y-55887186D01*
X96671162Y-55887187D01*
X96521848Y-55979286D01*
X96521844Y-55979289D01*
X96397789Y-56103344D01*
X96397786Y-56103348D01*
X96305687Y-56252662D01*
X96305686Y-56252664D01*
X96250501Y-56419203D01*
X96250500Y-56419204D01*
X96240000Y-56521984D01*
X96240000Y-58522015D01*
X96250500Y-58624795D01*
X96250501Y-58624797D01*
X96270508Y-58685174D01*
X96305686Y-58791335D01*
X96305687Y-58791337D01*
X96397786Y-58940651D01*
X96397789Y-58940655D01*
X96521844Y-59064710D01*
X96521848Y-59064713D01*
X96671162Y-59156812D01*
X96671164Y-59156813D01*
X96671166Y-59156814D01*
X96837703Y-59211999D01*
X96940492Y-59222500D01*
X96940497Y-59222500D01*
X98940503Y-59222500D01*
X98940508Y-59222500D01*
X99043297Y-59211999D01*
X99209834Y-59156814D01*
X99359155Y-59064711D01*
X99483211Y-58940655D01*
X99575314Y-58791334D01*
X99630499Y-58624797D01*
X99641000Y-58522008D01*
X99641000Y-56521992D01*
X99630499Y-56419203D01*
X99575314Y-56252666D01*
X99572543Y-56248174D01*
X99483213Y-56103348D01*
X99483210Y-56103344D01*
X99359155Y-55979289D01*
X99359151Y-55979286D01*
X99209837Y-55887187D01*
X99209835Y-55887186D01*
X99126565Y-55859593D01*
X99043297Y-55832001D01*
X99043295Y-55832000D01*
X98940515Y-55821500D01*
X98940508Y-55821500D01*
X98663135Y-55821500D01*
X98596096Y-55801815D01*
X98550341Y-55749011D01*
X98540397Y-55679853D01*
X98569422Y-55616297D01*
X98615683Y-55582939D01*
X98694217Y-55550409D01*
X98694218Y-55550407D01*
X98694226Y-55550405D01*
X98887274Y-55438948D01*
X99064124Y-55303247D01*
X99221747Y-55145624D01*
X99357448Y-54968774D01*
X99468905Y-54775726D01*
X99554210Y-54569781D01*
X99611904Y-54354463D01*
X99641000Y-54133457D01*
X99641000Y-53910543D01*
X99611904Y-53689537D01*
X99554210Y-53474219D01*
X99468905Y-53268274D01*
X99357448Y-53075226D01*
X99221747Y-52898376D01*
X99221742Y-52898370D01*
X99064129Y-52740757D01*
X99064122Y-52740751D01*
X98887282Y-52605058D01*
X98887280Y-52605057D01*
X98887274Y-52605052D01*
X98694226Y-52493595D01*
X98694222Y-52493593D01*
X98488290Y-52408293D01*
X98488283Y-52408291D01*
X98488281Y-52408290D01*
X98272963Y-52350596D01*
X98272957Y-52350595D01*
X98272952Y-52350594D01*
X98051966Y-52321501D01*
X98051963Y-52321500D01*
X98051957Y-52321500D01*
X97829043Y-52321500D01*
X97829037Y-52321500D01*
X97829033Y-52321501D01*
X97608047Y-52350594D01*
X97608040Y-52350595D01*
X97608037Y-52350596D01*
X97444528Y-52394408D01*
X97392719Y-52408290D01*
X97392709Y-52408293D01*
X97186777Y-52493593D01*
X97186773Y-52493595D01*
X96993726Y-52605052D01*
X96993717Y-52605058D01*
X96816877Y-52740751D01*
X96816870Y-52740757D01*
X96659257Y-52898370D01*
X96659251Y-52898377D01*
X96523558Y-53075217D01*
X96523552Y-53075226D01*
X96412095Y-53268273D01*
X96412093Y-53268277D01*
X96326793Y-53474209D01*
X96326790Y-53474219D01*
X96271611Y-53680153D01*
X96269097Y-53689534D01*
X96269094Y-53689547D01*
X96240001Y-53910533D01*
X96240000Y-53910549D01*
X56885028Y-53910549D01*
X56494811Y-53520332D01*
X56501025Y-53520332D01*
X56602758Y-53493073D01*
X56693970Y-53440412D01*
X56768444Y-53365938D01*
X56821105Y-53274726D01*
X56848364Y-53172993D01*
X56848364Y-53166779D01*
X57527838Y-53846253D01*
X57537035Y-53833597D01*
X57560223Y-53801681D01*
X57653119Y-53619363D01*
X57716354Y-53424749D01*
X57748364Y-53222649D01*
X57748364Y-53018014D01*
X57716354Y-52815914D01*
X57653119Y-52621300D01*
X57560223Y-52438982D01*
X57527838Y-52394409D01*
X57527838Y-52394408D01*
X56848364Y-53073883D01*
X56848364Y-53067671D01*
X56821105Y-52965938D01*
X56768444Y-52874726D01*
X56693970Y-52800252D01*
X56602758Y-52747591D01*
X56501025Y-52720332D01*
X56494810Y-52720332D01*
X57174286Y-52040856D01*
X57174285Y-52040855D01*
X57129723Y-52008479D01*
X57129714Y-52008473D01*
X57036183Y-51960817D01*
X56985387Y-51912843D01*
X56968592Y-51845022D01*
X56991129Y-51778887D01*
X57036184Y-51739847D01*
X57129710Y-51692193D01*
X57129711Y-51692193D01*
X57174285Y-51659806D01*
X56494811Y-50980332D01*
X56501025Y-50980332D01*
X56602758Y-50953073D01*
X56693970Y-50900412D01*
X56768444Y-50825938D01*
X56821105Y-50734726D01*
X56848364Y-50632993D01*
X56848364Y-50626779D01*
X57527838Y-51306253D01*
X57560223Y-51261681D01*
X57653119Y-51079363D01*
X57716354Y-50884749D01*
X57748364Y-50682649D01*
X57748364Y-50478014D01*
X57716354Y-50275914D01*
X57653119Y-50081300D01*
X57560223Y-49898982D01*
X57527838Y-49854409D01*
X57527838Y-49854408D01*
X56848364Y-50533883D01*
X56848364Y-50527671D01*
X56821105Y-50425938D01*
X56768444Y-50334726D01*
X56693970Y-50260252D01*
X56602758Y-50207591D01*
X56501025Y-50180332D01*
X56494810Y-50180332D01*
X57174286Y-49500856D01*
X57174285Y-49500855D01*
X57129723Y-49468479D01*
X57129714Y-49468473D01*
X57036733Y-49421097D01*
X56985937Y-49373122D01*
X56969142Y-49305301D01*
X56991679Y-49239167D01*
X57036734Y-49200127D01*
X57037284Y-49199847D01*
X57129974Y-49152619D01*
X57179508Y-49116630D01*
X57295577Y-49032303D01*
X57295579Y-49032300D01*
X57295583Y-49032298D01*
X57440330Y-48887551D01*
X57440332Y-48887547D01*
X57440335Y-48887545D01*
X57560648Y-48721946D01*
X57560649Y-48721945D01*
X57560651Y-48721942D01*
X57604846Y-48635204D01*
X66364864Y-48635204D01*
X66364864Y-48897459D01*
X66382617Y-49032298D01*
X66399094Y-49157448D01*
X66457417Y-49375112D01*
X66466966Y-49410750D01*
X66466969Y-49410760D01*
X66567317Y-49653022D01*
X66567322Y-49653032D01*
X66698439Y-49880135D01*
X66858082Y-50088183D01*
X66858090Y-50088192D01*
X67043504Y-50273606D01*
X67043512Y-50273613D01*
X67043513Y-50273614D01*
X67091918Y-50310756D01*
X67251560Y-50433256D01*
X67478663Y-50564373D01*
X67478673Y-50564378D01*
X67720935Y-50664726D01*
X67720945Y-50664730D01*
X67974248Y-50732602D01*
X68234244Y-50766832D01*
X68234251Y-50766832D01*
X68496477Y-50766832D01*
X68496484Y-50766832D01*
X68756480Y-50732602D01*
X69009783Y-50664730D01*
X69213535Y-50580333D01*
X69252054Y-50564378D01*
X69252055Y-50564377D01*
X69252061Y-50564375D01*
X69479167Y-50433256D01*
X69687215Y-50273614D01*
X69687219Y-50273609D01*
X69687224Y-50273606D01*
X69872638Y-50088192D01*
X69872641Y-50088187D01*
X69872646Y-50088183D01*
X70032288Y-49880135D01*
X70163407Y-49653029D01*
X70263762Y-49410751D01*
X70331634Y-49157448D01*
X70365864Y-48897452D01*
X70365864Y-48635212D01*
X70365863Y-48635204D01*
X76996515Y-48635204D01*
X76996515Y-48897459D01*
X77014268Y-49032298D01*
X77030745Y-49157448D01*
X77089068Y-49375112D01*
X77098617Y-49410750D01*
X77098620Y-49410760D01*
X77198968Y-49653022D01*
X77198973Y-49653032D01*
X77330090Y-49880135D01*
X77489733Y-50088183D01*
X77489741Y-50088192D01*
X77675155Y-50273606D01*
X77675163Y-50273613D01*
X77675164Y-50273614D01*
X77723569Y-50310756D01*
X77883211Y-50433256D01*
X78110314Y-50564373D01*
X78110324Y-50564378D01*
X78352586Y-50664726D01*
X78352596Y-50664730D01*
X78605899Y-50732602D01*
X78865895Y-50766832D01*
X78865902Y-50766832D01*
X79128128Y-50766832D01*
X79128135Y-50766832D01*
X79388131Y-50732602D01*
X79641434Y-50664730D01*
X79845186Y-50580333D01*
X79883705Y-50564378D01*
X79883706Y-50564377D01*
X79883712Y-50564375D01*
X80110818Y-50433256D01*
X80318866Y-50273614D01*
X80318870Y-50273609D01*
X80318875Y-50273606D01*
X80504289Y-50088192D01*
X80504292Y-50088187D01*
X80504297Y-50088183D01*
X80663939Y-49880135D01*
X80795058Y-49653029D01*
X80895413Y-49410751D01*
X80963285Y-49157448D01*
X80997515Y-48897452D01*
X80997515Y-48635212D01*
X80963285Y-48375216D01*
X80895413Y-48121913D01*
X80895409Y-48121903D01*
X80795061Y-47879641D01*
X80795056Y-47879631D01*
X80663939Y-47652528D01*
X80504296Y-47444480D01*
X80504289Y-47444472D01*
X80318875Y-47259058D01*
X80318866Y-47259050D01*
X80110818Y-47099407D01*
X79883715Y-46968290D01*
X79883705Y-46968285D01*
X79641443Y-46867937D01*
X79641436Y-46867935D01*
X79641434Y-46867934D01*
X79388131Y-46800062D01*
X79330354Y-46792455D01*
X79128142Y-46765832D01*
X79128135Y-46765832D01*
X78865895Y-46765832D01*
X78865887Y-46765832D01*
X78634787Y-46796258D01*
X78605899Y-46800062D01*
X78475090Y-46835112D01*
X78352596Y-46867934D01*
X78352586Y-46867937D01*
X78110324Y-46968285D01*
X78110314Y-46968290D01*
X77883211Y-47099407D01*
X77675163Y-47259050D01*
X77489733Y-47444480D01*
X77330090Y-47652528D01*
X77198973Y-47879631D01*
X77198968Y-47879641D01*
X77098620Y-48121903D01*
X77098617Y-48121913D01*
X77030745Y-48375217D01*
X76996515Y-48635204D01*
X70365863Y-48635204D01*
X70331634Y-48375216D01*
X70263762Y-48121913D01*
X70263758Y-48121903D01*
X70163410Y-47879641D01*
X70163405Y-47879631D01*
X70032288Y-47652528D01*
X69872645Y-47444480D01*
X69872638Y-47444472D01*
X69687224Y-47259058D01*
X69687215Y-47259050D01*
X69479167Y-47099407D01*
X69252064Y-46968290D01*
X69252054Y-46968285D01*
X69009792Y-46867937D01*
X69009785Y-46867935D01*
X69009783Y-46867934D01*
X68756480Y-46800062D01*
X68698703Y-46792455D01*
X68496491Y-46765832D01*
X68496484Y-46765832D01*
X68234244Y-46765832D01*
X68234236Y-46765832D01*
X68003136Y-46796258D01*
X67974248Y-46800062D01*
X67843439Y-46835112D01*
X67720945Y-46867934D01*
X67720935Y-46867937D01*
X67478673Y-46968285D01*
X67478663Y-46968290D01*
X67251560Y-47099407D01*
X67043512Y-47259050D01*
X66858082Y-47444480D01*
X66698439Y-47652528D01*
X66567322Y-47879631D01*
X66567317Y-47879641D01*
X66466969Y-48121903D01*
X66466966Y-48121913D01*
X66399094Y-48375217D01*
X66364864Y-48635204D01*
X57604846Y-48635204D01*
X57653584Y-48539551D01*
X57716841Y-48344866D01*
X57748864Y-48142684D01*
X57748864Y-47937980D01*
X57716841Y-47735798D01*
X57653584Y-47541113D01*
X57653582Y-47541110D01*
X57653582Y-47541108D01*
X57604343Y-47444472D01*
X57560651Y-47358722D01*
X57552920Y-47348081D01*
X57440335Y-47193118D01*
X57295577Y-47048360D01*
X57129978Y-46928047D01*
X57123370Y-46924680D01*
X57037281Y-46880815D01*
X56986487Y-46832843D01*
X56969692Y-46765022D01*
X56992229Y-46698887D01*
X57037281Y-46659848D01*
X57129974Y-46612619D01*
X57191913Y-46567618D01*
X57295577Y-46492303D01*
X57295579Y-46492300D01*
X57295583Y-46492298D01*
X57440330Y-46347551D01*
X57440332Y-46347547D01*
X57440335Y-46347545D01*
X57493096Y-46274922D01*
X57560651Y-46181942D01*
X57653584Y-45999551D01*
X57716841Y-45804866D01*
X57748864Y-45602684D01*
X57748864Y-45397980D01*
X57719136Y-45210288D01*
X57716841Y-45195797D01*
X57678947Y-45079172D01*
X57653584Y-45001113D01*
X57653582Y-45001110D01*
X57653582Y-45001108D01*
X57602046Y-44899964D01*
X57560651Y-44818722D01*
X57531677Y-44778842D01*
X57440335Y-44653118D01*
X57295577Y-44508360D01*
X57129978Y-44388047D01*
X57111441Y-44378602D01*
X57037281Y-44340815D01*
X56986487Y-44292843D01*
X56969692Y-44225022D01*
X56992229Y-44158887D01*
X57037281Y-44119848D01*
X57129974Y-44072619D01*
X57175138Y-44039806D01*
X57295577Y-43952303D01*
X57295579Y-43952300D01*
X57295583Y-43952298D01*
X57440330Y-43807551D01*
X57440332Y-43807547D01*
X57440335Y-43807545D01*
X57515535Y-43704039D01*
X57560651Y-43641942D01*
X57653584Y-43459551D01*
X57716841Y-43264866D01*
X57748042Y-43067872D01*
X86125500Y-43067872D01*
X86125500Y-43330127D01*
X86142540Y-43459551D01*
X86159730Y-43590116D01*
X86225387Y-43835153D01*
X86227602Y-43843418D01*
X86227605Y-43843428D01*
X86327953Y-44085690D01*
X86327958Y-44085700D01*
X86459075Y-44312803D01*
X86618718Y-44520851D01*
X86618726Y-44520860D01*
X86804140Y-44706274D01*
X86804148Y-44706281D01*
X86804149Y-44706282D01*
X86828049Y-44724621D01*
X87012196Y-44865924D01*
X87239299Y-44997041D01*
X87239309Y-44997046D01*
X87481571Y-45097394D01*
X87481581Y-45097398D01*
X87734884Y-45165270D01*
X87994880Y-45199500D01*
X87994887Y-45199500D01*
X88257113Y-45199500D01*
X88257120Y-45199500D01*
X88517116Y-45165270D01*
X88770419Y-45097398D01*
X89012697Y-44997043D01*
X89239803Y-44865924D01*
X89447851Y-44706282D01*
X89447855Y-44706277D01*
X89447860Y-44706274D01*
X89633274Y-44520860D01*
X89633277Y-44520855D01*
X89633282Y-44520851D01*
X89792924Y-44312803D01*
X89924043Y-44085697D01*
X90024398Y-43843419D01*
X90092270Y-43590116D01*
X90126500Y-43330120D01*
X90126500Y-43067880D01*
X90126499Y-43067872D01*
X90695500Y-43067872D01*
X90695500Y-43330127D01*
X90712540Y-43459551D01*
X90729730Y-43590116D01*
X90795387Y-43835153D01*
X90797602Y-43843418D01*
X90797605Y-43843428D01*
X90897953Y-44085690D01*
X90897958Y-44085700D01*
X91029075Y-44312803D01*
X91188718Y-44520851D01*
X91188726Y-44520860D01*
X91374140Y-44706274D01*
X91374148Y-44706281D01*
X91374149Y-44706282D01*
X91398049Y-44724621D01*
X91582196Y-44865924D01*
X91809299Y-44997041D01*
X91809309Y-44997046D01*
X92051571Y-45097394D01*
X92051581Y-45097398D01*
X92304884Y-45165270D01*
X92564880Y-45199500D01*
X92564887Y-45199500D01*
X92827113Y-45199500D01*
X92827120Y-45199500D01*
X93087116Y-45165270D01*
X93340419Y-45097398D01*
X93582697Y-44997043D01*
X93809803Y-44865924D01*
X94017851Y-44706282D01*
X94017855Y-44706277D01*
X94017860Y-44706274D01*
X94203274Y-44520860D01*
X94203277Y-44520855D01*
X94203282Y-44520851D01*
X94362924Y-44312803D01*
X94494043Y-44085697D01*
X94594398Y-43843419D01*
X94662270Y-43590116D01*
X94696500Y-43330120D01*
X94696500Y-43067880D01*
X94662270Y-42807884D01*
X94594398Y-42554581D01*
X94555760Y-42461300D01*
X94494046Y-42312309D01*
X94494041Y-42312299D01*
X94362924Y-42085196D01*
X94240424Y-41925554D01*
X94203282Y-41877149D01*
X94203281Y-41877148D01*
X94203274Y-41877140D01*
X94017860Y-41691726D01*
X94017851Y-41691718D01*
X93809803Y-41532075D01*
X93582700Y-41400958D01*
X93582690Y-41400953D01*
X93340428Y-41300605D01*
X93340421Y-41300603D01*
X93340419Y-41300602D01*
X93087116Y-41232730D01*
X93029339Y-41225123D01*
X92827127Y-41198500D01*
X92827120Y-41198500D01*
X92564880Y-41198500D01*
X92564872Y-41198500D01*
X92333772Y-41228926D01*
X92304884Y-41232730D01*
X92051581Y-41300602D01*
X92051571Y-41300605D01*
X91809309Y-41400953D01*
X91809299Y-41400958D01*
X91582196Y-41532075D01*
X91374148Y-41691718D01*
X91188718Y-41877148D01*
X91029075Y-42085196D01*
X90897958Y-42312299D01*
X90897953Y-42312309D01*
X90797605Y-42554571D01*
X90797602Y-42554581D01*
X90730252Y-42805938D01*
X90729730Y-42807885D01*
X90695500Y-43067872D01*
X90126499Y-43067872D01*
X90092270Y-42807884D01*
X90024398Y-42554581D01*
X89985760Y-42461300D01*
X89924046Y-42312309D01*
X89924041Y-42312299D01*
X89792924Y-42085196D01*
X89670424Y-41925554D01*
X89633282Y-41877149D01*
X89633281Y-41877148D01*
X89633274Y-41877140D01*
X89447860Y-41691726D01*
X89447851Y-41691718D01*
X89239803Y-41532075D01*
X89012700Y-41400958D01*
X89012690Y-41400953D01*
X88770428Y-41300605D01*
X88770421Y-41300603D01*
X88770419Y-41300602D01*
X88517116Y-41232730D01*
X88459339Y-41225123D01*
X88257127Y-41198500D01*
X88257120Y-41198500D01*
X87994880Y-41198500D01*
X87994872Y-41198500D01*
X87763772Y-41228926D01*
X87734884Y-41232730D01*
X87481581Y-41300602D01*
X87481571Y-41300605D01*
X87239309Y-41400953D01*
X87239299Y-41400958D01*
X87012196Y-41532075D01*
X86804148Y-41691718D01*
X86618718Y-41877148D01*
X86459075Y-42085196D01*
X86327958Y-42312299D01*
X86327953Y-42312309D01*
X86227605Y-42554571D01*
X86227602Y-42554581D01*
X86160252Y-42805938D01*
X86159730Y-42807885D01*
X86125500Y-43067872D01*
X57748042Y-43067872D01*
X57748864Y-43062684D01*
X57748864Y-42857980D01*
X57740621Y-42805938D01*
X57716841Y-42655797D01*
X57678733Y-42538514D01*
X57653584Y-42461113D01*
X57653582Y-42461110D01*
X57653582Y-42461108D01*
X57577759Y-42312299D01*
X57560651Y-42278722D01*
X57528456Y-42234409D01*
X57440335Y-42113118D01*
X57295577Y-41968360D01*
X57129978Y-41848047D01*
X57123370Y-41844680D01*
X57037281Y-41800815D01*
X56986487Y-41752843D01*
X56969692Y-41685022D01*
X56992229Y-41618887D01*
X57037281Y-41579848D01*
X57129974Y-41532619D01*
X57258846Y-41438989D01*
X57295577Y-41412303D01*
X57295579Y-41412300D01*
X57295583Y-41412298D01*
X57440330Y-41267551D01*
X57440332Y-41267547D01*
X57440335Y-41267545D01*
X57545256Y-41123131D01*
X57560651Y-41101942D01*
X57653584Y-40919551D01*
X57716841Y-40724866D01*
X57748864Y-40522684D01*
X57748864Y-40317980D01*
X57722135Y-40149220D01*
X57716841Y-40115797D01*
X57680331Y-40003432D01*
X57653584Y-39921113D01*
X57653582Y-39921110D01*
X57653582Y-39921108D01*
X57602229Y-39820323D01*
X57560651Y-39738722D01*
X57545256Y-39717532D01*
X57440335Y-39573118D01*
X57295577Y-39428360D01*
X57129977Y-39308047D01*
X57129976Y-39308046D01*
X57129974Y-39308045D01*
X57070262Y-39277620D01*
X56947587Y-39215113D01*
X56752898Y-39151854D01*
X56578359Y-39124210D01*
X56550716Y-39119832D01*
X56346012Y-39119832D01*
X56321693Y-39123683D01*
X56143829Y-39151854D01*
X55949140Y-39215113D01*
X55766750Y-39308047D01*
X55601150Y-39428360D01*
X55456392Y-39573118D01*
X55336079Y-39738718D01*
X55243145Y-39921108D01*
X55179886Y-40115797D01*
X55147864Y-40317980D01*
X50128863Y-40317980D01*
X50128863Y-39820324D01*
X50118363Y-39717535D01*
X50063178Y-39550998D01*
X49971076Y-39401676D01*
X49847020Y-39277620D01*
X49697698Y-39185518D01*
X49531161Y-39130333D01*
X49531159Y-39130332D01*
X49428374Y-39119832D01*
X48228362Y-39119832D01*
X48228345Y-39119833D01*
X48125567Y-39130332D01*
X48125564Y-39130333D01*
X47959032Y-39185517D01*
X47959027Y-39185519D01*
X47809706Y-39277621D01*
X47685653Y-39401674D01*
X47593551Y-39550995D01*
X47593549Y-39551000D01*
X47574071Y-39609781D01*
X47538365Y-39717535D01*
X47538365Y-39717536D01*
X47538364Y-39717536D01*
X47527864Y-39820315D01*
X25285797Y-39820315D01*
X25288446Y-39815726D01*
X25373751Y-39609781D01*
X25431445Y-39394463D01*
X25460541Y-39173457D01*
X25460541Y-38950543D01*
X25446205Y-38841648D01*
X94531500Y-38841648D01*
X94531500Y-39046351D01*
X94563522Y-39248534D01*
X94626781Y-39443223D01*
X94681695Y-39550995D01*
X94711652Y-39609790D01*
X94719715Y-39625613D01*
X94840028Y-39791213D01*
X94984786Y-39935971D01*
X95150388Y-40056286D01*
X95203828Y-40083516D01*
X95254623Y-40131490D01*
X95271418Y-40199312D01*
X95248880Y-40265446D01*
X95203828Y-40304484D01*
X95150388Y-40331713D01*
X94984786Y-40452028D01*
X94840028Y-40596786D01*
X94719715Y-40762386D01*
X94626781Y-40944776D01*
X94563522Y-41139465D01*
X94531500Y-41341648D01*
X94531500Y-41546352D01*
X94534144Y-41563044D01*
X94563522Y-41748534D01*
X94626781Y-41943223D01*
X94690691Y-42068653D01*
X94713345Y-42113113D01*
X94719715Y-42125613D01*
X94840028Y-42291213D01*
X94984786Y-42435971D01*
X95125927Y-42538514D01*
X95150390Y-42556287D01*
X95249484Y-42606778D01*
X95332776Y-42649218D01*
X95332778Y-42649218D01*
X95332781Y-42649220D01*
X95419332Y-42677342D01*
X95527465Y-42712477D01*
X95541665Y-42714726D01*
X95729648Y-42744500D01*
X95729649Y-42744500D01*
X95934351Y-42744500D01*
X95934352Y-42744500D01*
X96136534Y-42712477D01*
X96331219Y-42649220D01*
X96513610Y-42556287D01*
X96606590Y-42488732D01*
X96679213Y-42435971D01*
X96679215Y-42435968D01*
X96679219Y-42435966D01*
X96823966Y-42291219D01*
X96823968Y-42291215D01*
X96823971Y-42291213D01*
X96904456Y-42180433D01*
X96944287Y-42125610D01*
X97037220Y-41943219D01*
X97100477Y-41748534D01*
X97132500Y-41546352D01*
X97132500Y-41341648D01*
X97100477Y-41139466D01*
X97095169Y-41123131D01*
X97037218Y-40944776D01*
X97003503Y-40878607D01*
X96944287Y-40762390D01*
X96923226Y-40733402D01*
X96823971Y-40596786D01*
X96679213Y-40452028D01*
X96513613Y-40331715D01*
X96513612Y-40331714D01*
X96513610Y-40331713D01*
X96460171Y-40304484D01*
X96409376Y-40256510D01*
X96392581Y-40188689D01*
X96415118Y-40122554D01*
X96460172Y-40083515D01*
X96513610Y-40056287D01*
X96606590Y-39988732D01*
X96679213Y-39935971D01*
X96679215Y-39935968D01*
X96679219Y-39935966D01*
X96823966Y-39791219D01*
X96823968Y-39791215D01*
X96823971Y-39791213D01*
X96877502Y-39717532D01*
X96944287Y-39625610D01*
X97037220Y-39443219D01*
X97100477Y-39248534D01*
X97132500Y-39046352D01*
X97132500Y-38841648D01*
X97100477Y-38639466D01*
X97037220Y-38444781D01*
X97037218Y-38444778D01*
X97037218Y-38444776D01*
X97003503Y-38378607D01*
X96944287Y-38262390D01*
X96936556Y-38251749D01*
X96823971Y-38096786D01*
X96679213Y-37952028D01*
X96513613Y-37831715D01*
X96513612Y-37831714D01*
X96513610Y-37831713D01*
X96456653Y-37802691D01*
X96331223Y-37738781D01*
X96136534Y-37675522D01*
X95961995Y-37647878D01*
X95934352Y-37643500D01*
X95729648Y-37643500D01*
X95705329Y-37647351D01*
X95527465Y-37675522D01*
X95332776Y-37738781D01*
X95150386Y-37831715D01*
X94984786Y-37952028D01*
X94840028Y-38096786D01*
X94719715Y-38262386D01*
X94626781Y-38444776D01*
X94563522Y-38639465D01*
X94531500Y-38841648D01*
X25446205Y-38841648D01*
X25431445Y-38729537D01*
X25373751Y-38514219D01*
X25288446Y-38308274D01*
X25176989Y-38115226D01*
X25051768Y-37952034D01*
X25041289Y-37938377D01*
X25041283Y-37938370D01*
X24883670Y-37780757D01*
X24883663Y-37780751D01*
X24706823Y-37645058D01*
X24706821Y-37645057D01*
X24706815Y-37645052D01*
X24513767Y-37533595D01*
X24513763Y-37533593D01*
X24307831Y-37448293D01*
X24307824Y-37448291D01*
X24307822Y-37448290D01*
X24092504Y-37390596D01*
X24092498Y-37390595D01*
X24092493Y-37390594D01*
X23871507Y-37361501D01*
X23871504Y-37361500D01*
X23871498Y-37361500D01*
X23648584Y-37361500D01*
X23648578Y-37361500D01*
X23648574Y-37361501D01*
X23427588Y-37390594D01*
X23427581Y-37390595D01*
X23427578Y-37390596D01*
X23324543Y-37418204D01*
X23212260Y-37448290D01*
X23212250Y-37448293D01*
X23006318Y-37533593D01*
X23006314Y-37533595D01*
X22813267Y-37645052D01*
X22813258Y-37645058D01*
X22636418Y-37780751D01*
X22636411Y-37780757D01*
X22478798Y-37938370D01*
X22478792Y-37938377D01*
X22343099Y-38115217D01*
X22343093Y-38115226D01*
X22231636Y-38308273D01*
X22231634Y-38308277D01*
X22146334Y-38514209D01*
X22146331Y-38514219D01*
X22088638Y-38729534D01*
X22088635Y-38729547D01*
X22059542Y-38950533D01*
X22059541Y-38950549D01*
X20460540Y-38950549D01*
X20460540Y-37814128D01*
X20454132Y-37754517D01*
X20448262Y-37738780D01*
X20403838Y-37619671D01*
X20403834Y-37619664D01*
X20317588Y-37504455D01*
X20317585Y-37504452D01*
X20202376Y-37418206D01*
X20202369Y-37418202D01*
X20067523Y-37367908D01*
X20067524Y-37367908D01*
X20007924Y-37361501D01*
X20007922Y-37361500D01*
X20007914Y-37361500D01*
X20007905Y-37361500D01*
X17512170Y-37361500D01*
X17512164Y-37361501D01*
X17452557Y-37367908D01*
X17317712Y-37418202D01*
X17317705Y-37418206D01*
X17202496Y-37504452D01*
X17202493Y-37504455D01*
X17116247Y-37619664D01*
X17116243Y-37619671D01*
X17065949Y-37754517D01*
X17059542Y-37814116D01*
X17059542Y-37814123D01*
X17059541Y-37814135D01*
X13644050Y-37814135D01*
X13644050Y-34775902D01*
X29092500Y-34775902D01*
X29092500Y-35012097D01*
X29129446Y-35245368D01*
X29202433Y-35469996D01*
X29309657Y-35680433D01*
X29448483Y-35871510D01*
X29615490Y-36038517D01*
X29806567Y-36177343D01*
X29905991Y-36228002D01*
X30017003Y-36284566D01*
X30017005Y-36284566D01*
X30017008Y-36284568D01*
X30137412Y-36323689D01*
X30241631Y-36357553D01*
X30474903Y-36394500D01*
X30474908Y-36394500D01*
X30711097Y-36394500D01*
X30944368Y-36357553D01*
X31168992Y-36284568D01*
X31379433Y-36177343D01*
X31570510Y-36038517D01*
X31737517Y-35871510D01*
X31876343Y-35680433D01*
X31983568Y-35469992D01*
X32056553Y-35245368D01*
X32093500Y-35012097D01*
X32093500Y-34775902D01*
X33592500Y-34775902D01*
X33592500Y-35012097D01*
X33629446Y-35245368D01*
X33702433Y-35469996D01*
X33809657Y-35680433D01*
X33948483Y-35871510D01*
X34115490Y-36038517D01*
X34306567Y-36177343D01*
X34405991Y-36228002D01*
X34517003Y-36284566D01*
X34517005Y-36284566D01*
X34517008Y-36284568D01*
X34637412Y-36323689D01*
X34741631Y-36357553D01*
X34974903Y-36394500D01*
X34974908Y-36394500D01*
X35211097Y-36394500D01*
X35444368Y-36357553D01*
X35668992Y-36284568D01*
X35879433Y-36177343D01*
X36070510Y-36038517D01*
X36237517Y-35871510D01*
X36376343Y-35680433D01*
X36483568Y-35469992D01*
X36556553Y-35245368D01*
X36593500Y-35012097D01*
X36593500Y-34775902D01*
X36556553Y-34542631D01*
X36483566Y-34318003D01*
X36376342Y-34107566D01*
X36237517Y-33916490D01*
X36070510Y-33749483D01*
X35879433Y-33610657D01*
X35801706Y-33571053D01*
X35668996Y-33503433D01*
X35444368Y-33430446D01*
X35211097Y-33393500D01*
X35211092Y-33393500D01*
X34974908Y-33393500D01*
X34974903Y-33393500D01*
X34741631Y-33430446D01*
X34517003Y-33503433D01*
X34306566Y-33610657D01*
X34197550Y-33689862D01*
X34115490Y-33749483D01*
X34115488Y-33749485D01*
X34115487Y-33749485D01*
X33948485Y-33916487D01*
X33948485Y-33916488D01*
X33948483Y-33916490D01*
X33888862Y-33998550D01*
X33809657Y-34107566D01*
X33702433Y-34318003D01*
X33629446Y-34542631D01*
X33592500Y-34775902D01*
X32093500Y-34775902D01*
X32056553Y-34542631D01*
X31983566Y-34318003D01*
X31876342Y-34107566D01*
X31737517Y-33916490D01*
X31570510Y-33749483D01*
X31379433Y-33610657D01*
X31301706Y-33571053D01*
X31168996Y-33503433D01*
X30944368Y-33430446D01*
X30711097Y-33393500D01*
X30711092Y-33393500D01*
X30474908Y-33393500D01*
X30474903Y-33393500D01*
X30241631Y-33430446D01*
X30017003Y-33503433D01*
X29806566Y-33610657D01*
X29697550Y-33689862D01*
X29615490Y-33749483D01*
X29615488Y-33749485D01*
X29615487Y-33749485D01*
X29448485Y-33916487D01*
X29448485Y-33916488D01*
X29448483Y-33916490D01*
X29388862Y-33998550D01*
X29309657Y-34107566D01*
X29202433Y-34318003D01*
X29129446Y-34542631D01*
X29092500Y-34775902D01*
X13644050Y-34775902D01*
X13644050Y-29220186D01*
X15172500Y-29220186D01*
X15172500Y-29489813D01*
X15202686Y-29757719D01*
X15202687Y-29757728D01*
X15202688Y-29757732D01*
X15205082Y-29768220D01*
X15262684Y-30020594D01*
X15262687Y-30020602D01*
X15351734Y-30275082D01*
X15468714Y-30517994D01*
X15468716Y-30517997D01*
X15612162Y-30746289D01*
X15780266Y-30957085D01*
X15970915Y-31147734D01*
X16181711Y-31315838D01*
X16410003Y-31459284D01*
X16652921Y-31576267D01*
X16844049Y-31643145D01*
X16907397Y-31665312D01*
X16907405Y-31665315D01*
X16907408Y-31665315D01*
X16907409Y-31665316D01*
X17170268Y-31725312D01*
X17438187Y-31755499D01*
X17438188Y-31755500D01*
X17438191Y-31755500D01*
X17707812Y-31755500D01*
X17707812Y-31755499D01*
X17975732Y-31725312D01*
X18238591Y-31665316D01*
X18493079Y-31576267D01*
X18735997Y-31459284D01*
X18964289Y-31315838D01*
X19175085Y-31147734D01*
X19365734Y-30957085D01*
X19533838Y-30746289D01*
X19677284Y-30517997D01*
X19794267Y-30275079D01*
X19883316Y-30020591D01*
X19943312Y-29757732D01*
X19973500Y-29489809D01*
X19973500Y-29220191D01*
X19943312Y-28952268D01*
X19883316Y-28689409D01*
X19794267Y-28434921D01*
X19677284Y-28192003D01*
X19533838Y-27963711D01*
X19365734Y-27752915D01*
X19327954Y-27715135D01*
X26101500Y-27715135D01*
X26101500Y-29410870D01*
X26101501Y-29410876D01*
X26107908Y-29470483D01*
X26158202Y-29605328D01*
X26158206Y-29605335D01*
X26244452Y-29720544D01*
X26244455Y-29720547D01*
X26359664Y-29806793D01*
X26359671Y-29806797D01*
X26494517Y-29857091D01*
X26494516Y-29857091D01*
X26501444Y-29857835D01*
X26554127Y-29863500D01*
X28249872Y-29863499D01*
X28309483Y-29857091D01*
X28444331Y-29806796D01*
X28559546Y-29720546D01*
X28645796Y-29605331D01*
X28696091Y-29470483D01*
X28702500Y-29410873D01*
X28702499Y-28460648D01*
X29601500Y-28460648D01*
X29601500Y-28665351D01*
X29633522Y-28867534D01*
X29696781Y-29062223D01*
X29757532Y-29181452D01*
X29777269Y-29220188D01*
X29789715Y-29244613D01*
X29910028Y-29410213D01*
X30054786Y-29554971D01*
X30209749Y-29667556D01*
X30220390Y-29675287D01*
X30309212Y-29720544D01*
X30402776Y-29768218D01*
X30402778Y-29768218D01*
X30402781Y-29768220D01*
X30487608Y-29795782D01*
X30597465Y-29831477D01*
X30698557Y-29847488D01*
X30799648Y-29863500D01*
X30799649Y-29863500D01*
X31004351Y-29863500D01*
X31004352Y-29863500D01*
X31206534Y-29831477D01*
X31401219Y-29768220D01*
X31583610Y-29675287D01*
X31679901Y-29605328D01*
X31749213Y-29554971D01*
X31749215Y-29554968D01*
X31749219Y-29554966D01*
X31893966Y-29410219D01*
X31893968Y-29410215D01*
X31893971Y-29410213D01*
X31946732Y-29337590D01*
X32014287Y-29244610D01*
X32107220Y-29062219D01*
X32170477Y-28867534D01*
X32202500Y-28665352D01*
X32202500Y-28460648D01*
X32170477Y-28258466D01*
X32107220Y-28063781D01*
X32107218Y-28063778D01*
X32107218Y-28063776D01*
X32056232Y-27963712D01*
X32014287Y-27881390D01*
X32000633Y-27862597D01*
X31893971Y-27715786D01*
X31779320Y-27601135D01*
X37439500Y-27601135D01*
X37439500Y-30096870D01*
X37439501Y-30096876D01*
X37445908Y-30156483D01*
X37496202Y-30291328D01*
X37496206Y-30291335D01*
X37582452Y-30406544D01*
X37582455Y-30406547D01*
X37697664Y-30492793D01*
X37697671Y-30492797D01*
X37832517Y-30543091D01*
X37832516Y-30543091D01*
X37839444Y-30543835D01*
X37892127Y-30549500D01*
X40387872Y-30549499D01*
X40447483Y-30543091D01*
X40582331Y-30492796D01*
X40697546Y-30406546D01*
X40783796Y-30291331D01*
X40834091Y-30156483D01*
X40840500Y-30096873D01*
X40840499Y-28737549D01*
X42439500Y-28737549D01*
X42439500Y-28960450D01*
X42439501Y-28960466D01*
X42468594Y-29181452D01*
X42468595Y-29181457D01*
X42468596Y-29181463D01*
X42526290Y-29396780D01*
X42526293Y-29396790D01*
X42591812Y-29554966D01*
X42611595Y-29602726D01*
X42723052Y-29795774D01*
X42723057Y-29795780D01*
X42723058Y-29795782D01*
X42858751Y-29972622D01*
X42858757Y-29972629D01*
X43016370Y-30130242D01*
X43016377Y-30130248D01*
X43078235Y-30177713D01*
X43193226Y-30265948D01*
X43386274Y-30377405D01*
X43456622Y-30406544D01*
X43542529Y-30442128D01*
X43592219Y-30462710D01*
X43807537Y-30520404D01*
X44028543Y-30549500D01*
X44028550Y-30549500D01*
X44251450Y-30549500D01*
X44251457Y-30549500D01*
X44472463Y-30520404D01*
X44687781Y-30462710D01*
X44737454Y-30442135D01*
X54172500Y-30442135D01*
X54172500Y-32137870D01*
X54172501Y-32137876D01*
X54178908Y-32197483D01*
X54229202Y-32332328D01*
X54229206Y-32332335D01*
X54315452Y-32447544D01*
X54315455Y-32447547D01*
X54430664Y-32533793D01*
X54430671Y-32533797D01*
X54565517Y-32584091D01*
X54565516Y-32584091D01*
X54572444Y-32584835D01*
X54625127Y-32590500D01*
X56320872Y-32590499D01*
X56380483Y-32584091D01*
X56515331Y-32533796D01*
X56630546Y-32447546D01*
X56716796Y-32332331D01*
X56767091Y-32197483D01*
X56773500Y-32137873D01*
X56773499Y-31187648D01*
X57672500Y-31187648D01*
X57672500Y-31392351D01*
X57704522Y-31594534D01*
X57767781Y-31789223D01*
X57860715Y-31971613D01*
X57981028Y-32137213D01*
X58125786Y-32281971D01*
X58280749Y-32394556D01*
X58291390Y-32402287D01*
X58380212Y-32447544D01*
X58473776Y-32495218D01*
X58473778Y-32495218D01*
X58473781Y-32495220D01*
X58578137Y-32529127D01*
X58668465Y-32558477D01*
X58769557Y-32574488D01*
X58870648Y-32590500D01*
X58870649Y-32590500D01*
X59075351Y-32590500D01*
X59075352Y-32590500D01*
X59277534Y-32558477D01*
X59472219Y-32495220D01*
X59654610Y-32402287D01*
X59750901Y-32332328D01*
X59820213Y-32281971D01*
X59820215Y-32281968D01*
X59820219Y-32281966D01*
X59964966Y-32137219D01*
X59964968Y-32137215D01*
X59964971Y-32137213D01*
X60017732Y-32064590D01*
X60085287Y-31971610D01*
X60178220Y-31789219D01*
X60241477Y-31594534D01*
X60273500Y-31392352D01*
X60273500Y-31187648D01*
X60267178Y-31147734D01*
X60255585Y-31074536D01*
X60253040Y-31058467D01*
X64372364Y-31058467D01*
X64372364Y-33154202D01*
X64372365Y-33154208D01*
X64378772Y-33213815D01*
X64429066Y-33348660D01*
X64429070Y-33348667D01*
X64515316Y-33463876D01*
X64515319Y-33463879D01*
X64630528Y-33550125D01*
X64630535Y-33550129D01*
X64765381Y-33600423D01*
X64765380Y-33600423D01*
X64772308Y-33601167D01*
X64824991Y-33606832D01*
X66825736Y-33606831D01*
X66885347Y-33600423D01*
X67020195Y-33550128D01*
X67135410Y-33463878D01*
X67221660Y-33348663D01*
X67232054Y-33320792D01*
X67273924Y-33264859D01*
X67339387Y-33240440D01*
X67407661Y-33255290D01*
X67421110Y-33263797D01*
X67603826Y-33396549D01*
X67670353Y-33430446D01*
X67807608Y-33500381D01*
X68025115Y-33571053D01*
X68025116Y-33571053D01*
X68025119Y-33571054D01*
X68251010Y-33606832D01*
X68251011Y-33606832D01*
X68479717Y-33606832D01*
X68479718Y-33606832D01*
X68705609Y-33571054D01*
X68705612Y-33571053D01*
X68705613Y-33571053D01*
X68923119Y-33500381D01*
X68923119Y-33500380D01*
X68923122Y-33500380D01*
X69126902Y-33396549D01*
X69311930Y-33262118D01*
X69473650Y-33100398D01*
X69535047Y-33015891D01*
X69590376Y-32973228D01*
X69659989Y-32967249D01*
X69721784Y-32999855D01*
X69735678Y-33015888D01*
X69797078Y-33100398D01*
X69958798Y-33262118D01*
X70143826Y-33396549D01*
X70210353Y-33430446D01*
X70347608Y-33500381D01*
X70565115Y-33571053D01*
X70565116Y-33571053D01*
X70565119Y-33571054D01*
X70791010Y-33606832D01*
X70791011Y-33606832D01*
X71019717Y-33606832D01*
X71019718Y-33606832D01*
X71245609Y-33571054D01*
X71245612Y-33571053D01*
X71245613Y-33571053D01*
X71463119Y-33500381D01*
X71463119Y-33500380D01*
X71463122Y-33500380D01*
X71666902Y-33396549D01*
X71851930Y-33262118D01*
X72013650Y-33100398D01*
X72148081Y-32915370D01*
X72251912Y-32711590D01*
X72251913Y-32711587D01*
X72322585Y-32494081D01*
X72322585Y-32494080D01*
X72322586Y-32494077D01*
X72358364Y-32268186D01*
X72358364Y-31944478D01*
X72322586Y-31718587D01*
X72322585Y-31718583D01*
X72322585Y-31718582D01*
X72251913Y-31501076D01*
X72196515Y-31392351D01*
X72148081Y-31297294D01*
X72013650Y-31112266D01*
X71959851Y-31058467D01*
X75004015Y-31058467D01*
X75004015Y-33154202D01*
X75004016Y-33154208D01*
X75010423Y-33213815D01*
X75060717Y-33348660D01*
X75060721Y-33348667D01*
X75146967Y-33463876D01*
X75146970Y-33463879D01*
X75262179Y-33550125D01*
X75262186Y-33550129D01*
X75397032Y-33600423D01*
X75397031Y-33600423D01*
X75403959Y-33601167D01*
X75456642Y-33606832D01*
X77457387Y-33606831D01*
X77516998Y-33600423D01*
X77651846Y-33550128D01*
X77767061Y-33463878D01*
X77853311Y-33348663D01*
X77863705Y-33320792D01*
X77905575Y-33264859D01*
X77971038Y-33240440D01*
X78039312Y-33255290D01*
X78052761Y-33263797D01*
X78235477Y-33396549D01*
X78302004Y-33430446D01*
X78439259Y-33500381D01*
X78656766Y-33571053D01*
X78656767Y-33571053D01*
X78656770Y-33571054D01*
X78882661Y-33606832D01*
X78882662Y-33606832D01*
X79111368Y-33606832D01*
X79111369Y-33606832D01*
X79337260Y-33571054D01*
X79337263Y-33571053D01*
X79337264Y-33571053D01*
X79554770Y-33500381D01*
X79554770Y-33500380D01*
X79554773Y-33500380D01*
X79758553Y-33396549D01*
X79943581Y-33262118D01*
X80105301Y-33100398D01*
X80166698Y-33015891D01*
X80222027Y-32973228D01*
X80291640Y-32967249D01*
X80353435Y-32999855D01*
X80367329Y-33015888D01*
X80428729Y-33100398D01*
X80590449Y-33262118D01*
X80775477Y-33396549D01*
X80842004Y-33430446D01*
X80979259Y-33500381D01*
X81196766Y-33571053D01*
X81196767Y-33571053D01*
X81196770Y-33571054D01*
X81422661Y-33606832D01*
X81422662Y-33606832D01*
X81651368Y-33606832D01*
X81651369Y-33606832D01*
X81877260Y-33571054D01*
X81877263Y-33571053D01*
X81877264Y-33571053D01*
X82094770Y-33500381D01*
X82094770Y-33500380D01*
X82094773Y-33500380D01*
X82298553Y-33396549D01*
X82483581Y-33262118D01*
X82645301Y-33100398D01*
X82779732Y-32915370D01*
X82883563Y-32711590D01*
X82883564Y-32711587D01*
X82954236Y-32494081D01*
X82954236Y-32494080D01*
X82954237Y-32494077D01*
X82990015Y-32268186D01*
X82990015Y-31944478D01*
X82954237Y-31718587D01*
X82954236Y-31718583D01*
X82954236Y-31718582D01*
X82883564Y-31501076D01*
X82828166Y-31392351D01*
X82779732Y-31297294D01*
X82645301Y-31112266D01*
X82483581Y-30950546D01*
X82298553Y-30816115D01*
X82248832Y-30790781D01*
X82094770Y-30712282D01*
X81877263Y-30641610D01*
X81667519Y-30608390D01*
X81651369Y-30605832D01*
X81422661Y-30605832D01*
X81406511Y-30608390D01*
X81196768Y-30641610D01*
X81196765Y-30641610D01*
X80979259Y-30712282D01*
X80775476Y-30816115D01*
X80709565Y-30864003D01*
X80590449Y-30950546D01*
X80590447Y-30950548D01*
X80590446Y-30950548D01*
X80428730Y-31112264D01*
X80367333Y-31196770D01*
X80312002Y-31239435D01*
X80242389Y-31245414D01*
X80180594Y-31212808D01*
X80166697Y-31196770D01*
X80131070Y-31147734D01*
X80105301Y-31112266D01*
X79943581Y-30950546D01*
X79758553Y-30816115D01*
X79708832Y-30790781D01*
X79554770Y-30712282D01*
X79337263Y-30641610D01*
X79127519Y-30608390D01*
X79111369Y-30605832D01*
X78882661Y-30605832D01*
X78866511Y-30608390D01*
X78656768Y-30641610D01*
X78656765Y-30641610D01*
X78439259Y-30712282D01*
X78235476Y-30816115D01*
X78052774Y-30948857D01*
X77986967Y-30972337D01*
X77918913Y-30956512D01*
X77870218Y-30906406D01*
X77863705Y-30891870D01*
X77853311Y-30864001D01*
X77853308Y-30863996D01*
X77767062Y-30748787D01*
X77767059Y-30748784D01*
X77651850Y-30662538D01*
X77651843Y-30662534D01*
X77516997Y-30612240D01*
X77516998Y-30612240D01*
X77457398Y-30605833D01*
X77457396Y-30605832D01*
X77457388Y-30605832D01*
X77457379Y-30605832D01*
X75456644Y-30605832D01*
X75456638Y-30605833D01*
X75397031Y-30612240D01*
X75262186Y-30662534D01*
X75262179Y-30662538D01*
X75146970Y-30748784D01*
X75146967Y-30748787D01*
X75060721Y-30863996D01*
X75060717Y-30864003D01*
X75010423Y-30998849D01*
X75004016Y-31058448D01*
X75004015Y-31058467D01*
X71959851Y-31058467D01*
X71851930Y-30950546D01*
X71666902Y-30816115D01*
X71617181Y-30790781D01*
X71463119Y-30712282D01*
X71245612Y-30641610D01*
X71035868Y-30608390D01*
X71019718Y-30605832D01*
X70791010Y-30605832D01*
X70774860Y-30608390D01*
X70565117Y-30641610D01*
X70565114Y-30641610D01*
X70347608Y-30712282D01*
X70143825Y-30816115D01*
X70077914Y-30864003D01*
X69958798Y-30950546D01*
X69958796Y-30950548D01*
X69958795Y-30950548D01*
X69797079Y-31112264D01*
X69735682Y-31196770D01*
X69680351Y-31239435D01*
X69610738Y-31245414D01*
X69548943Y-31212808D01*
X69535046Y-31196770D01*
X69499419Y-31147734D01*
X69473650Y-31112266D01*
X69311930Y-30950546D01*
X69126902Y-30816115D01*
X69077181Y-30790781D01*
X68923119Y-30712282D01*
X68705612Y-30641610D01*
X68495868Y-30608390D01*
X68479718Y-30605832D01*
X68251010Y-30605832D01*
X68234860Y-30608390D01*
X68025117Y-30641610D01*
X68025114Y-30641610D01*
X67807608Y-30712282D01*
X67603825Y-30816115D01*
X67421123Y-30948857D01*
X67355316Y-30972337D01*
X67287262Y-30956512D01*
X67238567Y-30906406D01*
X67232054Y-30891870D01*
X67221660Y-30864001D01*
X67221657Y-30863996D01*
X67135411Y-30748787D01*
X67135408Y-30748784D01*
X67020199Y-30662538D01*
X67020192Y-30662534D01*
X66885346Y-30612240D01*
X66885347Y-30612240D01*
X66825747Y-30605833D01*
X66825745Y-30605832D01*
X66825737Y-30605832D01*
X66825728Y-30605832D01*
X64824993Y-30605832D01*
X64824987Y-30605833D01*
X64765380Y-30612240D01*
X64630535Y-30662534D01*
X64630528Y-30662538D01*
X64515319Y-30748784D01*
X64515316Y-30748787D01*
X64429070Y-30863996D01*
X64429066Y-30864003D01*
X64378772Y-30998849D01*
X64372365Y-31058448D01*
X64372364Y-31058467D01*
X60253040Y-31058467D01*
X60249834Y-31038229D01*
X60241477Y-30985466D01*
X60178220Y-30790781D01*
X60178218Y-30790778D01*
X60178218Y-30790776D01*
X60138223Y-30712282D01*
X60085287Y-30608390D01*
X60077556Y-30597749D01*
X59964971Y-30442786D01*
X59820213Y-30298028D01*
X59654613Y-30177715D01*
X59654612Y-30177714D01*
X59654610Y-30177713D01*
X59597653Y-30148691D01*
X59472223Y-30084781D01*
X59277534Y-30021522D01*
X59102995Y-29993878D01*
X59075352Y-29989500D01*
X58870648Y-29989500D01*
X58846329Y-29993351D01*
X58668465Y-30021522D01*
X58473776Y-30084781D01*
X58291386Y-30177715D01*
X58125786Y-30298028D01*
X57981028Y-30442786D01*
X57860715Y-30608386D01*
X57767781Y-30790776D01*
X57704522Y-30985465D01*
X57672500Y-31187648D01*
X56773499Y-31187648D01*
X56773499Y-30442128D01*
X56767091Y-30382517D01*
X56765184Y-30377405D01*
X56716797Y-30247671D01*
X56716793Y-30247664D01*
X56630547Y-30132455D01*
X56630544Y-30132452D01*
X56515335Y-30046206D01*
X56515328Y-30046202D01*
X56380482Y-29995908D01*
X56380483Y-29995908D01*
X56320883Y-29989501D01*
X56320881Y-29989500D01*
X56320873Y-29989500D01*
X56320864Y-29989500D01*
X54625129Y-29989500D01*
X54625123Y-29989501D01*
X54565516Y-29995908D01*
X54430671Y-30046202D01*
X54430664Y-30046206D01*
X54315455Y-30132452D01*
X54315452Y-30132455D01*
X54229206Y-30247664D01*
X54229202Y-30247671D01*
X54178908Y-30382517D01*
X54176325Y-30406547D01*
X54172501Y-30442123D01*
X54172500Y-30442135D01*
X44737454Y-30442135D01*
X44893726Y-30377405D01*
X45086774Y-30265948D01*
X45263624Y-30130247D01*
X45421247Y-29972624D01*
X45556948Y-29795774D01*
X45668405Y-29602726D01*
X45743037Y-29422549D01*
X92125500Y-29422549D01*
X92125500Y-29645450D01*
X92125501Y-29645466D01*
X92154594Y-29866452D01*
X92154595Y-29866457D01*
X92154596Y-29866463D01*
X92202758Y-30046206D01*
X92212290Y-30081780D01*
X92212293Y-30081790D01*
X92297593Y-30287722D01*
X92297595Y-30287726D01*
X92409052Y-30480774D01*
X92409057Y-30480780D01*
X92409058Y-30480782D01*
X92544751Y-30657622D01*
X92544757Y-30657629D01*
X92702370Y-30815242D01*
X92702376Y-30815247D01*
X92879226Y-30950948D01*
X93072274Y-31062405D01*
X93278219Y-31147710D01*
X93493537Y-31205404D01*
X93714543Y-31234500D01*
X93714550Y-31234500D01*
X93937450Y-31234500D01*
X93937457Y-31234500D01*
X94158463Y-31205404D01*
X94373781Y-31147710D01*
X94579726Y-31062405D01*
X94772774Y-30950948D01*
X94949624Y-30815247D01*
X95107247Y-30657624D01*
X95242948Y-30480774D01*
X95354405Y-30287726D01*
X95439710Y-30081781D01*
X95497404Y-29866463D01*
X95526500Y-29645457D01*
X95526500Y-29422543D01*
X95497404Y-29201537D01*
X95439710Y-28986219D01*
X95354405Y-28780274D01*
X95242948Y-28587226D01*
X95107247Y-28410376D01*
X95107242Y-28410370D01*
X94949629Y-28252757D01*
X94949622Y-28252751D01*
X94772782Y-28117058D01*
X94772780Y-28117057D01*
X94772774Y-28117052D01*
X94579726Y-28005595D01*
X94579722Y-28005593D01*
X94373790Y-27920293D01*
X94373783Y-27920291D01*
X94373781Y-27920290D01*
X94158463Y-27862596D01*
X94158457Y-27862595D01*
X94158452Y-27862594D01*
X93937466Y-27833501D01*
X93937463Y-27833500D01*
X93937457Y-27833500D01*
X93714543Y-27833500D01*
X93714537Y-27833500D01*
X93714533Y-27833501D01*
X93493547Y-27862594D01*
X93493540Y-27862595D01*
X93493537Y-27862596D01*
X93345669Y-27902217D01*
X93278219Y-27920290D01*
X93278209Y-27920293D01*
X93072277Y-28005593D01*
X93072273Y-28005595D01*
X92879226Y-28117052D01*
X92879217Y-28117058D01*
X92702377Y-28252751D01*
X92702370Y-28252757D01*
X92544757Y-28410370D01*
X92544751Y-28410377D01*
X92409058Y-28587217D01*
X92409052Y-28587226D01*
X92297595Y-28780273D01*
X92297593Y-28780277D01*
X92212293Y-28986209D01*
X92212290Y-28986219D01*
X92154597Y-29201534D01*
X92154594Y-29201547D01*
X92125501Y-29422533D01*
X92125500Y-29422549D01*
X45743037Y-29422549D01*
X45753710Y-29396781D01*
X45811404Y-29181463D01*
X45840500Y-28960457D01*
X45840500Y-28737543D01*
X45811404Y-28516537D01*
X45753710Y-28301219D01*
X45668405Y-28095274D01*
X45556948Y-27902226D01*
X45504213Y-27833500D01*
X45421248Y-27725377D01*
X45421242Y-27725370D01*
X45263629Y-27567757D01*
X45263622Y-27567751D01*
X45086782Y-27432058D01*
X45086780Y-27432057D01*
X45086774Y-27432052D01*
X44893726Y-27320595D01*
X44893722Y-27320593D01*
X44687790Y-27235293D01*
X44687783Y-27235291D01*
X44687781Y-27235290D01*
X44472463Y-27177596D01*
X44472457Y-27177595D01*
X44472452Y-27177594D01*
X44251466Y-27148501D01*
X44251463Y-27148500D01*
X44251457Y-27148500D01*
X44028543Y-27148500D01*
X44028537Y-27148500D01*
X44028533Y-27148501D01*
X43807547Y-27177594D01*
X43807540Y-27177595D01*
X43807537Y-27177596D01*
X43704502Y-27205204D01*
X43592219Y-27235290D01*
X43592209Y-27235293D01*
X43386277Y-27320593D01*
X43386273Y-27320595D01*
X43193226Y-27432052D01*
X43193217Y-27432058D01*
X43016377Y-27567751D01*
X43016370Y-27567757D01*
X42858757Y-27725370D01*
X42858751Y-27725377D01*
X42723058Y-27902217D01*
X42723052Y-27902226D01*
X42611595Y-28095273D01*
X42611593Y-28095277D01*
X42526293Y-28301209D01*
X42526290Y-28301219D01*
X42468597Y-28516534D01*
X42468594Y-28516547D01*
X42439501Y-28737533D01*
X42439500Y-28737549D01*
X40840499Y-28737549D01*
X40840499Y-27601128D01*
X40834091Y-27541517D01*
X40826315Y-27520669D01*
X40783797Y-27406671D01*
X40783793Y-27406664D01*
X40697547Y-27291455D01*
X40697544Y-27291452D01*
X40582335Y-27205206D01*
X40582328Y-27205202D01*
X40447482Y-27154908D01*
X40447483Y-27154908D01*
X40387883Y-27148501D01*
X40387881Y-27148500D01*
X40387873Y-27148500D01*
X40387864Y-27148500D01*
X37892129Y-27148500D01*
X37892123Y-27148501D01*
X37832516Y-27154908D01*
X37697671Y-27205202D01*
X37697664Y-27205206D01*
X37582455Y-27291452D01*
X37582452Y-27291455D01*
X37496206Y-27406664D01*
X37496202Y-27406671D01*
X37445908Y-27541517D01*
X37442736Y-27571028D01*
X37439501Y-27601123D01*
X37439500Y-27601135D01*
X31779320Y-27601135D01*
X31749213Y-27571028D01*
X31583613Y-27450715D01*
X31583612Y-27450714D01*
X31583610Y-27450713D01*
X31497169Y-27406669D01*
X31401223Y-27357781D01*
X31206534Y-27294522D01*
X31031995Y-27266878D01*
X31004352Y-27262500D01*
X30799648Y-27262500D01*
X30775329Y-27266351D01*
X30597465Y-27294522D01*
X30402776Y-27357781D01*
X30220386Y-27450715D01*
X30054786Y-27571028D01*
X29910028Y-27715786D01*
X29789715Y-27881386D01*
X29696781Y-28063776D01*
X29633522Y-28258465D01*
X29601500Y-28460648D01*
X28702499Y-28460648D01*
X28702499Y-27715128D01*
X28696091Y-27655517D01*
X28675805Y-27601128D01*
X28645797Y-27520671D01*
X28645793Y-27520664D01*
X28559547Y-27405455D01*
X28559544Y-27405452D01*
X28444335Y-27319206D01*
X28444328Y-27319202D01*
X28309482Y-27268908D01*
X28309483Y-27268908D01*
X28249883Y-27262501D01*
X28249881Y-27262500D01*
X28249873Y-27262500D01*
X28249864Y-27262500D01*
X26554129Y-27262500D01*
X26554123Y-27262501D01*
X26494516Y-27268908D01*
X26359671Y-27319202D01*
X26359664Y-27319206D01*
X26244455Y-27405452D01*
X26244452Y-27405455D01*
X26158206Y-27520664D01*
X26158202Y-27520671D01*
X26107908Y-27655517D01*
X26101501Y-27715116D01*
X26101501Y-27715123D01*
X26101500Y-27715135D01*
X19327954Y-27715135D01*
X19175085Y-27562266D01*
X18964289Y-27394162D01*
X18735997Y-27250716D01*
X18735994Y-27250714D01*
X18493082Y-27133734D01*
X18238602Y-27044687D01*
X18238594Y-27044684D01*
X18041446Y-26999687D01*
X17975732Y-26984688D01*
X17975728Y-26984687D01*
X17975719Y-26984686D01*
X17707813Y-26954500D01*
X17707809Y-26954500D01*
X17438191Y-26954500D01*
X17438186Y-26954500D01*
X17170280Y-26984686D01*
X17170268Y-26984688D01*
X16907405Y-27044684D01*
X16907397Y-27044687D01*
X16652917Y-27133734D01*
X16410005Y-27250714D01*
X16181712Y-27394161D01*
X15970915Y-27562265D01*
X15780265Y-27752915D01*
X15612161Y-27963712D01*
X15468714Y-28192005D01*
X15351734Y-28434917D01*
X15262687Y-28689397D01*
X15262684Y-28689405D01*
X15202688Y-28952268D01*
X15202686Y-28952280D01*
X15172500Y-29220186D01*
X13644050Y-29220186D01*
X13644050Y-25113648D01*
X65427750Y-25113648D01*
X65427750Y-25318351D01*
X65459772Y-25520534D01*
X65523031Y-25715223D01*
X65615965Y-25897613D01*
X65736278Y-26063213D01*
X65881036Y-26207971D01*
X66035999Y-26320556D01*
X66046640Y-26328287D01*
X66162857Y-26387503D01*
X66229026Y-26421218D01*
X66229028Y-26421218D01*
X66229031Y-26421220D01*
X66333387Y-26455127D01*
X66423715Y-26484477D01*
X66524807Y-26500488D01*
X66625898Y-26516500D01*
X66625899Y-26516500D01*
X66830601Y-26516500D01*
X66830602Y-26516500D01*
X67032784Y-26484477D01*
X67227469Y-26421220D01*
X67409860Y-26328287D01*
X67539636Y-26234000D01*
X67575463Y-26207971D01*
X67575465Y-26207968D01*
X67575469Y-26207966D01*
X67720216Y-26063219D01*
X67720218Y-26063215D01*
X67720221Y-26063213D01*
X67783521Y-25976086D01*
X67840537Y-25897610D01*
X67933470Y-25715219D01*
X67996727Y-25520534D01*
X68028750Y-25318352D01*
X68028750Y-25113648D01*
X67996727Y-24911466D01*
X67933470Y-24716781D01*
X67933468Y-24716778D01*
X67933468Y-24716776D01*
X67880586Y-24612991D01*
X67840537Y-24534390D01*
X67782864Y-24455009D01*
X67720221Y-24368786D01*
X67575463Y-24224028D01*
X67409861Y-24103713D01*
X67355871Y-24076203D01*
X67305075Y-24028228D01*
X67288281Y-23960407D01*
X67310819Y-23894272D01*
X67355874Y-23855233D01*
X67409599Y-23827859D01*
X67454171Y-23795474D01*
X66774697Y-23116000D01*
X66780911Y-23116000D01*
X66882644Y-23088741D01*
X66973856Y-23036080D01*
X67048330Y-22961606D01*
X67100991Y-22870394D01*
X67128250Y-22768661D01*
X67128250Y-22762447D01*
X67807724Y-23441921D01*
X67840109Y-23397349D01*
X67865964Y-23346605D01*
X67913938Y-23295808D01*
X67981758Y-23279012D01*
X68047894Y-23301548D01*
X68086934Y-23346602D01*
X68114963Y-23401611D01*
X68235278Y-23567213D01*
X68380036Y-23711971D01*
X68510012Y-23806402D01*
X68545640Y-23832287D01*
X68661857Y-23891503D01*
X68728026Y-23925218D01*
X68728028Y-23925218D01*
X68728031Y-23925220D01*
X68796673Y-23947523D01*
X68922715Y-23988477D01*
X68986812Y-23998629D01*
X69124898Y-24020500D01*
X69124899Y-24020500D01*
X69329601Y-24020500D01*
X69329602Y-24020500D01*
X69531784Y-23988477D01*
X69726469Y-23925220D01*
X69908860Y-23832287D01*
X70018168Y-23752871D01*
X70074463Y-23711971D01*
X70074465Y-23711968D01*
X70074469Y-23711966D01*
X70219216Y-23567219D01*
X70219218Y-23567215D01*
X70219221Y-23567213D01*
X70274433Y-23491219D01*
X70339537Y-23401610D01*
X70366765Y-23348171D01*
X70414740Y-23297376D01*
X70482561Y-23280581D01*
X70548696Y-23303118D01*
X70587734Y-23348171D01*
X70612792Y-23397350D01*
X70614965Y-23401613D01*
X70735278Y-23567213D01*
X70880036Y-23711971D01*
X71010012Y-23806402D01*
X71045640Y-23832287D01*
X71161857Y-23891503D01*
X71228026Y-23925218D01*
X71228028Y-23925218D01*
X71228031Y-23925220D01*
X71296673Y-23947523D01*
X71422715Y-23988477D01*
X71486812Y-23998629D01*
X71624898Y-24020500D01*
X71624899Y-24020500D01*
X71829601Y-24020500D01*
X71829602Y-24020500D01*
X72031784Y-23988477D01*
X72226469Y-23925220D01*
X72408860Y-23832287D01*
X72518168Y-23752871D01*
X72574463Y-23711971D01*
X72574465Y-23711968D01*
X72574469Y-23711966D01*
X72719216Y-23567219D01*
X72719218Y-23567215D01*
X72719221Y-23567213D01*
X72774433Y-23491219D01*
X72839537Y-23401610D01*
X72932470Y-23219219D01*
X72995727Y-23024534D01*
X73027750Y-22822352D01*
X73027750Y-22617648D01*
X72995727Y-22415466D01*
X72932470Y-22220781D01*
X72932468Y-22220778D01*
X72932468Y-22220776D01*
X72899570Y-22156211D01*
X72863355Y-22085135D01*
X73284500Y-22085135D01*
X73284500Y-23380870D01*
X73284501Y-23380876D01*
X73290908Y-23440483D01*
X73341202Y-23575328D01*
X73341206Y-23575335D01*
X73427452Y-23690544D01*
X73427455Y-23690547D01*
X73542664Y-23776793D01*
X73542671Y-23776797D01*
X73677517Y-23827091D01*
X73677516Y-23827091D01*
X73684444Y-23827835D01*
X73737127Y-23833500D01*
X75032872Y-23833499D01*
X75092483Y-23827091D01*
X75227331Y-23776796D01*
X75342546Y-23690546D01*
X75428796Y-23575331D01*
X75428797Y-23575326D01*
X75433047Y-23567546D01*
X75435337Y-23568796D01*
X75469017Y-23523791D01*
X75534478Y-23499364D01*
X75602753Y-23514206D01*
X75631024Y-23535366D01*
X75668072Y-23572414D01*
X75808212Y-23674232D01*
X75962555Y-23752873D01*
X76127299Y-23806402D01*
X76298389Y-23833500D01*
X76298390Y-23833500D01*
X76471610Y-23833500D01*
X76471611Y-23833500D01*
X76642701Y-23806402D01*
X76807445Y-23752873D01*
X76961788Y-23674232D01*
X77101928Y-23572414D01*
X77224414Y-23449928D01*
X77326232Y-23309788D01*
X77404873Y-23155445D01*
X77458402Y-22990701D01*
X77469656Y-22919648D01*
X77970750Y-22919648D01*
X77970750Y-23124351D01*
X78002772Y-23326534D01*
X78066031Y-23521223D01*
X78129941Y-23646653D01*
X78142586Y-23671469D01*
X78158965Y-23703613D01*
X78279278Y-23869213D01*
X78424036Y-24013971D01*
X78589638Y-24134286D01*
X78643078Y-24161516D01*
X78693873Y-24209490D01*
X78710668Y-24277312D01*
X78688130Y-24343446D01*
X78643078Y-24382484D01*
X78589638Y-24409713D01*
X78424036Y-24530028D01*
X78279278Y-24674786D01*
X78158965Y-24840386D01*
X78066031Y-25022776D01*
X78002772Y-25217465D01*
X77970750Y-25419648D01*
X77970750Y-25624351D01*
X78002772Y-25826534D01*
X78066031Y-26021223D01*
X78158965Y-26203613D01*
X78279278Y-26369213D01*
X78424036Y-26513971D01*
X78578999Y-26626556D01*
X78589640Y-26634287D01*
X78705857Y-26693503D01*
X78772026Y-26727218D01*
X78772028Y-26727218D01*
X78772031Y-26727220D01*
X78876387Y-26761127D01*
X78966715Y-26790477D01*
X79067807Y-26806488D01*
X79168898Y-26822500D01*
X79168899Y-26822500D01*
X79373601Y-26822500D01*
X79373602Y-26822500D01*
X79575784Y-26790477D01*
X79770469Y-26727220D01*
X79952860Y-26634287D01*
X80045840Y-26566732D01*
X80118463Y-26513971D01*
X80118465Y-26513968D01*
X80118469Y-26513966D01*
X80263216Y-26369219D01*
X80263218Y-26369215D01*
X80263221Y-26369213D01*
X80315982Y-26296590D01*
X80383537Y-26203610D01*
X80476470Y-26021219D01*
X80539727Y-25826534D01*
X80571750Y-25624352D01*
X80571750Y-25419648D01*
X80539727Y-25217466D01*
X80476470Y-25022781D01*
X80476468Y-25022778D01*
X80476468Y-25022776D01*
X80383535Y-24840387D01*
X80358205Y-24805522D01*
X80358204Y-24805521D01*
X80263221Y-24674787D01*
X80263217Y-24674782D01*
X80118463Y-24530028D01*
X79952863Y-24409715D01*
X79952862Y-24409714D01*
X79952860Y-24409713D01*
X79899421Y-24382484D01*
X79848626Y-24334510D01*
X79831831Y-24266689D01*
X79854368Y-24200554D01*
X79899422Y-24161515D01*
X79909759Y-24156248D01*
X79952860Y-24134287D01*
X80063530Y-24053881D01*
X80118463Y-24013971D01*
X80118465Y-24013968D01*
X80118469Y-24013966D01*
X80263216Y-23869219D01*
X80263218Y-23869215D01*
X80263221Y-23869213D01*
X80383534Y-23703614D01*
X80383535Y-23703613D01*
X80383537Y-23703610D01*
X80399908Y-23671479D01*
X80447879Y-23620685D01*
X80515700Y-23603889D01*
X80581835Y-23626425D01*
X80619228Y-23669573D01*
X80619418Y-23669458D01*
X80620117Y-23670599D01*
X80620871Y-23671469D01*
X80621961Y-23673609D01*
X80621962Y-23673610D01*
X80742278Y-23839213D01*
X80887036Y-23983971D01*
X81013985Y-24076203D01*
X81052640Y-24104287D01*
X81154617Y-24156247D01*
X81235026Y-24197218D01*
X81235028Y-24197218D01*
X81235031Y-24197220D01*
X81339387Y-24231127D01*
X81429715Y-24260477D01*
X81468936Y-24266689D01*
X81631898Y-24292500D01*
X81631899Y-24292500D01*
X81836601Y-24292500D01*
X81836602Y-24292500D01*
X82038784Y-24260477D01*
X82233469Y-24197220D01*
X82415860Y-24104287D01*
X82531184Y-24020500D01*
X82581463Y-23983971D01*
X82581465Y-23983968D01*
X82581469Y-23983966D01*
X82726216Y-23839219D01*
X82726218Y-23839215D01*
X82726221Y-23839213D01*
X82778982Y-23766590D01*
X82846537Y-23673610D01*
X82873765Y-23620171D01*
X82921740Y-23569376D01*
X82989561Y-23552581D01*
X83055696Y-23575118D01*
X83094734Y-23620171D01*
X83121962Y-23673609D01*
X83121965Y-23673613D01*
X83242278Y-23839213D01*
X83387036Y-23983971D01*
X83513985Y-24076203D01*
X83552640Y-24104287D01*
X83654617Y-24156247D01*
X83735026Y-24197218D01*
X83735028Y-24197218D01*
X83735031Y-24197220D01*
X83839387Y-24231127D01*
X83929715Y-24260477D01*
X83968936Y-24266689D01*
X84131898Y-24292500D01*
X84131899Y-24292500D01*
X84336601Y-24292500D01*
X84336602Y-24292500D01*
X84538784Y-24260477D01*
X84733469Y-24197220D01*
X84915860Y-24104287D01*
X85031184Y-24020500D01*
X85081463Y-23983971D01*
X85081465Y-23983968D01*
X85081469Y-23983966D01*
X85226216Y-23839219D01*
X85226218Y-23839215D01*
X85226221Y-23839213D01*
X85278982Y-23766590D01*
X85346537Y-23673610D01*
X85439470Y-23491219D01*
X85502727Y-23296534D01*
X85504371Y-23286155D01*
X92126000Y-23286155D01*
X92126000Y-24284000D01*
X93277518Y-24284000D01*
X93266889Y-24302409D01*
X93226000Y-24455009D01*
X93226000Y-24612991D01*
X93266889Y-24765591D01*
X93277518Y-24784000D01*
X92126000Y-24784000D01*
X92126000Y-25781844D01*
X92132401Y-25841372D01*
X92132403Y-25841379D01*
X92182645Y-25976086D01*
X92182649Y-25976093D01*
X92268809Y-26091187D01*
X92268812Y-26091190D01*
X92383906Y-26177350D01*
X92383913Y-26177354D01*
X92518620Y-26227596D01*
X92518627Y-26227598D01*
X92578155Y-26233999D01*
X92578172Y-26234000D01*
X93576000Y-26234000D01*
X93576000Y-25082482D01*
X93594409Y-25093111D01*
X93747009Y-25134000D01*
X93904991Y-25134000D01*
X94057591Y-25093111D01*
X94076000Y-25082482D01*
X94076000Y-26234000D01*
X95073828Y-26234000D01*
X95073844Y-26233999D01*
X95133372Y-26227598D01*
X95133379Y-26227596D01*
X95268086Y-26177354D01*
X95268093Y-26177350D01*
X95383187Y-26091190D01*
X95383190Y-26091187D01*
X95469350Y-25976093D01*
X95469354Y-25976086D01*
X95519596Y-25841379D01*
X95519598Y-25841372D01*
X95525999Y-25781844D01*
X95526000Y-25781827D01*
X95526000Y-24784000D01*
X94374482Y-24784000D01*
X94385111Y-24765591D01*
X94426000Y-24612991D01*
X94426000Y-24455009D01*
X94385111Y-24302409D01*
X94374482Y-24284000D01*
X95526000Y-24284000D01*
X95526000Y-23286172D01*
X95525999Y-23286155D01*
X95519598Y-23226627D01*
X95519596Y-23226620D01*
X95469354Y-23091913D01*
X95469350Y-23091906D01*
X95383190Y-22976812D01*
X95383187Y-22976809D01*
X95268093Y-22890649D01*
X95268086Y-22890645D01*
X95133379Y-22840403D01*
X95133372Y-22840401D01*
X95073844Y-22834000D01*
X94076000Y-22834000D01*
X94076000Y-23985517D01*
X94057591Y-23974889D01*
X93904991Y-23934000D01*
X93747009Y-23934000D01*
X93594409Y-23974889D01*
X93576000Y-23985517D01*
X93576000Y-22834000D01*
X92578155Y-22834000D01*
X92518627Y-22840401D01*
X92518620Y-22840403D01*
X92383913Y-22890645D01*
X92383906Y-22890649D01*
X92268812Y-22976809D01*
X92268809Y-22976812D01*
X92182649Y-23091906D01*
X92182645Y-23091913D01*
X92132403Y-23226620D01*
X92132401Y-23226627D01*
X92126000Y-23286155D01*
X85504371Y-23286155D01*
X85534750Y-23094352D01*
X85534750Y-22889648D01*
X85507479Y-22717466D01*
X85502727Y-22687465D01*
X85470624Y-22588662D01*
X85439470Y-22492781D01*
X85439468Y-22492778D01*
X85439468Y-22492776D01*
X85373765Y-22363828D01*
X85346537Y-22310390D01*
X85309114Y-22258881D01*
X85226221Y-22144786D01*
X85081463Y-22000028D01*
X84915863Y-21879715D01*
X84915862Y-21879714D01*
X84915860Y-21879713D01*
X84858903Y-21850691D01*
X84733473Y-21786781D01*
X84538784Y-21723522D01*
X84364245Y-21695878D01*
X84336602Y-21691500D01*
X84131898Y-21691500D01*
X84107579Y-21695351D01*
X83929715Y-21723522D01*
X83735026Y-21786781D01*
X83552636Y-21879715D01*
X83387036Y-22000028D01*
X83242278Y-22144786D01*
X83121963Y-22310388D01*
X83094734Y-22363828D01*
X83046760Y-22414623D01*
X82978938Y-22431418D01*
X82912804Y-22408880D01*
X82873766Y-22363828D01*
X82846536Y-22310388D01*
X82726221Y-22144786D01*
X82581463Y-22000028D01*
X82415863Y-21879715D01*
X82415862Y-21879714D01*
X82415860Y-21879713D01*
X82358903Y-21850691D01*
X82233473Y-21786781D01*
X82038784Y-21723522D01*
X81864245Y-21695878D01*
X81836602Y-21691500D01*
X81631898Y-21691500D01*
X81607579Y-21695351D01*
X81429715Y-21723522D01*
X81235026Y-21786781D01*
X81052636Y-21879715D01*
X80887036Y-22000028D01*
X80742278Y-22144786D01*
X80621963Y-22310388D01*
X80605591Y-22342520D01*
X80557616Y-22393316D01*
X80489795Y-22410110D01*
X80423660Y-22387572D01*
X80386272Y-22344425D01*
X80386082Y-22344542D01*
X80385377Y-22343392D01*
X80384625Y-22342524D01*
X80383537Y-22340389D01*
X80263221Y-22174786D01*
X80118463Y-22030028D01*
X79952863Y-21909715D01*
X79952862Y-21909714D01*
X79952860Y-21909713D01*
X79880377Y-21872781D01*
X79770473Y-21816781D01*
X79575784Y-21753522D01*
X79401245Y-21725878D01*
X79373602Y-21721500D01*
X79168898Y-21721500D01*
X79144579Y-21725351D01*
X78966715Y-21753522D01*
X78772026Y-21816781D01*
X78589636Y-21909715D01*
X78424036Y-22030028D01*
X78279278Y-22174786D01*
X78158965Y-22340386D01*
X78066031Y-22522776D01*
X78002772Y-22717465D01*
X77970750Y-22919648D01*
X77469656Y-22919648D01*
X77485500Y-22819611D01*
X77485500Y-22646389D01*
X77458402Y-22475299D01*
X77404873Y-22310555D01*
X77326232Y-22156212D01*
X77224414Y-22016072D01*
X77101928Y-21893586D01*
X76961788Y-21791768D01*
X76836690Y-21728028D01*
X76807447Y-21713128D01*
X76807446Y-21713127D01*
X76807445Y-21713127D01*
X76642701Y-21659598D01*
X76642699Y-21659597D01*
X76642698Y-21659597D01*
X76511271Y-21638781D01*
X76471611Y-21632500D01*
X76298389Y-21632500D01*
X76258728Y-21638781D01*
X76127302Y-21659597D01*
X75962552Y-21713128D01*
X75808211Y-21791768D01*
X75765843Y-21822551D01*
X75668072Y-21893586D01*
X75668070Y-21893588D01*
X75668068Y-21893589D01*
X75631023Y-21930634D01*
X75569700Y-21964119D01*
X75500008Y-21959133D01*
X75444075Y-21917261D01*
X75433632Y-21898134D01*
X75433047Y-21898454D01*
X75428793Y-21890664D01*
X75342547Y-21775455D01*
X75342544Y-21775452D01*
X75227335Y-21689206D01*
X75227328Y-21689202D01*
X75092482Y-21638908D01*
X75092483Y-21638908D01*
X75032883Y-21632501D01*
X75032881Y-21632500D01*
X75032873Y-21632500D01*
X75032864Y-21632500D01*
X73737129Y-21632500D01*
X73737123Y-21632501D01*
X73677516Y-21638908D01*
X73542671Y-21689202D01*
X73542664Y-21689206D01*
X73427455Y-21775452D01*
X73427452Y-21775455D01*
X73341206Y-21890664D01*
X73341202Y-21890671D01*
X73290908Y-22025517D01*
X73284501Y-22085116D01*
X73284500Y-22085135D01*
X72863355Y-22085135D01*
X72839537Y-22038390D01*
X72839535Y-22038387D01*
X72839534Y-22038385D01*
X72719221Y-21872786D01*
X72574463Y-21728028D01*
X72408863Y-21607715D01*
X72408862Y-21607714D01*
X72408860Y-21607713D01*
X72351903Y-21578691D01*
X72226473Y-21514781D01*
X72031784Y-21451522D01*
X71855166Y-21423549D01*
X71829602Y-21419500D01*
X71624898Y-21419500D01*
X71600579Y-21423351D01*
X71422715Y-21451522D01*
X71228026Y-21514781D01*
X71045636Y-21607715D01*
X70880036Y-21728028D01*
X70735278Y-21872786D01*
X70614963Y-22038388D01*
X70587734Y-22091828D01*
X70539760Y-22142623D01*
X70471938Y-22159418D01*
X70405804Y-22136880D01*
X70366766Y-22091828D01*
X70339536Y-22038388D01*
X70219221Y-21872786D01*
X70074463Y-21728028D01*
X69908863Y-21607715D01*
X69908862Y-21607714D01*
X69908860Y-21607713D01*
X69851903Y-21578691D01*
X69726473Y-21514781D01*
X69531784Y-21451522D01*
X69355166Y-21423549D01*
X69329602Y-21419500D01*
X69124898Y-21419500D01*
X69100579Y-21423351D01*
X68922715Y-21451522D01*
X68728026Y-21514781D01*
X68545636Y-21607715D01*
X68380036Y-21728028D01*
X68235278Y-21872786D01*
X68114964Y-22038386D01*
X68088972Y-22089398D01*
X68040996Y-22140193D01*
X67973175Y-22156987D01*
X67907041Y-22134448D01*
X67868003Y-22089395D01*
X67840111Y-22034652D01*
X67807724Y-21990077D01*
X67807724Y-21990076D01*
X67128250Y-22669551D01*
X67128250Y-22663339D01*
X67100991Y-22561606D01*
X67048330Y-22470394D01*
X66973856Y-22395920D01*
X66882644Y-22343259D01*
X66780911Y-22316000D01*
X66774696Y-22316000D01*
X67454172Y-21636524D01*
X67454171Y-21636523D01*
X67409609Y-21604147D01*
X67409600Y-21604141D01*
X67227281Y-21511244D01*
X67032667Y-21448009D01*
X66830567Y-21416000D01*
X66625933Y-21416000D01*
X66423832Y-21448009D01*
X66229218Y-21511244D01*
X66046894Y-21604143D01*
X66002327Y-21636523D01*
X66002327Y-21636524D01*
X66681804Y-22316000D01*
X66675589Y-22316000D01*
X66573856Y-22343259D01*
X66482644Y-22395920D01*
X66408170Y-22470394D01*
X66355509Y-22561606D01*
X66328250Y-22663339D01*
X66328250Y-22669553D01*
X65648774Y-21990077D01*
X65648773Y-21990077D01*
X65616393Y-22034644D01*
X65523494Y-22216968D01*
X65460259Y-22411582D01*
X65428250Y-22613682D01*
X65428250Y-22818317D01*
X65460259Y-23020417D01*
X65523494Y-23215031D01*
X65616391Y-23397350D01*
X65616397Y-23397359D01*
X65648773Y-23441921D01*
X65648774Y-23441922D01*
X66328250Y-22762446D01*
X66328250Y-22768661D01*
X66355509Y-22870394D01*
X66408170Y-22961606D01*
X66482644Y-23036080D01*
X66573856Y-23088741D01*
X66675589Y-23116000D01*
X66681803Y-23116000D01*
X66002326Y-23795474D01*
X66046902Y-23827861D01*
X66100626Y-23855234D01*
X66151422Y-23903208D01*
X66168218Y-23971028D01*
X66145681Y-24037164D01*
X66100629Y-24076203D01*
X66046636Y-24103714D01*
X65881036Y-24224028D01*
X65736278Y-24368786D01*
X65615965Y-24534386D01*
X65523031Y-24716776D01*
X65459772Y-24911465D01*
X65427750Y-25113648D01*
X13644050Y-25113648D01*
X13644050Y-17870316D01*
X16392864Y-17870316D01*
X16392864Y-19870347D01*
X16403364Y-19973127D01*
X16403365Y-19973128D01*
X16458550Y-20139667D01*
X16458551Y-20139669D01*
X16550650Y-20288983D01*
X16550653Y-20288987D01*
X16674708Y-20413042D01*
X16674712Y-20413045D01*
X16824026Y-20505144D01*
X16824028Y-20505145D01*
X16824030Y-20505146D01*
X16990567Y-20560331D01*
X17093356Y-20570832D01*
X17093361Y-20570832D01*
X17370729Y-20570832D01*
X17437768Y-20590517D01*
X17483523Y-20643321D01*
X17493467Y-20712479D01*
X17464442Y-20776035D01*
X17418181Y-20809393D01*
X17339646Y-20841922D01*
X17339637Y-20841927D01*
X17146590Y-20953384D01*
X17146581Y-20953390D01*
X16969741Y-21089083D01*
X16969734Y-21089089D01*
X16812121Y-21246702D01*
X16812115Y-21246709D01*
X16676422Y-21423549D01*
X16676416Y-21423558D01*
X16564959Y-21616605D01*
X16564957Y-21616609D01*
X16479657Y-21822541D01*
X16479654Y-21822551D01*
X16424060Y-22030034D01*
X16421961Y-22037866D01*
X16421958Y-22037879D01*
X16392865Y-22258865D01*
X16392864Y-22258881D01*
X16392864Y-22481782D01*
X16392865Y-22481798D01*
X16421958Y-22702784D01*
X16421959Y-22702789D01*
X16421960Y-22702795D01*
X16458832Y-22840403D01*
X16479654Y-22918112D01*
X16479657Y-22918122D01*
X16550330Y-23088741D01*
X16564959Y-23124058D01*
X16676416Y-23317106D01*
X16676421Y-23317112D01*
X16676422Y-23317114D01*
X16812115Y-23493954D01*
X16812121Y-23493961D01*
X16969734Y-23651574D01*
X16969741Y-23651580D01*
X17037552Y-23703613D01*
X17146590Y-23787280D01*
X17339638Y-23898737D01*
X17380108Y-23915500D01*
X17545411Y-23983971D01*
X17545583Y-23984042D01*
X17760901Y-24041736D01*
X17981907Y-24070832D01*
X17981914Y-24070832D01*
X18204814Y-24070832D01*
X18204821Y-24070832D01*
X18425827Y-24041736D01*
X18641145Y-23984042D01*
X18847090Y-23898737D01*
X19040138Y-23787280D01*
X19216988Y-23651579D01*
X19374611Y-23493956D01*
X19510312Y-23317106D01*
X19621769Y-23124058D01*
X19707074Y-22918113D01*
X19748489Y-22763549D01*
X54011500Y-22763549D01*
X54011500Y-22986450D01*
X54011501Y-22986466D01*
X54040594Y-23207452D01*
X54040595Y-23207457D01*
X54040596Y-23207463D01*
X54092618Y-23401611D01*
X54098290Y-23422780D01*
X54098293Y-23422790D01*
X54180264Y-23620685D01*
X54183595Y-23628726D01*
X54295052Y-23821774D01*
X54295057Y-23821780D01*
X54295058Y-23821782D01*
X54430751Y-23998622D01*
X54430757Y-23998629D01*
X54588370Y-24156242D01*
X54588377Y-24156248D01*
X54641771Y-24197218D01*
X54765226Y-24291948D01*
X54958274Y-24403405D01*
X55164219Y-24488710D01*
X55379537Y-24546404D01*
X55600543Y-24575500D01*
X55600550Y-24575500D01*
X55823450Y-24575500D01*
X55823457Y-24575500D01*
X56044463Y-24546404D01*
X56259781Y-24488710D01*
X56465726Y-24403405D01*
X56658774Y-24291948D01*
X56835624Y-24156247D01*
X56993247Y-23998624D01*
X57128948Y-23821774D01*
X57240405Y-23628726D01*
X57325710Y-23422781D01*
X57383404Y-23207463D01*
X57412500Y-22986457D01*
X57412500Y-22763543D01*
X57399308Y-22663339D01*
X57394261Y-22625001D01*
X57385914Y-22561606D01*
X57383404Y-22542537D01*
X57325710Y-22327219D01*
X57240405Y-22121274D01*
X57128948Y-21928226D01*
X57102370Y-21893589D01*
X56999304Y-21759269D01*
X56993248Y-21751377D01*
X56993242Y-21751370D01*
X56835629Y-21593757D01*
X56835622Y-21593751D01*
X56658782Y-21458058D01*
X56658780Y-21458057D01*
X56658774Y-21458052D01*
X56465726Y-21346595D01*
X56465722Y-21346593D01*
X56259790Y-21261293D01*
X56259783Y-21261291D01*
X56259781Y-21261290D01*
X56044463Y-21203596D01*
X56044457Y-21203595D01*
X56044452Y-21203594D01*
X55823466Y-21174501D01*
X55823463Y-21174500D01*
X55823457Y-21174500D01*
X55600543Y-21174500D01*
X55600537Y-21174500D01*
X55600533Y-21174501D01*
X55379547Y-21203594D01*
X55379540Y-21203595D01*
X55379537Y-21203596D01*
X55218640Y-21246708D01*
X55164219Y-21261290D01*
X55164209Y-21261293D01*
X54958277Y-21346593D01*
X54958273Y-21346595D01*
X54765226Y-21458052D01*
X54765217Y-21458058D01*
X54588377Y-21593751D01*
X54588370Y-21593757D01*
X54430757Y-21751370D01*
X54430751Y-21751377D01*
X54295058Y-21928217D01*
X54295052Y-21928226D01*
X54183595Y-22121273D01*
X54183593Y-22121277D01*
X54098293Y-22327209D01*
X54098290Y-22327219D01*
X54053930Y-22492776D01*
X54040597Y-22542534D01*
X54040594Y-22542547D01*
X54011501Y-22763533D01*
X54011500Y-22763549D01*
X19748489Y-22763549D01*
X19764768Y-22702795D01*
X19793864Y-22481789D01*
X19793864Y-22258875D01*
X19764768Y-22037869D01*
X19707074Y-21822551D01*
X19621769Y-21616606D01*
X19510312Y-21423558D01*
X19451255Y-21346593D01*
X19374612Y-21246709D01*
X19374606Y-21246702D01*
X19216993Y-21089089D01*
X19216986Y-21089083D01*
X19040146Y-20953390D01*
X19040144Y-20953389D01*
X19040138Y-20953384D01*
X18847090Y-20841927D01*
X18847081Y-20841922D01*
X18768547Y-20809393D01*
X18714143Y-20765552D01*
X18692078Y-20699258D01*
X18709357Y-20631559D01*
X18760494Y-20583948D01*
X18815999Y-20570832D01*
X19093367Y-20570832D01*
X19093372Y-20570832D01*
X19196161Y-20560331D01*
X19362698Y-20505146D01*
X19512019Y-20413043D01*
X19636075Y-20288987D01*
X19728178Y-20139666D01*
X19783363Y-19973129D01*
X19793864Y-19870340D01*
X19793864Y-18122776D01*
X23526864Y-18122776D01*
X23526864Y-19617887D01*
X23533148Y-19708425D01*
X23533150Y-19708441D01*
X23583023Y-19920488D01*
X23583025Y-19920493D01*
X23583026Y-19920496D01*
X23671021Y-20119786D01*
X23742067Y-20223500D01*
X23794137Y-20299513D01*
X23794142Y-20299519D01*
X23948176Y-20453553D01*
X23948182Y-20453558D01*
X24127910Y-20576675D01*
X24327200Y-20664670D01*
X24327205Y-20664671D01*
X24327207Y-20664672D01*
X24539254Y-20714545D01*
X24539259Y-20714545D01*
X24539265Y-20714547D01*
X24589568Y-20718038D01*
X24629808Y-20720832D01*
X24629812Y-20720832D01*
X26124920Y-20720832D01*
X26161134Y-20718318D01*
X26215463Y-20714547D01*
X26215469Y-20714545D01*
X26215473Y-20714545D01*
X26427520Y-20664672D01*
X26427520Y-20664671D01*
X26427528Y-20664670D01*
X26626818Y-20576675D01*
X26806546Y-20453558D01*
X26960590Y-20299514D01*
X27083707Y-20119786D01*
X27171702Y-19920496D01*
X27186283Y-19858500D01*
X27221577Y-19708441D01*
X27221577Y-19708437D01*
X27221579Y-19708431D01*
X27227864Y-19617884D01*
X27227864Y-18122780D01*
X27227864Y-18122776D01*
X30286864Y-18122776D01*
X30286864Y-19617887D01*
X30293148Y-19708425D01*
X30293150Y-19708441D01*
X30343023Y-19920488D01*
X30343025Y-19920493D01*
X30343026Y-19920496D01*
X30431021Y-20119786D01*
X30502067Y-20223500D01*
X30554137Y-20299513D01*
X30554142Y-20299519D01*
X30708176Y-20453553D01*
X30708182Y-20453558D01*
X30887910Y-20576675D01*
X31087200Y-20664670D01*
X31087205Y-20664671D01*
X31087207Y-20664672D01*
X31299254Y-20714545D01*
X31299259Y-20714545D01*
X31299265Y-20714547D01*
X31349568Y-20718038D01*
X31389808Y-20720832D01*
X31389812Y-20720832D01*
X32884920Y-20720832D01*
X32921134Y-20718318D01*
X32975463Y-20714547D01*
X32975469Y-20714545D01*
X32975473Y-20714545D01*
X33187520Y-20664672D01*
X33187520Y-20664671D01*
X33187528Y-20664670D01*
X33386818Y-20576675D01*
X33566546Y-20453558D01*
X33720590Y-20299514D01*
X33843707Y-20119786D01*
X33931702Y-19920496D01*
X33946283Y-19858500D01*
X33981577Y-19708441D01*
X33981577Y-19708437D01*
X33981579Y-19708431D01*
X33987864Y-19617884D01*
X33987864Y-18749043D01*
X37566864Y-18749043D01*
X37566864Y-18991620D01*
X37597763Y-19226332D01*
X37598526Y-19232121D01*
X37611781Y-19281590D01*
X37661311Y-19466436D01*
X37754137Y-19690537D01*
X37754141Y-19690546D01*
X37759155Y-19699231D01*
X37875428Y-19900621D01*
X37875430Y-19900624D01*
X37875431Y-19900625D01*
X38023097Y-20093068D01*
X38023103Y-20093075D01*
X38194620Y-20264592D01*
X38194627Y-20264598D01*
X38240131Y-20299514D01*
X38387075Y-20412268D01*
X38597152Y-20533556D01*
X38821264Y-20626386D01*
X39055575Y-20689170D01*
X39232628Y-20712479D01*
X39296075Y-20720832D01*
X39296076Y-20720832D01*
X39538653Y-20720832D01*
X39602100Y-20712479D01*
X39779153Y-20689170D01*
X40013464Y-20626386D01*
X40237576Y-20533556D01*
X40447653Y-20412268D01*
X40640102Y-20264597D01*
X40811629Y-20093070D01*
X40959300Y-19900621D01*
X41080588Y-19690544D01*
X41173418Y-19466432D01*
X41236202Y-19232121D01*
X41267864Y-18991620D01*
X41267864Y-18749044D01*
X41267864Y-18749043D01*
X44326864Y-18749043D01*
X44326864Y-18991620D01*
X44357763Y-19226332D01*
X44358526Y-19232121D01*
X44371781Y-19281590D01*
X44421311Y-19466436D01*
X44514137Y-19690537D01*
X44514141Y-19690546D01*
X44519155Y-19699231D01*
X44635428Y-19900621D01*
X44635430Y-19900624D01*
X44635431Y-19900625D01*
X44783097Y-20093068D01*
X44783103Y-20093075D01*
X44954620Y-20264592D01*
X44954627Y-20264598D01*
X45000131Y-20299514D01*
X45147075Y-20412268D01*
X45357152Y-20533556D01*
X45581264Y-20626386D01*
X45815575Y-20689170D01*
X45992628Y-20712479D01*
X46056075Y-20720832D01*
X46056076Y-20720832D01*
X46298653Y-20720832D01*
X46362100Y-20712479D01*
X46539153Y-20689170D01*
X46773464Y-20626386D01*
X46997576Y-20533556D01*
X47207653Y-20412268D01*
X47400102Y-20264597D01*
X47571629Y-20093070D01*
X47719300Y-19900621D01*
X47840588Y-19690544D01*
X47933418Y-19466432D01*
X47996202Y-19232121D01*
X48027864Y-18991620D01*
X48027864Y-18749044D01*
X47996202Y-18508543D01*
X47933418Y-18274232D01*
X47840588Y-18050120D01*
X47719300Y-17840043D01*
X47598232Y-17682264D01*
X47571630Y-17647595D01*
X47571624Y-17647588D01*
X47400107Y-17476071D01*
X47400100Y-17476065D01*
X47207657Y-17328399D01*
X47207656Y-17328398D01*
X47207653Y-17328396D01*
X46997576Y-17207108D01*
X46937542Y-17182241D01*
X46773468Y-17114279D01*
X46539149Y-17051493D01*
X46298653Y-17019832D01*
X46298652Y-17019832D01*
X46056076Y-17019832D01*
X46056075Y-17019832D01*
X45815578Y-17051493D01*
X45581259Y-17114279D01*
X45357158Y-17207105D01*
X45357149Y-17207109D01*
X45226943Y-17282284D01*
X45148418Y-17327621D01*
X45147070Y-17328399D01*
X44954627Y-17476065D01*
X44954620Y-17476071D01*
X44783103Y-17647588D01*
X44783097Y-17647595D01*
X44635431Y-17840038D01*
X44514141Y-18050117D01*
X44514137Y-18050126D01*
X44421311Y-18274227D01*
X44358525Y-18508546D01*
X44326864Y-18749043D01*
X41267864Y-18749043D01*
X41236202Y-18508543D01*
X41173418Y-18274232D01*
X41080588Y-18050120D01*
X40959300Y-17840043D01*
X40838232Y-17682264D01*
X40811630Y-17647595D01*
X40811624Y-17647588D01*
X40640107Y-17476071D01*
X40640100Y-17476065D01*
X40447657Y-17328399D01*
X40447656Y-17328398D01*
X40447653Y-17328396D01*
X40237576Y-17207108D01*
X40177542Y-17182241D01*
X40013468Y-17114279D01*
X39779149Y-17051493D01*
X39538653Y-17019832D01*
X39538652Y-17019832D01*
X39296076Y-17019832D01*
X39296075Y-17019832D01*
X39055578Y-17051493D01*
X38821259Y-17114279D01*
X38597158Y-17207105D01*
X38597149Y-17207109D01*
X38466943Y-17282284D01*
X38388418Y-17327621D01*
X38387070Y-17328399D01*
X38194627Y-17476065D01*
X38194620Y-17476071D01*
X38023103Y-17647588D01*
X38023097Y-17647595D01*
X37875431Y-17840038D01*
X37754141Y-18050117D01*
X37754137Y-18050126D01*
X37661311Y-18274227D01*
X37598525Y-18508546D01*
X37566864Y-18749043D01*
X33987864Y-18749043D01*
X33987864Y-18122780D01*
X33981579Y-18032233D01*
X33981577Y-18032227D01*
X33981577Y-18032222D01*
X33931704Y-17820175D01*
X33931703Y-17820173D01*
X33931702Y-17820168D01*
X33843707Y-17620878D01*
X33720590Y-17441150D01*
X33720585Y-17441144D01*
X33566551Y-17287110D01*
X33566545Y-17287105D01*
X33534010Y-17264818D01*
X33386818Y-17163989D01*
X33187528Y-17075994D01*
X33187525Y-17075993D01*
X33187520Y-17075991D01*
X32975473Y-17026118D01*
X32975457Y-17026116D01*
X32884920Y-17019832D01*
X32884916Y-17019832D01*
X31389812Y-17019832D01*
X31389808Y-17019832D01*
X31299270Y-17026116D01*
X31299254Y-17026118D01*
X31087207Y-17075991D01*
X31087200Y-17075994D01*
X30887914Y-17163987D01*
X30887913Y-17163987D01*
X30887910Y-17163989D01*
X30838520Y-17197822D01*
X30708182Y-17287105D01*
X30708176Y-17287110D01*
X30554142Y-17441144D01*
X30554137Y-17441150D01*
X30500907Y-17518857D01*
X30431021Y-17620878D01*
X30431019Y-17620881D01*
X30431019Y-17620882D01*
X30343026Y-17820168D01*
X30343023Y-17820175D01*
X30293150Y-18032222D01*
X30293148Y-18032238D01*
X30286864Y-18122776D01*
X27227864Y-18122776D01*
X27221579Y-18032233D01*
X27221577Y-18032227D01*
X27221577Y-18032222D01*
X27171704Y-17820175D01*
X27171703Y-17820173D01*
X27171702Y-17820168D01*
X27083707Y-17620878D01*
X26960590Y-17441150D01*
X26960585Y-17441144D01*
X26806551Y-17287110D01*
X26806545Y-17287105D01*
X26774010Y-17264818D01*
X26626818Y-17163989D01*
X26427528Y-17075994D01*
X26427525Y-17075993D01*
X26427520Y-17075991D01*
X26215473Y-17026118D01*
X26215457Y-17026116D01*
X26124920Y-17019832D01*
X26124916Y-17019832D01*
X24629812Y-17019832D01*
X24629808Y-17019832D01*
X24539270Y-17026116D01*
X24539254Y-17026118D01*
X24327207Y-17075991D01*
X24327200Y-17075994D01*
X24127914Y-17163987D01*
X24127913Y-17163987D01*
X24127910Y-17163989D01*
X24078520Y-17197822D01*
X23948182Y-17287105D01*
X23948176Y-17287110D01*
X23794142Y-17441144D01*
X23794137Y-17441150D01*
X23740907Y-17518857D01*
X23671021Y-17620878D01*
X23671019Y-17620881D01*
X23671019Y-17620882D01*
X23583026Y-17820168D01*
X23583023Y-17820175D01*
X23533150Y-18032222D01*
X23533148Y-18032238D01*
X23526864Y-18122776D01*
X19793864Y-18122776D01*
X19793864Y-17870324D01*
X19783363Y-17767535D01*
X19728178Y-17600998D01*
X19708348Y-17568849D01*
X19636077Y-17451680D01*
X19636074Y-17451676D01*
X19512019Y-17327621D01*
X19512015Y-17327618D01*
X19362701Y-17235519D01*
X19362699Y-17235518D01*
X19248939Y-17197822D01*
X19196161Y-17180333D01*
X19196159Y-17180332D01*
X19093379Y-17169832D01*
X19093372Y-17169832D01*
X17093356Y-17169832D01*
X17093348Y-17169832D01*
X16990568Y-17180332D01*
X16990567Y-17180333D01*
X16824028Y-17235518D01*
X16824026Y-17235519D01*
X16674712Y-17327618D01*
X16674708Y-17327621D01*
X16550653Y-17451676D01*
X16550650Y-17451680D01*
X16458551Y-17600994D01*
X16458550Y-17600996D01*
X16403365Y-17767535D01*
X16403364Y-17767536D01*
X16392864Y-17870316D01*
X13644050Y-17870316D01*
X13644050Y-16627135D01*
X54011500Y-16627135D01*
X54011500Y-19122870D01*
X54011501Y-19122876D01*
X54017908Y-19182483D01*
X54068202Y-19317328D01*
X54068206Y-19317335D01*
X54154452Y-19432544D01*
X54154455Y-19432547D01*
X54269664Y-19518793D01*
X54269671Y-19518797D01*
X54404517Y-19569091D01*
X54404516Y-19569091D01*
X54407651Y-19569428D01*
X54464127Y-19575500D01*
X56959872Y-19575499D01*
X57019483Y-19569091D01*
X57154331Y-19518796D01*
X57269546Y-19432546D01*
X57355796Y-19317331D01*
X57406091Y-19182483D01*
X57412500Y-19122873D01*
X57412499Y-17628467D01*
X65200364Y-17628467D01*
X65200364Y-19724202D01*
X65200365Y-19724208D01*
X65206772Y-19783815D01*
X65257066Y-19918660D01*
X65257070Y-19918667D01*
X65343316Y-20033876D01*
X65343319Y-20033879D01*
X65458528Y-20120125D01*
X65458535Y-20120129D01*
X65593381Y-20170423D01*
X65593380Y-20170423D01*
X65600308Y-20171167D01*
X65652991Y-20176832D01*
X67653736Y-20176831D01*
X67713347Y-20170423D01*
X67848195Y-20120128D01*
X67963410Y-20033878D01*
X68049660Y-19918663D01*
X68060054Y-19890792D01*
X68101924Y-19834859D01*
X68167387Y-19810440D01*
X68235661Y-19825290D01*
X68249110Y-19833797D01*
X68431826Y-19966549D01*
X68634691Y-20069914D01*
X68635608Y-20070381D01*
X68853115Y-20141053D01*
X68853116Y-20141053D01*
X68853119Y-20141054D01*
X69079010Y-20176832D01*
X69079011Y-20176832D01*
X69307717Y-20176832D01*
X69307718Y-20176832D01*
X69533609Y-20141054D01*
X69533612Y-20141053D01*
X69533613Y-20141053D01*
X69751119Y-20070381D01*
X69751119Y-20070380D01*
X69751122Y-20070380D01*
X69954902Y-19966549D01*
X70139930Y-19832118D01*
X70301650Y-19670398D01*
X70363047Y-19585891D01*
X70418376Y-19543228D01*
X70487989Y-19537249D01*
X70549784Y-19569855D01*
X70563678Y-19585888D01*
X70625078Y-19670398D01*
X70786798Y-19832118D01*
X70971826Y-19966549D01*
X71174691Y-20069914D01*
X71175608Y-20070381D01*
X71393115Y-20141053D01*
X71393116Y-20141053D01*
X71393119Y-20141054D01*
X71619010Y-20176832D01*
X71619011Y-20176832D01*
X71847717Y-20176832D01*
X71847718Y-20176832D01*
X72073609Y-20141054D01*
X72073612Y-20141053D01*
X72073613Y-20141053D01*
X72291119Y-20070381D01*
X72291119Y-20070380D01*
X72291122Y-20070380D01*
X72494902Y-19966549D01*
X72679930Y-19832118D01*
X72841650Y-19670398D01*
X72976081Y-19485370D01*
X73079912Y-19281590D01*
X73131482Y-19122873D01*
X73150585Y-19064081D01*
X73150585Y-19064080D01*
X73150586Y-19064077D01*
X73186364Y-18838186D01*
X73186364Y-18514478D01*
X73150586Y-18288587D01*
X73150585Y-18288583D01*
X73150585Y-18288582D01*
X73079913Y-18071076D01*
X73060124Y-18032238D01*
X72976081Y-17867294D01*
X72841650Y-17682266D01*
X72787851Y-17628467D01*
X76034364Y-17628467D01*
X76034364Y-19724202D01*
X76034365Y-19724208D01*
X76040772Y-19783815D01*
X76091066Y-19918660D01*
X76091070Y-19918667D01*
X76177316Y-20033876D01*
X76177319Y-20033879D01*
X76292528Y-20120125D01*
X76292535Y-20120129D01*
X76427381Y-20170423D01*
X76427380Y-20170423D01*
X76434308Y-20171167D01*
X76486991Y-20176832D01*
X78487736Y-20176831D01*
X78547347Y-20170423D01*
X78682195Y-20120128D01*
X78797410Y-20033878D01*
X78883660Y-19918663D01*
X78894054Y-19890792D01*
X78935924Y-19834859D01*
X79001387Y-19810440D01*
X79069661Y-19825290D01*
X79083110Y-19833797D01*
X79265826Y-19966549D01*
X79468691Y-20069914D01*
X79469608Y-20070381D01*
X79687115Y-20141053D01*
X79687116Y-20141053D01*
X79687119Y-20141054D01*
X79913010Y-20176832D01*
X79913011Y-20176832D01*
X80141717Y-20176832D01*
X80141718Y-20176832D01*
X80367609Y-20141054D01*
X80367612Y-20141053D01*
X80367613Y-20141053D01*
X80585119Y-20070381D01*
X80585119Y-20070380D01*
X80585122Y-20070380D01*
X80788902Y-19966549D01*
X80973930Y-19832118D01*
X81135650Y-19670398D01*
X81197356Y-19585466D01*
X81252683Y-19542802D01*
X81322296Y-19536823D01*
X81384091Y-19569428D01*
X81397990Y-19585467D01*
X81459461Y-19670073D01*
X81459461Y-19670074D01*
X81621121Y-19831734D01*
X81806087Y-19966120D01*
X82009793Y-20069914D01*
X82227235Y-20140566D01*
X82317364Y-20154841D01*
X82317364Y-19167079D01*
X82355072Y-19188850D01*
X82494955Y-19226332D01*
X82639773Y-19226332D01*
X82779656Y-19188850D01*
X82817364Y-19167079D01*
X82817364Y-20154840D01*
X82907492Y-20140566D01*
X83124934Y-20069914D01*
X83328640Y-19966120D01*
X83513606Y-19831734D01*
X83675266Y-19670074D01*
X83809652Y-19485108D01*
X83913446Y-19281402D01*
X83984098Y-19063960D01*
X84005896Y-18926332D01*
X83058112Y-18926332D01*
X83079882Y-18888624D01*
X83117364Y-18748741D01*
X83117364Y-18603923D01*
X83079882Y-18464040D01*
X83058112Y-18426332D01*
X84005896Y-18426332D01*
X83984098Y-18288703D01*
X83937446Y-18145125D01*
X83926077Y-18110135D01*
X87377500Y-18110135D01*
X87377500Y-19405870D01*
X87377501Y-19405876D01*
X87383908Y-19465483D01*
X87434202Y-19600328D01*
X87434206Y-19600335D01*
X87520452Y-19715544D01*
X87520455Y-19715547D01*
X87635664Y-19801793D01*
X87635671Y-19801797D01*
X87770517Y-19852091D01*
X87770516Y-19852091D01*
X87777444Y-19852835D01*
X87830127Y-19858500D01*
X89125872Y-19858499D01*
X89185483Y-19852091D01*
X89320331Y-19801796D01*
X89435546Y-19715546D01*
X89521796Y-19600331D01*
X89521797Y-19600326D01*
X89526047Y-19592546D01*
X89528337Y-19593796D01*
X89562017Y-19548791D01*
X89627478Y-19524364D01*
X89695753Y-19539206D01*
X89724024Y-19560366D01*
X89761072Y-19597414D01*
X89901212Y-19699232D01*
X90055555Y-19777873D01*
X90220299Y-19831402D01*
X90391389Y-19858500D01*
X90391390Y-19858500D01*
X90564610Y-19858500D01*
X90564611Y-19858500D01*
X90735701Y-19831402D01*
X90900445Y-19777873D01*
X91054788Y-19699232D01*
X91194928Y-19597414D01*
X91317414Y-19474928D01*
X91419232Y-19334788D01*
X91497873Y-19180445D01*
X91551402Y-19015701D01*
X91578500Y-18844611D01*
X91578500Y-18671389D01*
X91551402Y-18500299D01*
X91497873Y-18335555D01*
X91419232Y-18181212D01*
X91317414Y-18041072D01*
X91194928Y-17918586D01*
X91054788Y-17816768D01*
X90900445Y-17738127D01*
X90746744Y-17688186D01*
X97373500Y-17688186D01*
X97373500Y-17957813D01*
X97403686Y-18225719D01*
X97403688Y-18225731D01*
X97463684Y-18488594D01*
X97463687Y-18488602D01*
X97552734Y-18743082D01*
X97669714Y-18985994D01*
X97669716Y-18985997D01*
X97813162Y-19214289D01*
X97909257Y-19334788D01*
X97981265Y-19425084D01*
X98171914Y-19615733D01*
X98171913Y-19615733D01*
X98240463Y-19670399D01*
X98382711Y-19783838D01*
X98611003Y-19927284D01*
X98853921Y-20044267D01*
X98993407Y-20093075D01*
X99108397Y-20133312D01*
X99108405Y-20133315D01*
X99108408Y-20133315D01*
X99108409Y-20133316D01*
X99371268Y-20193312D01*
X99639187Y-20223499D01*
X99639188Y-20223500D01*
X99639191Y-20223500D01*
X99908812Y-20223500D01*
X99908812Y-20223499D01*
X100176732Y-20193312D01*
X100439591Y-20133316D01*
X100694079Y-20044267D01*
X100936997Y-19927284D01*
X101165289Y-19783838D01*
X101376085Y-19615734D01*
X101566734Y-19425085D01*
X101734838Y-19214289D01*
X101878284Y-18985997D01*
X101995267Y-18743079D01*
X102084316Y-18488591D01*
X102144312Y-18225732D01*
X102174500Y-17957809D01*
X102174500Y-17688191D01*
X102144312Y-17420268D01*
X102084316Y-17157409D01*
X101995267Y-16902921D01*
X101878284Y-16660003D01*
X101734838Y-16431711D01*
X101566734Y-16220915D01*
X101376085Y-16030266D01*
X101165289Y-15862162D01*
X100936997Y-15718716D01*
X100936994Y-15718714D01*
X100694082Y-15601734D01*
X100439602Y-15512687D01*
X100439594Y-15512684D01*
X100242446Y-15467687D01*
X100176732Y-15452688D01*
X100176728Y-15452687D01*
X100176719Y-15452686D01*
X99908813Y-15422500D01*
X99908809Y-15422500D01*
X99639191Y-15422500D01*
X99639186Y-15422500D01*
X99371280Y-15452686D01*
X99371268Y-15452688D01*
X99108405Y-15512684D01*
X99108397Y-15512687D01*
X98853917Y-15601734D01*
X98611005Y-15718714D01*
X98382712Y-15862161D01*
X98171915Y-16030265D01*
X97981265Y-16220915D01*
X97813161Y-16431712D01*
X97669714Y-16660005D01*
X97552734Y-16902917D01*
X97463687Y-17157397D01*
X97463684Y-17157405D01*
X97403688Y-17420268D01*
X97403686Y-17420280D01*
X97373500Y-17688186D01*
X90746744Y-17688186D01*
X90735701Y-17684598D01*
X90735699Y-17684597D01*
X90735698Y-17684597D01*
X90604271Y-17663781D01*
X90564611Y-17657500D01*
X90391389Y-17657500D01*
X90351728Y-17663781D01*
X90220302Y-17684597D01*
X90055552Y-17738128D01*
X89901211Y-17816768D01*
X89831669Y-17867294D01*
X89761072Y-17918586D01*
X89761070Y-17918588D01*
X89761068Y-17918589D01*
X89724023Y-17955634D01*
X89662700Y-17989119D01*
X89593008Y-17984133D01*
X89537075Y-17942261D01*
X89526632Y-17923134D01*
X89526047Y-17923454D01*
X89521793Y-17915664D01*
X89435547Y-17800455D01*
X89435544Y-17800452D01*
X89320335Y-17714206D01*
X89320328Y-17714202D01*
X89185482Y-17663908D01*
X89185483Y-17663908D01*
X89125883Y-17657501D01*
X89125881Y-17657500D01*
X89125873Y-17657500D01*
X89125864Y-17657500D01*
X87830129Y-17657500D01*
X87830123Y-17657501D01*
X87770516Y-17663908D01*
X87635671Y-17714202D01*
X87635664Y-17714206D01*
X87520455Y-17800452D01*
X87520452Y-17800455D01*
X87434206Y-17915664D01*
X87434202Y-17915671D01*
X87383908Y-18050517D01*
X87377501Y-18110116D01*
X87377500Y-18110135D01*
X83926077Y-18110135D01*
X83913446Y-18071261D01*
X83809652Y-17867555D01*
X83675266Y-17682589D01*
X83513606Y-17520929D01*
X83328640Y-17386543D01*
X83124932Y-17282749D01*
X82907488Y-17212097D01*
X82817364Y-17197822D01*
X82817364Y-18185584D01*
X82779656Y-18163814D01*
X82639773Y-18126332D01*
X82494955Y-18126332D01*
X82355072Y-18163814D01*
X82317364Y-18185584D01*
X82317364Y-17197822D01*
X82317363Y-17197822D01*
X82227239Y-17212097D01*
X82009795Y-17282749D01*
X81806087Y-17386543D01*
X81621121Y-17520929D01*
X81459461Y-17682589D01*
X81397991Y-17767196D01*
X81342661Y-17809861D01*
X81273048Y-17815840D01*
X81211253Y-17783234D01*
X81197355Y-17767196D01*
X81135650Y-17682266D01*
X80973930Y-17520546D01*
X80788902Y-17386115D01*
X80674101Y-17327621D01*
X80585119Y-17282282D01*
X80367612Y-17211610D01*
X80182176Y-17182240D01*
X80141718Y-17175832D01*
X79913010Y-17175832D01*
X79872552Y-17182240D01*
X79687117Y-17211610D01*
X79687114Y-17211610D01*
X79469608Y-17282282D01*
X79265825Y-17386115D01*
X79083123Y-17518857D01*
X79017316Y-17542337D01*
X78949262Y-17526512D01*
X78900567Y-17476406D01*
X78894054Y-17461870D01*
X78890252Y-17451677D01*
X78883660Y-17434001D01*
X78883657Y-17433996D01*
X78797411Y-17318787D01*
X78797408Y-17318784D01*
X78682199Y-17232538D01*
X78682192Y-17232534D01*
X78547346Y-17182240D01*
X78547347Y-17182240D01*
X78487747Y-17175833D01*
X78487745Y-17175832D01*
X78487737Y-17175832D01*
X78487728Y-17175832D01*
X76486993Y-17175832D01*
X76486987Y-17175833D01*
X76427380Y-17182240D01*
X76292535Y-17232534D01*
X76292528Y-17232538D01*
X76177319Y-17318784D01*
X76177316Y-17318787D01*
X76091070Y-17433996D01*
X76091066Y-17434003D01*
X76040772Y-17568849D01*
X76034365Y-17628448D01*
X76034364Y-17628467D01*
X72787851Y-17628467D01*
X72679930Y-17520546D01*
X72494902Y-17386115D01*
X72380101Y-17327621D01*
X72291119Y-17282282D01*
X72073612Y-17211610D01*
X71888176Y-17182240D01*
X71847718Y-17175832D01*
X71619010Y-17175832D01*
X71578552Y-17182240D01*
X71393117Y-17211610D01*
X71393114Y-17211610D01*
X71175608Y-17282282D01*
X70971825Y-17386115D01*
X70905914Y-17434003D01*
X70786798Y-17520546D01*
X70786796Y-17520548D01*
X70786795Y-17520548D01*
X70625079Y-17682264D01*
X70563682Y-17766770D01*
X70508351Y-17809435D01*
X70438738Y-17815414D01*
X70376943Y-17782808D01*
X70363046Y-17766770D01*
X70324853Y-17714202D01*
X70301650Y-17682266D01*
X70139930Y-17520546D01*
X69954902Y-17386115D01*
X69840101Y-17327621D01*
X69751119Y-17282282D01*
X69533612Y-17211610D01*
X69348176Y-17182240D01*
X69307718Y-17175832D01*
X69079010Y-17175832D01*
X69038552Y-17182240D01*
X68853117Y-17211610D01*
X68853114Y-17211610D01*
X68635608Y-17282282D01*
X68431825Y-17386115D01*
X68249123Y-17518857D01*
X68183316Y-17542337D01*
X68115262Y-17526512D01*
X68066567Y-17476406D01*
X68060054Y-17461870D01*
X68056252Y-17451677D01*
X68049660Y-17434001D01*
X68049657Y-17433996D01*
X67963411Y-17318787D01*
X67963408Y-17318784D01*
X67848199Y-17232538D01*
X67848192Y-17232534D01*
X67713346Y-17182240D01*
X67713347Y-17182240D01*
X67653747Y-17175833D01*
X67653745Y-17175832D01*
X67653737Y-17175832D01*
X67653728Y-17175832D01*
X65652993Y-17175832D01*
X65652987Y-17175833D01*
X65593380Y-17182240D01*
X65458535Y-17232534D01*
X65458528Y-17232538D01*
X65343319Y-17318784D01*
X65343316Y-17318787D01*
X65257070Y-17433996D01*
X65257066Y-17434003D01*
X65206772Y-17568849D01*
X65200365Y-17628448D01*
X65200364Y-17628467D01*
X57412499Y-17628467D01*
X57412499Y-16627128D01*
X57406091Y-16567517D01*
X57355796Y-16432669D01*
X57355795Y-16432668D01*
X57355793Y-16432664D01*
X57269547Y-16317455D01*
X57269544Y-16317452D01*
X57154335Y-16231206D01*
X57154328Y-16231202D01*
X57019482Y-16180908D01*
X57019483Y-16180908D01*
X56959883Y-16174501D01*
X56959881Y-16174500D01*
X56959873Y-16174500D01*
X56959864Y-16174500D01*
X54464129Y-16174500D01*
X54464123Y-16174501D01*
X54404516Y-16180908D01*
X54269671Y-16231202D01*
X54269664Y-16231206D01*
X54154455Y-16317452D01*
X54154452Y-16317455D01*
X54068206Y-16432664D01*
X54068202Y-16432671D01*
X54017908Y-16567517D01*
X54011501Y-16627116D01*
X54011501Y-16627123D01*
X54011500Y-16627135D01*
X13644050Y-16627135D01*
X13644050Y-13504832D01*
X13663735Y-13437793D01*
X13716539Y-13392038D01*
X13768050Y-13380832D01*
X103386050Y-13380832D01*
X103453089Y-13400517D01*
G37*
%TD.AperFunction*%
%TD*%
M02*
