M48
; DRILL file {KiCad 9.0.5} date 2026-01-26T23:15:02+0100
; FORMAT={-:-/ absolute / metric / decimal}
; #@! TF.CreationDate,2026-01-26T23:15:02+01:00
; #@! TF.GenerationSoftware,Kicad,Pcbnew,9.0.5
; #@! TF.FileFunction,Plated,1,4,PTH
FMAT,2
METRIC
; #@! TA.AperFunction,Plated,PTH,ViaDrill
T1C0.300
; #@! TA.AperFunction,Plated,PTH,ComponentDrill
T2C0.600
; #@! TA.AperFunction,Plated,PTH,ViaDrill
T3C0.700
; #@! TA.AperFunction,Plated,PTH,ComponentDrill
T4C0.800
; #@! TA.AperFunction,Plated,PTH,ComponentDrill
T5C1.100
; #@! TA.AperFunction,Plated,PTH,ComponentDrill
T6C1.200
; #@! TA.AperFunction,Plated,PTH,ComponentDrill
T7C1.300
; #@! TA.AperFunction,Plated,PTH,ComponentDrill
T8C1.500
; #@! TA.AperFunction,Plated,PTH,ComponentDrill
T9C1.700
; #@! TA.AperFunction,Plated,PTH,ComponentDrill
T10C2.700
%
G90
G05
T1
X15.267Y-44.214
X19.042Y-59.177
X20.3Y-54.035
X21.069Y-82.65
X22.147Y-67.356
X22.473Y-45.946
X25.274Y-60.763
X25.492Y-54.512
X27.375Y-68.811
X27.538Y-66.404
X29.06Y-56.169
X29.593Y-70.341
X29.593Y-71.902
X30.099Y-65.904
X31.92Y-50.723
X32.422Y-57.184
X32.877Y-45.088
X36.366Y-58.606
X36.564Y-54.059
X39.131Y-54.376
X42.279Y-52.047
X43.603Y-68.416
X45.162Y-59.479
X45.904Y-44.7
X58.741Y-68.048
T2
X53.253Y-23.119
X53.253Y-25.119
X58.059Y-23.119
X58.059Y-25.119
T3
X86.192Y-63.707
X86.199Y-62.378
X87.292Y-63.705
X87.299Y-62.376
X88.342Y-63.705
X88.349Y-62.376
T4
X20.723Y-29.716
X20.723Y-32.216
X36.576Y-25.886
X36.576Y-28.386
X45.458Y-25.886
X45.458Y-28.386
X48.828Y-40.42
X48.828Y-42.96
X48.828Y-45.5
X48.828Y-48.04
X48.828Y-50.58
X48.828Y-53.12
X48.828Y-55.66
X48.828Y-58.2
X48.828Y-60.74
X48.828Y-63.28
X52.061Y-17.06
X52.061Y-19.56
X56.448Y-40.42
X56.448Y-42.96
X56.448Y-45.5
X56.448Y-48.04
X56.448Y-50.58
X56.448Y-53.12
X56.448Y-55.66
X56.448Y-58.2
X56.448Y-60.74
X56.448Y-63.28
X59.326Y-17.06
X59.326Y-19.56
X65.075Y-22.992
X67.575Y-22.992
X70.038Y-23.022
X70.038Y-25.522
X77.582Y-22.72
X80.082Y-22.72
X82.581Y-22.716
X82.581Y-25.216
X89.684Y-19.868
X89.684Y-22.368
X95.832Y-38.944
X95.832Y-41.444
X96.227Y-73.584
X96.227Y-76.084
T5
X30.593Y-34.894
X30.593Y-41.394
X35.093Y-34.894
X35.093Y-41.394
X65.825Y-32.106
X65.825Y-63.28
X66.653Y-18.676
X68.365Y-32.106
X68.365Y-63.28
X69.193Y-18.676
X70.905Y-32.106
X70.905Y-63.28
X71.733Y-18.676
X76.457Y-32.106
X76.457Y-63.28
X77.487Y-18.676
X78.997Y-32.106
X78.997Y-63.28
X80.027Y-18.676
X81.537Y-32.106
X81.537Y-63.28
X82.567Y-18.676
T6
X18.093Y-18.87
X18.093Y-22.37
X97.941Y-54.022
X97.941Y-57.522
T7
X16.582Y-65.696
X19.082Y-63.196
X19.082Y-68.196
T8
X88.126Y-43.199
X88.411Y-72.041
X92.696Y-43.199
X92.981Y-72.041
T9
X25.377Y-18.87
X32.137Y-18.87
X39.417Y-18.87
X46.177Y-18.87
T10
X17.431Y-38.135
X99.0Y-17.0
X99.0Y-80.0
M30
